<?xml version="1.0" encoding="UTF-8"?>
<svg id="Capa_1" xmlns="http://www.w3.org/2000/svg" version="1.1" viewBox="0 0 340 40">
  <!-- Generator: Adobe Illustrator 29.2.1, SVG Export Plug-In . SVG Version: 2.1.0 Build 116)  -->
  <defs>
    <style>
      .st0 {
        fill: #fff;
      }

      .st1 {
        fill: #3ba3dd;
      }
    </style>
  </defs>
  <path class="st1" d="M254.1,6.1h65.2c7.8,0,14.2,6.3,14.2,14.2h0c0,7.8-6.3,14.2-14.2,14.2h-65.2c-7.8,0-14.2-6.3-14.2-14.2h0c0-7.8,6.3-14.2,14.2-14.2Z"/>
  <path class="st0" d="M260.9,25.2c0,.6-.5,1.1-1.2,1.1h-4.5c-.8,0-1.6-.3-1.6-1.2v-9.7c0-.6.6-1.2,1.3-1.2h4.6c.7,0,1.2.5,1.2,1.1s-.5,1.1-1.2,1.1h-3.6v2.8h3.2c.6,0,1.2.5,1.2,1.1s-.5,1.1-1.2,1.1h-3.2v2.8h3.7c.6,0,1.2.5,1.2,1.1ZM269.9,26.5c-.4,0-.9-.2-1.1-.6l-4-6.9v6.4c0,.6-.6,1.1-1.2,1.1s-1.2-.5-1.2-1.1v-10.1c0-.7.5-1.2,1.3-1.2s.9.3,1.2.6c1.5,2.6,2.4,4.2,4,7v-6.5c0-.6.6-1.1,1.2-1.1s1.2.5,1.2,1.1v10.1c0,.6-.5,1.2-1.3,1.2ZM285.7,25.2c0,.6-.5,1.1-1.2,1.1h-4.8c-.7,0-1.3-.5-1.3-1.2v-10c0-.6.5-1.1,1.2-1.1s1.2.5,1.2,1.1v9h3.7c.6,0,1.2.5,1.2,1.1ZM287.1,25.4v-10.2c0-.6.5-1.1,1.2-1.1s1.2.5,1.2,1.1v10.2c0,.6-.5,1.1-1.2,1.1s-1.2-.5-1.2-1.1ZM287.4,12l1.4-1.4h.1c.2-.3.3-.5.7-.5s.8.4.8.8,0,.3-.2.5l-1.4,1.4c-.3.2-.4.4-.8.4s-.9-.3-.9-.8,0-.3.1-.4ZM299.2,26.5c-.4,0-.9-.2-1.1-.6l-4-6.9v6.4c0,.6-.6,1.1-1.2,1.1s-1.2-.5-1.2-1.1v-10.1c0-.7.5-1.2,1.3-1.2s.9.3,1.2.6c1.5,2.6,2.4,4.2,4,7v-6.5c0-.6.6-1.1,1.2-1.1s1.2.5,1.2,1.1v10.1c0,.6-.5,1.2-1.3,1.2ZM310,25.2c0,.6-.5,1.1-1.2,1.1h-4.5c-.8,0-1.6-.3-1.6-1.2v-9.7c0-.6.6-1.2,1.3-1.2h4.6c.7,0,1.2.5,1.2,1.1s-.5,1.1-1.2,1.1h-3.6v2.8h3.2c.6,0,1.2.5,1.2,1.1s-.5,1.1-1.2,1.1h-3.2v2.8h3.7c.6,0,1.2.5,1.2,1.1ZM314,23.9l-.6,1.7c-.2.5-.7.8-1.1.8-.7,0-1.2-.4-1.2-1.1s0-.3,0-.4l3.3-9.8c.2-.7.6-1.2,1.4-1.2s1.2.5,1.4,1.2l3.3,9.8c0,0,0,.3,0,.4,0,.7-.5,1.1-1.2,1.1s-1-.3-1.2-.8l-.6-1.7h-3.7ZM317,22l-.9-2.9c-.2-.5-.2-1.1-.3-1.7,0,.5-.2,1.2-.3,1.7l-.9,2.9h2.4Z"/>
  <path class="st0" d="M18.2,31.4c0,.8-.6,1.3-1.3,1.3H7.2c-.8,0-1.5-.7-1.5-1.5V9.6c0-.7.6-1.4,1.4-1.4s1.4.7,1.4,1.4v20.5h8.5c.7,0,1.3.6,1.3,1.3ZM24.6,27.3l-1.4,4.8c-.2.6-.8,1-1.3,1-.8,0-1.4-.5-1.4-1.4s0-.4,0-.5l6.7-21.2c.3-1,.8-1.8,1.8-1.8s1.5.8,1.8,1.8l6.7,21.2c0,.1,0,.4,0,.5,0,.8-.6,1.4-1.4,1.4s-1.2-.4-1.3-1l-1.5-4.8h-8.7ZM29,13l-3.5,11.6h7.1l-3.5-11.6ZM42.3,17v7.3c0,3.8,1.3,6.2,5.1,6.2s2.8-.5,3.9-1.3v-7.4h-3.3c-.7,0-1.3-.6-1.3-1.3s.6-1.3,1.3-1.3h4.1c1.1,0,2,.5,2,1.6v8.2c0,2.8-3.7,4-6.8,4-5.3,0-7.7-3.5-7.7-8.7v-7.3c0-5.3,2.4-8.7,7.7-8.7s6.1,1.3,6.1,3-.5,1.2-1.2,1.2-.7-.2-1.2-.6c-1-.7-2.1-1.1-3.4-1.1-3.9,0-5.1,2.4-5.1,6.2ZM65.3,33.1c-5.2,0-7.9-3.9-7.9-8.8v-7.3c0-4.8,2.2-8.7,7.9-8.7s7.9,4,7.9,8.7v7.3c0,4.9-2.6,8.8-7.9,8.8ZM65.3,10.9c-3.8,0-5.1,2.4-5.1,6.1v7.3c0,3.6,1.6,6.1,5.1,6.1s5.1-2.5,5.1-6.1v-7.3c0-3.6-1.4-6.1-5.1-6.1ZM94.9,24.5h-2.9v6.3c0,1.2-1.1,2.3-2.4,2.3s-2.4-1-2.4-2.3V11c0-1.3,1.2-2.5,2.7-2.5h5c6.5,0,8.7,3.8,8.7,8s-3.4,7.9-8.7,7.9ZM92,12.9v7.2h2.9c2.6,0,3.9-1.1,3.9-3.6s-.7-3.6-3.9-3.6h-2.9ZM123.8,24.5c0,4.9-3.2,8.5-8.6,8.5s-8.6-3.6-8.6-8.5v-14c0-1.3,1.1-2.3,2.4-2.3s2.4,1,2.4,2.3v14c0,2.5,1.2,4.2,3.8,4.2s3.8-1.7,3.8-4.2v-14c0-1.2,1-2.3,2.4-2.3s2.5,1.1,2.5,2.3v14ZM135.2,33c-1.4,0-2.4-1-2.4-2.3v-7.5l-6-11.8c-.1-.2-.2-.7-.2-1,0-1.2,1.2-2.2,2.4-2.2s1.5.3,2,1l4.3,8.5,4.3-8.5c.4-.7,1.2-1,2-1,1.2,0,2.4,1,2.4,2.2s-.1.7-.2,1l-6,11.8v7.5c0,1.2-1.1,2.3-2.4,2.3ZM161.1,30.5c0,1.2-1.1,2.2-2.4,2.2h-9.1c-1.7,0-3.2-.6-3.2-2.4V11c0-1.2,1.1-2.4,2.6-2.4h9.3c1.3,0,2.4,1,2.4,2.2s-1.1,2.1-2.4,2.1h-7.1v5.5h6.5c1.2,0,2.4.9,2.4,2.2s-1,2.2-2.4,2.2h-6.5v5.6h7.5c1.3,0,2.4,1,2.4,2.1ZM181,30.8c0,1.2-1.1,2.2-2.4,2.2s-2.4-1-2.4-2.2v-8h-7.3v8c0,1.2-1.1,2.2-2.4,2.2s-2.4-1-2.4-2.2V10.4c0-1.2,1.1-2.2,2.4-2.2s2.4,1,2.4,2.2v8h7.3v-8c0-1.2,1.1-2.2,2.4-2.2s2.4,1,2.4,2.2v20.4ZM202.3,24.5c0,4.9-3.2,8.5-8.6,8.5s-8.6-3.6-8.6-8.5v-14c0-1.3,1.1-2.3,2.4-2.3s2.4,1,2.4,2.3v14c0,2.5,1.2,4.2,3.8,4.2s3.8-1.7,3.8-4.2v-14c0-1.2,1-2.3,2.4-2.3s2.5,1.1,2.5,2.3v14ZM221,30.5c0,1.2-1.1,2.2-2.4,2.2h-9.1c-1.7,0-3.2-.6-3.2-2.4V11c0-1.2,1.1-2.4,2.6-2.4h9.3c1.3,0,2.4,1,2.4,2.2s-1.1,2.1-2.4,2.1h-7.1v5.5h6.5c1.2,0,2.4.9,2.4,2.2s-1,2.2-2.4,2.2h-6.5v5.6h7.5c1.3,0,2.4,1,2.4,2.1Z"/>
</svg>