<?xml version="1.0" encoding="UTF-8"?>
<svg id="Capa_1" xmlns="http://www.w3.org/2000/svg" version="1.1" viewBox="0 0 230 70">
  <!-- Generator: Adobe Illustrator 29.2.1, SVG Export Plug-In . SVG Version: 2.1.0 Build 116)  -->
  <defs>
    <style>
      .st0 {
        fill: #fff;
      }
    </style>
  </defs>
  <path class="st0" d="M26.3,52.4c-.2,0-.3,0-.4-.2l-10.8-13-9.4,6.1c-.2.1-.5,0-.7-.1-.2-.2-.2-.6,0-.8l11.8-22.6c.1-.2.3-.3.5-.3.2,0,.4,0,.5.3l8.5,13.3,8.6-13.3c.1-.2.3-.3.5-.3.2,0,.4.1.5.3l11.9,22.6c.1.3.1.6,0,.8-.2.2-.5.3-.7.1l-9.9-6.4-10.3,13.3c-.1.1-.3.2-.4.2h0ZM15.1,38.5c.2,0,.3,0,.4.2l10.8,13,10.3-13.3c.2-.2.5-.3.7-.1l9.9,6.4-11.9-22.6-8.6,13.3c-.1.2-.3.3-.5.3h0c-.2,0-.3,0-.5-.3l-8.4-13.3-11.8,22.6h0s9.4-6,9.4-6c0,0,.2,0,.3,0h0Z"/>
  <path class="st0" d="M26.3,30.6c-.2,0-.3-.1-.5-.3l-7.2-11.5c-.1-.2-.2-.5,0-.8l7.3-14.1c.1-.2.3-.3.5-.3s.4.1.5.3l7,14.1c.1.2.1.6,0,.8l-7.2,11.5c-.1.2-.3.3-.4.3ZM19.1,18.4h0s7.2,11.5,7.2,11.5l7.2-11.5-7-14.1-7.3,14.1h0Z"/>
  <path class="st0" d="M26.2,66.9h0c-.2,0-.3-.1-.4-.3l-12.2-18.8-7.3,1.1c-.3,0-.5-.2-.6-.5,0-.3,0-.7.3-.8l8.1-4.5c.2-.1.5,0,.7.1l11.4,13.9,11.2-13.9c.2-.2.4-.3.6-.2l8.5,4.4c.3.1.4.5.3.8,0,.3-.3.6-.6.5l-7.2-.6-12.4,18.4c-.1.2-.3.3-.4.3h0ZM13.6,47.1c.2,0,.3,0,.5.3l12.2,18.8,12.4-18.4c.1-.2.3-.3.5-.3l7.2.6-8.5-4.4-11.2,13.9c-.1.1-.2.2-.4.2h0c-.2,0-.3,0-.4-.2l-11.4-13.9-8.1,4.5h0s0,0,0,0l7.3-1.1s0,0,0,0h0Z"/>
  <path class="st0" d="M69.8,23.8l-.6.6c-.3-.4-.5-.7-.8-.9-.3-.2-.6-.3-1-.3-1.5,0-2.2,1.2-2.2,3.6s.7,3.6,2.2,3.6.7-.1,1-.3c.2-.2.5-.5.8-.9l.6.6c-.3.5-.7.9-1,1.1-.4.3-.8.4-1.3.4-1,0-1.8-.5-2.3-1.4-.4-.8-.7-1.8-.7-3.1s.2-2.3.7-3.1c.5-.9,1.3-1.4,2.3-1.4s.9.1,1.3.4c.3.2.6.6,1,1.1h0Z"/>
  <path class="st0" d="M77.9,26.8c0,1.3-.2,2.3-.6,3.1-.5.9-1.3,1.4-2.3,1.4s-1.8-.5-2.3-1.4c-.4-.8-.6-1.8-.6-3.1s.2-2.3.6-3.1c.5-.9,1.3-1.4,2.3-1.4s1.8.5,2.3,1.4c.4.8.6,1.8.6,3.1ZM77.1,26.8c0-2.4-.7-3.6-2.2-3.6s-2.2,1.2-2.2,3.6.7,3.6,2.2,3.6,2.2-1.2,2.2-3.6Z"/>
  <path class="st0" d="M85.4,31.1h-.8l-1.6-3.2c-.2-.5-.5-.7-.9-.7h-1.1v3.9h-.7v-8.8h2.5c.7,0,1.3.2,1.7.6.5.4.7,1,.7,1.9s-.2,1.2-.5,1.6c-.3.5-.8.7-1.3.8.1.1.2.3.3.5l1.7,3.4h0ZM84.4,24.8c0-1-.5-1.5-1.6-1.5h-1.8v3.2h1.8c1.1,0,1.6-.5,1.6-1.6Z"/>
  <path class="st0" d="M93,24.8c0,1.6-.8,2.4-2.4,2.4h-2v3.9h-.7v-8.8h2.7c1.6,0,2.4.8,2.4,2.4ZM92.3,24.8c0-.6-.2-1-.5-1.3-.3-.2-.7-.3-1.2-.3h-2v3.2h2c1.1,0,1.7-.5,1.7-1.6h0Z"/>
  <path class="st0" d="M100.9,26.8c0,1.3-.2,2.3-.6,3.1-.5.9-1.3,1.4-2.3,1.4s-1.8-.5-2.3-1.4c-.4-.8-.6-1.8-.6-3.1s.2-2.3.6-3.1c.5-.9,1.3-1.4,2.3-1.4s1.8.5,2.3,1.4c.4.8.6,1.8.6,3.1ZM100.2,26.8c0-2.4-.7-3.6-2.2-3.6s-2.2,1.2-2.2,3.6.7,3.6,2.2,3.6,2.2-1.2,2.2-3.6Z"/>
  <path class="st0" d="M108.4,31.1h-.8l-1.6-3.2c-.2-.5-.5-.7-.9-.7h-1.1v3.9h-.7v-8.8h2.5c.7,0,1.3.2,1.7.6.5.4.7,1,.7,1.9s-.2,1.2-.5,1.6c-.3.5-.8.7-1.3.8.1.1.2.3.3.5l1.7,3.4h0ZM107.5,24.8c0-1-.5-1.5-1.6-1.5h-1.8v3.2h1.8c1.1,0,1.6-.5,1.6-1.6Z"/>
  <path class="st0" d="M116.7,31.1h-.8l-.8-2.6h-3.2l-.8,2.6h-.8l2.8-8.8h.8l2.8,8.8ZM114.8,27.7l-1.3-4.1-1.3,4.1h2.7Z"/>
  <path class="st0" d="M123.6,23.8l-.5.6c-.3-.4-.5-.7-.8-.9-.3-.2-.6-.3-1-.3-1.5,0-2.2,1.2-2.2,3.6s.7,3.6,2.2,3.6.7-.1,1-.3c.2-.2.5-.5.8-.9l.5.6c-.3.5-.7.9-1,1.1-.4.3-.8.4-1.3.4-1,0-1.8-.5-2.3-1.4-.4-.8-.7-1.8-.7-3.1s.2-2.3.7-3.1c.5-.9,1.3-1.4,2.3-1.4s.9.1,1.3.4c.3.2.7.6,1,1.1h0Z"/>
  <path class="st0" d="M127.1,31.1h-.7v-8.8h.7v8.8Z"/>
  <path class="st0" d="M135.6,26.8c0,1.3-.2,2.3-.6,3-.5,1-1.3,1.5-2.3,1.5s-1.8-.5-2.3-1.5c-.4-.7-.6-1.7-.6-3s.2-2.3.6-3c.5-1,1.3-1.5,2.3-1.5s1.8.5,2.3,1.5c.4.7.6,1.7.6,3ZM134.9,26.8c0-1.1-.2-2-.5-2.5-.4-.7-1-1.1-1.7-1.1s-1.3.4-1.7,1.1c-.3.6-.5,1.4-.5,2.5s.2,2,.5,2.5c.4.7,1,1.1,1.7,1.1s1.3-.4,1.7-1.1c.3-.6.5-1.4.5-2.5ZM133.7,19.6l-1,1.8h-.7l.9-1.8h.8Z"/>
  <path class="st0" d="M143.1,31.1h-.7l-3.6-7.2v7.2h-.7v-8.8h.7l3.6,7.2v-7.2h.7v8.8Z"/>
  <path class="st0" d="M66.5,51.4h-1.1v-13.1h1.1v13.1Z"/>
  <path class="st0" d="M80.1,51.4h-1.1v-9.7l-2.9,9.7h-1l-2.9-9.7v9.7h-1.1v-13.1h1.1l3.4,11.5,3.4-11.5h1.1v13.1Z"/>
  <path class="st0" d="M92.2,42c0,2.4-1.2,3.7-3.6,3.7h-2.9v5.8h-1.1v-13.1h4c2.4,0,3.6,1.2,3.6,3.7h0ZM91.1,42c0-.9-.2-1.6-.8-1.9-.4-.3-1-.4-1.8-.4h-2.9v4.8h2.9c1.7,0,2.6-.8,2.6-2.4h0Z"/>
  <path class="st0" d="M103.7,45.9c0,3.8-1.3,5.6-4,5.6s-3.9-1.9-3.9-5.6v-7.6h1.1v7.6c0,1.4.2,2.4.5,3.1.4.9,1.2,1.3,2.3,1.3s1.9-.4,2.3-1.3c.4-.7.5-1.7.5-3.1v-7.6h1.1v7.6Z"/>
  <path class="st0" d="M114.4,51.4h-6.3v-13.1h1.1v11.8h5.2v1.3Z"/>
  <path class="st0" d="M125.5,47.7c0,1.2-.4,2.2-1.2,2.9-.7.7-1.6,1-2.7,1s-2-.3-2.7-.8c-.8-.6-1.3-1.5-1.5-2.8l1.1-.3c.3,1.8,1.3,2.7,3.2,2.7s1.4-.2,1.9-.7c.6-.5.9-1.2.9-2s-.6-1.8-1.7-2.2c-1.1-.3-2.1-.7-3.2-1-1.1-.6-1.7-1.5-1.7-2.9s.4-1.9,1.1-2.5c.6-.5,1.4-.8,2.4-.8s1.7.2,2.3.6c.6.4,1.2,1.1,1.5,2.1l-1,.5c-.3-.8-.7-1.3-1.2-1.6-.4-.3-1-.4-1.7-.4s-1.2.1-1.6.4c-.5.4-.8.9-.8,1.6s.6,1.6,1.7,2c1.1.4,2.1.7,3.2,1.1,1.1.6,1.7,1.7,1.7,3.1h0Z"/>
  <path class="st0" d="M137.9,51.4h-1.2l-1.3-3.9h-4.8l-1.3,3.9h-1.2l4.2-13.1h1.2l4.2,13.1h0ZM135.1,46.2l-2-6.2-2,6.2h4Z"/>
  <path class="st0" d="M154.9,42c0,2.4-1.2,3.7-3.6,3.7h-2.9v5.8h-1.1v-13.1h4c2.4,0,3.6,1.2,3.6,3.7h0ZM153.9,42c0-.9-.2-1.6-.8-1.9-.4-.3-1-.4-1.8-.4h-2.9v4.8h2.9c1.7,0,2.6-.8,2.6-2.4h0Z"/>
  <path class="st0" d="M166.5,45.9c0,3.8-1.3,5.6-4,5.6s-3.9-1.9-3.9-5.6v-7.6h1.1v7.6c0,1.4.2,2.4.5,3.1.4.9,1.2,1.3,2.3,1.3s1.9-.4,2.3-1.3c.4-.7.5-1.7.5-3.1v-7.6h1.1v7.6Z"/>
  <path class="st0" d="M178.3,38.3l-3.6,8.8v4.3h-1.1v-4.4l-3.6-8.7h1.2l2.9,7.2,2.9-7.2h1.2Z"/>
  <path class="st0" d="M188.9,51.4h-7v-13.1h7v1.3h-5.9v4.3h5.1v1.3h-5.1v4.9h5.9v1.3Z"/>
  <path class="st0" d="M200.8,51.4h-1.1v-6.2h-5.7v6.2h-1.1v-13.1h1.1v5.7h5.7v-5.7h1.1v13.1Z"/>
  <path class="st0" d="M213,45.9c0,3.8-1.3,5.6-4,5.6s-3.9-1.9-3.9-5.6v-7.6h1.1v7.6c0,1.4.2,2.4.5,3.1.5.9,1.2,1.3,2.3,1.3s1.9-.4,2.3-1.3c.4-.7.5-1.7.5-3.1v-7.6h1.1v7.6Z"/>
  <path class="st0" d="M224.3,51.4h-7v-13.1h7v1.3h-5.9v4.3h5.1v1.3h-5.1v4.9h5.9v1.3Z"/>
</svg>