<?xml version="1.0" encoding="UTF-8"?>
<svg id="Capa_1" xmlns="http://www.w3.org/2000/svg" version="1.1" viewBox="0 0 590 320">
  <!-- Generator: Adobe Illustrator 29.2.1, SVG Export Plug-In . SVG Version: 2.1.0 Build 116)  -->
  <defs>
    <style>
      .st0 {
        fill: #fff;
      }

      .st1 {
        fill: #3ba3dd;
      }
    </style>
  </defs>
  <path class="st1" d="M324,218.7h211.9c26.1,0,47.2,21.1,47.2,47.2h0c0,26.1-21.1,47.2-47.2,47.2h-211.9c-26.1,0-47.2-21.1-47.2-47.2h0c0-26.1,21.1-47.2,47.2-47.2Z"/>
  <path class="st0" d="M352.4,281.8c0,1.9-1.6,3.3-3.6,3.3h-13.6c-2.5,0-4.8-.9-4.8-3.7v-29c0-1.8,1.7-3.7,4-3.7h13.9c2,0,3.6,1.5,3.6,3.3s-1.6,3.2-3.6,3.2h-10.7v8.3h9.7c1.8,0,3.6,1.4,3.6,3.2s-1.5,3.3-3.6,3.3h-9.7v8.4h11.2c1.9,0,3.6,1.4,3.6,3.2ZM379.4,285.6c-1.3,0-2.8-.7-3.4-1.8l-11.9-20.8v19.2c0,1.8-1.7,3.3-3.7,3.3s-3.6-1.5-3.6-3.3v-30.4c0-2,1.6-3.5,3.8-3.5s2.8.8,3.5,1.9c4.6,7.9,7.2,12.6,11.9,20.9v-19.5c0-1.8,1.7-3.3,3.7-3.3s3.6,1.5,3.6,3.3v30.4c0,1.9-1.5,3.5-3.8,3.5ZM427.1,281.9c0,1.9-1.5,3.3-3.5,3.3h-14.5c-2.1,0-3.9-1.5-3.9-3.6v-29.9c0-1.7,1.6-3.3,3.6-3.3s3.6,1.5,3.6,3.3v27h11.2c1.9,0,3.5,1.4,3.5,3.2ZM431.1,282.4v-30.6c0-1.7,1.6-3.3,3.6-3.3s3.6,1.5,3.6,3.3v30.6c0,1.7-1.6,3.3-3.6,3.3s-3.6-1.5-3.6-3.3ZM432.1,242.4l4.2-4.1.4-.4c.6-.6,1-1,2.1-1s2.5,1.1,2.5,2.5-.1.9-.5,1.4l-4.2,4.2c-.8.7-1.2,1.1-2.3,1.1s-2.6-1-2.6-2.5.1-.9.4-1.3ZM467.4,285.6c-1.3,0-2.8-.7-3.4-1.8l-11.9-20.8v19.2c0,1.8-1.7,3.3-3.7,3.3s-3.6-1.5-3.6-3.3v-30.4c0-2,1.6-3.5,3.8-3.5s2.8.8,3.5,1.9c4.6,7.9,7.2,12.6,11.9,20.9v-19.5c0-1.8,1.7-3.3,3.7-3.3s3.6,1.5,3.6,3.3v30.4c0,1.9-1.5,3.5-3.8,3.5ZM499.7,281.8c0,1.9-1.6,3.3-3.6,3.3h-13.6c-2.5,0-4.8-.9-4.8-3.7v-29c0-1.8,1.7-3.7,4-3.7h13.9c2,0,3.6,1.5,3.6,3.3s-1.6,3.2-3.6,3.2h-10.7v8.3h9.7c1.8,0,3.6,1.4,3.6,3.2s-1.5,3.3-3.6,3.3h-9.7v8.4h11.2c1.9,0,3.6,1.4,3.6,3.2ZM511.9,278l-1.7,5.2c-.5,1.5-2.2,2.4-3.4,2.4-2,0-3.7-1.3-3.7-3.3s0-.9.2-1.1l10-29.3c.7-2,1.7-3.5,4.2-3.5s3.5,1.4,4.2,3.5l10,29.3c.1.3.2.9.2,1.1,0,2-1.6,3.3-3.7,3.3s-3-1-3.5-2.4l-1.8-5.2h-11ZM521,272.2l-2.6-8.8c-.5-1.5-.7-3.4-.9-5-.2,1.6-.5,3.6-.9,5l-2.7,8.8h7.2Z"/>
  <path class="st0" d="M54.4,94.5c0,2.8-2.2,5-4.9,5H13.2c-3.1,0-5.8-2.6-5.8-5.8V12.6c0-2.7,2.3-5.1,5.1-5.1s5.1,2.4,5.1,5.1v76.9h31.8c2.6,0,4.9,2.2,4.9,4.9ZM78.5,79l-5.4,17.9c-.8,2.3-3.1,3.9-4.9,3.9-3,0-5.4-2.1-5.4-5.1s.1-1.5.3-1.9L88.1,14.3c1.2-3.9,3-6.8,6.7-6.8s5.5,2.8,6.8,6.8l25.1,79.4c.1.4.3,1.4.3,1.9,0,3.1-2.3,5.1-5.4,5.1s-4.4-1.5-5-3.9l-5.5-17.9h-32.6ZM94.8,25.4l-13.3,43.6h26.5l-13.3-43.6ZM144.8,40.3v27.5c0,14.4,4.8,23.4,19.3,23.4s10.7-1.8,14.5-4.8v-27.7h-12.5c-2.6,0-4.9-2.2-4.9-4.9s2.3-4.9,4.9-4.9h15.3c4.1,0,7.3,1.8,7.3,5.9v30.8c0,10.4-13.9,14.9-25.3,14.9-19.8,0-28.9-13-28.9-32.8v-27.5c0-19.8,9.1-32.8,28.9-32.8s22.8,5,22.8,11.1-1.9,4.5-4.6,4.5-2.6-.9-4.6-2.2c-3.9-2.7-7.8-4-12.9-4-14.5,0-19.3,9-19.3,23.4ZM230.9,100.8c-19.7,0-29.6-14.7-29.6-32.9v-27.5c0-17.9,8.4-32.8,29.6-32.8s29.6,14.9,29.6,32.8v27.5c0,18.3-9.9,32.9-29.6,32.9ZM230.9,17.5c-14.2,0-19.3,9.1-19.3,22.8v27.5c0,13.5,6,22.9,19.3,22.9s19.3-9.4,19.3-22.9v-27.5c0-13.6-5.1-22.8-19.3-22.8ZM35.1,209.3h-10.9v23.5c0,4.5-4.1,8.5-9,8.5s-9-3.9-9-8.5v-74.1c0-5,4.6-9.3,10-9.3h18.9c24.2,0,32.8,14.4,32.8,30.1s-12.9,29.7-32.8,29.7ZM24.1,165.8v27.1h10.9c9.6,0,14.8-4.2,14.8-13.5s-2.7-13.6-14.8-13.6h-10.9ZM143.4,209.3c0,18.5-12,32-32.3,32s-32.3-13.6-32.3-32v-52.5c0-4.9,4-8.5,9.1-8.5s8.9,3.9,8.9,8.5v52.5c0,9.3,4.5,15.7,14.3,15.7s14.2-6.6,14.2-15.7v-52.5c0-4.5,3.9-8.5,8.9-8.5s9.3,4,9.3,8.5v52.5ZM186,241.3c-5.1,0-9.1-3.9-9.1-8.5v-28.2l-22.6-44.3c-.4-.9-.8-2.4-.8-3.7,0-4.5,4.5-8.4,9.1-8.4s5.8,1.2,7.3,3.9l16.1,31.9,16-31.9c1.5-2.7,4.6-3.9,7.5-3.9,4.6,0,9.1,3.9,9.1,8.4s-.5,2.6-.9,3.7l-22.5,44.3v28.2c0,4.5-4,8.5-9.1,8.5ZM283.3,231.8c0,4.6-4.1,8.4-9,8.4h-34.1c-6.3,0-12-2.2-12-9.1v-72.4c0-4.5,4.2-9.1,9.9-9.1h34.9c4.9,0,9,3.9,9,8.4s-4.1,8-9,8h-26.8v20.7h24.3c4.5,0,8.9,3.5,8.9,8.1s-3.9,8.2-8.9,8.2h-24.3v21h28c4.8,0,9,3.6,9,8ZM357.8,232.9c0,4.5-4.1,8.4-9,8.4s-9-3.9-9-8.4v-30h-27.4v30c0,4.5-4.1,8.4-9,8.4s-9-3.9-9-8.4v-76.4c0-4.4,4-8.2,9-8.2s9,3.9,9,8.2v30h27.4v-30c0-4.4,4.2-8.2,9-8.2s9,3.9,9,8.2v76.4ZM437.7,209.3c0,18.5-12,32-32.3,32s-32.3-13.6-32.3-32v-52.5c0-4.9,4-8.5,9.1-8.5s8.9,3.9,8.9,8.5v52.5c0,9.3,4.5,15.7,14.3,15.7s14.2-6.6,14.2-15.7v-52.5c0-4.5,3.9-8.5,8.9-8.5s9.3,4,9.3,8.5v52.5ZM508,231.8c0,4.6-4.1,8.4-9,8.4h-34.1c-6.3,0-12-2.2-12-9.1v-72.4c0-4.5,4.2-9.1,9.9-9.1h34.9c4.9,0,9,3.9,9,8.4s-4.1,8-9,8h-26.8v20.7h24.3c4.5,0,8.9,3.5,8.9,8.1s-3.9,8.2-8.9,8.2h-24.3v21h28c4.8,0,9,3.6,9,8Z"/>
</svg>