<?xml version="1.0" encoding="UTF-8"?><svg id="Capa_2" xmlns="http://www.w3.org/2000/svg" viewBox="0 0 82.69 82.69"><defs><style>.cls-1{fill:#6993be;}</style></defs><g id="Capa_1-2"><path class="cls-1" d="m41.35,82.69C18.55,82.69,0,64.14,0,41.35S18.55,0,41.35,0s41.35,18.55,41.35,41.35-18.55,41.35-41.35,41.35Zm0-80.69C19.65,2,2,19.65,2,41.35s17.65,39.35,39.35,39.35,39.35-17.65,39.35-39.35S63.04,2,41.35,2Z"/></g><g id="Capa_2-2"><g><path d="m54.07,63.15h-25.45c-.12-.07-.26-.12-.37-.2-.32-.24-.43-.66-.3-1.04.13-.37.48-.61.89-.62,1.45,0,2.89,0,4.34,0,.09,0,.17,0,.27,0v-1.85c-.12,0-.22,0-.33,0-5.9,0-11.8,0-17.71,0-2.1,0-3.75-1.65-3.75-3.74,0-10.81,0-21.62,0-32.43,0-2.17,1.82-3.73,3.73-3.73,17.31.01,34.61,0,51.92.01,1.5,0,2.61.71,3.3,2.03.2.37.28.81.41,1.21v33.37s-.03.1-.04.15c-.37,1.92-1.84,3.13-3.8,3.13-5.88,0-11.76,0-17.63,0h-.31v1.85c.1,0,.19,0,.27,0,1.45,0,2.89,0,4.34,0,.4,0,.7.19.86.56.15.35.11.69-.15.97-.13.14-.33.22-.49.33Zm-40.52-7.42c-.08.82.61,1.66,1.48,1.81.23.04.47.04.71.04,17.11,0,34.22,0,51.33,0,.13,0,.25,0,.38,0,.67-.06,1.18-.39,1.5-.97.15-.26.24-.55.2-.89H24.03c.28-.54.55-1.05.78-1.56.1-.22.23-.29.47-.29,14.53,0,29.06,0,43.59,0h.3v-.39c0-9.93,0-19.86,0-29.79,0-.19,0-.37,0-.56-.02-.45-.2-.83-.5-1.16-.43-.46-.98-.59-1.59-.59-17.17,0-34.34,0-51.51,0-.18,0-.37,0-.55.04-.79.15-1.49.88-1.49,1.97.01,10.07,0,20.14,0,30.21,0,.08,0,.16.01.26h1.34c.07.63.13,1.23.2,1.85h-1.53Zm21.78,3.72v1.82h12.03v-1.82h-12.03Z"/><path d="m27.92,38.79c.33-.94.64-1.83.95-2.72.51-1.46,1.02-2.93,1.52-4.39.15-.44.48-.69.9-.69.43,0,.76.25.9.7.68,2.11,1.35,4.22,2.02,6.33.06.17.12.24.32.24,1.15-.01,2.3,0,3.45-.01.12,0,.26-.06.35-.14.77-.74,1.53-1.49,2.3-2.23.57-.55,1.3-.4,1.61.33.27.64.53,1.29.8,1.93.04.1.08.2.15.36.14-.49.26-.92.38-1.34.7-2.45,1.39-4.9,2.08-7.36.11-.4.32-.7.74-.8.53-.13,1.04.23,1.13.8.11.75.21,1.5.32,2.25.36,2.55.72,5.09,1.09,7.64.17,1.2.34,2.41.51,3.61.01.08.03.16.05.31.06-.11.1-.17.13-.23.68-1.38,1.36-2.77,2.03-4.16.22-.45.54-.66,1.05-.66,2.21.01,4.42,0,6.63,0,.17,0,.24-.06.29-.22.59-1.77,2.3-2.81,4.15-2.52,1.76.28,3.08,1.84,3.08,3.64,0,1.85-1.3,3.38-3.13,3.69-1.77.3-3.49-.75-4.09-2.51-.06-.18-.13-.24-.32-.24-1.98,0-3.96,0-5.94,0-.18,0-.26.06-.33.21-1.04,2.15-2.09,4.29-3.14,6.43-.23.47-.59.69-1.04.61-.44-.07-.71-.39-.78-.9-.54-3.82-1.09-7.65-1.63-11.47-.04-.27-.07-.53-.16-.8-.02.07-.05.13-.06.2-.63,2.21-1.25,4.42-1.88,6.63-.02.09-.05.17-.08.26-.13.41-.44.66-.84.69-.39.02-.75-.19-.92-.58-.28-.67-.56-1.34-.83-2.01-.21-.51-.42-1.03-.65-1.57-.07.06-.12.1-.17.15-.53.51-1.06,1.02-1.58,1.53-.22.22-.47.32-.78.31-1.6,0-3.2,0-4.81,0-.5,0-.82-.23-.97-.72-.44-1.39-.89-2.78-1.33-4.17-.03-.1-.07-.19-.12-.35-.13.36-.23.66-.34.97-.63,1.81-1.26,3.61-1.88,5.42-.14.4-.4.66-.83.7-.42.04-.72-.17-.93-.53-.77-1.35-1.55-2.7-2.32-4.05-.05-.08-.1-.16-.15-.26-.06.05-.1.08-.14.12-.55.55-1.1,1.09-1.63,1.64-.26.27-.56.39-.93.38-.96-.01-1.93,0-2.89,0-.09,0-.18,0-.31,0,.5,2.67,1.84,4.76,4.06,6.29-.3.6-.6,1.18-.9,1.77-1.1,2.18-2.2,4.35-3.3,6.53-.32.63.01,1.31.68,1.41.38.06.75-.15.95-.55.57-1.12,1.13-2.23,1.7-3.35.8-1.59,1.61-3.17,2.41-4.76.03-.06.06-.11.09-.16.48.14.93.29,1.4.4,4.03.88,8.09-.99,10.04-4.63.09-.17.19-.24.39-.24.58.02,1.15,0,1.79,0-.19.39-.34.76-.54,1.1-2.27,3.93-5.67,5.9-10.22,5.82-.57,0-1.15-.13-1.72-.21-.16-.02-.22,0-.29.14-1.13,2.24-2.27,4.48-3.41,6.72-.74,1.44-2.37,1.99-3.78,1.27-1.37-.7-1.89-2.4-1.17-3.81,1.14-2.23,2.26-4.47,3.4-6.7.09-.18.07-.27-.07-.41-2.53-2.48-3.7-5.51-3.47-9.04.35-5.3,4.33-9.53,9.59-10.26,4.57-.63,9.18,1.8,11.23,5.93.38.77.69,1.57.9,2.41.04.15,0,.25-.1.35-.33.32-.67.63-.99.96-.15.16-.31.18-.48.14-.15-.57-.26-1.13-.44-1.67-.56-1.73-1.56-3.17-2.97-4.32-.11-.09-.22-.2-.32-.31-.31-.35-.67-.62-1.1-.77-.61-.22-1.21-.44-1.83-.62-3.92-1.13-8.27.6-10.35,4.11-.79,1.34-1.24,2.78-1.33,4.33,0,.06,0,.12,0,.18,0,.01,0,.03.02.05.05,0,.11.01.16.01.91,0,1.82,0,2.74,0,.1,0,.22-.05.29-.12.76-.75,1.51-1.51,2.27-2.26.54-.55,1.22-.46,1.6.21.64,1.11,1.28,2.22,1.92,3.34.04.06.08.12.14.23Zm37.07.72c.02-1.01-.79-1.86-1.8-1.88-1.04-.02-1.89.79-1.9,1.82-.02,1.01.81,1.87,1.83,1.88,1.02.01,1.86-.8,1.88-1.83Z"/></g></g></svg>