<?xml version="1.0" encoding="UTF-8"?>
<svg id="Capa_2" data-name="Capa 2" xmlns="http://www.w3.org/2000/svg" viewBox="0 0 24.6 24.6">
  <defs>
    <style>
      .cls-1 {
        fill: #010101;
      }

      .cls-2 {
        fill: #c5991d;
      }
    </style>
  </defs>
  <g id="Capa_1-2" data-name="Capa 1">
    <g>
      <circle class="cls-2" cx="12.3" cy="12.3" r="12.3"/>
      <path class="cls-1" d="m15.23,8.54l-2.09,2.49c.82.15,1.47.5,1.96,1.04s.73,1.23.73,2.05c0,.34-.05.68-.14,1.02s-.24.67-.44.99c-.2.32-.45.61-.74.86-.29.25-.65.44-1.09.59-.43.15-.91.22-1.43.22-.18,0-.39,0-.61-.03-.23-.02-.5-.06-.82-.12-.32-.06-.6-.14-.85-.24-.25-.1-.47-.25-.64-.43-.18-.19-.27-.4-.27-.64,0-.26.1-.49.3-.67s.44-.28.72-.28c.17,0,.36.05.57.14.21.1.44.19.7.29.26.1.54.14.83.14.32,0,.6-.05.84-.15.24-.1.42-.24.55-.42.13-.17.23-.36.29-.55.06-.2.09-.4.09-.61,0-.94-.58-1.42-1.76-1.42-.14,0-.27.03-.4.08-.13.05-.26.08-.39.08-.28,0-.52-.1-.71-.29-.19-.2-.29-.44-.29-.72,0-.16.04-.28.11-.37l2.3-2.8h-2.49c-.3,0-.55-.09-.76-.28-.2-.19-.3-.42-.3-.69s.1-.52.3-.72c.2-.2.46-.3.76-.3h4.3c.33,0,.6.1.81.3.21.2.32.45.32.75,0,.26-.08.5-.25.7Z"/>
    </g>
  </g>
</svg>