<?xml version="1.0" encoding="UTF-8"?>
<svg id="Capa_2" data-name="Capa 2" xmlns="http://www.w3.org/2000/svg" viewBox="0 0 24.6 24.6">
  <defs>
    <style>
      .cls-1 {
        fill: #010101;
      }

      .cls-2 {
        fill: #c5991d;
      }
    </style>
  </defs>
  <g id="Capa_1-2" data-name="Capa 1">
    <g>
      <circle class="cls-2" cx="12.3" cy="12.3" r="12.3"/>
      <path class="cls-1" d="m15.61,16.22c.2.18.3.41.3.68s-.1.5-.3.69c-.2.19-.46.28-.76.28h-5.08c-.32,0-.58-.1-.79-.29s-.3-.44-.3-.73.04-.55.12-.72c.12-.26.27-.53.45-.79.18-.27.34-.49.49-.67.15-.18.36-.41.63-.68.28-.27.48-.47.6-.58s.35-.32.67-.61c.08-.07.22-.19.44-.38.22-.19.38-.33.49-.43.11-.1.25-.24.42-.43s.31-.35.39-.49c.08-.14.16-.3.23-.49s.11-.38.11-.56c0-.41-.13-.75-.38-1.01-.25-.26-.61-.4-1.07-.4s-.89.08-1.3.25c-.07.03-.18.08-.32.16s-.27.14-.4.19c-.13.04-.25.07-.38.07-.28,0-.52-.09-.73-.26s-.32-.4-.32-.68.12-.51.36-.72c.24-.22.54-.38.91-.51.37-.12.74-.22,1.12-.28.38-.06.74-.09,1.07-.09,1.09,0,1.96.3,2.6.89.64.59.96,1.34.96,2.24,0,.61-.11,1.15-.32,1.61-.21.46-.51.9-.9,1.3-.26.27-.61.6-1.06,1-.45.4-.86.78-1.24,1.14-.37.36-.68.71-.93,1.04h3.44c.3,0,.55.09.76.27Z"/>
    </g>
  </g>
</svg>