<?xml version="1.0" encoding="UTF-8"?>
<svg id="Capa_2" data-name="Capa 2" xmlns="http://www.w3.org/2000/svg" viewBox="0 0 24.6 24.6">
  <defs>
    <style>
      .cls-1 {
        fill: #010101;
      }

      .cls-2 {
        fill: #c5991d;
      }
    </style>
  </defs>
  <g id="Capa_1-2" data-name="Capa 1">
    <g>
      <circle class="cls-2" cx="12.3" cy="12.3" r="12.3"/>
      <path class="cls-1" d="m11.78,16.88v-7.5l-1.22.74c-.34.22-.64.32-.91.32s-.5-.07-.69-.21c-.2-.14-.29-.37-.29-.67,0-.39.16-.68.47-.87l3.06-1.79c.2-.11.4-.17.6-.17.32,0,.59.1.81.29.22.2.33.44.33.74v9.12c0,.27-.11.5-.32.69-.21.2-.47.29-.76.29s-.55-.1-.76-.29c-.21-.2-.32-.43-.32-.69Z"/>
    </g>
  </g>
</svg>