<?xml version="1.0" encoding="utf-8"?>
<!-- Generator: Adobe Illustrator 26.4.1, SVG Export Plug-In . SVG Version: 6.00 Build 0)  -->
<svg version="1.1" id="Capa_1" xmlns="http://www.w3.org/2000/svg" xmlns:xlink="http://www.w3.org/1999/xlink" x="0px" y="0px"
	 viewBox="0 0 40 56" style="enable-background:new 0 0 40 56;" xml:space="preserve">
<style type="text/css">
	.st0{fill:#FACE2F;}
	.st1{fill:#FFFFFF;}
</style>
<g id="Componente_17_4" transform="translate(802.985 449.5)">
	<path id="Icon_material-location-on-2" class="st0" d="M-783-448.3c-10.4,0-18.8,8.4-18.8,18.8c0,0,0,0,0,0
		c0,14.1,18.8,34.9,18.8,34.9s18.8-20.8,18.8-34.9C-764.2-439.9-772.6-448.3-783-448.3C-783-448.3-783-448.3-783-448.3z M-783-422.8
		c-3.7,0-6.7-3-6.7-6.7c0-3.7,3-6.7,6.7-6.7s6.7,3,6.7,6.7l0,0C-776.3-425.8-779.3-422.8-783-422.8z"/>
	<circle id="Elipse_1-2" class="st1" cx="-783.4" cy="-429.6" r="10"/>
</g>
</svg>
