<?xml version="1.0" encoding="utf-8"?>
<!-- Generator: Adobe Illustrator 27.1.1, SVG Export Plug-In . SVG Version: 6.00 Build 0)  -->
<svg version="1.1" id="Capa_1" xmlns="http://www.w3.org/2000/svg" xmlns:xlink="http://www.w3.org/1999/xlink" x="0px" y="0px"
	 viewBox="0 0 710 170" style="enable-background:new 0 0 710 170;" xml:space="preserve">
<style type="text/css">
	.st0{fill:#FFFFFF;}
</style>
<path class="st0" d="M66.3,33.9V23.6H55.7l2.8-17.9H46.3l-2.8,17.9H31.2l2.8-17.9H21.6l-2.8,17.9H6.5v10.3h10.8L15,48.3H2.7v10.3
	h10.7l-2.8,17.9H23l2.8-17.9h12.3l-2.8,17.9h12.2l2.8-17.9h12.3V48.3H51.9l2.2-14.4H66.3z M39.7,48.3H27.3l2.2-14.4h12.3L39.7,48.3z
	"/>
<polygon class="st0" points="68.6,5.7 68.6,17.1 74.9,17.1 74.9,76.5 90.5,76.5 90.5,17.1 90.5,5.7 74.9,5.7 "/>
<path class="st0" d="M135.3,24.8c-3.7-1.6-8.3-2.3-13.7-2.3c-1.9,0-3.9,0-6,0.1c-2.1,0.1-4.2,0.2-6.2,0.3c-2,0.1-3.8,0.3-5.3,0.4
	v13.1c2-0.1,4.3-0.2,6.7-0.3c2.5-0.1,4.9-0.2,7.2-0.2c2.3-0.1,4.2-0.1,5.6-0.1c2.8,0,4.9,0.7,6.2,2c1.3,1.3,1.9,3.4,1.9,6.2v0.1
	h-9.6c-4.7,0-8.9,0.6-12.5,1.8c-3.6,1.2-6.4,3-8.4,5.5c-2,2.5-3,5.7-3,9.6c0,3.6,0.8,6.6,2.4,9.2c1.6,2.6,3.9,4.5,6.7,5.9
	c2.9,1.4,6.2,2,10,2c3.7,0,6.8-0.7,9.4-2c2.6-1.4,4.6-3.3,6-5.8c0.7-1.1,1.2-2.4,1.6-3.8v10.3h12.3V43.9c0-4.9-1-8.9-2.9-12.1
	C141.9,28.7,139.1,26.4,135.3,24.8 M126.8,66.2c-1.4,0.6-3,0.9-4.7,0.9c-2.7,0-4.8-0.7-6.3-2c-1.5-1.3-2.2-3.1-2.2-5.2
	c0-2.3,0.7-4.1,2.2-5.4c1.5-1.3,3.5-2,6.3-2h9.7v4.3c-0.1,2.7-0.6,4.7-1.6,6.2C129.3,64.5,128.2,65.6,126.8,66.2"/>
<path class="st0" d="M198.2,34.8c-0.3-0.7-0.5-1.3-0.8-1.9c-1.8-3.6-4.2-6.4-7.4-8.2c-3.1-1.9-6.9-2.8-11.2-2.8c-3.7,0-7,0.7-10,2
	c-3,1.3-5.6,3.2-7.8,5.6c-2.2,2.4-3.9,5.2-5.1,8.4c-1.2,3.2-1.8,6.7-1.8,10.5v2.2c0,3.8,0.6,7.2,1.7,10.5c1.1,3.2,2.7,6,4.8,8.4
	c2.1,2.4,4.6,4.2,7.5,5.5c2.9,1.3,6.2,2,9.8,2c4.1,0,7.7-0.9,10.8-2.7c3-1.8,5.4-4.3,7.1-7.6v4.7c0,3-0.6,5.5-1.8,7.5
	c-1.2,2-3.2,3.4-5.8,4.4c-2.6,1-6,1.5-10.2,1.5c-2.3,0-4.8-0.1-7.6-0.3c-2.7-0.2-5.2-0.5-7.5-0.8v13.1c2.3,0.3,4.8,0.6,7.5,0.8
	c2.7,0.2,5.4,0.3,8,0.3c7.2,0,13.2-0.9,18-2.8c4.8-1.9,8.3-4.8,10.6-8.8c2.3-4,3.5-9.3,3.5-15.8V23.4h-12.3V34.8z M195.6,50.3
	c0,2.8-0.6,5.3-1.7,7.3c-1.2,2-2.7,3.5-4.6,4.6c-1.9,1.1-4.1,1.6-6.5,1.6c-2.5,0-4.8-0.6-6.7-1.7c-2-1.1-3.5-2.8-4.7-4.9
	c-1.1-2.2-1.7-4.8-1.7-7.8c0-3,0.5-5.6,1.6-7.8c1.1-2.2,2.6-3.9,4.7-5.1c2-1.2,4.3-1.8,6.9-1.8c2.2,0,4.3,0.5,6.2,1.5
	c1.9,1,3.5,2.4,4.7,4.3c1.2,1.9,1.8,4.3,1.8,7V50.3z"/>
<path class="st0" d="M269,29.7c-2.5-2.5-5.6-4.5-9.2-6c-3.6-1.5-7.7-2.2-12.3-2.2c-4.5,0-8.5,0.7-12.1,2.2c-3.6,1.5-6.7,3.4-9.3,6
	c-2.6,2.5-4.5,5.4-5.9,8.8c-1.4,3.3-2,6.8-2,10.5v2.2c0,3.6,0.6,7.1,1.9,10.3c1.3,3.3,3.2,6.2,5.7,8.7c2.5,2.6,5.6,4.6,9.2,6
	c3.6,1.5,7.8,2.2,12.4,2.2c4.7,0,8.9-0.7,12.5-2.2c3.6-1.5,6.7-3.5,9.2-6c2.5-2.6,4.4-5.5,5.7-8.7c1.3-3.3,1.9-6.7,1.9-10.3V49
	c0-3.7-0.7-7.2-2-10.5C273.4,35.1,271.5,32.2,269,29.7 M259.7,57.9c-1,2.3-2.6,4.1-4.6,5.4c-2,1.3-4.5,1.9-7.6,1.9
	c-2.9,0-5.4-0.6-7.5-1.9c-2.1-1.3-3.6-3.1-4.7-5.4c-1-2.3-1.6-4.9-1.6-7.8c0-3,0.5-5.7,1.6-8c1.1-2.3,2.6-4.1,4.7-5.4
	c2.1-1.3,4.5-2,7.4-2c2.9,0,5.4,0.7,7.4,2c2,1.3,3.6,3.1,4.7,5.4c1.1,2.3,1.6,5,1.6,8C261.2,53,260.7,55.6,259.7,57.9"/>
<path class="st0" d="M323.7,49.1c-3.6-2.9-8.7-4.7-15.2-5.4l-4.2-0.4c-2.8-0.3-4.8-0.9-6-1.6c-1.2-0.8-1.8-1.9-1.8-3.4
	c0-1.6,0.7-2.8,2.1-3.7c1.4-0.9,3.3-1.4,5.7-1.4c3,0,5.3,0.6,6.8,1.8c1.6,1.2,2.5,2.7,2.7,4.4h13.9c-0.2-5.7-2.4-10-6.6-13
	c-4.2-3-9.7-4.5-16.6-4.5c-4.3,0-8.1,0.6-11.4,1.9c-3.3,1.3-5.9,3.2-7.8,5.7c-1.9,2.5-2.8,5.7-2.8,9.4c0,4.6,1.6,8.3,4.8,11.2
	c3.2,2.9,8,4.6,14.4,5.3l4.2,0.5c3.4,0.3,5.8,1,7.2,1.9c1.4,0.9,2.1,2.2,2.1,3.7c0,1.7-0.9,3.1-2.7,4c-1.8,0.9-4,1.4-6.7,1.4
	c-3.6,0-6.2-0.7-8-2c-1.8-1.3-2.8-2.8-3.1-4.5h-13.8c0.3,5.6,2.5,10,6.8,13.1c4.3,3.1,10.2,4.7,17.8,4.7c4.8,0,9-0.7,12.5-2.1
	c3.6-1.4,6.3-3.4,8.2-6.1c1.9-2.6,2.9-5.7,2.9-9.3C329.1,55.9,327.3,52,323.7,49.1"/>
<path class="st0" d="M345.3,18.1c2.9,0,5.1-0.8,6.4-2.3c1.4-1.5,2.1-3.4,2.1-5.8c0-2.4-0.7-4.3-2.1-5.9c-1.4-1.5-3.5-2.3-6.4-2.3
	c-2.9,0-5.1,0.8-6.5,2.3c-1.4,1.5-2.1,3.5-2.1,5.9c0,2.3,0.7,4.3,2.1,5.8C340.2,17.4,342.4,18.1,345.3,18.1"/>
<polygon class="st0" points="332.1,23.4 332.1,34.9 339.2,34.9 339.2,76.5 354.8,76.5 354.8,34.9 354.8,23.4 339.2,23.4 "/>
<path class="st0" d="M397.7,21.7H397c-4.1,0-7.5,0.9-10.4,2.7c-2.8,1.8-5,4.5-6.4,8.1c-0.5,1.3-0.9,2.7-1.2,4.2V23.4h-12.4v53.2
	h15.6V45.6c0-3,0.9-5.4,2.7-7.2c1.8-1.8,4.1-2.7,7-2.7c2.8,0,5.1,0.9,6.7,2.7c1.6,1.8,2.5,4.1,2.5,6.9v31.2h15.6V46.1
	c0-8.2-1.6-14.3-4.9-18.4C408.6,23.7,403.9,21.7,397.7,21.7"/>
<path class="st0" d="M459.5,21.7h-0.7c-4,0-7.3,1-10,2.9c-2.5,1.8-4.4,4.3-5.7,7.7V5.7h-15.6v70.8h15.6v-30v-0.7
	c0-3,0.9-5.5,2.7-7.4c1.8-1.9,4.1-2.8,7-2.8c2.8,0,5,0.9,6.7,2.6c1.7,1.7,2.5,4.1,2.5,7v31.2h15.6V46.2c0-8-1.6-14.1-4.7-18.3
	C469.8,23.8,465.4,21.7,459.5,21.7"/>
<path class="st0" d="M521,54.6c0,3-0.9,5.3-2.6,7.1c-1.7,1.7-4,2.6-6.7,2.6c-2.7,0-4.9-0.8-6.5-2.5c-1.6-1.7-2.4-3.9-2.4-6.8V23.4
	h-15.6v30.8c0,8,1.7,14,5,18c3.3,4,8,6,14.1,6h0.7c4.1,0,7.5-0.9,10.2-2.7c2.7-1.8,4.8-4.5,6.1-8.1c0.4-1.1,0.8-2.3,1.1-3.6v12.6
	h12.3V23.4H521V54.6z"/>
<path class="st0" d="M586.7,25.3c-3.9-2.6-8.7-3.8-14.4-3.8c-4.3,0-8.2,0.8-11.6,2.3c-3.4,1.5-6.2,3.6-8.5,6.2
	c-2.3,2.6-4,5.5-5.2,8.8c-1.2,3.3-1.8,6.7-1.8,10.2v1.9c0,3.4,0.6,6.8,1.8,10c1.2,3.3,3,6.2,5.3,8.9c2.3,2.7,5.2,4.8,8.7,6.3
	c3.5,1.6,7.5,2.3,12,2.3c4.5,0,8.4-0.8,11.8-2.4c3.4-1.6,6.3-3.8,8.5-6.5c2.3-2.8,3.8-5.9,4.6-9.5h-14.3c-0.6,1.6-1.9,3-3.7,4.1
	c-1.8,1.1-4.1,1.6-7,1.6c-3.1,0-5.6-0.6-7.6-1.9c-1.9-1.3-3.4-3.1-4.3-5.5c-0.5-1.3-0.9-2.8-1.1-4.3h38.8v-5.2c0-4.8-1-9.3-3.1-13.4
	C593.6,31.2,590.6,27.9,586.7,25.3 M561.1,41.3c1-2.4,2.4-4.1,4.3-5.3c1.9-1.2,4.2-1.8,6.9-1.8c2.7,0,4.9,0.6,6.6,1.8
	c1.8,1.2,3.1,2.9,4,5.1c0.5,1.2,0.8,2.5,1,4h-23.9C560.3,43.8,560.7,42.5,561.1,41.3"/>
<polygon class="st0" points="601,5.7 601,17.1 607.3,17.1 607.3,76.5 622.9,76.5 622.9,17.1 622.9,5.7 607.3,5.7 "/>
<polygon class="st0" points="629.1,5.7 629.1,17.1 635.4,17.1 635.4,76.5 651,76.5 651,17.1 651,5.7 635.4,5.7 "/>
<path class="st0" d="M704.4,31.8c-1.9-3.1-4.8-5.5-8.5-7c-3.7-1.6-8.3-2.3-13.7-2.3c-1.9,0-3.9,0-6,0.1c-2.1,0.1-4.2,0.2-6.2,0.3
	c-2,0.1-3.8,0.3-5.3,0.4v13.1c2-0.1,4.3-0.2,6.7-0.3c2.5-0.1,4.9-0.2,7.2-0.2c2.3-0.1,4.2-0.1,5.6-0.1c2.8,0,4.9,0.7,6.2,2
	c1.3,1.3,1.9,3.4,1.9,6.2v0.1h-9.6c-4.7,0-8.9,0.6-12.5,1.8c-3.6,1.2-6.4,3-8.4,5.5c-2,2.5-3,5.7-3,9.6c0,3.6,0.8,6.6,2.4,9.2
	c1.6,2.6,3.9,4.5,6.7,5.9c2.9,1.4,6.2,2,10,2c3.7,0,6.8-0.7,9.4-2c2.6-1.4,4.6-3.3,6-5.8c0.7-1.1,1.2-2.4,1.6-3.8v10.3h12.3V43.9
	C707.3,39,706.3,35,704.4,31.8 M687.4,66.2c-1.4,0.6-3,0.9-4.7,0.9c-2.7,0-4.8-0.7-6.3-2c-1.5-1.3-2.2-3.1-2.2-5.2
	c0-2.3,0.7-4.1,2.2-5.4c1.5-1.3,3.5-2,6.3-2h9.7v4.3c-0.1,2.7-0.6,4.7-1.6,6.2C689.9,64.5,688.8,65.6,687.4,66.2"/>
<path class="st0" d="M222.9,126.5c-0.4,0-0.7-0.1-0.9-0.4c-0.3-0.3-0.4-0.6-0.4-1c0-0.4,0.1-0.7,0.4-1c0.3-0.3,0.6-0.4,0.9-0.4
	c1.2,0,2.5,0,3.9,0.1c1.4,0.1,2.9,0.1,4.6,0.2c1.7,0.1,2.9,0.1,3.8,0.2c0.1-0.3,0.1-0.6,0.1-0.9c-7.5,0.2-12,0.3-13.4,0.3
	c-0.4,0-0.7-0.1-0.9-0.4c-0.3-0.3-0.4-0.6-0.4-1s0.1-0.7,0.4-1c0.3-0.3,0.6-0.4,0.9-0.4c1.1,0,5.5-0.1,13.3-0.3
	c-2.3-0.1-7.4-0.1-15.4-0.1c-0.4,0-0.7-0.1-0.9-0.4c-0.3-0.3-0.4-0.6-0.4-1c0-0.4,0.1-0.7,0.4-1c0.3-0.3,0.6-0.4,0.9-0.4
	c8.1,0,13.3,0,15.7,0.1c0.2-4.2,0.4-8,0.8-11.5c0-0.4,0.2-0.7,0.5-0.9s0.6-0.4,1-0.3c0.4,0.1,0.6,0.2,0.9,0.5
	c0.2,0.3,0.3,0.6,0.3,0.9c0.3-0.2,0.5-0.3,0.8-0.3v-1.2c0-0.4,0.1-0.7,0.4-1c0.3-0.3,0.6-0.4,0.9-0.4c0.4,0,0.7,0.1,0.9,0.4
	c0.3,0.3,0.4,0.6,0.4,1c0,1.6-0.2,3.6-0.5,6.2c-0.4,3-0.6,4.9-0.6,5.9c0,0.3,0,0.6-0.1,0.9c0.7,0,1.4,0,2.1,0.1V117v-0.8v-0.8v-1.1
	v-1.3v-0.1l0.1-1.2v-0.1l0.3-1.5v-1.8v-1.9l0.1-3.2v-0.1l0.2-1.5c-0.1,0.3-0.1,0.5-0.2,0.8l-1.1-0.2l-1-0.1l-1.2-0.2h-0.8h-1.3h-1
	h-0.8l-1.1,0.2c-0.3,0.1-0.5,0.1-0.8,0.2v0.2v0.9v1.3l-0.1,3.3v1.8v1.8v1.6v1.2v1.2v0.2l-0.2,0.7v1.1h-1.5v-0.8
	c-0.3-0.1-0.5-0.1-0.8-0.2h-1h-1.1h-0.1l-2.4-0.1h-1.1h-1.4h-1.1l-2.3,0.1H222h-1.1h-1l-0.8,0.2H219l-2,0.1h-0.2v0.7v1v1.3v1.8v1.8
	l0.2,1.5l0.2,1.2l0.1,1.2v0.1v0.8v0.3c0.2-0.1,0.3-0.1,0.4-0.1h0.1h1.6l1.1-0.3h0.2l1.5-0.2h0.1l3-0.1l1.7-0.2h0.1h1.7h1.2h1.4h0.8
	h0.8v0.6l0.3-0.1l0.2,1.2v0.2v1.2v1.7v1.5v1.7v1.5v1.2v1.3v1.1v0.8v0.8v1v0.8l1.3,0.1h0.8l2.6-0.1h0.1h0.8h0.9h1.3h0.8v1.5h-0.8
	h-1.3H239l-1.7,0.1h-0.1h-1.7h-0.8h-1.4h-0.1l-0.8-0.1c0-0.3,0.1-0.5,0.1-0.8h-0.5v-0.8v-0.8v-1v-0.8v-0.8v-1.1v-1.3v-1.2v-1.5v-1.7
	v-1.5v-1.7v-1.1l-0.1-0.5h-0.6h-1.4h-1.2H227l-1.7,0.2h-0.1l-1.6,0.1h-1.4l-1.4,0.2l-1.1,0.3h-0.2h-1.7l-0.8,0.1l-0.1-0.4h-1.1v-1.5
	l-0.1-1.9l-0.2-1.2l-0.2-1.5v-0.1v-1.8v-1.8v-1.3v-1v-1.3h0.7l-0.2-0.8l0.8-0.2h0.1l1.3-0.1h0.1h0.7l0.8-0.2h0.2h1.1l2.1-0.1h0.1
	h1.2h1.1h1.4h1.1h1.3h0.1l2.3,0.1h1h0.2l0.8,0.2v-0.8v-1.2v-1.6v-1.8v-1.8v-1.7l0.1-2.9v-0.9v-0.2l0.2-0.8l0.8,0.2l-0.2-0.8l1.1-0.3
	h0.2l1.3-0.2h0.1h0.8h1h1.3h0.8h0.1l1.3,0.2l1,0.1h0.1l1.1,0.2c0,0.3-0.1,0.5-0.2,0.7l1.5,0.2l-0.2,1.5v1.4l-0.1,3.8v1.8v0.2
	l-0.3,1.5l-0.1,2.4v1.1v0.8c0.6,0.1,1.2,0.1,1.7,0.1h0.9h1h1.1h1.1h1.1h1h1.2h1.1h1.2h1.4h1.1h0.1l1.1,0.2h1.1h0.1l1,0.1h0.2
	l1.1,0.3c0,0.2-0.1,0.4-0.1,0.6c0.3,0,0.6,0,0.9,0.1l-0.2,1.8v0.1l-0.2,0.8v1.5v1.6v0.1l-0.1,2.7v0.1l-0.1,1.1v0.8v0.2l-0.2,0.9
	c-0.2,0-0.3,0-0.4-0.1c0,0.1-0.1,0.2-0.1,0.3l-1.8-0.1h-0.2l-0.7-0.2H259h-1.4h-1.4h-1.4h-1.2H252h-1.5H249l-1.4,0.2h-0.1l-2,0.1
	h-0.1h-0.4l-0.2,0.9l-0.1,1.4l-0.2,1.5l-0.1,3.3v0.1l-0.2,3v1.3v1.1v0.8v0.1l-0.1,2.1v0.9h-1.5v-0.9v-1v-0.1l0.1-1.9v-1.1v-1.3v-1.4
	v-0.1l0.2-1.6v-1.6l0.1-1.7v-0.1l0.2-1.6l0.1-1.4V130l0.2-1.1l0.3-1.4l1.1,0.2l1.4-0.1h0.1l2.5-0.2h0.1h1.6h1.5h1.5h1.2h1.4h1.4h1.4
	h1.2h0.2l0.7,0.2h0.8h0.1h0.1v-0.5v-0.1l0.2-1.1v-1.5v-0.1c0-0.9,0-1.8,0.1-2.7c-0.2,0.1-0.4,0.1-0.5,0.1c-1-0.1-1.9-0.2-2.9-0.3
	c0.4,0.1,0.6,0.2,0.8,0.6c0.2,0.3,0.3,0.7,0.2,1c-0.1,0.4-0.3,0.6-0.6,0.8c-0.3,0.2-0.6,0.3-1,0.2c0.6,0.3,0.8,0.7,0.8,1.4
	c-0.1,0.4-0.2,0.7-0.5,0.9c-0.3,0.3-0.6,0.4-1,0.3c-2.6-0.3-7.8-0.3-15.8-0.1h-0.5c0.1,4.4,0.3,8.9,0.7,13.5c0,0.4,0,0.8-0.3,1
	c-0.3,0.3-0.6,0.4-0.9,0.5c-0.4,0-0.7-0.1-1-0.3s-0.4-0.6-0.5-0.9c-0.1-0.5-0.1-0.9-0.1-1.4c-0.3,0.4-0.7,0.5-1.1,0.5v1.9
	c0,0.4-0.1,0.7-0.4,1c-0.3,0.3-0.6,0.4-0.9,0.4s-0.7-0.1-0.9-0.4c-0.3-0.3-0.4-0.6-0.4-1v-7.4v-7.5
	C227.1,126.6,223,126.5,222.9,126.5 M257.6,124.2c-4.1-0.8-9.5-1.2-16.4-1.2c-0.1,0.4-0.1,0.7-0.1,1.1h0.5
	C249.6,123.9,255,123.9,257.6,124.2 M243.7,117.8c6.8,0.3,12.9,0.7,18.3,1.4c0.2,0,0.3,0,0.4,0.1v-0.2c0-0.3,0.1-0.6,0.2-0.9
	c-0.2-0.1-0.4-0.1-0.5-0.2l-2-0.1H260l-1.1-0.2h-1.1h-1.4h-1.2h-1.1h-1.2h-1h-1.1h-1.1h-1.1h-1h-0.9H246h-0.1l-0.9-0.1v0.1H243.7z"
	/>
<path class="st0" d="M370.1,144.2c0,1.4,0,2.8,0,4.2c0,1.8-0.2,1.9-2.1,1.8c-2.6-0.2-5.2-0.1-7.8-0.1c-2.2,0-2.8-0.5-3.1-2.7
	c-0.3-1.7-0.4-3.5-0.5-5.3c-0.4-4.3-0.7-8.6-1.3-12.9c-0.3-2-0.9-4.1-1.7-6c-0.7-1.7-1.2-1.6-2.4-0.3c-1.9,2-1.8,4.6-2,7
	c-0.3,4.9-0.4,9.9-0.6,14.9c-0.1,1.6-0.3,2-1.9,2.2c-2.5,0.3-5.1,0.4-7.6,0.6c-1.7,0.1-2.5-1-2.4-2.7c0.4-6.1,0.5-12.2-0.6-18.2
	c-0.3-1.5-1.1-3-1.9-4.3c-1.2-1.9-1.6-1.7-3.5-0.9c-2.6,1.1-5.2,2.8-6,5.7c-0.5,1.6-0.2,3.4-0.1,5.1c0.2,3.3,0.4,6.6,0.6,9.9
	c0.1,1.9,0.2,3.9,0.2,5.8c0,1.5-0.4,1.8-1.8,2c-3.6,0.5-7.2,1-10.8,1.4c-1.1,0.1-1.7-0.3-1.7-1.4c0-7.7-0.1-15.4,0-23.2
	c0.1-3.7,0.5-7.5,0.8-11.2c0.2-1.9,0.5-3.7,0.8-5.6c0-0.2,0.1-0.5,0.1-0.8c-0.1-2.2-0.1-2.2,2.1-2.3c2.8-0.1,5.6-0.2,8.4-0.3
	c1.3-0.1,2.3,0.4,2.6,1.9c6.5-2.6,12.3-1.8,17,3.8c0.9-0.8,1.9-1.7,2.8-2.5c4.5-3.5,9.4-4,14.5-1.8c2.2,0.9,3.7,2.9,4.8,5
	c2.7,5.1,4,10.6,5,16.2c0.4,2.1,0.2,4.4,0.2,6.5C370.1,138.6,370.1,141.4,370.1,144.2 M314.2,117.5c-0.1,0-0.2,0-0.4,0
	c-0.3,4.9-0.7,9.9-0.9,14.8c-0.2,4.4,0,8.8,0,13.2c0,0.8,0.2,1.7,0.3,2.5c0.1,0.7,0.4,1,1.2,0.9c2.6-0.4,5.3-0.9,7.9-1.2
	c0.9-0.1,0.9-0.7,0.9-1.4c-0.1-1.6-0.2-3.2-0.3-4.8c-0.1-0.9-0.2-1.7-0.2-2.6c-0.3,1.8-0.2,3.6-0.3,5.4c0,1.6-1.2,2.3-2.6,1.8
	c-0.2-0.1-0.4-0.1-0.6-0.2c0,0.1,0.1,0.3,0.1,0.4c-0.8,0.4-1.7,0.9-2.5,1.2c-1.7,0.6-2.8-0.3-2.7-2.2c0.2-7.4,0.3-14.7,0.4-22.1
	C314.5,121.5,314.3,119.5,314.2,117.5 M341,145.3c-0.2-1.1-0.4-2.1-0.5-3.1c-0.3-4.4-0.4-8.7-0.8-13.1c-0.3-3.4-1.2-6.6-3-9.5
	c-0.8-1.3-2-1.9-3.5-1.8c-3.1,0.1-5.9,1-8.4,2.9c-1.1,0.8-1.3,1.5-0.9,2.9c1.7-1.3,3.3-2.6,5.1-3.8c2.4-1.7,5.3-1.1,7.1,1.1
	c1.9,2.2,2.6,4.9,2.8,7.7c0.3,5,0.3,10,0.4,15C339.1,145.5,339.1,145.5,341,145.3 M365.3,120.9c0.1,0,0.3-0.1,0.4-0.1
	c-0.8-2-1.5-4-2.5-6c-1.8-3.5-4.4-5.9-8.7-5.6c-1.4,0.1-2.8,0.3-4.2,0.6c-2,0.5-3.5,1.9-4.8,3.5c0.5,0,0.9-0.3,1.3-0.4
	c1.7-0.6,3.3-1.4,5.1-1.9c4.2-1,8,0.7,10,4.2C362.9,117.1,364.1,119,365.3,120.9 M367,125.6c-0.1,0-0.3,0-0.4,0
	c0.5,7.3-0.1,14.6-0.9,21.9c1.9,0.5,2.2,0.3,2.2-1.7c0-4.9,0.1-9.8-0.1-14.6C367.8,129.3,367.3,127.4,367,125.6 M350.1,120.5
	c-0.2,0-0.3,0-0.3,0c-2.1,1.7-3.5,3.9-4.6,6.3c-0.1,0.2-0.1,0.4,0,0.6c0.4,2,0.9,4,1.4,6c0.4-1.4,0.4-2.8,0.5-4.2
	c0.3-2.9,0.4-5.9,2.8-8.1C349.9,121,350,120.8,350.1,120.5 M361.3,128.3c0,0.2,0,0,0-0.1c-0.6-3.1-1.2-6.2-1.9-9.3
	c-0.3-1.2-1.2-1.5-2-1.5C358.7,121,360,124.7,361.3,128.3 M317.7,109c0,0.2-0.1,0.4-0.1,0.7c0.4,0.1,0.8,0.3,1.1,0.2
	c0.8-0.2,1.6-0.2,2.2,0.5c0.7,0.8,1.4,0.2,2,0c0.5-0.2,0.3-1.3-0.3-1.4C321,108.9,319.4,109,317.7,109 M354.2,119.8
	c-1.2-1.9-2.4-1.4-3.4,0H354.2z M346.4,144.7c-1.6-1.2-2.2-1.1-3,0.4C344.5,145,345.4,144.9,346.4,144.7"/>
<path class="st0" d="M386.2,147c0.4,2.7,0.7,5,1,7.4c0.2,2.6,0.3,5.3,0.5,7.9c0,0.3,0,0.5,0.1,0.8c0.4,2.2,0.4,2.2-1.8,2.8
	c-2.6,0.6-5.3,1.3-7.9,2c-2.4,0.6-3,0.3-3.4-2.1c-0.4-2.7-0.6-5.4-0.7-8.1c-0.2-7-0.3-13.9-0.2-20.9c0-5.7,0.3-11.3,0.5-17
	c0.1-2.4,0.3-4.9,0.5-7.3c0.1-0.4,0.8-1.1,1.3-1.2c2.6-0.2,5.2-0.3,7.8-0.3c1.3,0,1.9,0.7,2,2c0,0.2,0.1,0.5,0.1,0.9
	c0.6-0.2,1.2-0.3,1.7-0.5c2.7-1,5.5-1.6,8.3-1.7c6.2-0.2,12.3,4.2,13.8,10.2c1.7,6.4,1.6,12.8-1.4,18.8c-0.7,1.4-2,2.7-3.2,3.8
	c-3.6,3.2-7.8,5.1-12.7,4.8c-1.7-0.1-3.3-0.3-4.7-1.4C387.4,147.6,386.9,147.4,386.2,147 M397.7,128.9c-0.1-0.6-0.3-1.8-0.6-3
	c-0.5-1.5-1.1-1.9-2.7-1.9c-2.6,0-4.8,0.9-6.9,2.3c-0.5,0.3-0.8,1.1-0.8,1.6c0.1,3.2,0.3,6.5,0.5,9.7c0,0.3,0.4,0.9,0.6,0.9
	c2.4,0.2,4.7,0,6.7-1.5C396.9,135.1,397.6,132.4,397.7,128.9 M386.5,124c-2.5,0.3-3.3,0.8-3.4,2.4c-0.1,3.3-0.2,6.6-0.2,9.9
	c0,1.3,0.7,1.9,1.9,2.4c0.1-0.3,0.1-0.6,0.1-0.8c-0.2-3.3-0.3-6.5-0.6-9.8c-0.1-1.4-0.4-2.7,1.3-3.3
	C385.9,124.7,386.1,124.4,386.5,124 M389,141.1c2.5,1.1,7,0.1,9.2-2c2-1.9,2.9-6,1.9-8.3C398.7,135.6,397.8,140.2,389,141.1
	 M383.8,163.8c0.5-0.1,1.6,0.4,1.5-1.1c-0.3-3.7-0.5-7.4-0.9-11.2c-0.1-1.4-0.5-2.8-0.7-4.1c-0.1,0-0.2,0-0.4,0.1
	C383.6,152.8,383.7,158.3,383.8,163.8 M383.4,114.9c0-0.6,0.6-1.7-0.7-1.7c-1.7-0.1-3.4,0.1-5,0.2c-0.3,0-0.7,0.4-0.8,0.6
	c-0.2,1.5-0.2,3.1-0.3,4.7c0,0.2,0.2,0.4,0.4,0.5c0.2-0.2,0.4-0.3,0.4-0.5c0.1-0.7,0-1.4,0.1-2.1c0.2-1.7,1.5-2.2,2.9-1.4
	c0.3,0.2,0.6,0.3,0.9,0.3C382,115.4,382.6,115.2,383.4,114.9 M403.1,121.8c-0.9-4-5-6.8-8.4-5.5C398.2,117,400.8,118.8,403.1,121.8
	 M380.5,163.5c-2,1.1-3,0.8-3.4-0.9c-0.1-0.4-0.1-0.8-0.2-1.2c-0.2-1.9-0.4-3.8-0.6-5.7c0,3.1,0.2,6.3,0.5,9.4
	c0,0.2,0.5,0.6,0.8,0.5c1.3-0.3,2.6-0.7,4-1.1C381.2,164,380.8,163.7,380.5,163.5"/>
<path class="st0" d="M512.7,117.2c0,2.3-0.1,4.5,0,6.8c0.1,1.2,0.3,2.3,0.7,3.4c0.2,0.5,1,1.3,1.3,1.2c0.6-0.1,1.4-0.8,1.6-1.3
	c0.5-1.7,0.9-3.5,1.1-5.3c0.5-4.4,0.9-8.8,1.4-13.1c0-0.4,0.8-1,1.2-1c2.7-0.1,5.4-0.1,8.1-0.1c1.2,0,1.8,0.7,1.8,1.9
	c-0.1,1.8-0.4,3.7-0.5,5.5c-0.2,5.6-0.3,11.2-0.5,16.7c-0.3,5.3-0.6,10.7-1.3,15.9c-0.5,4.1-1.9,8.1-4.2,11.6
	c-1.3,1.9-2.8,3.7-4.5,5.4c-0.7,0.7-1.8,1.1-2.8,1.2c-5.6,0.6-10.6-0.8-14.9-4.5c-0.6-0.5-1-1.3-1.4-2.1c-1.3-3-2.6-6.1-3.8-9.2
	c-0.1-0.3,0.2-0.9,0.5-1.2c1-0.8,2.1-1.5,3.2-2.3c1-0.7,2.1-1.4,3.2-2c1.5-0.9,2.3-0.5,3.1,1c1.3,2.4,2.7,4.8,4.1,7.2
	c0.3,0.5,0.8,0.9,1.3,1.1c1,0.6,2,0.2,2.3-0.9c0.7-2.9,1.4-5.8,2-8.7c0.3-1.2,0.4-2.5,0.6-3.7c0.2-1.4,0-1.5-1.4-1.4
	c-2.7,0.2-5.3,0-7.8-0.9c-1.8-0.6-2.9-1.8-3.5-3.5c-1.7-4.4-2.8-8.9-2.8-13.6c0-3.7,0-7.3,0.1-11c0-1.6,0.6-2.3,2.2-2.4
	c2.7-0.1,5.5-0.1,8.3-0.1c1.2,0,1.5,0.6,1.4,1.7C512.7,112.2,512.8,114.7,512.7,117.2L512.7,117.2z M526.6,127.3c-0.1,0-0.2,0-0.3,0
	c-0.3,4.1-0.7,8.2-1,12.4c-0.2,2.9-0.4,5.8-0.8,8.6c-0.5,3.6-2.1,6.8-3.8,10c-1.8,3.5-5,5.1-9,4.5c-5.5-0.8-9.1-4.3-11.5-9.2
	c-0.3-0.7-0.6-1.4-0.7-2.1c0-0.5,0.3-1.3,0.7-1.6c0.4-0.3,1.2-0.1,1.7,0c0.3,0,0.5,0.4,0.8,0.5c-0.2-0.2-0.3-0.4-0.5-0.5
	c0.6-0.5,1.3-0.9,2.1-1.5c-0.2-0.2-0.4-0.7-0.7-1.2c-1.5,0.9-2.9,1.7-4.2,2.5c-0.8,0.5-1.2,1.1-0.7,2.1c1.1,2.4,2.1,4.8,3.1,7.1
	c0.3,0.6,0.8,1.2,1.3,1.6c3.4,2.8,7.4,3.6,11.6,3.6c1.3,0,2.6-0.4,3.4-1.6c0.7-1,1.5-2,2.3-3c3.2-4.1,4.4-8.9,5.1-13.8
	c0.6-4.4,0.7-8.9,0.9-13.3C526.7,130.7,526.6,129,526.6,127.3 M509.3,110.3c0.1,1,0.2,2,0.1,2.9c-0.2,2.2-0.5,4.4-0.8,6.6
	c-0.4,2.8,0.3,5.4,1.6,7.9c0.2,0.3,0.5,0.5,0.7,0.8c0.1-0.6,0.1-1,0-1.4c-0.2-1.3-0.6-2.5-0.6-3.8c-0.1-3.9,0-7.9,0-11.8
	C510.4,110.5,510.3,109.9,509.3,110.3 M505.9,134.5c0.4,2.2,6,3.9,9.4,2.5c-1.7-0.2-3.4-0.2-4.9-0.6
	C508.8,135.9,507.3,135.1,505.9,134.5 M527.7,110.3h-6.5c1.7,0.6,3.7,0.2,4.6,2.2C526.4,111.8,526.9,111.2,527.7,110.3 M503.1,111.4
	c0.9-0.3,1.7-0.5,2.8-0.8C504.2,110.1,503.3,110.4,503.1,111.4 M518.4,128.7c-0.4,0.5-0.7,1-1.1,1.7
	C518.8,130.5,518.7,129.7,518.4,128.7"/>
<path class="st0" d="M578.7,148c-3.1,1.7-6.6,1.9-10.1,1.7c-3.3-0.1-6.4-1.1-9-3.1c-2.2-1.6-3.5-4-4.6-6.5c-2.2-5-2.1-10.2-1.7-15.5
	c0.1-1.3,0.7-2.7,1.4-3.9c2.7-4.4,6.2-7.8,11-9.9c3.4-1.5,6.9-2.7,10.7-2.4c0.9,0.1,1.2-0.4,1.2-1.2c0.1-2.5,0.3-2.7,2.8-2.8
	c2.8-0.2,5.6-0.3,8.4-0.4c0.5,0,1.2,0.3,1.5,0.7c0.5,0.6,0.2,1.2-0.5,1.6c-0.3,0.2-0.4,0.7-0.4,1.1c0.3,3.3,0.6,6.5,0.9,9.8
	c0.2,2,0.2,3.9,0.3,5.9c0.2,8.3,0.3,16.6,0.5,24.9c0,2-0.7,2.7-2.7,2.7c-2.1,0-4.2,0.1-6.3,0c-0.8,0-1.7-0.2-2.3-0.7
	C579.3,149.8,579.1,148.9,578.7,148 M577.2,128.5h0.1c0-1.2,0-2.4,0-3.5c0-0.8-0.4-1.2-1.1-1.2c-2.4-0.2-4.5,0.2-6.4,1.9
	c-2.2,2-2.9,4.6-3.1,7.5c-0.1,1.5,0.6,2.7,1.8,3.4c1.3,0.8,2.8,1,4.2,0.1c1.1-0.7,2.1-1.5,3.1-2.3c1-0.8,1.5-1.8,1.4-3.2
	C577.1,130.3,577.2,129.4,577.2,128.5 M578.4,144.9c-0.6,0.2-1.1,0.5-1.7,0.7c-7.3,2.8-15.4,0.7-19.4-7.6c-0.6-1.3-1.1-2.8-1.2-4.2
	c-0.8-8.7,4.1-15.9,12.5-18.3c0.7-0.2,1.4-0.5,2-0.9c2.2-1.4,4.5-2.2,7.1-2.2c1,0,1.2-0.5,0.8-1.7c-2,0.1-4.2,0-6.2,0.4
	c-5.9,1.3-10.9,4.1-14.5,9.2c-1.6,2.3-2.6,4.7-2.5,7.5c0,0.9,0,1.9,0,2.8c0.2,4.6,1.1,8.9,4,12.6c1.1,1.4,2.4,2.3,3.9,3
	c3.8,1.7,7.7,1.6,11.6,0.9C576.2,146.8,577.6,146.3,578.4,144.9 M565.1,128.7c-0.1,0-0.2-0.1-0.3-0.1c-0.6,1-1.3,2-1.8,3.1
	c-2.1,4.9-1.8,7,4.2,8.6c4,1.1,7.8,0.9,11-2.3c1-1,1-2,0.6-3.1c-1.4,1.1-2.9,2.2-4.2,3.4c-2.4,2-5.7,1.4-7.5,0.3
	c-2.1-1.3-3-3.9-2.5-6.8C564.8,130.7,565,129.7,565.1,128.7 M587.5,112.2c-0.1,0-0.2,0-0.3,0c0,0.2-0.1,0.3-0.1,0.5
	c0.3,6.5,0.6,12.9,0.8,19.4c0.1,3.3-0.1,6.5-0.3,9.8c-0.1,2.2-0.6,4.4-0.9,6.6c1.8,0.5,2.1,0.3,2.2-1.6c0-0.4,0-0.8,0-1.1
	c-0.1-6.9-0.3-13.8-0.5-20.7c-0.1-2.9-0.3-5.7-0.5-8.5C587.9,115.1,587.7,113.7,587.5,112.2 M584.4,106.8c-4-0.7-5.1,0.2-4.4,2.9
	c0.6,0.1,1.1,0.2,1.4,0.2C582.4,108.9,583.3,108,584.4,106.8 M572.9,118.5c-1.3-0.4-2.2,0-2.8,1.1
	C571,119.3,571.9,118.9,572.9,118.5"/>
<path class="st0" d="M615.1,138.1c0.7,0.1,1,0.2,1.3,0.2c3.4-0.4,6.7-0.8,10.1-1.1c0.7-0.1,1.3-0.2,2-0.2c1.5,0,2.2,0.7,2.3,2.3
	c0.1,2.5,0.4,5,0.4,7.5c0,1-0.3,2-0.6,3c-0.1,0.3-0.8,0.5-1.2,0.5c-3.5,0.1-7,0.2-10.6,0.3c-5.8,0.3-11.5,0.6-17.3,0.9
	c-1.8,0.1-3.6,0.1-5.4,0c-1,0-2.2-1.6-2.1-2.6c0-0.1,0.1-0.2,0.1-0.2c-0.6-3.7,2.2-5.8,4-8.3c2.7-4,5.6-7.9,8.5-11.9
	c1.8-2.4,3.7-4.7,5.5-7.1c0.3-0.4,0.6-0.8,1.1-1.5c-0.7-0.1-1.1-0.1-1.5-0.1c-4.4,0-8.7,0-13.1,0.1c-1.5,0-1.9-0.4-1.9-1.8
	c0-2.4,0-4.8,0-7.2c0-1.8,0.5-2.3,2.3-2.4c5.9-0.4,11.9-0.8,17.8-1.2c3-0.2,6.1-0.4,9.2-0.6c0.8-0.1,1.6-0.2,2.4-0.4
	c1.6-0.3,2.5,0.5,2.5,2.1c0,1.6,0,3.1,0,4.7c0,0.2-0.1,0.5,0,0.6c1.1,1,0.3,1.9-0.2,2.8c-1.9,3.1-3.8,6.2-5.8,9.3
	c-0.8,1.3-1.6,2.6-2.5,3.8c-1.5,1.9-3.2,3.7-4.7,5.5C616.7,136,616,137,615.1,138.1 M623,109.4c0.2,0.6,0.3,1,0.3,1.4
	c0.1,1,0.5,1.3,1.5,1.1c1.5-0.3,2.7,0.7,2.7,2.2c0,1-0.2,2.2-0.8,3.1c-1.4,2.2-2.8,4.5-4.5,6.5c-4.5,5.2-9.1,10.3-13.6,15.5
	c-0.6,0.7-1.2,1.5-2.1,2.6c0.9,0,1.5,0,2,0c5.4-0.4,10.9-0.8,16.3-1.2c2.5-0.2,2.7,0,3,2.5c0,0,0.1,0.1,0.5,0.3c0-1.1,0-2.1,0-3
	c0-0.9-0.4-1.2-1.3-1c-1.4,0.3-2.8,0.7-4.2,0.8c-2.9,0.2-5.9,0.3-8.8,0.3c-1.2,0-2.4-1.6-1.9-2.3c1.1-1.5,2.2-3,3.3-4.4
	c1.8-2.3,3.7-4.5,5.5-6.8c0.7-0.9,1.4-1.9,2-2.9c1.8-3,3.6-5.9,5.4-8.9c0.2-0.3,0.2-0.7,0.1-1c-0.1-0.7-0.4-1.4-0.5-2.1
	c-0.1-1,0-2.1,0-3.2C626.4,109,624.8,109.2,623,109.4 M600.4,117.5c-0.6-1.2-0.6-2.3,0.7-3.1c0.1-0.1,0.1-0.8,0-0.8
	c-1.3-0.4-1.6-1.5-1.8-2.7c-0.3,0.3-0.5,0.7-0.6,1c0,1.5,0,3,0,4.5C598.7,117.5,599.2,117.8,600.4,117.5 M617.2,117
	c0-0.1-0.1-0.2-0.1-0.4c-2.3,0.2-4.7,0.5-7,0.7c0,0.1,0,0.2,0,0.3c1,0,1.9,0,2.9,0c1.1,0,2.4-0.4,2.7,1.7
	C616.3,118.4,616.7,117.7,617.2,117 M602.6,149.2c0-0.1,0-0.1,0-0.2c-1.9-0.3-3.8-0.5-5.7-0.7c-0.2,0-0.4,0.2-0.6,0.4
	c0.2,0.2,0.3,0.5,0.5,0.5C598.7,149.2,600.7,149.2,602.6,149.2"/>
<path class="st0" d="M659.3,147.7c-1.1,0.7-2.2,1.4-3.2,2c-4.1,2.5-11.4,2.3-15.2-0.6c-1.8-1.3-3-3-3.6-5.2
	c-0.9-2.8-1.8-5.5-2.6-8.3c-0.4-1.3-0.6-2.7-0.6-4.1c0.1-5.2,0.2-10.5,0.5-15.7c0.1-2.1,0.9-4.1,1.4-6.1c0.1-0.6,0.3-1.1,0.3-1.7
	c0.1-1.4,0.4-1.8,1.7-1.7c2.6,0.1,5.1,0.3,7.6,0.5c0.9,0.1,1.3,0.5,1.1,1.5c-1.7,7.2-2.2,14.5-1.8,21.9c0.1,1.5,0.4,3.1,0.8,4.5
	c0.7,2,2.6,3.1,4.7,2.9c2.1-0.1,4.3-0.1,5.9-1.8c1.1-1.2,2.1-2.7,2.1-4.5c0.1-6.6,0.2-13.3,0.3-19.9c0-1.3,0.2-2.5,0.2-3.8
	c0-0.8,0.4-1.2,1.2-1.1c1.5,0.1,3,0.2,4.5,0.3c1.1,0.1,2.3,0.2,3.4,0.2c1.8,0,2.8,1,2.6,2.9c-0.9,8.6-1.1,17.2-1,25.8
	c0,3.8,0.9,7.5,2.2,11.1c0.2,0.6,0.3,1.1-0.4,1.4c-2.5,1.2-4.9,2.5-7.4,3.8c-1.2,0.7-2.2,0.5-3.3-0.1c-0.3-0.1-0.4-0.6-0.5-0.9
	C659.9,150,659.6,148.9,659.3,147.7 M636.2,125.1c0.2-0.3,0.3-0.3,0.3-0.3c0.5-4.6,0.4-9.3,2.2-13.7c0.4-0.9,0.7-1.6,1.8-1.6
	c1.1,0,1.5,0.8,1.7,1.7c0.1,0.4,0,0.8,0,1.1c-0.1,5.6-0.2,11.2-0.1,16.9c0,1.5,0.5,3,0.7,4.4c0.1,0,0.2,0,0.3-0.1
	c-0.1-1.2-0.3-2.3-0.3-3.5c-0.1-2.9-0.2-5.7-0.1-8.6c0.2-3.9,0.8-7.8,1.2-11.6c0.1-0.7-0.1-1.1-0.9-1.1c-1.1,0-2.2-0.2-3.3-0.2
	c-0.4,0-1.1,0.3-1.2,0.7C636.6,114.4,636.4,119.6,636.2,125.1 M656.8,146.3c-6.7,1.7-12.8,1.4-17.6-4.5c0.3,2.8,2.3,5.5,4.5,6.4
	c2.6,1,5.3,0.9,7.9,0.7C653.7,148.7,655.3,147.7,656.8,146.3 M644.6,136.8c-0.1,0.1-0.3,0.2-0.4,0.3c0.2,0.3,0.4,0.7,0.6,1
	c2.1,3,6.3,4,9.8,2.2c2-1,3.7-2.6,5.6-4c0.8-0.6,1.1-1.4,1.1-2.4c0-6.4,0-12.8,0-19.2c0-0.4,0-0.8-0.1-1.1c-0.3,0.3-0.3,0.7-0.3,1
	c-0.1,5.8-0.3,11.5-0.1,17.3c0.1,2.4-1.1,4-2.6,5.5c-2.2,2.2-5.2,2.5-8.2,2.6c-1.7,0-3.2-0.6-4.4-1.8
	C645.2,137.7,644.9,137.3,644.6,136.8 M667.1,122.6c0.1,0,0.2,0,0.3,0c0.3-4.4,0.6-8.7,0.8-13.2h-1.2V122.6z M661,110.4
	c0.1,0.1,0.2,0.1,0.3,0.2c0.6-0.4,1.3-0.7,1.9-1.1l0-0.4c-0.5-0.1-1.1-0.3-1.5-0.1C661.4,109.2,661.2,109.9,661,110.4"/>
<path class="st0" d="M450.5,108.6c5.1-0.5,9.4,0.8,13,3.8c5.4,4.4,8.5,9.9,7.9,17.3c-0.4,4.6-1.4,8.9-4,12.7
	c-4.3,6.2-10.2,9.9-18,9.4c-8.4-0.5-14.6-5.6-17.3-13.8c-1.4-4.1-1.5-8.3-0.9-12.6c0.7-4.8,3.2-8.7,6.5-12.3c1-1.1,2.3-1,3.3-1.7
	C443.9,109.3,447,107.8,450.5,108.6 M458.5,129.3c0.3-4.4-3.3-9.5-8.3-9c-0.7,0.1-1.7,0.5-2,1c-1.1,2-2.2,4.1-2.7,6.3
	c-0.5,2-0.5,4.2-0.6,6.4c-0.2,3.1,1.8,4.5,4.6,4.6C453.5,138.7,458.9,135.1,458.5,129.3 M451.2,110.9c2.4,0,4.7,0.7,6.4,2.3
	c1.3,1.3,2.8,2.1,4.3,2.9c4.3,2.4,6.6,6.6,6,11.3c-0.3,2.6-1,5.1-1.6,7.6c-2,8.9-11.3,14.2-19.9,11.4c-4.7-1.5-8.9-3.8-11.4-8.4
	c-0.2-0.3-0.3-0.6-0.5-0.9c-0.1,0.6,0,1.2,0.2,1.7c1.3,3,3.1,5.7,5.7,7.5c9.6,6.7,21.4,2.1,26.2-7.5c1.4-2.7,1.8-5.7,2.3-8.7
	c1-6.9-2.5-13-7.7-16.5C458.3,111.5,454.9,110.3,451.2,110.9 M454,118.3c0-0.1,0.1-0.1,0.1-0.2c-0.4-0.3-0.9-0.7-1.3-0.8
	c-2.5-0.3-5-0.1-7.2,1.2c-1.2,0.7-2,2.1-2.7,3.4c-2.6,5.4-3.2,10.9,0.1,16.2c1.9,3.1,4.8,4.6,8.4,4.2c3.6-0.4,6.2-2.4,7.8-5.7
	c0.2-0.3,0.2-0.7,0.3-1c-1.5,2.1-3.7,3.2-5.9,4.4c-3,1.5-5.7,1-8.3-0.7c-0.8-0.5-1.6-1.5-1.9-2.4c-1.1-3.8-0.8-7.7,0.5-11.4
	c0.7-1.9,2-3.6,2.6-5.6c0.5-1.7,1.5-2,2.8-2C450.7,117.9,452.3,118.1,454,118.3 M433.3,130.8c0.1-0.3,0.2-0.6,0.2-1
	c0.3-4,2-7.4,4.1-10.7c0.8-1.2,1.3-2.7,2.1-4.2C435.8,116.7,432.2,125.6,433.3,130.8"/>
<path class="st0" d="M276.2,142c0-7.1,0-14.3,0-21.4c0-3.5,0.3-7,0.2-10.5c-0.1-4.4,0.4-8.7,1-13c0.2-1.1,0.2-2.3,0.6-3.4
	c0.1-0.4,0.9-1,1.3-1c3.1,0,6.2,0.1,9.3,0.2c1.2,0,1.9,0.7,1.8,1.9c-0.2,7.5-0.4,15-0.7,22.5c0,1.7,0,3.4-0.1,5.2
	c-0.3,6.3-0.7,12.6-1,18.9c-0.1,2.2,0,4.5-0.1,6.7c0,1.7-1.1,3-2.8,3.2c-2.8,0.2-5.7,0.3-8.5,0.4c-0.3,0-1-0.7-1-1.1
	c-0.2-2-0.2-4-0.3-6c0-0.8,0-1.7,0-2.5C276.1,142,276.2,142,276.2,142 M287.9,95.2c-0.8,0.7-1,21.3-0.4,22.7
	C288.3,110.3,288,102.8,287.9,95.2 M283.7,103.6c-1.2,7-0.6,14,0,21V103.6z M279.4,101.9c-0.8,1.9-1.1,13-0.5,14.6
	c0.2-2.4,0.4-4.8,0.5-7.3C279.4,106.8,279.4,104.4,279.4,101.9 M279.7,96.1h4.1c-0.1-0.4-0.2-1.1-0.4-1.1c-1.1-0.1-2.3,0-3.4,0.1
	C279.9,95.1,279.8,95.8,279.7,96.1"/>
<path class="st0" d="M676,111.2c0.4-4.8,0.9-9.5,1.3-14.2c0.1-1.1,0.2-2.2,0.5-3.3c0.1-0.4,0.9-1,1.3-1c3.1,0,6.2,0.1,9.3,0.2
	c1.2,0,1.9,0.7,1.8,1.9c-0.2,7.5-0.4,15-0.7,22.5c0,1.7,0,3.4-0.1,5c-0.3,6.3-0.7,12.6-1,19c-0.1,2.2-0.1,4.5-0.1,6.7
	c0,1.7-1.1,3-2.8,3.2c-2.8,0.2-5.7,0.3-8.5,0.4c-0.3,0-0.9-0.5-1-0.9c-0.2-0.7-0.3-1.5-0.3-2.2c0.1-9.4,0.2-18.7,0.3-28.1
	c0-3.1,0-6.1,0-9.2C676.1,111.3,676,111.2,676,111.2 M687.5,95.2c-0.5,0.7-0.7,21.4-0.2,22.6C688.2,111.8,688.3,96.2,687.5,95.2
	 M683.6,124.6v-21C682.4,110.6,683,117.6,683.6,124.6 M678.5,116.6c0.1,0,0.2,0,0.4,0c0.2-4.8,0.4-9.7,0.7-14.5c-0.2,0-0.4,0-0.5,0
	C678.1,106.8,678.7,111.7,678.5,116.6 M679.6,96.1h4.1c-0.1-0.4-0.2-1-0.3-1c-1.1-0.1-2.3-0.1-3.4,0
	C679.8,95.1,679.7,95.8,679.6,96.1"/>
<path class="st0" d="M414.7,119.9c0-2.2,0-4.4,0-6.6c0-0.7,0.4-1.1,1.1-1.3c3-0.9,6-1.4,9.1-1.5c3,0,3-0.1,3,2.9
	c0.1,6.7,0.2,13.5,0.3,20.2c0.1,4.3,0.1,8.7,0.2,13c0,0.8,0.1,1.6,0.2,2.4c0.1,0.8-0.2,1.3-1,1.4c-3.6,0.4-7.2,0.9-10.8,1.3
	c-1,0.1-1-0.9-1-1.5c-0.1-4-0.2-8-0.4-12c-0.2-6.1-0.6-12.2-0.8-18.2C414.6,119.9,414.7,119.9,414.7,119.9 M421.6,116.2
	c0,0,0.1-0.1,0.1-0.2c0.1-1.2,0.6-2,1.9-1.9c1.2,0.1,1.6,0.9,1.6,2c0.1,1.3,0.2,2.5,0.4,3.8c0.1-2.1,0.1-4.2,0-6.3
	c0-0.3-0.7-0.8-1-0.8c-2.4,0.3-4.8,0.7-7.1,1.2c-0.3,0.1-0.5,0.7-0.6,1c0,0.2,0.3,0.6,0.6,0.8c0.6,0.4,1.3,0.7,1.9,1.1
	C420,116.7,420.8,116.5,421.6,116.2 M419.2,149.4c-0.4-2.4-0.7-4.5-1.1-6.7c-0.2,2.1-0.1,4.1,0.1,6.1
	C418.2,149,418.9,149.2,419.2,149.4 M422.6,148.8c0.1,0.1,0.2,0.1,0.3,0.2c0.8-0.8,0.2-1.9,0.2-2.8c0-1.1-0.1-2.2-0.2-3.3
	c-0.1,0-0.2,0-0.3,0V148.8z"/>
<path class="st0" d="M294.3,119.8c0-2.1,0-4.3,0-6.4c0-0.8,0.4-1.2,1.1-1.4c3-0.9,6-1.4,9.1-1.5c2.9-0.1,2.9-0.1,2.9,2.8
	c0.1,6.7,0.2,13.5,0.3,20.2c0.1,4.4,0.2,8.8,0.2,13.2c0,0.3,0,0.6,0,0.9c0.2,2.5,0.2,2.6-2.3,3c-3.1,0.5-6.2,0.7-9.3,1
	c-1.1,0.1-1.1-0.8-1.1-1.5c-0.1-2.8-0.2-5.5-0.3-8.3c-0.3-6.4-0.5-12.8-0.8-19.1C294.3,121.8,294.3,120.8,294.3,119.8L294.3,119.8z
	 M305.2,119.8c0,0,0.1,0,0.1,0c0-2,0-4.1,0-6.1c0-0.3-0.7-0.9-1-0.9c-2.4,0.3-4.8,0.8-7.1,1.2c-0.3,0.1-0.5,0.6-0.6,0.9
	c0,0.3,0.2,0.7,0.5,0.8c0.6,0.4,1.3,0.7,2.1,1.1c0.6-0.2,1.4-0.5,2.2-0.7c0.4-1.6,0.9-2.2,2-2.1c1.4,0.1,1.6,1.2,1.6,2.3
	C304.9,117.5,305.1,118.7,305.2,119.8 M298.8,149.5c-0.4-2.5-0.8-4.6-1.1-6.8c-0.1,0.1-0.2,0.1-0.2,0.2c0.1,2,0.1,3.9,0.3,5.9
	C297.8,149,298.5,149.2,298.8,149.5 M302.3,149c0.2-0.2,0.7-0.4,0.7-0.6c-0.1-1.9-0.3-3.8-0.4-5.7c-0.1,0-0.2,0-0.2,0V149z"/>
<path class="st0" d="M300.2,109.1c-4.4,0.1-7.6-3.2-7.6-7.6c0-1.8,0.1-3.4,1.3-4.8c1.4-1.8,4.1-2.6,6.3-2c1.7,0.4,3.4,0.8,4.8,2
	c1.9,1.7,3.2,3.6,3.1,6.3c-0.1,2.7-1.5,4.7-4.1,5.5C302.8,108.8,301.5,108.9,300.2,109.1 M304,99.1c1.1,2.2,1,4.4-0.3,6.8
	c1.3-0.3,1.8-1,2-1.9C306.2,102,305.6,100.4,304,99.1 M301.2,102.3c-1,0.4-1.9,0.8-3,1.2c0.2,0.6,0.6,1.1,1.5,0.8
	C300.7,104,301.4,103.4,301.2,102.3"/>
<path class="st0" d="M420.5,109.1c-4.4,0.1-7.6-3.1-7.6-7.6c0-1.7,0.1-3.2,1.1-4.6c1.4-1.9,4.2-2.9,6.5-2.2c1.4,0.5,3,0.9,4.2,1.7
	c2.7,1.7,3.9,4.3,3.6,7.6c-0.2,1.8-1.9,3.9-4.1,4.5C423.1,108.8,421.8,108.9,420.5,109.1 M424.4,99.1c1,2.2,1,4.4-0.4,6.9
	c1.3-0.5,1.9-1.2,2.1-2.1C426.5,102,426,100.4,424.4,99.1 M418.6,103.5c0.2,0.8,0.8,1.1,1.6,0.7c0.9-0.4,1.4-1,1.4-1.9
	C420.6,102.7,419.7,103.1,418.6,103.5"/>
</svg>
