<?xml version="1.0" encoding="UTF-8"?>
<svg id="Capa_2" data-name="Capa 2" xmlns="http://www.w3.org/2000/svg" viewBox="0 0 93.47 36.41">
  <defs>
    <style>
      .cls-1 {
        fill: #23272a;
      }
    </style>
  </defs>
  <g id="Layer_1" data-name="Layer 1">
    <g>
      <path class="cls-1" d="m52.9,21.5c-.23-.32-.53-.75-.78-1.04-.12-.14-.67-.75-.82-.92-.14-.16-.39-.37-1-.83-.26-.2-.94-.67-.87-.91.1-.31.35-.16,1.37-1.24.32-.35,1.02-1.19,1.28-1.66.38-.76.73-2.36.73-3,0-.17-.06-.99-.06-1.16,0-.09.03-.55.03-.64-.03-.87-.61-2.12-.7-2.24-.06-.09-.84-1.16-.9-1.25-.17-.17-.75-.67-1.22-.93-.06-.03-1.16-.52-1.37-.64-.29-.09-1.25-.35-1.48-.38-.2-.06-1.6-.12-1.8-.12-.32,0-.81.03-1.13.03-.18,0-.9.03-1.05.03h-.96c-.2,0-1.07-.03-1.25-.03-.12,0-.67.03-.78.03s-.64-.06-.76-.06c-1.19,0-1.19,1.05-1.19,1.86,0,.18.06.99.06,1.16,0,.38.03,2.04.03,2.38-.03.96-.14,1.89-.14,2.85-.03.38-.03.81-.03,1.16,0,.2.06,1.08.06,1.25s-.03.87-.03,1.02c0,.32.03,1.51.03,1.83,0,.44.06.9.06,1.34,0,.15-.03.49-.06.99-.03.41-.06.81-.06,1.19,0,.2.03,1.02.03,1.19s0,.38-.03.58c-.03.23-.09.47-.09.7,0,.29.14,1.02.87,1.02.15,0,.9-.03,1.05-.03.29,0,.47,0,.67-.03.06,0,.58-.03.61-.03.2,0,.41.03.58.06.2.03.41.09.61.09.38,0,.79-.26.79-.81,0-.15-.12-.81-.15-.93-.09-.61-.09-.67-.09-.87,0-.81.03-.9.21-1.28.11-.26.17-.41.44-.58.06-.03.29-.14.44-.14.44,0,.7.03,1.45.52.09.06.54.33.64.4.2.15.36.25.56.36.17.1.46.29.65.48.18.19.36.39.53.6.39.58.69,1.23.73,1.41.05.17.08.32.14.5.25.44.66.45.86.45.2,0,.44-.02.64-.02.12,0,.64.07.76.07.17,0,1.08-.07,1.28-.06.09,0,.52.04.61.04.9.02.83-.22.83-.64,0-1.53-.54-2.81-.8-3.13m-6.18-6.63c-.12.12-.26.2-.38.35-.15.09-.26.23-.38.32-.14.06-.26.12-.41.17-.35.14-.41.18-.67.23q-.44.06-.55.06s-.7-.03-.84-.09c-.47-.15-.49-.58-.52-.84,0-.26-.09-1.39-.09-1.63,0-.2.06-1.16.06-1.37,0-.23-.06-1.22-.06-1.42,0-.35.03-.44.23-.93.14-.32.17-.38.49-.52.2-.09.41-.17.52-.17.03,0,1.16.12,1.22.12.44,0,.52.03,1.13.2,1.28.41,1.6,1.72,1.6,2.27,0,1.08-.38,1.77-.58,2.15-.46.81-.52.9-.78,1.11"/>
      <path class="cls-1" d="m.06,18.51c0-.12.09-.64.09-.76,0-.17-.03-.35-.06-.52,0-.2-.03-.76-.03-1.02,0-.15.03-.29.03-.41.03-.12.12-.7.12-.81,0-.26-.06-.52-.06-.78,0-.09.03-.49.03-.58,0-.2-.03-.41-.06-.61,0-.23-.06-2.21-.06-2.47,0-.17.03-1.08.03-1.28,0-.26-.06-1.66-.06-1.98,0-.11.03-.67.03-.78,0-.15-.06-.73-.06-.84,0-.55.26-.93.79-.93.06,0,.2,0,.38.03.14.03.29.03.35.03l.49-.03c.09,0,.35-.03.58-.03.12,0,.29.03.38.03.38-.09,1.02-.11,1.08-.11.49,0,.53.06.7.29.17.21.29.35.29.64,0,.15-.03.29-.06.44,0,.15-.03,1.42-.03,1.6,0,.15.06.9.06,1.07,0,.23-.03,1.43-.03,1.69,0,.12,0,.23.06.58.03.2.09.49.44.49.14,0,.29-.12.41-.2.81-.73,1.02-1.05,2.15-2.65.26-.35.52-.7.78-1.08.12-.18.2-.35.35-.52.14-.23.96-1.34,1.13-1.57.09-.12.17-.26.29-.35.09-.09.64-.46,1.22-.46.12,0,.58.09.7.09.15,0,.9-.09,1.05-.09.17,0,.93.06,1.1.06.06,0,.41-.03.5-.03.23,0,.78,0,.78.67,0,.18-.09.55-.49,1.05-.14.2-.35.41-.49.61-.2.23-1.05,1.48-1.25,1.74-.32.43-.73.81-1.05,1.25-.12.2-.26.38-.41.55-.15.2-.17.26-.47.7-.17.32-.44.55-.64.84-.15.2-.26.41-.41.61-.29.44-.44.64-.44,1.25,0,.29.09.55.24.87.09.2.61,1.22.73,1.45.06.17.12.35.17.52.15.29.35.55.53.84.32.5.55,1.05.81,1.57.26.46.58.93.81,1.42.32.64.35.7.64,1.16.12.23.67,1.39.81,1.63.44.7.49.84.49,1.13,0,.12,0,.23-.06.35-.12.23-.29.32-.55.32-.12,0-.73-.06-.87-.06-.18,0-1.11.06-1.31.06-.14,0-.84-.06-1.02-.06-.11,0-.78.09-.93.09-.23,0-.44-.09-.55-.23-.17-.14-.72-1.28-.84-1.54-.06-.12-.29-.76-.38-.9-.06-.09-.15-.17-.2-.29-.06-.09-.09-.18-.12-.26-.06-.09-.12-.14-.15-.23-.09-.15-.14-.32-.2-.47-.15-.35-.35-.67-.52-1.02-.09-.14-.61-.96-.7-1.16-.14-.23-.23-.5-.38-.73-.29-.49-.67-.93-1.05-.93-.58,0-.73.64-.75,1.08,0,.09.03.52.03.61,0,.14-.09.93-.09,1.1s.06.96.06,1.16c0,.09-.03.52-.03.64,0,.03.06,1.31.09,1.42,0,.12.06.41.06.47,0,.46-.35,1.08-.79,1.13-.12.03-.35.03-.52.06-.06,0-.44-.03-.52-.03-.15,0-.87.06-1.02.06-.12,0-.64-.06-.76-.06s-.55.09-.67.09c-.17,0-.32-.06-.38-.09-.12-.08-.41-.43-.41-.67,0-.09,0-.18.03-.26,0-.03.09-1.51.09-1.6,0-.38-.09-2.12-.06-2.53v-1.54Z"/>
      <path class="cls-1" d="m26.11,21.85c-.2,0-.35.03-.9.14-.67.14-.93.2-1.19.49-.17.2-.64,1.13-.7,1.8,0,.29-.03.32-.29.58-.23.23-.26.26-1.02.26-.2,0-1.16-.03-1.4-.03-.12,0-.73.06-.87.06s-.87-.11-.9-.14c-.2-.12-.47-.5-.47-.87,0-.2.03-.47.12-.7.06-.15.12-.29.14-.44.06-.17.06-.38.09-.55.03-.23.06-.41.09-.61.03-.18.23-.9.26-1.07.09-.44.09-.87.15-1.28.06-.29.32-1.48.4-1.8.06-.23.15-.49.21-.73.09-.44.12-.87.21-1.28.03-.17.41-1.95.52-2.18.06-.18.17-.35.2-.55.03-.12.03-.26.06-.38.03-.2.38-2.12.46-2.39.03-.12.06-.26.09-.38.03-.18.06-.32.12-.49.06-.23.17-.46.23-.7.09-.23.11-.46.14-.73.32-2.21.78-3.17,2.41-3.17.12,0,.41,0,.73.03.78.06,1.77,0,2.97-.06.76-.12,1.6.09,2.15.49.49.38.67.7.87,1.51.12.38.2.78.32,1.19.09.32.23.64.32.96l.23,1.1c.03.18.03.35.09.52.03.14.09.29.15.44.06.2.29.96.41,1.57.09.55.09.61.21,1.02.12.35.35,1.28.38,1.45.03.29.03.58.09.84.06.18.15.35.2.53.03.17.23.9.26,1.07.06.29.06.61.12.9.06.2.14.38.21.58.09.32.29,1.1.32,1.4.03.32.03.38.12.58.14.38.35,1.16.44,1.63.06.23.09.44.15.64.06.2.17.38.2.55.03.12.09.79.09.84,0,.55-.7.55-1.25.55-.23,0-1.34.09-1.6.09-1.77,0-2.01-.17-2.39-1.22-.09-.26-.12-.52-.23-.76-.06-.12-.12-.23-.17-.35-.18-.41-.29-.58-.81-.81-.29-.12-1.45-.17-1.77-.17h-.93Zm-.93-7.39c-.03.2-.09.41-.14.61-.09.32-.18.64-.18.99,0,.99.73,1.4,1.83,1.4.29,0,.9-.06,1.34-.14.29-.06.61-.15.61-.73,0-.12,0-.23-.03-.35-.09-.84-.12-1.11-.35-1.83-.09-.29-.21-.58-.26-.9-.09-.29-.12-.64-.17-.93-.06-.2-.15-.38-.2-.58-.09-.23-.23-.82-.29-1.05-.18-.64-.55-.64-.67-.64-.2,0-.38.15-.49.32-.23.32-.61,1.77-.64,1.86-.03.23-.06.47-.09.7-.06.23-.12.44-.14.67-.06.2-.09.41-.12.61"/>
      <path class="cls-1" d="m76.75,6.71c0-.12-.09-.73-.09-.87,0-.23,0-.49.06-.67.06-.2.26-.47.58-.47.09,0,.49.09.61.09h.17c.09-.03.17-.03.26-.03h.44l.06.03h.17s.18,0,.32-.03h.38c.17,0,.76.03.93.09.09.03.15.06.23.09.18.06.38,0,.55.06.17.06.49.35.52.38.26.29,1.6,2.44,1.74,2.67.09.09.18.2.23.29.11.17.2.35.32.49.58.93.64,1.02.81,1.4.18.38.52.87.81,1.25.55.81,1.05,1.69,1.48,2.56.06.15.46.84.55,1.02.15.23.38.61.47.61.29,0,.26-.7.26-1.25,0-.12.03-.67.03-.78,0-.2-.03-.38-.03-.55,0-.15.06-.76.06-.9s-.09-.9-.09-1.08.09-1.02.09-1.22-.09-1.22-.09-1.42c-.03-.32,0-1.77,0-2.12,0-.09-.06-.64-.06-.79,0-.44.32-.64.46-.7.09-.03.2-.03.79-.03h.76c.09,0,.29,0,.52.03.2,0,.44.03.52.03.2,0,.38-.03.58-.03.06,0,.44-.06.52-.06.29,0,.76.29.76,1.08,0,.2-.09,1.11-.09,1.34,0,.18.03,1.16.03,1.37,0,.26-.03,1.57-.03,1.86v.96c0,.29,0,.58-.03.87,0,.23-.09,1.4-.09,1.66,0,.2.06,1.25.06,1.48.03.61,0,1.6,0,2.24,0,.73.03,1.92.03,2.68,0,.14-.03.29-.03.41-.03.2-.06.38-.06.55,0,.12.03.67.03.79,0,.29.18,1.77.18,2.09,0,.29,0,.99-1.07.99-.15,0-.32,0-.47-.03-.09,0-.46.03-.55.03-.15,0-.87-.06-1.02-.06-.12,0-.58.06-.7.06-.67,0-1.02-.61-1.34-1.25-.26-.52-.29-.52-.64-1.05-.35-.47-.67-.99-.93-1.48-.55-1.02-1.02-1.75-1.05-1.8-.12-.2-.26-.38-.41-.55-.11-.2-.23-.41-.38-.61-.18-.26-.38-.55-.58-.81-.12-.2-.23-.41-.35-.61-.2-.32-.44-.67-.61-.99-.23-.38-.41-.79-.61-1.16-.09-.15-.18-.29-.29-.41-.12-.09-.35-.26-.49-.26-.03,0-.32,0-.38.55-.03.2-.09,1.28-.09,1.51,0,.12.03.67.03.81,0,.09-.03.61-.03.73v.67c0,.09-.03.58-.03.7,0,.06,0,.26.03.46.03.2.03.93.03,1.22,0,.12.06.81.06.96.03.14,0,.84,0,1.02,0,.09,0,.2.03.29,0,.14.11.81.11.96,0,.47-.61.9-.76.93-.09.03-.46,0-.55,0-.12,0-.73.12-.87.12-.06.03-.55.03-.64.03-.14,0-.87.06-1.02.06-.47,0-.7-.14-.79-.2-.38-.26-.35-.49-.35-.73.03-.23,0-1.28,0-1.54,0-.23.06-1.39.06-1.66,0-.12-.03-.7-.03-.84v-.73c0-.17.06-1.16.06-1.37,0-.09-.06-.7-.06-.82-.03-.26-.03-.52-.03-.76,0-.76.03-1.54.06-2.27.06-.61.06-.64.06-.81,0-.55-.09-1.11-.11-1.63,0-.26.03-1.54.03-1.83,0-.26-.06-1.48-.06-1.78,0-.09.03-.55.03-.64s-.03-.41-.03-.49v-.38Z"/>
      <path class="cls-1" d="m55.87,7.22c0-.14.03-.2.2-.61.15-.32.26-.61.81-.61.17,0,.35.06.52.09.2.03.41.03.61.03.09,0,.29-.03.52-.03.2-.03.44-.03.52-.03.14,0,1.37.09,1.48.12.32.14.49.41.49.73,0,.15-.03.29-.06.44-.03.26-.06,1.2-.06,1.43,0,.26.06,1.54.06,1.8,0,.2-.06,1.19-.06,1.42,0,.12.03.7.03.84s-.09.93-.09,1.14c0,.26.06,1.54.06,1.83,0,.09-.03-.03-.03.06,0,.03.06.49.09.73,0,.15,0,.29.03.44.03.46.29,1.95.41,2.18.23.44.67.9,1.08,1.1.64.35,1.71.47,2.12.47.38,0,.76-.06,1.16-.17.55-.15.96-.29,1.48-.96.55-.78.55-.93.58-1.63,0-.21.09-1.22.09-1.45,0-.12-.03-.24-.03-.35v-.76c0-.09.06-.47.06-.55,0-.14-.06-.76-.06-.9,0-.35.03-.84.06-1.16.03-.2.12-1.08.12-1.22s-.14-1.86-.14-2.06c0-.26.06-.62.06-.94,0-.15-.03-.96-.03-1.16,0-.55.12-.84.26-1.05.15-.26.26-.35.96-.35h.52s.03.03.03.03h.26c.26,0,1.6-.09,1.89-.09.41,0,.58.12.76.32.12.21.35.58.38.99v1.02c0,.12-.03.7-.03.81v-.46s.03.99.03,1.07-.06.55-.06.67.03.67.03.79c0,.17-.09,1.08-.09,1.25,0,.14,0,.2.03.55.03.41.06.79.06,1.19,0,.55-.03,1.8-.06,2.36,0,.14-.06.81-.06.96,0,.06.03.47.03.55,0,.03-.03,1.05-.03,1.19,0,.12-.23,1.6-.23,1.6-.12.55-.32.9-.7,1.48-.44.7-.46.73-1.08,1.16-.76.58-.84.64-1.69,1.02-.61.32-.7.32-1.45.49-.73.18-1.19.26-2.36.26-.2.03-1.16,0-1.37,0-1.22,0-3.49-.41-3.92-.55-.26-.12-.53-.26-.81-.41-1.11-.55-1.25-.73-1.6-1.16-.44-.49-.49-.52-.73-.99-.29-.49-.44-.73-.55-1.16-.09-.32-.14-.7-.23-1.05-.14-.67-.26-1.37-.29-2.06,0-.15.03-.9.03-1.05,0-.32-.03-.61-.03-.93,0-.09.03-.06.03-.15s-.03-.53-.03-.64.03-.73.03-.84c0-.32-.03-.67-.03-.99,0-.26.03-.52.03-.82v-.99c0-.14.03-.84.03-.99,0-.2-.09-1.11-.09-1.34s.03-.5.03-.76v-1.19Z"/>
      <path class="cls-1" d="m63.17,2.29c0,.2-.03.55-.03.76,0,.14-.03.38-.26.52-.14.09-.23.09-1.02.06-.03,0-1.13.03-1.22.03-.15,0-.9-.03-1.08-.03-.11,0-.7.09-.81.09-.14,0-.55-.12-.55-.61v-1.77c0-.09-.03-.29-.03-.4,0-.79.76-.9.84-.9s.49.06.58.06c.12,0,.76-.06.87-.06h.5c.06,0,.46.06.55.06.11,0,.26-.03.38-.03.15-.03.35-.03.76-.03.5,0,.5.29.5.99,0,.09.03.17.03.26s-.03.29-.03.38c0,.21.03.41.03.61v.03Z"/>
      <path class="cls-1" d="m66.25,0c.12,0,.64.06.76.06h1.31c.15,0,.81.03.96.03.09,0,.5-.03.61-.03.26,0,.38.09.44.12,0,0,.26.23.32.35v1.19c0,.14-.06.64-.06.81,0,.06.03.35.03.41,0,.61-.26.76-.58.76-.18,0-.35-.06-.49-.06-.06,0-.38.06-.44.06s-.12-.03-.18-.03c-.43,0-2-.03-2.53-.03s-.64-.18-.67-.47v-.81c0-.15-.06-.73-.06-.9,0-.09.06-.23.06-.35,0-.06-.06-.41-.06-.49,0-.38.32-.58.58-.61"/>
      <path class="cls-1" d="m24.42,35.42c-.05-.07-.11-.12-.18-.15-.06-.03-.13-.05-.23-.06-.03,0-.05,0-.09,0-.01,0-.03,0-.05,0-.09,0-.17.04-.24.1-.06.07-.1.14-.13.21-.02.07-.04.14-.05.22,0,.06,0,.12,0,.17,0,.06.03.11.06.16.04.07.09.13.14.19.07.07.13.08.17.08h0l.18.03h.08c.11,0,.21-.05.27-.13.05-.05.08-.11.12-.18.03-.07.05-.13.06-.2.02-.09.01-.17-.01-.25-.02-.08-.06-.15-.1-.21"/>
      <path class="cls-1" d="m13.39,30.74s-.09,0-.14,0c-.1,0-.2,0-.3.01h-.09s-.06,0-.09,0c-.03,0-.07,0-.09.01-.06,0-.13,0-.19,0h-.06s-.08,0-.13,0h0c-.1,0-.21,0-.3,0-.2,0-.37,0-.6-.03-.02,0-.03,0-.05,0-.15,0-.21.08-.25.14,0,.02-.02.03-.02.04v.02s-.03.07-.02.1c0,.02,0,.04,0,.06,0,.03,0,.06,0,.08v.48c0,.1,0,.19,0,.27,0,.09,0,.19,0,.29.02.13.03.27.02.41,0,.14,0,.27,0,.41,0,.13,0,.26,0,.39,0,.1,0,.19,0,.27,0,.09,0,.18,0,.27v.37c0,.12,0,.24-.01.37,0,.14,0,.27.01.38,0,.11.01.24,0,.37,0,0,0,.01,0,.02,0,.02,0,.03,0,.05,0,.04,0,.07,0,.1,0,.04,0,.06,0,.08,0,.06,0,.11,0,.16,0,.03,0,.07,0,.13,0,.02,0,.03,0,.05v.02s0,0,0,0c0,.02,0,.04,0,.05,0,.04-.01.07-.02.1-.01.06.01.12.08.15.08.03.14.05.2.05.04,0,.09,0,.14,0l.13-.02c.2-.03.39-.04.58-.05.09-.01.17-.02.24-.02h.69c.07-.01.15-.02.21-.03,0,0,.02,0,.1-.02.08-.02.13-.09.13-.17,0-.02,0-.04,0-.06v-.03c.01-.07.02-.14.02-.21,0-.07,0-.15-.04-.24v-.03c-.01-.07-.03-.11-.05-.14-.03-.04-.09-.04-.15-.04h-.02c-.12,0-.24.02-.36.02h-.11c-.06,0-.12.01-.17.01v-.03l-.4.05c-.06,0-.12-.01-.16-.03-.06-.03-.08-.06-.08-.11,0-.03,0-.05,0-.08,0-.01,0-.03,0-.06,0-.1,0-.2,0-.31,0-.1,0-.2,0-.3v-.2s.03-.07.03-.1c0-.03,0-.06.02-.08.04-.11.11-.16.21-.16.12,0,.24.01.37,0,.11,0,.21,0,.34.02h.04c.17,0,.27-.1.28-.27v-.11s0-.07,0-.11c0-.04,0-.1,0-.15,0-.05-.02-.1-.03-.14-.03-.11-.11-.17-.23-.17-.06,0-.09,0-.09,0-.03,0-.06.02-.09.02h-.1c-.06,0-.12,0-.17,0-.06,0-.13,0-.19,0l-.19-.03c-.08-.01-.12-.05-.14-.13-.01-.04-.02-.09-.02-.14,0-.04,0-.08,0-.11v-.27s0-.09.01-.12l.02-.09s0-.06,0-.11c0-.05,0-.09.02-.13.02-.05.05-.1.07-.14.04-.05.09-.07.15-.07.09,0,.18,0,.25-.01.08,0,.15,0,.24,0,.1.02.21.03.31.03h0c.08,0,.16,0,.25,0,.14,0,.22-.08.22-.22,0-.11.01-.2.03-.29v-.15s.02-.04.02-.07c0-.14-.01-.21-.06-.24-.02-.02-.06-.04-.19-.04"/>
      <path class="cls-1" d="m17.79,31.44c-.06-.13-.13-.24-.22-.35-.05-.05-.07-.06-.07-.06-.23-.17-.49-.26-.79-.27-.11,0-.23,0-.34.01-.11.01-.22.03-.33.04-.04.01-.09.02-.13.03-.05.01-.1.03-.15.05-.07.04-.14.09-.21.13-.07.04-.14.1-.2.16-.02.02-.04.05-.06.07-.02.02-.05.05-.08.08-.04.07-.07.14-.09.21-.03.07-.05.13-.07.2v.02s-.02.05-.02.06v.03s-.02.04-.02.06v.02h0c0,.06,0,.12-.02.18,0,.08,0,.15.02.22l.07-.02-.07.04c0,.09,0,.17.03.25.02.07.05.13.09.22.12.22.26.42.4.59.05.06.11.13.16.19.06.06.11.13.17.19.06.06.12.12.19.19.07.07.13.13.18.19.04.05.09.1.14.14.05.04.1.09.14.14.04.04.08.09.11.13.03.06.07.12.1.18.04.09.06.18.06.27,0,.15-.06.24-.21.29-.07.02-.15.02-.26.01-.07,0-.1-.03-.12-.05-.03-.03-.06-.08-.09-.13-.07-.1-.09-.2-.08-.31,0-.05,0-.09,0-.13,0-.04,0-.08,0-.12s0-.07,0-.1c0-.04-.03-.09-.07-.12l-.02-.02-.21-.03-.49-.02c-.07,0-.14,0-.17.04-.04.04-.06.1-.07.15,0,.02-.01.05,0,.07,0,.01,0,.02,0,.04,0,.02,0,.05,0,.08,0,.02,0,.03,0,.05,0,.01,0,.02,0,.03l.02.19c0,.07.01.13.02.2,0,.08.03.16.05.25.02.08.05.15.08.23.06.12.12.22.19.29.06.06.12.11.19.17.08.06.15.1.23.13.11.05.22.08.31.1.1.03.2.04.33.04.2,0,.39-.04.59-.1.02,0,.05-.02.07-.02.04-.01.07-.02.09-.04.04-.01.07-.03.11-.05.04-.02.08-.04.1-.07.06-.04.12-.09.17-.15.11-.12.19-.27.25-.46.04-.1.06-.21.08-.32.01-.1.01-.21.01-.32l-.02-.14c0-.05-.02-.1-.04-.16-.05-.12-.13-.24-.23-.36l-.73-.78h-.01c-.09-.09-.18-.18-.26-.27-.09-.09-.17-.19-.26-.3-.14-.17-.21-.37-.2-.6,0-.08.02-.15.05-.21.02-.05.07-.09.14-.12.03,0,.05-.02.05-.02.05-.03.12-.04.19-.04.08,0,.13.03.18.07.06.04.09.1.1.17l.06.49s0,.04,0,.05c0,.02,0,.04.02.06.03.07.09.11.17.11s.17,0,.25,0c.08,0,.16,0,.24,0h.02c.17,0,.26-.09.28-.27v-.09s0-.05,0-.08c.01-.08.01-.17.01-.26,0-.08-.01-.16-.02-.25-.01-.14-.05-.27-.1-.4"/>
      <path class="cls-1" d="m22.54,31c0-.05-.03-.09-.07-.13l-.1-.06h-.03c-.06.01-.11.02-.17.02-.06,0-.12,0-.19.01h-.11c-.07,0-.14.01-.21.02-.19,0-.38.01-.58,0-.18,0-.35,0-.53,0-.11,0-.2,0-.28.02h-.06s-.03,0-.07,0c-.05,0-.09,0-.14,0-.04,0-.09,0-.14-.01h-.03c-.07,0-.16.02-.27.06l-.05.02v.05s0,.08,0,.12c0,.04,0,.06,0,.09-.01.08-.01.17,0,.25.01.07.02.15.02.22,0,.13.08.22.23.23h.37s.08,0,.13.02c.05.02.1.05.13.06,0,0,0,.01.01.02h.01s.02.04.02.04c.02.04.04.07.05.11.01.04.02.07.02.11v.41c0,.13,0,.27-.02.41,0,.07,0,.14,0,.22,0,.06-.01.13-.03.22v.9c0,.09,0,.18,0,.25v.11c-.01.05-.01.1-.02.16,0,.05,0,.1,0,.15,0,.05,0,.1,0,.14v.25c0,.1,0,.19,0,.28,0,.09,0,.19,0,.29,0,.05.01.12.04.22v.04s.05,0,.05,0c.05.01.09.02.13.03.04.02.09.02.14.02.09,0,.18,0,.25-.01.08,0,.15-.01.21-.02.09,0,.16-.05.17-.14,0-.03,0-.07,0-.1,0-.03,0-.05,0-.08v-.25l.03-.62s0-.06,0-.08c0-.04,0-.08,0-.12-.01-.06-.02-.13,0-.22,0-.04,0-.08,0-.12v-.42c0-.11,0-.21,0-.32,0-.07,0-.14,0-.22,0-.07,0-.15,0-.22s0-.14,0-.22c0-.08,0-.16,0-.23l.02-.77s0-.07.01-.11c0-.02,0-.05,0-.08v-.04c.02-.08.06-.12.13-.14.08-.02.16-.02.21-.02.08.01.16.01.23,0,.06-.01.13-.02.2-.03.08,0,.15-.04.2-.09l.02-.02v-.05c.01-.06.02-.11.03-.16,0-.06.01-.12.02-.16.01-.03.01-.08,0-.1,0-.03,0-.07,0-.1,0-.03,0-.08-.01-.11"/>
      <path class="cls-1" d="m42.98,33.27h0s-.04,0-.06.01c-.04.01-.07.01-.08,0-.03-.02-.05-.05-.08-.08-.01-.01-.02-.03-.03-.06-.01-.06-.02-.13-.02-.19,0-.07,0-.13-.02-.18,0-.14,0-.26,0-.35,0-.12.02-.22.04-.3,0-.02.01-.05.01-.06.01-.03.01-.06.01-.08,0-.04.01-.07.03-.09.03-.03.06-.07.1-.1h.02s.02,0,.03-.01c.06,0,.11.02.15.04.08.05.14.11.18.18.04.08.07.16.08.26.02.08.02.14.02.2,0,.12,0,.22-.01.32-.01.1-.05.2-.1.3-.03.06-.07.1-.11.13-.04.03-.1.05-.16.06m.24.58h0s0,0,0,0h0Zm1.1-1.73s-.01-.08-.02-.12c-.03-.2-.08-.4-.17-.63-.05-.1-.11-.19-.18-.27-.05-.06-.11-.1-.19-.13-.08-.02-.16-.05-.24-.08-.09-.03-.18-.05-.26-.06l-.22-.03c-.08-.01-.16-.01-.23,0h-.02c-.24-.01-.5-.01-.76-.02h-.05s-.09.03-.13.06c-.04.03-.08.08-.09.13-.07.19-.09.4-.08.63v1.13c0,.06,0,.12,0,.17,0,.05,0,.1,0,.16,0,.04,0,.08,0,.13,0,.05,0,.1,0,.15,0,.36,0,.69-.03,1.03,0,.04,0,.08,0,.11v.12c0,.09,0,.19,0,.28,0,.1,0,.19,0,.28.01.11.01.23,0,.36,0,.13-.01.25-.02.36,0,.06,0,.12,0,.17,0,.05,0,.1,0,.16l.02.07c.02.08.07.12.15.12.02,0,.04,0,.06,0,.01,0,.03,0,.04,0l.47.02c.14,0,.23-.08.25-.21,0-.05,0-.1,0-.15,0-.06-.01-.11-.01-.16s0-.11,0-.17c0-.11,0-.22,0-.33,0-.1,0-.21.01-.31v-.02c0-.06,0-.11,0-.16,0-.05,0-.11,0-.17,0-.08,0-.15,0-.22,0-.06,0-.13,0-.21,0-.02,0-.03,0-.06,0,0,0,0,0,0,0,0,0,0,.01,0,0,0,0,0,.02,0h.15s.07,0,.1,0h.04c.07,0,.15,0,.26-.02.06-.02.12-.02.18-.03.04,0,.07-.01.1-.02.05,0,.09-.02.12-.03.13-.05.24-.13.33-.22.09-.09.17-.2.23-.32.06-.13.1-.27.12-.41.01-.12.03-.24.04-.36,0-.1,0-.22,0-.35,0-.09,0-.17-.02-.25,0-.04-.01-.08-.02-.11"/>
      <path class="cls-1" d="m47.53,34.47h-.02c-.07.01-.13.01-.2.02-.06,0-.13,0-.19,0h0s-.07,0-.11-.03c-.06-.02-.08-.05-.07-.11,0-.07.02-.13.03-.19v-.03c.02-.05.04-.1.05-.16.01-.06.02-.12.04-.18l.05-.18s.02-.05.02-.08c0-.01,0-.03.02-.06l.06-.19.11-.29s0-.02,0-.02c0,0,0,0,.02.01.02.02.03.05.03.07.03.13.06.25.09.38l.02.07c.04.15.07.3.1.45v.03s.02.08.02.12v.03s.01.07.02.1v.06s0,.07,0,.08c-.02.03-.05.06-.09.09m1.35.9c-.04-.14-.08-.29-.12-.47-.02-.1-.04-.19-.06-.29-.02-.11-.04-.21-.06-.31,0-.03-.02-.07-.02-.1,0-.03-.01-.07-.02-.12v-.04c-.02-.09-.04-.19-.06-.28-.02-.11-.04-.21-.07-.32-.03-.13-.06-.25-.09-.38-.03-.13-.05-.26-.09-.38-.02-.11-.06-.22-.1-.33v-.05s-.03-.04-.03-.06c0-.04-.02-.07-.02-.11l-.02-.13c-.03-.13-.06-.26-.09-.39-.03-.13-.06-.26-.09-.39l-.07-.24-.02-.04s-.01-.02-.03-.04l-.02-.02s-.06-.04-.09-.06c-.04-.02-.08-.03-.13-.04-.09,0-.18,0-.27,0-.09,0-.17.02-.26.03h-.03s-.05.02-.08.03c-.04.02-.07.04-.08.08-.01.02-.02.04-.03.07,0,0,0,.02,0,.04,0,.03-.01.06-.02.09,0,.02,0,.04-.01.06,0,.04-.01.09-.03.14-.03.12-.05.25-.09.38v.04c-.03.09-.06.18-.09.28-.02.08-.05.17-.08.25l-.02.06c-.02.08-.05.15-.08.23-.03.08-.06.17-.07.27l-.19.77s-.02.08-.03.12c0,.02,0,.04-.01.06v.05c-.04.12-.06.23-.08.32-.02.1-.04.19-.08.29-.02.03-.02.06-.02.09,0,.02,0,.02,0,.03v.06s-.02.07-.03.11c0,.05-.02.1-.04.16l-.29.89c-.02.07-.05.14-.09.23-.02.06-.03.14-.03.24v.03s.07.05.07.05c.03.02.04.03.04.03.03.02.06.03.12.04.09,0,.19,0,.29,0s.2,0,.3-.02c.07,0,.13-.03.17-.1.02-.04.04-.08.06-.12.02-.04.04-.1.05-.14.01-.07.03-.13.05-.19.02-.06.04-.13.06-.2.02-.1.09-.15.19-.18.13-.03.24-.04.36-.04.12,0,.25,0,.36,0,.07,0,.14.03.2.08.08.07.12.12.15.16.02.04.05.11.07.2v.04s.02.07.03.1c0,.03.01.07.02.11.04.16.15.26.31.28.03,0,.06,0,.1.01.04,0,.08,0,.12,0,.04,0,.08-.01.12-.01.06,0,.14,0,.2.01.04,0,.08,0,.12,0,.08,0,.12-.04.14-.07.03-.04.04-.1.02-.16l-.15-.33c-.06-.17-.11-.32-.15-.45"/>
      <path class="cls-1" d="m53.47,31s-.03-.09-.07-.13l-.1-.06h-.03c-.06.01-.11.02-.17.02-.06,0-.13,0-.19.01h-.12c-.07,0-.14.01-.21.02-.18,0-.38.01-.58,0-.17,0-.36,0-.53,0-.11,0-.2,0-.28.02h-.07s-.03,0-.07,0c-.05,0-.09,0-.14,0-.04,0-.09,0-.14-.01h-.03c-.07,0-.16.02-.27.06l-.05.02v.05s0,.08,0,.12c0,.04,0,.06,0,.09-.01.08-.01.17,0,.25.01.07.02.14.02.22,0,.13.08.22.23.23h.37s.08,0,.13.02c.04.02.09.04.13.07,0,0,.01.01.02.02l.05-.05-.04.06v.02s.05.08.06.11c0,.03.02.07.02.11v.41c0,.16,0,.29-.02.41,0,.07,0,.14,0,.22,0,.06,0,.13-.03.22v.9c0,.07,0,.14,0,.2v.08c0,.08-.01.15-.02.24,0,.05,0,.1,0,.15,0,.05,0,.1,0,.14v.25c0,.1,0,.19,0,.28,0,.09,0,.19,0,.29,0,.06.01.13.04.23v.04s.05,0,.05,0c.04.01.09.02.13.03.04.02.09.02.14.02.09,0,.17,0,.25-.01.07,0,.15-.01.21-.02.1,0,.16-.05.17-.14,0-.03,0-.07,0-.1,0-.03,0-.05,0-.08v-.25l.03-.62s0-.06,0-.08c0-.04,0-.08,0-.12-.01-.06-.02-.13,0-.22,0-.04,0-.08,0-.12v-.42c0-.11,0-.21,0-.32,0-.07,0-.14,0-.22,0-.07,0-.15,0-.22s0-.15,0-.22c0-.08,0-.16,0-.23l.02-.77s0-.08,0-.11c0-.02,0-.04,0-.06v-.05c.02-.08.06-.12.13-.14.08-.02.15-.02.21-.02.08.01.16.01.23,0l.2-.03c.08,0,.15-.04.2-.09l.02-.02v-.02c.01-.07.02-.13.03-.19,0-.06.01-.12.02-.17,0-.04,0-.08,0-.1,0-.04,0-.07,0-.1,0-.03,0-.07-.01-.11"/>
      <path class="cls-1" d="m56.82,34.48c-.07,0-.13,0-.2.01-.06,0-.13,0-.19,0h0s-.07,0-.11-.03c-.06-.02-.08-.05-.07-.11,0-.06.02-.12.03-.18.02-.06.03-.13.05-.19.01-.07.03-.12.04-.18l.05-.18s.02-.05.02-.08c0-.01,0-.03.02-.06l.06-.19.11-.28s0-.02,0-.02c0,0,0,0,.02.01.02.03.03.05.03.07.03.13.06.25.09.38l.02.07c.04.15.07.3.1.45.01.05.02.1.02.15,0,.04.01.09.01.14v.06s0,.07,0,.08c-.03.03-.05.06-.09.09h-.02Zm1.38.9c-.04-.13-.07-.28-.12-.45v-.02c-.03-.1-.05-.19-.06-.29-.01-.11-.03-.21-.06-.31,0-.03-.02-.07-.02-.1,0-.03-.01-.07-.02-.12v-.04c-.02-.09-.04-.19-.06-.28-.02-.11-.04-.21-.07-.32-.03-.13-.06-.25-.09-.38-.03-.13-.06-.25-.09-.38-.02-.11-.05-.22-.09-.32l-.03-.11s-.02-.07-.02-.11l-.02-.13c-.03-.13-.06-.26-.09-.39-.03-.13-.06-.26-.09-.39l-.06-.24v-.03s-.03-.03-.04-.05l-.02-.02s-.07-.04-.09-.06c-.04-.02-.08-.03-.13-.04-.09,0-.19,0-.28,0h-.05c-.07.01-.14.02-.21.03h-.03s-.05.02-.08.03c-.02,0-.06.03-.08.07-.01.02-.02.04-.03.07,0,0,0,.02,0,.04,0,.03-.01.06-.02.09,0,.02,0,.04-.01.06,0,.04-.01.09-.02.13-.03.12-.06.25-.1.39-.03.1-.05.21-.09.31-.02.06-.03.11-.05.17l-.05.16c-.02.07-.05.14-.08.21-.04.08-.06.17-.07.27l-.19.77s-.02.08-.03.12c0,.04-.02.08-.03.11-.03.11-.05.21-.07.32-.02.09-.04.19-.08.29-.01.02-.02.05-.02.09,0,.02,0,.02,0,.03v.06s-.02.07-.03.11c0,.05-.02.1-.04.16l-.21.65c-.02.08-.05.16-.08.24-.02.06-.05.14-.09.23-.03.06-.03.14-.03.24v.03s.07.05.07.05c.03.02.04.03.04.03.03.02.06.03.12.04.09,0,.19,0,.29,0,.11,0,.21,0,.3-.02.07,0,.13-.03.17-.1.02-.04.04-.08.06-.12.02-.04.03-.09.05-.14.01-.07.03-.13.05-.19.01-.06.03-.13.06-.2.02-.1.08-.15.19-.18.13-.03.24-.04.36-.04.12,0,.25,0,.36,0,.07,0,.14.03.2.08.08.07.12.12.15.16.02.04.05.11.07.21v.02s0,0,0,0h0v.02s.02.07.02.1c0,.03.01.07.02.11.04.16.15.25.32.28.03,0,.06,0,.09.01.04,0,.08,0,.12,0,.04,0,.08-.01.12-.01.07,0,.13,0,.2.01.04,0,.08,0,.12,0,.08,0,.12-.04.14-.07.03-.04.04-.1.02-.16l-.15-.33c-.07-.17-.11-.32-.14-.45"/>
      <path class="cls-1" d="m60.87,33.05h0s0,0,0,0m.57-1.79h0s.01-.01.01-.01h0s0,.01,0,.01m-.12,1.53c.01-.07.03-.14.06-.21.03-.07.06-.14.1-.2.04-.07.08-.14.12-.2.03-.05.07-.1.13-.13.04-.02.07-.05.08-.08.02-.02.03-.04.05-.06.04-.04.07-.07.12-.08.05-.02.11-.03.14-.04.04,0,.05,0,.05,0,.05.02.1.04.14.06.04.02.07.05.11.09.02.02.04.04.06.08.02.03.04.06.08.1.02.02.04.04.07.06.01.01.03.02.04.04l.05.05.1-.02s.06,0,.08-.02c.04,0,.06-.02.07-.03.07-.03.13-.08.19-.13.05-.04.1-.08.16-.13.01-.01.02-.03.04-.05,0,0,.01-.01.02-.02v-.02c.09-.17.01-.26-.04-.3-.03-.03-.05-.05-.07-.07-.02-.04-.05-.07-.07-.1-.03-.04-.06-.08-.09-.12-.03-.03-.07-.07-.12-.11-.02-.01-.03-.03-.04-.03-.02-.03-.06-.05-.07-.06-.07-.06-.14-.11-.22-.16-.08-.05-.17-.07-.27-.09-.03,0-.05,0-.08-.01-.03,0-.06-.01-.1-.01h-.01c-.05,0-.1,0-.16,0-.05,0-.12,0-.19.01-.11.02-.21.05-.3.09-.09.05-.18.1-.26.15-.04.03-.08.07-.12.11-.03.04-.06.07-.1.1-.09.09-.18.18-.27.29-.06.07-.11.15-.16.24-.05.08-.08.17-.11.27l-.07.26c-.05.16-.09.31-.12.48-.02.09-.03.17-.05.25-.02.08-.03.17-.04.25-.01.06-.02.12-.03.18,0,.06,0,.11-.02.17,0,.09,0,.18,0,.28,0,.1.01.19.02.28.01.13.03.25.05.37.02.14.05.27.09.39.03.09.06.17.09.25l.04.1c.04.12.1.23.18.34.15.22.35.4.59.53.14.08.29.13.45.17.09.02.18.03.29.04h.05c.09,0,.17,0,.24-.03.06-.01.13-.02.2-.04.06-.01.13-.03.19-.05.04-.01.08-.03.12-.05.03-.02.07-.03.12-.05l.17-.09c.2-.09.3-.25.3-.48v-.09s0-.06-.01-.09v-.05s-.01-.09-.01-.14c0-.08,0-.16,0-.25,0-.08,0-.16.01-.25l.02-.56s0-.05,0-.08c0,0,0-.02.01-.03.05-.12.01-.22-.11-.29-.05-.03-.11-.05-.16-.05-.03,0-.07,0-.09,0-.02,0-.03,0-.04,0-.15-.03-.29-.02-.44.03-.06.02-.1.07-.12.14,0,.04,0,.08-.02.12,0,.05-.01.09-.01.13,0,.08,0,.15,0,.23,0,.07,0,.13,0,.19,0,.05,0,.09,0,.13,0,.03,0,.07,0,.1,0,.04,0,.08,0,.12,0,.04,0,.08,0,.12,0,.06-.01.12-.05.18-.11.17-.25.21-.44.12-.08-.04-.17-.09-.25-.14-.07-.05-.12-.11-.16-.19-.03-.06-.05-.12-.08-.17-.03-.05-.04-.09-.05-.14v-.02c-.06-.1-.1-.21-.12-.32-.02-.12-.03-.24-.04-.37,0-.04,0-.08-.01-.12v-.05c0-.06-.01-.11-.01-.17,0-.14,0-.27.03-.42l.08-.42Z"/>
      <path class="cls-1" d="m66.29,33.89v-.02c.01-.09.02-.18.02-.27l.02-.28c.01-.1.02-.21.04-.31.02-.1.05-.2.09-.29.02-.04.04-.09.06-.16,0-.04.02-.08.04-.13.03-.08.07-.16.11-.23.06-.08.11-.15.16-.21.02-.03.05-.05.08-.07.04-.02.08-.03.12-.05.02-.01.04-.02.05-.02.02,0,.04,0,.06-.02.04.02.07.03.11.03.07.01.13.04.18.09.05.05.11.11.15.17.05.07.08.14.1.21.01.05.02.1.04.15l.02.1c.02.08.05.17.07.26.02.05.02.1.03.14,0,.05,0,.1,0,.15,0,.24,0,.48,0,.71h0s0,.07,0,.1l-.13.75c-.02.1-.06.2-.11.28l-.1.16c-.07.14-.18.24-.32.31,0,0-.02.01-.03.01,0,0,0,0-.03,0-.2.03-.33-.03-.45-.16-.07-.07-.12-.15-.16-.23-.01-.04-.03-.08-.05-.11-.02-.03-.03-.07-.04-.11-.01-.04-.02-.07-.03-.13l-.07-.29-.02-.13c0-.05-.02-.1-.02-.16-.01-.08-.01-.15,0-.24m2.5-.93l-.08-.57c-.02-.12-.06-.25-.11-.36-.03-.07-.07-.15-.1-.22-.03-.07-.07-.15-.11-.22-.03-.09-.09-.17-.15-.24-.05-.05-.1-.1-.15-.15-.05-.05-.1-.1-.17-.16-.05-.03-.1-.07-.15-.1-.05-.03-.1-.06-.16-.09-.09-.04-.18-.07-.27-.08-.1-.02-.19-.02-.3,0l-.14.02s-.04,0-.08,0h-.02c-.06,0-.11,0-.15.03-.16.06-.31.14-.45.24-.11.08-.22.18-.31.29l-.04.06s-.04.06-.07.09c-.04.06-.08.12-.09.19,0,0-.01.02-.02.03,0,.01-.01.02-.02.03-.02.02-.03.05-.05.1l-.19.65s-.01.04-.02.06v.05s-.03.06-.04.1l-.07.58c0,.05,0,.1-.02.14,0,.05,0,.1,0,.15,0,.07,0,.15,0,.23,0,.08,0,.15.01.23l.03.31c.03.3.1.59.19.88.03.07.06.15.1.24.04.08.09.16.15.22,0,.02.02.04.03.05.04.06.08.11.12.17.04.05.1.1.15.13l.06.06.1.07c.06.02.13.05.19.09.06.04.14.06.22.08.06.02.13.03.19.05.05.02.1.02.15.02.03,0,.05,0,.08,0,.05-.01.1-.02.17-.02.06,0,.13-.01.18-.02.06,0,.12-.03.17-.06l.17-.1s.06-.04.09-.05c.04-.02.08-.05.11-.08.08-.07.14-.13.19-.19.05-.06.11-.13.16-.2.03-.04.05-.08.08-.12.03-.04.05-.09.06-.13.04-.13.09-.25.14-.37.04-.09.07-.2.1-.3h0s0,0,0,0c0-.03.02-.07.02-.1,0-.05.02-.08.03-.12l.06-.35c0-.06,0-.13.01-.19,0-.06.01-.12.02-.19l.03-.4c0-.08,0-.15-.01-.23,0-.08-.01-.15-.02-.22"/>
      <path class="cls-1" d="m74.26,32.67c0-.06,0-.13,0-.2,0-.15,0-.29,0-.44,0-.14,0-.29.01-.43.01-.09.02-.19.02-.27,0-.08,0-.17-.01-.28l-.02-.12v-.02s-.07-.09-.13-.13c-.05-.02-.09-.03-.12-.03-.04,0-.08,0-.12,0h-.13c-.05,0-.09,0-.13,0,0,0-.02,0-.03,0h-.02s-.05,0-.08.01c-.07.01-.11.06-.11.12,0,.03-.01.06-.01.09,0,.03,0,.07,0,.1v.35c0,.11,0,.23,0,.36,0,.09,0,.18-.01.27,0,.09,0,.19,0,.3,0,.07,0,.14,0,.22v.24c0,.07,0,.15,0,.22,0,.07,0,.15,0,.23.01.08.01.16.01.25,0,.09,0,.18,0,.27,0,.05-.02.12-.05.2-.01.02-.02.03-.02.03,0,0,0,0-.03-.02-.05-.04-.1-.1-.13-.17-.03-.08-.06-.15-.11-.22-.04-.06-.07-.12-.09-.19l-.14-.42v.15l-.15-.27c-.06-.12-.12-.24-.17-.36-.06-.12-.11-.25-.18-.38-.03-.06-.06-.12-.09-.18-.03-.06-.06-.13-.09-.19l-.31-.68c-.03-.09-.07-.16-.13-.23-.07-.08-.14-.11-.22-.1-.04,0-.08,0-.11,0-.08,0-.15,0-.23-.02-.06-.02-.1-.01-.16,0-.03.01-.06.02-.09.03-.06.03-.1.07-.11.15v.57s0,.07,0,.1v.57c-.01.08-.01.15,0,.22,0,.07,0,.14,0,.21,0,.05,0,.11,0,.17v.18s-.01.52-.01.52c0,.06,0,.11,0,.16,0,.05,0,.1,0,.15v.34c0,.07,0,.13,0,.19,0,.06,0,.13,0,.19,0,.09,0,.18,0,.27v.08c0,.06,0,.11,0,.18s0,.12,0,.18c0,.06,0,.12,0,.17,0,.06,0,.12,0,.18,0,.05,0,.09-.02.14-.03.1-.04.2-.03.28,0,.09.02.18.04.27l.02.05h.05s.04.02.07.02c.02,0,.04,0,.07,0,.04,0,.09,0,.13.01.1,0,.2,0,.26,0,.04,0,.08,0,.13-.01.08-.01.14-.05.18-.1.04-.03.05-.07.04-.11,0,0,0-.02,0-.05v-.04c.02-.11.02-.23.02-.36l-.02-.34c0-.06,0-.11,0-.17,0-.06,0-.12,0-.17,0-.04.01-.09.01-.14v-.31s0-.04,0-.06c0-.02,0-.05,0-.09,0-.1,0-.2,0-.3v-.3c0-.09,0-.18,0-.26v-.29s.01-.04.02-.07c0,0,0-.01,0-.02l.04.02s.07.08.09.12c.03.04.04.07.06.12l.55,1.17.02.03s.01.03.02.04c.02.04.04.07.06.11.02.03.04.06.05.1.04.08.07.15.1.22.03.07.07.15.12.23.04.09.09.17.13.26l.07.13c.06.12.12.26.16.39.01.05.04.11.07.16.04.06.07.1.11.13l.02.02h.41c.05,0,.1,0,.15,0,.02,0,.04,0,.05,0,.04,0,.07,0,.11-.01h.02c.09-.04.14-.11.14-.2v-.09c0-.12,0-.24,0-.35,0-.11,0-.22,0-.35-.01-.14-.01-.27-.01-.43,0-.16,0-.3-.02-.43v-.29c0-.08,0-.16-.02-.24-.01-.07-.01-.15,0-.22.01-.09,0-.18,0-.24l.02-.69c0-.07,0-.13,0-.2"/>
      <path class="cls-1" d="m76.88,30.82c-.05,0-.11,0-.18,0-.07.01-.15.02-.28,0h-.02c-.08,0-.12.01-.16.03-.04.02-.08.07-.1.15,0,.03-.02.08-.02.14l-.02.44c0,.12,0,.23,0,.35,0,.12,0,.24.02.35h0s0,0,0,0c-.01.03-.01.05-.01.07,0,.09,0,.17,0,.27v.27s-.01.58-.01.58v.07s-.02,1.2-.02,1.2v1.21s0,.06,0,.11c0,0,0,.02,0,.04,0,.02,0,.04,0,.06-.02.1.03.17.12.2.06.02.11.03.17.03.07,0,.14,0,.21,0,.13-.01.28,0,.36-.06.03-.03.06-.06.09-.12,0-.02.02-.06.02-.09v-.08c0-.1,0-.2,0-.28,0-.09,0-.18-.01-.29,0-.05,0-.1,0-.15,0-.06,0-.12,0-.17,0-.18,0-.35,0-.52v-.51s0-.09,0-.13v-.05s.01-.06.02-.1l.02-.85c0-.05,0-.1,0-.15v-.06c.01-.07.01-.14.01-.21,0-.15,0-.31,0-.45,0-.15,0-.29,0-.44,0-.04,0-.08,0-.13,0-.04,0-.09-.01-.13-.01-.08,0-.15,0-.21,0-.02.02-.06.02-.11v-.08c0-.13-.08-.2-.21-.22"/>
      <path class="cls-1" d="m35.5,32.67c0-.06,0-.13,0-.2,0-.15,0-.29,0-.44,0-.14,0-.29.01-.43.01-.09.02-.19.02-.27,0-.08,0-.17-.01-.28l-.02-.12v-.02s-.07-.09-.13-.13c-.05-.02-.09-.03-.12-.03-.04,0-.08,0-.12,0h-.13c-.05,0-.09,0-.13,0,0,0-.02,0-.03,0h-.02s-.05,0-.08.01c-.07.01-.11.06-.11.12,0,.03-.01.06-.01.09,0,.03,0,.07,0,.1v.35c0,.11,0,.23,0,.36,0,.09,0,.18-.01.27,0,.09,0,.19,0,.3,0,.07,0,.14,0,.22v.24c0,.07,0,.15,0,.22,0,.07,0,.15,0,.23.01.08.01.16.01.25,0,.09,0,.18,0,.27,0,.05-.02.12-.05.2-.01.02-.02.03-.02.03,0,0,0,0-.03-.02-.05-.04-.1-.1-.13-.17-.03-.08-.06-.15-.11-.22-.04-.06-.07-.12-.09-.19l-.14-.42v.15l-.15-.27c-.06-.12-.12-.24-.17-.36-.06-.12-.11-.25-.18-.38-.03-.06-.06-.12-.09-.18-.03-.06-.06-.13-.09-.19l-.31-.68c-.03-.09-.07-.16-.13-.23-.07-.08-.14-.11-.22-.1-.04,0-.08,0-.11,0-.08,0-.15,0-.23-.02-.06-.02-.1-.01-.16,0-.03.01-.06.02-.09.03-.06.03-.1.07-.11.15v.57s0,.07,0,.1v.57c-.01.08-.01.15,0,.22,0,.07,0,.14,0,.21,0,.05,0,.11,0,.17v.18s-.01.52-.01.52c0,.06,0,.11,0,.16,0,.05,0,.1,0,.15v.34c0,.07,0,.13,0,.19,0,.06,0,.13,0,.19,0,.09,0,.18,0,.27v.08c0,.06,0,.11,0,.18s0,.12,0,.18c0,.06,0,.12,0,.17,0,.06,0,.12,0,.18,0,.05,0,.09-.02.14-.03.1-.04.2-.03.28,0,.09.02.18.04.27l.02.05h.05s.04.02.07.02c.02,0,.04,0,.07,0,.04,0,.09,0,.13.01.1,0,.2,0,.26,0,.04,0,.08,0,.13-.01.08-.01.14-.05.18-.1.04-.03.05-.07.04-.11,0,0,0-.02,0-.05v-.04c.02-.11.02-.23.02-.36l-.02-.34c0-.06,0-.11,0-.17,0-.06,0-.12,0-.17,0-.04.01-.09.01-.14v-.31s0-.04,0-.06c0-.02,0-.05,0-.09,0-.1,0-.2,0-.3v-.3c0-.09,0-.18,0-.26v-.29s.01-.04.02-.07c0,0,0-.01,0-.02l.04.02s.07.08.09.12c.03.04.04.07.06.12l.55,1.17.02.03s.01.03.02.04c.02.04.04.07.06.11.02.03.04.06.05.1.04.08.07.15.1.22.03.07.07.15.12.23.04.09.09.17.13.26l.07.13c.06.12.12.26.16.39.01.05.04.11.07.16.04.06.07.1.11.13l.02.02h.41c.05,0,.1,0,.15,0,.02,0,.04,0,.05,0,.04,0,.07,0,.11-.01h.02c.09-.04.14-.11.14-.2v-.09c0-.12,0-.24,0-.35,0-.11,0-.22,0-.35-.01-.14-.01-.27-.01-.43,0-.16,0-.3-.02-.43v-.29c0-.08,0-.16-.02-.24-.01-.07-.01-.15,0-.22.01-.09,0-.18,0-.24l.02-.69c0-.07,0-.13,0-.2"/>
      <path class="cls-1" d="m30.16,30.82c-.05,0-.11,0-.18,0-.07.01-.15.02-.28,0h-.02c-.08,0-.12.01-.16.03-.04.02-.08.07-.1.15,0,.03-.02.08-.02.14l-.02.44c0,.12,0,.23,0,.35,0,.12,0,.24.02.35h0s0,0,0,0c-.01.03-.01.05-.01.07,0,.09,0,.17,0,.27v.27s-.01.58-.01.58v.07s-.02,1.2-.02,1.2v1.21s0,.06,0,.11c0,0,0,.02,0,.04,0,.02,0,.04,0,.06-.02.1.03.17.12.2.06.02.11.03.17.03.07,0,.14,0,.21,0,.13-.01.28,0,.36-.06.03-.03.06-.06.09-.12,0-.02.02-.06.02-.09v-.08c0-.1,0-.2,0-.28,0-.09,0-.18-.01-.29,0-.05,0-.1,0-.15,0-.06,0-.12,0-.17,0-.18,0-.35,0-.52v-.51s0-.09,0-.13v-.05s.01-.06.02-.1l.02-.85c0-.05,0-.1,0-.15v-.06c.01-.07.01-.14.01-.21,0-.15,0-.31,0-.45,0-.15,0-.29,0-.44,0-.04,0-.08,0-.13,0-.04,0-.09-.01-.13-.01-.08,0-.15,0-.21,0-.02.02-.06.02-.11v-.08c0-.13-.08-.2-.21-.22"/>
      <path class="cls-1" d="m80.94,34.48c-.06,0-.13,0-.2.01-.06,0-.13,0-.2,0h0s-.07,0-.11-.03c-.06-.02-.08-.05-.07-.11,0-.06.02-.12.03-.18v-.03c.02-.05.04-.1.05-.16.01-.06.02-.12.04-.18.01-.06.03-.12.04-.18.02-.03.02-.06.03-.08,0-.01,0-.03.02-.06l.06-.19.11-.28s0-.02,0-.02c0,0,.02.01.02.01.02.03.03.05.03.07.03.13.06.25.1.38l.02.07c.04.15.07.3.1.45v.03s.02.08.02.12l.02.2s0,.07,0,.08c-.03.04-.06.07-.09.09h0s-.02,0-.02,0Zm1.38.9c-.04-.14-.08-.29-.12-.47-.03-.1-.04-.19-.06-.29-.02-.11-.04-.21-.06-.32,0-.04-.02-.07-.02-.1,0-.04-.01-.08-.02-.12v-.04c-.02-.09-.04-.19-.06-.28-.02-.11-.04-.21-.07-.32-.03-.12-.06-.25-.09-.38-.03-.13-.06-.26-.09-.38-.02-.12-.05-.23-.09-.33-.01-.04-.02-.08-.03-.11,0-.03-.02-.07-.02-.11l-.02-.13c-.03-.13-.05-.26-.09-.39-.02-.09-.05-.18-.07-.28l-.09-.35v-.03s-.03-.04-.05-.05h-.02s-.07-.05-.09-.07c-.03-.02-.08-.03-.13-.04-.09,0-.19,0-.28,0h-.04c-.07.01-.14.02-.22.03h-.03s-.06.02-.08.03c-.04.02-.07.04-.08.07-.02.02-.02.05-.03.07,0,0,0,.01,0,.02v.02s-.02.08-.03.11v.06s-.02.07-.03.11c-.03.12-.06.25-.09.39-.03.1-.06.21-.08.31l-.03.11c-.02.07-.04.14-.06.21v.02c-.03.07-.06.14-.08.21-.03.08-.06.17-.07.27l-.19.78s-.02.08-.03.11l-.03.12c-.03.11-.05.21-.07.32-.02.09-.04.19-.08.29-.01.03-.02.06-.02.11v.02c-.02.06-.03.11-.04.16,0,.04-.02.08-.03.13l-.22.68-.07.24c-.02.08-.05.15-.09.23-.03.07-.03.15-.03.24v.03s.03.02.03.02c.05.03.08.05.09.06.03.02.06.03.12.04.09,0,.19,0,.29,0s.21,0,.29-.02c.07,0,.13-.03.17-.1.02-.04.04-.08.06-.12.02-.04.03-.08.05-.14.01-.07.03-.13.05-.19.02-.06.04-.13.06-.2.02-.1.09-.15.19-.18.13-.03.24-.04.36-.04.12,0,.25,0,.36,0,.07,0,.14.03.2.08.07.06.12.12.14.16.03.05.05.12.07.2v.02s0,0,0,0h0v.02s.02.07.02.1c0,.03.01.06.02.11.04.16.15.25.31.28h.02s.05,0,.08.01c.04,0,.08,0,.12,0,.04,0,.08-.01.11-.01.07,0,.14,0,.2.01.04,0,.08,0,.12,0,.06,0,.11-.03.14-.07.03-.04.04-.1.02-.16l-.14-.33c-.06-.15-.11-.31-.15-.45"/>
    </g>
  </g>
</svg>