<?xml version="1.0" encoding="UTF-8"?>
<svg id="Capa_2" data-name="Capa 2" xmlns="http://www.w3.org/2000/svg" viewBox="0 0 100.74 57.42">
  <defs>
    <style>
      .cls-1 {
        fill: #005250;
      }

      .cls-2 {
        fill: #143848;
      }
    </style>
  </defs>
  <g id="Layer_1" data-name="Layer 1">
    <g>
      <path class="cls-1" d="m.05,46c-.36-1,1.21-1.57,1.64-.64,1.64,3.28,3,5.97,4.66,9.28l4.71-9.33c.36-.88,1.98-.38,1.55.6l-5.5,10.92c-.31.62-1.12.81-1.57.02L.05,46Z"/>
      <path class="cls-1" d="m21.76,45.07c2.69.74,4.36,2.93,4.4,5.97v-.02c.05.52-.19,1.09-1.17,1.09h-9.4c.31,1.95,1.98,3.57,4.36,3.57,1.09,0,2.24-.29,3.17-1,.83-.76,2.07.21,1.14,1.17-1.1,1.02-2.69,1.45-4.24,1.43-1.86,0-3.71-.71-4.83-2.12-2.57-3.38-1.45-8.85,2.98-10.09,1.12-.33,2.4-.31,3.57,0h.02Zm-6.24,5.59h8.97c-.17-2.02-1.4-3.57-3.26-4.05h.02c-.79-.21-1.76-.21-2.57.02-1.9.5-3.02,2.09-3.17,4.02"/>
      <path class="cls-1" d="m30.83,47c.76-1.6,2.19-2.02,3.55-2.02.55,0,.9.29.9.83s-.36.81-.9.81c-2.45,0-3.5,1.95-3.5,4.36v5.38c0,.5-.4.83-.86.83-.52,0-.88-.33-.88-.83v-10.54c0-1.05,1.69-1.14,1.69,0v1.19Z"/>
      <path class="cls-1" d="m42.64,44.88c1.59,0,3.14.67,3.86,1.93v-4.74c0-1.1,1.74-1.1,1.74,0v14.38c0,.52-.33.83-.88.83s-.81-.31-.81-.83v-1.12c-.81,1.48-2.47,2.1-3.9,2.1-.74,0-1.55-.14-2.28-.45l.02.02c-2.59-1.07-3.9-3.43-3.83-6.19.1-3.38,2.52-5.93,6.09-5.93m3.86,7.19v-1.88c0-2.09-1.62-3.57-3.78-3.67-1.69,0-3.38.91-4.07,2.55-.19.5-.33,1.14-.36,1.76-.02,1.55.48,2.98,1.76,4.05.69.55,1.55.83,2.45.9,2.17,0,4-1.38,4-3.71"/>
      <path class="cls-1" d="m59.2,45.07c2.69.74,4.36,2.93,4.4,5.97v-.02c.05.52-.19,1.09-1.17,1.09h-9.4c.31,1.95,1.98,3.57,4.36,3.57,1.09,0,2.24-.29,3.17-1,.83-.76,2.07.21,1.14,1.17-1.09,1.02-2.69,1.45-4.24,1.43-1.86,0-3.71-.71-4.83-2.12-2.57-3.38-1.45-8.85,2.98-10.09,1.12-.33,2.4-.31,3.57,0h.02Zm-6.24,5.59h8.97c-.17-2.02-1.4-3.57-3.26-4.05h.02c-.79-.21-1.76-.21-2.57.02-1.9.5-3.02,2.09-3.17,4.02"/>
      <path class="cls-1" d="m67.39,54.14c.24,1.07,2.09,1.62,3.83,1.62,1.17,0,3.66-.52,3.66-2.17,0-1.52-1.81-1.59-3.74-1.74-2.57-.24-5.33-.45-5.33-3.38,0-2.55,2.9-3.64,5.19-3.64,1.83,0,4.38.31,5.21,2.45.33,1.07-1.31,1.52-1.62.62-.52-1.38-2.52-1.48-3.59-1.48-1.38,0-3.45.6-3.45,2.07s1.76,1.5,3.67,1.64c2.62.24,5.4.48,5.4,3.45s-3.43,3.74-5.4,3.74-5.02-.5-5.5-2.88c-.29-1,1.45-1.5,1.67-.31"/>
      <path class="cls-1" d="m81.08,52.04c0,2.19,1.76,3.71,3.69,3.71,2.31,0,4.47-1.9,4.47-4.5v-5.52c0-.52.31-.83.86-.83s.9.31.9.83v10.66c0,1.09-1.71,1.12-1.71-.02v-1.5c-.86,1.74-2.69,2.5-4.55,2.5-2.76,0-5.4-1.9-5.4-5.33v-6.31c0-.52.31-.83.86-.83s.88.31.88.83v6.31Z"/>
      <path class="cls-1" d="m96.29,47c.76-1.6,2.19-2.02,3.55-2.02.55,0,.9.29.9.83s-.36.81-.9.81c-2.45,0-3.5,1.95-3.5,4.36v5.38c0,.5-.4.83-.86.83-.52,0-.88-.33-.88-.83v-10.54c0-1.05,1.69-1.14,1.69,0v1.19Z"/>
      <path class="cls-2" d="m72.47,16.04s-.02-.1-.04-.15c0,0,0-.01,0-.02-.01-.04-.02-.07-.04-.11,0-.02-.02-.03-.02-.05-.01-.02-.02-.05-.03-.07,0-.02-.02-.03-.03-.05-.01-.02-.03-.04-.04-.07,0-.01-.02-.02-.03-.04-.02-.02-.04-.05-.05-.07,0,0-.01-.01-.02-.02-.02-.03-.05-.05-.07-.08h0c-.15-.15-.34-.27-.55-.33-1.55-.48-3.17-.72-4.81-.72-9.04,0-16.4,7.36-16.4,16.4,0,.29,0,.59.02.89-4.52-2.24-7.63-6.89-7.63-12.26,0-6.85,5.06-12.54,11.64-13.52l-.41.66c-.4.64-.21,1.48.43,1.88.22.14.48.21.72.21.45,0,.9-.23,1.15-.64l2.24-3.56c.4-.64.21-1.48-.43-1.88l-3.56-2.24c-.64-.4-1.48-.21-1.88.43-.4.64-.21,1.48.43,1.88l.9.56c-7.89,1.18-13.96,8-13.96,16.22,0,6.95,4.34,12.9,10.45,15.28-.39.72-.75,1.47-1.09,2.26-.3.69.01,1.49.7,1.79.18.08.36.11.54.11.52,0,1.03-.31,1.25-.82.39-.89.82-1.75,1.27-2.56,1.06.21,2.15.33,3.27.33,9.04,0,16.4-7.36,16.4-16.4,0-1.1-.11-2.19-.32-3.26m-16.07,16.93c-.58,0-1.14-.04-1.7-.11,5.14-7.34,12.23-10.56,12.34-10.61.69-.3,1-1.11.7-1.79-.3-.69-1.11-1-1.79-.7-.37.16-7.41,3.33-12.89,10.71.11-7.45,6.2-13.47,13.67-13.47,1.09,0,2.17.13,3.21.38.09.63.13,1.27.13,1.92,0,7.54-6.13,13.68-13.68,13.68"/>
    </g>
  </g>
</svg>