<?xml version="1.0" encoding="utf-8"?>
<!-- Generator: Adobe Illustrator 25.4.1, SVG Export Plug-In . SVG Version: 6.00 Build 0)  -->
<svg version="1.1" id="Capa_1" xmlns="http://www.w3.org/2000/svg" xmlns:xlink="http://www.w3.org/1999/xlink" x="0px" y="0px"
	 viewBox="0 0 1125 600" style="enable-background:new 0 0 1125 600;" xml:space="preserve">
<style type="text/css">
	.st0{clip-path:url(#SVGID_00000022553381324797865840000012735795288324724883_);fill:#186FA8;}
	.st1{clip-path:url(#SVGID_00000100365311813676145120000010385416209049528230_);fill:#6B96B2;}
	.st2{clip-path:url(#SVGID_00000102532665748501150170000003822843501018228367_);fill:#6B96B2;}
	.st3{clip-path:url(#SVGID_00000025418478306043917810000013365548058984467587_);fill:#026BB2;}
	.st4{clip-path:url(#SVGID_00000011031844186722861640000011100371676503843500_);fill:#3E84B2;}
	.st5{display:none;}
	.st6{display:inline;}
	.st7{display:inline;clip-path:url(#SVGID_00000158008951703498412910000017293040733013540489_);}
	.st8{fill:#F9CB1E;}
	.st9{fill:none;stroke:#000000;stroke-width:2.1049;stroke-miterlimit:10;}
	.st10{fill:#FACE1D;}
	.st11{fill:none;stroke:#000000;stroke-width:0.5262;stroke-miterlimit:10;}
	.st12{clip-path:url(#SVGID_00000052086220579611469520000002103403389919668656_);fill:#1573B2;}
	.st13{clip-path:url(#SVGID_00000006693882604560153460000010982266550579171459_);fill:#3E84B2;}
	.st14{clip-path:url(#SVGID_00000172421197720902892330000017115390263775540666_);fill:#1573B2;}
	.st15{clip-path:url(#SVGID_00000132056493617591967370000002188734095521713830_);fill:#2D7CB2;}
	.st16{clip-path:url(#SVGID_00000103225026412418294570000009385550152198036637_);fill:#186FA8;}
	.st17{clip-path:url(#SVGID_00000007416701495752424080000002133764449267384494_);fill:#2479B2;}
	.st18{clip-path:url(#SVGID_00000095312075972861025470000017795775579465679543_);fill:#1573B2;}
	
		.st19{opacity:0.75;clip-path:url(#SVGID_00000116925274902298515420000003805274863888565948_);fill:#1573B2;enable-background:new    ;}
	.st20{clip-path:url(#SVGID_00000095304731945787914230000005767103983177339270_);fill:#2479B2;}
	.st21{clip-path:url(#SVGID_00000087374986658501904930000003429820689720438194_);fill:#026BB2;}
	.st22{fill:none;stroke:#FACE1D;stroke-width:3.6603;stroke-miterlimit:10;}
	.st23{fill:#43CABF;}
	.st24{fill:#026BB2;}
	.st25{fill:#FFFFFF;}
	.st26{fill:none;stroke:#000000;stroke-width:0.8842;stroke-miterlimit:10;}
	.st27{fill:none;stroke:#000000;stroke-width:1.7686;stroke-miterlimit:10.0008;}
	.st28{fill:none;stroke:#000000;stroke-width:1.7684;stroke-miterlimit:9.9998;}
	.st29{fill:none;stroke:#000000;stroke-width:1.7685;stroke-miterlimit:10;}
	.st30{fill:none;stroke:#000000;stroke-width:0.8842;stroke-miterlimit:9.999;}
</style>
<g id="Agua">
	<g>
		<g>
			<defs>
				<rect id="SVGID_1_" x="-715" y="-323.92" width="3472" height="1364.4"/>
			</defs>
			<clipPath id="SVGID_00000113320832477508266400000012483148814743271322_">
				<use xlink:href="#SVGID_1_"  style="overflow:visible;"/>
			</clipPath>
			<path style="clip-path:url(#SVGID_00000113320832477508266400000012483148814743271322_);fill:#186FA8;" d="M160.3,214.78
				c18-12.4,37.3-25.2,59.1-26.1c28.1-1.3,52.9,17.2,74.9,34.8c42.5,33.9,85.3,68.2,119.8,110.2c11.2,13.6,22.8,28.9,39.8,33.4
				c37.4,9.8,74.9-38,110.3-22.5c7.9,3.5,14.6,9.9,23,11.7c7,1.5,14.3-0.5,21.1-3c44.9-16.3,80.3-52.8,125.2-69.1
				c39.9-14.5,83.8-11.7,126.1-8.2c27.3,2.2,55,4.8,80.5,14.8c50.5,19.7,85.3,65.3,122,105.2c25.6,27.9,53.3,53.8,82.7,77.6
				c23.7,19.1,51.4,43.6,46,73.6c-2.2,12.1-9.6,22.5-17.6,31.8c-34.7,40.6-83.3,69.2-135.7,79.9c-62.1,12.6-126.1,0.6-188.8-8.3
				c-117.9-16.6-237-21.9-355.9-27.2c-88.6-3.9-177.2-7.9-265.8-11.8c-41.4-1.8-83-3.7-124.1,1.5c-37.7,4.7-74.6,15.3-112.5,16.7
				c-106.2,4.2-163.3-96.8-100.2-181.9C-38.3,351.38,62.6,281.88,160.3,214.78z"/>
		</g>
		<g>
			<defs>
				<rect id="SVGID_00000052783521199836839080000005818572769920088492_" x="-715" y="-323.92" width="3472" height="1364.4"/>
			</defs>
			<clipPath id="SVGID_00000132075143773910138680000012223859046459005320_">
				<use xlink:href="#SVGID_00000052783521199836839080000005818572769920088492_"  style="overflow:visible;"/>
			</clipPath>
			<path style="clip-path:url(#SVGID_00000132075143773910138680000012223859046459005320_);fill:#6B96B2;" d="M-685.1,466.18
				c-12-12.2-27.5-22.8-44.6-22.2c-13.6,24.2-14.7,53.1-15.4,80.8c-1.3,47.8-2.6,95.6-3.9,143.4c-0.3,12.7,2.6,29.4,15.2,30.9
				c5.6,0.7,10.9-2.4,16.2-4.5c17.9-7.1,37.9-3.4,57.1-3.6c44.6-0.6,142.3-53.5,128.5-107.8c-7.7-30.4-39.1-42.7-64.7-53.7
				C-635,513.18-656.4,495.58-685.1,466.18z"/>
		</g>
		<g>
			<defs>
				<rect id="SVGID_00000096766824289004609500000012472196182932978360_" x="-715" y="-323.92" width="3472" height="1364.4"/>
			</defs>
			<clipPath id="SVGID_00000148621722053939923070000005096460532822007999_">
				<use xlink:href="#SVGID_00000096766824289004609500000012472196182932978360_"  style="overflow:visible;"/>
			</clipPath>
			<path style="clip-path:url(#SVGID_00000148621722053939923070000005096460532822007999_);fill:#6B96B2;" d="M2138.3,508.88
				c-55.7,1.6-111.2,5.6-166.9,6.5c-50.2,0.8-100.3-0.9-150.4-4.1c-103.1-6.5-206.4-19.2-309.3-10.4c-16.4,1.4-35.3,5-43,19.6
				c20.2,14.2,45.2,19.5,69.4,24.6c36.2,7.5,72.5,15.1,108.7,22.6c49.7,10.4,99.6,20.7,150.1,25.9c61.7,6.4,123.8,5,185.8,6.9
				c170,5.2,338.1,35.1,506.3,60.6c88,13.3,179.2,25.3,265,1.4c9.3-2.6,12.2-55.9,12.5-64.3c0.6-16.6,2.8-32.4-12.3-41.1
				c-16.7-9.7-53.6-7.5-72.8-10c-24.4-3.2-48.8-6.3-73.1-9.3c-99.1-12.2-198.5-22.4-298.3-27.1
				C2252.8,508.08,2195.5,507.18,2138.3,508.88z"/>
		</g>
		<g>
			<defs>
				<rect id="SVGID_00000076586794419085298240000008814563147564624319_" x="-715" y="-323.92" width="3472" height="1364.4"/>
			</defs>
			<clipPath id="SVGID_00000118357331970520971040000008574779228675296700_">
				<use xlink:href="#SVGID_00000076586794419085298240000008814563147564624319_"  style="overflow:visible;"/>
			</clipPath>
			<path style="clip-path:url(#SVGID_00000118357331970520971040000008574779228675296700_);fill:#026BB2;" d="M-776,708.68
				c33.4-71.9,130.3-81.6,196.4-125.4c57.9-38.4,92.8-104.9,151.2-142.5c38.4-24.7,85.5-36,118.9-67.1c7.5-7,14.7-15.3,24.6-18.3
				c12.2-3.8,25.2,1.3,37,6.2c99.2,40.7,203.3,69.8,309.3,86.2c61.8,9.6,124.4,15,186.8,11.3c36.9-2.2,73.8-7.5,110.7-5.9
				c44.8,1.9,88.4,13.9,132.4,22.5c142.3,28,290.4,21.7,430.4,59.4c84,22.6,162.9,60.5,240.9,99c16.8,8.3,36.1,20.8,34.9,39.5
				c13.4,16.2,26.6,47.9,10.7,61.6c-7.4,6.3-18,6.6-27.8,6.9c-164,5.5-305.2,126.3-468.5,142.2c-58.4,5.7-117.1-2.4-175.2-10.4
				c-111.2-15.4-222.4-30.7-333.6-46.1c-80.6-11.1-167.1-21.3-239.5,15.6c-230.5,117.6-514.1,53.3-772.9,55.1
				C-840.8,842.58-803.1,767.08-776,708.68z"/>
		</g>
		<g>
			<defs>
				<rect id="SVGID_00000003820735077842631780000017758016394314299838_" x="-715" y="-323.92" width="3472" height="1364.4"/>
			</defs>
			<clipPath id="SVGID_00000154421530057851093860000006253806743592386945_">
				<use xlink:href="#SVGID_00000003820735077842631780000017758016394314299838_"  style="overflow:visible;"/>
			</clipPath>
			<path style="clip-path:url(#SVGID_00000154421530057851093860000006253806743592386945_);fill:#3E84B2;" d="M1374.3,518.68
				c22,35.2,27.8,79.6,54.5,111.3c23.8,28.2,60.5,42,96.6,49.7s73.3,10.6,108.2,22.6c24.4,8.4,47.4,21.3,72.6,26.8
				c19.8,4.3,40.2,4,60.4,2.4c76-5.9,149.6-29.1,224.9-41c97.4-15.4,198.1-12.1,292.8-39.6c5.9-1.7,12.2-3.8,16-8.7
				c7.3-9.4,0.9-23.9-9.1-30.4c-10-6.4-22.4-7.6-33.8-11c-17.7-5.2-33.2-15.8-49.5-24.6c-51.7-28.1-112.6-39-170.9-30.5
				c-17.9,2.6-35.8,7-53.9,6.4c-22.5-0.8-44.1-9.4-66.6-9.9c-37.8-0.8-75.6,21.3-112,10.9c-17.7-5-33.6-17.5-52-17.8
				c-22.2-0.3-43.8,17.5-64.9,10.6c-12.1-4-20.1-15-28.7-24.3c-8.7-9.3-20.8-17.8-33.1-14.6c-10.6,2.8-17.5,13.6-27.8,17.3
				c-7.6,2.7-16,1.2-23.9-0.3c-39.6-7.5-80-15.4-115-35.4c-11.8-6.8-23.7-15.1-37.3-15.6c-13.6-0.4-28.6,11.9-24.5,25
				c-2.8,4-11.3,7.3-15.3,10.1S1371.7,514.58,1374.3,518.68z"/>
		</g>
		<g class="st5">
			<defs>
				<rect id="SVGID_00000177463196074447009540000010101233214571108514_" x="-715" y="-453.92" width="3472" height="1364.4"/>
			</defs>
			<clipPath id="SVGID_00000075869932704863166450000004434812519888222373_" class="st6">
				<use xlink:href="#SVGID_00000177463196074447009540000010101233214571108514_"  style="overflow:visible;"/>
			</clipPath>
			<g style="display:inline;clip-path:url(#SVGID_00000075869932704863166450000004434812519888222373_);">
				<path class="st8" d="M832.3,72.48l37.8,57.2c0.8,1.2,2.6,1.2,3.4,0l36.7-54c0.4-0.6,1-0.9,1.7-0.9h8.1c1,0,1.8,0.7,2,1.6
					l39,186.2c0.3,1.3-0.7,2.5-2,2.5h-27c-1.1,0-1.9-0.8-2.1-1.8l-17.6-149.6c-0.2-1.9-2.7-2.5-3.8-0.9l-35.6,55.7
					c-0.8,1.3-2.7,1.3-3.5,0l-36.6-55.7c-1.1-1.6-3.6-1-3.8,0.9l-14.6,149.9c-0.1,1.1-1,1.9-2.1,1.9h-27.2c-1.3,0-2.3-1.1-2-2.4
					l30.8-189.9c0.2-1,1-1.7,2-1.7h14.5C831.3,71.58,831.9,71.88,832.3,72.48z"/>
				<line class="st9" x1="915.2" y1="-84.62" x2="915.2" y2="-1.22"/>
				<rect x="800.2" y="56.38" class="st10" width="143.1" height="22.8"/>
				<line class="st9" x1="875.1" y1="-112.42" x2="875.1" y2="-1.12"/>
				<rect x="805.7" y="-1.12" class="st10" width="132.3" height="57.5"/>
				<circle class="st9" cx="914.1" cy="-105.22" r="20.6"/>
				<g>
					<path class="st10" d="M875-114.32c-10,10.1-19.8,19.8-29.4,29.4c-6.6-6.6-13.1-13.1-19.6-19.6c9.5-9.5,19.3-19.3,29.2-29.2
						c-10-10-19.9-19.8-29.6-29.5c6.7-6.7,13.2-13.2,19.6-19.6c9.7,9.7,19.4,19.4,29.2,29.2c10-10,19.8-19.8,29.4-29.4
						c6.8,6.8,13.3,13.3,19.8,19.8c-9.5,9.5-19.3,19.3-29,29c10,10,19.8,19.8,29.4,29.4c-6.8,6.8-13.3,13.3-19.7,19.7
						C894.6-94.62,884.9-104.42,875-114.32z"/>
				</g>
				<path class="st10" d="M999.3,264.88c0,73.2-59.4,132.6-132.6,132.6s-132.6-59.4-132.6-132.6H999.3z"/>
				<polygon class="st9" points="771.6,248.78 787.9,151.98 948.9,151.98 970.1,251.18 				"/>
				<line class="st11" x1="787.9" y1="164.18" x2="951.4" y2="164.18"/>
				<line class="st11" x1="785.4" y1="182.88" x2="955.5" y2="182.88"/>
				<line class="st11" x1="779.8" y1="201.58" x2="957.9" y2="201.58"/>
				<line class="st11" x1="776.5" y1="219.48" x2="962.8" y2="219.48"/>
				<line class="st11" x1="773.2" y1="238.18" x2="966" y2="238.18"/>
				<line class="st11" x1="809" y1="152.78" x2="799.6" y2="248.48"/>
				<line class="st11" x1="836.7" y1="152.28" x2="837.5" y2="250.38"/>
				<line class="st11" x1="870" y1="151.98" x2="871.7" y2="249.58"/>
				<line class="st11" x1="906.6" y1="151.18" x2="907.5" y2="248.78"/>
				<line class="st11" x1="939.2" y1="152.28" x2="942" y2="250.58"/>
			</g>
		</g>
		<g>
			<defs>
				<rect id="SVGID_00000079448184760749334880000008775500105903726769_" x="-715" y="-323.92" width="3472" height="1364.4"/>
			</defs>
			<clipPath id="SVGID_00000008144749262747170520000006319636678462618301_">
				<use xlink:href="#SVGID_00000079448184760749334880000008775500105903726769_"  style="overflow:visible;"/>
			</clipPath>
			<path style="clip-path:url(#SVGID_00000008144749262747170520000006319636678462618301_);fill:#1573B2;" d="M906.4,484.98
				c248.4-96.4,278.4-326.5,491.9-74.5c251.5,329.6,433.9,264.9,612.2,389.5c-99.8,2.5-201.7-30.6-304-24.6
				c-502.6,20.5-316.3,135.1-517.7,162.4c-38.6-10.6-85.8-78.8-126-105.3c-239.4-104.7-509.2,80.5-629.5-31
				c-31.7-51.6,104.2-65.4,124.9-91.9C770.4,552.68,713.2,564.58,906.4,484.98z"/>
		</g>
		<g>
			<defs>
				<rect id="SVGID_00000143614161249136956070000001524078343202096299_" x="-715" y="-323.92" width="3472" height="1364.4"/>
			</defs>
			<clipPath id="SVGID_00000173879305804177863460000005647697847332554881_">
				<use xlink:href="#SVGID_00000143614161249136956070000001524078343202096299_"  style="overflow:visible;"/>
			</clipPath>
			<path style="clip-path:url(#SVGID_00000173879305804177863460000005647697847332554881_);fill:#3E84B2;" d="M2613.4,618.18
				c-1.2,0.8-2.6,1.8-3,3.3c-0.8,3.1,2.8,5.4,5.9,6.4c54.4,19.2,113.2,25.6,170.5,18.7c2.2-0.3,4.5-0.6,6.2-1.9
				c1.5-1.1,2.5-2.8,3.1-4.6c2.6-7.5-0.1-15.7-2.9-23.1c-7-18.8-7.4-34.6-26.6-37.6c-15.2-2.4-38.1,4.8-53.6,7
				C2678.4,591.28,2643,598.18,2613.4,618.18z"/>
		</g>
		<g>
			<defs>
				<rect id="SVGID_00000042003292471818783490000005443916803708392363_" x="-715" y="-323.92" width="3472" height="1364.4"/>
			</defs>
			<clipPath id="SVGID_00000078733351219907726920000011018625607488775822_">
				<use xlink:href="#SVGID_00000042003292471818783490000005443916803708392363_"  style="overflow:visible;"/>
			</clipPath>
			<path style="clip-path:url(#SVGID_00000078733351219907726920000011018625607488775822_);fill:#1573B2;" d="M2722.9,615.68
				c-16.6-0.6-33.3-1.1-49.9-1.7c-8.1-0.3-17.9,0.4-21.7,7.5c-4.3,8,2.5,17.4,9.4,23.2c31.6,26.8,77.1,36.2,116.7,24.2
				c10.3-3.1,21.7-9.7,22.1-20.4C2800.5,622.98,2739.7,616.18,2722.9,615.68z"/>
		</g>
		<g>
			<defs>
				<rect id="SVGID_00000022528137475906469110000013557409596815560600_" x="-715" y="-323.92" width="3472" height="1364.4"/>
			</defs>
			<clipPath id="SVGID_00000139273809084026566960000006276388316687937437_">
				<use xlink:href="#SVGID_00000022528137475906469110000013557409596815560600_"  style="overflow:visible;"/>
			</clipPath>
			<path style="clip-path:url(#SVGID_00000139273809084026566960000006276388316687937437_);fill:#2D7CB2;" d="M1844.5,642.48
				c65.8-8,130.9-21.6,194.4-40.6c94.8-28.4,189.8-69.4,288.4-61.3c63.6,5.2,123.5,30.7,182.3,55.5c11.7,4.9,23.5,9.9,36.1,11.1
				c11.3,1.1,22.7-1,34-2c49.7-4.5,98.9,10.3,146.1,26.1c28.9,9.6,59.2,20.8,77.9,44.8c16,20.5,21.1,48.9,13.3,73.7
				c-7.7,24.8-28.1,45.2-52.8,53.2c-18.2,5.9-37.9,5.3-57.1,4.7c-173.9-5.5-348-2.9-521.6,7.7c-67.5,4.1-136,9.4-202.1-4.8
				c-41.6-9-81.4-25.5-123.5-32.1c-75.4-11.8-265.7,9.3-341.9,9.7c-2,0,17.1-22.2,20.8-27.4c10.5-14.4,115.6-79.3,161.2-90.9
				C1746.9,657.88,1799,648.08,1844.5,642.48z"/>
		</g>
		<g>
			<defs>
				<rect id="SVGID_00000001646475134663557490000017613571679038530444_" x="-715" y="-323.92" width="3472" height="1364.4"/>
			</defs>
			<clipPath id="SVGID_00000094590755122816511720000009948953681830919304_">
				<use xlink:href="#SVGID_00000001646475134663557490000017613571679038530444_"  style="overflow:visible;"/>
			</clipPath>
			<path style="clip-path:url(#SVGID_00000094590755122816511720000009948953681830919304_);fill:#186FA8;" d="M2767.5,799.98
				c-89.1-24.6-181.9-36-274.3-33.6c-60.2,1.6-120.1,8.9-180.3,9.6c-53.1,0.6-106.1-4-159-7.8c-204.4-14.4-409.5-15.5-614.4-13.2
				c-3.4,0-7.4,0.8-10.7,2.3c-9.7,4.3-20.4,5.6-30.9,4.7c-16.6-1.3-34.3-0.1-49.3,1.1c-138,10.8-276.8,10.6-414.8-0.6
				c-8.9-0.7-17.8-1.5-26.5-3.5c-8.5-2-16.7-5.1-25.1-7.7c-49.4-15.4-104.5-11.9-151.5,9.7c-5.5,2.5-9.8,7.4-10.9,13.3
				c-1.7,8.8,4.6,13.3,10.5,16.9c78.7,47.9,199.9,40.7,290.2,58.9c175.6,35.4,345.3,52.4,523.6,43.6c74.6-3.7,142.6-51.7,212.3-25
				c72.6,27.9,153.9-26.6,231.4-19.6c43.8,3.9,85.9,18.4,129,27.6c97.9,20.7,199.3,13.3,299.4,11.9c27.3-0.4,54.9-0.3,81.6,5.3
				c19.3,4,37.8,10.8,57.1,15c24.3,5.4,49.3,6.6,74.1,7.9c10,0.5,20.7,0.8,29.2-4.4c9-5.5,13.7-15.9,16.8-25.9
				C2783.6,857.78,2775.6,828.98,2767.5,799.98z"/>
		</g>
		<g>
			<defs>
				<rect id="SVGID_00000060728609642793354920000014269861194844848537_" x="-715" y="-323.92" width="3472" height="1364.4"/>
			</defs>
			<clipPath id="SVGID_00000025420750596472795770000008444706691251890085_">
				<use xlink:href="#SVGID_00000060728609642793354920000014269861194844848537_"  style="overflow:visible;"/>
			</clipPath>
			<path style="clip-path:url(#SVGID_00000025420750596472795770000008444706691251890085_);fill:#2479B2;" d="M-504.8,668.68
				c-26.1-12.7-54.2-25.7-83-21.6c-9.8,1.4-19.3,4.8-28.6,8.1c-16.1,5.8-32.1,11.6-48.2,17.3c-28.1,10.1-56.8,20.6-79.7,39.7
				c-22.9,19.2-39.1,49.2-33.7,78.5c1.4,7.3,4.4,14.9,10.7,18.8c3.8,2.4,8.4,3.1,12.9,3.7c48.9,6.5,99.2,1.7,146-14
				c12.2-4.1,24.3-9,36.8-11.9c19.8-4.7,40.5-4.5,60.2-9.6c16.9-4.3,80.3-29.2,82.5-49.7C-426,702.98-487.2,677.28-504.8,668.68z"/>
		</g>
		<g>
			<defs>
				<rect id="SVGID_00000070085012440794432110000001157130478451004552_" x="-715" y="-323.92" width="3472" height="1364.4"/>
			</defs>
			<clipPath id="SVGID_00000118361054302272888590000009496659080339205291_">
				<use xlink:href="#SVGID_00000070085012440794432110000001157130478451004552_"  style="overflow:visible;"/>
			</clipPath>
			<path style="clip-path:url(#SVGID_00000118361054302272888590000009496659080339205291_);fill:#1573B2;" d="M-403.4,674.78
				c24.1-8.5,50.4-17,74.5-8.6c31.3,10.8,52.7,48.1,85.8,46.3c19.2-1,34.8-15.5,53.2-21.4c52.9-16.8,101.6,40.7,157,43.7
				c27.5,1.5,53.7-10.7,80.4-17.5c58.7-15,120.4-4.3,180.7,2.1c82.9,8.7,166.7,8.9,249.6,0.5c37.8-3.8,75.6-9.5,113.5-8.8
				c49.3,0.8,97.8,12.1,145.9,23.3c33.6,7.9,67.1,15.7,100.7,23.6c50.6,11.8,101.2,23.7,151.5,36.3c174.5,43.7,347,96.9,511.5,169.4
				c32,14.1,69.1,37.7,65.7,72.6c-4.2,43.3-62.5,52.9-106,50.6c-748.3-38.2-1498.1-48.3-2247.2-30.1c1.3,0,2.8-176.7,3.2-192.9
				c1.5-61.3,15.8-98.4,80.2-115c36.1-9.3,73.8-1.9,110.4-9.6C-528.5,725.88-465.1,696.48-403.4,674.78z"/>
		</g>
		<g>
			<defs>
				<rect id="SVGID_00000005260031415948284090000013322711499894114210_" x="-715" y="-323.92" width="3472" height="1364.4"/>
			</defs>
			<clipPath id="SVGID_00000067923584183301948880000014994566779306079915_">
				<use xlink:href="#SVGID_00000005260031415948284090000013322711499894114210_"  style="overflow:visible;"/>
			</clipPath>
			
				<path style="opacity:0.75;clip-path:url(#SVGID_00000067923584183301948880000014994566779306079915_);fill:#1573B2;enable-background:new    ;" d="
				M-403.4,674.78c24.1-8.5,50.4-17,74.5-8.6c31.3,10.8,52.7,48.1,85.8,46.3c19.2-1,34.8-15.5,53.2-21.4
				c52.9-16.8,101.6,40.7,157,43.7c27.5,1.5,53.7-10.7,80.4-17.5c58.7-15,120.4-4.3,180.7,2.1c82.9,8.7,166.7,8.9,249.6,0.5
				c37.8-3.8,75.6-9.5,113.5-8.8c49.3,0.8,97.8,12.1,145.9,23.3c33.6,7.9,67.1,15.7,100.7,23.6c50.6,11.8,101.2,23.7,151.5,36.3
				c174.5,43.7,347,96.9,511.5,169.4c32,14.1,69.1,37.7,65.7,72.6c-4.2,43.3-62.5,52.9-106,50.6
				c-748.3-38.2-1498.1-48.3-2247.2-30.1c1.3,0,2.8-176.7,3.2-192.9c1.5-61.3,15.8-98.4,80.2-115c36.1-9.3,73.8-1.9,110.4-9.6
				C-528.5,725.88-465.1,696.48-403.4,674.78z"/>
		</g>
		<g>
			<defs>
				<rect id="SVGID_00000038384968668261049260000012627741898495628418_" x="-715" y="-323.92" width="3472" height="1364.4"/>
			</defs>
			<clipPath id="SVGID_00000169520097433162641650000003027254163164196284_">
				<use xlink:href="#SVGID_00000038384968668261049260000012627741898495628418_"  style="overflow:visible;"/>
			</clipPath>
			<path style="clip-path:url(#SVGID_00000169520097433162641650000003027254163164196284_);fill:#2479B2;" d="M740.7,707.28
				c25,2.4,50.4,5,73.8,14.3c20.6,8.2,39,21.4,59.6,29.6c22.8,9.1,47.6,11.9,71.7,17.1c26.5,5.7,52.2,14.3,77.8,22.9
				c77,25.8,174.7,58.9,251.7,84.7c-59.6,19.3-144.1-12.6-203.2-33.3c-137.7-48.3-281.8-76.2-426.5-95.5
				c-46-6.2-92.3-11.5-138.7-11.1c-14.1,0.1-75.2,10-70.7-6.6c6.2-22.8,65.2-25.6,81.6-27.6C592,692.88,666.9,700.08,740.7,707.28z"
				/>
		</g>
		<g>
			<defs>
				<rect id="SVGID_00000130628204008819399140000010643173396405811643_" x="-715" y="-323.92" width="3472" height="1364.4"/>
			</defs>
			<clipPath id="SVGID_00000164477937011969920300000009449701117925284244_">
				<use xlink:href="#SVGID_00000130628204008819399140000010643173396405811643_"  style="overflow:visible;"/>
			</clipPath>
			<path style="clip-path:url(#SVGID_00000164477937011969920300000009449701117925284244_);fill:#026BB2;" d="M1081.6,1008.38
				c56.2-7,141.1-73.3,179.2-115.2c16.7-18.4,33-38.3,55.1-49.8c22.8-11.9,49.5-13.6,75.2-14.6c77.7-3.2,156.3-3.1,232-21.2
				c33.9-8.1,67-19.9,101.6-23.7c63.4-6.8,126.1,13.7,188.3,27.6c98.9,22.1,201.5,27.7,302.2,16.6c41.7-4.6,87.4-11.3,122.7,11.3
				c40.8-3.9,80.3,18.4,119.6,29.9c94.4,27.5,198.1-2.4,292.8,24c8.7,2.4,17.7,5.6,24,12.1c9.4,9.8,10.5,24.7,11,38.3
				c1.3,32.3,2.6,64.6,3.9,96.8c0.2,5.3,0.3,11.1-2.6,15.5c-3.5,5.2-10.2,7.1-16.3,8.5c-99.4,22.3-202.7,11.6-304.6,11.6
				c-146.2,0.1-292.3,22.7-438.3,14.1c-91.8-5.4-183.4-23-275.2-16.9c-118.6,7.9-237.7,1.4-356.6,0.3c-55.2-0.5-110.6-1.2-165.5-7.6
				c-16.4-1.9-33.2-4.5-47.5-12.7s-25.8-23.3-25-39.8c-10.2,2.8-21.3,5.6-31.3,1.9C1116.5,1011.98,1075.4,1017.08,1081.6,1008.38z"
				/>
		</g>
	</g>
</g>
<g id="boya" class="st5">
</g>
<g id="Metagenomica" class="st5">
	<g class="st6">
		<line class="st22" x1="539" y1="325.88" x2="161.1" y2="-190.92"/>
		<line class="st22" x1="160.8" y1="-191.12" x2="431.3" y2="336.18"/>
		<circle class="st22" cx="126.9" cy="-269.92" r="86.9"/>
	</g>
	<g class="st6">
		<path class="st23" d="M102.6-211.52l-0.5-0.2c-2.5-1-4.4-3.2-5.3-6.4c-1.3-4.7,0-10.1,3.5-14.6c13.8-17.8,35.4-27.7,57.9-26.4
			c2,0.1,4,0.5,5.8,1.2c6.9,2.6,10.8,8.7,8.9,14l-0.1,0.2c-2.3,6.6-9.9,9.3-15.9,9c-14.5-0.8-28.4,5.5-37.3,17
			C116-213.02,109.1-209.02,102.6-211.52z"/>
		<path class="st24" d="M157.1-236.92c-15.2-0.8-29.9,5.9-39.1,17.8c-3.6,4.5-9.6,7.4-14.7,5.4c-0.1,0-0.1-0.1-0.2-0.1
			c-5.1-2-6.3-10.6-0.9-17.6c13.3-17.2,34.3-26.8,56-25.5c8.8,0.5,14.5,7.1,12.7,12.2c0,0.1,0,0.1-0.1,0.2
			C169-239.22,162.8-236.62,157.1-236.92z"/>
		<path class="st23" d="M145.9-258.12l-0.3-5.5c1.9-0.4,3.2-1.8,3.1-3.5c-0.1-1.8-2.1-3.2-4.4-3.1c-2.3,0.1-4.1,1.8-4,3.6
			c0.1,1.7,1.8,2.9,3.8,3l0.3,5.5c0,0.4,0.3,0.7,0.8,0.7l0,0C145.6-257.42,145.9-257.72,145.9-258.12z"/>
		<path class="st23" d="M134.3-255.92l-1-5.5c1.8-0.7,2.9-2.3,2.6-3.8c-0.3-1.8-2.5-2.9-4.7-2.5c-2.3,0.4-3.8,2.3-3.5,4.1
			c0.3,1.6,2.1,2.7,4.2,2.5l1,5.4c0.1,0.4,0.4,0.6,0.8,0.6l0,0C134.1-255.22,134.4-255.52,134.3-255.92z"/>
		<path class="st23" d="M123.6-251.22l-2.2-5.1c1.6-1.1,2.3-2.9,1.7-4.3c-0.8-1.7-3.1-2.3-5.2-1.3s-3.2,3.1-2.4,4.8
			c0.7,1.5,2.7,2.1,4.6,1.5l2.2,5c0.2,0.4,0.6,0.5,1,0.4l0,0C123.6-250.42,123.7-250.92,123.6-251.22z"/>
		<path class="st23" d="M113.6-244.82l-2.7-4.8c1.5-1.2,2-3.1,1.2-4.5c-0.9-1.6-3.3-1.9-5.3-0.7c-2,1.2-2.8,3.4-1.9,5
			c0.9,1.4,2.9,1.8,4.8,1l2.7,4.8c0.2,0.3,0.6,0.5,1,0.3l0,0C113.7-244.02,113.9-244.42,113.6-244.82z"/>
		<path class="st23" d="M105.3-237.52l-4.2-3.6c1-1.6,0.9-3.6-0.3-4.6c-1.4-1.2-3.8-0.7-5.2,1c-1.5,1.8-1.6,4.2-0.1,5.3
			c1.3,1.1,3.3,0.8,4.8-0.6l4.1,3.6c0.3,0.3,0.8,0.2,1-0.1l0,0C105.7-236.82,105.6-237.22,105.3-237.52z"/>
		<path class="st23" d="M98.7-228.72l-5.2-1.9c0.3-1.9-0.4-3.7-2-4.2c-1.7-0.6-3.8,0.6-4.5,2.8c-0.8,2.2,0,4.4,1.7,5.1
			c1.6,0.6,3.4-0.5,4.3-2.3l5.1,1.9c0.4,0.1,0.8-0.1,0.9-0.4l0,0C99.2-228.12,99-228.52,98.7-228.72z"/>
		<path class="st23" d="M97.2-220.62l-5,2.3c-1.1-1.6-2.9-2.3-4.4-1.5c-1.6,0.8-2.2,3.1-1.2,5.2s3.2,3.1,4.8,2.3
			c1.5-0.7,2-2.7,1.4-4.7l5-2.3c0.4-0.2,0.5-0.6,0.3-1l0,0C97.9-220.62,97.5-220.72,97.2-220.62z"/>
		<path class="st23" d="M102-212.52l-2.4,5c-1.8-0.5-3.7,0.1-4.4,1.6c-0.8,1.7,0.3,3.8,2.4,4.8s4.4,0.4,5.2-1.3
			c0.7-1.5-0.1-3.4-1.9-4.5l2.4-4.9c0.2-0.3,0-0.8-0.3-1l0,0C102.6-213.02,102.1-212.92,102-212.52z"/>
		<path class="st23" d="M110.4-212.12l1.8,5.2c-1.7,1-2.5,2.7-2,4.2c0.6,1.7,2.9,2.5,5.1,1.7s3.4-2.9,2.8-4.6
			c-0.6-1.6-2.5-2.3-4.5-1.8l-1.8-5.2c-0.1-0.4-0.5-0.6-0.9-0.4l0,0C110.5-212.92,110.3-212.52,110.4-212.12z"/>
		<path class="st23" d="M118.9-217.82l3.7,4.1c-1.2,1.5-1.3,3.5-0.2,4.6c1.2,1.4,3.6,1.2,5.3-0.4s2-3.9,0.8-5.3
			c-1.1-1.2-3.2-1.2-4.9,0l-3.7-4.1c-0.3-0.3-0.7-0.3-1-0.1l0,0C118.6-218.62,118.6-218.12,118.9-217.82z"/>
		<path class="st23" d="M128.2-226.92l3.7,4.1c-1.2,1.5-1.3,3.5-0.2,4.6c1.2,1.4,3.6,1.2,5.3-0.4s2-3.9,0.8-5.3
			c-1.1-1.2-3.2-1.2-4.9,0l-3.7-4.1c-0.3-0.3-0.7-0.3-1-0.1l0,0C128-227.62,127.9-227.22,128.2-226.92z"/>
		<path class="st23" d="M142.9-234.12l1,5.5c-1.8,0.7-2.9,2.3-2.6,3.8c0.3,1.8,2.5,2.9,4.7,2.5c2.3-0.4,3.8-2.3,3.5-4.1
			c-0.3-1.6-2.1-2.7-4.1-2.5l-1-5.4c-0.1-0.4-0.4-0.7-0.8-0.6l0,0C143.1-234.92,142.8-234.52,142.9-234.12z"/>
		<path class="st23" d="M156.1-235.32l0.5,5.5c-1.8,0.5-3.1,2-3,3.6c0.2,1.8,2.2,3.1,4.5,2.9s4-1.9,3.8-3.8
			c-0.2-1.7-1.9-2.9-3.9-2.9l-0.5-5.5c0-0.4-0.4-0.7-0.8-0.7l0,0C156.3-236.02,156-235.72,156.1-235.32z"/>
		<path class="st23" d="M167.3-237.82l3.9,3.9c-1.1,1.6-1.1,3.5,0,4.6c1.3,1.3,3.7,1,5.3-0.7c1.6-1.6,1.8-4,0.5-5.3
			c-1.2-1.2-3.3-1-4.8,0.3l-3.9-3.9c-0.3-0.3-0.7-0.3-1,0l0,0C167.1-238.52,167.1-238.12,167.3-237.82z"/>
		<path class="st23" d="M172.4-245.82l5.5,0.6c0.1,1.9,1.4,3.4,3,3.6c1.8,0.2,3.5-1.6,3.7-3.9s-1.1-4.3-3-4.4
			c-1.7-0.1-3.2,1.3-3.6,3.3l-5.5-0.6c-0.4,0-0.8,0.3-0.8,0.6l0,0C171.8-246.22,172.1-245.82,172.4-245.82z"/>
		<path class="st23" d="M157.4-259.02l1.4-5.4c1.9,0.1,3.6-0.9,4-2.4c0.4-1.8-1.1-3.7-3.3-4.2c-2.3-0.5-4.4,0.5-4.8,2.3
			c-0.4,1.6,0.8,3.3,2.7,4l-1.3,5.3c-0.1,0.4,0.1,0.8,0.5,0.9l0,0C157-258.42,157.4-258.62,157.4-259.02z"/>
		<path class="st23" d="M168-254.92l3.7-4.1c1.6,1,3.6,0.9,4.6-0.3c1.2-1.4,0.8-3.7-1-5.3c-1.8-1.5-4.1-1.6-5.3-0.2
			c-1.1,1.3-0.8,3.3,0.6,4.8l-3.6,4.1c-0.3,0.3-0.2,0.8,0.1,1l0,0C167.3-254.52,167.8-254.62,168-254.92z"/>
		<path class="st23" d="M160.3-243.92l-7.7-1.1c-1-0.1-1.7-1.1-1.6-2.1l0,0c0.1-1,1.1-1.7,2.1-1.6l7.7,1.1c1,0.1,1.7,1.1,1.6,2.1
			l0,0C162.3-244.52,161.3-243.82,160.3-243.92z"/>
		<path class="st23" d="M128.1-233.02l-7.4,1.6c-1,0.2-1.9-0.4-2.2-1.4l0,0c-0.2-1,0.4-1.9,1.4-2.2l7.4-1.6c1-0.2,1.9,0.4,2.2,1.4
			l0,0C129.6-234.22,129-233.32,128.1-233.02z"/>
		<path class="st23" d="M106.5-223.32c-0.2-0.1-0.4-0.2-0.6-0.4c-0.5-0.4-0.8-0.9-0.8-1.5c-0.1-0.6,0.1-1.2,0.5-1.6l4.2-5.1
			c0.8-0.9,2.2-1,3.1-0.3c0.5,0.4,0.8,0.9,0.8,1.5c0.1,0.6-0.1,1.2-0.5,1.6l-4.2,5.1C108.3-223.22,107.4-222.92,106.5-223.32z
			 M111.8-231.42c-0.4-0.1-0.8,0-1.1,0.3l-4.2,5.1c-0.2,0.2-0.2,0.5-0.2,0.7s0.1,0.5,0.3,0.7c0.1,0.1,0.2,0.1,0.3,0.2
			c0.4,0.1,0.8,0,1.1-0.3l4.2-5.1c0.2-0.2,0.3-0.5,0.2-0.7c0-0.3-0.1-0.5-0.3-0.7C112-231.32,111.9-231.32,111.8-231.42z"/>
		<path class="st23" d="M131.7-243.02c-0.4-0.2-0.8-0.5-1.1-0.9c-0.3-0.5-0.4-1.1-0.3-1.7c0.1-0.6,0.5-1.1,1-1.4l5.6-3.6
			c1-0.6,2.4-0.3,3,0.6c0.3,0.5,0.4,1.1,0.3,1.7c-0.1,0.6-0.5,1.1-1,1.4l-5.6,3.6C133.1-242.82,132.4-242.72,131.7-243.02z
			 M138.4-249.62c-0.3-0.1-0.6-0.1-0.9,0.1l-5.6,3.6c-0.2,0.1-0.4,0.4-0.4,0.6s0,0.5,0.1,0.8c0.3,0.5,0.9,0.6,1.4,0.3l5.6-3.6
			c0.2-0.1,0.4-0.4,0.4-0.6s0-0.5-0.1-0.8C138.7-249.42,138.6-249.52,138.4-249.62z"/>
		<path class="st25" d="M147.7-240.32c-0.3,0.9-1.4,1.4-2.3,1.1c-0.9-0.3-1.4-1.4-1.1-2.3c0.3-0.9,1.4-1.4,2.3-1.1
			S148-241.22,147.7-240.32z"/>
		<path class="st25" d="M147-246.62c-0.2,0.5-0.8,0.8-1.3,0.6c-0.5-0.2-0.8-0.8-0.6-1.3s0.8-0.8,1.3-0.6
			C147-247.72,147.2-247.12,147-246.62z"/>
		<path class="st25" d="M159.9-250.92c-0.3,0.8-1.1,1.1-1.8,0.8c-0.7-0.3-1.1-1.1-0.8-1.8c0.3-0.8,1.1-1.1,1.8-0.8
			S160.2-251.62,159.9-250.92z"/>
		<path class="st25" d="M123.1-241.82c-0.3,1-1.4,1.4-2.4,1.1s-1.4-1.4-1.1-2.4s1.4-1.4,2.4-1.1
			C123-243.82,123.5-242.82,123.1-241.82z"/>
		<path class="st25" d="M114.8-219.72c-0.3,0.9-1.4,1.4-2.3,1.1s-1.4-1.4-1.1-2.3s1.4-1.4,2.3-1.1S115.2-220.72,114.8-219.72z"/>
		<path class="st25" d="M113.9-237.52c-0.2,0.4-0.6,0.6-1,0.5c-0.4-0.2-0.6-0.6-0.5-1c0.2-0.4,0.6-0.6,1-0.5
			S114-238.02,113.9-237.52z"/>
		<path class="st25" d="M107.2-217.32c-0.3,0.8-1.2,1.3-2.1,1c-0.8-0.3-1.3-1.2-1-2.1c0.3-0.8,1.2-1.3,2.1-1
			C107-219.12,107.5-218.12,107.2-217.32z"/>
		<path class="st25" d="M168.8-247.12c-0.2,0.5-0.8,0.8-1.3,0.6c-0.5-0.2-0.8-0.8-0.6-1.3s0.8-0.8,1.3-0.6
			S168.9-247.62,168.8-247.12z"/>
		<path class="st25" d="M139.1-238.02c-0.4,1-1.6,1.6-2.6,1.2s-1.6-1.6-1.2-2.6s1.6-1.6,2.6-1.2
			C139-240.22,139.5-239.02,139.1-238.02z"/>
		<path class="st25" d="M146.6-252.22c-0.1,0.4-0.6,0.6-1,0.5s-0.6-0.6-0.5-1s0.6-0.6,1-0.5C146.6-253.02,146.8-252.62,146.6-252.22
			z"/>
	</g>
	<g class="st6">
		<path class="st23" d="M129.5-323.82c-8.2-0.5-20.5,2.4-30.5,11.7c-0.2,0.1-0.3,0.3-0.4,0.4c-10.2,9.4-13.9,21.8-13.9,30.1
			c-0.1,10.2,4.7,15.8,9.2,15.9h0.2c2.6-0.1,5.1-1.4,7.9-4.1c2.2-2.1,4.4-4.8,6.7-7.7c3.1-3.8,6.7-8.2,10.9-11.9l0.1-0.1l0.1-0.1
			c3.9-4,8.5-7.3,12.5-10.2c3-2.2,5.9-4.2,8.1-6.3c2.8-2.7,4.2-5.1,4.5-7.6v-0.2C145-318.22,139.7-323.32,129.5-323.82z"/>
		<path class="st24" d="M142.4-313.82c-0.8,7.1-14.5,12.5-24.4,22.6c-10.7,9.2-16.9,22.6-24,23c-3.3-0.1-7-5.1-6.9-13.5
			c0-8.2,3.8-19.7,13.1-28.3c9.1-8.9,20.9-11.9,29.1-11.5C137.8-321.02,142.5-317.12,142.4-313.82z"/>
		<path class="st23" d="M109.7-317.92c-0.1,0.1-0.3,0.2-0.5,0.1c-0.3-0.1-0.4-0.3-0.3-0.6c0.9-3.1-0.7-4.8-2.3-6.6
			c-1.6-1.7-3.1-3.4-1.6-6c0.1-0.2,0.4-0.3,0.7-0.2c0.2,0.1,0.3,0.4,0.2,0.7c-1.1,1.9-0.2,3,1.5,4.9c1.6,1.7,3.6,3.9,2.5,7.5
			C109.8-318.02,109.8-317.92,109.7-317.92z"/>
		<path class="st23" d="M116-319.92c-0.2,0.1-0.4,0.2-0.6,0.1s-0.3-0.5-0.1-0.7c1-1.6,0-4.6-0.8-7.3c-0.8-2.6-1.6-4.9-0.7-6.1
			c0.1-0.2,0.5-0.3,0.7-0.1c0.2,0.1,0.3,0.5,0.1,0.7c-0.6,0.8,0.1,3.1,0.8,5.3C116.3-325.12,117.3-322.02,116-319.92
			C116.1-320.02,116.1-320.02,116-319.92z"/>
		<path class="st23" d="M122.5-321.82C122.5-321.72,122.4-321.72,122.5-321.82c-0.3,0.2-0.6,0.1-0.8-0.1c-1.4-2.1-1-4.7-0.7-7.2
			c0.3-2.4,0.7-4.8-0.8-6.1c-0.2-0.2-0.2-0.5,0-0.7s0.5-0.2,0.7,0c1.9,1.7,1.5,4.4,1.1,7c-0.3,2.3-0.7,4.7,0.5,6.5
			C122.7-322.22,122.7-321.92,122.5-321.82z"/>
		<path class="st23" d="M129-322.22c-0.1,0.1-0.3,0.2-0.5,0.1c-0.3-0.1-0.4-0.3-0.3-0.6c1-3.3-0.1-6.2-1-8.5c-0.8-1.9-1.4-3.6-0.6-5
			c0.1-0.2,0.4-0.3,0.7-0.2c0.2,0.1,0.3,0.4,0.2,0.7c-0.6,1,0,2.4,0.6,4.2c1,2.5,2.1,5.5,1,9.2
			C129.2-322.32,129.1-322.22,129-322.22z"/>
		<path class="st23" d="M135.4-321.32c-0.2,0.1-0.4,0.2-0.6,0.1c-0.2-0.1-0.3-0.5-0.1-0.7c1.7-2.6,1.2-5.7,0.8-8.4
			c-0.4-2.4-0.7-4.5,0.4-5.8c0.2-0.2,0.5-0.2,0.7-0.1c0.2,0.2,0.2,0.5,0.1,0.7c-0.9,1-0.6,2.9-0.2,5.1
			C136.9-327.52,137.5-324.22,135.4-321.32C135.5-321.32,135.5-321.32,135.4-321.32z"/>
		<path class="st23" d="M139.8-320.12c-0.2,0.2-0.5,0.2-0.7,0s-0.2-0.5,0-0.7c0.1-0.1,5.6-5.5,5.9-11.7c0-0.3,0.2-0.5,0.5-0.5
			s0.5,0.2,0.5,0.5C145.7-325.92,140.1-320.42,139.8-320.12L139.8-320.12z"/>
		<path class="st23" d="M153.3-324.82c-0.1,0.1-0.2,0.1-0.3,0.1c-2.5,0.3-3.3,1.6-4.3,3.2c-1.2,1.8-2.5,3.9-6.4,5
			c-0.3,0.1-0.5-0.1-0.6-0.3c-0.1-0.3,0.1-0.5,0.3-0.6c3.5-1,4.7-2.8,5.8-4.6c1.1-1.7,2.1-3.3,5-3.6c0.3,0,0.5,0.2,0.5,0.4
			C153.5-325.12,153.5-324.92,153.3-324.82z"/>
		<path class="st23" d="M157.4-314.62c-0.1,0.1-0.3,0.2-0.5,0.1c-5.4-1.4-12.8,2.4-12.9,2.5c-0.2,0.1-0.5,0-0.7-0.2s0-0.5,0.2-0.7
			c0.3-0.2,7.9-4.1,13.6-2.5c0.3,0.1,0.4,0.3,0.3,0.6C157.5-314.72,157.4-314.72,157.4-314.62z"/>
		<path class="st23" d="M154.2-304.92c-0.1,0.1-0.1,0.1-0.2,0.1c-3.7,1-5.7,0-7.8-1.1c-1.5-0.8-3-1.6-5.4-1.8
			c-0.3,0-0.5-0.3-0.4-0.5s0.3-0.5,0.5-0.4c2.6,0.3,4.2,1.2,5.7,1.9c2.1,1.1,3.7,1.9,7.1,1c0.3-0.1,0.5,0.1,0.6,0.3
			C154.3-305.22,154.3-305.02,154.2-304.92z"/>
		<path class="st23" d="M148.3-298.82c-0.1,0.1-0.2,0.1-0.3,0.1c-0.3,0-0.5-0.2-0.5-0.5c0-0.9-0.6-1-2.9-1c-2.5,0-6.3-0.1-9.7-3.3
			c-0.2-0.2-0.2-0.5,0-0.7s0.5-0.2,0.7,0c3.1,3,6.5,3,9,3.1c2,0,3.8,0.1,3.8,2C148.4-299.02,148.4-298.92,148.3-298.82z"/>
		<path class="st23" d="M142.2-293.72c-0.1,0.1-0.2,0.1-0.3,0.1c-0.3,0-0.5-0.1-0.5-0.4c-0.2-1.2-1.9-1.5-4.6-1.9
			c-2.5-0.3-5.6-0.8-7.9-2.5c-0.2-0.2-0.3-0.5-0.1-0.7s0.5-0.3,0.7-0.1c2.1,1.6,4.9,2,7.4,2.3c2.8,0.4,5.1,0.7,5.4,2.7
			C142.4-293.92,142.3-293.82,142.2-293.72z"/>
		<path class="st23" d="M136.1-289.02c-0.1,0.1-0.2,0.1-0.3,0.1c-0.3,0-0.5-0.1-0.6-0.4c-0.2-1.1-0.9-1.1-2.8-1.2
			c-2.3-0.1-5.7-0.2-9.7-3.2c-0.2-0.2-0.3-0.5-0.1-0.7c0.2-0.2,0.5-0.3,0.7-0.1c3.7,2.8,6.8,2.9,9.1,3c1.8,0.1,3.4,0.1,3.8,2
			C136.2-289.32,136.2-289.22,136.1-289.02z"/>
		<path class="st23" d="M131.2-283.32c-0.1,0.1-0.1,0.1-0.2,0.1c-0.3,0.1-0.5-0.1-0.6-0.4c-0.7-3.3-9-4.2-12.2-4.3
			c-0.3,0-0.5-0.2-0.5-0.5s0.2-0.5,0.5-0.5c0.5,0,12.1,0.3,13.1,5.1C131.4-283.62,131.3-283.42,131.2-283.32z"/>
		<path class="st23" d="M127.7-279.32c-0.1,0.1-0.1,0.1-0.2,0.1c-3.1,0.7-12.7-4.1-13.8-4.6c-0.2-0.1-0.3-0.4-0.2-0.7
			s0.4-0.3,0.7-0.2c2.9,1.4,10.8,5.1,13.2,4.5c0.3-0.1,0.5,0.1,0.6,0.4C127.9-279.62,127.8-279.42,127.7-279.32z"/>
		<path class="st23" d="M123.7-274.72c-0.1,0.1-0.2,0.1-0.3,0.1c-3.3,0.5-5.2-0.6-7.2-1.9c-1.8-1.1-3.7-2.3-6.9-2.5
			c-0.3,0-0.5-0.3-0.5-0.5c0-0.3,0.3-0.5,0.5-0.5c3.5,0.2,5.6,1.5,7.4,2.6c1.9,1.2,3.6,2.2,6.5,1.7c0.3,0,0.5,0.1,0.6,0.4
			C123.9-275.02,123.8-274.82,123.7-274.72z"/>
		<path class="st23" d="M118.1-269.22L118.1-269.22c-0.3,0.2-0.6,0.1-0.7-0.1c-2.7-3.8-12.2-4.5-12.3-4.5c-0.3,0-0.5-0.3-0.5-0.5
			c0-0.3,0.3-0.5,0.5-0.5c0.4,0,10.1,0.7,13,4.9C118.3-269.62,118.3-269.42,118.1-269.22z"/>
		<path class="st23" d="M112.9-264.22c-0.1,0.1-0.1,0.1-0.2,0.1c-0.3,0.1-0.5-0.1-0.6-0.3c-0.5-2.1-2.8-2.3-5.4-2.7
			c-2.6-0.3-5.3-0.7-6.5-3c-0.1-0.2,0-0.5,0.2-0.7c0.2-0.1,0.5,0,0.7,0.2c0.9,1.8,3.2,2.1,5.7,2.4c2.7,0.3,5.5,0.7,6.2,3.4
			C113.1-264.52,113-264.32,112.9-264.22z"/>
		<path class="st23" d="M102.7-254.62c-0.2,0.2-0.5,0.2-0.6,0c-0.2-0.2-0.2-0.5-0.1-0.7c3.6-4.4-4.8-11.8-4.9-11.9
			c-0.2-0.2-0.2-0.5-0.1-0.7c0.2-0.2,0.5-0.2,0.7-0.1C98.1-267.62,107-259.92,102.7-254.62C102.8-254.62,102.8-254.62,102.7-254.62z
			"/>
		<path class="st23" d="M89.9-253.92c-0.1,0.1-0.3,0.2-0.5,0.1c-0.4-0.2-0.7-0.5-0.9-0.9c-0.5-1.2,0.6-3.2,2-5.7
			c1.2-2.2,2.6-4.7,2.6-6.4c0-0.3,0.2-0.5,0.5-0.5s0.5,0.2,0.5,0.5c0,2-1.4,4.5-2.7,6.9c-1.1,1.9-2.3,4.1-2,4.9
			c0,0.1,0.1,0.2,0.3,0.3c0.3,0.1,0.4,0.4,0.3,0.6C90-254.02,90-253.92,89.9-253.92z"/>
		<path class="st23" d="M87.3-264.52c-1.1,1-2.1,1.7-3.1,2.3c-1.4,0.9-2.5,1.6-3,3c-0.1,0.3-0.4,0.4-0.6,0.3
			c-0.3-0.1-0.4-0.4-0.3-0.6c0.6-1.7,1.9-2.5,3.4-3.5c1.8-1.2,4.1-2.7,5.9-6.4c0.1-0.2,0.4-0.3,0.7-0.2c0.2,0.1,0.3,0.4,0.2,0.7
			C89.5-266.92,88.4-265.52,87.3-264.52z"/>
		<path class="st23" d="M80.8-268.32c-1,1-2.5,1.8-4.8,2.4c-0.3,0.1-0.5-0.1-0.6-0.4s0.1-0.5,0.4-0.6c3.9-1,5-2.6,6.1-4.4
			c0.9-1.4,1.9-2.9,4.2-4.1c0.2-0.1,0.5,0,0.7,0.2s0,0.5-0.2,0.7c-2.1,1.1-3,2.4-3.8,3.8C82.2-269.92,81.6-269.02,80.8-268.32z"/>
		<path class="st23" d="M83.6-277.92c-1.7,1.6-3.4,2.1-5,2.6c-1.4,0.4-2.8,0.8-3.9,1.9l0,0c-0.2,0.2-0.5,0.2-0.7,0s-0.2-0.5,0-0.7
			c1.3-1.3,2.8-1.7,4.3-2.1c2.4-0.7,4.8-1.4,6.9-5.4c0.1-0.2,0.4-0.3,0.7-0.2c0.2,0.1,0.3,0.4,0.2,0.7
			C85.3-279.82,84.5-278.72,83.6-277.92z"/>
		<path class="st23" d="M87-287.32c-0.1,0.1-0.1,0.1-0.2,0.1c-3.5,0.7-5.7,2.4-7.4,3.7c-1.8,1.3-3.1,2.3-4.8,1.4
			c-0.2-0.1-0.3-0.4-0.2-0.7c0.1-0.2,0.4-0.3,0.7-0.2c1.1,0.6,2,0,3.8-1.3c1.7-1.3,4.1-3.1,7.8-3.8c0.3-0.1,0.5,0.1,0.6,0.4
			C87.2-287.62,87.1-287.42,87-287.32z"/>
		<path class="st23" d="M87.6-292.32L87.6-292.32c-2.3,1.8-4.3,1.1-6.4,0.3c-1.8-0.7-3.8-1.4-6.5-0.8c-0.3,0.1-0.5-0.1-0.6-0.4
			s0.1-0.5,0.4-0.6c3-0.7,5.2,0.1,7.1,0.8c2.1,0.8,3.6,1.3,5.4-0.2c0.2-0.2,0.5-0.1,0.7,0.1C87.8-292.82,87.8-292.52,87.6-292.32z"
			/>
		<path class="st23" d="M91.3-299.02c-0.2,0.2-0.5,0.2-0.7,0c-1.9-1.8-5.5-1.1-8.3-0.6c-2.5,0.5-4.4,0.9-5.2-0.3
			c-0.1-0.2-0.1-0.5,0.1-0.7c0.2-0.1,0.5-0.1,0.7,0.1c0.4,0.6,2.3,0.2,4.2-0.1c3.1-0.6,6.9-1.3,9.2,0.8
			C91.5-299.62,91.5-299.22,91.3-299.02C91.4-299.02,91.3-299.02,91.3-299.02z"/>
		<path class="st23" d="M95.2-306.02c-0.1,0.1-0.3,0.2-0.5,0.1c-3-0.8-11.3-2.4-13,0c-0.1,0.2-0.5,0.3-0.7,0.1
			c-0.2-0.1-0.3-0.5-0.1-0.7c2.4-3.4,12.8-0.7,14-0.4c0.3,0.1,0.4,0.3,0.3,0.6C95.3-306.22,95.3-306.12,95.2-306.02z"/>
		<path class="st23" d="M99.5-310.42C99.5-310.32,99.5-310.32,99.5-310.42c-0.3,0.2-0.6,0.1-0.7-0.1c-1.9-2.7-4.6-3.3-7-3.8
			c-2.2-0.5-4.2-1-4.8-3.1c-0.1-0.3,0.1-0.5,0.3-0.6c0.3-0.1,0.5,0.1,0.6,0.3c0.4,1.5,1.8,1.8,4.1,2.4c2.4,0.5,5.4,1.2,7.6,4.2
			C99.7-310.82,99.7-310.52,99.5-310.42z"/>
		<path class="st23" d="M104.7-314.42C104.6-314.42,104.6-314.42,104.7-314.42c-0.3,0.2-0.6,0.1-0.8-0.1c-1.2-1.9-2.5-3-3.8-4
			c-1.9-1.6-3.6-3-3.3-6.5c0-0.3,0.3-0.5,0.5-0.4s0.5,0.3,0.4,0.5c-0.3,3,1.1,4.1,2.9,5.6c1.3,1,2.7,2.2,4,4.2
			C104.9-314.82,104.8-314.62,104.7-314.42z"/>
		<g>
			<path class="st23" d="M121.3-313.52c1.7,1.8,1.6,4.5-0.2,6.2c-1.8,1.7-4.5,1.6-6.2-0.2c-1.7-1.8-1.6-4.5,0.2-6.2
				C116.9-315.32,119.7-315.32,121.3-313.52z"/>
		</g>
		<path class="st25" d="M108.9-301.82c0.8,0.8,0.8,2.1-0.1,2.9c-0.8,0.8-2.1,0.8-2.9-0.1s-0.8-2.1,0.1-2.9
			C106.8-302.62,108.1-302.62,108.9-301.82z"/>
		<path class="st25" d="M109.7-290.52c0.7,0.7,0.6,1.8-0.1,2.4c-0.7,0.7-1.8,0.6-2.4-0.1c-0.7-0.7-0.6-1.8,0.1-2.4
			C107.9-291.22,109-291.22,109.7-290.52z"/>
		<path class="st25" d="M99.3-286.02c0.4,0.4,0.4,1.1,0,1.4c-0.4,0.4-1.1,0.4-1.4,0c-0.4-0.4-0.4-1.1,0-1.4
			C98.3-286.52,98.9-286.42,99.3-286.02z"/>
		<path class="st25" d="M96.1-294.02c0.3,0.3,0.3,0.7,0,1s-0.7,0.3-1,0s-0.3-0.7,0-1S95.8-294.32,96.1-294.02z"/>
		<path class="st25" d="M94.4-290.22c0.6,0.6,0.6,1.6-0.1,2.2c-0.6,0.6-1.6,0.6-2.2-0.1c-0.6-0.6-0.6-1.6,0.1-2.2
			C92.8-290.92,93.8-290.92,94.4-290.22z"/>
		<path class="st25" d="M96.3-275.82c0.6,0.6,0.6,1.6-0.1,2.2c-0.6,0.6-1.6,0.6-2.2-0.1s-0.6-1.6,0.1-2.2
			C94.7-276.42,95.7-276.42,96.3-275.82z"/>
		<path class="st25" d="M125.6-303.42c0.6,0.6,0.6,1.6-0.1,2.2c-0.6,0.6-1.6,0.6-2.2-0.1c-0.6-0.6-0.6-1.6,0.1-2.2
			C124-304.12,125-304.12,125.6-303.42z"/>
		<path class="st25" d="M130.9-315.92c0.2,0.2,0.2,0.5,0,0.7s-0.5,0.2-0.7,0s-0.2-0.5,0-0.7S130.8-316.12,130.9-315.92z"/>
		<path class="st25" d="M136.2-312.12c0.5,0.5,0.5,1.4-0.1,1.9c-0.5,0.5-1.4,0.5-1.9-0.1c-0.5-0.5-0.5-1.4,0.1-1.9
			C134.8-312.72,135.6-312.72,136.2-312.12z"/>
		<path class="st25" d="M108.2-312.12c0.3,0.3,0.3,0.8,0,1.1c-0.3,0.3-0.8,0.3-1.1,0c-0.3-0.3-0.3-0.8,0-1.1
			C107.4-312.52,107.9-312.52,108.2-312.12z"/>
		<path class="st25" d="M98.9-303.02c0.4,0.4,0.4,1,0,1.4s-1,0.4-1.4,0s-0.4-1,0-1.4S98.5-303.42,98.9-303.02z"/>
	</g>
</g>
<g id="Teledeteccion" class="st5">
	<g class="st6">
		<path class="st10" d="M865.2-877.22c14-17.4,9.7-41.7-8.6-56.5c-18.4-14.8-44.6-12.7-58.6,4.6L865.2-877.22z"/>
		<polygon class="st10" points="877.8,-1027.02 907.9,-1066.72 959.9,-1026.52 932.1,-987.52 		"/>
		<polygon class="st10" points="835,-968.52 863.7,-1008.32 918.9,-967.42 891.4,-925.82 		"/>
		<line class="st26" x1="854.2" y1="-936.22" x2="857.8" y2="-941.32"/>
		<line class="st26" x1="803.8" y1="-865.32" x2="809" y2="-920.22"/>
		<line class="st26" x1="803.8" y1="-865.82" x2="850.8" y2="-887.92"/>
		<line class="st26" x1="830.9" y1="-903.32" x2="804.3" y2="-865.92"/>
		<circle cx="803" cy="-864.22" r="2.7"/>
		
			<rect x="856.95" y="-979.41" transform="matrix(0.6002 -0.7999 0.7999 0.6002 1099.2908 311.0672)" class="st27" width="7.7" height="70.7"/>
		
			<rect x="932.74" y="-1082.53" transform="matrix(0.6105 -0.792 0.792 0.6105 1196.1104 332.9636)" class="st28" width="7.7" height="65.8"/>
		<polygon class="st29" points="874.1,-1000.62 887.5,-1019.62 923.8,-993.82 910,-974.32 		"/>
		<line class="st26" x1="937.5" y1="-994.82" x2="954.4" y2="-981.62"/>
		<line class="st26" x1="914.3" y1="-962.02" x2="931.5" y2="-949.12"/>
		<line class="st26" x1="845.8" y1="-1010.92" x2="859.1" y2="-1002.12"/>
		<line class="st26" x1="868.5" y1="-1044.12" x2="882.7" y2="-1034.52"/>
		
			<rect x="946.36" y="-981.7" transform="matrix(0.5819 -0.8132 0.8132 0.5819 1192.9443 372.1315)" class="st30" width="24.1" height="15"/>
		
			<rect x="961.99" y="-970.68" transform="matrix(0.5819 -0.8132 0.8132 0.5819 1190.514 389.4532)" class="st30" width="24.1" height="15"/>
		
			<rect x="977.62" y="-959.79" transform="matrix(0.5819 -0.8132 0.8132 0.5819 1188.1923 406.7116)" class="st30" width="24.1" height="15"/>
		
			<rect x="993.27" y="-948.76" transform="matrix(0.5819 -0.8132 0.8132 0.5819 1185.7666 424.0472)" class="st30" width="24.1" height="15"/>
		
			<rect x="1008.97" y="-937.83" transform="matrix(0.5819 -0.8132 0.8132 0.5819 1183.4456 441.3915)" class="st30" width="24.1" height="15"/>
		
			<rect x="1024.54" y="-926.86" transform="matrix(0.5819 -0.8132 0.8132 0.5819 1181.0334 458.6366)" class="st30" width="24.1" height="15"/>
		
			<rect x="1040.25" y="-915.92" transform="matrix(0.5819 -0.8132 0.8132 0.5819 1178.6984 475.9856)" class="st30" width="24.1" height="15"/>
		
			<rect x="1055.81" y="-904.95" transform="matrix(0.5819 -0.8132 0.8132 0.5819 1176.2861 493.2307)" class="st30" width="24.1" height="15"/>
		
			<rect x="929.17" y="-956.88" transform="matrix(0.5819 -0.8132 0.8132 0.5819 1165.5745 368.5293)" class="st30" width="24.1" height="15"/>
		
			<rect x="944.74" y="-945.93" transform="matrix(0.5819 -0.8132 0.8132 0.5819 1163.1761 385.7697)" class="st30" width="24.1" height="15"/>
		
			<rect x="960.45" y="-934.98" transform="matrix(0.5819 -0.8132 0.8132 0.5819 1160.8413 403.1188)" class="st30" width="24.1" height="15"/>
		
			<rect x="976.1" y="-923.96" transform="matrix(0.5819 -0.8132 0.8132 0.5819 1158.4156 420.4544)" class="st30" width="24.1" height="15"/>
		
			<rect x="991.79" y="-913.01" transform="matrix(0.5819 -0.8132 0.8132 0.5819 1156.0758 437.7894)" class="st30" width="24.1" height="15"/>
		
			<rect x="1007.35" y="-902.05" transform="matrix(0.5819 -0.8132 0.8132 0.5819 1153.6636 455.0346)" class="st30" width="24.1" height="15"/>
		
			<rect x="1023.06" y="-891.12" transform="matrix(0.5819 -0.8132 0.8132 0.5819 1151.3425 472.3788)" class="st30" width="24.1" height="15"/>
		
			<rect x="1038.63" y="-880.15" transform="matrix(0.5819 -0.8132 0.8132 0.5819 1148.9303 489.624)" class="st30" width="24.1" height="15"/>
		
			<rect x="739.16" y="-1130.56" transform="matrix(0.5819 -0.8132 0.8132 0.5819 1227.3734 141.3938)" class="st30" width="24.1" height="15"/>
		
			<rect x="754.86" y="-1119.61" transform="matrix(0.5819 -0.8132 0.8132 0.5819 1225.0383 158.7428)" class="st30" width="24.1" height="15"/>
		
			<rect x="770.51" y="-1108.58" transform="matrix(0.5819 -0.8132 0.8132 0.5819 1222.6128 176.0784)" class="st30" width="24.1" height="15"/>
		
			<rect x="786.14" y="-1097.7" transform="matrix(0.5819 -0.8132 0.8132 0.5819 1220.291 193.3369)" class="st30" width="24.1" height="15"/>
		
			<rect x="801.79" y="-1086.67" transform="matrix(0.5819 -0.8132 0.8132 0.5819 1217.8655 210.6725)" class="st30" width="24.1" height="15"/>
		
			<rect x="817.41" y="-1075.8" transform="matrix(0.5819 -0.8132 0.8132 0.5819 1215.5576 227.9263)" class="st30" width="24.1" height="15"/>
		
			<rect x="833.06" y="-1064.77" transform="matrix(0.5819 -0.8132 0.8132 0.5819 1213.132 245.2619)" class="st30" width="24.1" height="15"/>
		
			<rect x="848.77" y="-1053.83" transform="matrix(0.5819 -0.8132 0.8132 0.5819 1210.797 262.6109)" class="st30" width="24.1" height="15"/>
		
			<rect x="722.04" y="-1105.82" transform="matrix(0.5819 -0.8132 0.8132 0.5819 1200.0988 137.8188)" class="st30" width="24.1" height="15"/>
		
			<rect x="737.69" y="-1094.79" transform="matrix(0.5819 -0.8132 0.8132 0.5819 1197.6732 155.1545)" class="st30" width="24.1" height="15"/>
		
			<rect x="753.24" y="-1083.84" transform="matrix(0.5819 -0.8132 0.8132 0.5819 1195.2701 172.3809)" class="st30" width="24.1" height="15"/>
		
			<rect x="768.95" y="-1072.89" transform="matrix(0.5819 -0.8132 0.8132 0.5819 1192.9352 189.73)" class="st30" width="24.1" height="15"/>
		
			<rect x="784.6" y="-1061.87" transform="matrix(0.5819 -0.8132 0.8132 0.5819 1190.5098 207.0657)" class="st30" width="24.1" height="15"/>
		
			<rect x="800.22" y="-1050.98" transform="matrix(0.5819 -0.8132 0.8132 0.5819 1188.1879 224.3241)" class="st30" width="24.1" height="15"/>
		
			<rect x="815.87" y="-1039.95" transform="matrix(0.5819 -0.8132 0.8132 0.5819 1185.7625 241.6598)" class="st30" width="24.1" height="15"/>
		
			<rect x="831.58" y="-1029.02" transform="matrix(0.5819 -0.8132 0.8132 0.5819 1183.4413 259.004)" class="st30" width="24.1" height="15"/>
		<path class="st29" d="M907.9-1066.72"/>
		
			<rect x="937.95" y="-1071.39" transform="matrix(0.6105 -0.792 0.792 0.6105 1203.1794 334.6143)" class="st28" width="7.7" height="30.8"/>
	</g>
</g>
</svg>
