<?xml version="1.0" encoding="utf-8"?>
<!-- Generator: Adobe Illustrator 25.4.1, SVG Export Plug-In . SVG Version: 6.00 Build 0)  -->
<svg version="1.1" xmlns="http://www.w3.org/2000/svg" xmlns:xlink="http://www.w3.org/1999/xlink" x="0px" y="0px"
	 viewBox="0 0 1170 2532" style="enable-background:new 0 0 1170 2532;" xml:space="preserve">
<style type="text/css">
	.st0{clip-path:url(#SVGID_00000029021340941468343060000003714243487223252364_);fill:#186FA8;}
	.st1{clip-path:url(#SVGID_00000029021340941468343060000003714243487223252364_);fill:#6B96B2;}
	.st2{clip-path:url(#SVGID_00000029021340941468343060000003714243487223252364_);fill:#026BB2;}
	.st3{clip-path:url(#SVGID_00000029021340941468343060000003714243487223252364_);fill:#3E84B2;}
	.st4{clip-path:url(#SVGID_00000029021340941468343060000003714243487223252364_);}
	.st5{fill:#F9CB1E;}
	.st6{fill:none;stroke:#000000;stroke-width:2.1049;stroke-miterlimit:10;}
	.st7{fill:#FACE1D;}
	.st8{fill:none;stroke:#000000;stroke-width:0.5262;stroke-miterlimit:10;}
	.st9{clip-path:url(#SVGID_00000029021340941468343060000003714243487223252364_);fill:#1573B2;}
	.st10{clip-path:url(#SVGID_00000029021340941468343060000003714243487223252364_);fill:#2D7CB2;}
	.st11{clip-path:url(#SVGID_00000029021340941468343060000003714243487223252364_);fill:#2479B2;}
	.st12{opacity:0.75;clip-path:url(#SVGID_00000029021340941468343060000003714243487223252364_);fill:#1573B2;}
	.st13{fill:none;stroke:#FACE1D;stroke-width:3.6603;stroke-miterlimit:10;}
	.st14{fill:#43CABF;}
	.st15{fill:#026BB2;}
	.st16{fill:#FFFFFF;}
	.st17{fill:none;stroke:#000000;stroke-width:0.8842;stroke-miterlimit:10;}
	.st18{fill:none;stroke:#000000;stroke-width:1.7685;stroke-miterlimit:10.0004;}
	.st19{fill:none;stroke:#000000;stroke-width:1.7684;stroke-miterlimit:9.9999;}
	.st20{fill:none;stroke:#000000;stroke-width:1.7685;stroke-miterlimit:10;}
	.st21{fill:none;stroke:#000000;stroke-width:0.8842;stroke-miterlimit:9.9995;}
</style>
<g id="Agua">
	<g>
		<defs>
			<rect id="SVGID_1_" x="-692.5" y="1250.1" width="3472" height="1364.4"/>
		</defs>
		<clipPath id="SVGID_00000117677183790655215900000011983180893020008324_">
			<use xlink:href="#SVGID_1_"  style="overflow:visible;"/>
		</clipPath>
		<path style="clip-path:url(#SVGID_00000117677183790655215900000011983180893020008324_);fill:#186FA8;" d="M182.8,1788.8
			c18-12.4,37.3-25.2,59.1-26.1c28.1-1.3,52.9,17.2,74.9,34.8c42.5,33.9,85.3,68.2,119.8,110.2c11.2,13.6,22.8,28.9,39.8,33.4
			c37.4,9.8,74.9-38,110.3-22.5c7.9,3.5,14.6,9.9,23,11.7c7,1.5,14.3-0.5,21.1-3c44.9-16.3,80.3-52.8,125.2-69.1
			c39.9-14.5,83.8-11.7,126.1-8.2c27.3,2.2,55,4.8,80.5,14.8c50.5,19.7,85.3,65.3,122,105.2c25.6,27.9,53.3,53.8,82.7,77.6
			c23.7,19.1,51.4,43.6,46,73.6c-2.2,12.1-9.6,22.5-17.6,31.8c-34.7,40.6-83.3,69.2-135.7,79.9c-62.1,12.6-126.1,0.6-188.8-8.3
			c-117.9-16.6-237-21.9-355.9-27.2c-88.6-3.9-177.2-7.9-265.8-11.8c-41.4-1.8-83-3.7-124.1,1.5c-37.7,4.7-74.6,15.3-112.5,16.7
			c-106.2,4.2-163.3-96.8-100.2-181.9C-15.8,1925.4,85.1,1855.9,182.8,1788.8z"/>
		<path style="clip-path:url(#SVGID_00000117677183790655215900000011983180893020008324_);fill:#6B96B2;" d="M-662.6,2040.2
			c-12-12.2-27.5-22.8-44.6-22.2c-13.6,24.2-14.7,53.1-15.4,80.8c-1.3,47.8-2.6,95.6-3.9,143.4c-0.3,12.7,2.6,29.4,15.2,30.9
			c5.6,0.7,10.9-2.4,16.2-4.5c17.9-7.1,37.9-3.4,57.1-3.6c44.6-0.6,142.3-53.5,128.5-107.8c-7.7-30.4-39.1-42.7-64.7-53.7
			C-612.5,2087.2-633.9,2069.6-662.6,2040.2z"/>
		<path style="clip-path:url(#SVGID_00000117677183790655215900000011983180893020008324_);fill:#6B96B2;" d="M2160.8,2082.9
			c-55.7,1.6-111.2,5.6-166.9,6.5c-50.2,0.8-100.3-0.9-150.4-4.1c-103.1-6.5-206.4-19.2-309.3-10.4c-16.4,1.4-35.3,5-43,19.6
			c20.2,14.2,45.2,19.5,69.4,24.6c36.2,7.5,72.5,15.1,108.7,22.6c49.7,10.4,99.6,20.7,150.1,25.9c61.7,6.4,123.8,5,185.8,6.9
			c170,5.2,338.1,35.1,506.3,60.6c88,13.3,179.2,25.3,265,1.4c9.3-2.6,12.2-55.9,12.5-64.3c0.6-16.6,2.8-32.4-12.3-41.1
			c-16.7-9.7-53.6-7.5-72.8-10c-24.4-3.2-48.8-6.3-73.1-9.3c-99.1-12.2-198.5-22.4-298.3-27.1
			C2275.3,2082.1,2218,2081.2,2160.8,2082.9z"/>
		<path style="clip-path:url(#SVGID_00000117677183790655215900000011983180893020008324_);fill:#026BB2;" d="M-753.5,2282.7
			c33.4-71.9,130.3-81.6,196.4-125.4c57.9-38.4,92.8-104.9,151.2-142.5c38.4-24.7,85.5-36,118.9-67.1c7.5-7,14.7-15.3,24.6-18.3
			c12.2-3.8,25.2,1.3,37,6.2c99.2,40.7,203.3,69.8,309.3,86.2c61.8,9.6,124.4,15,186.8,11.3c36.9-2.2,73.8-7.5,110.7-5.9
			c44.8,1.9,88.4,13.9,132.4,22.5c142.3,28,290.4,21.7,430.4,59.4c84,22.6,162.9,60.5,240.9,99c16.8,8.3,36.1,20.8,34.9,39.5
			c13.4,16.2,26.6,47.9,10.7,61.6c-7.4,6.3-18,6.6-27.8,6.9c-164,5.5-305.2,126.3-468.5,142.2c-58.4,5.7-117.1-2.4-175.2-10.4
			c-111.2-15.4-222.4-30.7-333.6-46.1c-80.6-11.1-167.1-21.3-239.5,15.6c-230.5,117.6-514.1,53.3-772.9,55.1
			C-818.3,2416.6-780.6,2341.1-753.5,2282.7z"/>
		<path style="clip-path:url(#SVGID_00000117677183790655215900000011983180893020008324_);fill:#3E84B2;" d="M1396.8,2092.7
			c22,35.2,27.8,79.6,54.5,111.3c23.8,28.2,60.5,42,96.6,49.7c36.1,7.7,73.3,10.6,108.2,22.6c24.4,8.4,47.4,21.3,72.6,26.8
			c19.8,4.3,40.2,4,60.4,2.4c76-5.9,149.6-29.1,224.9-41c97.4-15.4,198.1-12.1,292.8-39.6c5.9-1.7,12.2-3.8,16-8.7
			c7.3-9.4,0.9-23.9-9.1-30.4c-10-6.4-22.4-7.6-33.8-11c-17.7-5.2-33.2-15.8-49.5-24.6c-51.7-28.1-112.6-39-170.9-30.5
			c-17.9,2.6-35.8,7-53.9,6.4c-22.5-0.8-44.1-9.4-66.6-9.9c-37.8-0.8-75.6,21.3-112,10.9c-17.7-5-33.6-17.5-52-17.8
			c-22.2-0.3-43.8,17.5-64.9,10.6c-12.1-4-20.1-15-28.7-24.3c-8.7-9.3-20.8-17.8-33.1-14.6c-10.6,2.8-17.5,13.6-27.8,17.3
			c-7.6,2.7-16,1.2-23.9-0.3c-39.6-7.5-80-15.4-115-35.4c-11.8-6.8-23.7-15.1-37.3-15.6c-13.6-0.4-28.6,11.9-24.5,25
			c-2.8,4-11.3,7.3-15.3,10.1C1400.5,2084.9,1394.2,2088.6,1396.8,2092.7z"/>
		<g style="clip-path:url(#SVGID_00000117677183790655215900000011983180893020008324_);">
			<path class="st5" d="M854.8,1776.5l37.8,57.2c0.8,1.2,2.6,1.2,3.4,0l36.7-54c0.4-0.6,1-0.9,1.7-0.9h8.1c1,0,1.8,0.7,2,1.6
				l39,186.2c0.3,1.3-0.7,2.5-2,2.5h-27c-1.1,0-1.9-0.8-2.1-1.8l-17.6-149.6c-0.2-1.9-2.7-2.5-3.8-0.9l-35.6,55.7
				c-0.8,1.3-2.7,1.3-3.5,0l-36.6-55.7c-1.1-1.6-3.6-1-3.8,0.9L837,1967.7c-0.1,1.1-1,1.9-2.1,1.9h-27.2c-1.3,0-2.3-1.1-2-2.4
				l30.8-189.9c0.2-1,1-1.7,2-1.7h14.5C853.8,1775.6,854.4,1775.9,854.8,1776.5z"/>
			<line class="st6" x1="937.7" y1="1619.4" x2="937.7" y2="1702.8"/>
			<rect x="822.7" y="1760.4" class="st7" width="143.1" height="22.8"/>
			<line class="st6" x1="897.6" y1="1591.6" x2="897.6" y2="1702.9"/>
			<rect x="828.2" y="1702.9" class="st7" width="132.3" height="57.5"/>
			<circle class="st6" cx="936.6" cy="1598.8" r="20.6"/>
			<g>
				<path class="st7" d="M897.5,1589.7c-10,10.1-19.8,19.8-29.4,29.4c-6.6-6.6-13.1-13.1-19.6-19.6c9.5-9.5,19.3-19.3,29.2-29.2
					c-10-10-19.9-19.8-29.6-29.5c6.7-6.7,13.2-13.2,19.6-19.6c9.7,9.7,19.4,19.4,29.2,29.2c10-10,19.8-19.8,29.4-29.4
					c6.8,6.8,13.3,13.3,19.8,19.8c-9.5,9.5-19.3,19.3-29,29c10,10,19.8,19.8,29.4,29.4c-6.8,6.8-13.3,13.3-19.7,19.7
					C917.1,1609.4,907.4,1599.6,897.5,1589.7z"/>
			</g>
			<path class="st7" d="M1021.8,1968.9c0,73.2-59.4,132.6-132.6,132.6s-132.6-59.4-132.6-132.6H1021.8z"/>
			<polygon class="st6" points="794.1,1952.8 810.4,1856 971.4,1856 992.6,1955.2 			"/>
			<line class="st8" x1="810.4" y1="1868.2" x2="973.9" y2="1868.2"/>
			<line class="st8" x1="807.9" y1="1886.9" x2="978" y2="1886.9"/>
			<line class="st8" x1="802.3" y1="1905.6" x2="980.4" y2="1905.6"/>
			<line class="st8" x1="799" y1="1923.5" x2="985.3" y2="1923.5"/>
			<line class="st8" x1="795.7" y1="1942.2" x2="988.5" y2="1942.2"/>
			<line class="st8" x1="831.5" y1="1856.8" x2="822.1" y2="1952.5"/>
			<line class="st8" x1="859.2" y1="1856.3" x2="860" y2="1954.4"/>
			<line class="st8" x1="892.5" y1="1856" x2="894.2" y2="1953.6"/>
			<line class="st8" x1="929.1" y1="1855.2" x2="930" y2="1952.8"/>
			<line class="st8" x1="961.7" y1="1856.3" x2="964.5" y2="1954.6"/>
		</g>
		<path style="clip-path:url(#SVGID_00000117677183790655215900000011983180893020008324_);fill:#1573B2;" d="M928.9,2059
			c248.4-96.4,278.4-326.5,491.9-74.5c251.5,329.6,433.9,264.9,612.2,389.5c-99.8,2.5-201.7-30.6-304-24.6
			c-502.6,20.5-316.3,135.1-517.7,162.4c-38.6-10.6-85.8-78.8-126-105.3c-239.4-104.7-509.2,80.5-629.5-31
			c-31.7-51.6,104.2-65.4,124.9-91.9C792.9,2126.7,735.7,2138.6,928.9,2059z"/>
		<path style="clip-path:url(#SVGID_00000117677183790655215900000011983180893020008324_);fill:#3E84B2;" d="M2635.9,2192.2
			c-1.2,0.8-2.6,1.8-3,3.3c-0.8,3.1,2.8,5.4,5.9,6.4c54.4,19.2,113.2,25.6,170.5,18.7c2.2-0.3,4.5-0.6,6.2-1.9
			c1.5-1.1,2.5-2.8,3.1-4.6c2.6-7.5-0.1-15.7-2.9-23.1c-7-18.8-7.4-34.6-26.6-37.6c-15.2-2.4-38.1,4.8-53.6,7
			C2700.9,2165.3,2665.5,2172.2,2635.9,2192.2z"/>
		<path style="clip-path:url(#SVGID_00000117677183790655215900000011983180893020008324_);fill:#1573B2;" d="M2745.4,2189.7
			c-16.6-0.6-33.3-1.1-49.9-1.7c-8.1-0.3-17.9,0.4-21.7,7.5c-4.3,8,2.5,17.4,9.4,23.2c31.6,26.8,77.1,36.2,116.7,24.2
			c10.3-3.1,21.7-9.7,22.1-20.4C2823,2197,2762.2,2190.2,2745.4,2189.7z"/>
		<path style="clip-path:url(#SVGID_00000117677183790655215900000011983180893020008324_);fill:#2D7CB2;" d="M1867,2216.5
			c65.8-8,130.9-21.6,194.4-40.6c94.8-28.4,189.8-69.4,288.4-61.3c63.6,5.2,123.5,30.7,182.3,55.5c11.7,4.9,23.5,9.9,36.1,11.1
			c11.3,1.1,22.7-1,34-2c49.7-4.5,98.9,10.3,146.1,26.1c28.9,9.6,59.2,20.9,77.9,44.8c16,20.5,21.1,48.9,13.3,73.7
			c-7.7,24.8-28.1,45.2-52.8,53.2c-18.2,5.9-37.9,5.3-57.1,4.7c-173.9-5.5-348-2.9-521.6,7.7c-67.5,4.1-136,9.4-202.1-4.8
			c-41.6-9-81.4-25.5-123.5-32.1c-75.4-11.8-265.7,9.3-341.9,9.7c-2,0,17.1-22.2,20.8-27.4c10.5-14.4,115.6-79.3,161.2-90.9
			C1769.4,2231.9,1821.5,2222.1,1867,2216.5z"/>
		<path style="clip-path:url(#SVGID_00000117677183790655215900000011983180893020008324_);fill:#186FA8;" d="M2790,2374
			c-89.1-24.6-181.9-36-274.3-33.6c-60.2,1.6-120.1,8.9-180.3,9.6c-53.1,0.6-106.1-4-159-7.8c-204.4-14.4-409.5-15.5-614.4-13.2
			c-3.4,0-7.4,0.8-10.7,2.3c-9.7,4.3-20.4,5.6-30.9,4.7c-16.6-1.3-34.3-0.1-49.3,1.1c-138,10.8-276.8,10.6-414.8-0.6
			c-8.9-0.7-17.8-1.5-26.5-3.5c-8.5-2-16.7-5.1-25.1-7.7c-49.4-15.4-104.5-11.9-151.5,9.7c-5.5,2.5-9.8,7.4-10.9,13.3
			c-1.7,8.8,4.6,13.3,10.5,16.9c78.7,47.9,199.9,40.7,290.2,58.9c175.6,35.4,345.3,52.4,523.6,43.6c74.6-3.7,142.6-51.7,212.3-25
			c72.6,27.9,153.9-26.6,231.4-19.6c43.8,3.9,85.9,18.4,129,27.6c97.9,20.7,199.3,13.3,299.4,11.9c27.3-0.4,54.9-0.3,81.6,5.3
			c19.3,4,37.8,10.8,57.1,15c24.3,5.4,49.3,6.6,74.1,7.9c10,0.5,20.7,0.8,29.2-4.4c9-5.5,13.7-15.9,16.8-25.9
			C2806.1,2431.8,2798.1,2403,2790,2374z"/>
		<path style="clip-path:url(#SVGID_00000117677183790655215900000011983180893020008324_);fill:#2479B2;" d="M-482.3,2242.7
			c-26.1-12.7-54.2-25.7-83-21.6c-9.8,1.4-19.3,4.8-28.6,8.1c-16.1,5.8-32.1,11.6-48.2,17.3c-28.1,10.1-56.8,20.6-79.7,39.7
			c-22.9,19.2-39.1,49.2-33.7,78.5c1.4,7.3,4.4,14.9,10.7,18.8c3.8,2.4,8.4,3.1,12.9,3.7c48.9,6.5,99.2,1.7,146-14
			c12.2-4.1,24.3-9,36.8-11.9c19.8-4.7,40.5-4.5,60.2-9.6c16.9-4.3,80.3-29.2,82.5-49.7C-403.5,2277-464.7,2251.3-482.3,2242.7z"/>
		<path style="clip-path:url(#SVGID_00000117677183790655215900000011983180893020008324_);fill:#1573B2;" d="M-380.9,2248.8
			c24.1-8.5,50.4-17,74.5-8.6c31.3,10.8,52.7,48.1,85.8,46.3c19.2-1,34.8-15.5,53.2-21.4c52.9-16.8,101.6,40.7,157,43.7
			c27.5,1.5,53.7-10.7,80.4-17.5c58.7-15,120.4-4.3,180.7,2.1c82.9,8.7,166.7,8.9,249.6,0.5c37.8-3.8,75.6-9.5,113.5-8.8
			c49.3,0.8,97.8,12.1,145.9,23.3c33.6,7.9,67.1,15.7,100.7,23.6c50.6,11.8,101.2,23.7,151.5,36.3c174.5,43.7,347,96.9,511.5,169.4
			c32,14.1,69.1,37.7,65.7,72.6c-4.2,43.3-62.5,52.9-106,50.6c-748.3-38.2-1498.1-48.3-2247.2-30.1c1.3,0,2.8-176.7,3.2-192.9
			c1.5-61.3,15.8-98.4,80.2-115c36.1-9.3,73.8-1.9,110.4-9.6C-506,2299.9-442.6,2270.5-380.9,2248.8z"/>
		<path style="opacity:0.75;clip-path:url(#SVGID_00000117677183790655215900000011983180893020008324_);fill:#1573B2;" d="
			M-380.9,2248.8c24.1-8.5,50.4-17,74.5-8.6c31.3,10.8,52.7,48.1,85.8,46.3c19.2-1,34.8-15.5,53.2-21.4
			c52.9-16.8,101.6,40.7,157,43.7c27.5,1.5,53.7-10.7,80.4-17.5c58.7-15,120.4-4.3,180.7,2.1c82.9,8.7,166.7,8.9,249.6,0.5
			c37.8-3.8,75.6-9.5,113.5-8.8c49.3,0.8,97.8,12.1,145.9,23.3c33.6,7.9,67.1,15.7,100.7,23.6c50.6,11.8,101.2,23.7,151.5,36.3
			c174.5,43.7,347,96.9,511.5,169.4c32,14.1,69.1,37.7,65.7,72.6c-4.2,43.3-62.5,52.9-106,50.6c-748.3-38.2-1498.1-48.3-2247.2-30.1
			c1.3,0,2.8-176.7,3.2-192.9c1.5-61.3,15.8-98.4,80.2-115c36.1-9.3,73.8-1.9,110.4-9.6C-506,2299.9-442.6,2270.5-380.9,2248.8z"/>
		<path style="clip-path:url(#SVGID_00000117677183790655215900000011983180893020008324_);fill:#2479B2;" d="M763.2,2281.3
			c25,2.4,50.4,5,73.8,14.3c20.6,8.2,39,21.4,59.6,29.6c22.8,9.1,47.6,11.9,71.7,17.1c26.5,5.7,52.2,14.3,77.8,22.9
			c77,25.8,174.7,58.9,251.7,84.7c-59.6,19.3-144.1-12.6-203.2-33.3c-137.7-48.3-281.8-76.2-426.5-95.5
			c-46-6.2-92.3-11.5-138.7-11.1c-14.1,0.1-75.2,10-70.7-6.6c6.2-22.8,65.2-25.6,81.6-27.6C614.5,2266.9,689.4,2274.1,763.2,2281.3z
			"/>
		<path style="clip-path:url(#SVGID_00000117677183790655215900000011983180893020008324_);fill:#026BB2;" d="M1104.1,2582.4
			c56.2-7,141.1-73.3,179.2-115.2c16.7-18.4,33-38.3,55.1-49.8c22.8-11.9,49.5-13.6,75.2-14.6c77.7-3.2,156.3-3.1,232-21.2
			c33.9-8.1,67-19.9,101.6-23.7c63.4-6.8,126.1,13.7,188.3,27.6c98.9,22.1,201.5,27.7,302.2,16.6c41.7-4.6,87.4-11.3,122.7,11.3
			c40.8-3.9,80.3,18.4,119.6,29.9c94.4,27.5,198.1-2.4,292.8,24c8.7,2.4,17.7,5.6,24,12.1c9.4,9.8,10.5,24.7,11,38.3
			c1.3,32.3,2.6,64.6,3.9,96.8c0.2,5.3,0.3,11.1-2.6,15.5c-3.5,5.2-10.2,7.1-16.3,8.5c-99.4,22.3-202.7,11.6-304.6,11.6
			c-146.2,0.1-292.3,22.7-438.3,14.1c-91.8-5.4-183.4-23-275.2-16.9c-118.6,7.9-237.7,1.4-356.6,0.3c-55.2-0.5-110.6-1.2-165.5-7.6
			c-16.4-1.9-33.2-4.5-47.5-12.7c-14.3-8.2-25.8-23.3-25-39.8c-10.2,2.8-21.3,5.6-31.3,1.9C1139,2586,1097.9,2591.1,1104.1,2582.4z"
			/>
	</g>
</g>
<g id="boya">
</g>
<g id="Metagenomica">
	<g>
		<line class="st13" x1="561.5" y1="2029.9" x2="183.6" y2="1513.1"/>
		<line class="st13" x1="183.3" y1="1512.9" x2="453.8" y2="2040.2"/>
		<circle class="st13" cx="149.4" cy="1434.1" r="86.9"/>
	</g>
	<g>
		<path class="st14" d="M125.1,1492.5l-0.5-0.2c-2.5-1-4.4-3.2-5.3-6.4c-1.3-4.7,0-10.1,3.5-14.6c13.8-17.8,35.4-27.7,57.9-26.4
			c2,0.1,4,0.5,5.8,1.2c6.9,2.6,10.8,8.7,8.9,14l-0.1,0.2c-2.3,6.6-9.9,9.3-15.9,9c-14.5-0.8-28.4,5.5-37.3,17
			C138.5,1491,131.6,1495,125.1,1492.5z"/>
		<path class="st15" d="M179.6,1467.1c-15.2-0.8-29.9,5.9-39.1,17.8c-3.6,4.5-9.6,7.4-14.7,5.4c-0.1,0-0.1-0.1-0.2-0.1
			c-5.1-2-6.3-10.6-0.9-17.6c13.3-17.2,34.3-26.8,56-25.5c8.8,0.5,14.5,7.1,12.7,12.2c0,0.1,0,0.1-0.1,0.2
			C191.5,1464.8,185.3,1467.4,179.6,1467.1z"/>
		<path class="st14" d="M168.4,1445.9l-0.3-5.5c1.9-0.4,3.2-1.8,3.1-3.5c-0.1-1.8-2.1-3.2-4.4-3.1c-2.3,0.1-4.1,1.8-4,3.6
			c0.1,1.7,1.8,2.9,3.8,3l0.3,5.5c0,0.4,0.3,0.7,0.8,0.7h0C168.1,1446.6,168.4,1446.3,168.4,1445.9z"/>
		<path class="st14" d="M156.8,1448.1l-1-5.5c1.8-0.7,2.9-2.3,2.6-3.8c-0.3-1.8-2.5-2.9-4.7-2.5c-2.3,0.4-3.8,2.3-3.5,4.1
			c0.3,1.6,2.1,2.7,4.2,2.5l1,5.4c0.1,0.4,0.4,0.6,0.8,0.6h0C156.6,1448.8,156.9,1448.5,156.8,1448.1z"/>
		<path class="st14" d="M146.1,1452.8l-2.2-5.1c1.6-1.1,2.3-2.9,1.7-4.3c-0.8-1.7-3.1-2.3-5.2-1.3c-2.1,1-3.2,3.1-2.4,4.8
			c0.7,1.5,2.7,2.1,4.6,1.5l2.2,5c0.2,0.4,0.6,0.5,1,0.4h0C146.1,1453.6,146.2,1453.1,146.1,1452.8z"/>
		<path class="st14" d="M136.1,1459.2l-2.7-4.8c1.5-1.2,2-3.1,1.2-4.5c-0.9-1.6-3.3-1.9-5.3-0.7c-2,1.2-2.8,3.4-1.9,5
			c0.9,1.4,2.9,1.8,4.8,1l2.7,4.8c0.2,0.3,0.6,0.5,1,0.3h0C136.2,1460,136.4,1459.6,136.1,1459.2z"/>
		<path class="st14" d="M127.8,1466.5l-4.2-3.6c1-1.6,0.9-3.6-0.3-4.6c-1.4-1.2-3.8-0.7-5.2,1c-1.5,1.8-1.6,4.2-0.1,5.3
			c1.3,1.1,3.3,0.8,4.8-0.6l4.1,3.6c0.3,0.3,0.8,0.2,1-0.1v0C128.2,1467.2,128.1,1466.8,127.8,1466.5z"/>
		<path class="st14" d="M121.2,1475.3l-5.2-1.9c0.3-1.9-0.4-3.7-2-4.2c-1.7-0.6-3.8,0.6-4.5,2.8c-0.8,2.2,0,4.4,1.7,5.1
			c1.6,0.6,3.4-0.5,4.3-2.3l5.1,1.9c0.4,0.1,0.8-0.1,0.9-0.4v0C121.7,1475.9,121.5,1475.5,121.2,1475.3z"/>
		<path class="st14" d="M119.7,1483.4l-5,2.3c-1.1-1.6-2.9-2.3-4.4-1.5c-1.6,0.8-2.2,3.1-1.2,5.2c1,2.1,3.2,3.1,4.8,2.3
			c1.5-0.7,2-2.7,1.4-4.7l5-2.3c0.4-0.2,0.5-0.6,0.3-1v0C120.4,1483.4,120,1483.3,119.7,1483.4z"/>
		<path class="st14" d="M124.5,1491.5l-2.4,5c-1.8-0.5-3.7,0.1-4.4,1.6c-0.8,1.7,0.3,3.8,2.4,4.8c2.1,1,4.4,0.4,5.2-1.3
			c0.7-1.5-0.1-3.4-1.9-4.5l2.4-4.9c0.2-0.3,0-0.8-0.3-1h0C125.1,1491,124.6,1491.1,124.5,1491.5z"/>
		<path class="st14" d="M132.9,1491.9l1.8,5.2c-1.7,1-2.5,2.7-2,4.2c0.6,1.7,2.9,2.5,5.1,1.7s3.4-2.9,2.8-4.6
			c-0.6-1.6-2.5-2.3-4.5-1.8l-1.8-5.2c-0.1-0.4-0.5-0.6-0.9-0.4h0C133,1491.1,132.8,1491.5,132.9,1491.9z"/>
		<path class="st14" d="M141.4,1486.2l3.7,4.1c-1.2,1.5-1.3,3.5-0.2,4.6c1.2,1.4,3.6,1.2,5.3-0.4s2-3.9,0.8-5.3
			c-1.1-1.2-3.2-1.2-4.9,0l-3.7-4.1c-0.3-0.3-0.7-0.3-1-0.1l0,0C141.1,1485.4,141.1,1485.9,141.4,1486.2z"/>
		<path class="st14" d="M150.7,1477.1l3.7,4.1c-1.2,1.5-1.3,3.5-0.2,4.6c1.2,1.4,3.6,1.2,5.3-0.4c1.7-1.6,2-3.9,0.8-5.3
			c-1.1-1.2-3.2-1.2-4.9,0l-3.7-4.1c-0.3-0.3-0.7-0.3-1-0.1l0,0C150.5,1476.4,150.4,1476.8,150.7,1477.1z"/>
		<path class="st14" d="M165.4,1469.9l1,5.5c-1.8,0.7-2.9,2.3-2.6,3.8c0.3,1.8,2.5,2.9,4.7,2.5c2.3-0.4,3.8-2.3,3.5-4.1
			c-0.3-1.6-2.1-2.7-4.1-2.5l-1-5.4c-0.1-0.4-0.4-0.7-0.8-0.6h0C165.6,1469.1,165.3,1469.5,165.4,1469.9z"/>
		<path class="st14" d="M178.6,1468.7l0.5,5.5c-1.8,0.5-3.1,2-3,3.6c0.2,1.8,2.2,3.1,4.5,2.9c2.3-0.2,4-1.9,3.8-3.8
			c-0.2-1.7-1.9-2.9-3.9-2.9l-0.5-5.5c0-0.4-0.4-0.7-0.8-0.7h0C178.8,1468,178.5,1468.3,178.6,1468.7z"/>
		<path class="st14" d="M189.8,1466.2l3.9,3.9c-1.1,1.6-1.1,3.5,0,4.6c1.3,1.3,3.7,1,5.3-0.7c1.6-1.6,1.8-4,0.5-5.3
			c-1.2-1.2-3.3-1-4.8,0.3l-3.9-3.9c-0.3-0.3-0.7-0.3-1,0l0,0C189.6,1465.5,189.6,1465.9,189.8,1466.2z"/>
		<path class="st14" d="M194.9,1458.2l5.5,0.6c0.1,1.9,1.4,3.4,3,3.6c1.8,0.2,3.5-1.6,3.7-3.9c0.2-2.3-1.1-4.3-3-4.4
			c-1.7-0.1-3.2,1.3-3.6,3.3l-5.5-0.6c-0.4,0-0.8,0.3-0.8,0.6v0C194.3,1457.8,194.6,1458.2,194.9,1458.2z"/>
		<path class="st14" d="M179.9,1445l1.4-5.4c1.9,0.1,3.6-0.9,4-2.4c0.4-1.8-1.1-3.7-3.3-4.2c-2.3-0.5-4.4,0.5-4.8,2.3
			c-0.4,1.6,0.8,3.3,2.7,4l-1.3,5.3c-0.1,0.4,0.1,0.8,0.5,0.9h0C179.5,1445.6,179.9,1445.4,179.9,1445z"/>
		<path class="st14" d="M190.5,1449.1l3.7-4.1c1.6,1,3.6,0.9,4.6-0.3c1.2-1.4,0.8-3.7-1-5.3c-1.8-1.5-4.1-1.6-5.3-0.2
			c-1.1,1.3-0.8,3.3,0.6,4.8l-3.6,4.1c-0.3,0.3-0.2,0.8,0.1,1h0C189.8,1449.5,190.3,1449.4,190.5,1449.1z"/>
		<path class="st14" d="M182.8,1460.1l-7.7-1.1c-1-0.1-1.7-1.1-1.6-2.1v0c0.1-1,1.1-1.7,2.1-1.6l7.7,1.1c1,0.1,1.7,1.1,1.6,2.1v0
			C184.8,1459.5,183.8,1460.2,182.8,1460.1z"/>
		<path class="st14" d="M150.6,1471l-7.4,1.6c-1,0.2-1.9-0.4-2.2-1.4v0c-0.2-1,0.4-1.9,1.4-2.2l7.4-1.6c1-0.2,1.9,0.4,2.2,1.4v0
			C152.1,1469.8,151.5,1470.7,150.6,1471z"/>
		<path class="st14" d="M129,1480.7c-0.2-0.1-0.4-0.2-0.6-0.4c-0.5-0.4-0.8-0.9-0.8-1.5c-0.1-0.6,0.1-1.2,0.5-1.6l4.2-5.1
			c0.8-0.9,2.2-1,3.1-0.3c0.5,0.4,0.8,0.9,0.8,1.5c0.1,0.6-0.1,1.2-0.5,1.6l-4.2,5.1C130.8,1480.8,129.9,1481.1,129,1480.7z
			 M134.3,1472.6c-0.4-0.1-0.8,0-1.1,0.3l-4.2,5.1c-0.2,0.2-0.2,0.5-0.2,0.7c0,0.3,0.1,0.5,0.3,0.7c0.1,0.1,0.2,0.1,0.3,0.2
			c0.4,0.1,0.8,0,1.1-0.3l4.2-5.1c0.2-0.2,0.3-0.5,0.2-0.7c0-0.3-0.1-0.5-0.3-0.7C134.5,1472.7,134.4,1472.7,134.3,1472.6z"/>
		<path class="st14" d="M154.2,1461c-0.4-0.2-0.8-0.5-1.1-0.9c-0.3-0.5-0.4-1.1-0.3-1.7c0.1-0.6,0.5-1.1,1-1.4l5.6-3.6
			c1-0.6,2.4-0.3,3,0.6c0.3,0.5,0.4,1.1,0.3,1.7c-0.1,0.6-0.5,1.1-1,1.4l-5.6,3.6C155.6,1461.2,154.9,1461.3,154.2,1461z
			 M160.9,1454.4c-0.3-0.1-0.6-0.1-0.9,0.1l-5.6,3.6c-0.2,0.1-0.4,0.4-0.4,0.6s0,0.5,0.1,0.8c0.3,0.5,0.9,0.6,1.4,0.3l5.6-3.6
			c0.2-0.1,0.4-0.4,0.4-0.6s0-0.5-0.1-0.8C161.2,1454.6,161.1,1454.5,160.9,1454.4z"/>
		<path class="st16" d="M170.2,1463.7c-0.3,0.9-1.4,1.4-2.3,1.1c-0.9-0.3-1.4-1.4-1.1-2.3c0.3-0.9,1.4-1.4,2.3-1.1
			C170,1461.7,170.5,1462.8,170.2,1463.7z"/>
		<path class="st16" d="M169.5,1457.4c-0.2,0.5-0.8,0.8-1.3,0.6c-0.5-0.2-0.8-0.8-0.6-1.3c0.2-0.5,0.8-0.8,1.3-0.6
			C169.5,1456.3,169.7,1456.9,169.5,1457.4z"/>
		<path class="st16" d="M182.4,1453.1c-0.3,0.8-1.1,1.1-1.8,0.8c-0.7-0.3-1.1-1.1-0.8-1.8c0.3-0.8,1.1-1.1,1.8-0.8
			S182.7,1452.4,182.4,1453.1z"/>
		<path class="st16" d="M145.6,1462.2c-0.3,1-1.4,1.4-2.4,1.1c-1-0.3-1.4-1.4-1.1-2.4c0.3-1,1.4-1.4,2.4-1.1
			C145.5,1460.2,146,1461.2,145.6,1462.2z"/>
		<path class="st16" d="M137.3,1484.3c-0.3,0.9-1.4,1.4-2.3,1.1c-0.9-0.3-1.4-1.4-1.1-2.3s1.4-1.4,2.3-1.1
			C137.2,1482.3,137.7,1483.3,137.3,1484.3z"/>
		<path class="st16" d="M136.4,1466.5c-0.2,0.4-0.6,0.6-1,0.5c-0.4-0.2-0.6-0.6-0.5-1c0.2-0.4,0.6-0.6,1-0.5
			C136.3,1465.6,136.5,1466,136.4,1466.5z"/>
		<path class="st16" d="M129.7,1486.7c-0.3,0.8-1.2,1.3-2.1,1c-0.8-0.3-1.3-1.2-1-2.1c0.3-0.8,1.2-1.3,2.1-1
			C129.5,1484.9,130,1485.9,129.7,1486.7z"/>
		<path class="st16" d="M191.3,1456.9c-0.2,0.5-0.8,0.8-1.3,0.6c-0.5-0.2-0.8-0.8-0.6-1.3s0.8-0.8,1.3-0.6
			C191.2,1455.8,191.4,1456.4,191.3,1456.9z"/>
		<path class="st16" d="M161.6,1466c-0.4,1-1.6,1.6-2.6,1.2c-1-0.4-1.6-1.6-1.2-2.6s1.6-1.6,2.6-1.2
			C161.5,1463.8,162,1465,161.6,1466z"/>
		<path class="st16" d="M169.1,1451.8c-0.1,0.4-0.6,0.6-1,0.5c-0.4-0.1-0.6-0.6-0.5-1c0.1-0.4,0.6-0.6,1-0.5
			C169.1,1451,169.3,1451.4,169.1,1451.8z"/>
	</g>
	<g>
		<path class="st14" d="M152,1380.2c-8.2-0.5-20.5,2.4-30.5,11.7c-0.2,0.1-0.3,0.3-0.4,0.4c-10.2,9.4-13.9,21.8-13.9,30.1
			c-0.1,10.2,4.7,15.8,9.2,15.9h0.2c2.6-0.1,5.1-1.4,7.9-4.1c2.2-2.1,4.4-4.8,6.7-7.7c3.1-3.8,6.7-8.2,10.9-11.9l0.1-0.1l0.1-0.1
			c3.9-4,8.5-7.3,12.5-10.2c3-2.2,5.9-4.2,8.1-6.3c2.8-2.7,4.2-5.1,4.5-7.6l0-0.2C167.5,1385.8,162.2,1380.7,152,1380.2z"/>
		<path class="st15" d="M164.9,1390.2c-0.8,7.1-14.5,12.5-24.4,22.6c-10.7,9.2-16.9,22.6-24,23c-3.3-0.1-7-5.1-6.9-13.5
			c0-8.2,3.8-19.7,13.1-28.3c9.1-8.9,20.9-11.9,29.1-11.5C160.3,1383,165,1386.9,164.9,1390.2z"/>
		<path class="st14" d="M132.2,1386.1c-0.1,0.1-0.3,0.2-0.5,0.1c-0.3-0.1-0.4-0.3-0.3-0.6c0.9-3.1-0.7-4.8-2.3-6.6
			c-1.6-1.7-3.1-3.4-1.6-6c0.1-0.2,0.4-0.3,0.7-0.2c0.2,0.1,0.3,0.4,0.2,0.7c-1.1,1.9-0.2,3,1.5,4.9c1.6,1.7,3.6,3.9,2.5,7.5
			C132.3,1386,132.3,1386.1,132.2,1386.1z"/>
		<path class="st14" d="M138.5,1384.1c-0.2,0.1-0.4,0.2-0.6,0.1c-0.2-0.1-0.3-0.5-0.1-0.7c1-1.6,0-4.6-0.8-7.3
			c-0.8-2.6-1.6-4.9-0.7-6.1c0.1-0.2,0.5-0.3,0.7-0.1c0.2,0.1,0.3,0.5,0.1,0.7c-0.6,0.8,0.1,3.1,0.8,5.3
			C138.8,1378.9,139.8,1382,138.5,1384.1C138.6,1384,138.6,1384,138.5,1384.1z"/>
		<path class="st14" d="M145,1382.2C145,1382.3,144.9,1382.3,145,1382.2c-0.3,0.2-0.6,0.1-0.8-0.1c-1.4-2.1-1-4.7-0.7-7.2
			c0.3-2.4,0.7-4.8-0.8-6.1c-0.2-0.2-0.2-0.5,0-0.7s0.5-0.2,0.7,0c1.9,1.7,1.5,4.4,1.1,7c-0.3,2.3-0.7,4.7,0.5,6.5
			C145.2,1381.8,145.2,1382.1,145,1382.2z"/>
		<path class="st14" d="M151.5,1381.8c-0.1,0.1-0.3,0.2-0.5,0.1c-0.3-0.1-0.4-0.3-0.3-0.6c1-3.3-0.1-6.2-1-8.5
			c-0.8-1.9-1.4-3.6-0.6-5c0.1-0.2,0.4-0.3,0.7-0.2c0.2,0.1,0.3,0.4,0.2,0.7c-0.6,1,0,2.4,0.6,4.2c1,2.5,2.1,5.5,1,9.2
			C151.7,1381.7,151.6,1381.8,151.5,1381.8z"/>
		<path class="st14" d="M157.9,1382.7c-0.2,0.1-0.4,0.2-0.6,0.1c-0.2-0.1-0.3-0.5-0.1-0.7c1.7-2.6,1.2-5.7,0.8-8.4
			c-0.4-2.4-0.7-4.5,0.4-5.8c0.2-0.2,0.5-0.2,0.7-0.1c0.2,0.2,0.2,0.5,0.1,0.7c-0.9,1-0.6,2.9-0.2,5.1
			C159.4,1376.5,160,1379.8,157.9,1382.7C158,1382.7,158,1382.7,157.9,1382.7z"/>
		<path class="st14" d="M162.3,1383.9c-0.2,0.2-0.5,0.2-0.7,0c-0.2-0.2-0.2-0.5,0-0.7c0.1-0.1,5.6-5.5,5.9-11.7
			c0-0.3,0.2-0.5,0.5-0.5c0.3,0,0.5,0.2,0.5,0.5C168.2,1378.1,162.6,1383.6,162.3,1383.9L162.3,1383.9z"/>
		<path class="st14" d="M175.8,1379.2c-0.1,0.1-0.2,0.1-0.3,0.1c-2.5,0.3-3.3,1.6-4.3,3.2c-1.2,1.8-2.5,3.9-6.4,5
			c-0.3,0.1-0.5-0.1-0.6-0.3c-0.1-0.3,0.1-0.5,0.3-0.6c3.5-1,4.7-2.8,5.8-4.6c1.1-1.7,2.1-3.3,5-3.6c0.3,0,0.5,0.2,0.5,0.4
			C176,1378.9,176,1379.1,175.8,1379.2z"/>
		<path class="st14" d="M179.9,1389.4c-0.1,0.1-0.3,0.2-0.5,0.1c-5.4-1.4-12.8,2.4-12.9,2.5c-0.2,0.1-0.5,0-0.7-0.2s0-0.5,0.2-0.7
			c0.3-0.2,7.9-4.1,13.6-2.5c0.3,0.1,0.4,0.3,0.3,0.6C180,1389.3,179.9,1389.3,179.9,1389.4z"/>
		<path class="st14" d="M176.7,1399.1c-0.1,0.1-0.1,0.1-0.2,0.1c-3.7,1-5.7,0-7.8-1.1c-1.5-0.8-3-1.6-5.4-1.8
			c-0.3,0-0.5-0.3-0.4-0.5s0.3-0.5,0.5-0.4c2.6,0.3,4.2,1.2,5.7,1.9c2.1,1.1,3.7,1.9,7.1,1c0.3-0.1,0.5,0.1,0.6,0.3
			C176.8,1398.8,176.8,1399,176.7,1399.1z"/>
		<path class="st14" d="M170.8,1405.2c-0.1,0.1-0.2,0.1-0.3,0.1c-0.3,0-0.5-0.2-0.5-0.5c0-0.9-0.6-1-2.9-1c-2.5,0-6.3-0.1-9.7-3.3
			c-0.2-0.2-0.2-0.5,0-0.7c0.2-0.2,0.5-0.2,0.7,0c3.1,3,6.5,3,9,3.1c2,0,3.8,0.1,3.8,2C170.9,1405,170.9,1405.1,170.8,1405.2z"/>
		<path class="st14" d="M164.7,1410.3c-0.1,0.1-0.2,0.1-0.3,0.1c-0.3,0-0.5-0.1-0.5-0.4c-0.2-1.2-1.9-1.5-4.6-1.9
			c-2.5-0.3-5.6-0.8-7.9-2.5c-0.2-0.2-0.3-0.5-0.1-0.7c0.2-0.2,0.5-0.3,0.7-0.1c2.1,1.6,4.9,2,7.4,2.3c2.8,0.4,5.1,0.7,5.4,2.7
			C164.9,1410.1,164.8,1410.2,164.7,1410.3z"/>
		<path class="st14" d="M158.6,1415c-0.1,0.1-0.2,0.1-0.3,0.1c-0.3,0-0.5-0.1-0.6-0.4c-0.2-1.1-0.9-1.1-2.8-1.2
			c-2.3-0.1-5.7-0.2-9.7-3.2c-0.2-0.2-0.3-0.5-0.1-0.7c0.2-0.2,0.5-0.3,0.7-0.1c3.7,2.8,6.8,2.9,9.1,3c1.8,0.1,3.4,0.1,3.8,2
			C158.7,1414.7,158.7,1414.8,158.6,1415z"/>
		<path class="st14" d="M153.7,1420.7c-0.1,0.1-0.1,0.1-0.2,0.1c-0.3,0.1-0.5-0.1-0.6-0.4c-0.7-3.3-9-4.2-12.2-4.3
			c-0.3,0-0.5-0.2-0.5-0.5c0-0.3,0.2-0.5,0.5-0.5c0.5,0,12.1,0.3,13.1,5.1C153.9,1420.4,153.8,1420.6,153.7,1420.7z"/>
		<path class="st14" d="M150.2,1424.7c-0.1,0.1-0.1,0.1-0.2,0.1c-3.1,0.7-12.7-4.1-13.8-4.6c-0.2-0.1-0.3-0.4-0.2-0.7
			s0.4-0.3,0.7-0.2c2.9,1.4,10.8,5.1,13.2,4.5c0.3-0.1,0.5,0.1,0.6,0.4C150.4,1424.4,150.3,1424.6,150.2,1424.7z"/>
		<path class="st14" d="M146.2,1429.3c-0.1,0.1-0.2,0.1-0.3,0.1c-3.3,0.5-5.2-0.6-7.2-1.9c-1.8-1.1-3.7-2.3-6.9-2.5
			c-0.3,0-0.5-0.3-0.5-0.5c0-0.3,0.3-0.5,0.5-0.5c3.5,0.2,5.6,1.5,7.4,2.6c1.9,1.2,3.6,2.2,6.5,1.7c0.3,0,0.5,0.1,0.6,0.4
			C146.4,1429,146.3,1429.2,146.2,1429.3z"/>
		<path class="st14" d="M140.6,1434.8C140.6,1434.8,140.6,1434.8,140.6,1434.8c-0.3,0.2-0.6,0.1-0.7-0.1c-2.7-3.8-12.2-4.5-12.3-4.5
			c-0.3,0-0.5-0.3-0.5-0.5c0-0.3,0.3-0.5,0.5-0.5c0.4,0,10.1,0.7,13,4.9C140.8,1434.4,140.8,1434.6,140.6,1434.8z"/>
		<path class="st14" d="M135.4,1439.8c-0.1,0.1-0.1,0.1-0.2,0.1c-0.3,0.1-0.5-0.1-0.6-0.3c-0.5-2.1-2.8-2.3-5.4-2.7
			c-2.6-0.3-5.3-0.7-6.5-3c-0.1-0.2,0-0.5,0.2-0.7c0.2-0.1,0.5,0,0.7,0.2c0.9,1.8,3.2,2.1,5.7,2.4c2.7,0.3,5.5,0.7,6.2,3.4
			C135.6,1439.5,135.5,1439.7,135.4,1439.8z"/>
		<path class="st14" d="M125.2,1449.4c-0.2,0.2-0.5,0.2-0.6,0c-0.2-0.2-0.2-0.5-0.1-0.7c3.6-4.4-4.8-11.8-4.9-11.9
			c-0.2-0.2-0.2-0.5-0.1-0.7c0.2-0.2,0.5-0.2,0.7-0.1C120.6,1436.4,129.5,1444.1,125.2,1449.4
			C125.3,1449.4,125.3,1449.4,125.2,1449.4z"/>
		<path class="st14" d="M112.4,1450.1c-0.1,0.1-0.3,0.2-0.5,0.1c-0.4-0.2-0.7-0.5-0.9-0.9c-0.5-1.2,0.6-3.2,2-5.7
			c1.2-2.2,2.6-4.7,2.6-6.4c0-0.3,0.2-0.5,0.5-0.5c0.3,0,0.5,0.2,0.5,0.5c0,2-1.4,4.5-2.7,6.9c-1.1,1.9-2.3,4.1-2,4.9
			c0,0.1,0.1,0.2,0.3,0.3c0.3,0.1,0.4,0.4,0.3,0.6C112.5,1450,112.5,1450.1,112.4,1450.1z"/>
		<path class="st14" d="M109.8,1439.5c-1.1,1-2.1,1.7-3.1,2.3c-1.4,0.9-2.5,1.6-3,3c-0.1,0.3-0.4,0.4-0.6,0.3
			c-0.3-0.1-0.4-0.4-0.3-0.6c0.6-1.7,1.9-2.5,3.4-3.5c1.8-1.2,4.1-2.7,5.9-6.4c0.1-0.2,0.4-0.3,0.7-0.2c0.2,0.1,0.3,0.4,0.2,0.7
			C112,1437.1,110.9,1438.5,109.8,1439.5z"/>
		<path class="st14" d="M103.3,1435.7c-1,1-2.5,1.8-4.8,2.4c-0.3,0.1-0.5-0.1-0.6-0.4c-0.1-0.3,0.1-0.5,0.4-0.6c3.9-1,5-2.6,6.1-4.4
			c0.9-1.4,1.9-2.9,4.2-4.1c0.2-0.1,0.5,0,0.7,0.2s0,0.5-0.2,0.7c-2.1,1.1-3,2.4-3.8,3.8C104.7,1434.1,104.1,1435,103.3,1435.7z"/>
		<path class="st14" d="M106.1,1426.1c-1.7,1.6-3.4,2.1-5,2.6c-1.4,0.4-2.8,0.8-3.9,1.9l0,0c-0.2,0.2-0.5,0.2-0.7,0
			c-0.2-0.2-0.2-0.5,0-0.7c1.3-1.3,2.8-1.7,4.3-2.1c2.4-0.7,4.8-1.4,6.9-5.4c0.1-0.2,0.4-0.3,0.7-0.2c0.2,0.1,0.3,0.4,0.2,0.7
			C107.8,1424.2,107,1425.3,106.1,1426.1z"/>
		<path class="st14" d="M109.5,1416.7c-0.1,0.1-0.1,0.1-0.2,0.1c-3.5,0.7-5.7,2.4-7.4,3.7c-1.8,1.3-3.1,2.3-4.8,1.4
			c-0.2-0.1-0.3-0.4-0.2-0.7c0.1-0.2,0.4-0.3,0.7-0.2c1.1,0.6,2,0,3.8-1.3c1.7-1.3,4.1-3.1,7.8-3.8c0.3-0.1,0.5,0.1,0.6,0.4
			C109.7,1416.4,109.6,1416.6,109.5,1416.7z"/>
		<path class="st14" d="M110.1,1411.7C110.1,1411.7,110.1,1411.7,110.1,1411.7c-2.3,1.8-4.3,1.1-6.4,0.3c-1.8-0.7-3.8-1.4-6.5-0.8
			c-0.3,0.1-0.5-0.1-0.6-0.4c-0.1-0.3,0.1-0.5,0.4-0.6c3-0.7,5.2,0.1,7.1,0.8c2.1,0.8,3.6,1.3,5.4-0.2c0.2-0.2,0.5-0.1,0.7,0.1
			C110.3,1411.2,110.3,1411.5,110.1,1411.7z"/>
		<path class="st14" d="M113.8,1405c-0.2,0.2-0.5,0.2-0.7,0c-1.9-1.8-5.5-1.1-8.3-0.6c-2.5,0.5-4.4,0.9-5.2-0.3
			c-0.1-0.2-0.1-0.5,0.1-0.7c0.2-0.1,0.5-0.1,0.7,0.1c0.4,0.6,2.3,0.2,4.2-0.1c3.1-0.6,6.9-1.3,9.2,0.8
			C114,1404.4,114,1404.8,113.8,1405C113.9,1405,113.8,1405,113.8,1405z"/>
		<path class="st14" d="M117.7,1398c-0.1,0.1-0.3,0.2-0.5,0.1c-3-0.8-11.3-2.4-13,0c-0.1,0.2-0.5,0.3-0.7,0.1
			c-0.2-0.1-0.3-0.5-0.1-0.7c2.4-3.4,12.8-0.7,14-0.4c0.3,0.1,0.4,0.3,0.3,0.6C117.8,1397.8,117.8,1397.9,117.7,1398z"/>
		<path class="st14" d="M122,1393.6C122,1393.7,122,1393.7,122,1393.6c-0.3,0.2-0.6,0.1-0.7-0.1c-1.9-2.7-4.6-3.3-7-3.8
			c-2.2-0.5-4.2-1-4.8-3.1c-0.1-0.3,0.1-0.5,0.3-0.6c0.3-0.1,0.5,0.1,0.6,0.3c0.4,1.5,1.8,1.8,4.1,2.4c2.4,0.5,5.4,1.2,7.6,4.2
			C122.2,1393.2,122.2,1393.5,122,1393.6z"/>
		<path class="st14" d="M127.2,1389.6C127.1,1389.6,127.1,1389.6,127.2,1389.6c-0.3,0.2-0.6,0.1-0.8-0.1c-1.2-1.9-2.5-3-3.8-4
			c-1.9-1.6-3.6-3-3.3-6.5c0-0.3,0.3-0.5,0.5-0.4s0.5,0.3,0.4,0.5c-0.3,3,1.1,4.1,2.9,5.6c1.3,1,2.7,2.2,4,4.2
			C127.4,1389.2,127.3,1389.4,127.2,1389.6z"/>
		<g>
			<path class="st14" d="M143.8,1390.5c1.7,1.8,1.6,4.5-0.2,6.2c-1.8,1.7-4.5,1.6-6.2-0.2s-1.6-4.5,0.2-6.2
				C139.4,1388.7,142.2,1388.7,143.8,1390.5z"/>
		</g>
		<path class="st16" d="M131.4,1402.2c0.8,0.8,0.8,2.1-0.1,2.9c-0.8,0.8-2.1,0.8-2.9-0.1s-0.8-2.1,0.1-2.9
			C129.3,1401.4,130.6,1401.4,131.4,1402.2z"/>
		<path class="st16" d="M132.2,1413.5c0.7,0.7,0.6,1.8-0.1,2.4c-0.7,0.7-1.8,0.6-2.4-0.1c-0.7-0.7-0.6-1.8,0.1-2.4
			C130.4,1412.8,131.5,1412.8,132.2,1413.5z"/>
		<path class="st16" d="M121.8,1418c0.4,0.4,0.4,1.1,0,1.4c-0.4,0.4-1.1,0.4-1.4,0c-0.4-0.4-0.4-1.1,0-1.4
			C120.8,1417.5,121.4,1417.6,121.8,1418z"/>
		<path class="st16" d="M118.6,1410c0.3,0.3,0.3,0.7,0,1c-0.3,0.3-0.7,0.3-1,0c-0.3-0.3-0.3-0.7,0-1S118.3,1409.7,118.6,1410z"/>
		<path class="st16" d="M116.9,1413.8c0.6,0.6,0.6,1.6-0.1,2.2c-0.6,0.6-1.6,0.6-2.2-0.1c-0.6-0.6-0.6-1.6,0.1-2.2
			C115.3,1413.1,116.3,1413.1,116.9,1413.8z"/>
		<path class="st16" d="M118.8,1428.2c0.6,0.6,0.6,1.6-0.1,2.2c-0.6,0.6-1.6,0.6-2.2-0.1s-0.6-1.6,0.1-2.2
			C117.2,1427.6,118.2,1427.6,118.8,1428.2z"/>
		<path class="st16" d="M148.1,1400.6c0.6,0.6,0.6,1.6-0.1,2.2c-0.6,0.6-1.6,0.6-2.2-0.1c-0.6-0.6-0.6-1.6,0.1-2.2
			C146.5,1399.9,147.5,1399.9,148.1,1400.6z"/>
		<path class="st16" d="M153.4,1388.1c0.2,0.2,0.2,0.5,0,0.7c-0.2,0.2-0.5,0.2-0.7,0c-0.2-0.2-0.2-0.5,0-0.7
			C152.9,1387.9,153.3,1387.9,153.4,1388.1z"/>
		<path class="st16" d="M158.7,1391.9c0.5,0.5,0.5,1.4-0.1,1.9c-0.5,0.5-1.4,0.5-1.9-0.1c-0.5-0.5-0.5-1.4,0.1-1.9
			C157.3,1391.3,158.1,1391.3,158.7,1391.9z"/>
		<path class="st16" d="M130.7,1391.9c0.3,0.3,0.3,0.8,0,1.1c-0.3,0.3-0.8,0.3-1.1,0c-0.3-0.3-0.3-0.8,0-1.1
			C129.9,1391.5,130.4,1391.5,130.7,1391.9z"/>
		<path class="st16" d="M121.4,1401c0.4,0.4,0.4,1,0,1.4c-0.4,0.4-1,0.4-1.4,0c-0.4-0.4-0.4-1,0-1.4
			C120.4,1400.6,121,1400.6,121.4,1401z"/>
	</g>
</g>
<g id="Teledeteccion">
	<g>
		<path class="st7" d="M917.7,866.8c14-17.4,9.7-41.7-8.6-56.5c-18.4-14.8-44.6-12.7-58.6,4.6L917.7,866.8z"/>
		<polygon class="st7" points="930.3,717 960.4,677.3 1012.4,717.5 984.6,756.5 		"/>
		<polygon class="st7" points="887.5,775.5 916.2,735.7 971.4,776.6 943.9,818.2 		"/>
		<line class="st17" x1="906.7" y1="807.8" x2="910.3" y2="802.7"/>
		<line class="st17" x1="856.3" y1="878.7" x2="861.5" y2="823.8"/>
		<line class="st17" x1="856.3" y1="878.2" x2="903.3" y2="856.1"/>
		<line class="st17" x1="883.4" y1="840.7" x2="856.8" y2="878.1"/>
		<circle cx="855.5" cy="879.8" r="2.7"/>
		
			<rect x="909.4" y="764.6" transform="matrix(0.6002 -0.7999 0.7999 0.6002 -274.7021 1050.3484)" class="st18" width="7.7" height="70.7"/>
		
			<rect x="985.2" y="661.5" transform="matrix(0.6105 -0.792 0.792 0.6105 -164.6973 1053.7872)" class="st19" width="7.7" height="65.8"/>
		<polygon class="st20" points="926.6,743.4 940,724.4 976.3,750.2 962.5,769.7 		"/>
		<line class="st17" x1="990" y1="749.2" x2="1006.9" y2="762.4"/>
		<line class="st17" x1="966.8" y1="782" x2="984" y2="794.9"/>
		<line class="st17" x1="898.3" y1="733.1" x2="911.6" y2="741.9"/>
		<line class="st17" x1="921" y1="699.9" x2="935.2" y2="709.5"/>
		
			<rect x="998.9" y="762.3" transform="matrix(0.5819 -0.8132 0.8132 0.5819 -203.3781 1143.9701)" class="st21" width="24.1" height="15"/>
		
			<rect x="1014.5" y="773.3" transform="matrix(0.5819 -0.8132 0.8132 0.5819 -205.7689 1161.2797)" class="st21" width="24.1" height="15"/>
		
			<rect x="1030.2" y="784.2" transform="matrix(0.5819 -0.8132 0.8132 0.5819 -208.1437 1178.5917)" class="st21" width="24.1" height="15"/>
		
			<rect x="1045.8" y="795.2" transform="matrix(0.5819 -0.8132 0.8132 0.5819 -210.5185 1195.9036)" class="st21" width="24.1" height="15"/>
		
			<rect x="1061.5" y="806.2" transform="matrix(0.5819 -0.8132 0.8132 0.5819 -212.8909 1213.1996)" class="st21" width="24.1" height="15"/>
		
			<rect x="1077.1" y="817.1" transform="matrix(0.5819 -0.8132 0.8132 0.5819 -215.2658 1230.5115)" class="st21" width="24.1" height="15"/>
		
			<rect x="1092.8" y="828.1" transform="matrix(0.5819 -0.8132 0.8132 0.5819 -217.6406 1247.8235)" class="st21" width="24.1" height="15"/>
		
			<rect x="1108.4" y="839" transform="matrix(0.5819 -0.8132 0.8132 0.5819 -220.0154 1265.1354)" class="st21" width="24.1" height="15"/>
		
			<rect x="981.7" y="787.1" transform="matrix(0.5819 -0.8132 0.8132 0.5819 -230.7251 1140.3711)" class="st21" width="24.1" height="15"/>
		
			<rect x="997.3" y="798" transform="matrix(0.5819 -0.8132 0.8132 0.5819 -233.0976 1157.667)" class="st21" width="24.1" height="15"/>
		
			<rect x="1013" y="809" transform="matrix(0.5819 -0.8132 0.8132 0.5819 -235.4723 1174.9789)" class="st21" width="24.1" height="15"/>
		
			<rect x="1028.6" y="820" transform="matrix(0.5819 -0.8132 0.8132 0.5819 -237.8471 1192.2909)" class="st21" width="24.1" height="15"/>
		
			<rect x="1044.3" y="831" transform="matrix(0.5819 -0.8132 0.8132 0.5819 -240.2379 1209.6005)" class="st21" width="24.1" height="15"/>
		
			<rect x="1059.9" y="841.9" transform="matrix(0.5819 -0.8132 0.8132 0.5819 -242.6127 1226.9125)" class="st21" width="24.1" height="15"/>
		
			<rect x="1075.6" y="852.9" transform="matrix(0.5819 -0.8132 0.8132 0.5819 -244.9852 1244.2084)" class="st21" width="24.1" height="15"/>
		
			<rect x="1091.2" y="863.8" transform="matrix(0.5819 -0.8132 0.8132 0.5819 -247.36 1261.5203)" class="st21" width="24.1" height="15"/>
		
			<rect x="791.7" y="613.4" transform="matrix(0.5819 -0.8132 0.8132 0.5819 -168.9259 913.2652)" class="st21" width="24.1" height="15"/>
		
			<rect x="807.4" y="624.4" transform="matrix(0.5819 -0.8132 0.8132 0.5819 -171.3007 930.5771)" class="st21" width="24.1" height="15"/>
		
			<rect x="823" y="635.4" transform="matrix(0.5819 -0.8132 0.8132 0.5819 -173.6755 947.8891)" class="st21" width="24.1" height="15"/>
		
			<rect x="838.7" y="646.3" transform="matrix(0.5819 -0.8132 0.8132 0.5819 -176.0503 965.201)" class="st21" width="24.1" height="15"/>
		
			<rect x="854.3" y="657.3" transform="matrix(0.5819 -0.8132 0.8132 0.5819 -178.4251 982.513)" class="st21" width="24.1" height="15"/>
		
			<rect x="870" y="668.2" transform="matrix(0.5819 -0.8132 0.8132 0.5819 -180.7976 999.809)" class="st21" width="24.1" height="15"/>
		
			<rect x="885.6" y="679.2" transform="matrix(0.5819 -0.8132 0.8132 0.5819 -183.1724 1017.1209)" class="st21" width="24.1" height="15"/>
		
			<rect x="901.3" y="690.2" transform="matrix(0.5819 -0.8132 0.8132 0.5819 -185.5472 1034.4329)" class="st21" width="24.1" height="15"/>
		
			<rect x="774.6" y="638.2" transform="matrix(0.5819 -0.8132 0.8132 0.5819 -196.257 909.6684)" class="st21" width="24.1" height="15"/>
		
			<rect x="790.2" y="649.2" transform="matrix(0.5819 -0.8132 0.8132 0.5819 -198.6318 926.9803)" class="st21" width="24.1" height="15"/>
		
			<rect x="805.8" y="660.1" transform="matrix(0.5819 -0.8132 0.8132 0.5819 -201.0203 944.2739)" class="st21" width="24.1" height="15"/>
		
			<rect x="821.5" y="671.1" transform="matrix(0.5819 -0.8132 0.8132 0.5819 -203.395 961.5858)" class="st21" width="24.1" height="15"/>
		
			<rect x="837.1" y="682.1" transform="matrix(0.5819 -0.8132 0.8132 0.5819 -205.7698 978.8978)" class="st21" width="24.1" height="15"/>
		
			<rect x="852.8" y="693" transform="matrix(0.5819 -0.8132 0.8132 0.5819 -208.1446 996.2097)" class="st21" width="24.1" height="15"/>
		
			<rect x="868.4" y="704" transform="matrix(0.5819 -0.8132 0.8132 0.5819 -210.5194 1013.5217)" class="st21" width="24.1" height="15"/>
		
			<rect x="884.1" y="715" transform="matrix(0.5819 -0.8132 0.8132 0.5819 -212.8919 1030.8176)" class="st21" width="24.1" height="15"/>
		<path class="st20" d="M960.4,677.3"/>
		
			<rect x="990.5" y="672.6" transform="matrix(0.6105 -0.792 0.792 0.6105 -157.6513 1055.53)" class="st19" width="7.7" height="30.8"/>
	</g>
</g>
</svg>
