<?xml version="1.0" encoding="utf-8"?>
<!-- Generator: Adobe Illustrator 25.4.1, SVG Export Plug-In . SVG Version: 6.00 Build 0)  -->
<svg version="1.1" id="Capa_1" xmlns="http://www.w3.org/2000/svg" xmlns:xlink="http://www.w3.org/1999/xlink" x="0px" y="0px"
	 viewBox="0 0 1125 2660" style="enable-background:new 0 0 1125 2660;" xml:space="preserve">
<style type="text/css">
	.st0{clip-path:url(#SVGID_00000082351800270624332700000000358013440445324977_);fill:#186FA8;}
	.st1{clip-path:url(#SVGID_00000059989353236133815140000000194331908719135369_);fill:#6B96B2;}
	.st2{clip-path:url(#SVGID_00000168093218733820691210000007302115740235459512_);fill:#6B96B2;}
	.st3{clip-path:url(#SVGID_00000093163117030874966780000000306054157556224139_);fill:#026BB2;}
	.st4{clip-path:url(#SVGID_00000034065562818981035160000004672891922337990799_);fill:#3E84B2;}
	.st5{clip-path:url(#SVGID_00000087383969175806335540000014408152034968818816_);}
	.st6{fill:#F9CB1E;}
	.st7{fill:none;stroke:#000000;stroke-width:2.1049;stroke-miterlimit:10;}
	.st8{fill:#FACE1D;}
	.st9{fill:none;stroke:#000000;stroke-width:0.5262;stroke-miterlimit:10;}
	.st10{clip-path:url(#SVGID_00000078761116866888544900000013625924328116352642_);fill:#1573B2;}
	.st11{clip-path:url(#SVGID_00000091001544065386012060000012413534493473605309_);fill:#3E84B2;}
	.st12{clip-path:url(#SVGID_00000065060202060475412250000007420111386722655873_);fill:#1573B2;}
	.st13{clip-path:url(#SVGID_00000014600920521937595690000017415252761810266753_);fill:#2D7CB2;}
	.st14{clip-path:url(#SVGID_00000152971217752973066070000014229142509184395944_);fill:#186FA8;}
	.st15{clip-path:url(#SVGID_00000006693134842291090200000017328289801106834086_);fill:#2479B2;}
	.st16{clip-path:url(#SVGID_00000049215114022985586680000004839377486516252831_);fill:#1573B2;}
	
		.st17{opacity:0.75;clip-path:url(#SVGID_00000112597279063747999330000004156026350603724212_);fill:#1573B2;enable-background:new    ;}
	.st18{clip-path:url(#SVGID_00000119076428926483995810000006604890739119420047_);fill:#2479B2;}
	.st19{clip-path:url(#SVGID_00000164498173417818795640000017140765890022741937_);fill:#026BB2;}
	.st20{fill:none;stroke:#FACE1D;stroke-width:3.6603;stroke-miterlimit:10;}
	.st21{fill:#43CABF;}
	.st22{fill:#026BB2;}
	.st23{fill:#FFFFFF;}
	.st24{fill:none;stroke:#000000;stroke-width:0.8842;stroke-miterlimit:10;}
	.st25{fill:none;stroke:#000000;stroke-width:1.7686;stroke-miterlimit:10.0008;}
	.st26{fill:none;stroke:#000000;stroke-width:1.7684;stroke-miterlimit:9.9998;}
	.st27{fill:none;stroke:#000000;stroke-width:1.7685;stroke-miterlimit:10;}
	.st28{fill:none;stroke:#000000;stroke-width:0.8842;stroke-miterlimit:9.999;}
</style>
<g id="Agua">
	<g>
		<g>
			<defs>
				<rect id="SVGID_1_" x="-715" y="1294.63" width="3472" height="1364.4"/>
			</defs>
			<clipPath id="SVGID_00000178924157133776372750000002556311817522871714_">
				<use xlink:href="#SVGID_1_"  style="overflow:visible;"/>
			</clipPath>
			<path style="clip-path:url(#SVGID_00000178924157133776372750000002556311817522871714_);fill:#186FA8;" d="M160.3,1833.33
				c18-12.4,37.3-25.2,59.1-26.1c28.1-1.3,52.9,17.2,74.9,34.8c42.5,33.9,85.3,68.2,119.8,110.2c11.2,13.6,22.8,28.9,39.8,33.4
				c37.4,9.8,74.9-38,110.3-22.5c7.9,3.5,14.6,9.9,23,11.7c7,1.5,14.3-0.5,21.1-3c44.9-16.3,80.3-52.8,125.2-69.1
				c39.9-14.5,83.8-11.7,126.1-8.2c27.3,2.2,55,4.8,80.5,14.8c50.5,19.7,85.3,65.3,122,105.2c25.6,27.9,53.3,53.8,82.7,77.6
				c23.7,19.1,51.4,43.6,46,73.6c-2.2,12.1-9.6,22.5-17.6,31.8c-34.7,40.6-83.3,69.2-135.7,79.9c-62.1,12.6-126.1,0.6-188.8-8.3
				c-117.9-16.6-237-21.9-355.9-27.2c-88.6-3.9-177.2-7.9-265.8-11.8c-41.4-1.8-83-3.7-124.1,1.5c-37.7,4.7-74.6,15.3-112.5,16.7
				c-106.2,4.2-163.3-96.8-100.2-181.9C-38.3,1969.93,62.6,1900.43,160.3,1833.33z"/>
		</g>
		<g>
			<defs>
				<rect id="SVGID_00000030486746718683768430000014323052413537649343_" x="-715" y="1294.63" width="3472" height="1364.4"/>
			</defs>
			<clipPath id="SVGID_00000067955463550615887520000005268887920537747592_">
				<use xlink:href="#SVGID_00000030486746718683768430000014323052413537649343_"  style="overflow:visible;"/>
			</clipPath>
			<path style="clip-path:url(#SVGID_00000067955463550615887520000005268887920537747592_);fill:#6B96B2;" d="M-685.1,2084.73
				c-12-12.2-27.5-22.8-44.6-22.2c-13.6,24.2-14.7,53.1-15.4,80.8c-1.3,47.8-2.6,95.6-3.9,143.4c-0.3,12.7,2.6,29.4,15.2,30.9
				c5.6,0.7,10.9-2.4,16.2-4.5c17.9-7.1,37.9-3.4,57.1-3.6c44.6-0.6,142.3-53.5,128.5-107.8c-7.7-30.4-39.1-42.7-64.7-53.7
				C-635,2131.73-656.4,2114.13-685.1,2084.73z"/>
		</g>
		<g>
			<defs>
				<rect id="SVGID_00000133518636924347887860000005545432967426922685_" x="-715" y="1294.63" width="3472" height="1364.4"/>
			</defs>
			<clipPath id="SVGID_00000095310919198254702730000012709151749431657132_">
				<use xlink:href="#SVGID_00000133518636924347887860000005545432967426922685_"  style="overflow:visible;"/>
			</clipPath>
			<path style="clip-path:url(#SVGID_00000095310919198254702730000012709151749431657132_);fill:#6B96B2;" d="M2138.3,2127.43
				c-55.7,1.6-111.2,5.6-166.9,6.5c-50.2,0.8-100.3-0.9-150.4-4.1c-103.1-6.5-206.4-19.2-309.3-10.4c-16.4,1.4-35.3,5-43,19.6
				c20.2,14.2,45.2,19.5,69.4,24.6c36.2,7.5,72.5,15.1,108.7,22.6c49.7,10.4,99.6,20.7,150.1,25.9c61.7,6.4,123.8,5,185.8,6.9
				c170,5.2,338.1,35.1,506.3,60.6c88,13.3,179.2,25.3,265,1.4c9.3-2.6,12.2-55.9,12.5-64.3c0.6-16.6,2.8-32.4-12.3-41.1
				c-16.7-9.7-53.6-7.5-72.8-10c-24.4-3.2-48.8-6.3-73.1-9.3c-99.1-12.2-198.5-22.4-298.3-27.1
				C2252.8,2126.63,2195.5,2125.73,2138.3,2127.43z"/>
		</g>
		<g>
			<defs>
				<rect id="SVGID_00000083052718229038980610000017729122430278324113_" x="-715" y="1294.63" width="3472" height="1364.4"/>
			</defs>
			<clipPath id="SVGID_00000111187619698385562350000001939723873086288289_">
				<use xlink:href="#SVGID_00000083052718229038980610000017729122430278324113_"  style="overflow:visible;"/>
			</clipPath>
			<path style="clip-path:url(#SVGID_00000111187619698385562350000001939723873086288289_);fill:#026BB2;" d="M-776,2327.23
				c33.4-71.9,130.3-81.6,196.4-125.4c57.9-38.4,92.8-104.9,151.2-142.5c38.4-24.7,85.5-36,118.9-67.1c7.5-7,14.7-15.3,24.6-18.3
				c12.2-3.8,25.2,1.3,37,6.2c99.2,40.7,203.3,69.8,309.3,86.2c61.8,9.6,124.4,15,186.8,11.3c36.9-2.2,73.8-7.5,110.7-5.9
				c44.8,1.9,88.4,13.9,132.4,22.5c142.3,28,290.4,21.7,430.4,59.4c84,22.6,162.9,60.5,240.9,99c16.8,8.3,36.1,20.8,34.9,39.5
				c13.4,16.2,26.6,47.9,10.7,61.6c-7.4,6.3-18,6.6-27.8,6.9c-164,5.5-305.2,126.3-468.5,142.2c-58.4,5.7-117.1-2.4-175.2-10.4
				c-111.2-15.4-222.4-30.7-333.6-46.1c-80.6-11.1-167.1-21.3-239.5,15.6c-230.5,117.6-514.1,53.3-772.9,55.1
				C-840.8,2461.13-803.1,2385.63-776,2327.23z"/>
		</g>
		<g>
			<defs>
				<rect id="SVGID_00000041258773882299049070000006303348836151081118_" x="-715" y="1294.63" width="3472" height="1364.4"/>
			</defs>
			<clipPath id="SVGID_00000101783430400335316900000002242123095661693073_">
				<use xlink:href="#SVGID_00000041258773882299049070000006303348836151081118_"  style="overflow:visible;"/>
			</clipPath>
			<path style="clip-path:url(#SVGID_00000101783430400335316900000002242123095661693073_);fill:#3E84B2;" d="M1374.3,2137.23
				c22,35.2,27.8,79.6,54.5,111.3c23.8,28.2,60.5,42,96.6,49.7s73.3,10.6,108.2,22.6c24.4,8.4,47.4,21.3,72.6,26.8
				c19.8,4.3,40.2,4,60.4,2.4c76-5.9,149.6-29.1,224.9-41c97.4-15.4,198.1-12.1,292.8-39.6c5.9-1.7,12.2-3.8,16-8.7
				c7.3-9.4,0.9-23.9-9.1-30.4c-10-6.4-22.4-7.6-33.8-11c-17.7-5.2-33.2-15.8-49.5-24.6c-51.7-28.1-112.6-39-170.9-30.5
				c-17.9,2.6-35.8,7-53.9,6.4c-22.5-0.8-44.1-9.4-66.6-9.9c-37.8-0.8-75.6,21.3-112,10.9c-17.7-5-33.6-17.5-52-17.8
				c-22.2-0.3-43.8,17.5-64.9,10.6c-12.1-4-20.1-15-28.7-24.3c-8.7-9.3-20.8-17.8-33.1-14.6c-10.6,2.8-17.5,13.6-27.8,17.3
				c-7.6,2.7-16,1.2-23.9-0.3c-39.6-7.5-80-15.4-115-35.4c-11.8-6.8-23.7-15.1-37.3-15.6c-13.6-0.4-28.6,11.9-24.5,25
				c-2.8,4-11.3,7.3-15.3,10.1C1378,2129.43,1371.7,2133.13,1374.3,2137.23z"/>
		</g>
		<g>
			<defs>
				<rect id="SVGID_00000183233749468360172840000001659270174222622630_" x="-715" y="1294.63" width="3472" height="1364.4"/>
			</defs>
			<clipPath id="SVGID_00000152249686180096247290000013465506655242869146_">
				<use xlink:href="#SVGID_00000183233749468360172840000001659270174222622630_"  style="overflow:visible;"/>
			</clipPath>
			<g style="clip-path:url(#SVGID_00000152249686180096247290000013465506655242869146_);">
				<path class="st6" d="M832.3,1821.03l37.8,57.2c0.8,1.2,2.6,1.2,3.4,0l36.7-54c0.4-0.6,1-0.9,1.7-0.9h8.1c1,0,1.8,0.7,2,1.6
					l39,186.2c0.3,1.3-0.7,2.5-2,2.5h-27c-1.1,0-1.9-0.8-2.1-1.8l-17.6-149.6c-0.2-1.9-2.7-2.5-3.8-0.9l-35.6,55.7
					c-0.8,1.3-2.7,1.3-3.5,0l-36.6-55.7c-1.1-1.6-3.6-1-3.8,0.9l-14.6,149.9c-0.1,1.1-1,1.9-2.1,1.9h-27.2c-1.3,0-2.3-1.1-2-2.4
					l30.8-189.9c0.2-1,1-1.7,2-1.7h14.5C831.3,1820.13,831.9,1820.43,832.3,1821.03z"/>
				<line class="st7" x1="915.2" y1="1663.93" x2="915.2" y2="1747.33"/>
				<rect x="800.2" y="1804.93" class="st8" width="143.1" height="22.8"/>
				<line class="st7" x1="875.1" y1="1636.13" x2="875.1" y2="1747.43"/>
				<rect x="805.7" y="1747.43" class="st8" width="132.3" height="57.5"/>
				<circle class="st7" cx="914.1" cy="1643.33" r="20.6"/>
				<g>
					<path class="st8" d="M875,1634.23c-10,10.1-19.8,19.8-29.4,29.4c-6.6-6.6-13.1-13.1-19.6-19.6c9.5-9.5,19.3-19.3,29.2-29.2
						c-10-10-19.9-19.8-29.6-29.5c6.7-6.7,13.2-13.2,19.6-19.6c9.7,9.7,19.4,19.4,29.2,29.2c10-10,19.8-19.8,29.4-29.4
						c6.8,6.8,13.3,13.3,19.8,19.8c-9.5,9.5-19.3,19.3-29,29c10,10,19.8,19.8,29.4,29.4c-6.8,6.8-13.3,13.3-19.7,19.7
						C894.6,1653.93,884.9,1644.13,875,1634.23z"/>
				</g>
				<path class="st8" d="M999.3,2013.43c0,73.2-59.4,132.6-132.6,132.6s-132.6-59.4-132.6-132.6H999.3z"/>
				<polygon class="st7" points="771.6,1997.33 787.9,1900.53 948.9,1900.53 970.1,1999.73 				"/>
				<line class="st9" x1="787.9" y1="1912.73" x2="951.4" y2="1912.73"/>
				<line class="st9" x1="785.4" y1="1931.43" x2="955.5" y2="1931.43"/>
				<line class="st9" x1="779.8" y1="1950.13" x2="957.9" y2="1950.13"/>
				<line class="st9" x1="776.5" y1="1968.03" x2="962.8" y2="1968.03"/>
				<line class="st9" x1="773.2" y1="1986.73" x2="966" y2="1986.73"/>
				<line class="st9" x1="809" y1="1901.33" x2="799.6" y2="1997.03"/>
				<line class="st9" x1="836.7" y1="1900.83" x2="837.5" y2="1998.93"/>
				<line class="st9" x1="870" y1="1900.53" x2="871.7" y2="1998.13"/>
				<line class="st9" x1="906.6" y1="1899.73" x2="907.5" y2="1997.33"/>
				<line class="st9" x1="939.2" y1="1900.83" x2="942" y2="1999.13"/>
			</g>
		</g>
		<g>
			<defs>
				<rect id="SVGID_00000024722043020417613400000006460160068248884355_" x="-715" y="1294.63" width="3472" height="1364.4"/>
			</defs>
			<clipPath id="SVGID_00000113330470518008547810000009010599707435671684_">
				<use xlink:href="#SVGID_00000024722043020417613400000006460160068248884355_"  style="overflow:visible;"/>
			</clipPath>
			<path style="clip-path:url(#SVGID_00000113330470518008547810000009010599707435671684_);fill:#1573B2;" d="M906.4,2103.53
				c248.4-96.4,278.4-326.5,491.9-74.5c251.5,329.6,433.9,264.9,612.2,389.5c-99.8,2.5-201.7-30.6-304-24.6
				c-502.6,20.5-316.3,135.1-517.7,162.4c-38.6-10.6-85.8-78.8-126-105.3c-239.4-104.7-509.2,80.5-629.5-31
				c-31.7-51.6,104.2-65.4,124.9-91.9C770.4,2171.23,713.2,2183.13,906.4,2103.53z"/>
		</g>
		<g>
			<defs>
				<rect id="SVGID_00000098194333272287732790000002956024390610566551_" x="-715" y="1294.63" width="3472" height="1364.4"/>
			</defs>
			<clipPath id="SVGID_00000171698114306310081930000009581441988643555221_">
				<use xlink:href="#SVGID_00000098194333272287732790000002956024390610566551_"  style="overflow:visible;"/>
			</clipPath>
			<path style="clip-path:url(#SVGID_00000171698114306310081930000009581441988643555221_);fill:#3E84B2;" d="M2613.4,2236.73
				c-1.2,0.8-2.6,1.8-3,3.3c-0.8,3.1,2.8,5.4,5.9,6.4c54.4,19.2,113.2,25.6,170.5,18.7c2.2-0.3,4.5-0.6,6.2-1.9
				c1.5-1.1,2.5-2.8,3.1-4.6c2.6-7.5-0.1-15.7-2.9-23.1c-7-18.8-7.4-34.6-26.6-37.6c-15.2-2.4-38.1,4.8-53.6,7
				C2678.4,2209.83,2643,2216.73,2613.4,2236.73z"/>
		</g>
		<g>
			<defs>
				<rect id="SVGID_00000003097144774532966420000002668964880637031307_" x="-715" y="1294.63" width="3472" height="1364.4"/>
			</defs>
			<clipPath id="SVGID_00000136390099811712237060000005536924795268925874_">
				<use xlink:href="#SVGID_00000003097144774532966420000002668964880637031307_"  style="overflow:visible;"/>
			</clipPath>
			<path style="clip-path:url(#SVGID_00000136390099811712237060000005536924795268925874_);fill:#1573B2;" d="M2722.9,2234.23
				c-16.6-0.6-33.3-1.1-49.9-1.7c-8.1-0.3-17.9,0.4-21.7,7.5c-4.3,8,2.5,17.4,9.4,23.2c31.6,26.8,77.1,36.2,116.7,24.2
				c10.3-3.1,21.7-9.7,22.1-20.4C2800.5,2241.53,2739.7,2234.73,2722.9,2234.23z"/>
		</g>
		<g>
			<defs>
				<rect id="SVGID_00000043432364776985405630000012451635239428355771_" x="-715" y="1294.63" width="3472" height="1364.4"/>
			</defs>
			<clipPath id="SVGID_00000157273293527496813050000009948561719585393341_">
				<use xlink:href="#SVGID_00000043432364776985405630000012451635239428355771_"  style="overflow:visible;"/>
			</clipPath>
			<path style="clip-path:url(#SVGID_00000157273293527496813050000009948561719585393341_);fill:#2D7CB2;" d="M1844.5,2261.03
				c65.8-8,130.9-21.6,194.4-40.6c94.8-28.4,189.8-69.4,288.4-61.3c63.6,5.2,123.5,30.7,182.3,55.5c11.7,4.9,23.5,9.9,36.1,11.1
				c11.3,1.1,22.7-1,34-2c49.7-4.5,98.9,10.3,146.1,26.1c28.9,9.6,59.2,20.8,77.9,44.8c16,20.5,21.1,48.9,13.3,73.7
				c-7.7,24.8-28.1,45.2-52.8,53.2c-18.2,5.9-37.9,5.3-57.1,4.7c-173.9-5.5-348-2.9-521.6,7.7c-67.5,4.1-136,9.4-202.1-4.8
				c-41.6-9-81.4-25.5-123.5-32.1c-75.4-11.8-265.7,9.3-341.9,9.7c-2,0,17.1-22.2,20.8-27.4c10.5-14.4,115.6-79.3,161.2-90.9
				C1746.9,2276.43,1799,2266.63,1844.5,2261.03z"/>
		</g>
		<g>
			<defs>
				<rect id="SVGID_00000101794922907700487170000002476274330203198361_" x="-715" y="1294.63" width="3472" height="1364.4"/>
			</defs>
			<clipPath id="SVGID_00000019669849318093189580000007950568259347540362_">
				<use xlink:href="#SVGID_00000101794922907700487170000002476274330203198361_"  style="overflow:visible;"/>
			</clipPath>
			<path style="clip-path:url(#SVGID_00000019669849318093189580000007950568259347540362_);fill:#186FA8;" d="M2767.5,2418.53
				c-89.1-24.6-181.9-36-274.3-33.6c-60.2,1.6-120.1,8.9-180.3,9.6c-53.1,0.6-106.1-4-159-7.8c-204.4-14.4-409.5-15.5-614.4-13.2
				c-3.4,0-7.4,0.8-10.7,2.3c-9.7,4.3-20.4,5.6-30.9,4.7c-16.6-1.3-34.3-0.1-49.3,1.1c-138,10.8-276.8,10.6-414.8-0.6
				c-8.9-0.7-17.8-1.5-26.5-3.5c-8.5-2-16.7-5.1-25.1-7.7c-49.4-15.4-104.5-11.9-151.5,9.7c-5.5,2.5-9.8,7.4-10.9,13.3
				c-1.7,8.8,4.6,13.3,10.5,16.9c78.7,47.9,199.9,40.7,290.2,58.9c175.6,35.4,345.3,52.4,523.6,43.6c74.6-3.7,142.6-51.7,212.3-25
				c72.6,27.9,153.9-26.6,231.4-19.6c43.8,3.9,85.9,18.4,129,27.6c97.9,20.7,199.3,13.3,299.4,11.9c27.3-0.4,54.9-0.3,81.6,5.3
				c19.3,4,37.8,10.8,57.1,15c24.3,5.4,49.3,6.6,74.1,7.9c10,0.5,20.7,0.8,29.2-4.4c9-5.5,13.7-15.9,16.8-25.9
				C2783.6,2476.33,2775.6,2447.53,2767.5,2418.53z"/>
		</g>
		<g>
			<defs>
				<rect id="SVGID_00000061457360448564275510000017479493721394086319_" x="-715" y="1294.63" width="3472" height="1364.4"/>
			</defs>
			<clipPath id="SVGID_00000042007291695701454890000012148174383909455518_">
				<use xlink:href="#SVGID_00000061457360448564275510000017479493721394086319_"  style="overflow:visible;"/>
			</clipPath>
			<path style="clip-path:url(#SVGID_00000042007291695701454890000012148174383909455518_);fill:#2479B2;" d="M-504.8,2287.23
				c-26.1-12.7-54.2-25.7-83-21.6c-9.8,1.4-19.3,4.8-28.6,8.1c-16.1,5.8-32.1,11.6-48.2,17.3c-28.1,10.1-56.8,20.6-79.7,39.7
				c-22.9,19.2-39.1,49.2-33.7,78.5c1.4,7.3,4.4,14.9,10.7,18.8c3.8,2.4,8.4,3.1,12.9,3.7c48.9,6.5,99.2,1.7,146-14
				c12.2-4.1,24.3-9,36.8-11.9c19.8-4.7,40.5-4.5,60.2-9.6c16.9-4.3,80.3-29.2,82.5-49.7C-426,2321.53-487.2,2295.83-504.8,2287.23z
				"/>
		</g>
		<g>
			<defs>
				<rect id="SVGID_00000047052881399423095380000005019888068721939105_" x="-715" y="1294.63" width="3472" height="1364.4"/>
			</defs>
			<clipPath id="SVGID_00000036237225638887148190000016181818782811568827_">
				<use xlink:href="#SVGID_00000047052881399423095380000005019888068721939105_"  style="overflow:visible;"/>
			</clipPath>
			<path style="clip-path:url(#SVGID_00000036237225638887148190000016181818782811568827_);fill:#1573B2;" d="M-403.4,2293.33
				c24.1-8.5,50.4-17,74.5-8.6c31.3,10.8,52.7,48.1,85.8,46.3c19.2-1,34.8-15.5,53.2-21.4c52.9-16.8,101.6,40.7,157,43.7
				c27.5,1.5,53.7-10.7,80.4-17.5c58.7-15,120.4-4.3,180.7,2.1c82.9,8.7,166.7,8.9,249.6,0.5c37.8-3.8,75.6-9.5,113.5-8.8
				c49.3,0.8,97.8,12.1,145.9,23.3c33.6,7.9,67.1,15.7,100.7,23.6c50.6,11.8,101.2,23.7,151.5,36.3c174.5,43.7,347,96.9,511.5,169.4
				c32,14.1,69.1,37.7,65.7,72.6c-4.2,43.3-62.5,52.9-106,50.6c-748.3-38.2-1498.1-48.3-2247.2-30.1c1.3,0,2.8-176.7,3.2-192.9
				c1.5-61.3,15.8-98.4,80.2-115c36.1-9.3,73.8-1.9,110.4-9.6C-528.5,2344.43-465.1,2315.03-403.4,2293.33z"/>
		</g>
		<g>
			<defs>
				<rect id="SVGID_00000012451461887426641010000013165579724530134685_" x="-715" y="1294.63" width="3472" height="1364.4"/>
			</defs>
			<clipPath id="SVGID_00000018201545878994495030000009383359873240753839_">
				<use xlink:href="#SVGID_00000012451461887426641010000013165579724530134685_"  style="overflow:visible;"/>
			</clipPath>
			
				<path style="opacity:0.75;clip-path:url(#SVGID_00000018201545878994495030000009383359873240753839_);fill:#1573B2;enable-background:new    ;" d="
				M-403.4,2293.33c24.1-8.5,50.4-17,74.5-8.6c31.3,10.8,52.7,48.1,85.8,46.3c19.2-1,34.8-15.5,53.2-21.4
				c52.9-16.8,101.6,40.7,157,43.7c27.5,1.5,53.7-10.7,80.4-17.5c58.7-15,120.4-4.3,180.7,2.1c82.9,8.7,166.7,8.9,249.6,0.5
				c37.8-3.8,75.6-9.5,113.5-8.8c49.3,0.8,97.8,12.1,145.9,23.3c33.6,7.9,67.1,15.7,100.7,23.6c50.6,11.8,101.2,23.7,151.5,36.3
				c174.5,43.7,347,96.9,511.5,169.4c32,14.1,69.1,37.7,65.7,72.6c-4.2,43.3-62.5,52.9-106,50.6
				c-748.3-38.2-1498.1-48.3-2247.2-30.1c1.3,0,2.8-176.7,3.2-192.9c1.5-61.3,15.8-98.4,80.2-115c36.1-9.3,73.8-1.9,110.4-9.6
				C-528.5,2344.43-465.1,2315.03-403.4,2293.33z"/>
		</g>
		<g>
			<defs>
				<rect id="SVGID_00000008858139262360717360000014220428035511313295_" x="-715" y="1294.63" width="3472" height="1364.4"/>
			</defs>
			<clipPath id="SVGID_00000070095714822552666060000005326084822186283682_">
				<use xlink:href="#SVGID_00000008858139262360717360000014220428035511313295_"  style="overflow:visible;"/>
			</clipPath>
			<path style="clip-path:url(#SVGID_00000070095714822552666060000005326084822186283682_);fill:#2479B2;" d="M740.7,2325.83
				c25,2.4,50.4,5,73.8,14.3c20.6,8.2,39,21.4,59.6,29.6c22.8,9.1,47.6,11.9,71.7,17.1c26.5,5.7,52.2,14.3,77.8,22.9
				c77,25.8,174.7,58.9,251.7,84.7c-59.6,19.3-144.1-12.6-203.2-33.3c-137.7-48.3-281.8-76.2-426.5-95.5
				c-46-6.2-92.3-11.5-138.7-11.1c-14.1,0.1-75.2,10-70.7-6.6c6.2-22.8,65.2-25.6,81.6-27.6
				C592,2311.43,666.9,2318.63,740.7,2325.83z"/>
		</g>
		<g>
			<defs>
				<rect id="SVGID_00000162349571665105718160000000937856188492575108_" x="-715" y="1294.63" width="3472" height="1364.4"/>
			</defs>
			<clipPath id="SVGID_00000134211308549649449020000013790740888164517785_">
				<use xlink:href="#SVGID_00000162349571665105718160000000937856188492575108_"  style="overflow:visible;"/>
			</clipPath>
			<path style="clip-path:url(#SVGID_00000134211308549649449020000013790740888164517785_);fill:#026BB2;" d="M1081.6,2626.93
				c56.2-7,141.1-73.3,179.2-115.2c16.7-18.4,33-38.3,55.1-49.8c22.8-11.9,49.5-13.6,75.2-14.6c77.7-3.2,156.3-3.1,232-21.2
				c33.9-8.1,67-19.9,101.6-23.7c63.4-6.8,126.1,13.7,188.3,27.6c98.9,22.1,201.5,27.7,302.2,16.6c41.7-4.6,87.4-11.3,122.7,11.3
				c40.8-3.9,80.3,18.4,119.6,29.9c94.4,27.5,198.1-2.4,292.8,24c8.7,2.4,17.7,5.6,24,12.1c9.4,9.8,10.5,24.7,11,38.3
				c1.3,32.3,2.6,64.6,3.9,96.8c0.2,5.3,0.3,11.1-2.6,15.5c-3.5,5.2-10.2,7.1-16.3,8.5c-99.4,22.3-202.7,11.6-304.6,11.6
				c-146.2,0.1-292.3,22.7-438.3,14.1c-91.8-5.4-183.4-23-275.2-16.9c-118.6,7.9-237.7,1.4-356.6,0.3c-55.2-0.5-110.6-1.2-165.5-7.6
				c-16.4-1.9-33.2-4.5-47.5-12.7s-25.8-23.3-25-39.8c-10.2,2.8-21.3,5.6-31.3,1.9C1116.5,2630.53,1075.4,2635.63,1081.6,2626.93z"
				/>
		</g>
	</g>
</g>
<g id="boya">
</g>
<g id="Metagenomica">
	<g>
		<line class="st20" x1="539" y1="2074.43" x2="161.1" y2="1557.63"/>
		<line class="st20" x1="160.8" y1="1557.43" x2="431.3" y2="2084.73"/>
		<circle class="st20" cx="126.9" cy="1478.63" r="86.9"/>
	</g>
	<g>
		<path class="st21" d="M102.6,1537.03l-0.5-0.2c-2.5-1-4.4-3.2-5.3-6.4c-1.3-4.7,0-10.1,3.5-14.6c13.8-17.8,35.4-27.7,57.9-26.4
			c2,0.1,4,0.5,5.8,1.2c6.9,2.6,10.8,8.7,8.9,14l-0.1,0.2c-2.3,6.6-9.9,9.3-15.9,9c-14.5-0.8-28.4,5.5-37.3,17
			C116,1535.53,109.1,1539.53,102.6,1537.03z"/>
		<path class="st22" d="M157.1,1511.63c-15.2-0.8-29.9,5.9-39.1,17.8c-3.6,4.5-9.6,7.4-14.7,5.4c-0.1,0-0.1-0.1-0.2-0.1
			c-5.1-2-6.3-10.6-0.9-17.6c13.3-17.2,34.3-26.8,56-25.5c8.8,0.5,14.5,7.1,12.7,12.2c0,0.1,0,0.1-0.1,0.2
			C169,1509.33,162.8,1511.93,157.1,1511.63z"/>
		<path class="st21" d="M145.9,1490.43l-0.3-5.5c1.9-0.4,3.2-1.8,3.1-3.5c-0.1-1.8-2.1-3.2-4.4-3.1c-2.3,0.1-4.1,1.8-4,3.6
			c0.1,1.7,1.8,2.9,3.8,3l0.3,5.5c0,0.4,0.3,0.7,0.8,0.7l0,0C145.6,1491.13,145.9,1490.83,145.9,1490.43z"/>
		<path class="st21" d="M134.3,1492.63l-1-5.5c1.8-0.7,2.9-2.3,2.6-3.8c-0.3-1.8-2.5-2.9-4.7-2.5c-2.3,0.4-3.8,2.3-3.5,4.1
			c0.3,1.6,2.1,2.7,4.2,2.5l1,5.4c0.1,0.4,0.4,0.6,0.8,0.6l0,0C134.1,1493.33,134.4,1493.03,134.3,1492.63z"/>
		<path class="st21" d="M123.6,1497.33l-2.2-5.1c1.6-1.1,2.3-2.9,1.7-4.3c-0.8-1.7-3.1-2.3-5.2-1.3s-3.2,3.1-2.4,4.8
			c0.7,1.5,2.7,2.1,4.6,1.5l2.2,5c0.2,0.4,0.6,0.5,1,0.4l0,0C123.6,1498.13,123.7,1497.63,123.6,1497.33z"/>
		<path class="st21" d="M113.6,1503.73l-2.7-4.8c1.5-1.2,2-3.1,1.2-4.5c-0.9-1.6-3.3-1.9-5.3-0.7c-2,1.2-2.8,3.4-1.9,5
			c0.9,1.4,2.9,1.8,4.8,1l2.7,4.8c0.2,0.3,0.6,0.5,1,0.3l0,0C113.7,1504.53,113.9,1504.13,113.6,1503.73z"/>
		<path class="st21" d="M105.3,1511.03l-4.2-3.6c1-1.6,0.9-3.6-0.3-4.6c-1.4-1.2-3.8-0.7-5.2,1c-1.5,1.8-1.6,4.2-0.1,5.3
			c1.3,1.1,3.3,0.8,4.8-0.6l4.1,3.6c0.3,0.3,0.8,0.2,1-0.1l0,0C105.7,1511.73,105.6,1511.33,105.3,1511.03z"/>
		<path class="st21" d="M98.7,1519.83l-5.2-1.9c0.3-1.9-0.4-3.7-2-4.2c-1.7-0.6-3.8,0.6-4.5,2.8c-0.8,2.2,0,4.4,1.7,5.1
			c1.6,0.6,3.4-0.5,4.3-2.3l5.1,1.9c0.4,0.1,0.8-0.1,0.9-0.4l0,0C99.2,1520.43,99,1520.03,98.7,1519.83z"/>
		<path class="st21" d="M97.2,1527.93l-5,2.3c-1.1-1.6-2.9-2.3-4.4-1.5c-1.6,0.8-2.2,3.1-1.2,5.2s3.2,3.1,4.8,2.3
			c1.5-0.7,2-2.7,1.4-4.7l5-2.3c0.4-0.2,0.5-0.6,0.3-1l0,0C97.9,1527.93,97.5,1527.83,97.2,1527.93z"/>
		<path class="st21" d="M102,1536.03l-2.4,5c-1.8-0.5-3.7,0.1-4.4,1.6c-0.8,1.7,0.3,3.8,2.4,4.8s4.4,0.4,5.2-1.3
			c0.7-1.5-0.1-3.4-1.9-4.5l2.4-4.9c0.2-0.3,0-0.8-0.3-1l0,0C102.6,1535.53,102.1,1535.63,102,1536.03z"/>
		<path class="st21" d="M110.4,1536.43l1.8,5.2c-1.7,1-2.5,2.7-2,4.2c0.6,1.7,2.9,2.5,5.1,1.7s3.4-2.9,2.8-4.6
			c-0.6-1.6-2.5-2.3-4.5-1.8l-1.8-5.2c-0.1-0.4-0.5-0.6-0.9-0.4l0,0C110.5,1535.63,110.3,1536.03,110.4,1536.43z"/>
		<path class="st21" d="M118.9,1530.73l3.7,4.1c-1.2,1.5-1.3,3.5-0.2,4.6c1.2,1.4,3.6,1.2,5.3-0.4s2-3.9,0.8-5.3
			c-1.1-1.2-3.2-1.2-4.9,0l-3.7-4.1c-0.3-0.3-0.7-0.3-1-0.1l0,0C118.6,1529.93,118.6,1530.43,118.9,1530.73z"/>
		<path class="st21" d="M128.2,1521.63l3.7,4.1c-1.2,1.5-1.3,3.5-0.2,4.6c1.2,1.4,3.6,1.2,5.3-0.4s2-3.9,0.8-5.3
			c-1.1-1.2-3.2-1.2-4.9,0l-3.7-4.1c-0.3-0.3-0.7-0.3-1-0.1l0,0C128,1520.93,127.9,1521.33,128.2,1521.63z"/>
		<path class="st21" d="M142.9,1514.43l1,5.5c-1.8,0.7-2.9,2.3-2.6,3.8c0.3,1.8,2.5,2.9,4.7,2.5c2.3-0.4,3.8-2.3,3.5-4.1
			c-0.3-1.6-2.1-2.7-4.1-2.5l-1-5.4c-0.1-0.4-0.4-0.7-0.8-0.6l0,0C143.1,1513.63,142.8,1514.03,142.9,1514.43z"/>
		<path class="st21" d="M156.1,1513.23l0.5,5.5c-1.8,0.5-3.1,2-3,3.6c0.2,1.8,2.2,3.1,4.5,2.9s4-1.9,3.8-3.8
			c-0.2-1.7-1.9-2.9-3.9-2.9l-0.5-5.5c0-0.4-0.4-0.7-0.8-0.7l0,0C156.3,1512.53,156,1512.83,156.1,1513.23z"/>
		<path class="st21" d="M167.3,1510.73l3.9,3.9c-1.1,1.6-1.1,3.5,0,4.6c1.3,1.3,3.7,1,5.3-0.7c1.6-1.6,1.8-4,0.5-5.3
			c-1.2-1.2-3.3-1-4.8,0.3l-3.9-3.9c-0.3-0.3-0.7-0.3-1,0l0,0C167.1,1510.03,167.1,1510.43,167.3,1510.73z"/>
		<path class="st21" d="M172.4,1502.73l5.5,0.6c0.1,1.9,1.4,3.4,3,3.6c1.8,0.2,3.5-1.6,3.7-3.9s-1.1-4.3-3-4.4
			c-1.7-0.1-3.2,1.3-3.6,3.3l-5.5-0.6c-0.4,0-0.8,0.3-0.8,0.6l0,0C171.8,1502.33,172.1,1502.73,172.4,1502.73z"/>
		<path class="st21" d="M157.4,1489.53l1.4-5.4c1.9,0.1,3.6-0.9,4-2.4c0.4-1.8-1.1-3.7-3.3-4.2c-2.3-0.5-4.4,0.5-4.8,2.3
			c-0.4,1.6,0.8,3.3,2.7,4l-1.3,5.3c-0.1,0.4,0.1,0.8,0.5,0.9l0,0C157,1490.13,157.4,1489.93,157.4,1489.53z"/>
		<path class="st21" d="M168,1493.63l3.7-4.1c1.6,1,3.6,0.9,4.6-0.3c1.2-1.4,0.8-3.7-1-5.3c-1.8-1.5-4.1-1.6-5.3-0.2
			c-1.1,1.3-0.8,3.3,0.6,4.8l-3.6,4.1c-0.3,0.3-0.2,0.8,0.1,1l0,0C167.3,1494.03,167.8,1493.93,168,1493.63z"/>
		<path class="st21" d="M160.3,1504.63l-7.7-1.1c-1-0.1-1.7-1.1-1.6-2.1l0,0c0.1-1,1.1-1.7,2.1-1.6l7.7,1.1c1,0.1,1.7,1.1,1.6,2.1
			l0,0C162.3,1504.03,161.3,1504.73,160.3,1504.63z"/>
		<path class="st21" d="M128.1,1515.53l-7.4,1.6c-1,0.2-1.9-0.4-2.2-1.4l0,0c-0.2-1,0.4-1.9,1.4-2.2l7.4-1.6c1-0.2,1.9,0.4,2.2,1.4
			l0,0C129.6,1514.33,129,1515.23,128.1,1515.53z"/>
		<path class="st21" d="M106.5,1525.23c-0.2-0.1-0.4-0.2-0.6-0.4c-0.5-0.4-0.8-0.9-0.8-1.5c-0.1-0.6,0.1-1.2,0.5-1.6l4.2-5.1
			c0.8-0.9,2.2-1,3.1-0.3c0.5,0.4,0.8,0.9,0.8,1.5c0.1,0.6-0.1,1.2-0.5,1.6l-4.2,5.1C108.3,1525.33,107.4,1525.63,106.5,1525.23z
			 M111.8,1517.13c-0.4-0.1-0.8,0-1.1,0.3l-4.2,5.1c-0.2,0.2-0.2,0.5-0.2,0.7s0.1,0.5,0.3,0.7c0.1,0.1,0.2,0.1,0.3,0.2
			c0.4,0.1,0.8,0,1.1-0.3l4.2-5.1c0.2-0.2,0.3-0.5,0.2-0.7c0-0.3-0.1-0.5-0.3-0.7C112,1517.23,111.9,1517.23,111.8,1517.13z"/>
		<path class="st21" d="M131.7,1505.53c-0.4-0.2-0.8-0.5-1.1-0.9c-0.3-0.5-0.4-1.1-0.3-1.7c0.1-0.6,0.5-1.1,1-1.4l5.6-3.6
			c1-0.6,2.4-0.3,3,0.6c0.3,0.5,0.4,1.1,0.3,1.7c-0.1,0.6-0.5,1.1-1,1.4l-5.6,3.6C133.1,1505.73,132.4,1505.83,131.7,1505.53z
			 M138.4,1498.93c-0.3-0.1-0.6-0.1-0.9,0.1l-5.6,3.6c-0.2,0.1-0.4,0.4-0.4,0.6s0,0.5,0.1,0.8c0.3,0.5,0.9,0.6,1.4,0.3l5.6-3.6
			c0.2-0.1,0.4-0.4,0.4-0.6s0-0.5-0.1-0.8C138.7,1499.13,138.6,1499.03,138.4,1498.93z"/>
		<path class="st23" d="M147.7,1508.23c-0.3,0.9-1.4,1.4-2.3,1.1c-0.9-0.3-1.4-1.4-1.1-2.3c0.3-0.9,1.4-1.4,2.3-1.1
			S148,1507.33,147.7,1508.23z"/>
		<path class="st23" d="M147,1501.93c-0.2,0.5-0.8,0.8-1.3,0.6c-0.5-0.2-0.8-0.8-0.6-1.3s0.8-0.8,1.3-0.6
			C147,1500.83,147.2,1501.43,147,1501.93z"/>
		<path class="st23" d="M159.9,1497.63c-0.3,0.8-1.1,1.1-1.8,0.8c-0.7-0.3-1.1-1.1-0.8-1.8c0.3-0.8,1.1-1.1,1.8-0.8
			S160.2,1496.93,159.9,1497.63z"/>
		<path class="st23" d="M123.1,1506.73c-0.3,1-1.4,1.4-2.4,1.1s-1.4-1.4-1.1-2.4s1.4-1.4,2.4-1.1
			C123,1504.73,123.5,1505.73,123.1,1506.73z"/>
		<path class="st23" d="M114.8,1528.83c-0.3,0.9-1.4,1.4-2.3,1.1s-1.4-1.4-1.1-2.3s1.4-1.4,2.3-1.1S115.2,1527.83,114.8,1528.83z"/>
		<path class="st23" d="M113.9,1511.03c-0.2,0.4-0.6,0.6-1,0.5c-0.4-0.2-0.6-0.6-0.5-1c0.2-0.4,0.6-0.6,1-0.5
			S114,1510.53,113.9,1511.03z"/>
		<path class="st23" d="M107.2,1531.23c-0.3,0.8-1.2,1.3-2.1,1c-0.8-0.3-1.3-1.2-1-2.1c0.3-0.8,1.2-1.3,2.1-1
			C107,1529.43,107.5,1530.43,107.2,1531.23z"/>
		<path class="st23" d="M168.8,1501.43c-0.2,0.5-0.8,0.8-1.3,0.6c-0.5-0.2-0.8-0.8-0.6-1.3s0.8-0.8,1.3-0.6
			S168.9,1500.93,168.8,1501.43z"/>
		<path class="st23" d="M139.1,1510.53c-0.4,1-1.6,1.6-2.6,1.2s-1.6-1.6-1.2-2.6s1.6-1.6,2.6-1.2
			C139,1508.33,139.5,1509.53,139.1,1510.53z"/>
		<path class="st23" d="M146.6,1496.33c-0.1,0.4-0.6,0.6-1,0.5s-0.6-0.6-0.5-1s0.6-0.6,1-0.5
			C146.6,1495.53,146.8,1495.93,146.6,1496.33z"/>
	</g>
	<g>
		<path class="st21" d="M129.5,1424.73c-8.2-0.5-20.5,2.4-30.5,11.7c-0.2,0.1-0.3,0.3-0.4,0.4c-10.2,9.4-13.9,21.8-13.9,30.1
			c-0.1,10.2,4.7,15.8,9.2,15.9h0.2c2.6-0.1,5.1-1.4,7.9-4.1c2.2-2.1,4.4-4.8,6.7-7.7c3.1-3.8,6.7-8.2,10.9-11.9l0.1-0.1l0.1-0.1
			c3.9-4,8.5-7.3,12.5-10.2c3-2.2,5.9-4.2,8.1-6.3c2.8-2.7,4.2-5.1,4.5-7.6v-0.2C145,1430.33,139.7,1425.23,129.5,1424.73z"/>
		<path class="st22" d="M142.4,1434.73c-0.8,7.1-14.5,12.5-24.4,22.6c-10.7,9.2-16.9,22.6-24,23c-3.3-0.1-7-5.1-6.9-13.5
			c0-8.2,3.8-19.7,13.1-28.3c9.1-8.9,20.9-11.9,29.1-11.5C137.8,1427.53,142.5,1431.43,142.4,1434.73z"/>
		<path class="st21" d="M109.7,1430.63c-0.1,0.1-0.3,0.2-0.5,0.1c-0.3-0.1-0.4-0.3-0.3-0.6c0.9-3.1-0.7-4.8-2.3-6.6
			c-1.6-1.7-3.1-3.4-1.6-6c0.1-0.2,0.4-0.3,0.7-0.2c0.2,0.1,0.3,0.4,0.2,0.7c-1.1,1.9-0.2,3,1.5,4.9c1.6,1.7,3.6,3.9,2.5,7.5
			C109.8,1430.53,109.8,1430.63,109.7,1430.63z"/>
		<path class="st21" d="M116,1428.63c-0.2,0.1-0.4,0.2-0.6,0.1s-0.3-0.5-0.1-0.7c1-1.6,0-4.6-0.8-7.3c-0.8-2.6-1.6-4.9-0.7-6.1
			c0.1-0.2,0.5-0.3,0.7-0.1c0.2,0.1,0.3,0.5,0.1,0.7c-0.6,0.8,0.1,3.1,0.8,5.3C116.3,1423.43,117.3,1426.53,116,1428.63
			C116.1,1428.53,116.1,1428.53,116,1428.63z"/>
		<path class="st21" d="M122.5,1426.73C122.5,1426.83,122.4,1426.83,122.5,1426.73c-0.3,0.2-0.6,0.1-0.8-0.1c-1.4-2.1-1-4.7-0.7-7.2
			c0.3-2.4,0.7-4.8-0.8-6.1c-0.2-0.2-0.2-0.5,0-0.7s0.5-0.2,0.7,0c1.9,1.7,1.5,4.4,1.1,7c-0.3,2.3-0.7,4.7,0.5,6.5
			C122.7,1426.33,122.7,1426.63,122.5,1426.73z"/>
		<path class="st21" d="M129,1426.33c-0.1,0.1-0.3,0.2-0.5,0.1c-0.3-0.1-0.4-0.3-0.3-0.6c1-3.3-0.1-6.2-1-8.5
			c-0.8-1.9-1.4-3.6-0.6-5c0.1-0.2,0.4-0.3,0.7-0.2c0.2,0.1,0.3,0.4,0.2,0.7c-0.6,1,0,2.4,0.6,4.2c1,2.5,2.1,5.5,1,9.2
			C129.2,1426.23,129.1,1426.33,129,1426.33z"/>
		<path class="st21" d="M135.4,1427.23c-0.2,0.1-0.4,0.2-0.6,0.1c-0.2-0.1-0.3-0.5-0.1-0.7c1.7-2.6,1.2-5.7,0.8-8.4
			c-0.4-2.4-0.7-4.5,0.4-5.8c0.2-0.2,0.5-0.2,0.7-0.1c0.2,0.2,0.2,0.5,0.1,0.7c-0.9,1-0.6,2.9-0.2,5.1
			C136.9,1421.03,137.5,1424.33,135.4,1427.23C135.5,1427.23,135.5,1427.23,135.4,1427.23z"/>
		<path class="st21" d="M139.8,1428.43c-0.2,0.2-0.5,0.2-0.7,0s-0.2-0.5,0-0.7c0.1-0.1,5.6-5.5,5.9-11.7c0-0.3,0.2-0.5,0.5-0.5
			s0.5,0.2,0.5,0.5C145.7,1422.63,140.1,1428.13,139.8,1428.43L139.8,1428.43z"/>
		<path class="st21" d="M153.3,1423.73c-0.1,0.1-0.2,0.1-0.3,0.1c-2.5,0.3-3.3,1.6-4.3,3.2c-1.2,1.8-2.5,3.9-6.4,5
			c-0.3,0.1-0.5-0.1-0.6-0.3c-0.1-0.3,0.1-0.5,0.3-0.6c3.5-1,4.7-2.8,5.8-4.6c1.1-1.7,2.1-3.3,5-3.6c0.3,0,0.5,0.2,0.5,0.4
			C153.5,1423.43,153.5,1423.63,153.3,1423.73z"/>
		<path class="st21" d="M157.4,1433.93c-0.1,0.1-0.3,0.2-0.5,0.1c-5.4-1.4-12.8,2.4-12.9,2.5c-0.2,0.1-0.5,0-0.7-0.2s0-0.5,0.2-0.7
			c0.3-0.2,7.9-4.1,13.6-2.5c0.3,0.1,0.4,0.3,0.3,0.6C157.5,1433.83,157.4,1433.83,157.4,1433.93z"/>
		<path class="st21" d="M154.2,1443.63c-0.1,0.1-0.1,0.1-0.2,0.1c-3.7,1-5.7,0-7.8-1.1c-1.5-0.8-3-1.6-5.4-1.8
			c-0.3,0-0.5-0.3-0.4-0.5s0.3-0.5,0.5-0.4c2.6,0.3,4.2,1.2,5.7,1.9c2.1,1.1,3.7,1.9,7.1,1c0.3-0.1,0.5,0.1,0.6,0.3
			C154.3,1443.33,154.3,1443.53,154.2,1443.63z"/>
		<path class="st21" d="M148.3,1449.73c-0.1,0.1-0.2,0.1-0.3,0.1c-0.3,0-0.5-0.2-0.5-0.5c0-0.9-0.6-1-2.9-1c-2.5,0-6.3-0.1-9.7-3.3
			c-0.2-0.2-0.2-0.5,0-0.7s0.5-0.2,0.7,0c3.1,3,6.5,3,9,3.1c2,0,3.8,0.1,3.8,2C148.4,1449.53,148.4,1449.63,148.3,1449.73z"/>
		<path class="st21" d="M142.2,1454.83c-0.1,0.1-0.2,0.1-0.3,0.1c-0.3,0-0.5-0.1-0.5-0.4c-0.2-1.2-1.9-1.5-4.6-1.9
			c-2.5-0.3-5.6-0.8-7.9-2.5c-0.2-0.2-0.3-0.5-0.1-0.7s0.5-0.3,0.7-0.1c2.1,1.6,4.9,2,7.4,2.3c2.8,0.4,5.1,0.7,5.4,2.7
			C142.4,1454.63,142.3,1454.73,142.2,1454.83z"/>
		<path class="st21" d="M136.1,1459.53c-0.1,0.1-0.2,0.1-0.3,0.1c-0.3,0-0.5-0.1-0.6-0.4c-0.2-1.1-0.9-1.1-2.8-1.2
			c-2.3-0.1-5.7-0.2-9.7-3.2c-0.2-0.2-0.3-0.5-0.1-0.7c0.2-0.2,0.5-0.3,0.7-0.1c3.7,2.8,6.8,2.9,9.1,3c1.8,0.1,3.4,0.1,3.8,2
			C136.2,1459.23,136.2,1459.33,136.1,1459.53z"/>
		<path class="st21" d="M131.2,1465.23c-0.1,0.1-0.1,0.1-0.2,0.1c-0.3,0.1-0.5-0.1-0.6-0.4c-0.7-3.3-9-4.2-12.2-4.3
			c-0.3,0-0.5-0.2-0.5-0.5s0.2-0.5,0.5-0.5c0.5,0,12.1,0.3,13.1,5.1C131.4,1464.93,131.3,1465.13,131.2,1465.23z"/>
		<path class="st21" d="M127.7,1469.23c-0.1,0.1-0.1,0.1-0.2,0.1c-3.1,0.7-12.7-4.1-13.8-4.6c-0.2-0.1-0.3-0.4-0.2-0.7
			s0.4-0.3,0.7-0.2c2.9,1.4,10.8,5.1,13.2,4.5c0.3-0.1,0.5,0.1,0.6,0.4C127.9,1468.93,127.8,1469.13,127.7,1469.23z"/>
		<path class="st21" d="M123.7,1473.83c-0.1,0.1-0.2,0.1-0.3,0.1c-3.3,0.5-5.2-0.6-7.2-1.9c-1.8-1.1-3.7-2.3-6.9-2.5
			c-0.3,0-0.5-0.3-0.5-0.5c0-0.3,0.3-0.5,0.5-0.5c3.5,0.2,5.6,1.5,7.4,2.6c1.9,1.2,3.6,2.2,6.5,1.7c0.3,0,0.5,0.1,0.6,0.4
			C123.9,1473.53,123.8,1473.73,123.7,1473.83z"/>
		<path class="st21" d="M118.1,1479.33L118.1,1479.33c-0.3,0.2-0.6,0.1-0.7-0.1c-2.7-3.8-12.2-4.5-12.3-4.5c-0.3,0-0.5-0.3-0.5-0.5
			c0-0.3,0.3-0.5,0.5-0.5c0.4,0,10.1,0.7,13,4.9C118.3,1478.93,118.3,1479.13,118.1,1479.33z"/>
		<path class="st21" d="M112.9,1484.33c-0.1,0.1-0.1,0.1-0.2,0.1c-0.3,0.1-0.5-0.1-0.6-0.3c-0.5-2.1-2.8-2.3-5.4-2.7
			c-2.6-0.3-5.3-0.7-6.5-3c-0.1-0.2,0-0.5,0.2-0.7c0.2-0.1,0.5,0,0.7,0.2c0.9,1.8,3.2,2.1,5.7,2.4c2.7,0.3,5.5,0.7,6.2,3.4
			C113.1,1484.03,113,1484.23,112.9,1484.33z"/>
		<path class="st21" d="M102.7,1493.93c-0.2,0.2-0.5,0.2-0.6,0c-0.2-0.2-0.2-0.5-0.1-0.7c3.6-4.4-4.8-11.8-4.9-11.9
			c-0.2-0.2-0.2-0.5-0.1-0.7c0.2-0.2,0.5-0.2,0.7-0.1C98.1,1480.93,107,1488.63,102.7,1493.93
			C102.8,1493.93,102.8,1493.93,102.7,1493.93z"/>
		<path class="st21" d="M89.9,1494.63c-0.1,0.1-0.3,0.2-0.5,0.1c-0.4-0.2-0.7-0.5-0.9-0.9c-0.5-1.2,0.6-3.2,2-5.7
			c1.2-2.2,2.6-4.7,2.6-6.4c0-0.3,0.2-0.5,0.5-0.5s0.5,0.2,0.5,0.5c0,2-1.4,4.5-2.7,6.9c-1.1,1.9-2.3,4.1-2,4.9
			c0,0.1,0.1,0.2,0.3,0.3c0.3,0.1,0.4,0.4,0.3,0.6C90,1494.53,90,1494.63,89.9,1494.63z"/>
		<path class="st21" d="M87.3,1484.03c-1.1,1-2.1,1.7-3.1,2.3c-1.4,0.9-2.5,1.6-3,3c-0.1,0.3-0.4,0.4-0.6,0.3
			c-0.3-0.1-0.4-0.4-0.3-0.6c0.6-1.7,1.9-2.5,3.4-3.5c1.8-1.2,4.1-2.7,5.9-6.4c0.1-0.2,0.4-0.3,0.7-0.2c0.2,0.1,0.3,0.4,0.2,0.7
			C89.5,1481.63,88.4,1483.03,87.3,1484.03z"/>
		<path class="st21" d="M80.8,1480.23c-1,1-2.5,1.8-4.8,2.4c-0.3,0.1-0.5-0.1-0.6-0.4s0.1-0.5,0.4-0.6c3.9-1,5-2.6,6.1-4.4
			c0.9-1.4,1.9-2.9,4.2-4.1c0.2-0.1,0.5,0,0.7,0.2s0,0.5-0.2,0.7c-2.1,1.1-3,2.4-3.8,3.8C82.2,1478.63,81.6,1479.53,80.8,1480.23z"
			/>
		<path class="st21" d="M83.6,1470.63c-1.7,1.6-3.4,2.1-5,2.6c-1.4,0.4-2.8,0.8-3.9,1.9l0,0c-0.2,0.2-0.5,0.2-0.7,0s-0.2-0.5,0-0.7
			c1.3-1.3,2.8-1.7,4.3-2.1c2.4-0.7,4.8-1.4,6.9-5.4c0.1-0.2,0.4-0.3,0.7-0.2c0.2,0.1,0.3,0.4,0.2,0.7
			C85.3,1468.73,84.5,1469.83,83.6,1470.63z"/>
		<path class="st21" d="M87,1461.23c-0.1,0.1-0.1,0.1-0.2,0.1c-3.5,0.7-5.7,2.4-7.4,3.7c-1.8,1.3-3.1,2.3-4.8,1.4
			c-0.2-0.1-0.3-0.4-0.2-0.7c0.1-0.2,0.4-0.3,0.7-0.2c1.1,0.6,2,0,3.8-1.3c1.7-1.3,4.1-3.1,7.8-3.8c0.3-0.1,0.5,0.1,0.6,0.4
			C87.2,1460.93,87.1,1461.13,87,1461.23z"/>
		<path class="st21" d="M87.6,1456.23L87.6,1456.23c-2.3,1.8-4.3,1.1-6.4,0.3c-1.8-0.7-3.8-1.4-6.5-0.8c-0.3,0.1-0.5-0.1-0.6-0.4
			s0.1-0.5,0.4-0.6c3-0.7,5.2,0.1,7.1,0.8c2.1,0.8,3.6,1.3,5.4-0.2c0.2-0.2,0.5-0.1,0.7,0.1C87.8,1455.73,87.8,1456.03,87.6,1456.23
			z"/>
		<path class="st21" d="M91.3,1449.53c-0.2,0.2-0.5,0.2-0.7,0c-1.9-1.8-5.5-1.1-8.3-0.6c-2.5,0.5-4.4,0.9-5.2-0.3
			c-0.1-0.2-0.1-0.5,0.1-0.7c0.2-0.1,0.5-0.1,0.7,0.1c0.4,0.6,2.3,0.2,4.2-0.1c3.1-0.6,6.9-1.3,9.2,0.8
			C91.5,1448.93,91.5,1449.33,91.3,1449.53C91.4,1449.53,91.3,1449.53,91.3,1449.53z"/>
		<path class="st21" d="M95.2,1442.53c-0.1,0.1-0.3,0.2-0.5,0.1c-3-0.8-11.3-2.4-13,0c-0.1,0.2-0.5,0.3-0.7,0.1
			c-0.2-0.1-0.3-0.5-0.1-0.7c2.4-3.4,12.8-0.7,14-0.4c0.3,0.1,0.4,0.3,0.3,0.6C95.3,1442.33,95.3,1442.43,95.2,1442.53z"/>
		<path class="st21" d="M99.5,1438.13C99.5,1438.23,99.5,1438.23,99.5,1438.13c-0.3,0.2-0.6,0.1-0.7-0.1c-1.9-2.7-4.6-3.3-7-3.8
			c-2.2-0.5-4.2-1-4.8-3.1c-0.1-0.3,0.1-0.5,0.3-0.6c0.3-0.1,0.5,0.1,0.6,0.3c0.4,1.5,1.8,1.8,4.1,2.4c2.4,0.5,5.4,1.2,7.6,4.2
			C99.7,1437.73,99.7,1438.03,99.5,1438.13z"/>
		<path class="st21" d="M104.7,1434.13C104.6,1434.13,104.6,1434.13,104.7,1434.13c-0.3,0.2-0.6,0.1-0.8-0.1c-1.2-1.9-2.5-3-3.8-4
			c-1.9-1.6-3.6-3-3.3-6.5c0-0.3,0.3-0.5,0.5-0.4s0.5,0.3,0.4,0.5c-0.3,3,1.1,4.1,2.9,5.6c1.3,1,2.7,2.2,4,4.2
			C104.9,1433.73,104.8,1433.93,104.7,1434.13z"/>
		<g>
			<path class="st21" d="M121.3,1435.03c1.7,1.8,1.6,4.5-0.2,6.2c-1.8,1.7-4.5,1.6-6.2-0.2c-1.7-1.8-1.6-4.5,0.2-6.2
				C116.9,1433.23,119.7,1433.23,121.3,1435.03z"/>
		</g>
		<path class="st23" d="M108.9,1446.73c0.8,0.8,0.8,2.1-0.1,2.9c-0.8,0.8-2.1,0.8-2.9-0.1s-0.8-2.1,0.1-2.9
			C106.8,1445.93,108.1,1445.93,108.9,1446.73z"/>
		<path class="st23" d="M109.7,1458.03c0.7,0.7,0.6,1.8-0.1,2.4c-0.7,0.7-1.8,0.6-2.4-0.1c-0.7-0.7-0.6-1.8,0.1-2.4
			C107.9,1457.33,109,1457.33,109.7,1458.03z"/>
		<path class="st23" d="M99.3,1462.53c0.4,0.4,0.4,1.1,0,1.4c-0.4,0.4-1.1,0.4-1.4,0c-0.4-0.4-0.4-1.1,0-1.4
			C98.3,1462.03,98.9,1462.13,99.3,1462.53z"/>
		<path class="st23" d="M96.1,1454.53c0.3,0.3,0.3,0.7,0,1s-0.7,0.3-1,0s-0.3-0.7,0-1S95.8,1454.23,96.1,1454.53z"/>
		<path class="st23" d="M94.4,1458.33c0.6,0.6,0.6,1.6-0.1,2.2c-0.6,0.6-1.6,0.6-2.2-0.1c-0.6-0.6-0.6-1.6,0.1-2.2
			C92.8,1457.63,93.8,1457.63,94.4,1458.33z"/>
		<path class="st23" d="M96.3,1472.73c0.6,0.6,0.6,1.6-0.1,2.2c-0.6,0.6-1.6,0.6-2.2-0.1s-0.6-1.6,0.1-2.2
			C94.7,1472.13,95.7,1472.13,96.3,1472.73z"/>
		<path class="st23" d="M125.6,1445.13c0.6,0.6,0.6,1.6-0.1,2.2c-0.6,0.6-1.6,0.6-2.2-0.1c-0.6-0.6-0.6-1.6,0.1-2.2
			C124,1444.43,125,1444.43,125.6,1445.13z"/>
		<path class="st23" d="M130.9,1432.63c0.2,0.2,0.2,0.5,0,0.7s-0.5,0.2-0.7,0s-0.2-0.5,0-0.7S130.8,1432.43,130.9,1432.63z"/>
		<path class="st23" d="M136.2,1436.43c0.5,0.5,0.5,1.4-0.1,1.9c-0.5,0.5-1.4,0.5-1.9-0.1c-0.5-0.5-0.5-1.4,0.1-1.9
			C134.8,1435.83,135.6,1435.83,136.2,1436.43z"/>
		<path class="st23" d="M108.2,1436.43c0.3,0.3,0.3,0.8,0,1.1c-0.3,0.3-0.8,0.3-1.1,0c-0.3-0.3-0.3-0.8,0-1.1
			C107.4,1436.03,107.9,1436.03,108.2,1436.43z"/>
		<path class="st23" d="M98.9,1445.53c0.4,0.4,0.4,1,0,1.4s-1,0.4-1.4,0s-0.4-1,0-1.4S98.5,1445.13,98.9,1445.53z"/>
	</g>
</g>
<g id="Teledeteccion">
	<g>
		<path class="st8" d="M865.2,741.33c14-17.4,9.7-41.7-8.6-56.5c-18.4-14.8-44.6-12.7-58.6,4.6L865.2,741.33z"/>
		<polygon class="st8" points="877.8,591.53 907.9,551.83 959.9,592.03 932.1,631.03 		"/>
		<polygon class="st8" points="835,650.03 863.7,610.23 918.9,651.13 891.4,692.73 		"/>
		<line class="st24" x1="854.2" y1="682.33" x2="857.8" y2="677.23"/>
		<line class="st24" x1="803.8" y1="753.23" x2="809" y2="698.33"/>
		<line class="st24" x1="803.8" y1="752.73" x2="850.8" y2="730.63"/>
		<line class="st24" x1="830.9" y1="715.23" x2="804.3" y2="752.63"/>
		<circle cx="803" cy="754.33" r="2.7"/>
		
			<rect x="856.95" y="639.15" transform="matrix(0.6002 -0.7999 0.7999 0.6002 -195.3403 958.2048)" class="st25" width="7.7" height="70.7"/>
		
			<rect x="932.74" y="536.03" transform="matrix(0.6105 -0.792 0.792 0.6105 -85.8025 963.3784)" class="st26" width="7.7" height="65.8"/>
		<polygon class="st27" points="874.1,617.93 887.5,598.93 923.8,624.73 910,644.23 		"/>
		<line class="st24" x1="937.5" y1="623.73" x2="954.4" y2="636.93"/>
		<line class="st24" x1="914.3" y1="656.53" x2="931.5" y2="669.43"/>
		<line class="st24" x1="845.8" y1="607.63" x2="859.1" y2="616.43"/>
		<line class="st24" x1="868.5" y1="574.43" x2="882.7" y2="584.03"/>
		
			<rect x="946.36" y="636.85" transform="matrix(0.5819 -0.8132 0.8132 0.5819 -123.33 1048.8035)" class="st28" width="24.1" height="15"/>
		
			<rect x="961.99" y="647.88" transform="matrix(0.5819 -0.8132 0.8132 0.5819 -125.7603 1066.1251)" class="st28" width="24.1" height="15"/>
		
			<rect x="977.62" y="658.77" transform="matrix(0.5819 -0.8132 0.8132 0.5819 -128.0821 1083.3837)" class="st28" width="24.1" height="15"/>
		
			<rect x="993.27" y="669.79" transform="matrix(0.5819 -0.8132 0.8132 0.5819 -130.5077 1100.7192)" class="st28" width="24.1" height="15"/>
		
			<rect x="1008.97" y="680.72" transform="matrix(0.5819 -0.8132 0.8132 0.5819 -132.8287 1118.0635)" class="st28" width="24.1" height="15"/>
		
			<rect x="1024.54" y="691.69" transform="matrix(0.5819 -0.8132 0.8132 0.5819 -135.2409 1135.3087)" class="st28" width="24.1" height="15"/>
		
			<rect x="1040.25" y="702.64" transform="matrix(0.5819 -0.8132 0.8132 0.5819 -137.576 1152.6576)" class="st28" width="24.1" height="15"/>
		
			<rect x="1055.81" y="713.61" transform="matrix(0.5819 -0.8132 0.8132 0.5819 -139.9882 1169.9027)" class="st28" width="24.1" height="15"/>
		
			<rect x="929.17" y="661.67" transform="matrix(0.5819 -0.8132 0.8132 0.5819 -150.6998 1045.2013)" class="st28" width="24.1" height="15"/>
		
			<rect x="944.74" y="672.63" transform="matrix(0.5819 -0.8132 0.8132 0.5819 -153.0981 1062.4418)" class="st28" width="24.1" height="15"/>
		
			<rect x="960.45" y="683.57" transform="matrix(0.5819 -0.8132 0.8132 0.5819 -155.4331 1079.7909)" class="st28" width="24.1" height="15"/>
		
			<rect x="976.1" y="694.6" transform="matrix(0.5819 -0.8132 0.8132 0.5819 -157.8586 1097.1263)" class="st28" width="24.1" height="15"/>
		
			<rect x="991.79" y="705.54" transform="matrix(0.5819 -0.8132 0.8132 0.5819 -160.1985 1114.4614)" class="st28" width="24.1" height="15"/>
		
			<rect x="1007.35" y="716.51" transform="matrix(0.5819 -0.8132 0.8132 0.5819 -162.6107 1131.7067)" class="st28" width="24.1" height="15"/>
		
			<rect x="1023.06" y="727.44" transform="matrix(0.5819 -0.8132 0.8132 0.5819 -164.9318 1149.0509)" class="st28" width="24.1" height="15"/>
		
			<rect x="1038.63" y="738.41" transform="matrix(0.5819 -0.8132 0.8132 0.5819 -167.344 1166.296)" class="st28" width="24.1" height="15"/>
		
			<rect x="739.16" y="488" transform="matrix(0.5819 -0.8132 0.8132 0.5819 -88.9009 818.0658)" class="st28" width="24.1" height="15"/>
		
			<rect x="754.86" y="498.94" transform="matrix(0.5819 -0.8132 0.8132 0.5819 -91.236 835.4148)" class="st28" width="24.1" height="15"/>
		
			<rect x="770.51" y="509.97" transform="matrix(0.5819 -0.8132 0.8132 0.5819 -93.6615 852.7504)" class="st28" width="24.1" height="15"/>
		
			<rect x="786.14" y="520.86" transform="matrix(0.5819 -0.8132 0.8132 0.5819 -95.9834 870.0089)" class="st28" width="24.1" height="15"/>
		
			<rect x="801.79" y="531.89" transform="matrix(0.5819 -0.8132 0.8132 0.5819 -98.4089 887.3445)" class="st28" width="24.1" height="15"/>
		
			<rect x="817.41" y="542.76" transform="matrix(0.5819 -0.8132 0.8132 0.5819 -100.7167 904.5984)" class="st28" width="24.1" height="15"/>
		
			<rect x="833.06" y="553.78" transform="matrix(0.5819 -0.8132 0.8132 0.5819 -103.1423 921.934)" class="st28" width="24.1" height="15"/>
		
			<rect x="848.77" y="564.73" transform="matrix(0.5819 -0.8132 0.8132 0.5819 -105.4773 939.2829)" class="st28" width="24.1" height="15"/>
		
			<rect x="722.04" y="512.74" transform="matrix(0.5819 -0.8132 0.8132 0.5819 -116.1755 814.4908)" class="st28" width="24.1" height="15"/>
		
			<rect x="737.69" y="523.77" transform="matrix(0.5819 -0.8132 0.8132 0.5819 -118.6011 831.8265)" class="st28" width="24.1" height="15"/>
		
			<rect x="753.24" y="534.72" transform="matrix(0.5819 -0.8132 0.8132 0.5819 -121.0042 849.053)" class="st28" width="24.1" height="15"/>
		
			<rect x="768.95" y="545.66" transform="matrix(0.5819 -0.8132 0.8132 0.5819 -123.3391 866.402)" class="st28" width="24.1" height="15"/>
		
			<rect x="784.6" y="556.69" transform="matrix(0.5819 -0.8132 0.8132 0.5819 -125.7646 883.7377)" class="st28" width="24.1" height="15"/>
		
			<rect x="800.22" y="567.58" transform="matrix(0.5819 -0.8132 0.8132 0.5819 -128.0865 900.9962)" class="st28" width="24.1" height="15"/>
		
			<rect x="815.87" y="578.6" transform="matrix(0.5819 -0.8132 0.8132 0.5819 -130.5119 918.3318)" class="st28" width="24.1" height="15"/>
		
			<rect x="831.58" y="589.53" transform="matrix(0.5819 -0.8132 0.8132 0.5819 -132.8331 935.6761)" class="st28" width="24.1" height="15"/>
		<path class="st27" d="M907.9,551.83"/>
		
			<rect x="937.95" y="547.16" transform="matrix(0.6105 -0.792 0.792 0.6105 -78.7334 965.0291)" class="st26" width="7.7" height="30.8"/>
	</g>
</g>
</svg>
