<?xml version="1.0" encoding="utf-8"?>
<!-- Generator: Adobe Illustrator 25.4.1, SVG Export Plug-In . SVG Version: 6.00 Build 0)  -->
<svg version="1.1" id="Capa_1" xmlns="http://www.w3.org/2000/svg" xmlns:xlink="http://www.w3.org/1999/xlink" x="0px" y="0px"
	 viewBox="0 0 750 1334" style="enable-background:new 0 0 750 1334;" xml:space="preserve">
<style type="text/css">
	.st0{clip-path:url(#SVGID_00000106112118637406946120000010702158746825023130_);fill:#186FA8;}
	.st1{clip-path:url(#SVGID_00000166644356049958803750000010625007240830897058_);fill:#6B96B2;}
	.st2{clip-path:url(#SVGID_00000029029446183183278500000018021836496935658679_);fill:#6B96B2;}
	.st3{clip-path:url(#SVGID_00000168093763932207714650000010954957605523299229_);fill:#026BB2;}
	.st4{clip-path:url(#SVGID_00000019677747635927109110000003541096064852694965_);fill:#3E84B2;}
	.st5{clip-path:url(#SVGID_00000009574224913068020950000001634798968027889838_);}
	.st6{fill:#F9CB1E;}
	.st7{fill:none;stroke:#000000;stroke-width:1.2792;stroke-miterlimit:10;}
	.st8{fill:#FACE1D;}
	.st9{fill:none;stroke:#000000;stroke-width:0.3198;stroke-miterlimit:10;}
	.st10{clip-path:url(#SVGID_00000170976893693477110320000004522298615551537077_);fill:#1573B2;}
	.st11{clip-path:url(#SVGID_00000054959413937729894430000013514350244144289203_);fill:#3E84B2;}
	.st12{clip-path:url(#SVGID_00000170257575818960203510000000432973505303270819_);fill:#1573B2;}
	.st13{clip-path:url(#SVGID_00000027606633744380393460000011845033005201558917_);fill:#2D7CB2;}
	.st14{clip-path:url(#SVGID_00000005953280020385219420000017651030905892007083_);fill:#186FA8;}
	.st15{clip-path:url(#SVGID_00000060717089116936406940000009440530094972025019_);fill:#2479B2;}
	.st16{clip-path:url(#SVGID_00000014629435575483545830000014801196830819913906_);fill:#1573B2;}
	
		.st17{opacity:0.75;clip-path:url(#SVGID_00000054964236921286221890000000309314159729491841_);fill:#1573B2;enable-background:new    ;}
	.st18{clip-path:url(#SVGID_00000155126265310656741020000017549699622316926128_);fill:#2479B2;}
	.st19{clip-path:url(#SVGID_00000114761817854567039860000002888012685363401365_);fill:#026BB2;}
	.st20{fill:none;stroke:#FACE1D;stroke-width:2.2244;stroke-miterlimit:10;}
	.st21{fill:#43CABF;}
	.st22{fill:#026BB2;}
	.st23{fill:#FFFFFF;}
	.st24{fill:none;stroke:#000000;stroke-width:0.5373;stroke-miterlimit:10;}
	.st25{fill:none;stroke:#000000;stroke-width:1.0748;stroke-miterlimit:10.0008;}
	.st26{fill:none;stroke:#000000;stroke-width:1.0747;stroke-miterlimit:9.9998;}
	.st27{fill:none;stroke:#000000;stroke-width:1.0748;stroke-miterlimit:10;}
	.st28{fill:none;stroke:#000000;stroke-width:0.5373;stroke-miterlimit:9.999;}
</style>
<g id="Agua">
	<g>
		<g>
			<defs>
				<rect id="SVGID_1_" x="-384.21" y="716.77" width="2110" height="829.17"/>
			</defs>
			<clipPath id="SVGID_00000126312159750049692040000014897791514088468614_">
				<use xlink:href="#SVGID_1_"  style="overflow:visible;"/>
			</clipPath>
			<path style="clip-path:url(#SVGID_00000126312159750049692040000014897791514088468614_);fill:#186FA8;" d="M147.72,1044.15
				c10.94-7.54,22.67-15.31,35.92-15.86c17.08-0.79,32.15,10.45,45.52,21.15c25.83,20.6,51.84,41.45,72.8,66.97
				c6.81,8.27,13.86,17.56,24.19,20.3c22.73,5.96,45.52-23.09,67.03-13.67c4.8,2.13,8.87,6.02,13.98,7.11
				c4.25,0.91,8.69-0.3,12.82-1.82c27.29-9.91,48.8-32.09,76.09-41.99c24.25-8.81,50.93-7.11,76.63-4.98
				c16.59,1.34,33.42,2.92,48.92,8.99c30.69,11.97,51.84,39.68,74.14,63.93c15.56,16.96,32.39,32.7,50.26,47.16
				c14.4,11.61,31.24,26.5,27.96,44.73c-1.34,7.35-5.83,13.67-10.7,19.33c-21.09,24.67-50.62,42.05-82.47,48.56
				c-37.74,7.66-76.63,0.36-114.74-5.04c-71.65-10.09-144.03-13.31-216.29-16.53c-53.84-2.37-107.69-4.8-161.53-7.17
				c-25.16-1.09-50.44-2.25-75.42,0.91c-22.91,2.86-45.34,9.3-68.37,10.15c-64.54,2.55-99.24-58.83-60.89-110.54
				C27.03,1127.16,88.35,1084.93,147.72,1044.15z"/>
		</g>
		<g>
			<defs>
				<rect id="SVGID_00000137093789109624107800000016228993670430614149_" x="-384.21" y="716.77" width="2110" height="829.17"/>
			</defs>
			<clipPath id="SVGID_00000065070038882758600010000004845436249655016855_">
				<use xlink:href="#SVGID_00000137093789109624107800000016228993670430614149_"  style="overflow:visible;"/>
			</clipPath>
			<path style="clip-path:url(#SVGID_00000065070038882758600010000004845436249655016855_);fill:#6B96B2;" d="M-366.04,1196.93
				c-7.29-7.41-16.71-13.86-27.1-13.49c-8.26,14.71-8.93,32.27-9.36,49.1c-0.79,29.05-1.58,58.1-2.37,87.15
				c-0.18,7.72,1.58,17.87,9.24,18.78c3.4,0.43,6.62-1.46,9.85-2.73c10.88-4.31,23.03-2.07,34.7-2.19
				c27.1-0.36,86.48-32.51,78.09-65.51c-4.68-18.47-23.76-25.95-39.32-32.63C-335.6,1225.49-348.6,1214.8-366.04,1196.93z"/>
		</g>
		<g>
			<defs>
				<rect id="SVGID_00000016771818595306903310000007351370886638771107_" x="-384.21" y="716.77" width="2110" height="829.17"/>
			</defs>
			<clipPath id="SVGID_00000024001922339751696690000007653222040020851356_">
				<use xlink:href="#SVGID_00000016771818595306903310000007351370886638771107_"  style="overflow:visible;"/>
			</clipPath>
			<path style="clip-path:url(#SVGID_00000024001922339751696690000007653222040020851356_);fill:#6B96B2;" d="M1349.79,1222.88
				c-33.85,0.97-67.58,3.4-101.43,3.95c-30.51,0.49-60.95-0.55-91.4-2.49c-62.66-3.95-125.43-11.67-187.97-6.32
				c-9.97,0.85-21.45,3.04-26.13,11.91c12.28,8.63,27.47,11.85,42.18,14.95c22,4.56,44.06,9.18,66.06,13.73
				c30.2,6.32,60.53,12.58,91.22,15.74c37.5,3.89,75.24,3.04,112.91,4.19c103.31,3.16,205.47,21.33,307.69,36.83
				c53.48,8.08,108.9,15.38,161.05,0.85c5.65-1.58,7.41-33.97,7.6-39.08c0.36-10.09,1.7-19.69-7.47-24.98
				c-10.15-5.89-32.57-4.56-44.24-6.08c-14.83-1.94-29.66-3.83-44.42-5.65c-60.22-7.41-120.63-13.61-181.28-16.47
				C1419.37,1222.39,1384.55,1221.85,1349.79,1222.88z"/>
		</g>
		<g>
			<defs>
				<rect id="SVGID_00000003086334606267711320000015060784899996656005_" x="-384.21" y="716.77" width="2110" height="829.17"/>
			</defs>
			<clipPath id="SVGID_00000027605494778966136940000017406175634756687541_">
				<use xlink:href="#SVGID_00000003086334606267711320000015060784899996656005_"  style="overflow:visible;"/>
			</clipPath>
			<path style="clip-path:url(#SVGID_00000027605494778966136940000017406175634756687541_);fill:#026BB2;" d="M-421.29,1344.3
				c20.3-43.69,79.19-49.59,119.36-76.21c35.19-23.34,56.4-63.75,91.89-86.6c23.34-15.01,51.96-21.88,72.26-40.78
				c4.56-4.25,8.93-9.3,14.95-11.12c7.41-2.31,15.31,0.79,22.49,3.77c60.29,24.73,123.55,42.42,187.97,52.39
				c37.56,5.83,75.6,9.12,113.52,6.87c22.42-1.34,44.85-4.56,67.27-3.59c27.23,1.15,53.72,8.45,80.46,13.67
				c86.48,17.02,176.48,13.19,261.56,36.1c51.05,13.73,99,36.77,146.4,60.16c10.21,5.04,21.94,12.64,21.21,24
				c8.14,9.84,16.17,29.11,6.5,37.44c-4.5,3.83-10.94,4.01-16.89,4.19c-99.67,3.34-185.48,76.76-284.72,86.42
				c-35.49,3.46-71.16-1.46-106.47-6.32c-67.58-9.36-135.16-18.66-202.74-28.02c-48.98-6.75-101.55-12.94-145.55,9.48
				c-140.08,71.47-312.43,32.39-469.71,33.49C-460.67,1425.67-437.75,1379.79-421.29,1344.3z"/>
		</g>
		<g>
			<defs>
				<rect id="SVGID_00000134224413165478930040000012245085509844084608_" x="-384.21" y="716.77" width="2110" height="829.17"/>
			</defs>
			<clipPath id="SVGID_00000165945222731425844920000005520326112692801463_">
				<use xlink:href="#SVGID_00000134224413165478930040000012245085509844084608_"  style="overflow:visible;"/>
			</clipPath>
			<path style="clip-path:url(#SVGID_00000165945222731425844920000005520326112692801463_);fill:#3E84B2;" d="M885.49,1228.83
				c13.37,21.39,16.89,48.37,33.12,67.64c14.46,17.14,36.77,25.52,58.71,30.2c21.94,4.68,44.55,6.44,65.76,13.73
				c14.83,5.1,28.81,12.94,44.12,16.29c12.03,2.61,24.43,2.43,36.71,1.46c46.19-3.59,90.91-17.68,136.68-24.92
				c59.19-9.36,120.39-7.35,177.94-24.07c3.59-1.03,7.41-2.31,9.72-5.29c4.44-5.71,0.55-14.52-5.53-18.47
				c-6.08-3.89-13.61-4.62-20.54-6.68c-10.76-3.16-20.18-9.6-30.08-14.95c-31.42-17.08-68.43-23.7-103.86-18.54
				c-10.88,1.58-21.76,4.25-32.76,3.89c-13.67-0.49-26.8-5.71-40.47-6.02c-22.97-0.49-45.94,12.94-68.06,6.62
				c-10.76-3.04-20.42-10.64-31.6-10.82c-13.49-0.18-26.62,10.64-39.44,6.44c-7.35-2.43-12.22-9.12-17.44-14.77
				c-5.29-5.65-12.64-10.82-20.12-8.87c-6.44,1.7-10.64,8.27-16.89,10.51c-4.62,1.64-9.72,0.73-14.52-0.18
				c-24.07-4.56-48.62-9.36-69.89-21.51c-7.17-4.13-14.4-9.18-22.67-9.48c-8.26-0.24-17.38,7.23-14.89,15.19
				c-1.7,2.43-6.87,4.44-9.3,6.14C887.74,1224.09,883.91,1226.34,885.49,1228.83z"/>
		</g>
		<g>
			<defs>
				<rect id="SVGID_00000031902551268321281370000003453110970762975917_" x="-384.21" y="716.77" width="2110" height="829.17"/>
			</defs>
			<clipPath id="SVGID_00000028303154051811425780000000543285497823179664_">
				<use xlink:href="#SVGID_00000031902551268321281370000003453110970762975917_"  style="overflow:visible;"/>
			</clipPath>
			<g style="clip-path:url(#SVGID_00000028303154051811425780000000543285497823179664_);">
				<path class="st6" d="M556.11,1036.67l22.97,34.76c0.49,0.73,1.58,0.73,2.07,0l22.3-32.82c0.24-0.36,0.61-0.55,1.03-0.55h4.92
					c0.61,0,1.09,0.43,1.22,0.97l23.7,113.16c0.18,0.79-0.43,1.52-1.22,1.52H616.7c-0.67,0-1.15-0.49-1.28-1.09l-10.7-90.91
					c-0.12-1.15-1.64-1.52-2.31-0.55l-21.63,33.85c-0.49,0.79-1.64,0.79-2.13,0l-22.24-33.85c-0.67-0.97-2.19-0.61-2.31,0.55
					l-8.87,91.1c-0.06,0.67-0.61,1.15-1.28,1.15h-16.53c-0.79,0-1.4-0.67-1.22-1.46l18.72-115.41c0.12-0.61,0.61-1.03,1.22-1.03
					h8.81C555.5,1036.13,555.87,1036.31,556.11,1036.67z"/>
				<line class="st7" x1="606.49" y1="941.2" x2="606.49" y2="991.88"/>
				<rect x="536.6" y="1026.89" class="st8" width="86.96" height="13.86"/>
				<line class="st7" x1="582.12" y1="924.31" x2="582.12" y2="991.95"/>
				<rect x="539.94" y="991.95" class="st8" width="80.4" height="34.94"/>
				<circle class="st7" cx="605.82" cy="928.68" r="12.52"/>
				<g>
					<path class="st8" d="M582.06,923.15c-6.08,6.14-12.03,12.03-17.87,17.87c-4.01-4.01-7.96-7.96-11.91-11.91
						c5.77-5.77,11.73-11.73,17.75-17.75c-6.08-6.08-12.09-12.03-17.99-17.93c4.07-4.07,8.02-8.02,11.91-11.91
						c5.89,5.89,11.79,11.79,17.75,17.75c6.08-6.08,12.03-12.03,17.87-17.87c4.13,4.13,8.08,8.08,12.03,12.03
						c-5.77,5.77-11.73,11.73-17.62,17.62c6.08,6.08,12.03,12.03,17.87,17.87c-4.13,4.13-8.08,8.08-11.97,11.97
						C593.97,935.12,588.08,929.17,582.06,923.15z"/>
				</g>
				<path class="st8" d="M657.6,1153.6c0,44.48-36.1,80.58-80.58,80.58c-44.49,0-80.58-36.1-80.58-80.58H657.6z"/>
				<polygon class="st7" points="519.22,1143.81 529.13,1084.99 626.97,1084.99 639.85,1145.27 				"/>
				<line class="st9" x1="529.13" y1="1092.4" x2="628.49" y2="1092.4"/>
				<line class="st9" x1="527.61" y1="1103.77" x2="630.98" y2="1103.77"/>
				<line class="st9" x1="524.2" y1="1115.13" x2="632.44" y2="1115.13"/>
				<line class="st9" x1="522.2" y1="1126.01" x2="635.42" y2="1126.01"/>
				<line class="st9" x1="520.19" y1="1137.37" x2="637.36" y2="1137.37"/>
				<line class="st9" x1="541.95" y1="1085.47" x2="536.24" y2="1143.63"/>
				<line class="st9" x1="558.78" y1="1085.17" x2="559.27" y2="1144.79"/>
				<line class="st9" x1="579.02" y1="1084.99" x2="580.05" y2="1144.3"/>
				<line class="st9" x1="601.26" y1="1084.5" x2="601.81" y2="1143.81"/>
				<line class="st9" x1="621.07" y1="1085.17" x2="622.78" y2="1144.91"/>
			</g>
		</g>
		<g>
			<defs>
				<rect id="SVGID_00000170999910297712282840000013186109150277449150_" x="-384.21" y="716.77" width="2110" height="829.17"/>
			</defs>
			<clipPath id="SVGID_00000044140565801357595940000006269355466206004893_">
				<use xlink:href="#SVGID_00000170999910297712282840000013186109150277449150_"  style="overflow:visible;"/>
			</clipPath>
			<path style="clip-path:url(#SVGID_00000044140565801357595940000006269355466206004893_);fill:#1573B2;" d="M601.14,1208.35
				c150.96-58.58,169.19-198.42,298.94-45.28c152.84,200.3,263.69,160.98,372.05,236.71c-60.65,1.52-122.58-18.6-184.75-14.95
				c-305.44,12.46-192.22,82.1-314.62,98.69c-23.46-6.44-52.14-47.89-76.57-63.99c-145.49-63.63-309.45,48.92-382.56-18.84
				c-19.26-31.36,63.32-39.74,75.9-55.85C518.49,1249.5,483.73,1256.73,601.14,1208.35z"/>
		</g>
		<g>
			<defs>
				<rect id="SVGID_00000138565408444400995210000003790195292455213984_" x="-384.21" y="716.77" width="2110" height="829.17"/>
			</defs>
			<clipPath id="SVGID_00000138572016076149701830000006584182704110017678_">
				<use xlink:href="#SVGID_00000138565408444400995210000003790195292455213984_"  style="overflow:visible;"/>
			</clipPath>
			<path style="clip-path:url(#SVGID_00000138572016076149701830000006584182704110017678_);fill:#3E84B2;" d="M1638.52,1289.3
				c-0.73,0.49-1.58,1.09-1.82,2.01c-0.49,1.88,1.7,3.28,3.59,3.89c33.06,11.67,68.79,15.56,103.62,11.36
				c1.34-0.18,2.73-0.36,3.77-1.15c0.91-0.67,1.52-1.7,1.88-2.8c1.58-4.56-0.06-9.54-1.76-14.04c-4.25-11.43-4.5-21.03-16.17-22.85
				c-9.24-1.46-23.15,2.92-32.57,4.25C1678.02,1272.95,1656.51,1277.15,1638.52,1289.3z"/>
		</g>
		<g>
			<defs>
				<rect id="SVGID_00000031165812106310887380000010362360306228803749_" x="-384.21" y="716.77" width="2110" height="829.17"/>
			</defs>
			<clipPath id="SVGID_00000024702828085203114750000007532535215889282952_">
				<use xlink:href="#SVGID_00000031165812106310887380000010362360306228803749_"  style="overflow:visible;"/>
			</clipPath>
			<path style="clip-path:url(#SVGID_00000024702828085203114750000007532535215889282952_);fill:#1573B2;" d="M1705.06,1287.78
				c-10.09-0.36-20.24-0.67-30.33-1.03c-4.92-0.18-10.88,0.24-13.19,4.56c-2.61,4.86,1.52,10.57,5.71,14.1
				c19.2,16.29,46.86,22,70.92,14.71c6.26-1.88,13.19-5.89,13.43-12.4C1752.22,1292.22,1715.27,1288.09,1705.06,1287.78z"/>
		</g>
		<g>
			<defs>
				<rect id="SVGID_00000160182879143925433580000002767013756728753323_" x="-384.21" y="716.77" width="2110" height="829.17"/>
			</defs>
			<clipPath id="SVGID_00000145761667081972318910000003005901396801752726_">
				<use xlink:href="#SVGID_00000160182879143925433580000002767013756728753323_"  style="overflow:visible;"/>
			</clipPath>
			<path style="clip-path:url(#SVGID_00000145761667081972318910000003005901396801752726_);fill:#2D7CB2;" d="M1171.24,1304.07
				c39.99-4.86,79.55-13.13,118.14-24.67c57.61-17.26,115.34-42.18,175.27-37.25c38.65,3.16,75.05,18.66,110.79,33.73
				c7.11,2.98,14.28,6.02,21.94,6.75c6.87,0.67,13.8-0.61,20.66-1.22c30.2-2.73,60.1,6.26,88.79,15.86
				c17.56,5.83,35.98,12.64,47.34,27.23c9.72,12.46,12.82,29.72,8.08,44.79c-4.68,15.07-17.08,27.47-32.09,32.33
				c-11.06,3.59-23.03,3.22-34.7,2.86c-105.68-3.34-211.49-1.76-316.99,4.68c-41.02,2.49-82.65,5.71-122.82-2.92
				c-25.28-5.47-49.47-15.5-75.05-19.51c-45.82-7.17-161.47,5.65-207.78,5.89c-1.22,0,10.39-13.49,12.64-16.65
				c6.38-8.75,70.25-48.19,97.96-55.24C1111.93,1313.43,1143.59,1307.47,1171.24,1304.07z"/>
		</g>
		<g>
			<defs>
				<rect id="SVGID_00000071534720348385617840000006054142256158178223_" x="-384.21" y="716.77" width="2110" height="829.17"/>
			</defs>
			<clipPath id="SVGID_00000118366855657263541030000006021527945668123824_">
				<use xlink:href="#SVGID_00000071534720348385617840000006054142256158178223_"  style="overflow:visible;"/>
			</clipPath>
			<path style="clip-path:url(#SVGID_00000118366855657263541030000006021527945668123824_);fill:#186FA8;" d="M1732.17,1399.79
				c-54.15-14.95-110.54-21.88-166.7-20.42c-36.58,0.97-72.99,5.41-109.57,5.83c-32.27,0.36-64.48-2.43-96.63-4.74
				c-124.22-8.75-248.86-9.42-373.38-8.02c-2.07,0-4.5,0.49-6.5,1.4c-5.89,2.61-12.4,3.4-18.78,2.86
				c-10.09-0.79-20.84-0.06-29.96,0.67c-83.87,6.56-168.22,6.44-252.08-0.36c-5.41-0.43-10.82-0.91-16.1-2.13
				c-5.17-1.22-10.15-3.1-15.25-4.68c-30.02-9.36-63.51-7.23-92.07,5.89c-3.34,1.52-5.96,4.5-6.62,8.08
				c-1.03,5.35,2.8,8.08,6.38,10.27c47.83,29.11,121.48,24.73,176.36,35.79c106.72,21.51,209.85,31.84,318.2,26.5
				c45.34-2.25,86.66-31.42,129.02-15.19c44.12,16.96,93.53-16.17,140.63-11.91c26.62,2.37,52.2,11.18,78.4,16.77
				c59.5,12.58,121.12,8.08,181.95,7.23c16.59-0.24,33.36-0.18,49.59,3.22c11.73,2.43,22.97,6.56,34.7,9.12
				c14.77,3.28,29.96,4.01,45.03,4.8c6.08,0.3,12.58,0.49,17.75-2.67c5.47-3.34,8.33-9.66,10.21-15.74
				C1741.95,1434.91,1737.09,1417.41,1732.17,1399.79z"/>
		</g>
		<g>
			<defs>
				<rect id="SVGID_00000093165655404922517080000002629173931107003297_" x="-384.21" y="716.77" width="2110" height="829.17"/>
			</defs>
			<clipPath id="SVGID_00000023279249048564792480000006455267424001438645_">
				<use xlink:href="#SVGID_00000093165655404922517080000002629173931107003297_"  style="overflow:visible;"/>
			</clipPath>
			<path style="clip-path:url(#SVGID_00000023279249048564792480000006455267424001438645_);fill:#2479B2;" d="M-256.47,1319.99
				c-15.86-7.72-32.94-15.62-50.44-13.13c-5.96,0.85-11.73,2.92-17.38,4.92c-9.78,3.52-19.51,7.05-29.29,10.51
				c-17.08,6.14-34.52,12.52-48.44,24.13c-13.92,11.67-23.76,29.9-20.48,47.71c0.85,4.44,2.67,9.05,6.5,11.43
				c2.31,1.46,5.1,1.88,7.84,2.25c29.72,3.95,60.29,1.03,88.73-8.51c7.41-2.49,14.77-5.47,22.36-7.23
				c12.03-2.86,24.61-2.73,36.58-5.83c10.27-2.61,48.8-17.75,50.14-30.2C-208.58,1340.84-245.78,1325.22-256.47,1319.99z"/>
		</g>
		<g>
			<defs>
				<rect id="SVGID_00000173157305208264966520000002709927935732340133_" x="-384.21" y="716.77" width="2110" height="829.17"/>
			</defs>
			<clipPath id="SVGID_00000108997733060575551650000001570150259782688405_">
				<use xlink:href="#SVGID_00000173157305208264966520000002709927935732340133_"  style="overflow:visible;"/>
			</clipPath>
			<path style="clip-path:url(#SVGID_00000108997733060575551650000001570150259782688405_);fill:#1573B2;" d="M-194.85,1323.7
				c14.65-5.17,30.63-10.33,45.28-5.23c19.02,6.56,32.03,29.23,52.14,28.14c11.67-0.61,21.15-9.42,32.33-13.01
				c32.15-10.21,61.74,24.73,95.41,26.56c16.71,0.91,32.63-6.5,48.86-10.64c35.67-9.12,73.17-2.61,109.81,1.28
				c50.38,5.29,101.31,5.41,151.69,0.3c22.97-2.31,45.94-5.77,68.98-5.35c29.96,0.49,59.43,7.35,88.67,14.16
				c20.42,4.8,40.78,9.54,61.2,14.34c30.75,7.17,61.5,14.4,92.07,22.06c106.05,26.56,210.88,58.89,310.85,102.95
				c19.45,8.57,41.99,22.91,39.93,44.12c-2.55,26.31-37.98,32.15-64.42,30.75c-454.76-23.21-910.42-29.35-1365.67-18.29
				c0.79,0,1.7-107.38,1.94-117.23c0.91-37.25,9.6-59.8,48.74-69.89c21.94-5.65,44.85-1.15,67.09-5.83
				C-270.87,1354.75-232.35,1336.89-194.85,1323.7z"/>
		</g>
		<g>
			<defs>
				<rect id="SVGID_00000147905253472520232750000000056356800280073378_" x="-384.21" y="716.77" width="2110" height="829.17"/>
			</defs>
			<clipPath id="SVGID_00000046340956698456815270000005551236769514339476_">
				<use xlink:href="#SVGID_00000147905253472520232750000000056356800280073378_"  style="overflow:visible;"/>
			</clipPath>
			
				<path style="opacity:0.75;clip-path:url(#SVGID_00000046340956698456815270000005551236769514339476_);fill:#1573B2;enable-background:new    ;" d="
				M-194.85,1323.7c14.65-5.17,30.63-10.33,45.28-5.23c19.02,6.56,32.03,29.23,52.14,28.14c11.67-0.61,21.15-9.42,32.33-13.01
				c32.15-10.21,61.74,24.73,95.41,26.56c16.71,0.91,32.63-6.5,48.86-10.64c35.67-9.12,73.17-2.61,109.81,1.28
				c50.38,5.29,101.31,5.41,151.69,0.3c22.97-2.31,45.94-5.77,68.98-5.35c29.96,0.49,59.43,7.35,88.67,14.16
				c20.42,4.8,40.78,9.54,61.2,14.34c30.75,7.17,61.5,14.4,92.07,22.06c106.05,26.56,210.88,58.89,310.85,102.95
				c19.45,8.57,41.99,22.91,39.93,44.12c-2.55,26.31-37.98,32.15-64.42,30.75c-454.76-23.21-910.42-29.35-1365.67-18.29
				c0.79,0,1.7-107.38,1.94-117.23c0.91-37.25,9.6-59.8,48.74-69.89c21.94-5.65,44.85-1.15,67.09-5.83
				C-270.87,1354.75-232.35,1336.89-194.85,1323.7z"/>
		</g>
		<g>
			<defs>
				<rect id="SVGID_00000150804171221005934130000012072472165172024246_" x="-384.21" y="716.77" width="2110" height="829.17"/>
			</defs>
			<clipPath id="SVGID_00000128481874842477718540000007814257474339456659_">
				<use xlink:href="#SVGID_00000150804171221005934130000012072472165172024246_"  style="overflow:visible;"/>
			</clipPath>
			<path style="clip-path:url(#SVGID_00000128481874842477718540000007814257474339456659_);fill:#2479B2;" d="M500.44,1343.45
				c15.19,1.46,30.63,3.04,44.85,8.69c12.52,4.98,23.7,13.01,36.22,17.99c13.86,5.53,28.93,7.23,43.57,10.39
				c16.1,3.46,31.72,8.69,47.28,13.92c46.79,15.68,106.17,35.79,152.96,51.47c-36.22,11.73-87.57-7.66-123.49-20.24
				c-83.68-29.35-171.26-46.31-259.19-58.04c-27.96-3.77-56.09-6.99-84.29-6.75c-8.57,0.06-45.7,6.08-42.97-4.01
				c3.77-13.86,39.62-15.56,49.59-16.77C410.07,1334.7,455.59,1339.07,500.44,1343.45z"/>
		</g>
		<g>
			<defs>
				<rect id="SVGID_00000041975265744450855600000003428178310452289198_" x="-384.21" y="716.77" width="2110" height="829.17"/>
			</defs>
			<clipPath id="SVGID_00000154384252982362961950000013098212455288356522_">
				<use xlink:href="#SVGID_00000041975265744450855600000003428178310452289198_"  style="overflow:visible;"/>
			</clipPath>
			<path style="clip-path:url(#SVGID_00000154384252982362961950000013098212455288356522_);fill:#026BB2;" d="M707.61,1526.43
				c34.15-4.25,85.75-44.55,108.9-70.01c10.15-11.18,20.05-23.28,33.49-30.26c13.86-7.23,30.08-8.27,45.7-8.87
				c47.22-1.94,94.99-1.88,140.99-12.88c20.6-4.92,40.72-12.09,61.74-14.4c38.53-4.13,76.63,8.33,114.43,16.77
				c60.1,13.43,122.46,16.83,183.65,10.09c25.34-2.8,53.11-6.87,74.57,6.87c24.8-2.37,48.8,11.18,72.68,18.17
				c57.37,16.71,120.39-1.46,177.94,14.59c5.29,1.46,10.76,3.4,14.59,7.35c5.71,5.96,6.38,15.01,6.68,23.28
				c0.79,19.63,1.58,39.26,2.37,58.83c0.12,3.22,0.18,6.75-1.58,9.42c-2.13,3.16-6.2,4.31-9.91,5.17
				c-60.41,13.55-123.18,7.05-185.11,7.05c-88.85,0.06-177.64,13.8-266.36,8.57c-55.79-3.28-111.46-13.98-167.24-10.27
				c-72.08,4.8-144.45,0.85-216.71,0.18c-33.55-0.3-67.21-0.73-100.58-4.62c-9.97-1.15-20.18-2.73-28.87-7.72
				c-8.69-4.98-15.68-14.16-15.19-24.19c-6.2,1.7-12.94,3.4-19.02,1.15C728.82,1528.62,703.85,1531.72,707.61,1526.43z"/>
		</g>
	</g>
</g>
<g id="boya">
</g>
<g id="Metagenomica">
	<g>
		<line class="st20" x1="377.87" y1="1190.67" x2="148.21" y2="876.6"/>
		<line class="st20" x1="148.03" y1="876.48" x2="312.41" y2="1196.93"/>
		<circle class="st20" cx="127.42" cy="828.59" r="52.81"/>
	</g>
	<g>
		<path class="st21" d="M112.66,864.08l-0.3-0.12c-1.52-0.61-2.67-1.94-3.22-3.89c-0.79-2.86,0-6.14,2.13-8.87
			c8.39-10.82,21.51-16.83,35.19-16.04c1.22,0.06,2.43,0.3,3.52,0.73c4.19,1.58,6.56,5.29,5.41,8.51l-0.06,0.12
			c-1.4,4.01-6.02,5.65-9.66,5.47c-8.81-0.49-17.26,3.34-22.67,10.33C120.8,863.17,116.61,865.6,112.66,864.08z"/>
		<path class="st22" d="M145.78,848.65c-9.24-0.49-18.17,3.59-23.76,10.82c-2.19,2.73-5.83,4.5-8.93,3.28
			c-0.06,0-0.06-0.06-0.12-0.06c-3.1-1.22-3.83-6.44-0.55-10.7c8.08-10.45,20.84-16.29,34.03-15.5c5.35,0.3,8.81,4.31,7.72,7.41
			c0,0.06,0,0.06-0.06,0.12C153.01,847.25,149.24,848.83,145.78,848.65z"/>
		<path class="st21" d="M138.97,835.76l-0.18-3.34c1.15-0.24,1.94-1.09,1.88-2.13c-0.06-1.09-1.28-1.94-2.67-1.88
			c-1.4,0.06-2.49,1.09-2.43,2.19c0.06,1.03,1.09,1.76,2.31,1.82l0.18,3.34c0,0.24,0.18,0.43,0.49,0.43l0,0
			C138.79,836.19,138.97,836,138.97,835.76z"/>
		<path class="st21" d="M131.92,837.1l-0.61-3.34c1.09-0.43,1.76-1.4,1.58-2.31c-0.18-1.09-1.52-1.76-2.86-1.52
			c-1.4,0.24-2.31,1.4-2.13,2.49c0.18,0.97,1.28,1.64,2.55,1.52l0.61,3.28c0.06,0.24,0.24,0.36,0.49,0.36l0,0
			C131.8,837.52,131.98,837.34,131.92,837.1z"/>
		<path class="st21" d="M125.42,839.96l-1.34-3.1c0.97-0.67,1.4-1.76,1.03-2.61c-0.49-1.03-1.88-1.4-3.16-0.79s-1.94,1.88-1.46,2.92
			c0.43,0.91,1.64,1.28,2.8,0.91l1.34,3.04c0.12,0.24,0.36,0.3,0.61,0.24l0,0C125.42,840.44,125.48,840.14,125.42,839.96z"/>
		<path class="st21" d="M119.34,843.84l-1.64-2.92c0.91-0.73,1.22-1.88,0.73-2.73c-0.55-0.97-2.01-1.15-3.22-0.43
			c-1.22,0.73-1.7,2.07-1.15,3.04c0.55,0.85,1.76,1.09,2.92,0.61l1.64,2.92c0.12,0.18,0.36,0.3,0.61,0.18l0,0
			C119.4,844.33,119.52,844.09,119.34,843.84z"/>
		<path class="st21" d="M114.3,848.28l-2.55-2.19c0.61-0.97,0.55-2.19-0.18-2.8c-0.85-0.73-2.31-0.43-3.16,0.61
			c-0.91,1.09-0.97,2.55-0.06,3.22c0.79,0.67,2.01,0.49,2.92-0.36l2.49,2.19c0.18,0.18,0.49,0.12,0.61-0.06l0,0
			C114.54,848.71,114.48,848.46,114.3,848.28z"/>
		<path class="st21" d="M110.29,853.63l-3.16-1.15c0.18-1.15-0.24-2.25-1.22-2.55c-1.03-0.36-2.31,0.36-2.73,1.7
			c-0.49,1.34,0,2.67,1.03,3.1c0.97,0.36,2.07-0.3,2.61-1.4l3.1,1.15c0.24,0.06,0.49-0.06,0.55-0.24l0,0
			C110.59,853.99,110.47,853.75,110.29,853.63z"/>
		<path class="st21" d="M109.37,858.55l-3.04,1.4c-0.67-0.97-1.76-1.4-2.67-0.91c-0.97,0.49-1.34,1.88-0.73,3.16s1.94,1.88,2.92,1.4
			c0.91-0.43,1.22-1.64,0.85-2.86l3.04-1.4c0.24-0.12,0.3-0.36,0.18-0.61l0,0C109.8,858.55,109.56,858.49,109.37,858.55z"/>
		<path class="st21" d="M112.29,863.47l-1.46,3.04c-1.09-0.3-2.25,0.06-2.67,0.97c-0.49,1.03,0.18,2.31,1.46,2.92
			s2.67,0.24,3.16-0.79c0.43-0.91-0.06-2.07-1.15-2.73l1.46-2.98c0.12-0.18,0-0.49-0.18-0.61l0,0
			C112.66,863.17,112.35,863.23,112.29,863.47z"/>
		<path class="st21" d="M117.4,863.72l1.09,3.16c-1.03,0.61-1.52,1.64-1.22,2.55c0.36,1.03,1.76,1.52,3.1,1.03
			c1.34-0.49,2.07-1.76,1.7-2.8c-0.36-0.97-1.52-1.4-2.73-1.09l-1.09-3.16c-0.06-0.24-0.3-0.36-0.55-0.24l0,0
			C117.46,863.23,117.34,863.47,117.4,863.72z"/>
		<path class="st21" d="M122.56,860.25l2.25,2.49c-0.73,0.91-0.79,2.13-0.12,2.8c0.73,0.85,2.19,0.73,3.22-0.24
			c1.03-0.97,1.22-2.37,0.49-3.22c-0.67-0.73-1.94-0.73-2.98,0l-2.25-2.49c-0.18-0.18-0.43-0.18-0.61-0.06l0,0
			C122.38,859.77,122.38,860.07,122.56,860.25z"/>
		<path class="st21" d="M128.21,854.72l2.25,2.49c-0.73,0.91-0.79,2.13-0.12,2.8c0.73,0.85,2.19,0.73,3.22-0.24
			c1.03-0.97,1.22-2.37,0.49-3.22c-0.67-0.73-1.94-0.73-2.98,0l-2.25-2.49c-0.18-0.18-0.43-0.18-0.61-0.06l0,0
			C128.09,854.3,128.03,854.54,128.21,854.72z"/>
		<path class="st21" d="M137.15,850.35l0.61,3.34c-1.09,0.43-1.76,1.4-1.58,2.31c0.18,1.09,1.52,1.76,2.86,1.52
			c1.4-0.24,2.31-1.4,2.13-2.49c-0.18-0.97-1.28-1.64-2.49-1.52l-0.61-3.28c-0.06-0.24-0.24-0.43-0.49-0.36l0,0
			C137.27,849.86,137.09,850.1,137.15,850.35z"/>
		<path class="st21" d="M145.17,849.62l0.3,3.34c-1.09,0.3-1.88,1.22-1.82,2.19c0.12,1.09,1.34,1.88,2.73,1.76
			c1.4-0.12,2.43-1.15,2.31-2.31c-0.12-1.03-1.15-1.76-2.37-1.76l-0.3-3.34c0-0.24-0.24-0.43-0.49-0.43l0,0
			C145.29,849.19,145.11,849.37,145.17,849.62z"/>
		<path class="st21" d="M151.98,848.1l2.37,2.37c-0.67,0.97-0.67,2.13,0,2.8c0.79,0.79,2.25,0.61,3.22-0.43
			c0.97-0.97,1.09-2.43,0.3-3.22c-0.73-0.73-2.01-0.61-2.92,0.18l-2.37-2.37c-0.18-0.18-0.43-0.18-0.61,0l0,0
			C151.85,847.67,151.85,847.92,151.98,848.1z"/>
		<path class="st21" d="M155.08,843.24l3.34,0.36c0.06,1.15,0.85,2.07,1.82,2.19c1.09,0.12,2.13-0.97,2.25-2.37
			c0.12-1.4-0.67-2.61-1.82-2.67c-1.03-0.06-1.94,0.79-2.19,2.01l-3.34-0.36c-0.24,0-0.49,0.18-0.49,0.36l0,0
			C154.71,842.99,154.89,843.24,155.08,843.24z"/>
		<path class="st21" d="M145.96,835.21l0.85-3.28c1.15,0.06,2.19-0.55,2.43-1.46c0.24-1.09-0.67-2.25-2.01-2.55
			c-1.4-0.3-2.67,0.3-2.92,1.4c-0.24,0.97,0.49,2.01,1.64,2.43l-0.79,3.22c-0.06,0.24,0.06,0.49,0.3,0.55l0,0
			C145.72,835.58,145.96,835.46,145.96,835.21z"/>
		<path class="st21" d="M152.4,837.71l2.25-2.49c0.97,0.61,2.19,0.55,2.8-0.18c0.73-0.85,0.49-2.25-0.61-3.22
			c-1.09-0.91-2.49-0.97-3.22-0.12c-0.67,0.79-0.49,2.01,0.36,2.92l-2.19,2.49c-0.18,0.18-0.12,0.49,0.06,0.61l0,0
			C151.98,837.95,152.28,837.89,152.4,837.71z"/>
		<path class="st21" d="M147.72,844.39l-4.68-0.67c-0.61-0.06-1.03-0.67-0.97-1.28l0,0c0.06-0.61,0.67-1.03,1.28-0.97l4.68,0.67
			c0.61,0.06,1.03,0.67,0.97,1.28l0,0C148.94,844.03,148.33,844.45,147.72,844.39z"/>
		<path class="st21" d="M128.15,851.02l-4.5,0.97c-0.61,0.12-1.15-0.24-1.34-0.85l0,0c-0.12-0.61,0.24-1.15,0.85-1.34l4.5-0.97
			c0.61-0.12,1.15,0.24,1.34,0.85l0,0C129.06,850.29,128.7,850.83,128.15,851.02z"/>
		<path class="st21" d="M115.03,856.91c-0.12-0.06-0.24-0.12-0.36-0.24c-0.3-0.24-0.49-0.55-0.49-0.91
			c-0.06-0.36,0.06-0.73,0.3-0.97l2.55-3.1c0.49-0.55,1.34-0.61,1.88-0.18c0.3,0.24,0.49,0.55,0.49,0.91
			c0.06,0.36-0.06,0.73-0.3,0.97l-2.55,3.1C116.12,856.97,115.57,857.15,115.03,856.91z M118.25,851.99c-0.24-0.06-0.49,0-0.67,0.18
			l-2.55,3.1c-0.12,0.12-0.12,0.3-0.12,0.43s0.06,0.3,0.18,0.43c0.06,0.06,0.12,0.06,0.18,0.12c0.24,0.06,0.49,0,0.67-0.18l2.55-3.1
			c0.12-0.12,0.18-0.3,0.12-0.43c0-0.18-0.06-0.3-0.18-0.43C118.37,852.05,118.31,852.05,118.25,851.99z"/>
		<path class="st21" d="M130.34,844.94c-0.24-0.12-0.49-0.3-0.67-0.55c-0.18-0.3-0.24-0.67-0.18-1.03s0.3-0.67,0.61-0.85l3.4-2.19
			c0.61-0.36,1.46-0.18,1.82,0.36c0.18,0.3,0.24,0.67,0.18,1.03c-0.06,0.36-0.3,0.67-0.61,0.85l-3.4,2.19
			C131.19,845.06,130.77,845.12,130.34,844.94z M134.41,840.93c-0.18-0.06-0.36-0.06-0.55,0.06l-3.4,2.19
			c-0.12,0.06-0.24,0.24-0.24,0.36c0,0.12,0,0.3,0.06,0.49c0.18,0.3,0.55,0.36,0.85,0.18l3.4-2.19c0.12-0.06,0.24-0.24,0.24-0.36
			s0-0.3-0.06-0.49C134.6,841.05,134.53,840.99,134.41,840.93z"/>
		<path class="st23" d="M140.06,846.58c-0.18,0.55-0.85,0.85-1.4,0.67c-0.55-0.18-0.85-0.85-0.67-1.4c0.18-0.55,0.85-0.85,1.4-0.67
			C139.94,845.36,140.25,846.03,140.06,846.58z"/>
		<path class="st23" d="M139.64,842.75c-0.12,0.3-0.49,0.49-0.79,0.36c-0.3-0.12-0.49-0.49-0.36-0.79c0.12-0.3,0.49-0.49,0.79-0.36
			C139.64,842.08,139.76,842.45,139.64,842.75z"/>
		<path class="st23" d="M147.48,840.14c-0.18,0.49-0.67,0.67-1.09,0.49s-0.67-0.67-0.49-1.09c0.18-0.49,0.67-0.67,1.09-0.49
			C147.42,839.23,147.66,839.71,147.48,840.14z"/>
		<path class="st23" d="M125.11,845.67c-0.18,0.61-0.85,0.85-1.46,0.67c-0.61-0.18-0.85-0.85-0.67-1.46
			c0.18-0.61,0.85-0.85,1.46-0.67C125.05,844.45,125.36,845.06,125.11,845.67z"/>
		<path class="st23" d="M120.07,859.1c-0.18,0.55-0.85,0.85-1.4,0.67c-0.55-0.18-0.85-0.85-0.67-1.4c0.18-0.55,0.85-0.85,1.4-0.67
			C119.95,857.88,120.31,858.49,120.07,859.1z"/>
		<path class="st23" d="M119.52,848.28c-0.12,0.24-0.36,0.36-0.61,0.3c-0.24-0.12-0.36-0.36-0.3-0.61c0.12-0.24,0.36-0.36,0.61-0.3
			C119.46,847.73,119.58,847.98,119.52,848.28z"/>
		<path class="st23" d="M115.45,860.56c-0.18,0.49-0.73,0.79-1.28,0.61c-0.49-0.18-0.79-0.73-0.61-1.28
			c0.18-0.49,0.73-0.79,1.28-0.61C115.33,859.46,115.63,860.07,115.45,860.56z"/>
		<path class="st23" d="M152.89,842.45c-0.12,0.3-0.49,0.49-0.79,0.36c-0.3-0.12-0.49-0.49-0.36-0.79c0.12-0.3,0.49-0.49,0.79-0.36
			C152.83,841.78,152.95,842.14,152.89,842.45z"/>
		<path class="st23" d="M134.84,847.98c-0.24,0.61-0.97,0.97-1.58,0.73c-0.61-0.24-0.97-0.97-0.73-1.58
			c0.24-0.61,0.97-0.97,1.58-0.73C134.78,846.64,135.08,847.37,134.84,847.98z"/>
		<path class="st23" d="M139.4,839.35c-0.06,0.24-0.36,0.36-0.61,0.3c-0.24-0.06-0.36-0.36-0.3-0.61s0.36-0.36,0.61-0.3
			C139.4,838.86,139.52,839.1,139.4,839.35z"/>
	</g>
	<g>
		<path class="st21" d="M129,795.83c-4.98-0.3-12.46,1.46-18.54,7.11c-0.12,0.06-0.18,0.18-0.24,0.24
			c-6.2,5.71-8.45,13.25-8.45,18.29c-0.06,6.2,2.86,9.6,5.59,9.66h0.12c1.58-0.06,3.1-0.85,4.8-2.49c1.34-1.28,2.67-2.92,4.07-4.68
			c1.88-2.31,4.07-4.98,6.62-7.23l0.06-0.06l0.06-0.06c2.37-2.43,5.17-4.44,7.6-6.2c1.82-1.34,3.59-2.55,4.92-3.83
			c1.7-1.64,2.55-3.1,2.73-4.62v-0.12C138.42,799.24,135.2,796.14,129,795.83z"/>
		<path class="st22" d="M136.84,801.91c-0.49,4.31-8.81,7.6-14.83,13.73c-6.5,5.59-10.27,13.73-14.59,13.98
			c-2.01-0.06-4.25-3.1-4.19-8.2c0-4.98,2.31-11.97,7.96-17.2c5.53-5.41,12.7-7.23,17.68-6.99
			C134.05,797.54,136.9,799.91,136.84,801.91z"/>
		<path class="st21" d="M116.97,799.42c-0.06,0.06-0.18,0.12-0.3,0.06c-0.18-0.06-0.24-0.18-0.18-0.36c0.55-1.88-0.43-2.92-1.4-4.01
			c-0.97-1.03-1.88-2.07-0.97-3.65c0.06-0.12,0.24-0.18,0.43-0.12c0.12,0.06,0.18,0.24,0.12,0.43c-0.67,1.15-0.12,1.82,0.91,2.98
			c0.97,1.03,2.19,2.37,1.52,4.56C117.03,799.36,117.03,799.42,116.97,799.42z"/>
		<path class="st21" d="M120.8,798.2c-0.12,0.06-0.24,0.12-0.36,0.06s-0.18-0.3-0.06-0.43c0.61-0.97,0-2.8-0.49-4.44
			c-0.49-1.58-0.97-2.98-0.43-3.71c0.06-0.12,0.3-0.18,0.43-0.06c0.12,0.06,0.18,0.3,0.06,0.43c-0.36,0.49,0.06,1.88,0.49,3.22
			C120.98,795.04,121.59,796.93,120.8,798.2C120.86,798.14,120.86,798.14,120.8,798.2z"/>
		<path class="st21" d="M124.75,797.05C124.75,797.11,124.69,797.11,124.75,797.05c-0.18,0.12-0.36,0.06-0.49-0.06
			c-0.85-1.28-0.61-2.86-0.43-4.38c0.18-1.46,0.43-2.92-0.49-3.71c-0.12-0.12-0.12-0.3,0-0.43s0.3-0.12,0.43,0
			c1.15,1.03,0.91,2.67,0.67,4.25c-0.18,1.4-0.43,2.86,0.3,3.95C124.87,796.81,124.87,796.99,124.75,797.05z"/>
		<path class="st21" d="M128.7,796.81c-0.06,0.06-0.18,0.12-0.3,0.06c-0.18-0.06-0.24-0.18-0.18-0.36c0.61-2.01-0.06-3.77-0.61-5.17
			c-0.49-1.15-0.85-2.19-0.36-3.04c0.06-0.12,0.24-0.18,0.43-0.12c0.12,0.06,0.18,0.24,0.12,0.43c-0.36,0.61,0,1.46,0.36,2.55
			c0.61,1.52,1.28,3.34,0.61,5.59C128.82,796.75,128.76,796.81,128.7,796.81z"/>
		<path class="st21" d="M132.59,797.35c-0.12,0.06-0.24,0.12-0.36,0.06c-0.12-0.06-0.18-0.3-0.06-0.43c1.03-1.58,0.73-3.46,0.49-5.1
			c-0.24-1.46-0.43-2.73,0.24-3.52c0.12-0.12,0.3-0.12,0.43-0.06c0.12,0.12,0.12,0.3,0.06,0.43c-0.55,0.61-0.36,1.76-0.12,3.1
			C133.5,793.59,133.87,795.59,132.59,797.35C132.65,797.35,132.65,797.35,132.59,797.35z"/>
		<path class="st21" d="M135.26,798.08c-0.12,0.12-0.3,0.12-0.43,0s-0.12-0.3,0-0.43c0.06-0.06,3.4-3.34,3.59-7.11
			c0-0.18,0.12-0.3,0.3-0.3c0.18,0,0.3,0.12,0.3,0.3C138.85,794.56,135.45,797.9,135.26,798.08L135.26,798.08z"/>
		<path class="st21" d="M143.47,795.23c-0.06,0.06-0.12,0.06-0.18,0.06c-1.52,0.18-2.01,0.97-2.61,1.94
			c-0.73,1.09-1.52,2.37-3.89,3.04c-0.18,0.06-0.3-0.06-0.36-0.18c-0.06-0.18,0.06-0.3,0.18-0.36c2.13-0.61,2.86-1.7,3.52-2.8
			c0.67-1.03,1.28-2.01,3.04-2.19c0.18,0,0.3,0.12,0.3,0.24C143.59,795.04,143.59,795.17,143.47,795.23z"/>
		<path class="st21" d="M145.96,801.43c-0.06,0.06-0.18,0.12-0.3,0.06c-3.28-0.85-7.78,1.46-7.84,1.52c-0.12,0.06-0.3,0-0.43-0.12
			c-0.12-0.12,0-0.3,0.12-0.43c0.18-0.12,4.8-2.49,8.26-1.52c0.18,0.06,0.24,0.18,0.18,0.36
			C146.02,801.36,145.96,801.36,145.96,801.43z"/>
		<path class="st21" d="M144.01,807.32c-0.06,0.06-0.06,0.06-0.12,0.06c-2.25,0.61-3.46,0-4.74-0.67c-0.91-0.49-1.82-0.97-3.28-1.09
			c-0.18,0-0.3-0.18-0.24-0.3s0.18-0.3,0.3-0.24c1.58,0.18,2.55,0.73,3.46,1.15c1.28,0.67,2.25,1.15,4.31,0.61
			c0.18-0.06,0.3,0.06,0.36,0.18C144.08,807.14,144.08,807.26,144.01,807.32z"/>
		<path class="st21" d="M140.43,811.03c-0.06,0.06-0.12,0.06-0.18,0.06c-0.18,0-0.3-0.12-0.3-0.3c0-0.55-0.36-0.61-1.76-0.61
			c-1.52,0-3.83-0.06-5.89-2.01c-0.12-0.12-0.12-0.3,0-0.43c0.12-0.12,0.3-0.12,0.43,0c1.88,1.82,3.95,1.82,5.47,1.88
			c1.22,0,2.31,0.06,2.31,1.22C140.49,810.91,140.49,810.97,140.43,811.03z"/>
		<path class="st21" d="M136.72,814.13c-0.06,0.06-0.12,0.06-0.18,0.06c-0.18,0-0.3-0.06-0.3-0.24c-0.12-0.73-1.15-0.91-2.8-1.15
			c-1.52-0.18-3.4-0.49-4.8-1.52c-0.12-0.12-0.18-0.3-0.06-0.43c0.12-0.12,0.3-0.18,0.43-0.06c1.28,0.97,2.98,1.22,4.5,1.4
			c1.7,0.24,3.1,0.43,3.28,1.64C136.84,814.01,136.78,814.07,136.72,814.13z"/>
		<path class="st21" d="M133.02,816.98c-0.06,0.06-0.12,0.06-0.18,0.06c-0.18,0-0.3-0.06-0.36-0.24c-0.12-0.67-0.55-0.67-1.7-0.73
			c-1.4-0.06-3.46-0.12-5.89-1.94c-0.12-0.12-0.18-0.3-0.06-0.43s0.3-0.18,0.43-0.06c2.25,1.7,4.13,1.76,5.53,1.82
			c1.09,0.06,2.07,0.06,2.31,1.22C133.08,816.8,133.08,816.86,133.02,816.98z"/>
		<path class="st21" d="M130.04,820.45c-0.06,0.06-0.06,0.06-0.12,0.06c-0.18,0.06-0.3-0.06-0.36-0.24
			c-0.43-2.01-5.47-2.55-7.41-2.61c-0.18,0-0.3-0.12-0.3-0.3c0-0.18,0.12-0.3,0.3-0.3c0.3,0,7.35,0.18,7.96,3.1
			C130.16,820.26,130.1,820.39,130.04,820.45z"/>
		<path class="st21" d="M127.91,822.88c-0.06,0.06-0.06,0.06-0.12,0.06c-1.88,0.43-7.72-2.49-8.39-2.8
			c-0.12-0.06-0.18-0.24-0.12-0.43s0.24-0.18,0.43-0.12c1.76,0.85,6.56,3.1,8.02,2.73c0.18-0.06,0.3,0.06,0.36,0.24
			C128.03,822.7,127.97,822.82,127.91,822.88z"/>
		<path class="st21" d="M125.48,825.67c-0.06,0.06-0.12,0.06-0.18,0.06c-2.01,0.3-3.16-0.36-4.38-1.15
			c-1.09-0.67-2.25-1.4-4.19-1.52c-0.18,0-0.3-0.18-0.3-0.3c0-0.18,0.18-0.3,0.3-0.3c2.13,0.12,3.4,0.91,4.5,1.58
			c1.15,0.73,2.19,1.34,3.95,1.03c0.18,0,0.3,0.06,0.36,0.24C125.6,825.49,125.54,825.61,125.48,825.67z"/>
		<path class="st21" d="M122.08,829.02L122.08,829.02c-0.18,0.12-0.36,0.06-0.43-0.06c-1.64-2.31-7.41-2.73-7.47-2.73
			c-0.18,0-0.3-0.18-0.3-0.3c0-0.18,0.18-0.3,0.3-0.3c0.24,0,6.14,0.43,7.9,2.98C122.2,828.77,122.2,828.89,122.08,829.02z"/>
		<path class="st21" d="M118.92,832.05c-0.06,0.06-0.06,0.06-0.12,0.06c-0.18,0.06-0.3-0.06-0.36-0.18c-0.3-1.28-1.7-1.4-3.28-1.64
			c-1.58-0.18-3.22-0.43-3.95-1.82c-0.06-0.12,0-0.3,0.12-0.43c0.12-0.06,0.3,0,0.43,0.12c0.55,1.09,1.94,1.28,3.46,1.46
			c1.64,0.18,3.34,0.43,3.77,2.07C119.04,831.87,118.98,831.99,118.92,832.05z"/>
		<path class="st21" d="M112.72,837.89c-0.12,0.12-0.3,0.12-0.36,0c-0.12-0.12-0.12-0.3-0.06-0.43c2.19-2.67-2.92-7.17-2.98-7.23
			c-0.12-0.12-0.12-0.3-0.06-0.43c0.12-0.12,0.3-0.12,0.43-0.06C109.92,829.99,115.33,834.67,112.72,837.89
			C112.78,837.89,112.78,837.89,112.72,837.89z"/>
		<path class="st21" d="M104.94,838.31c-0.06,0.06-0.18,0.12-0.3,0.06c-0.24-0.12-0.43-0.3-0.55-0.55c-0.3-0.73,0.36-1.94,1.22-3.46
			c0.73-1.34,1.58-2.86,1.58-3.89c0-0.18,0.12-0.3,0.3-0.3s0.3,0.12,0.3,0.3c0,1.22-0.85,2.73-1.64,4.19
			c-0.67,1.15-1.4,2.49-1.22,2.98c0,0.06,0.06,0.12,0.18,0.18c0.18,0.06,0.24,0.24,0.18,0.36C105,838.25,105,838.31,104.94,838.31z"
			/>
		<path class="st21" d="M103.36,831.87c-0.67,0.61-1.28,1.03-1.88,1.4c-0.85,0.55-1.52,0.97-1.82,1.82
			c-0.06,0.18-0.24,0.24-0.36,0.18c-0.18-0.06-0.24-0.24-0.18-0.36c0.36-1.03,1.15-1.52,2.07-2.13c1.09-0.73,2.49-1.64,3.59-3.89
			c0.06-0.12,0.24-0.18,0.43-0.12c0.12,0.06,0.18,0.24,0.12,0.43C104.7,830.41,104.03,831.26,103.36,831.87z"/>
		<path class="st21" d="M99.41,829.56c-0.61,0.61-1.52,1.09-2.92,1.46c-0.18,0.06-0.3-0.06-0.36-0.24c-0.06-0.18,0.06-0.3,0.24-0.36
			c2.37-0.61,3.04-1.58,3.71-2.67c0.55-0.85,1.15-1.76,2.55-2.49c0.12-0.06,0.3,0,0.43,0.12c0.12,0.12,0,0.3-0.12,0.43
			c-1.28,0.67-1.82,1.46-2.31,2.31C100.26,828.59,99.89,829.14,99.41,829.56z"/>
		<path class="st21" d="M101.11,823.73c-1.03,0.97-2.07,1.28-3.04,1.58c-0.85,0.24-1.7,0.49-2.37,1.15l0,0
			c-0.12,0.12-0.3,0.12-0.43,0c-0.12-0.12-0.12-0.3,0-0.43c0.79-0.79,1.7-1.03,2.61-1.28c1.46-0.43,2.92-0.85,4.19-3.28
			c0.06-0.12,0.24-0.18,0.43-0.12c0.12,0.06,0.18,0.24,0.12,0.43C102.14,822.57,101.66,823.24,101.11,823.73z"/>
		<path class="st21" d="M103.18,818.02c-0.06,0.06-0.06,0.06-0.12,0.06c-2.13,0.43-3.46,1.46-4.5,2.25
			c-1.09,0.79-1.88,1.4-2.92,0.85c-0.12-0.06-0.18-0.24-0.12-0.43c0.06-0.12,0.24-0.18,0.43-0.12c0.67,0.36,1.22,0,2.31-0.79
			c1.03-0.79,2.49-1.88,4.74-2.31c0.18-0.06,0.3,0.06,0.36,0.24C103.3,817.83,103.24,817.96,103.18,818.02z"/>
		<path class="st21" d="M103.54,814.98L103.54,814.98c-1.4,1.09-2.61,0.67-3.89,0.18c-1.09-0.43-2.31-0.85-3.95-0.49
			c-0.18,0.06-0.3-0.06-0.36-0.24c-0.06-0.18,0.06-0.3,0.24-0.36c1.82-0.43,3.16,0.06,4.31,0.49c1.28,0.49,2.19,0.79,3.28-0.12
			c0.12-0.12,0.3-0.06,0.43,0.06C103.66,814.67,103.66,814.86,103.54,814.98z"/>
		<path class="st21" d="M105.79,810.91c-0.12,0.12-0.3,0.12-0.43,0c-1.15-1.09-3.34-0.67-5.04-0.36c-1.52,0.3-2.67,0.55-3.16-0.18
			c-0.06-0.12-0.06-0.3,0.06-0.43c0.12-0.06,0.3-0.06,0.43,0.06c0.24,0.36,1.4,0.12,2.55-0.06c1.88-0.36,4.19-0.79,5.59,0.49
			C105.91,810.54,105.91,810.78,105.79,810.91C105.85,810.91,105.79,810.91,105.79,810.91z"/>
		<path class="st21" d="M108.16,806.65c-0.06,0.06-0.18,0.12-0.3,0.06c-1.82-0.49-6.87-1.46-7.9,0c-0.06,0.12-0.3,0.18-0.43,0.06
			c-0.12-0.06-0.18-0.3-0.06-0.43c1.46-2.07,7.78-0.43,8.51-0.24c0.18,0.06,0.24,0.18,0.18,0.36
			C108.22,806.53,108.22,806.59,108.16,806.65z"/>
		<path class="st21" d="M110.77,803.98C110.77,804.04,110.77,804.04,110.77,803.98c-0.18,0.12-0.36,0.06-0.43-0.06
			c-1.15-1.64-2.8-2.01-4.25-2.31c-1.34-0.3-2.55-0.61-2.92-1.88c-0.06-0.18,0.06-0.3,0.18-0.36c0.18-0.06,0.3,0.06,0.36,0.18
			c0.24,0.91,1.09,1.09,2.49,1.46c1.46,0.3,3.28,0.73,4.62,2.55C110.89,803.73,110.89,803.92,110.77,803.98z"/>
		<path class="st21" d="M113.93,801.55C113.87,801.55,113.87,801.55,113.93,801.55c-0.18,0.12-0.36,0.06-0.49-0.06
			c-0.73-1.15-1.52-1.82-2.31-2.43c-1.15-0.97-2.19-1.82-2.01-3.95c0-0.18,0.18-0.3,0.3-0.24c0.12,0.06,0.3,0.18,0.24,0.3
			c-0.18,1.82,0.67,2.49,1.76,3.4c0.79,0.61,1.64,1.34,2.43,2.55C114.05,801.3,113.99,801.43,113.93,801.55z"/>
		<g>
			<path class="st21" d="M124.02,802.09c1.03,1.09,0.97,2.73-0.12,3.77s-2.73,0.97-3.77-0.12c-1.03-1.09-0.97-2.73,0.12-3.77
				C121.35,801,123.05,801,124.02,802.09z"/>
		</g>
		<path class="st23" d="M116.49,809.2c0.49,0.49,0.49,1.28-0.06,1.76c-0.49,0.49-1.28,0.49-1.76-0.06
			c-0.49-0.55-0.49-1.28,0.06-1.76C115.21,808.72,116,808.72,116.49,809.2z"/>
		<path class="st23" d="M116.97,816.07c0.43,0.43,0.36,1.09-0.06,1.46c-0.43,0.43-1.09,0.36-1.46-0.06
			c-0.43-0.43-0.36-1.09,0.06-1.46C115.88,815.65,116.55,815.65,116.97,816.07z"/>
		<path class="st23" d="M110.65,818.81c0.24,0.24,0.24,0.67,0,0.85c-0.24,0.24-0.67,0.24-0.85,0c-0.24-0.24-0.24-0.67,0-0.85
			C110.04,818.5,110.41,818.56,110.65,818.81z"/>
		<path class="st23" d="M108.71,813.94c0.18,0.18,0.18,0.43,0,0.61c-0.18,0.18-0.43,0.18-0.61,0c-0.18-0.18-0.18-0.43,0-0.61
			C108.28,813.76,108.52,813.76,108.71,813.94z"/>
		<path class="st23" d="M107.67,816.25c0.36,0.36,0.36,0.97-0.06,1.34c-0.36,0.36-0.97,0.36-1.34-0.06
			c-0.36-0.36-0.36-0.97,0.06-1.34C106.7,815.83,107.31,815.83,107.67,816.25z"/>
		<path class="st23" d="M108.83,825.01c0.36,0.36,0.36,0.97-0.06,1.34c-0.36,0.36-0.97,0.36-1.34-0.06
			c-0.36-0.43-0.36-0.97,0.06-1.34C107.86,824.64,108.46,824.64,108.83,825.01z"/>
		<path class="st23" d="M126.63,808.23c0.36,0.36,0.36,0.97-0.06,1.34c-0.36,0.36-0.97,0.36-1.34-0.06
			c-0.36-0.36-0.36-0.97,0.06-1.34C125.66,807.81,126.27,807.81,126.63,808.23z"/>
		<path class="st23" d="M129.85,800.64c0.12,0.12,0.12,0.3,0,0.43c-0.12,0.12-0.3,0.12-0.43,0c-0.12-0.12-0.12-0.3,0-0.43
			C129.55,800.51,129.79,800.51,129.85,800.64z"/>
		<path class="st23" d="M133.08,802.95c0.3,0.3,0.3,0.85-0.06,1.15c-0.3,0.3-0.85,0.3-1.15-0.06c-0.3-0.3-0.3-0.85,0.06-1.15
			C132.23,802.58,132.71,802.58,133.08,802.95z"/>
		<path class="st23" d="M116.06,802.95c0.18,0.18,0.18,0.49,0,0.67c-0.18,0.18-0.49,0.18-0.67,0c-0.18-0.18-0.18-0.49,0-0.67
			C115.57,802.7,115.88,802.7,116.06,802.95z"/>
		<path class="st23" d="M110.41,808.48c0.24,0.24,0.24,0.61,0,0.85c-0.24,0.24-0.61,0.24-0.85,0c-0.24-0.24-0.24-0.61,0-0.85
			C109.8,808.23,110.16,808.23,110.41,808.48z"/>
	</g>
</g>
<g id="Teledeteccion">
	<g>
		<path class="st8" d="M576.1,459.52c8.51-10.57,5.89-25.34-5.23-34.34c-11.18-8.99-27.1-7.72-35.61,2.8L576.1,459.52z"/>
		<polygon class="st8" points="583.76,368.49 602.05,344.36 633.65,368.79 616.76,392.49 		"/>
		<polygon class="st8" points="557.75,404.04 575.19,379.85 608.74,404.71 592.03,429.99 		"/>
		<line class="st24" x1="569.42" y1="423.67" x2="571.61" y2="420.57"/>
		<line class="st24" x1="538.79" y1="466.75" x2="541.95" y2="433.39"/>
		<line class="st24" x1="538.79" y1="466.45" x2="567.35" y2="453.02"/>
		<line class="st24" x1="555.26" y1="443.66" x2="539.09" y2="466.39"/>
		<circle cx="538.3" cy="467.42" r="1.64"/>
		
			<rect x="571.09" y="397.42" transform="matrix(0.6002 -0.7999 0.7999 0.6002 -105.7984 626.1548)" class="st25" width="4.68" height="42.97"/>
		
			<rect x="617.15" y="334.75" transform="matrix(0.6105 -0.792 0.792 0.6105 -39.6792 628.8107)" class="st26" width="4.68" height="39.99"/>
		<polygon class="st27" points="581.51,384.53 589.66,372.98 611.72,388.66 603.33,400.51 		"/>
		<line class="st24" x1="620.04" y1="388.06" x2="630.31" y2="396.08"/>
		<line class="st24" x1="605.94" y1="407.99" x2="616.39" y2="415.83"/>
		<line class="st24" x1="564.31" y1="378.27" x2="572.4" y2="383.62"/>
		<line class="st24" x1="578.11" y1="358.09" x2="586.74" y2="363.93"/>
		
			<rect x="625.43" y="396.03" transform="matrix(0.5819 -0.8132 0.8132 0.5819 -61.2387 682.0503)" class="st28" width="14.65" height="9.12"/>
		
			<rect x="634.93" y="402.73" transform="matrix(0.5819 -0.8132 0.8132 0.5819 -62.7157 692.577)" class="st28" width="14.65" height="9.12"/>
		
			<rect x="644.42" y="409.35" transform="matrix(0.5819 -0.8132 0.8132 0.5819 -64.1267 703.0653)" class="st28" width="14.65" height="9.12"/>
		
			<rect x="653.93" y="416.05" transform="matrix(0.5819 -0.8132 0.8132 0.5819 -65.6008 713.6005)" class="st28" width="14.65" height="9.12"/>
		
			<rect x="663.48" y="422.69" transform="matrix(0.5819 -0.8132 0.8132 0.5819 -67.0113 724.1409)" class="st28" width="14.65" height="9.12"/>
		
			<rect x="672.94" y="429.35" transform="matrix(0.5819 -0.8132 0.8132 0.5819 -68.4772 734.6211)" class="st28" width="14.65" height="9.12"/>
		
			<rect x="682.48" y="436.01" transform="matrix(0.5819 -0.8132 0.8132 0.5819 -69.8963 745.1644)" class="st28" width="14.65" height="9.12"/>
		
			<rect x="691.94" y="442.67" transform="matrix(0.5819 -0.8132 0.8132 0.5819 -71.3622 755.6446)" class="st28" width="14.65" height="9.12"/>
		
			<rect x="614.98" y="411.11" transform="matrix(0.5819 -0.8132 0.8132 0.5819 -77.8719 679.8612)" class="st28" width="14.65" height="9.12"/>
		
			<rect x="624.44" y="417.77" transform="matrix(0.5819 -0.8132 0.8132 0.5819 -79.3294 690.3385)" class="st28" width="14.65" height="9.12"/>
		
			<rect x="633.99" y="424.42" transform="matrix(0.5819 -0.8132 0.8132 0.5819 -80.7484 700.8819)" class="st28" width="14.65" height="9.12"/>
		
			<rect x="643.5" y="431.12" transform="matrix(0.5819 -0.8132 0.8132 0.5819 -82.2224 711.4171)" class="st28" width="14.65" height="9.12"/>
		
			<rect x="653.03" y="437.77" transform="matrix(0.5819 -0.8132 0.8132 0.5819 -83.6444 721.9518)" class="st28" width="14.65" height="9.12"/>
		
			<rect x="662.49" y="444.44" transform="matrix(0.5819 -0.8132 0.8132 0.5819 -85.1104 732.4321)" class="st28" width="14.65" height="9.12"/>
		
			<rect x="672.04" y="451.08" transform="matrix(0.5819 -0.8132 0.8132 0.5819 -86.5209 742.9725)" class="st28" width="14.65" height="9.12"/>
		
			<rect x="681.5" y="457.75" transform="matrix(0.5819 -0.8132 0.8132 0.5819 -87.9869 753.4527)" class="st28" width="14.65" height="9.12"/>
		
			<rect x="499.5" y="305.57" transform="matrix(0.5819 -0.8132 0.8132 0.5819 -40.3155 541.8267)" class="st28" width="14.65" height="9.12"/>
		
			<rect x="509.05" y="312.22" transform="matrix(0.5819 -0.8132 0.8132 0.5819 -41.7346 552.37)" class="st28" width="14.65" height="9.12"/>
		
			<rect x="518.56" y="318.92" transform="matrix(0.5819 -0.8132 0.8132 0.5819 -43.2087 562.9052)" class="st28" width="14.65" height="9.12"/>
		
			<rect x="528.05" y="325.54" transform="matrix(0.5819 -0.8132 0.8132 0.5819 -44.6197 573.3934)" class="st28" width="14.65" height="9.12"/>
		
			<rect x="537.56" y="332.24" transform="matrix(0.5819 -0.8132 0.8132 0.5819 -46.0937 583.9286)" class="st28" width="14.65" height="9.12"/>
		
			<rect x="547.06" y="338.84" transform="matrix(0.5819 -0.8132 0.8132 0.5819 -47.4962 594.4141)" class="st28" width="14.65" height="9.12"/>
		
			<rect x="556.57" y="345.55" transform="matrix(0.5819 -0.8132 0.8132 0.5819 -48.9703 604.9493)" class="st28" width="14.65" height="9.12"/>
		
			<rect x="566.12" y="352.2" transform="matrix(0.5819 -0.8132 0.8132 0.5819 -50.3893 615.4926)" class="st28" width="14.65" height="9.12"/>
		
			<rect x="489.1" y="320.6" transform="matrix(0.5819 -0.8132 0.8132 0.5819 -56.8908 539.6541)" class="st28" width="14.65" height="9.12"/>
		
			<rect x="498.61" y="327.3" transform="matrix(0.5819 -0.8132 0.8132 0.5819 -58.3649 550.1893)" class="st28" width="14.65" height="9.12"/>
		
			<rect x="508.07" y="333.96" transform="matrix(0.5819 -0.8132 0.8132 0.5819 -59.8253 560.6581)" class="st28" width="14.65" height="9.12"/>
		
			<rect x="517.61" y="340.61" transform="matrix(0.5819 -0.8132 0.8132 0.5819 -61.2443 571.2015)" class="st28" width="14.65" height="9.12"/>
		
			<rect x="527.12" y="347.31" transform="matrix(0.5819 -0.8132 0.8132 0.5819 -62.7183 581.7367)" class="st28" width="14.65" height="9.12"/>
		
			<rect x="536.62" y="353.93" transform="matrix(0.5819 -0.8132 0.8132 0.5819 -64.1293 592.225)" class="st28" width="14.65" height="9.12"/>
		
			<rect x="546.13" y="360.63" transform="matrix(0.5819 -0.8132 0.8132 0.5819 -65.6033 602.7602)" class="st28" width="14.65" height="9.12"/>
		
			<rect x="555.67" y="367.27" transform="matrix(0.5819 -0.8132 0.8132 0.5819 -67.0139 613.3006)" class="st28" width="14.65" height="9.12"/>
		<path class="st27" d="M602.05,344.36"/>
		
			<rect x="620.31" y="341.52" transform="matrix(0.6105 -0.792 0.792 0.6105 -35.3831 629.8138)" class="st26" width="4.68" height="18.72"/>
	</g>
</g>
</svg>
