<?xml version="1.0" encoding="utf-8"?>
<!-- Generator: Adobe Illustrator 25.4.1, SVG Export Plug-In . SVG Version: 6.00 Build 0)  -->
<svg version="1.1" id="Capa_1" xmlns="http://www.w3.org/2000/svg" xmlns:xlink="http://www.w3.org/1999/xlink" x="0px" y="0px"
	 viewBox="0 0 130 284.56" style="enable-background:new 0 0 130 284.56;" xml:space="preserve">
<style type="text/css">
	.st0{fill:#F9CB1E;}
	.st1{fill:none;stroke:#000000;stroke-miterlimit:10;}
	.st2{fill:#FACE1D;}
	.st3{fill:none;stroke:#000000;stroke-width:0.25;stroke-miterlimit:10;}
</style>
<g>
	<path class="st0" d="M48.66,125.78l17.96,27.18c0.39,0.58,1.24,0.59,1.63,0.01l17.43-25.66c0.18-0.27,0.49-0.43,0.81-0.43h3.83
		c0.46,0,0.87,0.33,0.96,0.78l18.53,88.48c0.13,0.61-0.34,1.18-0.96,1.18H96.01c-0.5,0-0.92-0.37-0.98-0.87l-8.34-71.07
		c-0.11-0.92-1.3-1.19-1.8-0.41l-16.92,26.45c-0.38,0.6-1.26,0.6-1.65,0.01l-17.37-26.45c-0.51-0.77-1.71-0.48-1.8,0.44l-6.93,71.22
		c-0.05,0.5-0.47,0.89-0.98,0.89H26.34c-0.6,0-1.07-0.54-0.97-1.14L40,126.16c0.08-0.48,0.49-0.82,0.97-0.82h6.88
		C48.17,125.34,48.48,125.5,48.66,125.78z"/>
	<line class="st1" x1="88.03" y1="51.16" x2="88.03" y2="90.79"/>
	<rect x="33.43" y="118.12" class="st2" width="67.99" height="10.82"/>
	<line class="st1" x1="68.98" y1="37.94" x2="68.98" y2="90.82"/>
	<rect x="36.01" y="90.82" class="st2" width="62.84" height="27.3"/>
	<circle class="st1" cx="87.52" cy="41.37" r="9.79"/>
	<g>
		<path class="st2" d="M68.94,37.06c-4.77,4.78-9.41,9.41-13.96,13.96c-3.14-3.14-6.23-6.23-9.31-9.31
			c4.52-4.52,9.16-9.16,13.85-13.85c-4.77-4.76-9.44-9.41-14.06-14.02c3.18-3.18,6.26-6.26,9.33-9.33
			c4.59,4.59,9.24,9.24,13.85,13.86c4.75-4.75,9.39-9.4,13.96-13.97c3.22,3.22,6.31,6.31,9.39,9.39
			c-4.52,4.52-9.17,9.17-13.78,13.79c4.75,4.75,9.39,9.39,13.96,13.96c-3.21,3.21-6.3,6.31-9.38,9.38
			C78.27,46.4,73.63,41.75,68.94,37.06z"/>
	</g>
	<path class="st2" d="M127.99,217.17c0,34.79-28.2,62.99-62.99,62.99s-62.99-28.2-62.99-62.99H127.99z"/>
	<polygon class="st1" points="19.83,209.52 27.56,163.54 104.08,163.54 114.13,210.68 	"/>
	<line class="st3" x1="27.56" y1="169.33" x2="105.24" y2="169.33"/>
	<line class="st3" x1="26.4" y1="178.22" x2="107.17" y2="178.22"/>
	<line class="st3" x1="23.7" y1="187.11" x2="108.33" y2="187.11"/>
	<line class="st3" x1="22.15" y1="195.61" x2="110.65" y2="195.61"/>
	<line class="st3" x1="20.61" y1="204.5" x2="112.19" y2="204.5"/>
	<line class="st3" x1="37.61" y1="163.92" x2="33.14" y2="209.4"/>
	<line class="st3" x1="50.76" y1="163.69" x2="51.14" y2="210.3"/>
	<line class="st3" x1="66.59" y1="163.54" x2="67.37" y2="209.91"/>
	<line class="st3" x1="83.98" y1="163.15" x2="84.37" y2="209.52"/>
	<line class="st3" x1="99.46" y1="163.69" x2="100.79" y2="210.4"/>
</g>
</svg>
