<?xml version="1.0" encoding="utf-8"?>
<!-- Generator: Adobe Illustrator 25.4.1, SVG Export Plug-In . SVG Version: 6.00 Build 0)  -->
<svg version="1.1" xmlns="http://www.w3.org/2000/svg" xmlns:xlink="http://www.w3.org/1999/xlink" x="0px" y="0px"
	 viewBox="0 0 250 250" style="enable-background:new 0 0 250 250;" xml:space="preserve">
<style type="text/css">
	.st0{display:none;}
	.st1{display:inline;}
	.st2{fill:none;stroke:#026BB2;stroke-miterlimit:10;}
	.st3{fill:#FACE1D;stroke:#000000;stroke-miterlimit:10;}
	.st4{fill:none;stroke:#000000;stroke-width:0.9;stroke-miterlimit:10;}
	.st5{fill:#43CABF;stroke:#000000;stroke-miterlimit:10;}
	.st6{fill:#FFFFFF;stroke:#000000;stroke-width:0.9;stroke-miterlimit:10;}
	.st7{fill:none;stroke:#000000;stroke-width:0.5;stroke-miterlimit:10;}
	.st8{fill:#FFFFFF;stroke:#000000;stroke-width:0.75;stroke-miterlimit:10;}
	.st9{fill:#026BB2;stroke:#000000;stroke-width:0.9;stroke-miterlimit:10;}
	.st10{fill:none;stroke:#000000;stroke-width:0.75;stroke-miterlimit:10;}
</style>
<g id="Capa_1" class="st0">
	<g class="st1">
		<g>
			<g>
				<path class="st2" d="M62.81,179.74c21.15,0,21.15,2,42.29,2c21.15,0,21.15-2,42.29-2c21.15,0,21.15,2,42.3,2s21.15-2,42.3-2"/>
			</g>
			<g>
				<path class="st2" d="M62.81,203.47c21.15,0,21.15,2,42.29,2c21.15,0,21.15-2,42.29-2c21.15,0,21.15,2,42.3,2s21.15-2,42.3-2"/>
			</g>
			<g>
				<path class="st2" d="M62.81,227.21c21.15,0,21.15,2,42.29,2c21.15,0,21.15-2,42.29-2c21.15,0,21.15,2,42.3,2s21.15-2,42.3-2"/>
			</g>
		</g>
		<g>
			<path class="st3" d="M172.94,123.03h-70.59c-0.67,0-1.22-0.55-1.22-1.22V22.01c0-0.67,0.55-1.22,1.22-1.22h70.59
				c0.67,0,1.22,0.55,1.22,1.22v99.81C174.16,122.49,173.61,123.03,172.94,123.03z"/>
			<line class="st4" x1="113.77" y1="42.7" x2="161.52" y2="42.7"/>
			<line class="st4" x1="114.77" y1="56.36" x2="162.51" y2="56.36"/>
			<line class="st4" x1="114.77" y1="70.02" x2="162.51" y2="70.02"/>
		</g>
		<g>
			<circle class="st5" cx="190.81" cy="117.73" r="47.47"/>
			<polyline class="st4" points="236.27,104.06 190.81,117.73 161.85,80.16 			"/>
			<line class="st4" x1="190.81" y1="117.73" x2="179.86" y2="165.2"/>
		</g>
		<g>
			<path class="st4" d="M17.41,143.12l31.44-34.98c1.13-1.25,3.14-1.34,4.37-0.17l35.07,32.99c1.24,1.17,3.26,1.08,4.38-0.19
				l30.9-34.94"/>
			<circle class="st6" cx="126.43" cy="102.95" r="5.74"/>
			<circle class="st6" cx="92" cy="143.12" r="5.74"/>
			<circle class="st6" cx="17.41" cy="143.12" r="5.74"/>
			<circle class="st6" cx="51.83" cy="108.69" r="5.74"/>
		</g>
	</g>
</g>
<g id="Capa_2">
	<path class="st3" d="M184.06,48.06H73.89c-0.59,0-1.07,0.48-1.07,1.07V198.6c0,0.59,0.48,1.07,1.07,1.07h110.17
		c0.59,0,1.07-0.48,1.07-1.07V49.13C185.13,48.54,184.65,48.06,184.06,48.06z M115.16,107.18c-2.37,0-4.3-1.92-4.3-4.3
		s1.92-4.3,4.3-4.3c2.37,0,4.3,1.92,4.3,4.3S117.53,107.18,115.16,107.18z"/>
	<circle class="st3" cx="115.16" cy="102.88" r="4.3"/>
	<path class="st5" d="M172.72,59.29H85.23c-0.65,0-1.17,0.53-1.17,1.18v121.19c0,0.65,0.53,1.18,1.17,1.18h87.49
		c0.65,0,1.17-0.53,1.17-1.18V60.47C173.9,59.82,173.37,59.29,172.72,59.29z"/>
	<circle class="st7" cx="131.78" cy="191.25" r="2.81"/>
	<g>
		<line class="st8" x1="83.36" y1="168.79" x2="171.09" y2="168.79"/>
		<rect x="99.62" y="142.99" class="st9" width="13.55" height="25.8"/>
		<rect x="121.3" y="133.06" class="st9" width="13.55" height="35.73"/>
		<rect x="142.98" y="128.1" class="st9" width="13.55" height="40.69"/>
	</g>
	<g>
		<g>
			<line class="st10" x1="46.58" y1="87.5" x2="7.45" y2="87.5"/>
			<line class="st10" x1="7.45" y1="99.64" x2="46.58" y2="99.64"/>
		</g>
		<polyline class="st10" points="95.3,133.85 50.57,110.1 7.45,110.92 		"/>
	</g>
	<g>
		<g>
			<line class="st10" x1="203.34" y1="96.47" x2="242.8" y2="96.47"/>
			<line class="st10" x1="203.34" y1="108.62" x2="242.8" y2="108.62"/>
			<line class="st10" x1="242.8" y1="120.76" x2="203.34" y2="120.76"/>
		</g>
		<polyline class="st10" points="153.12,148.89 199.32,131.22 242.8,132.04 		"/>
	</g>
</g>
</svg>
