<?xml version="1.0" encoding="utf-8"?>
<!-- Generator: Adobe Illustrator 25.4.1, SVG Export Plug-In . SVG Version: 6.00 Build 0)  -->
<svg version="1.1" xmlns="http://www.w3.org/2000/svg" xmlns:xlink="http://www.w3.org/1999/xlink" x="0px" y="0px"
	 viewBox="0 0 250 250" style="enable-background:new 0 0 250 250;" xml:space="preserve">
<style type="text/css">
	.st0{display:none;}
	.st1{display:inline;}
	.st2{fill:none;stroke:#026BB2;stroke-miterlimit:10;}
	.st3{fill:#FACE1D;stroke:#000000;stroke-miterlimit:10;}
	.st4{fill:none;stroke:#000000;stroke-width:0.9;stroke-miterlimit:10;}
	.st5{fill:#43CABF;stroke:#000000;stroke-miterlimit:10;}
	.st6{fill:#FFFFFF;stroke:#000000;stroke-width:0.9;stroke-miterlimit:10;}
	.st7{display:inline;fill:#FACE1D;stroke:#000000;stroke-miterlimit:10;}
	.st8{display:inline;fill:#43CABF;stroke:#000000;stroke-miterlimit:10;}
	.st9{display:inline;fill:none;stroke:#000000;stroke-width:0.5;stroke-miterlimit:10;}
	.st10{fill:#FFFFFF;stroke:#000000;stroke-width:0.75;stroke-miterlimit:10;}
	.st11{fill:#026BB2;stroke:#000000;stroke-width:0.9;stroke-miterlimit:10;}
	.st12{fill:none;stroke:#000000;stroke-width:0.75;stroke-miterlimit:10;}
	.st13{fill:#FACE1D;}
	.st14{fill:#43CABF;}
</style>
<g id="Capa_1" class="st0">
	<g class="st1">
		<g>
			<g>
				<path class="st2" d="M62.81,179.74c21.15,0,21.15,2,42.29,2c21.15,0,21.15-2,42.29-2c21.15,0,21.15,2,42.3,2s21.15-2,42.3-2"/>
			</g>
			<g>
				<path class="st2" d="M62.81,203.47c21.15,0,21.15,2,42.29,2c21.15,0,21.15-2,42.29-2c21.15,0,21.15,2,42.3,2s21.15-2,42.3-2"/>
			</g>
			<g>
				<path class="st2" d="M62.81,227.21c21.15,0,21.15,2,42.29,2c21.15,0,21.15-2,42.29-2c21.15,0,21.15,2,42.3,2s21.15-2,42.3-2"/>
			</g>
		</g>
		<g>
			<path class="st3" d="M172.94,123.03h-70.59c-0.67,0-1.22-0.55-1.22-1.22V22.01c0-0.67,0.55-1.22,1.22-1.22h70.59
				c0.67,0,1.22,0.55,1.22,1.22v99.81C174.16,122.49,173.61,123.03,172.94,123.03z"/>
			<line class="st4" x1="113.77" y1="42.7" x2="161.52" y2="42.7"/>
			<line class="st4" x1="114.77" y1="56.36" x2="162.51" y2="56.36"/>
			<line class="st4" x1="114.77" y1="70.02" x2="162.51" y2="70.02"/>
		</g>
		<g>
			<circle class="st5" cx="190.81" cy="117.73" r="47.47"/>
			<polyline class="st4" points="236.27,104.06 190.81,117.73 161.85,80.16 			"/>
			<line class="st4" x1="190.81" y1="117.73" x2="179.86" y2="165.2"/>
		</g>
		<g>
			<path class="st4" d="M17.41,143.12l31.44-34.98c1.13-1.25,3.14-1.34,4.37-0.17l35.07,32.99c1.24,1.17,3.26,1.08,4.38-0.19
				l30.9-34.94"/>
			<circle class="st6" cx="126.43" cy="102.95" r="5.74"/>
			<circle class="st6" cx="92" cy="143.12" r="5.74"/>
			<circle class="st6" cx="17.41" cy="143.12" r="5.74"/>
			<circle class="st6" cx="51.83" cy="108.69" r="5.74"/>
		</g>
	</g>
</g>
<g id="Capa_2" class="st0">
	<path class="st7" d="M184.06,48.06H73.89c-0.59,0-1.07,0.48-1.07,1.07V198.6c0,0.59,0.48,1.07,1.07,1.07h110.17
		c0.59,0,1.07-0.48,1.07-1.07V49.13C185.13,48.54,184.65,48.06,184.06,48.06z M115.16,107.18c-2.37,0-4.3-1.92-4.3-4.3
		s1.92-4.3,4.3-4.3c2.37,0,4.3,1.92,4.3,4.3S117.53,107.18,115.16,107.18z"/>
	<circle class="st7" cx="115.16" cy="102.88" r="4.3"/>
	<path class="st8" d="M172.72,59.29H85.23c-0.65,0-1.17,0.53-1.17,1.18v121.19c0,0.65,0.53,1.18,1.17,1.18h87.49
		c0.65,0,1.17-0.53,1.17-1.18V60.47C173.9,59.82,173.37,59.29,172.72,59.29z"/>
	<circle class="st9" cx="131.78" cy="191.25" r="2.81"/>
	<g class="st1">
		<line class="st10" x1="83.36" y1="168.79" x2="171.09" y2="168.79"/>
		<rect x="99.62" y="142.99" class="st11" width="13.55" height="25.8"/>
		<rect x="121.3" y="133.06" class="st11" width="13.55" height="35.73"/>
		<rect x="142.98" y="128.1" class="st11" width="13.55" height="40.69"/>
	</g>
	<g class="st1">
		<g>
			<line class="st12" x1="46.58" y1="87.5" x2="7.45" y2="87.5"/>
			<line class="st12" x1="7.45" y1="99.64" x2="46.58" y2="99.64"/>
		</g>
		<polyline class="st12" points="95.3,133.85 50.57,110.1 7.45,110.92 		"/>
	</g>
	<g class="st1">
		<g>
			<line class="st12" x1="203.34" y1="96.47" x2="242.8" y2="96.47"/>
			<line class="st12" x1="203.34" y1="108.62" x2="242.8" y2="108.62"/>
			<line class="st12" x1="242.8" y1="120.76" x2="203.34" y2="120.76"/>
		</g>
		<polyline class="st12" points="153.12,148.89 199.32,131.22 242.8,132.04 		"/>
	</g>
</g>
<g id="Capa_3">
	<g>
		<circle class="st11" cx="125.42" cy="134.03" r="70.38"/>
		<g>
			<g>
				<circle class="st10" cx="55.1" cy="109.86" r="8.01"/>
				<path class="st10" d="M66.41,145.88H43.79c-0.39,0-0.7-0.31-0.7-0.7v-21.57c0-0.97,0.78-1.75,1.75-1.75h20.52
					c0.97,0,1.75,0.78,1.75,1.75v21.57C67.11,145.57,66.8,145.88,66.41,145.88z"/>
			</g>
			<g>
				<circle class="st10" cx="195.15" cy="109.86" r="8.01"/>
				<path class="st10" d="M206.45,145.88h-22.62c-0.39,0-0.7-0.31-0.7-0.7v-21.57c0-0.97,0.78-1.75,1.75-1.75h20.52
					c0.97,0,1.75,0.78,1.75,1.75v21.57C207.16,145.57,206.84,145.88,206.45,145.88z"/>
			</g>
		</g>
		<g>
			<g>
				<circle class="st10" cx="128" cy="45.66" r="8.01"/>
				<path class="st10" d="M139.31,81.69h-22.62c-0.39,0-0.7-0.31-0.7-0.7V59.42c0-0.97,0.78-1.75,1.75-1.75l20.52,0
					c0.97,0,1.75,0.78,1.75,1.75v21.57C140.01,81.37,139.7,81.69,139.31,81.69z"/>
			</g>
			<g>
				<circle class="st10" cx="128" cy="174.05" r="8.01"/>
				<path class="st10" d="M139.31,210.08h-22.62c-0.39,0-0.7-0.31-0.7-0.7v-21.57c0-0.97,0.78-1.75,1.75-1.75h20.52
					c0.97,0,1.75,0.78,1.75,1.75v21.57C140.01,209.77,139.7,210.08,139.31,210.08z"/>
			</g>
		</g>
		<g>
			<path class="st13" d="M117.51,116.76h-15.5c-8.53,0-15.5,6.98-15.5,15.5c0,4.98,2.38,9.43,6.06,12.27l1.69,10.98l14.12-7.75h9.13
				c8.53,0,15.5-6.98,15.5-15.5S126.04,116.76,117.51,116.76z"/>
			<g>
				<path d="M117.51,116.38c-3.2,0-6.39,0-9.59,0c-3.53,0-7.3-0.34-10.71,0.74c-5.52,1.76-9.79,6.58-10.82,12.29
					c-0.54,3.01-0.21,6.14,0.98,8.96c0.61,1.45,1.43,2.79,2.43,4c0.55,0.66,1.14,1.27,1.79,1.83c0.3,0.26,0.51,0.32,0.64,0.63
					c0.27,0.62,0.24,1.58,0.35,2.24c0.19,1.22,0.37,2.43,0.56,3.65c0.25,1.63,0.5,3.25,0.75,4.88c0.04,0.25,0.36,0.33,0.55,0.22
					c3.21-1.76,6.42-3.52,9.63-5.28c1.43-0.79,2.85-1.62,4.31-2.37c0.19-0.1,0.2-0.08,0.02-0.05c0.22-0.04,0.48,0,0.7,0
					c1.03,0,2.06,0,3.1,0c1.77,0,3.54,0.02,5.3,0c3.22-0.03,6.37-0.98,9.01-2.82c5.27-3.67,7.89-10.28,6.47-16.55
					C131.37,121.57,124.82,116.47,117.51,116.38c-0.48-0.01-0.48,0.74,0,0.75c6.75,0.08,12.81,4.62,14.6,11.17
					c1.81,6.63-1.25,13.78-7.22,17.14c-4.23,2.38-8.99,1.94-13.65,1.94c-0.98,0-2.26-0.24-3.18,0.12c-1.29,0.5-2.54,1.4-3.76,2.06
					c-3.41,1.87-6.82,3.74-10.23,5.62c0.18,0.07,0.37,0.15,0.55,0.22c-0.49-3.16-0.97-6.32-1.46-9.49
					c-0.07-0.43-0.05-1.04-0.22-1.45c-0.13-0.3-0.42-0.46-0.67-0.67c-0.6-0.51-1.17-1.08-1.69-1.67c-2.32-2.67-3.64-6.14-3.69-9.67
					c-0.08-6.2,3.81-11.99,9.59-14.27c3.36-1.33,6.96-1.05,10.5-1.05c3.51,0,7.03,0,10.54,0C117.99,117.13,118,116.38,117.51,116.38
					z"/>
			</g>
		</g>
		<g>
			<path class="st14" d="M131.84,107.57h19.85c10.92,0,19.85,8.32,19.85,18.49c0,5.94-3.05,11.25-7.76,14.64l-2.17,13.1l-18.08-9.24
				h-11.69c-10.92,0-19.85-8.32-19.85-18.49S120.93,107.57,131.84,107.57z"/>
			<g>
				<path d="M131.84,107.95c3.64,0,7.28,0,10.91,0c3.99,0,8.25-0.38,12.21,0.26c7.34,1.18,13.9,6.5,15.7,13.84
					c0.99,4,0.44,8.29-1.49,11.94c-0.97,1.84-2.26,3.49-3.78,4.9c-0.7,0.65-1.81,1.09-2.04,2.04c-0.56,2.3-0.78,4.74-1.17,7.08
					c-0.31,1.9-0.63,3.79-0.94,5.69c0.18-0.07,0.37-0.15,0.55-0.22c-3.75-1.92-7.5-3.83-11.24-5.75c-2-1.02-3.99-2.04-5.99-3.06
					c-1.04-0.53-1.71-0.49-2.91-0.49c-2.65,0-5.3,0-7.94,0c-2.79,0-5.51-0.12-8.19-0.99c-7.88-2.53-13.76-10.03-13.1-18.47
					C113.19,114.85,122.35,108.03,131.84,107.95c0.48,0,0.48-0.75,0-0.75c-8.08,0.07-15.9,4.69-18.96,12.33
					c-3.05,7.62-0.23,16.22,6.19,21.13c3.21,2.46,7.12,3.9,11.15,4.21c2.27,0.17,4.58,0.06,6.85,0.06c1.43,0,2.87,0,4.3,0
					c0.69,0,1.47-0.11,2.16,0c-0.35-0.05-0.04,0.01,0.1,0.09c0.29,0.17,0.6,0.31,0.9,0.46c1,0.51,1.99,1.02,2.99,1.53
					c4.64,2.37,9.27,4.74,13.91,7.11c0.19,0.1,0.51,0.03,0.55-0.22c0.67-4.08,1.35-8.16,2.02-12.24c0.03-0.21,0.02-0.55,0.12-0.74
					c0.15-0.29,0.81-0.63,1.11-0.88c1.54-1.3,2.89-2.84,3.96-4.55c2.11-3.39,3.07-7.45,2.6-11.43c-0.82-7.07-5.91-12.91-12.46-15.45
					c-4.41-1.71-9.07-1.41-13.7-1.41c-4.6,0-9.2,0-13.8,0C131.36,107.2,131.36,107.95,131.84,107.95z"/>
			</g>
		</g>
		<g>
			<line class="st12" x1="125.94" y1="120.77" x2="157.59" y2="120.77"/>
			<line class="st12" x1="157.59" y1="130.51" x2="132.76" y2="130.01"/>
		</g>
	</g>
</g>
</svg>
