<?xml version="1.0" encoding="utf-8"?>
<!-- Generator: Adobe Illustrator 25.4.1, SVG Export Plug-In . SVG Version: 6.00 Build 0)  -->
<svg version="1.1" id="Capa_1" xmlns="http://www.w3.org/2000/svg" xmlns:xlink="http://www.w3.org/1999/xlink" x="0px" y="0px"
	 viewBox="0 0 250 250" style="enable-background:new 0 0 250 250;" xml:space="preserve">
<style type="text/css">
	.st0{fill:none;stroke:#026BB2;stroke-miterlimit:10;}
	.st1{fill:#FACE1D;stroke:#000000;stroke-miterlimit:10;}
	.st2{fill:none;stroke:#000000;stroke-width:0.9;stroke-miterlimit:10;}
	.st3{fill:#43CABF;stroke:#000000;stroke-miterlimit:10;}
	.st4{fill:#FFFFFF;stroke:#000000;stroke-width:0.9;stroke-miterlimit:10;}
</style>
<g>
	<g>
		<g>
			<path class="st0" d="M62.81,179.74c21.15,0,21.15,2,42.29,2c21.15,0,21.15-2,42.29-2c21.15,0,21.15,2,42.3,2s21.15-2,42.3-2"/>
		</g>
		<g>
			<path class="st0" d="M62.81,203.47c21.15,0,21.15,2,42.29,2c21.15,0,21.15-2,42.29-2c21.15,0,21.15,2,42.3,2s21.15-2,42.3-2"/>
		</g>
		<g>
			<path class="st0" d="M62.81,227.21c21.15,0,21.15,2,42.29,2c21.15,0,21.15-2,42.29-2c21.15,0,21.15,2,42.3,2s21.15-2,42.3-2"/>
		</g>
	</g>
	<g>
		<path class="st1" d="M172.94,123.03h-70.59c-0.67,0-1.22-0.55-1.22-1.22V22.01c0-0.67,0.55-1.22,1.22-1.22h70.59
			c0.67,0,1.22,0.55,1.22,1.22v99.81C174.16,122.49,173.61,123.03,172.94,123.03z"/>
		<line class="st2" x1="113.77" y1="42.7" x2="161.52" y2="42.7"/>
		<line class="st2" x1="114.77" y1="56.36" x2="162.51" y2="56.36"/>
		<line class="st2" x1="114.77" y1="70.02" x2="162.51" y2="70.02"/>
	</g>
	<g>
		<circle class="st3" cx="190.81" cy="117.73" r="47.47"/>
		<polyline class="st2" points="236.27,104.06 190.81,117.73 161.85,80.16 		"/>
		<line class="st2" x1="190.81" y1="117.73" x2="179.86" y2="165.2"/>
	</g>
	<g>
		<path class="st2" d="M17.41,143.12l31.44-34.98c1.13-1.25,3.14-1.34,4.37-0.17l35.07,32.99c1.24,1.17,3.26,1.08,4.38-0.19
			l30.9-34.94"/>
		<circle class="st4" cx="126.43" cy="102.95" r="5.74"/>
		<circle class="st4" cx="92" cy="143.12" r="5.74"/>
		<circle class="st4" cx="17.41" cy="143.12" r="5.74"/>
		<circle class="st4" cx="51.83" cy="108.69" r="5.74"/>
	</g>
</g>
</svg>
