<?xml version="1.0" encoding="utf-8"?>
<!-- Generator: Adobe Illustrator 25.4.1, SVG Export Plug-In . SVG Version: 6.00 Build 0)  -->
<svg version="1.1" xmlns="http://www.w3.org/2000/svg" xmlns:xlink="http://www.w3.org/1999/xlink" x="0px" y="0px"
	 viewBox="0 0 45 45" style="enable-background:new 0 0 45 45;" xml:space="preserve">
<style type="text/css">
	.st0{display:none;}
	.st1{display:inline;}
	.st2{fill:none;stroke:#000000;stroke-miterlimit:10;}
	.st3{fill:none;stroke:#020202;stroke-miterlimit:10;}
</style>
<g id="Capa_1" class="st0">
	<g class="st1">
		<circle class="st2" cx="22.5" cy="22.5" r="21.28"/>
		<g>
			<g>
				<path class="st2" d="M10.49,15.75c3,0,3,2,6,2c3,0,3-2,6.01-2c3.01,0,3.01,2,6.01,2s3.01-2,6.01-2"/>
			</g>
			<g>
				<path class="st2" d="M10.49,21.5c3,0,3,2,6,2c3,0,3-2,6.01-2c3.01,0,3.01,2,6.01,2s3.01-2,6.01-2"/>
			</g>
			<g>
				<path class="st2" d="M10.49,27.25c3,0,3,2,6,2c3,0,3-2,6.01-2c3.01,0,3.01,2,6.01,2s3.01-2,6.01-2"/>
			</g>
		</g>
	</g>
</g>
<g id="Capa_2">
	<g>
		<circle class="st3" cx="22.5" cy="22.5" r="21.28"/>
		<g>
			<polyline class="st2" points="13.79,10.14 13.79,30.21 34.34,30.21 			"/>
			<polyline class="st2" points="29.74,34.86 29.74,14.79 9.2,14.79 			"/>
		</g>
		<line class="st2" x1="15.79" y1="16.33" x2="27.75" y2="28.67"/>
		<line class="st2" x1="19.7" y1="16.58" x2="27.72" y2="24.84"/>
		<line class="st2" x1="15.7" y1="20.14" x2="23.71" y2="28.4"/>
		<line class="st2" x1="23.19" y1="16.33" x2="27.75" y2="21.03"/>
		<line class="st2" x1="15.7" y1="23.86" x2="20.25" y2="28.56"/>
	</g>
</g>
</svg>
