<svg enable-background="new 0 0 45 45" viewBox="0 0 45 45" xmlns="http://www.w3.org/2000/svg"><g stroke="#000" stroke-miterlimit="10"><circle cx="22.5" cy="22.5" fill="none" r="21.28" stroke-width=".7631"/><g stroke-width=".3815"><path d="m11.92 34.01h21.16" fill="none"/><path d="m18.12 23.72h-1.76c-.55 0-.99.44-.99.99v9.3h3.73v-9.3c.01-.55-.43-.99-.98-.99z" fill="none"/><path d="m23.01 20.8-.37-.01c-1.78-.04-1.78.8-1.78 1.78v11.44h3.73v-11.44c0-.98.3-1.77-1.58-1.77z" fill="none"/><path d="m28.28 18.31s-1.96-.29-1.87 1.87v13.83h3.73v-13.83c.01-1.03-.12-1.89-1.86-1.87z" fill="none"/><g fill="#fff"><path d="m17.12 19.63-.01-.69c.05-.02.08-.06.13-.08l.59.38c.2.13.48.07.61-.13l.65-1c.13-.2.07-.48-.13-.61l-.58-.38c.01-.1.01-.21.01-.31l.62-.32c.22-.11.3-.38.19-.59l-.54-1.06c-.11-.22-.37-.3-.59-.19l-.62.32c-.13-.09-.26-.17-.4-.24l-.01-.7c0-.24-.2-.44-.45-.43l-1.19.02c-.24 0-.44.2-.43.45l.01.69c-.05.02-.08.06-.13.08l-.59-.38c-.2-.13-.48-.07-.61.13l-.65 1c-.13.2-.07.48.13.61l.58.38c-.01.1-.01.21-.01.31l-.62.32c-.22.11-.3.38-.19.59l.54 1.06c.11.22.38.3.59.19l.62-.32c.13.09.26.17.4.24l.01.7c0 .24.2.44.45.43l1.19-.02c.24-.01.44-.21.43-.45z"/><circle cx="16.02" cy="16.86" r=".95"/><path d="m24.18 17.95-.08-.61c.04-.03.07-.06.1-.09l.56.28c.19.1.43.02.52-.18l.47-.95c.1-.19.02-.43-.18-.52l-.55-.27c0-.09-.01-.19-.03-.28l.52-.35c.18-.12.23-.36.11-.54l-.59-.88c-.12-.18-.36-.23-.54-.11l-.52.35c-.12-.07-.25-.13-.38-.17l-.08-.63c-.03-.21-.23-.36-.44-.34l-1.05.14c-.21.03-.36.23-.34.44l.08.61c-.04.03-.07.06-.1.09l-.56-.28c-.19-.1-.43-.02-.52.18l-.47.95c-.1.19-.02.43.18.52l.55.27c0 .09.01.19.03.28l-.52.35c-.18.12-.23.36-.11.54l.59.88c.12.18.36.23.54.11l.52-.35c.12.07.25.13.38.17l.08.62c.03.21.23.36.44.34l1.05-.14c.22-.02.37-.22.34-.43z"/><circle cx="22.91" cy="15.61" r=".84"/><path d="m19.73 12.99-.08-.61c.04-.03.07-.06.1-.09l.56.28c.19.1.43.02.52-.18l.47-.95c.1-.19.02-.43-.18-.52l-.55-.27c0-.09-.01-.19-.03-.28l.52-.35c.18-.12.23-.36.11-.54l-.59-.88c-.12-.18-.36-.23-.54-.11l-.52.35c-.12-.07-.25-.13-.38-.17l-.08-.62c-.03-.21-.23-.36-.44-.34l-1.05.14c-.21.03-.36.23-.34.44l.08.61c-.04.03-.07.06-.1.09l-.56-.28c-.19-.1-.43-.02-.52.18l-.47.95c-.1.19-.02.43.18.52l.55.27c0 .09.01.19.03.28l-.52.35c-.18.12-.23.36-.11.54l.59.88c.12.18.36.23.54.11l.52-.35c.12.07.25.13.38.17l.08.62c.03.21.23.36.44.34l1.05-.14c.21-.02.37-.22.34-.44z"/><circle cx="18.46" cy="10.66" r=".84"/></g></g></g></svg>