<svg enable-background="new 0 0 45 45" viewBox="0 0 45 45" xmlns="http://www.w3.org/2000/svg"><g stroke-miterlimit="10"><g fill="none"><g stroke="#000"><circle cx="22.5" cy="22.5" r="21.28" stroke-width=".7631"/><path d="m37.34 29.72c0-.23-.19-.42-.42-.42h-23.93-4.92c-.23 0-.42.19-.42.42v1.27h29.69z" stroke-width=".3815"/><path d="m10.78 29.3v-13.9c0-.59.48-1.07 1.07-1.07h21.3c.59 0 1.07.48 1.07 1.07v13.9" stroke-width=".3815"/><path d="m12.99 29.3v-11.91c0-.53.43-.96.96-.96h16.99c.53 0 .96.43.96.96v11.61" stroke-width=".3815"/></g><path d="m17.27 24.76 2.97-3.3c.11-.12.3-.13.41-.02l3.31 3.11c.12.11.31.1.41-.02l2.92-3.3" stroke="#050505" stroke-width=".2289"/></g><g stroke="#050505" stroke-width=".2289"><circle cx="27.57" cy="20.97" r=".54"/><circle cx="24.32" cy="24.76" r=".54"/><circle cx="17.27" cy="24.76" r=".54"/><circle cx="20.52" cy="21.51" r=".54"/></g></g></svg>