<?xml version="1.0" encoding="utf-8"?>
<!-- Generator: Adobe Illustrator 25.4.1, SVG Export Plug-In . SVG Version: 6.00 Build 0)  -->
<svg version="1.1" id="Capa_1" xmlns="http://www.w3.org/2000/svg" xmlns:xlink="http://www.w3.org/1999/xlink" x="0px" y="0px"
	 viewBox="0 0 45 45" style="enable-background:new 0 0 45 45;" xml:space="preserve">
<style type="text/css">
	.st0{fill:none;stroke:#000000;stroke-miterlimit:10;}
</style>
<g>
	<circle class="st0" cx="22.5" cy="22.5" r="21.28"/>
	<g>
		<g>
			<path class="st0" d="M10.49,15.75c3,0,3,2,6,2c3,0,3-2,6.01-2c3.01,0,3.01,2,6.01,2s3.01-2,6.01-2"/>
		</g>
		<g>
			<path class="st0" d="M10.49,21.5c3,0,3,2,6,2c3,0,3-2,6.01-2c3.01,0,3.01,2,6.01,2s3.01-2,6.01-2"/>
		</g>
		<g>
			<path class="st0" d="M10.49,27.25c3,0,3,2,6,2c3,0,3-2,6.01-2c3.01,0,3.01,2,6.01,2s3.01-2,6.01-2"/>
		</g>
	</g>
</g>
</svg>
