<svg enable-background="new 0 0 45 45" viewBox="0 0 45 45" xmlns="http://www.w3.org/2000/svg"><circle cx="22.5" cy="22.5" fill="none" r="21.28" stroke="#000" stroke-miterlimit="10" stroke-width=".7631"/><path d="m18.34 11.32c-.08 2.38-3.48 2.19-4.74 3.73-1.02 1.25-1.07 2.98-.88 4.5.15 1.22.43 2.42.47 3.66.03.91-.04 1.83.09 2.74.19 1.44.89 2.6 2.24 3.2 1.43.64 3.05.58 4.56.91 1.18.26 2.25.79 3.3 1.38.84.48 1.82.95 2.45 1.7.8.95.84 2.19 1.17 3.32.24.84.63 1.64 1.15 2.35.91 1.25 2.15 2.16 3.6 2.71.23.09.33-.28.1-.37-2.02-.78-3.67-2.38-4.37-4.44-.49-1.44-.48-2.99-1.63-4.1-1.1-1.06-2.76-1.88-4.16-2.45-1.53-.63-3.15-.64-4.75-.98-2.38-.51-3.29-2.09-3.34-4.43-.02-.97 0-1.92-.12-2.88-.13-1.03-.37-2.05-.44-3.09-.06-1 .03-2.06.51-2.96.66-1.23 1.83-1.52 3.02-2.02 1.12-.47 2.11-1.19 2.16-2.5 0-.22-.38-.22-.39.02z"/><path d="m34.39 40.27c-.76-2.25-1.02-4.62-.71-6.98.13-.98.52-1.95.59-2.93.02-.3.01-.56-.06-.85-.04-.18-.17-.35-.2-.53-.16-.79.41-1.19.92-1.56 1.03-.74 1.47-1.54 1.51-2.85.03-1.18-.08-2.3.09-3.48.11-.78.2-1.54.09-2.33-.52-3.69-3.86-5.92-6.89-7.52-1.21-.64-2.1-1.19-2.9.18-.32.54-.78 1.43-1.61.5-.16-.18-.2-.49-.35-.69-.32-.44-.77-.65-1.27-.8-1.21-.35-2.29-.3-2.92-1.62-.33-.69-.63-1.21-1.3-1.61-.72-.43-1.57-.58-2.3-.99-1.44-.81-1.42-2.31-1.28-3.76.02-.24-.36-.24-.38 0-.13 1.39-.17 2.92 1.06 3.84.48.36 1.06.54 1.61.76 1.22.48 1.71.97 2.33 2.13.74 1.38 1.91 1.17 3.21 1.66 1.11.42.87 1.12 1.57 1.78.25.23.51.34.86.25.64-.17.74-.8 1.09-1.25.93-1.21 2.49-.01 3.48.55 1.9 1.08 3.74 2.42 4.82 4.37.55 1 .86 2.09.84 3.24-.02 1.08-.32 2.11-.3 3.2.03 1.16.27 2.53-.52 3.5-.49.6-1.55.59-1.94 1.27-.37.63.17 1.25.31 1.85.26 1.11-.4 2.55-.55 3.65-.32 2.4-.04 4.81.72 7.11.08.24.45.14.38-.09z"/><path d="m9.31 5.92c.36.52 1.17 2.09 2.04 1.52.15-.1.24-.25.3-.41.11-.28.13-.92.62-.63.26.16.49.51.7.73.24.26.48.51.73.77.37.39.74.84 1.25 1.07.49.23 1.05.12 1.57.28.93.29 1.03 1.56 1.85 2.04.21.12.4-.21.19-.33-.77-.45-.85-1.52-1.64-1.95-.45-.24-.96-.18-1.44-.27-.63-.11-1.05-.6-1.47-1.05-.44-.47-.89-.94-1.33-1.41-.25-.26-.56-.51-.92-.3-.4.23-.28.7-.53 1.01-.51.65-1.39-.96-1.61-1.27-.12-.19-.45 0-.31.2z"/></svg>