<?xml version="1.0" encoding="utf-8"?>
<!-- Generator: Adobe Illustrator 25.4.1, SVG Export Plug-In . SVG Version: 6.00 Build 0)  -->
<svg version="1.1" id="Capa_1" xmlns="http://www.w3.org/2000/svg" xmlns:xlink="http://www.w3.org/1999/xlink" x="0px" y="0px"
	 viewBox="0 0 615 500" style="enable-background:new 0 0 615 500;" xml:space="preserve">
<style type="text/css">
	.st0{fill:#1573AC;stroke:#1573AC;stroke-miterlimit:10;}
	.st1{fill:none;stroke:#000000;stroke-width:0.75;stroke-miterlimit:10;}
	.st2{fill:#FFFFFF;stroke:#000000;stroke-width:0.75;stroke-miterlimit:10;}
	.st3{clip-path:url(#SVGID_00000137129931997584877460000003173342025124371855_);}
	.st4{fill:#F4C81D;stroke:#1D1D1B;stroke-width:0.25;stroke-miterlimit:10;}
</style>
<path class="st0" d="M317.96,401.43c1.09-0.04,1.7-0.67,2.34-1.55c0.91-1.26,1.82-2.52,2.73-3.77c1.34-1.85,2.68-3.71,4.19-5.44
	c2.08-2.39,4.47-4.51,7.06-6.33c1.15-0.81,2.35-1.57,3.68-2.01c1.69-0.56,3.5-0.58,5.28-0.58c2.28-0.01,4.58,0,6.8-0.55
	c2.21-0.55,4.36-1.72,5.61-3.63c0.83-1.27,1.27-2.84,2.45-3.79c2.05-1.64,5.77-0.96,6.86-3.34c0.24-0.53,0.29-1.13,0.5-1.68
	c1.19-3.1,6.08-2.41,8.39-4.79c0.65-0.67,1.05-1.55,1.68-2.25c2.1-2.36,5.78-1.98,8.93-1.96c4.1,0.03,8.2-0.88,11.9-2.64
	c1.04-0.49,2.07-1.07,2.81-1.95c1.5-1.78,1.59-4.52,3.31-6.09c1.25-1.13,2.27-2.25,2.85-3.84c0.27-0.75,0.44-1.57,0.95-2.17
	c0.68-0.79,1.79-1.02,2.71-1.5c2.11-1.09,3.25-3.46,5.15-4.89c1.6-1.2,3.71-1.73,4.96-3.29c0.5-0.63,0.83-1.39,1.41-1.95
	c0.42-0.4,0.95-0.67,1.47-0.94c2.49-1.27,4.99-2.54,7.48-3.81c1.29-0.66,2.59-1.32,3.81-2.09c1.38-0.87,2.67-1.87,4.07-2.71
	c1.82-1.1,3.8-1.9,5.78-2.7c1.56-0.63,3.17-1.27,4.85-1.24c1.13,0.02,2.22,0.35,3.32,0.59c3.64,0.8,7.41,0.7,11.13,0.45
	c1.33-0.09,2.74-0.18,3.92,0.42c0.66,0.34,1.21,0.87,1.89,1.14c1.66,0.66,3.79-0.31,5.24,0.74c0.41,0.3,0.71,0.72,1.12,1
	c1.18,0.8,2.79,0.18,4.19,0.46c2.35,0.47,3.7,3.35,6.08,3.64c6.56,0.79,13.01,2.87,18.96,5.73c0.99,0.47,1.99,0.98,3.08,1.09
	c1.31,0.12,2.59-0.35,3.81-0.81c3.97-1.5,7.94-3,11.91-4.51c0.3-0.11,0.62-0.23,0.94-0.22c0.22,0.01,0.43,0.08,0.63,0.16
	c1.62,0.69,3.09,2.5,4.74,1.88c0.43-0.16,0.79-0.48,1.23-0.6c0.87-0.24,1.73,0.32,2.56,0.67c3.43,1.43,7.18-0.72,10.52-2.35
	c0.58-0.28,1.21-0.56,1.85-0.49c0.88,0.1,1.55,0.8,2.35,1.19c2.37,1.15,5-0.66,7.36-1.82c3.22-1.59,6.87-2.03,10.42-2.53
	c0.78-0.11,1.57-0.22,2.34-0.39c0.7-0.15,1.38-0.36,2.07-0.56c1.81-0.53,3.63-1.07,5.44-1.6c4.66-1.37,8.25-4.89,11.79-8.21
	c0.49-0.46,1.01-0.99,1.05-1.67c0.06-0.86-0.67-1.54-1.07-2.31c-0.96-1.84-0.01-4.22-0.91-6.09c-0.13-0.27-0.31-0.54-0.33-0.84
	c-0.05-0.61,0.5-1.21,0.27-1.77c-0.13-0.32-0.47-0.5-0.72-0.74c-1.32-1.22-0.22-3.72-1.4-5.07c-0.21-0.24-0.5-0.42-0.81-0.41
	c-0.26,0.01-0.49,0.15-0.69,0.31c-1.14,0.89-1.95,2.57-3.39,2.49c-1.37-0.08-2.02-1.7-3.06-2.6c-0.57-0.49-1.35-0.85-1.54-1.58
	c-0.21-0.8,0.44-1.63,0.26-2.44c-0.17-0.73-0.99-1.27-0.9-2.02c0.1-0.85,1.32-1.68,0.7-2.27c-0.62,0.3-1.34-0.14-1.81-0.64
	s-0.91-1.12-1.58-1.27c-0.3-0.07-0.62-0.04-0.91-0.15c-1-0.39-0.68-1.87-0.2-2.82c-0.54-0.44-1.45-0.32-1.86,0.25
	c-0.59,0.83-0.36,2.44-1.37,2.53c-0.68,0.06-1.07-0.74-1.27-1.39c-0.69,0.02-1.39,0.03-2.08,0.05c0.21-0.72-0.89-1.18-1.57-0.85
	s-1.12,1.02-1.78,1.38c-0.81,0.44-1.84,0.3-2.64-0.15c-0.8-0.45-1.42-1.17-1.97-1.91c-0.12-0.16-0.25-0.33-0.29-0.54
	c-0.12-0.54,0.42-1.05,0.98-1.11s1.09,0.2,1.58,0.44c-0.36-1.24-0.72-2.48-1.07-3.72c-0.07-0.24-0.13-0.51,0-0.72
	c0.14-0.23,0.46-0.29,0.63-0.5c0.38-0.46-0.18-1.09-0.68-1.41c-0.77-0.5-1.54-0.99-2.3-1.49c0.06-0.55,0.11-1.22,0.17-1.77
	c-0.64-0.37-0.77-1.25-0.63-1.98s0.45-1.43,0.43-2.17c-0.02-0.92-0.56-1.74-0.87-2.61c-0.6-1.73-0.22-3.69,0.7-5.27
	c0.92-1.58,2.35-2.81,3.88-3.8c-1.63-0.77-1.93-3.39-0.52-4.51c0.36-0.28,0.85-0.7,0.6-1.09c-0.07-0.1-0.17-0.16-0.28-0.22
	c-2.78-1.53-6.58-1.09-8.76-3.4c-0.97-1.03-1.42-2.43-2.19-3.61c-0.66-1.01-1.53-1.85-2.4-2.68c-1.38-1.32-2.76-2.64-4.14-3.96
	c-0.55-0.53-1.14-1.08-1.88-1.29c-1.43-0.41-3.01,0.55-4.41,0.06c-1.96-0.68-2.13-3.54-3.78-4.8c-1.31-1-3.42-0.88-4.31-2.26
	c-0.68-1.06-0.42-2.74-1.51-3.38c-1.03-2.93-2.38-5.32-3.95-8c-0.41-0.71-0.83-1.42-1.42-1.99c-1.9-1.82-5.27-1.86-6.58-4.14
	c-0.51-0.88-0.59-1.94-0.9-2.9c-0.2-0.62-0.49-1.21-0.6-1.84c-0.13-0.79,0.03-1.6,0.19-2.38c0.49-2.38,0.98-4.76,1.47-7.15
	c0.21-1.02,0.42-2.05,0.38-3.09c-0.11-2.59-1.98-5.01-4.45-5.77c-0.5-0.15-1.02-0.25-1.48-0.49c-1.42-0.75-1.8-2.56-2.13-4.13
	c-0.49-2.4-1.2-4.75-2.11-7.02c-1.12-2.78-2.09-5.54-4.01-7.84c-0.46-0.55-0.97-1.08-1.4-1.66c-0.63-0.87-1.08-1.85-1.57-2.81
	c-1.16-2.28-2.57-4.43-4.2-6.4c-0.51-0.61-1.06-1.23-1.8-1.53c-1.13-0.45-2.49-0.06-3.59-0.59c-1.14-0.54-1.68-1.91-2.74-2.59
	c-0.64-0.41-1.45-0.56-2.03-1.06c-0.49-0.42-0.75-1.04-1-1.64c-1.21-2.93-2.43-6.23-1.25-9.17c1.66,0.34,3.08-1.24,3.8-2.78
	c0.74-1.59,1.16-3.33,1.24-5.08c0.05-1.13-0.04-2.3,0.36-3.36c0.74-1.98,3-3.12,3.64-5.14c0.23-0.72,0.29-1.6,0.92-2.03
	c1.13-0.76,2.8,0.78,3.95,0.04c1-0.64,0.52-2.17-0.07-3.2c0.19-2.03-1.23-3.58-2.63-5.05c-0.31-0.32-0.62-0.64-0.92-0.97
	c-1.55-1.63-3.11-3.25-4.66-4.88c-1.14-1.19-2.29-2.39-3.68-3.27c-0.95-0.6-2.26-1.02-3.15-0.33c-0.84,0.65-0.86,1.92-1.48,2.78
	c-0.33,0.45-0.8,0.77-1.27,1.08c-0.78,0.51-1.84,1.01-2.56,0.42c-0.35-0.29-0.48-0.75-0.68-1.16c-0.68-1.45-2.16-2.31-3.56-3.09
	c-1.54-0.86-3.61-1.67-4.9-0.47c-0.61,0.57-0.95,1.54-1.76,1.72c-0.38,0.09-0.77-0.03-1.15-0.07c-1.33-0.14-2.69,0.69-3.19,1.93
	c1.44,0.53,2.6,1.78,3.01,3.26c-0.83,0.62-2.02,0.01-2.79-0.69c-0.77-0.7-1.64-1.56-2.67-1.4c-0.16,0.48-0.32,0.97-0.48,1.45
	c0.4,0.23,0.8,0.45,1.2,0.68c-1.47,0.99-3.59-0.13-5.2,0.62c-1,0.46-1.56,1.53-2.38,2.25s-2.38,0.94-2.83-0.06
	c-0.29-0.63,0.05-1.43-0.29-2.04c-0.66-1.17-2.5-0.16-3.78-0.57c-1.23-0.39-1.56-1.94-1.68-3.22c-0.24-2.42-0.44-5.03,0.78-7.13
	c-2.89-1.9-5.78-3.81-8.67-5.71c-1.21-0.79-2.47-1.61-3.91-1.76c-2.85-0.3-5.22,2.04-7.12,4.18c0.57,0.81,1.39,1.73,2.35,1.49
	c0.56-0.14,0.97-0.67,1.55-0.77c0.86-0.15,1.61,1,1.12,1.72c-0.52,0.77-1.67,0.6-2.6,0.64c-0.86,0.04-1.75,0.37-2.22,1.09
	c-0.47,0.72-0.34,1.84,0.42,2.25c0.27,0.14,0.59,0.2,0.79,0.43c0.46,0.55-0.23,1.32-0.85,1.67c-1.99,1.13-4.13,1.99-6.35,2.55
	c-1.74,0.44-3.23-0.12-4.38-1.5c-1.15-1.38-1.72-3.17-1.94-4.96c-2.19-0.16-4.45-0.27-6.26-1.52c-1.81-1.24-2.83-3.9-1.57-5.69
	c0.86-1.22,2.56-1.79,3.06-3.19c0.39-1.11-0.17-2.38-1.05-3.17s-2.03-1.18-3.15-1.57c-0.46-0.16-0.94-0.32-1.42-0.22
	c-0.29,0.06-0.56,0.21-0.86,0.18c-0.82-0.09-1.4-1.55-2.05-1.03c-0.5,1.72,2.98,2.49,2.71,4.26c-0.12,0.79-0.96,1.23-1.71,1.51
	c-2.85,1.05-5.93,1.49-8.96,1.27c-2.81-0.2-6.01-0.84-8.15,1c-0.21,0.19-0.42,0.39-0.67,0.52c-1.09,0.55-2.2-0.61-2.97-1.55
	c-0.81-0.98-1.76-1.87-2.87-2.5c-0.96-0.54-2.03-0.88-2.98-1.45s-1.81-1.44-1.96-2.53c-0.19-1.38,0.78-2.62,1.26-3.93
	c0.72-1.93,0.4-4.07,0.57-6.12c0.02-0.23,0.07-0.5,0.28-0.6c-0.03-0.77-0.13-1.81-0.35-2.55c-1.61-5.51-3.68-10.87-5.74-16.22
	c-0.49-1.27-0.98-2.53-1.47-3.8c-0.4-1.04-0.81-2.1-1.51-2.97c-0.65-0.81-1.52-1.41-2.38-2c-1.51-1.04-3.06-2.1-4.81-2.66
	c-1.48-0.47-3.04-0.57-4.59-0.66c-2.2-0.13-4.41-0.27-6.61-0.4c-0.26-0.02-0.54-0.02-0.75,0.13c-0.16,0.12-0.24,0.3-0.36,0.45
	c-0.53,0.68-1.58,0.56-2.42,0.37c-2.55-0.58-5.1-1.15-7.65-1.73c-0.84-0.19-1.75-0.37-2.53,0c-0.77,0.37-1.17,1.57-0.5,2.1
	c-0.5,0.25-1.1,0.29-1.62,0.09c-0.51,1.74-2.72,2.73-4.37,1.97c-0.16-0.07-0.35-0.15-0.49-0.04c-0.13,0.11,0.13,0.37,0.17,0.2
	c-2-1.63-4.8-1.63-7.13-0.52c-2.34,1.1-3.94,3.61-3.96,6.2c-0.01,1.28,0.34,2.54,0.39,3.82c0.05,1.25-0.16,2.58,0.39,3.71
	c0.55,1.13,1.73,1.79,2.55,2.73s1.13,2.65,0.04,3.29c-0.35,0.2-0.76,0.24-1.16,0.24c-1.79-0.02-3.55-0.89-4.65-2.3
	c-0.47-0.6-0.92-1.34-1.67-1.45c-0.69-0.1-1.31,0.41-1.81,0.89c-0.98,0.93-1.92,1.9-2.82,2.9c1.11,0.36,2.23,0.73,3.34,1.09
	c-1.14,0.5-1.92,1.72-1.89,2.97c0.01-0.66,1.04-0.83,1.52-0.38c0.49,0.45,0.59,1.16,0.77,1.8c0.47,1.66,1.61,3.02,2.73,4.33
	c1.16,1.36,2.32,2.73,3.47,4.09c0.48,0.57,1.12,1.19,1.85,1.04c0.85-0.18,1.12-1.26,1.75-1.86c1.37-1.3,4.15-0.11,5.23-1.65
	c0.35-0.5,0.39-1.15,0.58-1.73c0.42-1.28,1.74-2.25,3.08-2.13c1.34,0.11,2.51,1.41,2.38,2.75c-0.1,0.97-0.78,1.78-1.51,2.42
	c-1.86,1.63-4.28,2.6-6.75,2.73c-1.13,0.06-2.44,0.02-3.16,0.89c-0.71,0.85-0.54,2.29-1.45,2.93c-0.46,0.32-1.06,0.33-1.62,0.4
	c-2.47,0.33-4.58,2.46-4.88,4.93c-0.18,1.46,0.2,2.92,0.28,4.38c0.07,1.46-0.27,3.11-1.49,3.93c-1.77,1.19-4.12-0.03-5.89-1.23
	c-2.4-1.63-4.8-3.26-7.2-4.89c0.46-0.79,0.94-1.63,0.93-2.55c-0.01-0.92-0.71-1.9-1.62-1.85c-1.47,0.07-2.11,2.45-3.57,2.29
	c-0.48-0.05-0.87-0.39-1.17-0.76c-1.29-1.59-1.67-4.28-3.68-4.68c0.76-0.92,0.38-2.52-0.71-3c0.42-0.41,0.86-0.86,0.98-1.44
	c0.12-0.58-0.26-1.29-0.84-1.29c-0.25,0-0.49,0.13-0.69,0.28c-1.8,1.37-1.23,4.62-3.14,5.85c-1.59,1.02-3.64-0.12-5.17-1.23
	c0.64,1.21,1.27,2.41,1.91,3.62c0.1,0.19,0.2,0.38,0.21,0.6c0.01,0.3-0.17,0.57-0.35,0.8c-0.69,0.89-1.52,1.67-2.11,2.64
	c-0.59,0.96-0.89,2.2-0.41,3.22c-0.51,0.47-1.38,0.47-1.9,0.01c-1.02,2.37-0.15,5.4,1.98,6.86c1.65,1.13,2.19,3.48,3.14,5.23
	c0.26,0.47,0.51,0.98,0.47,1.51s-0.47,1.08-1.01,1.03c-0.68-0.92-0.25-2.81-1.39-2.91c-0.2-0.02-0.4,0.04-0.57,0.14
	c-0.95,0.54-0.91,2.01-0.24,2.88c0.67,0.86,1.73,1.31,2.68,1.85s1.9,1.32,2.04,2.41c0.23,1.78-1.82,3.44-1.17,5.11
	c0.47,1.21,2,1.49,3.16,2.07c1.86,0.94,3,3.14,2.7,5.2c-0.06,0.42-0.17,0.88,0.01,1.27c0.27,0.59,1.04,0.71,1.69,0.8
	c3.59,0.5,6.97,2.42,9.23,5.25c1.43,1.8,2.42,3.92,3.18,6.09c0.31,0.88,0.59,1.79,0.55,2.72c-0.13,2.56-2.69,4.86-1.86,7.28
	c0.43,1.23,1.69,2.17,1.66,3.47c-0.02,1.16-1.12,2.05-2.25,2.3s-2.3,0.06-3.46,0.01c-2-0.08-4.01,0.32-5.83,1.16
	c-2.66,1.22-5.24,3.41-8.11,2.85c-1.24-0.24-2.46-1-3.67-0.67c-1.09,0.3-1.76,1.37-2.49,2.23c-1.21,1.44-2.88,2.5-4.7,2.98
	c-0.52,0.14-1.08,0.24-1.51,0.58c-0.45,0.36-0.68,0.92-0.83,1.48c-0.38,1.44-0.3,3,0.22,4.4c0.51,1.38,1.43,2.97,0.6,4.18
	c-1.62,2.37-2.59,5.16-3.59,7.86c-0.23,0.62-0.45,1.27-0.87,1.78c-0.3,0.36-0.69,0.62-1.07,0.89c-1.42,0.98-2.84,1.97-4.27,2.95
	c-0.99,0.68-2.14,1.4-3.3,1.1c-1.02-0.26-1.73-1.23-2.73-1.52c-1.08-0.32-2.42,0.17-3.28-0.57c-0.28-0.24-0.46-0.59-0.75-0.83
	c-0.38-0.32-0.91-0.41-1.4-0.47c-3.61-0.4-7.35,0.36-10.51,2.16c-0.45,0.25-0.89,0.53-1.38,0.67c-0.52,0.15-1.08,0.14-1.61,0.26
	c-1.28,0.3-2.24,1.34-3.1,2.35c-0.8,0.94-1.61,1.96-1.78,3.18c-0.17,1.22,0.61,2.65,1.84,2.74c0.58,0.04,1.13-0.21,1.7-0.31
	s1.27,0.03,1.51,0.55c0.12,0.26,0.1,0.57,0.07,0.86c-0.18,2.05-0.57,4.42-2.38,5.41c-0.23,0.12-0.49,0.23-0.61,0.46
	c-0.21,0.36,0.02,0.82-0.06,1.22c-0.11,0.57-0.78,0.87-1.36,0.85c-0.58-0.02-1.14-0.24-1.72-0.29c-1.55-0.11-2.86,1.05-3.97,2.13
	c-1.14,1.11-2.53,1.77-4.06,2.24c-1.97,0.61-3.68,1.84-5.34,3.05c-1.5,1.09-2.99,2.18-4.49,3.26c-0.76,0.56-1.55,1.12-2.47,1.36
	c-1.19,0.3-2.44,0-3.67-0.08c-3.42-0.22-6.9,1.4-8.93,4.16c-0.54,0.73-1,1.56-1.74,2.08c-0.35,0.24-0.77,0.43-0.97,0.81
	c-0.15,0.29-0.14,0.64-0.11,0.97c0.53,7.41,3.5,14.62,8.33,20.27c0.64,0.75,1.39,1.51,2.36,1.64c1.38,0.18,2.53-0.95,3.71-1.7
	c2.92-1.88,6.69-1.57,10.15-1.19c1.76,0.2,3.55,0.4,5.21,1.01c0.81,0.3,1.6,0.7,2.46,0.77c1.92,0.15,3.61-1.36,5.53-1.53
	c0.91-0.08,1.82,0.16,2.68,0.46c2.2,0.77,4.24,1.98,5.97,3.54c0.65,0.59,1.26,1.22,1.96,1.74c0.67,0.49,1.41,0.85,2.15,1.21
	c3.51,1.7,7.24,3.35,9.64,6.41c0.56,0.71,1.04,1.5,1.74,2.07c0.53,0.44,1.18,0.74,1.7,1.19c1.54,1.32,1.91,3.8,3.71,4.73
	c0.54,1.36,0.96,2.74,1.07,4.2c0.11,1.46-0.27,3.04-1.35,4.03c-1.09,1.01-2.78,1.37-3.5,2.68c-0.33,0.61-0.4,1.36-0.83,1.9
	c-0.96,1.19-2.89,0.63-4.33,1.13c-1.69,0.59-2.46,2.63-2.32,4.41c0.14,1.78,0.97,3.43,1.53,5.12c0.38,1.16,0.47,2.76-0.64,3.27
	c-0.59,0.27-1.34,0.06-1.74-0.45c-0.4-0.51-0.44-1.25-0.14-1.82c0.1-0.19,0.23-0.37,0.26-0.58c0.07-0.48-0.59-0.87-0.98-0.58
	c-0.01-0.61-0.03-1.25-0.33-1.79c-0.29-0.54-0.94-0.93-1.52-0.74c-0.62,0.21-0.88,0.98-0.74,1.62c0.14,0.63,0.58,1.15,1.01,1.65
	c-0.62,0.75-1.79,0.61-2.75,0.45c-2.71-0.46-5.48-0.56-8.22-0.3c-1.18,0.11-2.48,0.36-3.19,1.31c-1.11,1.5-0.19,3.95-1.5,5.28
	c-1.66,0.37-3.23,0.91-4.89,1.27c-0.79,0.17-1.62,0.35-2.38,0.1c-0.72-0.23-1.27-0.8-1.93-1.18c-2.05-1.18-4.69-0.35-6.95-1.02
	c-3.44-1.03-5.65-5.4-9.23-5.11c-1.62,0.13-2.97,1.23-4.21,2.28c-1.03,0.87-2.06,1.75-3.09,2.62c-0.17,0.14-0.34,0.29-0.42,0.5
	c-0.26,0.66,0.55,1.2,1.21,1.45c4.44,1.7,8.84,3.52,13.18,5.47c0.88,0.39,1.77,0.8,2.53,1.39c1.12,0.87,1.92,2.12,2.24,3.5
	c0.06,0.28,0.11,0.58,0,0.84c-0.11,0.27-0.36,0.46-0.61,0.62c-1.68,1.05-3.72,1.28-5.64,1.73c-1.93,0.45-3.95,1.27-4.92,2.99
	c-0.41,0.73-0.72,1.68-1.53,1.89c-0.31,0.08-0.64,0.02-0.96-0.04c-2.4-0.46-4.77-1.12-7.07-1.96c-1.46-0.54-2.95-1.16-4.51-1.12
	c-1.56,0.04-3.23,0.96-3.55,2.49c-0.17,0.82,0.06,1.68,0.38,2.46c0.98,2.4,2.68,4.44,4.46,6.32c1.03,1.09,2.15,2.18,3.56,2.71
	c1.19,0.44,2.48,0.44,3.74,0.56c2.75,0.27,5.39,1.15,8.01,2.03c1.4,0.47,3.13,1.52,2.69,2.93c-0.51,1.67-3.21,1.17-4.44,2.42
	c-0.89,0.9-0.69,2.43-0.06,3.53c0.63,1.1,1.59,1.98,2.19,3.09c0.59,1.09,0.8,2.33,1.1,3.54c0.44,1.74,1.09,3.44,1.93,5.03
	c0.37,0.71,0.79,1.44,0.78,2.24c-0.01,0.97-0.66,1.88-0.51,2.83c0.28,1.75,3,2.46,2.95,4.23c-0.06,2.21-1,4.74,0.06,6.67
	c0.37,0.67,0.99,1.17,1.59,1.65c1.19,0.94,2.37,1.88,3.56,2.83c1.35,1.07,2.76,2.21,3.45,3.8c0.93,2.14,0.44,4.85,1.94,6.64
	c0.46,0.55,1.08,0.97,1.4,1.61c0.64,1.25-0.1,2.76,0.01,4.16c0.11,1.4,1.06,2.6,2.13,3.52s2.3,1.64,3.27,2.66
	c2.18,2.26,2.79,5.88,1.47,8.73c-0.6,1.31-1.6,2.69-1.11,4.04c0.38,1.06,1.54,1.61,2.26,2.48c0.88,1.07,1.05,2.54,1.11,3.92
	c0.18,4.12-0.32,8.27-1.47,12.23c-0.66,2.28-1.69,4.64-0.81,6.84c0.43,1.09,1.26,1.96,2.06,2.81c1.78,1.87,3.6,3.77,5.88,4.98
	c1.57,0.83,3.31,1.29,5.03,1.74c1.68,0.43,3.56,0.83,5.08-0.02c1.92-1.08,2.35-3.59,2.75-5.75c0.58-3.16,1.54-6.3,3.27-9.01
	c0.89-1.39,2.09-2.74,3.71-3.08c1.9-0.4,3.75,0.66,5.55,1.37c3.33,1.31,7.11,1.45,10.53,0.38c1.92-0.6,3.65-1.42,5.46-2.3
	c2.11-1.03,4.5-1.3,6.84-1.52c1.52-0.14,3.11-0.25,4.53,0.32c1.11,0.45,2.02,1.27,3.09,1.79c2.49,1.19,5.77,0.39,7.43-1.82
	c0.69-0.92,1.44-2.21,2.58-2.01c0.57,0.1,1,0.57,1.44,0.95c1.37,1.17,3.67,1.44,4.88,0.12c0.55-0.59,0.87-1.47,1.62-1.75
	c0.41-0.16,0.88-0.1,1.28-0.28c0.81-0.35,0.97-1.39,1.17-2.25c0.72-3.09,3.28-5.75,3.07-8.92c-0.08-1.3-0.64-2.53-0.71-3.82
	c-0.07-1.3,0.61-2.82,1.9-2.98"/>
<circle class="st1" cx="367.58" cy="254.62" r="241.74"/>
<g>
	<g>
		<path class="st2" d="M74.7,403.98c-0.99,1.32-1.9,2.53-2.81,3.74c0.05,0.21,0.1,0.41,0.15,0.62c1.16,0,2.34,0.16,3.46-0.05
			c3.09-0.57,4.24,0.01,4.57,3.17c0.32,3.04,0.11,6.12,0.33,9.17c0.22,3.11,0.62,6.22,1.06,9.31c0.34,2.4,1.33,3.18,3.77,3.31
			c2.41,0.13,4.82,0.25,7.22,0.44c0.53,0.04,1.14,0.29,1.54,0.64c0.79,0.68,1.46,1.5,2.18,2.26c-0.92,0.55-1.79,1.43-2.77,1.57
			c-1.82,0.26-3.71,0.09-5.64,0.1c0.04,0.39,0.17,0.77,0.11,1.12c-0.14,0.8-0.37,1.59-0.57,2.38c-0.67-0.2-1.35-0.42-2.02-0.61
			c-1.9-0.53-3.81-1.05-5.72-1.57c0.02,0.19,0.04,0.39,0.06,0.58c-0.9,0.25-1.92,0.9-2.69,0.68c-1.93-0.56-3.84-1.34-5.58-2.36
			c-1.14-0.67-2.02-0.91-3.28-0.44c-0.8,0.3-1.83,0.26-2.69,0.08c-1.21-0.26-2.37-0.77-3.54-1.2c-2.5-0.92-2.77-1.56-1.69-4.05
			c-0.91-1.11-1.84-1.07-2.82-0.07c-0.26,0.27-0.51,0.67-0.83,0.74c-0.8,0.17-1.72,0.43-2.42,0.18c-0.35-0.13-0.43-1.28-0.46-1.98
			c-0.02-0.53,0.23-1.07,0.43-1.85c-0.59,0.1-1.05,0.12-1.48,0.25c-1.32,0.4-2.38,0.04-3.06-1.14c-0.95-1.66-2.32-1.89-4.01-1.43
			c-1.6,0.44-2.56-0.22-2.98-1.87c-0.12-0.48-0.36-1.24-0.66-1.3c-2.85-0.58-3.82-2.55-3.88-5.33c-3.81,0.02-6.61-1.69-8.99-4.74
			c2.75-0.89,5.07-0.23,7.33,0.92c1.4,0.71,2.78,1.34,3.94-0.37c0.03-0.04,0.02-0.12,0.06-0.35c-0.34-0.21-0.72-0.54-1.15-0.67
			c-2.03-0.63-4.05-1.15-5.27-3.22c-0.3-0.51-1.53-0.85-2.19-0.69c-3.79,0.95-5.75-1.13-7.26-4.1c-0.25-0.5-0.52-0.99-0.94-1.79
			c0.86-0.21,1.59-0.48,2.33-0.55c1.24-0.13,2.5-0.11,3.75-0.19c1.16-0.08,2.05-0.73,1.83-1.86c-0.08-0.44-1.34-0.94-2.05-0.93
			c-1.23,0.02-2.45,0.42-3.68,0.67c-0.43,0.09-0.86,0.32-1.27,0.29c-0.99-0.08-1.96-0.28-2.94-0.43c0.5-1.07,0.72-2.56,1.56-3.1
			c1.46-0.94,1.66-1.86,0.69-3c-1.71-2.01-2.51-4.02-0.36-6.43c-0.21-0.05-0.43-0.1-0.64-0.15c-0.72,1.08-1.37,2.23-2.2,3.23
			c-0.5,0.6-1.49,1.5-1.86,1.34c-0.7-0.3-1.56-1.28-1.55-1.97c0.06-2.55,0.44-5.1,0.72-7.76c-0.11,0-0.73,0.01-1.34-0.07
			c-2.13-0.25-2.87-1.41-2.39-3.48c0.14-0.62,0.21-1.42-0.07-1.94c-1.72-3.21-1.61-6.6-1.3-10.07c0.13-1.46-0.03-2.98-0.33-4.42
			c-0.46-2.24,0.09-3.31,2.31-3.86c3.65-0.91,3.6-0.92,4.18-4.66c0.18-1.15,0.63-2.28,1.1-3.36c0.56-1.29,0.16-2.03-1.1-2.44
			c-0.3-0.1-0.59-0.24-0.89-0.26c-2.51-0.15-4.99-0.39-7.13-2.33c0.08,1.02,0.24,2.04,0.2,3.05c-0.02,0.63-0.21,1.67-0.57,1.79
			c-0.58,0.19-1.48-0.04-2.04-0.41c-2.82-1.84-2.35-5.83,0.89-7.91c0.84-0.54,1.75-0.97,2.62-1.47c1-0.58,1.18-1.13,0.12-1.95
			c-0.64-0.5-1.02-1.35-1.51-2.05c0.83-0.55,1.61-1.46,2.5-1.57c1.45-0.19,1.79-0.71,1.55-2.05c-0.15-0.85-0.12-1.76,0-2.61
			c0.27-1.98,0.03-3.64-1.68-5.04c-0.62-0.51-1.07-1.86-0.87-2.62c0.8-2.93,1.89-5.77,2.93-8.78c2.42,1.09,3.69,2.93,4.27,5.23
			c0.72,2.85,1.26,5.73,1.89,8.6c0.16,0.72,0.36,1.43,0.55,2.17c1.83-0.93,2.49-3.06,1.3-4.53c-1.28-1.57-1.07-3.03-0.4-4.71
			c0.38-0.96,0.42-2.06,0.61-3.09c0.33-1.81,0.69-3.62,0.98-5.44c0.12-0.77,0.34-1.69,0.05-2.33c-0.84-1.86-0.73-3.66-0.08-5.47
			c0.72-2.03,0.82-3.99-0.12-6.01c-0.59-1.27-0.51-2.56,0.54-3.66c1.16-1.22,0.83-2.41-0.2-3.47c-0.94-0.95-1.17-1.92-0.81-3.23
			c0.17-0.64-0.06-1.79-0.52-2.1c-0.5-0.34-1.69-0.26-2.2,0.13c-0.64,0.49-1.42,1.68-1.22,2.22c0.63,1.66,0.09,2.19-1.42,2.7
			c-1.68,0.56-1.25,1.97-0.45,2.88c1.12,1.27,0.89,2.18-0.22,3.17c-0.92,0.83-0.51,1.64,0,2.51c1.43,2.41,1.19,5.89-0.53,8.05
			c-0.85,1.06-3.75,1.13-5.44,0.09c-1.54-0.94-1.44-2.32-0.64-3.58c1.48-2.34,1.26-4.54,0.09-6.91c-0.33-0.66-0.04-1.64,0-2.47
			c0.04-0.71,0.05-1.45,0.21-2.14c0.2-0.83,0.32-1.88,0.88-2.36c1.26-1.09,1.54-2.04,0.4-3.31c-1.92-2.17-2.51-4.72-2.03-7.52
			c0.45-2.63,0.54-5.17-0.65-7.7c-0.81-1.72-0.16-3.35,1.32-4.5c1.44-1.13,2.01-2.55,1.67-4.29c-0.47-2.38-1.04-4.73-1.61-7.09
			c-0.63-2.65-1.22-5.31-2-7.92c-0.36-1.2-1-2.4-1.77-3.39c-0.93-1.2-1.56-2.32-1.24-3.93c0.15-0.73-0.14-1.58-0.35-2.35
			c-0.45-1.64-0.08-2.24,1.6-2.41c2.34-0.24,2.67-0.7,2.9-3.03c0.14-1.47,0.45-2.96,0.94-4.34c0.73-2.07,1.71-4.07,0.76-6.32
			c-0.02-0.06-0.05-0.14-0.02-0.18c1.74-3.29,0.41-7.53,3.34-10.52c0.73-0.74,0.77-2.12,1.21-3.18c1.33-3.18,0.92-6.58,1.37-9.87
			c0.19-1.4,1.25-2.69,1.97-4c0.75-1.37,0.85-2.69-0.02-4.07c-0.95-1.5-0.97-3.05-0.09-4.62c1.64-2.92,1.63-5.91,0.62-9.06
			c-0.66-2.06-0.9-4.26-1.47-6.36c-0.3-1.12-0.83-2.21-1.39-3.24c-1.67-3.07-2.77-6.28-2.89-9.8c-0.05-1.49,0.5-2.57,1.76-3.49
			c0.79-0.57,1.63-1.6,1.73-2.49c0.29-2.86,0.31-5.76-1.27-8.37c-0.52-0.86-1.03-1.72-1.5-2.6c-0.98-1.84-1.01-3.57,0.64-5.11
			c1.42-1.33,1.84-3.01,1.23-4.81c-0.9-2.62-0.4-4.93,1.18-7.08c1.09-1.48,1.47-2.97,0.51-4.7c-0.66-1.19-0.38-2.22,0.65-3.19
			c0.5-0.47,0.95-1.26,0.98-1.92c0.21-3.97,1.04-7.98-0.46-11.89c-0.66-1.73-0.06-3.23,0.97-4.56c1.57-2.02,1.51-4.06,0.67-6.36
			c-0.53-1.44-0.77-3.01-0.9-4.55c-0.21-2.36-0.28-4.74-0.26-7.11c0.01-0.89,0.25-1.89,0.71-2.64c0.91-1.51,0.63-2.58-0.77-3.5
			c-0.26-0.17-0.52-0.36-0.74-0.58c-1.52-1.55-1.07-3.53,0.96-4.29c2.4-0.9,2.41-1,1.6-3.36c-1.2-3.48-0.29-6.96,0.4-10.35
			c0.63-3.12,0.73-6.03-0.78-8.92c-1.4-2.68-1.9-5.59-1.27-8.57c0.98-4.63-0.61-8.7-2.31-12.87c-1.19-2.91-1.8-6.07-2.6-9.13
			c-0.18-0.69-0.07-1.46-0.1-2.17c1.53-0.23,2.91-0.31,4.21-0.67c2.77-0.76,3.88-3.07,2.74-5.68c-0.6-1.38-0.3-2.3,0.99-2.93
			c1.6-0.77,3.76-0.51,4.18,0.69c0.57,1.64,1.66,2.6,3.17,3.17c1.67,0.62,1.45,2.1,1.74,3.4c0.63,2.84,1.18,5.74,2.17,8.46
			c0.37,1.03,1.74,1.92,2.86,2.4c4.91,2.12,4.97,2.16,2.17,6.76c-0.13,0.21-0.24,0.43-0.4,0.71c0.76,0.57,1.52,1.13,2.39,1.78
			c-0.93,1.03-1.98,1.78-2.42,2.79c-0.41,0.93-0.17,2.15-0.23,3.46c0.4,0.11,0.91,0.27,1.43,0.4c1.24,0.3,1.79,0.96,0.99,2.15
			c-0.95,1.43-0.08,1.97,1.04,2.55c0.92,0.47,2.2,0.9,2.55,1.69c1.32,3,2.34,6.14,3.44,9.23c0.14,0.4,0.06,0.88,0.18,1.29
			c0.79,2.61,1.6,5.22,2.42,7.82c0.59,1.87,2.26,2.6,4.75,2.21c1.41-0.22,2.84-0.41,4.26-0.39c1.27,0.02,1.94,0.85,1.7,2.16
			c-0.57,3.07-1.13,6.14-1.83,9.18c-0.46,2.04-1.94,3.33-3.79,4.15c-1.48,0.66-3.15,0.98-4.51,1.82c-1.71,1.05-3.33,2.35-4.72,3.81
			c-0.5,0.53-0.56,1.97-0.21,2.7c0.71,1.52,0.71,2.9-0.05,4.29c-1.25,2.3-0.95,4.39,0.51,6.5c1.24,1.79,1.71,3.81,0.64,5.85
			c-1.24,2.36-0.68,4.31,1.02,6.15c0.49,0.53,0.85,1.2,1.44,2.06c-1.16,0.48-2.08,0.94-3.06,1.26c-2.1,0.68-3.37,2.12-3.88,4.21
			c-1,4.1-2.8,7.75-5.81,10.75c-1.5,1.49-1.65,3.33-1.3,5.23c0.35,1.94-0.05,3.57-1.48,4.97c-1.38,1.35-1.48,2.81-0.64,4.6
			c0.62,1.31,0.7,2.86,1.05,4.3c0.12,0.5,0.19,1.16,0.53,1.42c1.38,1.06,1.04,2.21,0.17,3.24c-0.67,0.79-1.53,1.66-2.46,1.93
			c-1.48,0.42-1.63,1.32-1.51,2.5c0.26,2.74-0.08,5.29-1.58,7.74c-0.89,1.45-0.04,3.01,1.19,3.96c1.56,1.2,1.99,2.73,2.17,4.55
			c0.1,0.98,0.62,1.93,1.01,2.87c1.22,2.91,2.46,5.81,3.71,8.7c0.25,0.58,0.48,1.41,0.94,1.61c1.5,0.66,1.64,1.88,1.76,3.23
			c0.21,2.41,0.6,4.81,0.7,7.22c0.04,0.96-0.2,2.52-0.8,2.81c-2.33,1.13-2.42,3.32-3.03,5.29c-0.15,0.47-0.11,1.09-0.41,1.42
			c-2.55,2.83-1.26,5.76-0.35,8.73c1.48,4.85,0.89,6.58-3.11,9.73c-2.63,2.07-3.07,3.37-2.08,6.49c0.38,1.19,1.07,2.34-0.44,3.31
			c-0.22,0.14-0.13,0.92-0.03,1.36c0.15,0.66,0.7,1.33,0.63,1.94c-0.59,4.72,2.66,7.95,4.5,11.71c0.6,1.23,0.72,2.15-0.49,2.87
			c-0.85,0.51-1.79,0.87-2.71,1.22c-1.72,0.65-2.34,1.7-1.56,3.33c0.88,1.83,0.68,3.43-0.19,5.18c-1.23,2.5-0.98,5.13-0.61,7.82
			c0.22,1.57,0.07,3.25-0.24,4.81c-0.93,4.61-0.08,8.8,2.67,12.6c1.23,1.7,1,3.55-0.68,4.96c-2.01,1.69-2.87,5.28-1.69,7.57
			c0.28,0.54,0.94,0.97,1.52,1.25c1.54,0.75,2.41,1.79,2.46,3.63c0.02,0.77,0.79,1.52,1.19,2.29c0.4,0.77,1.07,1.55,1.09,2.35
			c0.07,2.23-0.14,4.46-0.24,6.86c1.18,0.05,2.25-0.01,3.28,0.18c0.9,0.17,1.94,0.41,2.56,1c0.59,0.56,1.02,1.63,0.95,2.43
			c-0.05,0.55-1,1.28-1.68,1.46c-1.31,0.35-2.72,0.32-4.07,0.56c-0.73,0.13-1.42,0.5-2.12,0.76c0.02,0.19,0.04,0.38,0.06,0.57
			c0.63,0.11,1.26,0.18,1.88,0.32c1.02,0.24,2.12,0.35,3.04,0.8c2.73,1.33,3.03,3.73,0.64,5.6c-1.35,1.05-1.92,2.01-0.87,3.55
			c0.2,0.29,0.36,0.75,0.28,1.07c-0.72,2.97,1.31,5.33,1.68,8.03c0.11,0.8-0.34,2-0.95,2.49c-0.85,0.68-0.9,1.19-0.79,2.18
			c0.11,0.98-0.14,2.1-0.55,3.02c-0.9,2.05-2.05,3.98-2.98,6.02c-0.18,0.38,0.05,1.09,0.31,1.51c1.79,2.85,1.87,5.96,1.15,9.05
			c-0.31,1.31-1.37,2.44-2.07,3.66c-0.79,1.38-1.85,2.69-2.28,4.17c-1.37,4.76-0.27,9.43,1.07,14.02c0.43,1.48,1.57,1.9,2.97,1.26
			c0.85-0.38,1.61-0.96,2.46-1.36c1.5-0.71,2.8-0.18,3.98,0.8c1.01,0.84,1.04,1.79,0.93,3.13c-0.15,1.96,0.06,4.15,0.84,5.92
			c1.5,3.39,3.83,4.3,7.6,4c4.04-0.33,8.09-0.69,12.13-0.65C69.45,402.74,71.95,403.5,74.7,403.98z"/>
	</g>
</g>
<g>
	<defs>
		<path id="SVGID_1_" d="M8.29,268.15c7.83,1.65,15.85,2.41,23.85,2.26c0.54-0.01,1.13,0,1.53,0.35c0.38,0.33,0.48,0.88,0.56,1.38
			c1.8,11.63,3.59,23.26,5.39,34.89c-8.69,4-18.56,4.36-28.12,4.28c-0.8-0.01-1.64-0.03-2.32-0.44c-0.84-0.51-1.24-1.49-1.55-2.41
			C5.96,303.3,5.97,297.77,6,292.35c0.04-7.61,0.07-15.23,0.11-22.84c1.18,0.7,2.52,1.14,3.89,1.28c-1.56-0.15-3.05-0.98-3.99-2.24"
			/>
	</defs>
	<clipPath id="SVGID_00000112603976436651532000000015981229888531044496_">
		<use xlink:href="#SVGID_1_"  style="overflow:visible;"/>
	</clipPath>
	<g style="clip-path:url(#SVGID_00000112603976436651532000000015981229888531044496_);">
		<path class="st4" d="M74.13,402.86c-0.98,1.3-1.88,2.5-2.78,3.7c0.05,0.21,0.1,0.41,0.15,0.62c1.15,0,2.32,0.16,3.43-0.05
			c3.06-0.57,4.2,0.01,4.52,3.14c0.32,3.01,0.11,6.07,0.32,9.09c0.22,3.09,0.61,6.16,1.05,9.23c0.34,2.38,1.32,3.15,3.73,3.28
			c2.39,0.13,4.78,0.24,7.16,0.44c0.53,0.04,1.13,0.29,1.53,0.63c0.78,0.68,1.45,1.49,2.16,2.24c-0.91,0.54-1.78,1.42-2.75,1.56
			c-1.81,0.26-3.67,0.09-5.59,0.1c0.04,0.39,0.16,0.76,0.1,1.11c-0.14,0.79-0.37,1.57-0.56,2.35c-0.67-0.2-1.33-0.41-2.01-0.6
			c-1.89-0.52-3.78-1.04-5.67-1.55c0.02,0.19,0.04,0.38,0.05,0.57c-0.89,0.25-1.9,0.9-2.66,0.68c-1.91-0.55-3.81-1.33-5.53-2.34
			c-1.13-0.66-2-0.9-3.25-0.44c-0.8,0.3-1.81,0.26-2.67,0.08c-1.2-0.25-2.35-0.77-3.51-1.19c-2.48-0.91-2.74-1.54-1.68-4.01
			c-0.9-1.1-1.83-1.06-2.8-0.07c-0.26,0.26-0.51,0.66-0.82,0.73c-0.79,0.17-1.7,0.43-2.4,0.18c-0.35-0.12-0.43-1.27-0.45-1.96
			c-0.02-0.53,0.23-1.06,0.42-1.84c-0.59,0.1-1.04,0.12-1.46,0.25c-1.31,0.39-2.36,0.04-3.03-1.13c-0.94-1.65-2.29-1.88-3.97-1.42
			c-1.58,0.43-2.53-0.22-2.95-1.85c-0.12-0.47-0.36-1.23-0.66-1.29c-2.83-0.57-3.78-2.52-3.84-5.28c-3.77,0.02-6.55-1.68-8.9-4.7
			c2.73-0.88,5.03-0.23,7.26,0.91c1.39,0.71,2.75,1.32,3.91-0.36c0.03-0.04,0.02-0.12,0.06-0.35c-0.34-0.2-0.71-0.53-1.14-0.67
			c-2.01-0.63-4.01-1.14-5.23-3.19c-0.3-0.5-1.52-0.85-2.17-0.68c-3.76,0.94-5.69-1.12-7.19-4.06c-0.25-0.5-0.52-0.98-0.93-1.77
			c0.85-0.21,1.57-0.47,2.31-0.55c1.23-0.12,2.48-0.11,3.71-0.19c1.15-0.08,2.03-0.72,1.81-1.85c-0.08-0.44-1.33-0.93-2.03-0.92
			c-1.22,0.02-2.43,0.41-3.64,0.66c-0.42,0.09-0.85,0.32-1.26,0.28c-0.98-0.08-1.95-0.28-2.92-0.43c0.49-1.06,0.71-2.54,1.54-3.07
			c1.45-0.93,1.65-1.84,0.69-2.97c-1.7-1.99-2.48-3.98-0.36-6.37c-0.21-0.05-0.42-0.1-0.63-0.14c-0.72,1.07-1.36,2.21-2.18,3.2
			c-0.49,0.59-1.48,1.48-1.85,1.32c-0.69-0.3-1.55-1.27-1.53-1.95c0.06-2.53,0.44-5.05,0.71-7.69c-0.11,0-0.73,0.01-1.33-0.07
			c-2.11-0.25-2.85-1.39-2.36-3.45c0.14-0.61,0.21-1.41-0.07-1.92c-1.71-3.18-1.59-6.54-1.29-9.98c0.13-1.44-0.03-2.96-0.33-4.38
			c-0.45-2.22,0.09-3.28,2.29-3.83c3.62-0.9,3.57-0.91,4.14-4.61c0.18-1.14,0.62-2.26,1.09-3.33c0.55-1.28,0.15-2.01-1.09-2.42
			c-0.29-0.1-0.59-0.24-0.89-0.26c-2.49-0.15-4.95-0.38-7.07-2.3c0.08,1.01,0.24,2.02,0.2,3.03c-0.02,0.63-0.21,1.66-0.56,1.77
			c-0.58,0.19-1.47-0.04-2.02-0.41c-2.79-1.83-2.33-5.77,0.89-7.84c0.83-0.53,1.73-0.96,2.59-1.46c0.99-0.58,1.17-1.12,0.12-1.94
			c-0.64-0.5-1.01-1.34-1.5-2.03c0.82-0.55,1.6-1.44,2.48-1.56c1.43-0.19,1.77-0.7,1.54-2.03c-0.15-0.84-0.12-1.74,0-2.59
			c0.27-1.96,0.03-3.61-1.66-5c-0.61-0.5-1.07-1.84-0.86-2.6c0.79-2.9,1.88-5.72,2.9-8.7c2.39,1.08,3.66,2.9,4.23,5.19
			c0.71,2.82,1.25,5.68,1.88,8.52c0.16,0.71,0.36,1.41,0.55,2.15c1.81-0.92,2.47-3.03,1.28-4.49c-1.27-1.56-1.06-3-0.4-4.67
			c0.38-0.95,0.42-2.04,0.61-3.06c0.33-1.8,0.69-3.59,0.97-5.39c0.12-0.76,0.34-1.67,0.05-2.31c-0.83-1.84-0.72-3.62-0.08-5.42
			c0.72-2.01,0.82-3.96-0.12-5.95c-0.59-1.26-0.5-2.53,0.53-3.62c1.15-1.2,0.82-2.39-0.2-3.43c-0.93-0.94-1.16-1.9-0.8-3.2
			c0.17-0.64-0.06-1.77-0.52-2.08c-0.5-0.34-1.67-0.26-2.18,0.13c-0.63,0.48-1.41,1.67-1.21,2.2c0.63,1.64,0.09,2.17-1.4,2.68
			c-1.66,0.56-1.24,1.95-0.44,2.86c1.11,1.26,0.88,2.16-0.22,3.14c-0.92,0.82-0.51,1.63,0,2.48c1.42,2.39,1.18,5.84-0.52,7.97
			c-0.84,1.05-3.71,1.12-5.39,0.09c-1.52-0.93-1.42-2.3-0.63-3.55c1.47-2.32,1.25-4.5,0.08-6.85c-0.32-0.66-0.04-1.62,0-2.45
			c0.04-0.71,0.05-1.43,0.21-2.12c0.2-0.82,0.31-1.86,0.87-2.34c1.25-1.08,1.53-2.02,0.4-3.28c-1.91-2.15-2.48-4.68-2.01-7.45
			c0.44-2.61,0.53-5.12-0.65-7.63c-0.8-1.71-0.16-3.32,1.3-4.46c1.43-1.12,2-2.53,1.65-4.25c-0.47-2.35-1.03-4.69-1.59-7.03
			c-0.63-2.62-1.21-5.26-1.99-7.84c-0.36-1.19-0.99-2.37-1.75-3.36c-0.92-1.19-1.55-2.3-1.23-3.89c0.15-0.72-0.14-1.57-0.35-2.32
			c-0.45-1.62-0.08-2.22,1.59-2.39c2.32-0.24,2.65-0.69,2.87-3c0.14-1.45,0.45-2.93,0.93-4.3c0.72-2.06,1.7-4.03,0.75-6.26
			c-0.02-0.06-0.05-0.14-0.02-0.18c1.72-3.26,0.41-7.46,3.31-10.42c0.72-0.73,0.76-2.1,1.2-3.15c1.32-3.15,0.92-6.52,1.36-9.78
			c0.19-1.38,1.24-2.66,1.95-3.96c0.74-1.36,0.85-2.67-0.02-4.03c-0.94-1.49-0.96-3.02-0.09-4.57c1.63-2.89,1.62-5.86,0.62-8.98
			c-0.66-2.05-0.89-4.22-1.45-6.3c-0.3-1.11-0.82-2.19-1.38-3.21c-1.65-3.04-2.74-6.22-2.87-9.71c-0.05-1.48,0.5-2.55,1.75-3.46
			c0.78-0.57,1.62-1.58,1.71-2.47c0.29-2.83,0.31-5.7-1.26-8.29c-0.51-0.85-1.02-1.7-1.49-2.58c-0.97-1.83-1-3.54,0.63-5.07
			c1.4-1.32,1.83-2.99,1.22-4.77c-0.89-2.59-0.4-4.89,1.17-7.02c1.08-1.47,1.46-2.95,0.51-4.65c-0.66-1.18-0.37-2.2,0.65-3.16
			c0.5-0.47,0.94-1.25,0.97-1.91c0.21-3.94,1.03-7.91-0.46-11.78c-0.66-1.71-0.06-3.2,0.96-4.51c1.56-2,1.5-4.03,0.66-6.3
			c-0.52-1.42-0.76-2.99-0.89-4.51c-0.2-2.34-0.28-4.7-0.26-7.04c0.01-0.88,0.25-1.87,0.7-2.62c0.91-1.49,0.62-2.55-0.76-3.46
			c-0.26-0.17-0.51-0.36-0.73-0.58c-1.51-1.53-1.06-3.5,0.95-4.25c2.38-0.89,2.39-0.99,1.58-3.33c-1.19-3.45-0.28-6.9,0.4-10.26
			c0.63-3.09,0.72-5.97-0.77-8.84c-1.38-2.66-1.88-5.54-1.26-8.49c0.97-4.59-0.6-8.62-2.29-12.75c-1.18-2.89-1.78-6.01-2.57-9.05
			c-0.18-0.68-0.07-1.44-0.1-2.15c1.51-0.23,2.88-0.31,4.17-0.66c2.74-0.76,3.84-3.04,2.71-5.63c-0.6-1.37-0.3-2.28,0.98-2.9
			c1.59-0.77,3.73-0.5,4.14,0.68c0.57,1.62,1.64,2.58,3.14,3.14c1.65,0.62,1.43,2.08,1.72,3.37c0.63,2.82,1.17,5.68,2.15,8.38
			c0.37,1.02,1.73,1.9,2.84,2.38c4.87,2.1,4.93,2.14,2.15,6.7c-0.13,0.21-0.24,0.43-0.4,0.71c0.75,0.56,1.5,1.12,2.36,1.77
			c-0.93,1.02-1.96,1.77-2.4,2.77c-0.41,0.93-0.17,2.13-0.23,3.43c0.4,0.11,0.9,0.27,1.42,0.39c1.23,0.3,1.77,0.95,0.98,2.13
			c-0.95,1.41-0.08,1.95,1.03,2.52c0.91,0.47,2.18,0.89,2.52,1.68c1.31,2.97,2.31,6.08,3.41,9.15c0.14,0.4,0.06,0.87,0.18,1.27
			c0.78,2.59,1.58,5.17,2.4,7.75c0.58,1.85,2.23,2.57,4.71,2.19c1.39-0.21,2.81-0.41,4.22-0.39c1.26,0.02,1.92,0.84,1.68,2.14
			c-0.57,3.04-1.12,6.09-1.81,9.1c-0.46,2.02-1.92,3.3-3.75,4.11c-1.47,0.65-3.12,0.97-4.47,1.8c-1.7,1.04-3.3,2.33-4.67,3.77
			c-0.5,0.52-0.55,1.95-0.21,2.68c0.71,1.51,0.7,2.87-0.05,4.25c-1.24,2.28-0.94,4.35,0.51,6.44c1.23,1.78,1.69,3.78,0.63,5.8
			c-1.23,2.34-0.67,4.27,1.01,6.09c0.49,0.53,0.84,1.19,1.43,2.04c-1.15,0.48-2.06,0.93-3.03,1.25c-2.08,0.68-3.34,2.1-3.84,4.17
			c-0.99,4.06-2.78,7.68-5.75,10.65c-1.48,1.48-1.63,3.3-1.29,5.18c0.35,1.93-0.05,3.54-1.46,4.92c-1.37,1.34-1.47,2.78-0.63,4.56
			c0.61,1.3,0.7,2.83,1.04,4.26c0.12,0.49,0.19,1.15,0.52,1.41c1.37,1.05,1.03,2.19,0.17,3.21c-0.66,0.78-1.51,1.64-2.44,1.91
			c-1.46,0.42-1.61,1.3-1.5,2.48c0.26,2.72-0.08,5.24-1.57,7.67c-0.89,1.44-0.04,2.99,1.18,3.93c1.54,1.19,1.97,2.7,2.15,4.51
			c0.1,0.97,0.61,1.91,1,2.84c1.21,2.88,2.43,5.76,3.68,8.62c0.25,0.57,0.48,1.4,0.93,1.6c1.49,0.65,1.62,1.86,1.74,3.2
			c0.21,2.39,0.59,4.76,0.69,7.15c0.04,0.95-0.2,2.5-0.79,2.79c-2.31,1.12-2.4,3.29-3,5.24c-0.15,0.47-0.11,1.08-0.4,1.4
			c-2.52,2.81-1.25,5.7-0.35,8.65c1.47,4.81,0.88,6.52-3.08,9.64c-2.61,2.05-3.04,3.34-2.06,6.43c0.37,1.18,1.06,2.32-0.44,3.28
			c-0.22,0.14-0.13,0.91-0.03,1.35c0.15,0.66,0.7,1.32,0.62,1.92c-0.58,4.68,2.64,7.88,4.46,11.6c0.6,1.22,0.71,2.13-0.49,2.85
			c-0.84,0.5-1.77,0.86-2.69,1.21c-1.7,0.65-2.32,1.68-1.54,3.3c0.87,1.81,0.67,3.4-0.19,5.13c-1.22,2.47-0.97,5.09-0.6,7.75
			c0.22,1.55,0.07,3.22-0.24,4.76c-0.92,4.57-0.08,8.72,2.64,12.48c1.22,1.69,1,3.51-0.67,4.91c-2,1.68-2.85,5.23-1.68,7.5
			c0.27,0.54,0.93,0.96,1.5,1.24c1.53,0.74,2.39,1.77,2.44,3.59c0.02,0.77,0.78,1.51,1.18,2.27c0.4,0.77,1.06,1.54,1.08,2.32
			c0.07,2.2-0.14,4.42-0.24,6.8c1.17,0.05,2.23-0.01,3.25,0.17c0.89,0.16,1.92,0.41,2.53,0.99c0.59,0.55,1.01,1.62,0.94,2.41
			c-0.05,0.55-0.99,1.27-1.66,1.45c-1.3,0.35-2.69,0.32-4.03,0.56c-0.72,0.13-1.4,0.5-2.1,0.76c0.02,0.19,0.04,0.38,0.06,0.57
			c0.62,0.11,1.25,0.18,1.86,0.32c1.01,0.23,2.1,0.35,3.01,0.8c2.71,1.32,3,3.7,0.63,5.55c-1.34,1.04-1.9,1.99-0.86,3.52
			c0.2,0.29,0.36,0.74,0.28,1.06c-0.72,2.94,1.29,5.28,1.67,7.96c0.11,0.79-0.33,1.98-0.94,2.47c-0.85,0.67-0.89,1.18-0.78,2.16
			c0.11,0.97-0.14,2.08-0.54,2.99c-0.89,2.03-2.03,3.95-2.95,5.96c-0.17,0.38,0.05,1.08,0.31,1.5c1.78,2.82,1.86,5.9,1.14,8.97
			c-0.3,1.3-1.36,2.42-2.05,3.63c-0.78,1.37-1.84,2.66-2.26,4.14c-1.36,4.72-0.27,9.34,1.06,13.89c0.43,1.46,1.56,1.88,2.95,1.25
			c0.84-0.38,1.6-0.95,2.43-1.35c1.49-0.7,2.77-0.18,3.94,0.79c1,0.83,1.03,1.78,0.92,3.11c-0.15,1.94,0.06,4.11,0.84,5.87
			c1.49,3.36,3.8,4.26,7.53,3.96c4-0.32,8.02-0.69,12.02-0.64C68.92,401.64,71.4,402.39,74.13,402.86z"/>
	</g>
</g>
<polyline class="st1" points="125.83,238.31 22.81,281.91 134.51,319.03 "/>
</svg>
