<?xml version="1.0" encoding="utf-8"?>
<!-- Generator: Adobe Illustrator 25.4.1, SVG Export Plug-In . SVG Version: 6.00 Build 0)  -->
<svg version="1.1" id="Capa_1" xmlns="http://www.w3.org/2000/svg" xmlns:xlink="http://www.w3.org/1999/xlink" x="0px" y="0px"
	 viewBox="0 0 70 70" style="enable-background:new 0 0 70 70;" xml:space="preserve">
<style type="text/css">
	.st0{display:none;}
	.st1{display:inline;fill:#F4C81D;stroke:#F4C81D;stroke-width:2;stroke-miterlimit:10;}
	.st2{display:inline;}
	.st3{fill:none;stroke:#000000;stroke-width:0.75;stroke-miterlimit:10;}
	.st4{display:inline;fill:none;stroke:#000000;stroke-width:0.75;stroke-miterlimit:10;}
	.st5{fill:none;stroke:#F4C81D;stroke-width:2;stroke-miterlimit:10;}
</style>
<g class="st0">
	<circle class="st1" cx="35" cy="35" r="33.16"/>
	<g class="st2">
		<path class="st3" d="M37.97,49c-0.87,1.75-3.36,1.75-4.23,0c-2.14-4.3-5.38-10.83-7.2-14.56c-2.45-5-0.66-11.31,4.16-13.62
			c6.56-3.15,15.52-0.34,15.59,9.54c0.01,1.28-0.34,2.54-0.9,3.69C43.49,37.92,40.16,44.63,37.97,49z"/>
	</g>
	<circle class="st4" cx="35.87" cy="30.45" r="4.27"/>
</g>
<g>
	<g>
		<path class="st3" d="M37.97,49c-0.87,1.75-3.36,1.75-4.23,0c-2.14-4.3-5.38-10.83-7.2-14.56c-2.45-5-0.66-11.31,4.16-13.62
			c6.56-3.15,15.52-0.34,15.59,9.54c0.01,1.28-0.34,2.54-0.9,3.69C43.49,37.92,40.16,44.63,37.97,49z"/>
	</g>
	<circle class="st3" cx="35.87" cy="30.45" r="4.27"/>
	<circle class="st5" cx="35" cy="35" r="33.16"/>
</g>
</svg>
