<?xml version="1.0" encoding="utf-8"?>
<!-- Generator: Adobe Illustrator 25.4.1, SVG Export Plug-In . SVG Version: 6.00 Build 0)  -->
<svg version="1.1" xmlns="http://www.w3.org/2000/svg" xmlns:xlink="http://www.w3.org/1999/xlink" x="0px" y="0px"
	 viewBox="0 0 70 70" style="enable-background:new 0 0 70 70;" xml:space="preserve">
<style type="text/css">
	.st0{display:none;}
	.st1{display:inline;}
	.st2{fill:#F4C81D;stroke:#F4C81D;stroke-width:2;stroke-miterlimit:10;}
	.st3{fill:none;stroke:#000000;stroke-width:0.75;stroke-miterlimit:10;}
	.st4{fill:none;stroke:#F4C81D;stroke-width:2;stroke-miterlimit:10;}
	.st5{fill:none;stroke:#000000;stroke-width:0.5;stroke-miterlimit:10;}
	.st6{fill:none;stroke:#070707;stroke-width:0.5;stroke-miterlimit:10;}
	.st7{fill:none;stroke:#000000;stroke-width:0.35;stroke-miterlimit:10;}
	.st8{fill:none;stroke:#000000;stroke-width:0.45;stroke-miterlimit:10;}
	.st9{fill:#FFFFFF;stroke:#000000;stroke-width:0.45;stroke-miterlimit:10;}
	.st10{stroke:#000000;stroke-width:0.35;stroke-miterlimit:10;}
</style>
<g id="Capa_1" class="st0">
	<g class="st1">
		<circle class="st2" cx="35" cy="35" r="33.16"/>
		<g>
			<path class="st3" d="M37.97,49c-0.87,1.75-3.36,1.75-4.23,0c-2.14-4.3-5.38-10.83-7.2-14.56c-2.45-5-0.66-11.31,4.16-13.62
				c6.56-3.15,15.52-0.34,15.59,9.54c0.01,1.28-0.34,2.54-0.9,3.69C43.49,37.92,40.16,44.63,37.97,49z"/>
		</g>
		<circle class="st3" cx="35.87" cy="30.45" r="4.27"/>
	</g>
	<g class="st1">
		<g>
			<path class="st3" d="M37.97,49c-0.87,1.75-3.36,1.75-4.23,0c-2.14-4.3-5.38-10.83-7.2-14.56c-2.45-5-0.66-11.31,4.16-13.62
				c6.56-3.15,15.52-0.34,15.59,9.54c0.01,1.28-0.34,2.54-0.9,3.69C43.49,37.92,40.16,44.63,37.97,49z"/>
		</g>
		<circle class="st3" cx="35.87" cy="30.45" r="4.27"/>
		<circle class="st4" cx="35" cy="35" r="33.16"/>
	</g>
</g>
<g id="Capa_2" class="st0">
	<g class="st1">
		<circle class="st4" cx="35" cy="35" r="33.16"/>
		<g>
			<g>
				<path class="st3" d="M18.44,43.14c4.68,0,4.68,2,9.36,2c4.68,0,4.68-2,9.36-2c4.68,0,4.68,2,9.36,2s4.68-2,9.36-2"/>
			</g>
			<g>
				<path class="st3" d="M18.44,47.74c4.68,0,4.68,2,9.36,2c4.68,0,4.68-2,9.36-2c4.68,0,4.68,2,9.36,2s4.68-2,9.36-2"/>
			</g>
			<rect x="26.97" y="30" class="st5" width="1.07" height="7.04"/>
			<path class="st6" d="M32.7,27.33c0.52-0.82,0.56-1.81,0.2-2.64c0.29-0.2,0.54-0.46,0.74-0.78c0.83-1.3,0.44-3.03-0.86-3.86
				c-0.74-0.47-1.61-0.54-2.38-0.28c0.03-0.95-0.42-1.89-1.28-2.44c-1.3-0.83-3.03-0.45-3.86,0.86c-0.15,0.24-0.25,0.5-0.32,0.76
				c-1.13-0.27-2.35,0.17-3.01,1.21c-0.64,1.01-0.55,2.26,0.12,3.17c-0.1,0.11-0.2,0.23-0.28,0.36c-0.83,1.3-0.45,3.03,0.86,3.86
				c0.64,0.41,1.39,0.52,2.08,0.37c0.17,0.65,0.58,1.25,1.19,1.64c1.3,0.83,3.03,0.44,3.86-0.86c0.03-0.04,0.04-0.09,0.07-0.13
				C30.9,28.78,32.07,28.33,32.7,27.33z"/>
			<path class="st6" d="M44.76,31.44c-0.54-0.18-1.11-0.08-1.55,0.21c-0.14-0.61-0.58-1.13-1.21-1.33c-0.94-0.31-1.95,0.2-2.28,1.13
				c-0.19-0.82-0.89-1.44-1.76-1.43c-0.57,0.01-1.07,0.28-1.41,0.69c-0.32-0.53-0.91-0.89-1.57-0.88c-1.01,0.01-1.82,0.84-1.81,1.85
				c0,0.19,0.04,0.36,0.09,0.53c-0.71,0.25-1.23,0.93-1.22,1.73c0.01,0.78,0.5,1.43,1.19,1.69c-0.01,0.1-0.03,0.19-0.03,0.3
				c0.01,1.01,0.84,1.82,1.85,1.81c0.5,0,0.94-0.21,1.27-0.53c0.33,0.3,0.76,0.48,1.24,0.47c0.45,0,0.85-0.19,1.16-0.46
				c0.22,0.27,0.49,0.51,0.84,0.62c0.47,0.15,0.96,0.1,1.37-0.1c0.22,0.38,0.57,0.7,1.02,0.84c0.96,0.31,1.99-0.22,2.3-1.18
				c0.01-0.03,0.01-0.06,0.02-0.09c0.73-0.05,1.39-0.52,1.62-1.26c0.2-0.6,0.06-1.24-0.31-1.7c0.15-0.18,0.27-0.38,0.34-0.61
				C46.25,32.78,45.72,31.75,44.76,31.44z"/>
		</g>
	</g>
</g>
<g id="Capa_3" class="st0">
	<g class="st1">
		<circle class="st4" cx="35" cy="35" r="33.16"/>
		<g>
			<path class="st3" d="M28.28,32.35c1.06,1.74,2.37,3.3,4.68,2.34c1.44-0.6,3.02-1.81,4.7-1.57c1,0.15,1.76,1.05,2.77,1.26
				c1.67,0.35,2.67-0.14,3.8-1.26"/>
			<path class="st3" d="M21.84,44.54l9.79-18.93c1.97-3.8,7.44-3.69,9.25,0.2l8.35,17.98"/>
		</g>
	</g>
</g>
<g id="Capa_4" class="st0">
	<g class="st1">
		<circle class="st4" cx="35" cy="35" r="33.16"/>
		<g>
			<path class="st5" d="M50.58,29.75c-1.11-3.51-4.86-5.45-8.36-4.34c-0.28,0.09-0.54,0.2-0.8,0.32c-1.22-3.05-4.19-5.21-7.68-5.21
				c-3.47,0-6.44,2.14-7.67,5.18c-0.84-0.38-1.77-0.6-2.75-0.6c-3.68,0-6.66,2.98-6.66,6.66s2.98,6.66,6.66,6.66h20.9
				c0.02,0,0.05,0,0.07,0h0.68l0.01-0.04c0.42-0.05,0.85-0.14,1.27-0.27C49.75,37,51.69,33.26,50.58,29.75z"/>
			<path class="st5" d="M27.24,42.33l-1.33,2.65l-0.22,0.55c-0.03,0.13-0.06,0.26-0.06,0.41c0,0.89,0.72,1.61,1.61,1.61
				c0.89,0,1.61-0.72,1.61-1.61c0-0.14-0.08-0.39-0.11-0.52L27.24,42.33z"/>
			<path class="st5" d="M34.85,43.31l-1.9,3.78l-0.32,0.79c-0.05,0.19-0.08,0.38-0.08,0.58c0,1.27,1.03,2.3,2.3,2.3
				c1.27,0,2.3-1.03,2.3-2.3c0-0.2-0.11-0.56-0.16-0.74L34.85,43.31z"/>
			<path class="st5" d="M41.5,42.33l-1.33,2.65l-0.22,0.55c-0.03,0.13-0.06,0.26-0.06,0.41c0,0.89,0.72,1.61,1.61,1.61
				c0.89,0,1.61-0.72,1.61-1.61c0-0.14-0.08-0.39-0.11-0.52L41.5,42.33z"/>
		</g>
	</g>
</g>
<g id="Capa_5" class="st0">
	<g class="st1">
		<path class="st7" d="M44.52,23.59"/>
		<path class="st7" d="M50.93,45.35"/>
		<path class="st7" d="M21.59,31.95V45.2c0,0.89,0.66,1.65,1.54,1.78l11.63,1.68c0.12,0.02,0.24,0.02,0.37,0.02l14.11-0.85
			c0.95-0.06,1.69-0.84,1.69-1.8v-0.87"/>
		<line class="st7" x1="50.93" y1="45.35" x2="50.93" y2="31.95"/>
		<path class="st7" d="M49.72,29.4"/>
		<g>
			<path class="st8" d="M45.25,24.65c-0.36-0.39-0.86-0.61-1.39-0.61l-13.97-0.01c-0.44,0-1.71,0.06-2.05,0.34l-8.11,6.49
				c0.42,1.08,1.63,1.26,2.59,0.72l4.73-4c1.47-1.17,3.54-1.21,5.05-0.08l5.43,4.06c0.33,0.25,0.73,0.38,1.14,0.38h12.12
				c0.47,0,0.71-0.56,0.39-0.9L45.25,24.65z"/>
			<line class="st8" x1="38.04" y1="48.69" x2="38.04" y2="31.95"/>
			<path class="st8" d="M46.51,41.16h-3.99c-0.47,0-0.85-0.38-0.85-0.85v-3.66c0-0.47,0.38-0.85,0.85-0.85h3.99
				c0.47,0,0.85,0.38,0.85,0.85v3.66C47.37,40.78,46.98,41.16,46.51,41.16z"/>
			<path class="st9" d="M40.67,27.11v-4.97c0-0.47,0.38-0.85,0.85-0.85h1.9c0.47,0,0.85,0.38,0.85,0.85v4.97
				c0,0.47-0.38,0.85-0.85,0.85h-1.9C41.05,27.96,40.67,27.58,40.67,27.11z"/>
			<path class="st8" d="M31.48,41.42h-3.99c-0.47,0-0.85-0.38-0.85-0.85v-3.66c0-0.47,0.38-0.85,0.85-0.85h3.99
				c0.47,0,0.85,0.38,0.85,0.85v3.66C32.33,41.04,31.95,41.42,31.48,41.42z"/>
		</g>
		<circle class="st4" cx="35" cy="35" r="33.16"/>
	</g>
</g>
<g id="Capa_6">
	<g>
		<circle class="st4" cx="35" cy="35" r="33.16"/>
		<path class="st7" d="M44.52,23.59"/>
		<path class="st7" d="M50.93,45.35"/>
		<path class="st7" d="M49.72,29.4"/>
		<g>
			<path class="st5" d="M21.69,40.34l10.24-16.95c1.58-2.62,5.4-2.55,6.89,0.12l9.56,17.17c1.49,2.67-0.46,5.96-3.52,5.92
				l-19.81-0.21C21.97,46.35,20.09,42.98,21.69,40.34z"/>
			<g>
				<g>
					<path d="M35.1,31.62c0,1.59,0,3.17,0,4.76c0,0.22,0,0.45,0,0.67c0,0.64,1,0.64,1,0c0-1.59,0-3.17,0-4.76c0-0.22,0-0.45,0-0.67
						C36.1,30.97,35.1,30.97,35.1,31.62L35.1,31.62z"/>
				</g>
			</g>
			<circle class="st10" cx="35.6" cy="39.88" r="0.6"/>
		</g>
	</g>
</g>
</svg>
