<?xml version="1.0" encoding="utf-8"?>
<!-- Generator: Adobe Illustrator 25.0.0, SVG Export Plug-In . SVG Version: 6.00 Build 0)  -->
<svg version="1.1" id="Layer_1" xmlns="http://www.w3.org/2000/svg" xmlns:xlink="http://www.w3.org/1999/xlink" x="0px" y="0px"
	 viewBox="0 0 247.04 165.76" style="enable-background:new 0 0 247.04 165.76;" xml:space="preserve">
<style type="text/css">
	.st0{fill:#474C55;}
	.st1{fill:#FFED46;}
	.st2{display:none;}
	.st3{display:inline;}
	.st4{fill:#FFE850;}
	.st5{fill:none;}
	.st6{fill-rule:evenodd;clip-rule:evenodd;fill:#FFED46;}
	.st7{display:inline;fill:none;stroke:#FFF49C;stroke-width:24;stroke-linecap:square;stroke-miterlimit:10;}
	.st8{display:inline;fill:none;stroke:#FFED46;stroke-width:24;stroke-linecap:square;stroke-miterlimit:10;}
	.st9{display:inline;fill-rule:evenodd;clip-rule:evenodd;fill:#FFED46;}
	.st10{display:inline;fill-rule:evenodd;clip-rule:evenodd;fill:#FFF49C;}
	.st11{display:inline;fill-rule:evenodd;clip-rule:evenodd;fill:#474C55;}
	.st12{fill:none;stroke:#474C55;stroke-width:24;stroke-linecap:square;stroke-miterlimit:10;}
	.st13{fill-rule:evenodd;clip-rule:evenodd;fill:#474C55;}
	.st14{fill:none;stroke:#FFED46;stroke-width:24;stroke-linecap:square;stroke-miterlimit:10;}
</style>
<g>
	<g>
		<rect x="71.47" y="54.16" class="st0" width="15.68" height="34.41"/>
		<polygon class="st0" points="140.38,62.46 140.22,62.46 125.99,40.25 97.17,40.25 97.17,88.57 112.86,88.57 112.86,45.86 
			113.02,45.86 140.38,88.57 156.07,88.57 156.07,54.16 140.38,54.16 		"/>
		<polygon class="st0" points="62.6,94.91 55.26,94.91 55.26,116.19 55.43,116.19 60.76,130.1 76.8,130.1 		"/>
		<path class="st0" d="M139.41,116.19h0.84l9.81-10.77c-6.01-7.25-14.43-11.76-26.53-11.76c-14.78,0-26.49,9.32-31.22,22.52h18.37
			c3.21-5.05,8.15-8.34,13.77-8.34C130.35,107.85,135.45,110.2,139.41,116.19z"/>
		<path class="st0" d="M199.51,40.25c2.13,2.46,3.63,5.5,4.38,8.91v-8.91H199.51z"/>
		<path class="st0" d="M189.98,73.87c-1.61,0.41-3.29,0.69-5.1,0.69h-2.42v-20.4h-15.68v34.41h19.94c1.11,0,2.17-0.21,3.26-0.31
			c5.02-0.45,9.72-1.88,13.91-4.19V59.11C202.27,66.47,197.17,72.06,189.98,73.87z"/>
		<rect x="123.53" y="125.19" class="st0" width="31.78" height="4.9"/>
		<polygon class="st0" points="182.72,94.91 174.13,116.19 189.89,116.19 189.98,116.19 190.06,116.19 195.39,130.1 203.89,130.1 
			203.89,111.4 197.23,94.91 		"/>
	</g>
	<g>
		<path class="st1" d="M199.51,40.25h-73.52l8.91,13.91h55.07v19.71c7.2-1.81,12.29-7.39,13.91-14.75v-9.96
			C203.14,45.74,201.64,42.71,199.51,40.25z"/>
		<path class="st1" d="M55.26,116.19V54.91c0.24-0.24,0.43-0.51,0.66-0.75h41.25V40.25H61.39c-0.02-11.33-9.21-20.5-20.54-20.5
			c-11.35,0-20.54,9.2-20.54,20.54c0,11.35,9.2,20.54,20.54,20.54c0.17,0,0.33-0.05,0.5-0.05v69.32h19.41l-5.33-13.91H55.26z"/>
		<path class="st1" d="M189.98,94.91h7.26l6.66,16.49V84.07c-4.19,2.31-8.89,3.74-13.91,4.19L189.98,94.91L189.98,94.91z"/>
		<polygon class="st1" points="189.98,116.19 189.89,116.19 174.13,116.19 71.19,116.19 76.8,130.1 123.53,130.1 123.53,125.19 
			155.31,125.19 155.31,130.1 195.39,130.1 190.06,116.19 		"/>
		<polygon class="st1" points="113.02,45.86 112.86,45.86 112.86,54.16 118.34,54.16 		"/>
	</g>
</g>
<g id="Original_c_x2F_corte_de_letas" class="st2">
	<g class="st3">
		<path class="st4" d="M95.57,761.85h38.6h17.01c-0.07-31.43-25.55-56.88-56.99-56.88c-31.48,0-57.01,25.52-57.01,57.01
			c0,31.48,25.52,57.01,57.01,57.01c0.47,0,0.91-0.13,1.39-0.14v-18.39L95.57,761.85L95.57,761.85z"/>
		<path class="st4" d="M136,800.45h-1.83v2.09C134.83,801.89,135.37,801.13,136,800.45z"/>
		<rect x="179.14" y="704.96" class="st0" width="43.51" height="56.88"/>
		<rect x="179.14" y="800.45" class="st0" width="43.51" height="95.49"/>
		<rect x="250.47" y="800.45" class="st0" width="43.52" height="95.49"/>
		<polygon class="st0" points="293.99,704.96 250.47,704.96 250.47,761.85 330.43,761.85 		"/>
		<polygon class="st0" points="413.89,895.93 413.89,800.45 370.37,800.45 370.37,823.48 369.91,823.48 355.16,800.45 
			309.21,800.45 370.37,895.93 		"/>
		<rect x="370.37" y="704.96" class="st0" width="43.52" height="56.88"/>
		<polygon class="st0" points="155.93,1028.12 112.87,1028.12 119.36,1011.17 95.57,1011.17 95.57,972.57 95.57,959.86 
			37.17,1104.51 83.94,1104.51 98.05,1066.32 170.74,1066.32 184.86,1104.51 231.62,1104.51 193.94,1011.17 149.43,1011.17 		"/>
		<polygon class="st0" points="134.17,913.54 134.17,972.57 134.63,972.57 178.36,972.57 154.53,913.54 		"/>
		<path class="st0" d="M323.61,1031.13h43.98c0,23.37-20.6,36.81-41.44,36.81c-26.27,0-47.53-25.33-48.44-56.77h-46.97
			c1.04,53.68,42.13,96.8,92.86,96.8c37.5,0,77.78-20.6,88.19-68.98v-27.82H323.6v19.96H323.61z"/>
		<path class="st0" d="M323.61,910.07c-41.02,0-73.51,25.87-86.64,62.5h50.98c8.9-14.01,22.61-23.15,38.21-23.15
			c16.38,0,30.53,6.52,41.51,23.15H370l27.22-29.87C380.55,922.57,357.18,910.07,323.61,910.07z"/>
		<polygon class="st0" points="546.58,959.29 546.58,972.57 546.58,1011.17 523.01,1011.17 529.51,1028.12 486.45,1028.12 
			492.95,1011.17 448.43,1011.17 410.75,1104.51 457.52,1104.51 471.63,1066.32 544.32,1066.32 558.44,1104.51 605.2,1104.51 		"/>
		<polygon class="st0" points="507.98,913.54 487.84,913.54 464.01,972.57 507.75,972.57 507.98,972.57 		"/>
		<path class="st4" d="M134.17,913.54v-111c-9.98,9.84-23.57,15.92-38.6,16.29v141.02l18.7-46.32h19.9V913.54z"/>
		<path class="st4" d="M136,800.45h43.14v-38.6h-27.96c0,0.04,0.01,0.08,0.01,0.12C151.19,776.86,145.34,790.3,136,800.45z"/>
		<path class="st4" d="M236.97,972.57h-58.61l15.58,38.6h36.81c-0.01-0.69-0.19-1.34-0.19-2.04
			C230.56,996.18,232.91,983.9,236.97,972.57z"/>
		<polygon class="st4" points="119.36,1011.17 134.17,1011.17 149.43,1011.17 134.63,972.57 134.17,972.57 		"/>
		<rect x="222.65" y="761.85" class="st4" width="27.82" height="38.6"/>
		<rect x="413.89" y="761.85" class="st4" width="28.06" height="38.6"/>
		<polygon class="st4" points="370.37,800.45 370.37,761.85 330.43,761.85 355.16,800.45 		"/>
		<path class="st4" d="M370,972.57l-1.25,1.38c-0.34-0.54-0.74-0.86-1.09-1.38h-79.71c-6.42,10.11-10.4,22.69-10.4,36.57
			c0,0.7,0.15,1.34,0.17,2.04h45.9v-13.61h88.19v13.61h36.63l15.58-38.6H370V972.57z"/>
		<polygon class="st4" points="507.98,972.57 507.75,972.57 492.95,1011.17 507.98,1011.17 523.01,1011.17 508.21,972.57 		"/>
		<polygon class="st4" points="294.45,777.42 293.99,777.42 293.99,800.45 309.21,800.45 		"/>
		<path class="st4" d="M134.17,800.45H136c9.35-10.15,15.19-23.59,15.19-38.48c0-0.04-0.01-0.08-0.01-0.12h-17.01h-38.6v38.6v18.39
			c15.03-0.37,28.62-6.46,38.6-16.29L134.17,800.45L134.17,800.45z"/>
		<rect x="179.14" y="761.85" class="st4" width="43.51" height="38.6"/>
		<rect x="370.37" y="761.85" class="st4" width="43.52" height="38.6"/>
		<polygon class="st0" points="293.99,800.45 293.99,777.42 294.45,777.42 309.21,800.45 355.16,800.45 330.43,761.85 
			250.47,761.85 250.47,800.45 		"/>
		<g>
			<path class="st5" d="M546.58,800.56c0-0.02,0-0.04,0-0.07v0.12C546.58,800.6,546.58,800.58,546.58,800.56z"/>
			<path class="st5" d="M507.98,761.85h24.8c-9.6-11.08-23.6-18-40.59-18h-6.71v18h1.65H507.98z"/>
			<path class="st5" d="M487.13,800.45h-1.65v56.6h6.71c5.01,0,9.67-0.78,14.14-1.91c0.56-0.14,1.1-0.32,1.65-0.48v-54.22
				L487.13,800.45L487.13,800.45z"/>
			<g>
				<path class="st5" d="M492.19,857.05c5.01,0,9.67-0.78,14.14-1.91c0.56-0.14,1.1-0.32,1.65-0.48v-40.59v-13.62h-22.5v56.6H492.19
					z"/>
				<path class="st5" d="M532.78,761.85c-9.6-11.08-23.6-18-40.59-18h-6.71v18h22.5H532.78z"/>
				<path class="st5" d="M546.58,800.56c0-0.02,0-0.04,0-0.07v0.12C546.58,800.6,546.58,800.58,546.58,800.56z"/>
				<path class="st4" d="M507.98,814.07v40.59c19.09-5.45,32.58-20.61,36.95-40.46c0.96-4.35,1.61-8.85,1.65-13.59v-0.12
					c-0.01-4.85-0.68-9.46-1.65-13.91c-2.08-9.48-6.24-17.91-12.15-24.73h-24.8h-22.5v38.6h22.5L507.98,814.07L507.98,814.07z"/>
				<path class="st4" d="M507.98,894.89v18.65h20.13l18.47,45.75v-76.82c-0.56,0.32-1.09,0.67-1.65,0.98
					C533.75,889.61,521.28,893.48,507.98,894.89z"/>
				<path class="st0" d="M593.57,800.34c0-55.56-43.98-95.37-96.3-95.37h-55.32v56.88h43.52v-18h6.71c16.99,0,31,6.92,40.59,18
					c5.91,6.83,10.07,15.25,12.15,24.73c0.98,4.46,1.65,9.06,1.65,13.91c0,0.02,0,0.04,0,0.07c0,0.02,0,0.04,0,0.06
					c-0.01,0.63-0.05,1.24-0.07,1.86c0.02-0.01,0.05-0.03,0.07-0.04v80.03C574.45,866.38,593.57,837,593.57,800.34z"/>
				<path class="st0" d="M506.32,855.14c-4.47,1.13-9.13,1.91-14.14,1.91h-6.71v-56.6h-43.52v95.48h55.32
					c3.09,0,6.03-0.59,9.05-0.86c0.56-0.05,1.1-0.13,1.65-0.19v-40.22C507.43,854.82,506.89,855,506.32,855.14z"/>
				<path class="st0" d="M546.51,802.48c0.03-0.62,0.07-1.23,0.07-1.86c-0.04,4.74-0.7,9.23-1.65,13.59
					c-4.36,19.85-17.86,35-36.95,40.46v40.22c13.3-1.41,25.78-5.28,36.95-11.44c0.56-0.31,1.1-0.66,1.65-0.98v-80.03
					C546.56,802.46,546.53,802.47,546.51,802.48z"/>
			</g>
			<polygon class="st4" points="485.48,800.45 485.48,761.85 483.82,761.85 441.96,761.85 441.96,800.45 483.82,800.45 			"/>
		</g>
		<polygon class="st0" points="134.63,972.57 149.43,1011.17 193.94,1011.17 178.36,972.57 		"/>
		<polygon class="st4" points="95.57,1011.17 119.36,1011.17 134.17,972.57 134.17,913.54 114.26,913.54 95.57,959.86 95.57,972.57 
					"/>
		<path class="st4" d="M368.75,973.95l1.25-1.38h-2.34C368.01,973.09,368.41,973.41,368.75,973.95z"/>
		<path class="st4" d="M277.54,1009.14c0-13.88,3.98-26.45,10.4-36.57h-50.98c-4.06,11.33-6.41,23.61-6.41,36.57
			c0,0.7,0.18,1.34,0.19,2.04h46.97C277.69,1010.48,277.54,1009.83,277.54,1009.14z"/>
		<rect x="323.61" y="997.56" class="st0" width="88.19" height="13.61"/>
		<polygon class="st0" points="507.98,913.54 507.98,972.57 508.21,972.57 523.01,1011.17 546.58,1011.17 546.58,972.57 
			546.58,959.29 528.11,913.54 		"/>
		<polygon class="st4" points="507.75,972.57 464.01,972.57 448.43,1011.17 492.95,1011.17 		"/>
	</g>
	<g class="st3">
		<path class="st6" d="M129.49,1307.23c-2.55,38.83-1.03,77.88-8.64,115.06c-8.35,40.82-39.76,62.72-82.16,71.02
			c-0.99-20.63-7.22-39.48,18.55-51.8c18.77-8.97,21.97-30.21,21.65-52.33c-13.34-0.76-26.31-1.51-40.25-2.31
			c0-27.01,0-52.68,0-79.65C67.68,1307.23,96.03,1307.23,129.49,1307.23z"/>
		<path class="st6" d="M260.92,1307.29c0,33.78,1.62,65.83-0.38,97.66c-2.82,44.78-39.3,80.55-85.82,86.94
			c-1.67-20.24-5.67-39.03,19.1-51.84c17.24-8.91,21.32-29.26,19.64-50.75c-12.77-0.82-25.08-1.62-39.71-2.57
			c0-14.21,0-27.34,0-40.47c0-12.54,0-25.08,0-38.96C203.19,1307.29,230.8,1307.29,260.92,1307.29z"/>
	</g>
	<g class="st3">
		<path class="st6" d="M574.43,1332.69c-1.6,0-3.16,0.12-4.69,0.35c0.26-1.64,0.4-3.33,0.4-5.04c0-17.63-14.3-31.93-31.93-31.93
			c-6.74,0-12.98,2.09-18.13,5.65c-3.47-13.88-16.02-24.16-30.97-24.16c-14.06,0-25.99,9.09-30.25,21.71
			c-5.84-7.57-14.99-12.45-25.29-12.45c-17.63,0-31.93,14.3-31.93,31.93c0,2.2,0.22,4.35,0.65,6.43c-1.87-0.34-3.78-0.53-5.75-0.53
			c-17.63,0-31.93,14.3-31.93,31.93c0,17.1,13.44,31.06,30.33,31.89c2.75,14.83,15.75,26.07,31.38,26.07
			c7.09,0,13.64-2.32,18.94-6.23c-0.1,1.03-0.16,2.08-0.16,3.14c0,17.63,14.3,31.93,31.93,31.93c15.34,0,28.14-10.81,31.22-25.23
			c5.84,6.35,14.21,10.34,23.52,10.34c17.63,0,31.93-14.3,31.93-31.93c0-0.63-0.02-1.25-0.06-1.87c3.37,1.21,7,1.87,10.79,1.87
			c17.63,0,31.93-14.3,31.93-31.93C606.36,1346.99,592.06,1332.69,574.43,1332.69z"/>
		<circle class="st6" cx="426.31" cy="1457.24" r="18.06"/>
		<circle class="st6" cx="390.18" cy="1489.39" r="14.09"/>
	</g>
	<line class="st7" x1="203.27" y1="2861.15" x2="203.27" y2="3038.03"/>
	<line class="st7" x1="-36.04" y1="2756.78" x2="319.03" y2="2756.78"/>
	<polyline class="st8" points="-240.39,2809.12 304.49,2809.12 304.49,3200.61 -14.16,3200.61 -14.16,2909.27 420.24,2909.27 
		420.24,2658.25 113.8,2658.25 113.8,3079.65 690.66,3079.65 690.66,2826.03 1157.09,2826.03 	"/>
	<polyline class="st7" points="203.27,3038.03 203.27,3135.58 776.7,3135.58 776.7,2895.23 1157.09,2895.23 	"/>
	<polyline class="st7" points="319.03,2756.78 546.36,2756.78 546.36,3000.32 44.6,3000.32 44.6,2542.5 203.27,2542.5 
		203.27,2861.15 	"/>
	<line class="st7" x1="-240.39" y1="2756.78" x2="-36.04" y2="2756.78"/>
	<circle class="st9" cx="1232.38" cy="2861.15" r="109.11"/>
	<circle class="st9" cx="1232.38" cy="2671.01" r="56"/>
	<circle class="st9" cx="1232.38" cy="2547.33" r="35.31"/>
	<circle class="st9" cx="1454.29" cy="2639.24" r="35.31"/>
	<circle class="st9" cx="1546.2" cy="2861.15" r="35.31"/>
	<circle class="st9" cx="1454.29" cy="3083.05" r="35.31"/>
	<circle class="st9" cx="1232.38" cy="3174.97" r="35.31"/>
	<circle class="st10" cx="1354.95" cy="2572.25" r="35.31"/>
	<circle class="st10" cx="1523.33" cy="2743.54" r="35.31"/>
	<circle class="st10" cx="1521.28" cy="2983.72" r="35.31"/>
	<circle class="st10" cx="1349.99" cy="3152.1" r="35.31"/>
	<circle class="st10" cx="1366.83" cy="2726.7" r="56"/>
	<circle class="st9" cx="1422.52" cy="2861.15" r="56"/>
	<circle class="st10" cx="1366.83" cy="2995.6" r="56"/>
	<circle class="st9" cx="1232.38" cy="3051.29" r="56"/>
	<circle class="st9" cx="975.4" cy="3517.32" r="29.95"/>
	<circle class="st11" cx="903.49" cy="3487.54" r="29.95"/>
	<circle class="st9" cx="873.7" cy="3415.62" r="29.95"/>
	<circle class="st11" cx="903.49" cy="3343.71" r="29.95"/>
	<circle class="st9" cx="975.4" cy="3313.92" r="29.95"/>
	
		<ellipse transform="matrix(0.9239 -0.3827 0.3827 0.9239 -1199.8602 655.317)" class="st11" cx="1047.32" cy="3343.71" rx="29.95" ry="29.95"/>
	<circle class="st9" cx="1077.1" cy="3415.62" r="29.95"/>
	
		<ellipse transform="matrix(0.9239 -0.3827 0.3827 0.9239 -1254.9016 666.2654)" class="st11" cx="1047.32" cy="3487.54" rx="29.95" ry="29.95"/>
	<g class="st3">
		<circle class="st6" cx="417.64" cy="3428.49" r="33.15"/>
		<polygon class="st12" points="516.25,3517.14 319.03,3517.14 319.03,3344.94 417.64,3296.35 516.25,3344.94 		"/>
	</g>
	<g class="st3">
		<g>
			<circle class="st6" cx="591.3" cy="3383.59" r="25.29"/>
			<line class="st12" x1="591.3" y1="3435.62" x2="591.3" y2="3540.97"/>
		</g>
		<g>
			<circle class="st6" cx="654.89" cy="3333.59" r="25.29"/>
			<line class="st12" x1="654.89" y1="3385.62" x2="654.89" y2="3540.97"/>
		</g>
		<g>
			<circle class="st6" cx="718.48" cy="3363.59" r="25.29"/>
			<line class="st12" x1="718.48" y1="3415.62" x2="718.48" y2="3540.97"/>
		</g>
		<circle class="st6" cx="782.06" cy="3343.59" r="25.29"/>
		<line class="st12" x1="782.06" y1="3395.62" x2="782.06" y2="3540.97"/>
	</g>
	<g class="st3">
		<circle class="st13" cx="1267.7" cy="3406.74" r="33.15"/>
		<circle class="st14" cx="1267.7" cy="3406.74" r="109.11"/>
		<line class="st14" x1="1190.55" y1="3483.89" x2="1158.59" y2="3515.85"/>
	</g>
</g>
</svg>
