<?xml version="1.0" encoding="utf-8"?>
<!-- Generator: Adobe Illustrator 25.4.1, SVG Export Plug-In . SVG Version: 6.00 Build 0)  -->
<svg version="1.1" id="Capa_1" xmlns="http://www.w3.org/2000/svg" xmlns:xlink="http://www.w3.org/1999/xlink" x="0px" y="0px"
	 viewBox="0 0 400 128" style="enable-background:new 0 0 400 128;" xml:space="preserve">
<style type="text/css">
	.st0{fill:#FFFFFF;}
</style>
<g>
	<g>
		<g>
			<path class="st0" d="M31.8,125H14.7c-2.4,0-4.6-1.8-4.6-4.2V85.5c0-2.1,1.9-3.9,4.2-3.9c2.3,0,4.2,1.8,4.2,3.9v31.8h13.2
				c2.2,0,4.1,1.6,4.1,3.8C36,123.3,34.1,125,31.8,125z"/>
			<path class="st0" d="M50.5,122.7c-0.6,1.8-2.5,2.8-4,2.8c-2.4,0-4.4-1.6-4.4-3.9c0-0.3,0.1-1,0.2-1.3l11.8-34.5
				c0.8-2.4,2-4.1,4.9-4.1c2.9,0,4.1,1.7,5,4.1l11.8,34.5c0.1,0.3,0.2,1,0.2,1.3c0,2.3-1.9,3.9-4.4,3.9c-1.6,0-3.5-1.2-4.1-2.8
				l-2.1-6.1H52.5L50.5,122.7z M60.1,99.2c-0.5-1.8-0.8-4.1-1.1-5.9c-0.2,1.9-0.5,4.2-1.1,5.9l-3.2,10.4h8.5L60.1,99.2z"/>
			<path class="st0" d="M89.9,109.6c0,5.2,1.8,8.5,7.3,8.5c2.1,0,3.6-0.6,5-1.3v-9.5h-3.2c-2,0-3.8-1.7-3.8-3.8s1.8-3.8,3.8-3.8h6.6
				c2.8,0,5,1.3,5,4.2v13.4c0,5.7-7.5,8.1-13.8,8.1c-10.6,0-15.5-6.3-15.5-15.9v-12c0-9.6,4.9-15.9,15.5-15.9c6.4,0,12.6,3,12.6,6.5
				c0,1.9-1.7,3.6-4,3.6c-1.4,0-1.8-0.4-2.6-0.9l-0.6-0.4c-1.5-0.9-3.1-1.5-5-1.5c-5.5,0-7.3,3.3-7.3,8.5L89.9,109.6L89.9,109.6z"/>
			<path class="st0" d="M118.4,109.6v-12c0-8.6,4.4-15.9,15.8-15.9s15.8,7.3,15.8,15.9v12c0,8.9-5.3,16-15.8,16
				S118.4,118.4,118.4,109.6z M126.9,97.6v12c0,4.9,2.3,8.2,7.3,8.2c5,0,7.3-3.4,7.3-8.2v-12c0-4.9-1.9-8.2-7.3-8.2
				C128.8,89.4,126.9,92.6,126.9,97.6z"/>
			<path d="M180.6,125h-16.1c-3,0-5.6-1-5.6-4.3V86.5c0-2.1,2-4.3,4.7-4.3H180c2.3,0,4.2,1.8,4.2,3.9c0,2.2-1.9,3.8-4.2,3.8h-12.6
				v9.8h11.5c2.1,0,4.2,1.6,4.2,3.8s-1.8,3.9-4.2,3.9h-11.5v9.9h13.2c2.2,0,4.2,1.7,4.2,3.8C184.8,123.2,182.9,125,180.6,125z"/>
			<path d="M215,123.4l-14.1-24.5v22.7c0,2.1-2,3.9-4.3,3.9c-2.4,0-4.2-1.8-4.2-3.9V85.8c0-2.4,1.9-4.1,4.4-4.1
				c1.6,0,3.3,0.9,4.1,2.2c5.4,9.3,8.5,14.9,14.1,24.6v-23c0-2.1,2-3.9,4.3-3.9c2.4,0,4.2,1.8,4.2,3.9v35.8c0,2.2-1.8,4.1-4.5,4.1
				C217.5,125.5,215.8,124.7,215,123.4z"/>
			<path class="st0" d="M255.3,125h-17.1c-2.4,0-4.6-1.8-4.6-4.2V85.5c0-2.1,1.9-3.9,4.2-3.9c2.3,0,4.2,1.8,4.2,3.9v31.8h13.2
				c2.2,0,4.1,1.6,4.1,3.8C259.4,123.3,257.6,125,255.3,125z"/>
			<path class="st0" d="M266.5,85.5c0-2.1,1.9-3.9,4.2-3.9c2.3,0,4.2,1.8,4.2,3.9v36.1c0,2.1-1.9,3.9-4.2,3.9
				c-2.4,0-4.2-1.8-4.2-3.9V85.5z M272.6,69.8l0.5-0.5c0.7-0.7,1.1-1.2,2.5-1.2c1.4,0,3,1.3,3,3c0,0.5-0.1,1.1-0.5,1.7l-5,5
				c-0.9,0.8-1.4,1.3-2.7,1.3c-1.7,0-3.1-1.2-3.1-3c0-0.6,0.1-1,0.5-1.5L272.6,69.8z"/>
			<path class="st0" d="M307.6,123.4l-14.1-24.5v22.7c0,2.1-2,3.9-4.3,3.9c-2.4,0-4.2-1.8-4.2-3.9V85.8c0-2.4,1.9-4.1,4.4-4.1
				c1.6,0,3.3,0.9,4.1,2.2c5.4,9.3,8.5,14.9,14.1,24.6v-23c0-2.1,2-3.9,4.3-3.9c2.4,0,4.2,1.8,4.2,3.9v35.8c0,2.2-1.8,4.1-4.5,4.1
				C310.1,125.5,308.4,124.7,307.6,123.4z"/>
			<path class="st0" d="M348,125h-16.1c-3,0-5.6-1-5.6-4.3V86.5c0-2.1,2-4.3,4.7-4.3h16.5c2.3,0,4.2,1.8,4.2,3.9
				c0,2.2-1.9,3.8-4.2,3.8h-12.6v9.8h11.5c2.1,0,4.2,1.6,4.2,3.8s-1.8,3.9-4.2,3.9h-11.5v9.9H348c2.2,0,4.2,1.7,4.2,3.8
				C352.2,123.2,350.3,125,348,125z"/>
			<path class="st0" d="M366.9,122.7c-0.6,1.8-2.5,2.8-4,2.8c-2.4,0-4.4-1.6-4.4-3.9c0-0.3,0.1-1,0.2-1.3l11.8-34.5
				c0.8-2.4,2-4.1,4.9-4.1c2.9,0,4.1,1.7,5,4.1l11.8,34.5c0.1,0.3,0.2,1,0.2,1.3c0,2.3-1.9,3.9-4.4,3.9c-1.6,0-3.5-1.2-4.1-2.8
				l-2.1-6.1h-12.9L366.9,122.7z M376.6,99.2c-0.5-1.8-0.9-4.1-1.1-5.9c-0.2,1.9-0.5,4.2-1.1,5.9l-3.2,10.4h8.5L376.6,99.2z"/>
		</g>
	</g>
	<g>
		<path d="M149.9,2.5c0.4,0.4,0.9,0.2,1.3,0.3c4.2,0.8,7.3,3.1,9.6,6.6c2.7,4.2,4.6,8.9,6,13.7c2.7,9,5.8,17.9,9.2,26.7
			c0.8,2.1,2.2,3.1,4.4,3.3c2.7,0.2,5.4,0.1,8,0c3.6,0,7.2-0.1,10.8,0c4.1,0,7.2-1.6,9.6-4.8c2.4-3.2,4.3-6.8,6.5-10.2
			c1.8-2.7,3.4-5.5,5.6-7.8c5.3-5.7,14.1-6.3,20.4-1.5c1.9,1.4,3.4,3.1,4.6,5.1c2.8,4.8,5.6,9.5,8.4,14.3c2,3.5,5.1,5,9.2,5
			c5.2-0.1,10.4,0,15.6-0.1c0.8,0,1.5-0.1,2.3-0.2c2.4-0.3,3.9-1.8,4.8-3.9c1.2-2.9,2.1-5.9,3.1-8.8c2.7-8.2,5.1-16.5,8.1-24.5
			c1.2-3.2,2.7-6.3,5.1-8.8c2.1-2.3,4.8-3.7,7.9-4.1c0.2,0,0.4,0,0.4-0.2c0.7,0,1.4,0,2.1,0c0.1,0.1,0.1,0.2,0.2,0.2
			c4.7,0.5,8,3.1,10.4,6.9c2.8,4.4,4.6,9.2,6.1,14.2c2.6,8.9,5.7,17.6,9.1,26.2c0.6,1.6,1.7,2.6,3.4,2.9c0.8,0.2,1.5,0.2,2.2,0.2
			c11.8,0,23.6,0,35.5,0c0.5,0,1,0,1.5,0.1c1.8,0.4,2.8,1.7,3.4,3.4c0,0.6,0,1.2,0,1.8c-0.1,0.1-0.1,0.1-0.2,0.2
			c-0.9,2.3-2.2,3.2-4.6,3.2c-7.8,0-15.6,0-23.4,0.1c-4.6,0-9.3,0-13.9-0.1c-4.7-0.1-8-2.1-10.5-6c-1.8-2.7-2.6-5.8-3.7-8.8
			c-2.9-8.5-5.4-17.1-8.5-25.5c-0.9-2.5-2-5-3.6-7.1c-0.7-0.9-1.4-1.8-2.4-2.4c-1.7-1.2-3.3-1.1-4.8,0.4c-1.3,1.4-2.1,3.1-2.9,4.7
			c-2.8,5.6-4.5,11.7-6.4,17.6c-1.5,4.7-3,9.4-4.6,14c-1.1,3.4-3,6.3-5.3,8.9c-2.8,3.2-6.7,4.2-10.8,4.2c-6.1,0-12.2,0-18.4-0.3
			c-5.1-0.2-9-2.6-11.9-6.7c-3.3-4.8-6-9.9-8.9-14.9c-0.5-0.9-1.1-1.8-1.7-2.7c-3.4-4.3-8.4-4.4-12-0.4c-1,1.1-1.8,2.3-2.5,3.5
			c-2.2,3.5-4.3,7.1-6.4,10.7c-2.3,4-5.2,7.3-9.5,9.2c-2.8,1.3-5.8,1.5-8.8,1.5c-6,0-12,0-17.9,0c-4.4,0-8.1-1.2-10.8-4.8
			c-1.3-1.7-2.2-3.5-2.9-5.5c-3.2-8.8-5.8-17.8-8.9-26.7c-1.1-3.3-2.2-6.6-4.2-9.6c-0.6-1-1.4-1.9-2.3-2.8c-2.1-2-4.3-1.8-6.1,0.6
			c-1.1,1.4-1.8,3-2.6,4.6c-2.6,5.6-4.3,11.4-6.2,17.3c-1.5,4.7-2.9,9.3-4.5,14c-1.2,3.3-3,6.2-5.3,8.9c-2.4,2.8-5.7,3.9-9.2,4.2
			c-3.9,0.3-7.9,0-11.8,0c-2.6,0-5.2,0-7.7-0.1c-5.4-0.2-9.5-2.7-12.6-7.1c-3.2-4.7-5.9-9.7-8.7-14.6c-0.8-1.3-1.5-2.6-2.6-3.7
			c-2.9-2.8-6.6-3-9.8-0.5c-1.1,0.9-2,1.9-2.8,3.1c-2.5,3.8-4.8,7.7-7.1,11.7c-1.5,2.5-3.1,4.9-5.3,6.9c-3.7,3.3-8.1,4.6-13.1,4.4
			c-3.1-0.1-6.2-0.2-9.4-0.2c-5.1,0-10.2-0.1-15.4-0.1c-1.9,0-3.5-1.1-4.2-2.8c-0.6-1.7-0.2-3.4,1-4.5c0.8-0.7,1.7-1,2.8-1
			c5.6,0,11.1,0,16.7,0c3,0,6.1-0.1,9.1-0.1c3.5,0,6.3-1.5,8.6-4.2c2.2-2.6,3.7-5.7,5.5-8.5c1.8-2.9,3.7-5.8,5.8-8.6
			c4.7-6.1,12.7-7.9,19.5-4.3c3.1,1.6,5.3,4,7.1,7c2.7,4.7,5.4,9.4,8.2,14c2.1,3.4,5.1,4.8,9.1,4.7c4.7-0.1,9.4,0,14.1,0
			c1.2,0,2.3,0,3.5-0.2c2.1-0.3,3.6-1.3,4.6-3.1c1.2-2.2,1.8-4.6,2.6-7c2.9-8.8,5.5-17.8,8.7-26.5c1.2-3.3,2.7-6.4,5.1-9.1
			c2.3-2.6,5.2-4.2,8.8-4.4c0.2,0,0.4,0,0.4-0.2C149.3,2.5,149.6,2.5,149.9,2.5z"/>
	</g>
</g>
</svg>
