<?xml version="1.0" encoding="utf-8"?>
<!-- Generator: Adobe Illustrator 25.4.1, SVG Export Plug-In . SVG Version: 6.00 Build 0)  -->
<svg version="1.1" id="Capa_1" xmlns="http://www.w3.org/2000/svg" xmlns:xlink="http://www.w3.org/1999/xlink" x="0px" y="0px"
	 viewBox="0 0 400 128" style="enable-background:new 0 0 400 128;" xml:space="preserve">
<style type="text/css">
	.st0{fill:#006AB2;}
	.st1{fill:#026BB2;}
</style>
<g>
	<g>
		<g>
			<path d="M31.84,124.98H14.72c-2.43,0-4.55-1.82-4.55-4.19V85.53c0-2.06,1.88-3.88,4.25-3.88c2.31,0,4.25,1.82,4.25,3.88v31.8
				h13.17c2.18,0,4.13,1.64,4.13,3.76C35.96,123.28,34.14,124.98,31.84,124.98z"/>
			<path d="M50.47,122.68c-0.61,1.76-2.55,2.85-4.01,2.85c-2.37,0-4.37-1.58-4.37-3.88c0-0.3,0.06-1.03,0.18-1.34l11.83-34.53
				c0.79-2.37,2-4.13,4.92-4.13c2.91,0,4.13,1.7,4.98,4.13l11.83,34.53c0.12,0.3,0.18,1.03,0.18,1.34c0,2.31-1.88,3.88-4.37,3.88
				c-1.58,0-3.52-1.15-4.13-2.85l-2.12-6.13H52.47L50.47,122.68z M60.12,99.25c-0.55-1.76-0.85-4.07-1.09-5.95
				c-0.24,1.88-0.55,4.19-1.09,5.95l-3.22,10.38h8.5L60.12,99.25z"/>
			<path d="M89.91,109.57c0,5.22,1.82,8.5,7.28,8.5c2.12,0,3.64-0.55,5.04-1.27v-9.47h-3.16c-2,0-3.82-1.7-3.82-3.82
				s1.82-3.82,3.82-3.82h6.62c2.79,0,4.98,1.34,4.98,4.25v13.41c0,5.71-7.53,8.13-13.78,8.13c-10.62,0-15.48-6.31-15.48-15.9V97.55
				c0-9.59,4.86-15.9,15.48-15.9c6.43,0,12.56,2.97,12.56,6.49c0,1.94-1.7,3.64-4.01,3.64c-1.4,0-1.82-0.42-2.61-0.91l-0.61-0.36
				c-1.52-0.91-3.1-1.46-5.04-1.46c-5.46,0-7.28,3.28-7.28,8.5V109.57z"/>
			<path d="M118.37,109.57V97.55c0-8.62,4.43-15.9,15.78-15.9c11.35,0,15.78,7.28,15.78,15.9v12.02c0,8.86-5.28,15.96-15.78,15.96
				S118.37,118.43,118.37,109.57z M126.87,97.55v12.02c0,4.86,2.31,8.25,7.28,8.25c4.98,0,7.28-3.4,7.28-8.25V97.55
				c0-4.92-1.94-8.19-7.28-8.19C128.81,89.36,126.87,92.63,126.87,97.55z"/>
			<path class="st0" d="M180.57,124.98h-16.08c-2.97,0-5.64-1.03-5.64-4.31V86.5c0-2.12,2-4.31,4.67-4.31h16.45
				c2.31,0,4.25,1.82,4.25,3.95c0,2.18-1.94,3.76-4.25,3.76h-12.62v9.77h11.47c2.12,0,4.19,1.64,4.19,3.82
				c0,2.18-1.82,3.88-4.19,3.88h-11.47v9.89h13.23c2.25,0,4.25,1.7,4.25,3.76C184.82,123.22,182.88,124.98,180.57,124.98z"/>
			<path class="st0" d="M214.98,123.4L200.9,98.88v22.7c0,2.12-2,3.95-4.31,3.95c-2.37,0-4.19-1.82-4.19-3.95V85.78
				c0-2.37,1.88-4.13,4.43-4.13c1.64,0,3.28,0.91,4.13,2.25c5.4,9.35,8.5,14.87,14.08,24.64V85.59c0-2.12,2-3.95,4.31-3.95
				c2.37,0,4.19,1.82,4.19,3.95v35.81c0,2.25-1.82,4.13-4.49,4.13C217.47,125.53,215.77,124.68,214.98,123.4z"/>
			<path d="M255.28,124.98h-17.11c-2.43,0-4.55-1.82-4.55-4.19V85.53c0-2.06,1.88-3.88,4.25-3.88c2.31,0,4.25,1.82,4.25,3.88v31.8
				h13.17c2.19,0,4.13,1.64,4.13,3.76C259.4,123.28,257.58,124.98,255.28,124.98z"/>
			<path d="M266.5,85.53c0-2.06,1.88-3.88,4.25-3.88c2.31,0,4.25,1.82,4.25,3.88v36.11c0,2.06-1.94,3.88-4.25,3.88
				c-2.37,0-4.25-1.82-4.25-3.88V85.53z M272.57,69.75l0.49-0.49c0.73-0.73,1.15-1.15,2.49-1.15c1.4,0,2.97,1.27,2.97,2.97
				c0,0.49-0.12,1.09-0.55,1.7l-4.98,4.98c-0.91,0.79-1.4,1.27-2.73,1.27c-1.7,0-3.1-1.21-3.1-2.97c0-0.61,0.12-1.03,0.49-1.52
				L272.57,69.75z"/>
			<path d="M307.65,123.4l-14.08-24.52v22.7c0,2.12-2,3.95-4.31,3.95c-2.37,0-4.19-1.82-4.19-3.95V85.78c0-2.37,1.88-4.13,4.43-4.13
				c1.64,0,3.28,0.91,4.13,2.25c5.4,9.35,8.5,14.87,14.08,24.64V85.59c0-2.12,2-3.95,4.31-3.95c2.37,0,4.19,1.82,4.19,3.95v35.81
				c0,2.25-1.82,4.13-4.49,4.13C310.13,125.53,308.43,124.68,307.65,123.4z"/>
			<path d="M348,124.98h-16.08c-2.97,0-5.64-1.03-5.64-4.31V86.5c0-2.12,2-4.31,4.67-4.31h16.45c2.31,0,4.25,1.82,4.25,3.95
				c0,2.18-1.94,3.76-4.25,3.76h-12.62v9.77h11.47c2.12,0,4.19,1.64,4.19,3.82c0,2.18-1.82,3.88-4.19,3.88h-11.47v9.89H348
				c2.25,0,4.25,1.7,4.25,3.76C352.25,123.22,350.31,124.98,348,124.98z"/>
			<path d="M366.93,122.68c-0.61,1.76-2.55,2.85-4.01,2.85c-2.37,0-4.37-1.58-4.37-3.88c0-0.3,0.06-1.03,0.18-1.34l11.83-34.53
				c0.79-2.37,2-4.13,4.92-4.13c2.91,0,4.13,1.7,4.98,4.13l11.84,34.53c0.12,0.3,0.18,1.03,0.18,1.34c0,2.31-1.88,3.88-4.37,3.88
				c-1.58,0-3.52-1.15-4.13-2.85l-2.12-6.13h-12.93L366.93,122.68z M376.58,99.25c-0.55-1.76-0.85-4.07-1.09-5.95
				c-0.24,1.88-0.55,4.19-1.09,5.95l-3.22,10.38h8.5L376.58,99.25z"/>
		</g>
	</g>
	<g>
		<path class="st1" d="M149.95,2.47c0.37,0.43,0.89,0.2,1.33,0.28c4.23,0.75,7.34,3.1,9.6,6.65c2.71,4.25,4.56,8.88,6,13.68
			c2.71,9.04,5.81,17.94,9.23,26.74c0.81,2.09,2.24,3.14,4.4,3.26c2.68,0.16,5.36,0.06,8.04,0.02c3.61-0.04,7.22-0.06,10.83-0.02
			c4.06,0.05,7.23-1.63,9.63-4.82c2.44-3.24,4.29-6.85,6.5-10.23c1.77-2.69,3.41-5.49,5.63-7.84c5.32-5.66,14.1-6.26,20.43-1.5
			c1.86,1.4,3.4,3.09,4.58,5.09c2.82,4.78,5.65,9.54,8.43,14.34c2.05,3.54,5.12,5.03,9.16,4.96c5.19-0.09,10.38-0.03,15.57-0.06
			c0.75,0,1.51-0.11,2.26-0.21c2.38-0.33,3.87-1.76,4.8-3.88c1.25-2.86,2.09-5.86,3.06-8.81c2.69-8.18,5.08-16.47,8.08-24.55
			c1.19-3.22,2.73-6.29,5.12-8.83c2.14-2.28,4.75-3.67,7.88-4.06c0.16-0.02,0.35,0.01,0.42-0.2c0.69,0,1.38,0,2.06,0
			c0.07,0.06,0.14,0.16,0.22,0.17c4.66,0.53,7.97,3.06,10.39,6.92c2.77,4.41,4.63,9.22,6.1,14.18c2.64,8.88,5.74,17.61,9.09,26.24
			c0.62,1.61,1.73,2.56,3.42,2.92c0.75,0.16,1.5,0.18,2.25,0.18c11.82-0.01,23.64-0.02,35.46-0.03c0.51,0,1.02-0.01,1.53,0.12
			c1.82,0.44,2.76,1.74,3.35,3.38c0,0.62,0,1.23,0,1.85c-0.06,0.07-0.15,0.14-0.19,0.22c-0.91,2.26-2.21,3.17-4.63,3.18
			c-7.81,0.03-15.61,0.05-23.42,0.07c-4.64,0.02-9.28-0.05-13.92-0.12c-4.67-0.07-8.04-2.14-10.51-5.95
			c-1.75-2.71-2.63-5.78-3.67-8.78c-2.93-8.47-5.41-17.09-8.45-25.52c-0.91-2.52-2-4.95-3.59-7.13c-0.67-0.92-1.42-1.76-2.35-2.43
			c-1.73-1.24-3.31-1.11-4.8,0.42c-1.32,1.35-2.08,3.05-2.89,4.71c-2.75,5.65-4.46,11.68-6.4,17.63c-1.53,4.68-3.01,9.38-4.56,14.05
			c-1.12,3.36-3.04,6.29-5.34,8.94c-2.82,3.25-6.68,4.21-10.78,4.22c-6.12,0-12.24-0.01-18.35-0.26c-5.05-0.2-9.04-2.61-11.93-6.74
			c-3.33-4.75-6.03-9.88-8.91-14.9c-0.53-0.92-1.06-1.84-1.73-2.67c-3.41-4.27-8.35-4.43-12.04-0.4c-0.98,1.07-1.75,2.28-2.53,3.49
			c-2.24,3.49-4.31,7.08-6.4,10.66c-2.31,3.95-5.21,7.3-9.5,9.25c-2.8,1.27-5.76,1.51-8.76,1.52c-5.98,0.02-11.97-0.04-17.95,0.01
			c-4.37,0.03-8.12-1.2-10.82-4.83c-1.26-1.69-2.2-3.54-2.92-5.51c-3.22-8.8-5.82-17.81-8.85-26.67c-1.13-3.3-2.25-6.61-4.16-9.58
			c-0.65-1.02-1.41-1.95-2.29-2.77c-2.14-1.97-4.31-1.79-6.05,0.56c-1.05,1.41-1.82,2.98-2.56,4.56
			c-2.61,5.56-4.32,11.45-6.19,17.28c-1.5,4.65-2.92,9.33-4.54,13.95c-1.16,3.31-3.04,6.22-5.3,8.86c-2.39,2.8-5.67,3.87-9.24,4.16
			c-3.95,0.32-7.9-0.05-11.85-0.05c-2.58,0-5.16-0.02-7.73-0.12c-5.41-0.21-9.54-2.72-12.55-7.14c-3.19-4.68-5.87-9.66-8.66-14.57
			c-0.75-1.31-1.54-2.59-2.64-3.66c-2.92-2.83-6.56-3.04-9.78-0.55c-1.12,0.87-2.03,1.94-2.82,3.12c-2.52,3.8-4.84,7.72-7.1,11.68
			c-1.45,2.54-3.13,4.92-5.34,6.88c-3.74,3.32-8.15,4.62-13.11,4.42c-3.12-0.13-6.25-0.16-9.38-0.2c-5.12-0.05-10.25-0.06-15.37-0.1
			c-1.95-0.01-3.54-1.08-4.17-2.78c-0.62-1.65-0.24-3.37,1.02-4.53c0.8-0.73,1.74-1.03,2.82-1.03c5.57,0,11.14,0,16.72-0.03
			c3.02-0.02,6.05-0.09,9.07-0.13c3.53-0.05,6.35-1.55,8.56-4.24c2.17-2.64,3.72-5.67,5.53-8.53c1.84-2.93,3.71-5.84,5.8-8.61
			c4.66-6.15,12.68-7.93,19.52-4.32c3.07,1.62,5.35,4.02,7.07,7c2.71,4.69,5.42,9.37,8.22,14c2.08,3.44,5.14,4.8,9.07,4.73
			c4.71-0.08,9.42-0.02,14.14-0.03c1.17,0,2.33-0.05,3.5-0.21c2.05-0.29,3.58-1.27,4.55-3.12c1.17-2.23,1.83-4.64,2.62-7
			c2.92-8.83,5.53-17.76,8.68-26.52c1.18-3.3,2.71-6.45,5.06-9.11c2.32-2.63,5.22-4.18,8.76-4.45c0.17-0.01,0.35,0.02,0.41-0.21
			C149.26,2.47,149.61,2.47,149.95,2.47z"/>
	</g>
</g>
</svg>
