<?xml version="1.0" encoding="utf-8"?>
<!-- Generator: Adobe Illustrator 25.4.1, SVG Export Plug-In . SVG Version: 6.00 Build 0)  -->
<svg version="1.1" id="Capa_1" xmlns="http://www.w3.org/2000/svg" xmlns:xlink="http://www.w3.org/1999/xlink" x="0px" y="0px"
	 viewBox="0 0 70 70" style="enable-background:new 0 0 70 70;" xml:space="preserve">
<style type="text/css">
	.st0{fill:#F4C81D;}
	.st1{display:none;}
	.st2{display:inline;}
	.st3{fill:none;stroke:#FFFFFF;stroke-width:2;stroke-miterlimit:10;}
	.st4{display:inline;fill:none;stroke:#F4C81D;stroke-width:2;stroke-miterlimit:10;}
	.st5{fill:none;stroke:#000000;stroke-miterlimit:10;}
	.st6{fill:none;stroke:#1D1D1B;stroke-width:0.5;stroke-miterlimit:10;}
	.st7{fill:#1D1D1B;}
	.st8{fill:none;stroke:#1D1D1B;stroke-width:0.25;stroke-miterlimit:10;}
</style>
<g id="Capa_1_00000124128735166985265460000010693202527732810881_">
	<circle class="st0" cx="35" cy="35" r="33.2"/>
	<g class="st1">
		<path class="st2" d="M29,50.8h-2.7c-0.1,0-0.2,0-0.2-0.1s-0.1-0.2-0.1-0.2l3.1-18.8c0-0.1,0.1-0.3,0.3-0.3h1.5
			c0.1,0,0.2,0,0.3,0.1l3.8,5.5c0,0,0,0,0.1,0c0,0,0.1,0,0.1,0l3.7-5.4c0.1-0.1,0.2-0.1,0.3-0.1h0.8c0.2,0,0.3,0.1,0.3,0.2L44,50.4
			c0,0.1,0,0.2-0.1,0.3s-0.2,0.1-0.2,0.1H41c-0.2,0-0.3-0.1-0.3-0.3l-1.8-15c0-0.1-0.1-0.1-0.1-0.1c0,0-0.1,0-0.1,0L35.1,41
			c-0.1,0.1-0.2,0.1-0.3,0.1c-0.1,0-0.2,0-0.3-0.1l-3.7-5.6c0-0.1-0.1,0-0.1,0c0,0-0.1,0-0.1,0.1l-1.5,15
			C29.3,50.7,29.1,50.8,29,50.8z M29.4,31.7c0,0-0.1,0-0.1,0.1l-3.1,18.8c0,0,0,0.1,0,0.1s0,0,0.1,0H29c0,0,0.1,0,0.1-0.1l1.5-15
			c0-0.1,0.1-0.2,0.2-0.3s0.3,0,0.3,0.1l3.7,5.6c0,0,0,0,0.1,0c0,0,0.1,0,0.1,0l3.6-5.6c0.1-0.1,0.2-0.2,0.3-0.1s0.2,0.1,0.2,0.3
			l1.8,15c0,0,0,0.1,0.1,0.1h2.7c0,0,0.1,0,0.1,0s0,0,0-0.1l-3.9-18.7c0,0,0-0.1-0.1-0.1H39c0,0-0.1,0-0.1,0l-3.7,5.4
			c-0.1,0.1-0.2,0.1-0.3,0.1c-0.1,0-0.2,0-0.3-0.1l-3.8-5.5c0,0,0,0-0.1,0C30.8,31.7,29.4,31.7,29.4,31.7z"/>
		<path class="st2" d="M42.2,31.7H27.6v-2.5h14.6V31.7z M27.9,31.5H42v-2.1H27.9V31.5z"/>
		<rect x="35.3" y="12.3" class="st2" width="0.2" height="11.2"/>
		<path class="st2" d="M41.7,29.4H28.2v-6h13.5V29.4z M28.4,29.2h13.1v-5.6H28.4V29.2z"/>
		<g class="st2">
			<path d="M32.3,15.2l-2.1-2.1l2.9-2.9l-3-3l2.1-2.1L35.2,8l3-2.9l2.1,2.1l-2.9,2.9l3,2.9l-2.1,2.1l-2.9-2.9L32.3,15.2z M30.5,13.1
				l1.8,1.8l3-2.9l2.9,2.9l1.8-1.8l-3-2.9L40,7.2l-1.8-1.8l-3,2.9l-2.9-2.9l-1.8,1.8l3,3L30.5,13.1z"/>
		</g>
		<path class="st2" d="M34.9,64.2c-7.4,0-13.4-6-13.4-13.4v-0.1h26.8v0.1C48.3,58.2,42.3,64.2,34.9,64.2z M21.7,50.9
			c0.1,7.2,6,13.1,13.2,13.1c7.2,0,13.2-5.9,13.2-13.1C48.1,50.9,21.7,50.9,21.7,50.9z"/>
		<path class="st2" d="M44.9,49.4l-20.2-0.2l1.7-9.9h16.3L44.9,49.4z M25,49l19.7,0.2l-2.1-9.8h-16L25,49z"/>
		<rect x="26.5" y="40.5" class="st2" width="16.4" height="0"/>
		<rect x="26.3" y="42.4" class="st2" width="17.1" height="0"/>
		<rect x="25.7" y="44.3" class="st2" width="17.9" height="0"/>
		<rect x="25.4" y="46.1" class="st2" width="18.7" height="0"/>
		<rect x="25" y="48" class="st2" width="19.3" height="0"/>
		
			<rect x="23.3" y="44.2" transform="matrix(9.760250e-02 -0.9952 0.9952 9.760250e-02 -18.5909 67.9275)" class="st2" width="9.7" height="0"/>
		
			<rect x="31.4" y="39.4" transform="matrix(1 -8.065765e-03 8.065765e-03 1 -0.3562 0.2552)" class="st2" width="0.1" height="9.9"/>
		<polygon class="st2" points="34.9,49.1 34.7,39.3 34.8,39.3 35,49.1 		"/>
		
			<rect x="38.5" y="39.3" transform="matrix(1 -8.328193e-03 8.328193e-03 1 -0.3664 0.322)" class="st2" width="0.1" height="9.8"/>
		<polygon class="st2" points="42,49.2 41.7,39.4 41.7,39.4 42,49.2 		"/>
	</g>
</g>
<g id="Capa_2_00000161628285660694864740000015409977283423922616_">
	<circle class="st3" cx="35" cy="35" r="33.2"/>
	<g>
		<path d="M29,50.8h-2.7c-0.1,0-0.2,0-0.2-0.1s-0.1-0.2-0.1-0.2l3.1-18.8c0-0.1,0.1-0.3,0.3-0.3h1.5c0.1,0,0.2,0,0.3,0.1l3.8,5.5
			c0,0,0,0,0.1,0c0,0,0.1,0,0.1,0l3.7-5.4c0.1-0.1,0.2-0.1,0.3-0.1h0.8c0.2,0,0.3,0.1,0.3,0.2L44,50.4c0,0.1,0,0.2-0.1,0.3
			s-0.2,0.1-0.2,0.1H41c-0.2,0-0.3-0.1-0.3-0.3l-1.8-15c0-0.1-0.1-0.1-0.1-0.1c0,0-0.1,0-0.1,0L35.1,41c-0.1,0.1-0.2,0.1-0.3,0.1
			c-0.1,0-0.2,0-0.3-0.1l-3.7-5.6c0-0.1-0.1,0-0.1,0c0,0-0.1,0-0.1,0.1l-1.5,15C29.3,50.7,29.1,50.8,29,50.8z M29.4,31.7
			c0,0-0.1,0-0.1,0.1l-3.1,18.8c0,0,0,0.1,0,0.1s0,0,0.1,0H29c0,0,0.1,0,0.1-0.1l1.5-15c0-0.1,0.1-0.2,0.2-0.3s0.3,0,0.3,0.1
			l3.7,5.6c0,0,0,0,0.1,0c0,0,0.1,0,0.1,0l3.6-5.6c0.1-0.1,0.2-0.2,0.3-0.1s0.2,0.1,0.2,0.3l1.8,15c0,0,0,0.1,0.1,0.1h2.7
			c0,0,0.1,0,0.1,0s0,0,0-0.1l-3.9-18.7c0,0,0-0.1-0.1-0.1H39c0,0-0.1,0-0.1,0l-3.7,5.4c-0.1,0.1-0.2,0.1-0.3,0.1
			c-0.1,0-0.2,0-0.3-0.1l-3.8-5.5c0,0,0,0-0.1,0C30.8,31.7,29.4,31.7,29.4,31.7z"/>
		<path d="M42.2,31.7H27.6v-2.5h14.6V31.7z M27.9,31.5H42v-2.1H27.9V31.5z"/>
		<rect x="35.3" y="12.3" width="0.2" height="11.2"/>
		<path d="M41.7,29.4H28.2v-6h13.5V29.4z M28.4,29.2h13.1v-5.6H28.4V29.2z"/>
		<g>
			<path d="M32.3,15.2l-2.1-2.1l2.9-2.9l-3-3l2.1-2.1L35.2,8l3-2.9l2.1,2.1l-2.9,2.9l3,2.9l-2.1,2.1l-2.9-2.9L32.3,15.2z M30.5,13.1
				l1.8,1.8l3-2.9l2.9,2.9l1.8-1.8l-3-2.9L40,7.2l-1.8-1.8l-3,2.9l-2.9-2.9l-1.8,1.8l3,3L30.5,13.1z"/>
		</g>
		<path d="M34.9,64.2c-7.4,0-13.4-6-13.4-13.4v-0.1h26.8v0.1C48.3,58.2,42.3,64.2,34.9,64.2z M21.7,50.9c0.1,7.2,6,13.1,13.2,13.1
			c7.2,0,13.2-5.9,13.2-13.1C48.1,50.9,21.7,50.9,21.7,50.9z"/>
		<path d="M44.9,49.4l-20.2-0.2l1.7-9.9h16.3L44.9,49.4z M25,49l19.7,0.2l-2.1-9.8h-16L25,49z"/>
		<rect x="26.5" y="40.5" width="16.4" height="0"/>
		<rect x="26.3" y="42.4" width="17.1" height="0"/>
		<rect x="25.7" y="44.3" width="17.9" height="0"/>
		<rect x="25.4" y="46.1" width="18.7" height="0"/>
		<rect x="25" y="48" width="19.3" height="0"/>
		<rect x="23.3" y="44.2" transform="matrix(9.760250e-02 -0.9952 0.9952 9.760250e-02 -18.5909 67.9275)" width="9.7" height="0"/>
		<rect x="31.4" y="39.4" transform="matrix(1 -8.065765e-03 8.065765e-03 1 -0.3562 0.2552)" width="0.1" height="9.9"/>
		<polygon points="34.9,49.1 34.7,39.3 34.8,39.3 35,49.1 		"/>
		<rect x="38.5" y="39.3" transform="matrix(1 -8.328193e-03 8.328193e-03 1 -0.3664 0.322)" width="0.1" height="9.8"/>
		<polygon points="42,49.2 41.7,39.4 41.7,39.4 42,49.2 		"/>
	</g>
</g>
<g id="Capa_3" class="st1">
	<circle class="st4" cx="35" cy="35" r="33.2"/>
	<g class="st2">
		<path d="M47.5,41.1l-8.8,7.3l-0.1-0.1c-1.9-2.3-1.4-5.8,1.1-7.8C42.3,38.4,45.6,38.7,47.5,41.1L47.5,41.1z M38.8,48l8.4-7
			c-1.8-2.1-4.9-2.3-7.3-0.4C37.6,42.5,37.1,45.8,38.8,48z"/>
		<path d="M35.3,29.3l-6.8,6l-4.4-5.2l6.8-5.7L35.3,29.3z M28.5,34.9l6.5-5.7l-4.1-4.5l-6.5,5.4L28.5,34.9z"/>
		<path d="M42.1,36.3l-7.3,6.2l-4.4-5l7-6.1L42.1,36.3z M34.8,42.1l6.9-5.8l-4.4-4.6l-6.7,5.8L34.8,42.1z"/>
		<polygon points="39.5,40.7 39.5,40.8 38.9,40.2 39,40.1 		"/>
		<rect x="43.6" y="44.5" transform="matrix(0.3095 -0.9509 0.9509 0.3095 -15.6181 74.7901)" width="0.1" height="7.3"/>
		<polygon points="47.1,49.2 47,49.3 45.5,42.6 45.7,42.6 		"/>
		<polygon points="47.1,49.2 47,49.2 43,44.7 43.1,44.7 		"/>
		<path d="M47.7,49.5c0,0.2-0.3,0.4-0.5,0.4c-0.3,0-0.4-0.3-0.4-0.5c0-0.3,0.3-0.4,0.5-0.4l0,0C47.6,49,47.8,49.2,47.7,49.5
			C47.7,49.5,47.7,49.5,47.7,49.5z M47,49.3L47,49.3c0,0.1,0.1,0.3,0.2,0.3c0.1,0,0.2-0.1,0.3-0.2c0-0.1-0.1-0.2-0.2-0.3
			C47.2,49.2,47.1,49.2,47,49.3z"/>
		<path d="M42.7,37.1l-7.3,6.2l-0.8-1l7.3-6.2L42.7,37.1z M35.5,42.9l6.9-5.9l-0.5-0.6L35,42.3L35.5,42.9z"/>
		<path d="M31.1,24.5l-6.8,5.7l-0.8-1l6.8-5.7L31.1,24.5z M24.3,29.9l6.5-5.4l-0.5-0.6l-6.5,5.4L24.3,29.9z"/>
		<path d="M36.4,32.5l-4.6,4l-2.2-2.4l4.5-4.1L36.4,32.5z M31.8,36.2l4.2-3.7l-2-2.2l-4.2,3.8L31.8,36.2z"/>
		<rect x="34" y="27.4" transform="matrix(0.7725 -0.635 0.635 0.7725 -9.3832 28.7675)" width="2.8" height="0.1"/>
		<polygon points="40.1,30.5 38,32.3 37.9,32.2 40,30.4 		"/>
		<rect x="29.4" y="38.9" transform="matrix(0.7211 -0.6928 0.6928 0.7211 -18.507 31.9399)" width="2.1" height="0.1"/>
		<rect x="25.7" y="35" transform="matrix(0.7284 -0.6851 0.6851 0.7284 -16.7091 27.9239)" width="2.3" height="0.1"/>
		<path d="M39.5,26.8l-1.6,1.4l-2.2-2.5l1.6-1.4L39.5,26.8z M37.9,28l1.4-1.2l-2-2.3l-1.4,1.2L37.9,28z"/>
		<path d="M41.4,25.1l-1.6,1.4L37.6,24l1.6-1.4L41.4,25.1z M39.8,26.3l1.4-1.2l-2-2.3l-1.4,1.2L39.8,26.3z"/>
		<path d="M43.2,23.4l-1.6,1.4l-2.2-2.5L41,21L43.2,23.4z M41.7,24.6l1.4-1.2l-2-2.3l-1.4,1.2L41.7,24.6z"/>
		<path d="M45.1,21.7l-1.6,1.4l-2.2-2.5l1.6-1.4L45.1,21.7z M43.5,23l1.4-1.2l-2-2.3l-1.4,1.2L43.5,23z"/>
		<path d="M46.9,20l-1.6,1.4L43.2,19l1.6-1.4L46.9,20z M45.4,21.3l1.4-1.2l-2-2.3L43.3,19L45.4,21.3z"/>
		<path d="M48.8,18.3l-1.6,1.4L45,17.3l1.6-1.4L48.8,18.3z M47.2,19.6l1.4-1.2l-2-2.3l-1.4,1.2L47.2,19.6z"/>
		<path d="M50.7,16.6L49.1,18l-2.2-2.5l1.6-1.4L50.7,16.6z M49.1,17.9l1.4-1.2l-2-2.3l-1.4,1.2L49.1,17.9z"/>
		<path d="M52.5,14.9l-1.6,1.4l-2.2-2.5l1.6-1.4L52.5,14.9z M51,16.2l1.4-1.2l-2-2.3l-1.4,1.2L51,16.2z"/>
		<path d="M42.2,29.7l-1.6,1.4l-2.2-2.5l1.6-1.4L42.2,29.7z M40.6,31l1.4-1.2l-2-2.3l-1.4,1.2L40.6,31z"/>
		<path d="M44,28l-1.6,1.4L40.3,27l1.6-1.4L44,28z M42.5,29.3l1.4-1.2l-2-2.3L40.5,27L42.5,29.3z"/>
		<path d="M45.9,26.3l-1.6,1.4l-2.2-2.5l1.6-1.4L45.9,26.3z M44.3,27.6l1.4-1.2l-2-2.3l-1.4,1.2L44.3,27.6z"/>
		<path d="M47.8,24.6L46.2,26L44,23.6l1.6-1.4L47.8,24.6z M46.2,25.9l1.4-1.2l-2-2.3l-1.4,1.2L46.2,25.9z"/>
		<path d="M49.6,23l-1.6,1.4l-2.2-2.5l1.6-1.4L49.6,23z M48.1,24.2l1.4-1.2l-2-2.3L46,21.9L48.1,24.2z"/>
		<path d="M51.5,21.3l-1.6,1.4l-2.2-2.5l1.6-1.4L51.5,21.3z M49.9,22.5l1.4-1.2l-2-2.3l-1.4,1.2L49.9,22.5z"/>
		<path d="M53.3,19.6L51.8,21l-2.2-2.5l1.6-1.4L53.3,19.6z M51.8,20.8l1.4-1.2l-2-2.3l-1.4,1.2L51.8,20.8z"/>
		<path d="M55.2,17.9l-1.6,1.4l-2.2-2.5l1.6-1.4L55.2,17.9z M53.7,19.1l1.4-1.2l-2-2.3l-1.4,1.2L53.7,19.1z"/>
		<path d="M14.4,49.1l-1.6,1.4L10.7,48l1.6-1.4L14.4,49.1z M12.9,50.3l1.4-1.2l-2-2.3l-1.4,1.2L12.9,50.3z"/>
		<path d="M16.3,47.4l-1.6,1.4l-2.2-2.5l1.6-1.4L16.3,47.4z M14.7,48.7l1.4-1.2l-2-2.3l-1.4,1.2L14.7,48.7z"/>
		<path d="M18.1,45.7l-1.6,1.4l-2.2-2.5l1.6-1.4L18.1,45.7z M16.6,47l1.4-1.2l-2-2.3l-1.4,1.2L16.6,47z"/>
		<path d="M20,44l-1.6,1.4L16.2,43l1.6-1.4L20,44z M18.4,45.3l1.4-1.2l-2-2.3L16.4,43L18.4,45.3z"/>
		<path d="M21.8,42.3l-1.6,1.4l-2.2-2.5l1.6-1.4L21.8,42.3z M20.3,43.6l1.4-1.2l-2-2.3l-1.4,1.2L20.3,43.6z"/>
		<path d="M23.7,40.7L22.1,42L20,39.6l1.6-1.4L23.7,40.7z M22.1,41.9l1.4-1.2l-2-2.3l-1.4,1.2L22.1,41.9z"/>
		<path d="M25.6,39L24,40.3l-2.2-2.5l1.6-1.4L25.6,39z M24,40.2l1.4-1.2l-2-2.3L22,37.9L24,40.2z"/>
		<path d="M27.4,37.3l-1.6,1.4l-2.2-2.5l1.6-1.4L27.4,37.3z M25.9,38.5l1.4-1.2l-2-2.3l-1.4,1.2L25.9,38.5z"/>
		<path d="M17.1,52l-1.6,1.4L13.3,51l1.6-1.4L17.1,52z M15.5,53.3l1.4-1.2l-2-2.3L13.5,51L15.5,53.3z"/>
		<path d="M19,50.3l-1.6,1.4l-2.2-2.5l1.6-1.4L19,50.3z M17.4,51.6l1.4-1.2l-2-2.3l-1.4,1.2L17.4,51.6z"/>
		<path d="M20.8,48.7L19.2,50l-2.2-2.5l1.6-1.4L20.8,48.7z M19.3,49.9l1.4-1.2l-2-2.3l-1.4,1.2L19.3,49.9z"/>
		<path d="M22.7,47l-1.6,1.4l-2.2-2.5l1.6-1.4L22.7,47z M21.1,48.2l1.4-1.2l-2-2.3l-1.4,1.2L21.1,48.2z"/>
		<path d="M24.5,45.3L23,46.6l-2.2-2.5l1.6-1.4L24.5,45.3z M23,46.5l1.4-1.2l-2-2.3l-1.4,1.2L23,46.5z"/>
		<path d="M26.4,43.6L24.8,45l-2.2-2.5l1.6-1.4L26.4,43.6z M24.8,44.8l1.4-1.2l-2-2.3l-1.4,1.2L24.8,44.8z"/>
		<path d="M28.2,41.9l-1.6,1.4l-2.2-2.5l1.6-1.4L28.2,41.9z M26.7,43.1l1.4-1.2l-2-2.3l-1.4,1.2L26.7,43.1z"/>
		<path d="M30.1,40.2l-1.6,1.4l-2.2-2.5l1.6-1.4L30.1,40.2z M28.6,41.4l1.4-1.2l-2-2.3l-1.4,1.2L28.6,41.4z"/>
		<path class="st5" d="M24.3,30.1"/>
		<path d="M28.7,25.2l-3.3,2.7l-0.8-1l3.3-2.7L28.7,25.2z M25.4,27.6l2.9-2.4l-0.5-0.6L24.9,27L25.4,27.6z"/>
	</g>
</g>
<g id="Capa_4" class="st1">
	<circle class="st4" cx="35" cy="35" r="33.2"/>
	<g class="st2">
		<path class="st6" d="M46,25.8c-0.3,3.1-6.3,5.4-10.6,9.8c-4.6,4-7.4,9.8-10.4,10c-1.5,0-3-2.2-3-5.8c0-3.5,1.6-8.6,5.7-12.3
			c4-3.9,9.1-5.2,12.6-5C44,22.7,46.1,24.4,46,25.8z"/>
		<path class="st7" d="M31.8,24c0,0-0.1,0.1-0.2,0c-0.1,0-0.2-0.1-0.1-0.3c0.4-1.3-0.3-2.1-1-2.9c-0.7-0.7-1.4-1.5-0.7-2.6
			c0.1-0.1,0.2-0.1,0.3-0.1s0.1,0.2,0.1,0.3c-0.5,0.8-0.1,1.3,0.7,2.1C31.5,21.5,32.3,22.4,31.8,24C31.9,24,31.8,24,31.8,24z"/>
		<path class="st7" d="M34.6,23.1c-0.1,0.1-0.2,0.1-0.3,0c-0.1-0.1-0.1-0.2-0.1-0.3c0.4-0.7,0-2-0.4-3.2c-0.4-1.1-0.7-2.1-0.3-2.6
			c0.1-0.1,0.2-0.1,0.3-0.1c0.1,0.1,0.1,0.2,0.1,0.3c-0.2,0.4,0.1,1.3,0.4,2.3C34.7,20.9,35.2,22.2,34.6,23.1
			C34.6,23.1,34.6,23.1,34.6,23.1z"/>
		<path class="st7" d="M37.4,22.4C37.4,22.4,37.3,22.4,37.4,22.4c-0.1,0.1-0.3,0.1-0.3,0c-0.6-0.9-0.5-2-0.3-3.1
			c0.2-1.1,0.3-2.1-0.4-2.7c-0.1-0.1-0.1-0.2,0-0.3s0.2-0.1,0.3,0c0.8,0.8,0.7,1.9,0.5,3c-0.1,1-0.3,2,0.2,2.8
			C37.5,22.2,37.4,22.3,37.4,22.4z"/>
		<path class="st7" d="M40.2,22.2c0,0-0.1,0.1-0.2,0c-0.1,0-0.2-0.1-0.1-0.3c0.5-1.5,0-2.7-0.4-3.7c-0.3-0.8-0.6-1.6-0.2-2.2
			c0.1-0.1,0.2-0.1,0.3-0.1c0.1,0.1,0.1,0.2,0.1,0.3c-0.2,0.4,0,1,0.3,1.8c0.4,1.1,0.9,2.4,0.4,4C40.3,22.1,40.2,22.1,40.2,22.2z"/>
		<path class="st7" d="M43,22.6c-0.1,0.1-0.2,0.1-0.3,0c-0.1-0.1-0.1-0.2-0.1-0.3c0.8-1.1,0.5-2.5,0.3-3.7c-0.2-1-0.3-1.9,0.2-2.5
			c0.1-0.1,0.2-0.1,0.3,0c0.1,0.1,0.1,0.2,0,0.3c-0.4,0.5-0.2,1.3-0.1,2.2C43.6,19.8,43.9,21.3,43,22.6C43,22.5,43,22.6,43,22.6z"/>
		<path class="st7" d="M44.9,23.1c-0.1,0.1-0.2,0.1-0.3,0c-0.1-0.1-0.1-0.2,0-0.3c0,0,2.5-2.4,2.6-5.1c0-0.1,0.1-0.2,0.2-0.2
			c0.1,0,0.2,0.1,0.2,0.2C47.5,20.6,45,23,44.9,23.1L44.9,23.1z"/>
		<path class="st7" d="M50.8,21c0,0-0.1,0-0.1,0.1c-1.1,0.1-1.4,0.7-1.9,1.4c-0.5,0.8-1.1,1.7-2.8,2.2c-0.1,0-0.2,0-0.3-0.1
			c0-0.1,0-0.2,0.1-0.3c1.5-0.4,2-1.2,2.5-2c0.5-0.7,0.9-1.4,2.2-1.6c0.1,0,0.2,0.1,0.2,0.2C50.8,20.9,50.8,21,50.8,21z"/>
		<path class="st7" d="M52.5,25.5c0,0-0.1,0.1-0.2,0c-2.3-0.6-5.6,1-5.6,1.1c-0.1,0-0.2,0-0.3-0.1c0-0.1,0-0.2,0.1-0.3
			c0.1-0.1,3.4-1.8,5.9-1.1c0.1,0,0.2,0.1,0.2,0.3C52.6,25.4,52.6,25.4,52.5,25.5z"/>
		<path class="st7" d="M51.1,29.7C51.1,29.7,51.1,29.7,51.1,29.7c-1.7,0.5-2.6,0-3.5-0.4c-0.6-0.3-1.3-0.7-2.3-0.8
			c-0.1,0-0.2-0.1-0.2-0.2c0-0.1,0.1-0.2,0.2-0.2c1.1,0.1,1.8,0.5,2.5,0.8c0.9,0.5,1.6,0.8,3.1,0.4c0.1,0,0.2,0,0.3,0.1
			C51.2,29.5,51.2,29.6,51.1,29.7z"/>
		<path class="st7" d="M48.6,32.3c0,0-0.1,0.1-0.1,0.1c-0.1,0-0.2-0.1-0.2-0.2c0-0.4-0.3-0.4-1.2-0.4c-1.1,0-2.7,0-4.2-1.5
			c-0.1-0.1-0.1-0.2,0-0.3s0.2-0.1,0.3,0c1.3,1.3,2.8,1.3,3.9,1.3c0.9,0,1.6,0,1.7,0.9C48.6,32.2,48.6,32.3,48.6,32.3z"/>
		<path class="st7" d="M46,34.6c0,0-0.1,0-0.1,0.1c-0.1,0-0.2-0.1-0.2-0.2c-0.1-0.5-0.8-0.7-2-0.8c-1.1-0.1-2.4-0.3-3.4-1.1
			c-0.1-0.1-0.1-0.2,0-0.3c0.1-0.1,0.2-0.1,0.3,0c0.9,0.7,2.1,0.9,3.2,1c1.2,0.2,2.2,0.3,2.4,1.2C46,34.4,46,34.5,46,34.6z"/>
		<path class="st7" d="M43.3,36.6c0,0-0.1,0-0.1,0c-0.1,0-0.2-0.1-0.2-0.2c-0.1-0.5-0.4-0.5-1.2-0.5c-1,0-2.5-0.1-4.2-1.4
			c-0.1-0.1-0.1-0.2,0-0.3c0.1-0.1,0.2-0.1,0.3,0c1.6,1.2,3,1.3,4,1.3c0.8,0,1.5,0,1.6,0.9C43.3,36.5,43.3,36.5,43.3,36.6z"/>
		<path class="st7" d="M41.2,39.1C41.1,39.1,41.1,39.1,41.2,39.1c-0.2,0.1-0.3,0-0.3-0.1c-0.3-1.5-3.9-1.8-5.3-1.9
			c-0.1,0-0.2-0.1-0.2-0.2c0-0.1,0.1-0.2,0.2-0.2c0.2,0,5.3,0.1,5.7,2.2C41.2,39,41.2,39,41.2,39.1z"/>
		<path class="st7" d="M39.6,40.8C39.6,40.8,39.6,40.8,39.6,40.8c-1.5,0.3-5.6-1.7-6.1-2c-0.1,0-0.2-0.2-0.1-0.3
			c0-0.1,0.2-0.2,0.3-0.1c1.2,0.6,4.7,2.2,5.7,2c0.1,0,0.2,0,0.2,0.2C39.7,40.7,39.7,40.8,39.6,40.8z"/>
		<path class="st7" d="M37.9,42.8c0,0-0.1,0-0.1,0.1c-1.4,0.2-2.2-0.3-3.1-0.8c-0.8-0.5-1.6-1-3-1.1c-0.1,0-0.2-0.1-0.2-0.2
			c0-0.1,0.1-0.2,0.2-0.2c1.5,0.1,2.4,0.7,3.2,1.1c0.8,0.5,1.5,1,2.8,0.8c0.1,0,0.2,0.1,0.2,0.2C38,42.7,37.9,42.8,37.9,42.8z"/>
		<path class="st7" d="M35.5,45.2C35.5,45.2,35.4,45.2,35.5,45.2c-0.1,0.1-0.2,0.1-0.3,0c-1.2-1.7-5.3-2-5.4-2
			c-0.1,0-0.2-0.1-0.2-0.2c0-0.1,0.1-0.2,0.2-0.2c0.2,0,4.4,0.3,5.7,2.1C35.5,45,35.5,45.1,35.5,45.2z"/>
		<path class="st7" d="M33.2,47.4C33.2,47.4,33.1,47.4,33.2,47.4c-0.2,0.1-0.3,0-0.3-0.1c-0.2-0.9-1.2-1-2.4-1.2
			c-1.1-0.1-2.3-0.3-2.8-1.3c0-0.1,0-0.2,0.1-0.3s0.2,0,0.3,0.1c0.4,0.8,1.4,0.9,2.5,1.1c1.2,0.2,2.4,0.3,2.7,1.5
			C33.3,47.2,33.2,47.3,33.2,47.4z"/>
		<path class="st7" d="M28.8,51.5c-0.1,0.1-0.2,0.1-0.3,0c-0.1-0.1-0.1-0.2,0-0.3c1.6-1.9-2.1-5.1-2.1-5.2c-0.1-0.1-0.1-0.2,0-0.3
			s0.2-0.1,0.3,0C26.8,45.9,30.6,49.3,28.8,51.5C28.8,51.5,28.8,51.5,28.8,51.5z"/>
		<path class="st7" d="M23.2,51.9c-0.1,0-0.1,0.1-0.2,0c-0.2-0.1-0.3-0.2-0.4-0.4c-0.2-0.5,0.3-1.4,0.9-2.5c0.5-1,1.1-2,1.1-2.8
			c0-0.1,0.1-0.2,0.2-0.2c0.1,0,0.2,0.1,0.2,0.2c0,0.8-0.6,1.9-1.2,3c-0.5,0.8-1,1.8-0.9,2.1c0,0,0,0.1,0.1,0.1
			C23.3,51.5,23.3,51.7,23.2,51.9C23.2,51.8,23.2,51.8,23.2,51.9z"/>
		<path class="st7" d="M22.1,47.2c-0.5,0.4-0.9,0.7-1.3,1c-0.6,0.4-1.1,0.7-1.3,1.3c0,0.1-0.2,0.2-0.3,0.1c-0.1,0-0.2-0.2-0.1-0.3
			c0.2-0.7,0.8-1.1,1.5-1.5c0.8-0.5,1.8-1.2,2.6-2.8c0-0.1,0.2-0.2,0.3-0.1c0.1,0,0.1,0.2,0.1,0.3C23,46.2,22.5,46.8,22.1,47.2z"/>
		<path class="st7" d="M19.2,45.6c-0.4,0.4-1.1,0.8-2.1,1c-0.1,0-0.2,0-0.3-0.2c0-0.1,0-0.2,0.2-0.3c1.7-0.4,2.2-1.2,2.7-1.9
			c0.4-0.6,0.8-1.3,1.8-1.8c0.1,0,0.2,0,0.3,0.1c0,0.1,0,0.2-0.1,0.3c-0.9,0.5-1.3,1-1.7,1.6C19.8,44.9,19.6,45.3,19.2,45.6z"/>
		<path class="st7" d="M20.5,41.4c-0.7,0.7-1.5,0.9-2.2,1.1c-0.6,0.2-1.2,0.3-1.7,0.8l0,0c-0.1,0.1-0.2,0.1-0.3,0
			c-0.1-0.1-0.1-0.2,0-0.3c0.6-0.5,1.2-0.7,1.9-0.9c1-0.3,2.1-0.6,3-2.4c0-0.1,0.2-0.1,0.3-0.1c0.1,0,0.1,0.2,0.1,0.3
			C21.2,40.6,20.8,41.1,20.5,41.4z"/>
		<path class="st7" d="M21.9,37.3c0,0-0.1,0-0.1,0c-1.5,0.3-2.5,1-3.2,1.6c-0.8,0.6-1.4,1-2.1,0.6c-0.1-0.1-0.1-0.2-0.1-0.3
			c0.1-0.1,0.2-0.1,0.3-0.1c0.5,0.3,0.9,0,1.6-0.6c0.8-0.6,1.8-1.3,3.4-1.7c0.1,0,0.2,0,0.2,0.2C22,37.2,22,37.3,21.9,37.3z"/>
		<path class="st7" d="M22.2,35.2L22.2,35.2c-1,0.8-1.9,0.5-2.8,0.1c-0.8-0.3-1.7-0.6-2.8-0.3c-0.1,0-0.2,0-0.2-0.2
			c0-0.1,0-0.2,0.2-0.2c1.3-0.3,2.2,0.1,3.1,0.4c0.9,0.3,1.5,0.6,2.4-0.1c0.1-0.1,0.2-0.1,0.3,0C22.3,35,22.3,35.1,22.2,35.2z"/>
		<path class="st7" d="M23.8,32.2c-0.1,0.1-0.2,0.1-0.3,0c-0.8-0.8-2.4-0.5-3.6-0.2c-1.1,0.2-1.9,0.4-2.2-0.1
			c-0.1-0.1,0-0.2,0.1-0.3c0.1-0.1,0.2,0,0.3,0.1c0.2,0.3,1,0.1,1.8,0c1.3-0.3,3-0.6,4,0.4C23.9,32,23.9,32.1,23.8,32.2
			C23.8,32.2,23.8,32.2,23.8,32.2z"/>
		<path class="st7" d="M25.5,29.2c0,0-0.1,0.1-0.2,0c-1.3-0.4-4.9-1.1-5.6,0c-0.1,0.1-0.2,0.1-0.3,0c-0.1-0.1-0.1-0.2,0-0.3
			c1-1.5,5.6-0.3,6.1-0.2c0.1,0,0.2,0.1,0.1,0.3C25.6,29.1,25.5,29.2,25.5,29.2z"/>
		<path class="st7" d="M27.4,27.3C27.4,27.3,27.4,27.3,27.4,27.3c-0.1,0.1-0.2,0.1-0.3,0c-0.8-1.2-2-1.4-3-1.7
			c-0.9-0.2-1.8-0.4-2.1-1.3c0-0.1,0-0.2,0.1-0.3c0.1,0,0.2,0,0.3,0.1c0.2,0.6,0.8,0.8,1.8,1c1,0.2,2.4,0.5,3.3,1.8
			C27.5,27.1,27.5,27.2,27.4,27.3z"/>
		<path class="st7" d="M29.6,25.5C29.6,25.6,29.6,25.6,29.6,25.5c-0.1,0.1-0.3,0.1-0.3,0c-0.5-0.8-1.1-1.3-1.6-1.7
			c-0.9-0.7-1.6-1.3-1.4-2.8c0-0.1,0.1-0.2,0.2-0.2c0.1,0,0.2,0.1,0.2,0.2c-0.1,1.3,0.5,1.8,1.3,2.4c0.6,0.5,1.2,1,1.7,1.9
			C29.7,25.4,29.7,25.5,29.6,25.5z"/>
		<g>
			<path class="st8" d="M36.8,25.9c0.7,0.8,0.7,2-0.1,2.7c-0.8,0.7-2,0.7-2.7-0.1c-0.7-0.8-0.7-2,0.1-2.7S36.1,25.2,36.8,25.9z"/>
		</g>
		<path class="st8" d="M31.5,31c0.3,0.4,0.3,0.9,0,1.3c-0.4,0.3-0.9,0.3-1.3,0c-0.3-0.4-0.3-0.9,0-1.3C30.5,30.7,31.1,30.7,31.5,31z
			"/>
		<path class="st8" d="M31.8,35.9c0.3,0.3,0.3,0.8,0,1c-0.3,0.3-0.8,0.3-1,0c-0.3-0.3-0.3-0.8,0-1C31,35.6,31.5,35.6,31.8,35.9z"/>
		<path class="st8" d="M27.3,37.9c0.2,0.2,0.2,0.5,0,0.6c-0.2,0.2-0.5,0.2-0.6,0s-0.2-0.5,0-0.6C26.9,37.7,27.1,37.7,27.3,37.9z"/>
		<path class="st8" d="M25.9,34.4c0.1,0.1,0.1,0.3,0,0.4s-0.3,0.1-0.4,0s-0.1-0.3,0-0.4C25.6,34.3,25.8,34.3,25.9,34.4z"/>
		<path class="st8" d="M25.1,36c0.3,0.3,0.2,0.7,0,1c-0.3,0.3-0.7,0.2-1,0s-0.2-0.7,0-1C24.4,35.8,24.9,35.8,25.1,36z"/>
		<path class="st8" d="M26,42.3c0.3,0.3,0.2,0.7,0,1c-0.3,0.3-0.7,0.2-1,0s-0.2-0.7,0-1C25.3,42.1,25.7,42.1,26,42.3z"/>
		<path class="st8" d="M38.7,30.3c0.3,0.3,0.2,0.7,0,1c-0.3,0.3-0.7,0.2-1,0s-0.2-0.7,0-1S38.5,30,38.7,30.3z"/>
		<path class="st8" d="M43.3,26.5c0.2,0.2,0.2,0.6,0,0.8c-0.2,0.2-0.6,0.2-0.8,0c-0.2-0.2-0.2-0.6,0-0.8
			C42.7,26.3,43.1,26.3,43.3,26.5z"/>
		<path class="st8" d="M31.2,26.5c0.1,0.1,0.1,0.4,0,0.5c-0.1,0.1-0.4,0.1-0.5,0c-0.1-0.1-0.1-0.4,0-0.5
			C30.8,26.4,31,26.4,31.2,26.5z"/>
		<path class="st8" d="M27.1,30.5c0.2,0.2,0.2,0.5,0,0.6c-0.2,0.2-0.5,0.2-0.6,0c-0.2-0.2-0.2-0.5,0-0.6
			C26.6,30.3,26.9,30.3,27.1,30.5z"/>
	</g>
</g>
</svg>
