<?xml version="1.0" encoding="utf-8"?>
<!-- Generator: Adobe Illustrator 25.4.1, SVG Export Plug-In . SVG Version: 6.00 Build 0)  -->
<svg version="1.1" id="Capa_1" xmlns="http://www.w3.org/2000/svg" xmlns:xlink="http://www.w3.org/1999/xlink" x="0px" y="0px"
	 viewBox="0 0 281 389.19" style="enable-background:new 0 0 281 389.19;" xml:space="preserve">
<style type="text/css">
	.st0{fill:none;stroke:#FACE1D;stroke-width:2;stroke-miterlimit:10;}
	.st1{fill:#43CABF;}
	.st2{fill:#026BB2;}
	.st3{fill:#FFFFFF;}
</style>
<g>
	<line class="st0" x1="276.91" y1="378.59" x2="70.42" y2="96.19"/>
	<line class="st0" x1="70.26" y1="96.12" x2="218.06" y2="384.19"/>
	<circle class="st0" cx="51.76" cy="53.02" r="47.46"/>
</g>
<g>
	<path class="st1" d="M38.48,84.97l-0.25-0.1c-1.38-0.54-2.43-1.77-2.9-3.47c-0.71-2.55,0.01-5.54,1.92-8
		c7.53-9.73,19.36-15.12,31.64-14.43c1.1,0.06,2.17,0.28,3.16,0.65c3.75,1.4,5.88,4.76,4.85,7.65l-0.03,0.1
		c-1.26,3.59-5.4,5.07-8.7,4.93c-7.91-0.44-15.52,3.03-20.36,9.28C45.77,84.14,41.99,86.29,38.48,84.97z"/>
	<path class="st2" d="M68.22,71.07c-8.28-0.46-16.31,3.2-21.38,9.75c-1.96,2.47-5.24,4.07-8.02,2.97c-0.03-0.02-0.07-0.03-0.1-0.04
		c-2.77-1.08-3.46-5.78-0.5-9.6c7.27-9.39,18.76-14.63,30.61-13.96c4.83,0.27,7.93,3.88,6.93,6.67c-0.01,0.03-0.02,0.07-0.03,0.1
		C74.72,69.79,71.36,71.21,68.22,71.07z"/>
	<path class="st1" d="M62.1,59.47l-0.14-3.02c1.02-0.24,1.75-1.01,1.7-1.89c-0.06-1-1.13-1.75-2.39-1.67
		c-1.26,0.08-2.23,0.96-2.16,1.96c0.06,0.91,0.96,1.61,2.07,1.66l0.14,2.99c0.01,0.22,0.19,0.38,0.41,0.37l0.01,0
		C61.94,59.87,62.11,59.69,62.1,59.47z"/>
	<path class="st1" d="M55.78,60.68l-0.53-2.98c0.98-0.37,1.6-1.23,1.43-2.09c-0.19-0.99-1.35-1.59-2.59-1.34
		c-1.24,0.24-2.08,1.24-1.89,2.22c0.18,0.9,1.16,1.47,2.27,1.38l0.53,2.95c0.04,0.21,0.24,0.35,0.45,0.32l0.01,0
		C55.68,61.1,55.82,60.89,55.78,60.68z"/>
	<path class="st1" d="M49.92,63.24l-1.21-2.77c0.87-0.59,1.27-1.57,0.91-2.37c-0.42-0.91-1.68-1.23-2.83-0.71
		c-1.15,0.52-1.74,1.69-1.32,2.6c0.38,0.83,1.47,1.16,2.53,0.82l1.2,2.75c0.09,0.2,0.32,0.29,0.52,0.2l0.01,0
		C49.92,63.67,50.01,63.44,49.92,63.24z"/>
	<path class="st1" d="M44.5,66.78l-1.5-2.63c0.8-0.68,1.1-1.7,0.65-2.45c-0.51-0.86-1.81-1.04-2.89-0.4
		c-1.09,0.64-1.55,1.86-1.04,2.73c0.47,0.79,1.58,1,2.6,0.54l1.48,2.6c0.11,0.19,0.35,0.25,0.54,0.15l0.01,0
		C44.54,67.21,44.61,66.97,44.5,66.78z"/>
	<path class="st1" d="M39.95,70.75l-2.28-1.99c0.53-0.9,0.48-1.97-0.19-2.53c-0.77-0.65-2.05-0.39-2.86,0.57
		c-0.81,0.96-0.85,2.27-0.08,2.92c0.7,0.59,1.82,0.42,2.63-0.34l2.26,1.97c0.16,0.14,0.41,0.13,0.55-0.04l0-0.01
		C40.13,71.14,40.12,70.9,39.95,70.75z"/>
	<path class="st1" d="M36.31,75.57l-2.83-1.06c0.18-1.03-0.24-2.01-1.07-2.3c-0.95-0.34-2.06,0.35-2.48,1.54
		c-0.42,1.19,0,2.42,0.95,2.76c0.86,0.31,1.86-0.25,2.35-1.25l2.81,1.05c0.2,0.08,0.43-0.03,0.5-0.23l0-0.01
		C36.62,75.87,36.52,75.65,36.31,75.57z"/>
	<path class="st1" d="M35.49,80l-2.74,1.28c-0.61-0.85-1.61-1.23-2.39-0.84c-0.9,0.44-1.18,1.72-0.63,2.85
		c0.55,1.13,1.73,1.69,2.64,1.25c0.82-0.4,1.12-1.5,0.75-2.55l2.71-1.27c0.2-0.09,0.28-0.33,0.19-0.52l0-0.01
		C35.92,79.99,35.69,79.91,35.49,80z"/>
	<path class="st1" d="M38.11,84.41l-1.31,2.73c-1.01-0.27-2.02,0.06-2.39,0.86c-0.42,0.91,0.17,2.08,1.32,2.61
		c1.14,0.53,2.41,0.21,2.83-0.7c0.38-0.83-0.08-1.87-1.03-2.45l1.3-2.7c0.09-0.19,0.01-0.43-0.18-0.52l-0.01,0
		C38.44,84.13,38.21,84.21,38.11,84.41z"/>
	<path class="st1" d="M42.74,84.62l1.01,2.85c-0.91,0.52-1.38,1.48-1.08,2.3c0.35,0.94,1.59,1.35,2.77,0.91
		c1.18-0.44,1.86-1.56,1.51-2.5c-0.32-0.86-1.38-1.26-2.46-1l-1-2.83c-0.07-0.2-0.3-0.31-0.5-0.24l-0.01,0
		C42.77,84.19,42.67,84.42,42.74,84.62z"/>
	<path class="st1" d="M47.36,81.5l2.01,2.26c-0.64,0.83-0.72,1.89-0.12,2.53c0.68,0.74,1.98,0.64,2.91-0.21
		c0.93-0.85,1.12-2.15,0.44-2.88c-0.62-0.67-1.76-0.65-2.66,0.01l-2-2.23c-0.14-0.16-0.39-0.18-0.55-0.03l-0.01,0.01
		C47.23,81.09,47.22,81.34,47.36,81.5z"/>
	<path class="st1" d="M52.46,76.55l2.01,2.25c-0.64,0.83-0.72,1.89-0.12,2.53c0.68,0.74,1.98,0.64,2.91-0.21
		c0.93-0.86,1.12-2.15,0.44-2.88c-0.62-0.67-1.76-0.65-2.66,0.01l-2-2.23c-0.14-0.16-0.39-0.18-0.55-0.03l-0.01,0.01
		C52.33,76.14,52.31,76.38,52.46,76.55z"/>
	<path class="st1" d="M60.49,72.61l0.52,2.98c-0.98,0.36-1.61,1.23-1.44,2.09c0.19,0.99,1.35,1.59,2.58,1.36
		c1.24-0.24,2.09-1.23,1.9-2.22c-0.17-0.9-1.15-1.48-2.26-1.39l-0.52-2.95c-0.04-0.21-0.24-0.36-0.45-0.32l-0.01,0
		C60.6,72.19,60.45,72.39,60.49,72.61z"/>
	<path class="st1" d="M67.67,71.96l0.26,3.01c-1.01,0.28-1.71,1.09-1.62,1.96c0.1,1,1.21,1.7,2.46,1.57
		c1.25-0.13,2.19-1.05,2.08-2.05c-0.1-0.91-1.02-1.57-2.14-1.58l-0.26-2.98c-0.02-0.22-0.21-0.38-0.42-0.36l-0.01,0
		C67.81,71.55,67.65,71.74,67.67,71.96z"/>
	<path class="st1" d="M73.83,70.58l2.13,2.14c-0.6,0.86-0.62,1.93,0.01,2.54c0.72,0.7,2.02,0.54,2.9-0.37
		c0.88-0.9,1.01-2.2,0.29-2.9c-0.66-0.64-1.79-0.55-2.65,0.16l-2.11-2.12c-0.15-0.15-0.4-0.15-0.55,0l-0.01,0.01
		C73.68,70.18,73.68,70.43,73.83,70.58z"/>
	<path class="st1" d="M76.62,66.22l3.01,0.31c0.08,1.05,0.74,1.88,1.62,1.96c1,0.09,1.9-0.86,2.01-2.12
		c0.11-1.26-0.62-2.34-1.62-2.43c-0.91-0.08-1.73,0.71-1.95,1.8l-2.98-0.31c-0.22-0.02-0.41,0.14-0.43,0.35l0,0.01
		C76.25,66.01,76.41,66.2,76.62,66.22z"/>
	<path class="st1" d="M68.43,59l0.74-2.93c1.05,0.07,1.97-0.47,2.17-1.32c0.23-0.98-0.58-2-1.81-2.29
		c-1.23-0.29-2.41,0.27-2.64,1.25c-0.21,0.89,0.45,1.82,1.5,2.19l-0.73,2.9c-0.05,0.21,0.08,0.42,0.29,0.48l0.01,0
		C68.17,59.34,68.38,59.21,68.43,59z"/>
	<path class="st1" d="M74.22,61.26L76.23,59c0.9,0.54,1.96,0.5,2.53-0.17c0.66-0.76,0.41-2.04-0.54-2.87
		c-0.96-0.82-2.26-0.87-2.92-0.11c-0.6,0.69-0.44,1.82,0.32,2.64l-1.99,2.24c-0.14,0.16-0.13,0.41,0.03,0.55l0.01,0
		C73.82,61.43,74.07,61.42,74.22,61.26z"/>
	<path class="st1" d="M70.01,67.25l-4.21-0.58c-0.56-0.08-0.94-0.59-0.87-1.14l0-0.02c0.08-0.55,0.59-0.94,1.14-0.87l4.21,0.58
		c0.55,0.08,0.94,0.59,0.87,1.14l0,0.02C71.07,66.94,70.56,67.32,70.01,67.25z"/>
	<path class="st1" d="M52.37,73.18l-4.05,0.89c-0.53,0.12-1.06-0.22-1.18-0.75l0-0.02c-0.12-0.53,0.22-1.06,0.75-1.18l4.05-0.89
		c0.53-0.12,1.06,0.22,1.18,0.75L53.12,72C53.24,72.53,52.9,73.06,52.37,73.18z"/>
	<path class="st1" d="M40.58,78.52c-0.12-0.05-0.24-0.11-0.34-0.2c-0.26-0.21-0.41-0.5-0.44-0.81c-0.03-0.32,0.06-0.63,0.27-0.87
		l2.31-2.8c0.41-0.49,1.18-0.57,1.67-0.16c0.26,0.21,0.41,0.5,0.44,0.82c0.03,0.32-0.06,0.63-0.27,0.87l-2.31,2.8
		C41.6,78.55,41.06,78.7,40.58,78.52z M43.48,74.09c-0.22-0.08-0.46-0.01-0.6,0.16l-2.31,2.8c-0.09,0.11-0.13,0.25-0.12,0.39
		c0.01,0.14,0.08,0.27,0.19,0.36c0.06,0.05,0.11,0.08,0.17,0.1c0.21,0.08,0.46,0.01,0.6-0.16l2.31-2.8
		c0.09-0.11,0.14-0.25,0.12-0.39s-0.08-0.27-0.19-0.36C43.59,74.14,43.54,74.11,43.48,74.09z"/>
	<path class="st1" d="M54.37,67.75c-0.24-0.09-0.44-0.25-0.58-0.47c-0.18-0.28-0.24-0.6-0.18-0.91c0.07-0.31,0.25-0.58,0.52-0.75
		l3.04-1.97c0.53-0.34,1.3-0.18,1.65,0.35c0.18,0.28,0.24,0.6,0.18,0.91c-0.07,0.31-0.25,0.58-0.52,0.75l-3.04,1.97
		C55.12,67.84,54.72,67.88,54.37,67.75z M58.01,64.14c-0.16-0.06-0.34-0.04-0.48,0.05l-3.04,1.97c-0.12,0.08-0.2,0.2-0.23,0.34
		c-0.03,0.14,0,0.29,0.08,0.41c0.18,0.28,0.51,0.33,0.75,0.17l3.04-1.97c0.12-0.08,0.2-0.2,0.23-0.34c0.03-0.14,0-0.28-0.07-0.41
		C58.21,64.25,58.12,64.18,58.01,64.14z"/>
	<path class="st3" d="M63.08,69.22c-0.19,0.51-0.76,0.77-1.27,0.58c-0.51-0.19-0.77-0.76-0.58-1.27c0.19-0.51,0.76-0.77,1.27-0.58
		C63.01,68.14,63.27,68.71,63.08,69.22z"/>
	<path class="st3" d="M62.74,65.79c-0.11,0.29-0.44,0.44-0.73,0.33c-0.3-0.11-0.45-0.44-0.34-0.73c0.11-0.3,0.44-0.45,0.73-0.34
		C62.7,65.17,62.85,65.49,62.74,65.79z"/>
	<path class="st3" d="M69.78,63.43c-0.15,0.41-0.6,0.61-1.01,0.46c-0.4-0.15-0.61-0.6-0.46-1.01c0.15-0.41,0.6-0.61,1.01-0.46
		C69.73,62.57,69.93,63.02,69.78,63.43z"/>
	<path class="st3" d="M49.67,68.39c-0.19,0.52-0.77,0.78-1.29,0.59c-0.52-0.19-0.78-0.77-0.59-1.29c0.19-0.52,0.77-0.78,1.29-0.59
		C49.6,67.29,49.86,67.87,49.67,68.39z"/>
	<path class="st3" d="M45.13,80.45c-0.19,0.51-0.76,0.77-1.27,0.58c-0.51-0.19-0.77-0.76-0.58-1.27c0.19-0.51,0.76-0.77,1.27-0.58
		C45.06,79.37,45.32,79.94,45.13,80.45z"/>
	<path class="st3" d="M44.63,70.72c-0.09,0.23-0.34,0.35-0.57,0.26c-0.23-0.09-0.35-0.34-0.26-0.57c0.09-0.23,0.34-0.35,0.57-0.26
		C44.6,70.23,44.71,70.49,44.63,70.72z"/>
	<path class="st3" d="M40.95,81.78c-0.17,0.46-0.68,0.69-1.14,0.52s-0.69-0.68-0.52-1.14c0.17-0.46,0.68-0.69,1.14-0.52
		S41.12,81.32,40.95,81.78z"/>
	<path class="st3" d="M74.61,65.49c-0.1,0.28-0.41,0.42-0.69,0.32c-0.28-0.1-0.42-0.41-0.32-0.69c0.1-0.28,0.41-0.42,0.69-0.32
		C74.57,64.9,74.71,65.21,74.61,65.49z"/>
	<path class="st3" d="M58.41,70.48c-0.21,0.57-0.85,0.86-1.41,0.65c-0.57-0.21-0.86-0.85-0.65-1.42c0.21-0.57,0.85-0.86,1.42-0.65
		C58.33,69.28,58.62,69.91,58.41,70.48z"/>
	<path class="st3" d="M62.51,62.74c-0.08,0.22-0.32,0.33-0.54,0.25c-0.22-0.08-0.33-0.32-0.25-0.54c0.08-0.22,0.32-0.33,0.54-0.25
		C62.48,62.28,62.59,62.52,62.51,62.74z"/>
</g>
<g>
	<path class="st1" d="M53.18,23.58c-4.49-0.25-11.22,1.3-16.64,6.4c-0.09,0.08-0.17,0.16-0.23,0.22c-5.6,5.13-7.61,11.91-7.62,16.46
		c-0.07,5.56,2.55,8.63,5.05,8.7l0.1,0c1.4-0.07,2.77-0.78,4.3-2.23c1.19-1.13,2.4-2.61,3.68-4.19c1.7-2.1,3.65-4.5,5.94-6.48
		l0.04-0.04l0.04-0.04c2.11-2.17,4.62-3.98,6.81-5.56c1.65-1.19,3.2-2.31,4.4-3.43c1.53-1.45,2.32-2.77,2.47-4.17l0.01-0.11
		C61.64,26.63,58.73,23.84,53.18,23.58z"/>
	<path class="st2" d="M60.22,29.08c-0.43,3.86-7.94,6.84-13.31,12.37c-5.84,5.04-9.24,12.37-13.13,12.57
		c-1.83-0.05-3.8-2.77-3.75-7.35c0.01-4.47,2.05-10.79,7.18-15.49c4.99-4.85,11.42-6.52,15.89-6.27
		C57.68,25.12,60.28,27.26,60.22,29.08z"/>
	<path class="st1" d="M42.34,26.84c-0.07,0.06-0.17,0.09-0.26,0.06c-0.14-0.04-0.22-0.19-0.18-0.33c0.5-1.67-0.4-2.64-1.26-3.58
		c-0.85-0.91-1.72-1.86-0.9-3.29c0.07-0.13,0.24-0.17,0.36-0.1c0.13,0.07,0.17,0.24,0.1,0.37c-0.6,1.04-0.1,1.66,0.82,2.67
		c0.88,0.95,1.97,2.13,1.38,4.1C42.4,26.77,42.38,26.81,42.34,26.84z"/>
	<path class="st1" d="M45.8,25.7c-0.09,0.08-0.22,0.1-0.33,0.03c-0.12-0.08-0.16-0.25-0.08-0.37c0.55-0.85,0.01-2.53-0.46-4.01
		c-0.46-1.43-0.86-2.66-0.4-3.33c0.08-0.12,0.25-0.15,0.37-0.07c0.12,0.08,0.15,0.25,0.07,0.37c-0.31,0.45,0.08,1.68,0.46,2.87
		c0.54,1.67,1.09,3.39,0.4,4.46C45.83,25.67,45.82,25.69,45.8,25.7z"/>
	<path class="st1" d="M49.32,24.71c-0.01,0.01-0.02,0.02-0.04,0.03c-0.12,0.08-0.29,0.05-0.37-0.07c-0.77-1.15-0.57-2.57-0.37-3.93
		c0.19-1.33,0.37-2.6-0.45-3.35c-0.11-0.1-0.11-0.27-0.01-0.38c0.1-0.11,0.27-0.11,0.38-0.01c1.02,0.95,0.81,2.41,0.61,3.82
		c-0.18,1.27-0.37,2.58,0.29,3.56C49.43,24.48,49.42,24.62,49.32,24.71z"/>
	<path class="st1" d="M52.91,24.48c-0.07,0.06-0.17,0.09-0.26,0.06c-0.14-0.04-0.22-0.19-0.18-0.33c0.57-1.83-0.03-3.4-0.52-4.66
		c-0.41-1.05-0.76-1.96-0.32-2.72c0.08-0.13,0.24-0.17,0.36-0.1c0.13,0.07,0.17,0.24,0.1,0.36c-0.31,0.54-0.02,1.3,0.35,2.27
		c0.52,1.34,1.16,3,0.53,5.01C52.97,24.41,52.94,24.45,52.91,24.48z"/>
	<path class="st1" d="M56.41,24.98c-0.09,0.08-0.23,0.1-0.33,0.03c-0.12-0.08-0.16-0.25-0.07-0.37c0.94-1.41,0.68-3.11,0.44-4.6
		c-0.21-1.31-0.39-2.44,0.24-3.19c0.1-0.11,0.26-0.13,0.38-0.03c0.11,0.09,0.13,0.26,0.03,0.38c-0.47,0.57-0.31,1.59-0.13,2.77
		c0.25,1.59,0.54,3.4-0.52,4.98C56.44,24.95,56.43,24.97,56.41,24.98z"/>
	<path class="st1" d="M58.8,25.6c-0.11,0.1-0.27,0.1-0.38-0.01c-0.1-0.11-0.1-0.28,0.01-0.38c0.03-0.03,3.08-3,3.23-6.42
		c0.01-0.15,0.13-0.26,0.28-0.26c0.15,0.01,0.26,0.13,0.26,0.28C62.03,22.45,58.93,25.47,58.8,25.6C58.8,25.6,58.8,25.6,58.8,25.6z"
		/>
	<path class="st1" d="M66.19,23.04c-0.04,0.04-0.09,0.06-0.15,0.07c-1.34,0.16-1.79,0.86-2.36,1.74c-0.64,0.99-1.36,2.11-3.47,2.72
		c-0.14,0.04-0.29-0.04-0.33-0.18c-0.04-0.14,0.04-0.29,0.18-0.33c1.91-0.55,2.55-1.54,3.17-2.5c0.6-0.92,1.16-1.79,2.75-1.98
		c0.15-0.02,0.28,0.09,0.3,0.23C66.28,22.9,66.25,22.98,66.19,23.04z"/>
	<path class="st1" d="M68.39,28.62c-0.07,0.06-0.16,0.09-0.25,0.06c-2.95-0.78-7.02,1.32-7.06,1.35c-0.13,0.07-0.29,0.02-0.36-0.11
		c-0.07-0.13-0.02-0.29,0.11-0.36c0.17-0.09,4.3-2.23,7.45-1.39c0.14,0.04,0.23,0.18,0.19,0.33C68.45,28.54,68.43,28.59,68.39,28.62
		z"/>
	<path class="st1" d="M66.63,33.9c-0.03,0.03-0.07,0.05-0.11,0.06c-2.04,0.56-3.11,0-4.25-0.59c-0.8-0.42-1.64-0.85-2.93-1
		c-0.15-0.02-0.25-0.15-0.23-0.3c0.02-0.15,0.15-0.25,0.3-0.23c1.4,0.16,2.31,0.64,3.12,1.06c1.13,0.59,2.02,1.06,3.86,0.55
		c0.14-0.04,0.29,0.04,0.33,0.19C66.73,33.74,66.7,33.84,66.63,33.9z"/>
	<path class="st1" d="M63.42,37.27c-0.05,0.04-0.11,0.07-0.17,0.07c-0.15,0-0.27-0.11-0.28-0.26c-0.01-0.47-0.33-0.54-1.56-0.56
		c-1.37-0.02-3.44-0.05-5.28-1.83c-0.11-0.1-0.11-0.27-0.01-0.38c0.1-0.1,0.27-0.11,0.38-0.01c1.69,1.63,3.56,1.66,4.92,1.68
		c1.1,0.02,2.05,0.03,2.08,1.07C63.51,37.15,63.48,37.22,63.42,37.27z"/>
	<path class="st1" d="M60.12,40.05c-0.04,0.04-0.09,0.06-0.14,0.07c-0.15,0.02-0.28-0.08-0.3-0.23c-0.1-0.67-1.02-0.83-2.51-1.03
		c-1.35-0.18-3.04-0.41-4.31-1.37c-0.12-0.09-0.14-0.26-0.05-0.37c0.09-0.12,0.26-0.14,0.37-0.05c1.15,0.87,2.69,1.08,4.05,1.26
		c1.51,0.2,2.81,0.38,2.97,1.48C60.21,39.91,60.18,39.99,60.12,40.05z"/>
	<path class="st1" d="M56.74,42.58c-0.04,0.04-0.09,0.06-0.14,0.07c-0.15,0.02-0.28-0.07-0.31-0.22c-0.09-0.58-0.47-0.62-1.54-0.65
		c-1.25-0.04-3.13-0.11-5.28-1.75c-0.12-0.09-0.14-0.26-0.05-0.37c0.09-0.12,0.26-0.14,0.37-0.05c2.01,1.54,3.72,1.6,4.97,1.64
		c1.01,0.03,1.88,0.06,2.05,1.1C56.84,42.43,56.8,42.52,56.74,42.58z"/>
	<path class="st1" d="M54.1,45.73c-0.03,0.03-0.08,0.06-0.13,0.07c-0.14,0.03-0.29-0.06-0.32-0.2c-0.39-1.83-4.94-2.32-6.67-2.36
		c-0.15,0-0.26-0.13-0.26-0.27c0-0.15,0.13-0.26,0.27-0.26c0.27,0.01,6.62,0.17,7.18,2.78C54.19,45.58,54.16,45.67,54.1,45.73z"/>
	<path class="st1" d="M52.16,47.9c-0.03,0.03-0.08,0.06-0.13,0.07c-1.72,0.38-6.95-2.22-7.54-2.51c-0.13-0.07-0.19-0.23-0.12-0.36
		c0.07-0.13,0.23-0.19,0.36-0.12c1.56,0.78,5.89,2.76,7.19,2.47c0.14-0.03,0.29,0.06,0.32,0.2C52.26,47.74,52.23,47.83,52.16,47.9z"
		/>
	<path class="st1" d="M49.99,50.43c-0.04,0.04-0.09,0.06-0.14,0.07c-1.8,0.29-2.82-0.35-3.91-1.02c-0.99-0.61-2.01-1.24-3.78-1.35
		c-0.15-0.01-0.26-0.14-0.25-0.28c0.01-0.15,0.14-0.26,0.28-0.25c1.91,0.11,3.04,0.81,4.03,1.43c1.05,0.65,1.95,1.21,3.55,0.95
		c0.15-0.02,0.28,0.08,0.31,0.22C50.08,50.28,50.05,50.37,49.99,50.43z"/>
	<path class="st1" d="M46.93,53.42c-0.01,0.01-0.02,0.02-0.03,0.02c-0.12,0.08-0.29,0.06-0.37-0.07c-1.47-2.1-6.67-2.45-6.72-2.46
		c-0.15-0.01-0.26-0.14-0.25-0.28c0.01-0.15,0.14-0.26,0.28-0.25c0.22,0.01,5.5,0.37,7.12,2.68C47.04,53.18,47.03,53.33,46.93,53.42
		z"/>
	<path class="st1" d="M44.08,56.16c-0.03,0.03-0.07,0.05-0.11,0.06c-0.14,0.04-0.29-0.05-0.33-0.19c-0.3-1.13-1.53-1.28-2.96-1.46
		c-1.42-0.18-2.9-0.36-3.53-1.62c-0.07-0.13-0.01-0.29,0.12-0.36c0.13-0.07,0.29-0.01,0.36,0.12c0.5,1.01,1.77,1.16,3.11,1.33
		c1.48,0.18,3.02,0.37,3.41,1.85C44.18,56,44.15,56.1,44.08,56.16z"/>
	<path class="st1" d="M38.54,61.4c-0.1,0.09-0.25,0.1-0.35,0.01c-0.11-0.09-0.13-0.26-0.04-0.38c1.97-2.43-2.63-6.46-2.68-6.5
		c-0.11-0.1-0.12-0.27-0.03-0.38c0.1-0.11,0.27-0.12,0.38-0.03c0.21,0.18,5.03,4.41,2.74,7.24C38.55,61.38,38.55,61.39,38.54,61.4z"
		/>
	<path class="st1" d="M31.54,61.81c-0.07,0.07-0.18,0.09-0.28,0.06c-0.23-0.09-0.4-0.25-0.48-0.47c-0.25-0.67,0.35-1.75,1.1-3.11
		c0.67-1.21,1.42-2.58,1.41-3.5c0-0.15,0.11-0.27,0.26-0.27c0.15,0,0.27,0.12,0.27,0.26c0.02,1.07-0.74,2.44-1.47,3.77
		c-0.58,1.04-1.23,2.22-1.07,2.67c0.02,0.05,0.05,0.11,0.17,0.15c0.14,0.05,0.21,0.21,0.15,0.34
		C31.59,61.75,31.56,61.78,31.54,61.81z"/>
	<path class="st1" d="M30.09,55.99c-0.58,0.55-1.17,0.92-1.69,1.26c-0.78,0.5-1.39,0.89-1.64,1.64c-0.05,0.14-0.2,0.21-0.34,0.17
		c-0.14-0.05-0.22-0.2-0.17-0.34c0.31-0.93,1.03-1.39,1.86-1.92c1.01-0.65,2.26-1.46,3.23-3.47c0.07-0.13,0.22-0.19,0.36-0.13
		c0.13,0.06,0.19,0.22,0.13,0.36C31.29,54.66,30.69,55.42,30.09,55.99z"/>
	<path class="st1" d="M26.55,53.94c-0.55,0.52-1.34,0.99-2.64,1.31c-0.14,0.04-0.29-0.05-0.32-0.2c-0.04-0.14,0.05-0.29,0.2-0.32
		c2.15-0.53,2.73-1.44,3.35-2.4c0.5-0.78,1.02-1.59,2.31-2.25c0.13-0.07,0.29-0.02,0.36,0.11c0.07,0.13,0.02,0.29-0.12,0.36
		c-1.16,0.6-1.62,1.31-2.1,2.07C27.29,53.06,27,53.52,26.55,53.94z"/>
	<path class="st1" d="M28.1,48.66c-0.91,0.86-1.87,1.14-2.75,1.4c-0.77,0.23-1.51,0.44-2.13,1.03c0,0-0.01,0.01-0.01,0.01
		c-0.11,0.1-0.28,0.1-0.38-0.01c-0.1-0.11-0.1-0.28,0.01-0.38c0.73-0.69,1.55-0.93,2.36-1.17c1.29-0.38,2.62-0.77,3.76-2.97
		c0.07-0.13,0.23-0.18,0.36-0.11c0.13,0.07,0.18,0.23,0.11,0.36C29.01,47.64,28.56,48.23,28.1,48.66z"/>
	<path class="st1" d="M29.94,43.53c-0.03,0.03-0.08,0.06-0.13,0.07C27.9,44,26.7,44.89,25.74,45.6c-0.96,0.72-1.72,1.28-2.64,0.77
		C22.97,46.3,22.93,46.13,23,46c0.07-0.13,0.23-0.18,0.36-0.1c0.59,0.33,1.09,0,2.06-0.73c0.95-0.7,2.25-1.67,4.28-2.1
		c0.14-0.03,0.29,0.06,0.32,0.21C30.04,43.37,30.01,43.46,29.94,43.53z"/>
	<path class="st1" d="M30.26,40.8c-0.01,0.01-0.01,0.01-0.02,0.02c-1.25,0.99-2.33,0.59-3.47,0.17c-0.98-0.36-2.09-0.77-3.56-0.44
		c-0.14,0.03-0.29-0.06-0.32-0.2c-0.03-0.14,0.06-0.29,0.2-0.32c1.63-0.37,2.82,0.07,3.86,0.45c1.13,0.42,1.94,0.72,2.96-0.09
		c0.12-0.09,0.28-0.07,0.38,0.04C30.37,40.55,30.36,40.71,30.26,40.8z"/>
	<path class="st1" d="M32.31,37.13c-0.1,0.1-0.26,0.1-0.36,0c-1.06-0.98-2.99-0.61-4.54-0.31c-1.35,0.26-2.41,0.47-2.83-0.17
		c-0.08-0.12-0.05-0.29,0.08-0.37c0.12-0.08,0.29-0.05,0.37,0.08c0.22,0.33,1.27,0.13,2.28-0.06c1.67-0.32,3.75-0.72,5,0.44
		c0.11,0.1,0.11,0.27,0.01,0.38C32.32,37.13,32.31,37.13,32.31,37.13z"/>
	<path class="st1" d="M34.42,33.3c-0.07,0.06-0.16,0.09-0.25,0.06c-1.66-0.45-6.18-1.33-7.09,0.01c-0.08,0.12-0.25,0.15-0.37,0.07
		c-0.12-0.08-0.15-0.25-0.07-0.37c1.29-1.88,7.02-0.4,7.67-0.22c0.14,0.04,0.23,0.19,0.19,0.33C34.48,33.22,34.46,33.26,34.42,33.3z
		"/>
	<path class="st1" d="M36.77,30.93c-0.01,0.01-0.02,0.02-0.03,0.02c-0.12,0.09-0.29,0.06-0.37-0.06c-1.06-1.46-2.52-1.79-3.82-2.09
		c-1.18-0.27-2.3-0.53-2.63-1.67c-0.04-0.14,0.04-0.29,0.18-0.33c0.14-0.04,0.29,0.04,0.33,0.18c0.23,0.8,0.96,1,2.23,1.29
		c1.32,0.3,2.96,0.68,4.13,2.3C36.88,30.69,36.86,30.84,36.77,30.93z"/>
	<path class="st1" d="M39.59,28.71c-0.01,0.01-0.03,0.02-0.04,0.03c-0.13,0.08-0.29,0.04-0.37-0.09c-0.64-1.03-1.39-1.64-2.06-2.19
		c-1.06-0.87-1.98-1.62-1.8-3.53c0.01-0.15,0.14-0.25,0.29-0.24c0.15,0.01,0.25,0.14,0.24,0.29c-0.16,1.62,0.58,2.23,1.6,3.06
		c0.7,0.57,1.49,1.22,2.18,2.32C39.7,28.49,39.68,28.63,39.59,28.71z"/>
	<g>
		<path class="st1" d="M48.68,29.22c0.91,0.96,0.86,2.47-0.1,3.38c-0.96,0.91-2.47,0.86-3.38-0.1c-0.91-0.96-0.86-2.47,0.1-3.38
			C46.27,28.22,47.78,28.26,48.68,29.22z"/>
	</g>
	<path class="st3" d="M41.9,35.63c0.43,0.46,0.41,1.17-0.05,1.6c-0.46,0.43-1.17,0.41-1.6-0.05c-0.43-0.46-0.41-1.17,0.05-1.61
		C40.75,35.15,41.47,35.17,41.9,35.63z"/>
	<path class="st3" d="M42.32,41.77c0.36,0.38,0.34,0.97-0.04,1.33c-0.38,0.36-0.97,0.34-1.33-0.04c-0.36-0.38-0.34-0.97,0.04-1.33
		C41.37,41.38,41.96,41.39,42.32,41.77z"/>
	<path class="st3" d="M36.67,44.22c0.21,0.22,0.2,0.58-0.02,0.79c-0.22,0.21-0.58,0.2-0.79-0.02c-0.21-0.22-0.2-0.58,0.02-0.79
		C36.11,43.99,36.46,44,36.67,44.22z"/>
	<path class="st3" d="M34.9,39.86c0.15,0.16,0.14,0.4-0.02,0.55c-0.16,0.15-0.4,0.14-0.55-0.02c-0.15-0.16-0.14-0.4,0.02-0.55
		C34.51,39.69,34.75,39.7,34.9,39.86z"/>
	<path class="st3" d="M33.96,41.93c0.33,0.35,0.31,0.89-0.04,1.22c-0.35,0.33-0.89,0.31-1.22-0.04c-0.33-0.35-0.31-0.89,0.04-1.22
		C33.09,41.57,33.63,41.58,33.96,41.93z"/>
	<path class="st3" d="M35,49.84c0.32,0.34,0.31,0.88-0.03,1.2c-0.34,0.32-0.88,0.31-1.2-0.03c-0.32-0.34-0.31-0.88,0.03-1.2
		C34.14,49.49,34.68,49.5,35,49.84z"/>
	<path class="st3" d="M51.04,34.72c0.32,0.34,0.31,0.88-0.03,1.21c-0.34,0.32-0.88,0.31-1.21-0.04c-0.32-0.34-0.31-0.88,0.03-1.21
		C50.18,34.36,50.72,34.38,51.04,34.72z"/>
	<path class="st3" d="M53.95,27.92c0.11,0.11,0.1,0.29-0.01,0.4c-0.11,0.11-0.29,0.1-0.4-0.01c-0.11-0.11-0.1-0.29,0.01-0.4
		C53.67,27.8,53.85,27.81,53.95,27.92z"/>
	<path class="st3" d="M56.8,29.97c0.28,0.3,0.27,0.77-0.03,1.06c-0.3,0.28-0.77,0.27-1.06-0.03c-0.28-0.3-0.27-0.77,0.03-1.06
		C56.04,29.65,56.51,29.67,56.8,29.97z"/>
	<path class="st3" d="M41.52,29.96c0.16,0.17,0.16,0.45-0.02,0.61c-0.17,0.16-0.45,0.16-0.61-0.02c-0.16-0.17-0.16-0.45,0.02-0.61
		C41.09,29.78,41.36,29.79,41.52,29.96z"/>
	<path class="st3" d="M36.42,34.94c0.21,0.22,0.2,0.56-0.02,0.77c-0.22,0.21-0.56,0.2-0.77-0.02c-0.21-0.22-0.2-0.56,0.02-0.77
		C35.87,34.71,36.21,34.72,36.42,34.94z"/>
</g>
</svg>
