<svg enable-background="new 0 0 122.88 106.43" viewBox="0 0 122.88 106.43" xmlns="http://www.w3.org/2000/svg"><path clip-rule="evenodd" d="m11.1 0h35.63c3.05 0 5.85 1.25 7.85 3.25 2.03 2.03 3.25 4.8 3.25 7.85v31.46h-3.19v-30.38h-51.49v75.26h7.61v11.61c0 1.58.27 3.1.77 4.51h-.43c-3.05 0-5.85-1.25-7.85-3.25-2.03-2.04-3.25-4.8-3.25-7.86v-81.35c0-3.05 1.25-5.85 3.25-7.85 2.03-2.03 4.79-3.25 7.85-3.25zm88.99 30.42c.75-.86 2.06-.95 2.91-.19.86.75.95 2.06.19 2.91l-5.89 6.71c-.74.85-2.02.94-2.88.22l-6.85-5.72c-.88-.73-.99-2.04-.26-2.91.73-.88 2.04-.99 2.91-.26l3.01 2.51c-.82-3.89-2.71-7.43-5.48-10.2-3.58-3.59-8.66-5.91-14.85-6.1-1.14-.03-2.04-.98-2.01-2.12s.98-2.04 2.12-2.01c7.33.22 13.37 3.01 17.67 7.31 3.48 3.49 5.8 7.98 6.71 12.9zm22.79 29.28v35.63c0 3.05-1.25 5.85-3.25 7.85-2.03 2.03-4.8 3.25-7.85 3.25h-78.9c-3.05 0-5.85-1.25-7.85-3.25-2.03-2.03-3.25-4.8-3.25-7.85v-35.63c0-3.05 1.25-5.85 3.25-7.85 2.03-2.03 4.79-3.25 7.85-3.25h78.9c3.05 0 5.85 1.25 7.85 3.25 2.03 2.03 3.25 4.79 3.25 7.85zm-87.47 17.79c0 2.51-2.03 4.57-4.57 4.57-2.51 0-4.57-2.03-4.57-4.57 0-2.51 2.03-4.57 4.57-4.57 2.52 0 4.57 2.03 4.57 4.57zm2.47-25.74v51.49h72.82v-51.49z" fill-rule="evenodd"/></svg>