<?xml version="1.0" encoding="utf-8"?>
<!-- Generator: Adobe Illustrator 25.4.1, SVG Export Plug-In . SVG Version: 6.00 Build 0)  -->
<svg version="1.1" id="Capa_1" xmlns="http://www.w3.org/2000/svg" xmlns:xlink="http://www.w3.org/1999/xlink" x="0px" y="0px"
	 viewBox="0 0 216 167.39" style="enable-background:new 0 0 216 167.39;" xml:space="preserve">
<style type="text/css">
	.st0{fill:#FACE1D;}
	.st1{fill:none;stroke:#000000;stroke-width:0.5;stroke-miterlimit:10;}
	.st2{fill:none;stroke:#000000;stroke-miterlimit:10;}
</style>
<g>
	<path class="st0" d="M87.73,151.92c7.92-9.82,5.5-23.59-4.88-31.96s-25.22-7.2-33.13,2.62L87.73,151.92z"/>
	<polygon class="st0" points="94.88,67.22 111.89,44.75 141.27,67.47 125.57,89.57 	"/>
	<polygon class="st0" points="70.66,100.27 86.87,77.81 118.12,100.89 102.53,124.42 	"/>
	<line class="st1" x1="81.52" y1="118.55" x2="83.52" y2="115.69"/>
	<line class="st1" x1="53" y1="158.64" x2="55.93" y2="127.59"/>
	<line class="st1" x1="52.98" y1="158.34" x2="79.59" y2="145.86"/>
	<line class="st1" x1="68.33" y1="137.15" x2="53.29" y2="158.32"/>
	<circle cx="52.58" cy="159.28" r="1.53"/>
	
		<rect x="65.23" y="111.93" transform="matrix(0.7999 0.6002 -0.6002 0.7999 85.5453 -28.3164)" class="st2" width="40" height="4.36"/>
	
		<rect x="109.49" y="52.22" transform="matrix(0.792 0.6105 -0.6105 0.792 59.8511 -66.8795)" class="st2" width="37.18" height="4.36"/>
	<polygon class="st2" points="92.77,82.11 100.34,71.37 120.89,85.97 113.04,97.02 	"/>
	<line class="st1" x1="128.6" y1="85.39" x2="138.19" y2="92.86"/>
	<line class="st1" x1="115.52" y1="103.96" x2="125.22" y2="111.24"/>
	<line class="st1" x1="76.76" y1="76.33" x2="84.27" y2="81.3"/>
	<line class="st1" x1="89.57" y1="57.53" x2="97.63" y2="62.98"/>
	
		<rect x="136.21" y="90.25" transform="matrix(0.8132 0.5819 -0.5819 0.8132 82.7225 -63.607)" class="st1" width="8.49" height="13.64"/>
	
		<rect x="145.06" y="96.46" transform="matrix(0.8132 0.5819 -0.5819 0.8132 87.9832 -67.5979)" class="st1" width="8.49" height="13.64"/>
	
		<rect x="153.91" y="102.66" transform="matrix(0.8132 0.5819 -0.5819 0.8132 93.2439 -71.5888)" class="st1" width="8.49" height="13.64"/>
	
		<rect x="162.76" y="108.86" transform="matrix(0.8132 0.5819 -0.5819 0.8132 98.5046 -75.5797)" class="st1" width="8.49" height="13.64"/>
	
		<rect x="171.6" y="115.06" transform="matrix(0.8132 0.5819 -0.5819 0.8132 103.7653 -79.5706)" class="st1" width="8.49" height="13.64"/>
	
		<rect x="180.45" y="121.26" transform="matrix(0.8132 0.5819 -0.5819 0.8132 109.026 -83.5615)" class="st1" width="8.49" height="13.64"/>
	
		<rect x="189.3" y="127.46" transform="matrix(0.8132 0.5819 -0.5819 0.8132 114.2867 -87.5524)" class="st1" width="8.49" height="13.64"/>
	
		<rect x="198.15" y="133.66" transform="matrix(0.8132 0.5819 -0.5819 0.8132 119.5474 -91.5433)" class="st1" width="8.49" height="13.64"/>
	
		<rect x="126.5" y="104.27" transform="matrix(0.8132 0.5819 -0.5819 0.8132 89.0656 -55.3351)" class="st1" width="8.49" height="13.64"/>
	
		<rect x="135.34" y="110.47" transform="matrix(0.8132 0.5819 -0.5819 0.8132 94.3263 -59.326)" class="st1" width="8.49" height="13.64"/>
	
		<rect x="144.19" y="116.67" transform="matrix(0.8132 0.5819 -0.5819 0.8132 99.587 -63.317)" class="st1" width="8.49" height="13.64"/>
	
		<rect x="153.04" y="122.87" transform="matrix(0.8132 0.5819 -0.5819 0.8132 104.8477 -67.3079)" class="st1" width="8.49" height="13.64"/>
	
		<rect x="161.89" y="129.08" transform="matrix(0.8132 0.5819 -0.5819 0.8132 110.1084 -71.2988)" class="st1" width="8.49" height="13.64"/>
	
		<rect x="170.74" y="135.28" transform="matrix(0.8132 0.5819 -0.5819 0.8132 115.3691 -75.2897)" class="st1" width="8.49" height="13.64"/>
	
		<rect x="179.58" y="141.48" transform="matrix(0.8132 0.5819 -0.5819 0.8132 120.6298 -79.2806)" class="st1" width="8.49" height="13.64"/>
	
		<rect x="188.43" y="147.68" transform="matrix(0.8132 0.5819 -0.5819 0.8132 125.8905 -83.2715)" class="st1" width="8.49" height="13.64"/>
	
		<rect x="19.07" y="6.07" transform="matrix(0.8132 0.5819 -0.5819 0.8132 11.8547 -11.1639)" class="st1" width="8.49" height="13.64"/>
	
		<rect x="27.92" y="12.27" transform="matrix(0.8132 0.5819 -0.5819 0.8132 17.1154 -15.1548)" class="st1" width="8.49" height="13.64"/>
	
		<rect x="36.77" y="18.47" transform="matrix(0.8132 0.5819 -0.5819 0.8132 22.3761 -19.1457)" class="st1" width="8.49" height="13.64"/>
	
		<rect x="45.62" y="24.67" transform="matrix(0.8132 0.5819 -0.5819 0.8132 27.6368 -23.1366)" class="st1" width="8.49" height="13.64"/>
	
		<rect x="54.47" y="30.87" transform="matrix(0.8132 0.5819 -0.5819 0.8132 32.8975 -27.1275)" class="st1" width="8.49" height="13.64"/>
	
		<rect x="63.31" y="37.07" transform="matrix(0.8132 0.5819 -0.5819 0.8132 38.1582 -31.1184)" class="st1" width="8.49" height="13.64"/>
	
		<rect x="72.16" y="43.27" transform="matrix(0.8132 0.5819 -0.5819 0.8132 43.4189 -35.1093)" class="st1" width="8.49" height="13.64"/>
	
		<rect x="81.01" y="49.47" transform="matrix(0.8132 0.5819 -0.5819 0.8132 48.6796 -39.1002)" class="st1" width="8.49" height="13.64"/>
	
		<rect x="9.36" y="20.08" transform="matrix(0.8132 0.5819 -0.5819 0.8132 18.1977 -2.892)" class="st1" width="8.49" height="13.64"/>
	
		<rect x="18.21" y="26.28" transform="matrix(0.8132 0.5819 -0.5819 0.8132 23.4584 -6.8829)" class="st1" width="8.49" height="13.64"/>
	
		<rect x="27.05" y="32.49" transform="matrix(0.8132 0.5819 -0.5819 0.8132 28.7191 -10.8738)" class="st1" width="8.49" height="13.64"/>
	
		<rect x="35.9" y="38.69" transform="matrix(0.8132 0.5819 -0.5819 0.8132 33.9798 -14.8648)" class="st1" width="8.49" height="13.64"/>
	
		<rect x="44.75" y="44.89" transform="matrix(0.8132 0.5819 -0.5819 0.8132 39.2405 -18.8557)" class="st1" width="8.49" height="13.64"/>
	
		<rect x="53.6" y="51.09" transform="matrix(0.8132 0.5819 -0.5819 0.8132 44.5012 -22.8466)" class="st1" width="8.49" height="13.64"/>
	
		<rect x="62.45" y="57.29" transform="matrix(0.8132 0.5819 -0.5819 0.8132 49.7619 -26.8375)" class="st1" width="8.49" height="13.64"/>
	
		<rect x="71.29" y="63.49" transform="matrix(0.8132 0.5819 -0.5819 0.8132 55.0226 -30.8284)" class="st1" width="8.49" height="13.64"/>
	<path class="st2" d="M111.89,44.75"/>
	
		<rect x="122.36" y="48.66" transform="matrix(0.792 0.6105 -0.6105 0.792 58.2998 -69.4466)" class="st2" width="17.43" height="4.36"/>
</g>
</svg>
