<?xml version="1.0" encoding="utf-8"?>
<!-- Generator: Adobe Illustrator 25.4.1, SVG Export Plug-In . SVG Version: 6.00 Build 0)  -->
<svg version="1.1" xmlns="http://www.w3.org/2000/svg" xmlns:xlink="http://www.w3.org/1999/xlink" x="0px" y="0px"
	 viewBox="0 0 70 70" style="enable-background:new 0 0 70 70;" xml:space="preserve">
<style type="text/css">
	.st0{display:none;}
	.st1{display:inline;fill:#F4C81D;}
	.st2{display:inline;}
	.st3{display:inline;fill:none;stroke:#F4C81D;stroke-width:2;stroke-miterlimit:10;}
	.st4{fill:none;stroke:#F4C81D;stroke-width:2;stroke-miterlimit:10;}
	.st5{fill:none;stroke:#000000;stroke-miterlimit:10;}
</style>
<g id="Capa_1" class="st0">
	<circle class="st1" cx="35" cy="35" r="33.16"/>
	<g class="st2">
		<path d="M28.98,50.85h-2.72c-0.09,0-0.18-0.04-0.24-0.11c-0.06-0.07-0.09-0.16-0.07-0.25l3.12-18.78
			c0.02-0.15,0.15-0.26,0.31-0.26h1.45c0.11,0,0.2,0.05,0.26,0.14l3.77,5.45c0.02,0.03,0.05,0.05,0.09,0.05
			c0.03,0,0.07-0.02,0.08-0.04l3.68-5.42c0.06-0.09,0.16-0.14,0.26-0.14h0.81c0.15,0,0.28,0.1,0.31,0.25L44,50.43
			c0.02,0.09,0,0.19-0.06,0.26c-0.06,0.07-0.15,0.12-0.24,0.12h-2.72c-0.16,0-0.29-0.12-0.31-0.28L38.9,35.51
			c-0.01-0.07-0.06-0.08-0.08-0.09c-0.02,0-0.07-0.01-0.11,0.04l-3.58,5.59c-0.06,0.09-0.16,0.14-0.26,0.14
			c-0.11,0.01-0.21-0.05-0.26-0.14l-3.67-5.59c-0.04-0.06-0.09-0.05-0.11-0.04c-0.02,0-0.07,0.02-0.08,0.09l-1.46,15.05
			C29.28,50.73,29.14,50.85,28.98,50.85z M29.37,31.66c-0.05,0-0.09,0.04-0.1,0.09l-3.12,18.78c0,0.03,0,0.06,0.02,0.08
			c0.02,0.02,0.05,0.04,0.08,0.04h2.72c0.05,0,0.1-0.04,0.1-0.09l1.46-15.05c0.01-0.13,0.11-0.24,0.24-0.27
			c0.13-0.03,0.26,0.02,0.34,0.13l3.67,5.59c0.02,0.03,0.05,0.04,0.09,0.05c0.04,0,0.07-0.02,0.09-0.05l3.58-5.59
			c0.07-0.11,0.2-0.17,0.33-0.14c0.13,0.03,0.23,0.14,0.24,0.27l1.76,15.02c0.01,0.05,0.05,0.09,0.1,0.09h2.72
			c0.03,0,0.06-0.01,0.08-0.04s0.03-0.05,0.02-0.09l-3.92-18.7c-0.01-0.05-0.05-0.08-0.1-0.08h-0.81c-0.03,0-0.07,0.02-0.08,0.04
			l-3.68,5.42c-0.06,0.09-0.15,0.14-0.26,0.14c-0.1,0-0.2-0.05-0.26-0.14l-3.77-5.45c-0.02-0.03-0.05-0.05-0.08-0.05H29.37z"/>
		<path d="M42.22,31.66H27.64v-2.5h14.58V31.66z M27.85,31.45h14.16v-2.07H27.85V31.45z"/>
		<rect x="35.32" y="12.32" width="0.21" height="11.17"/>
		<path d="M41.67,29.37H28.18v-5.98h13.49V29.37z M28.39,29.16h13.07V23.6H28.39V29.16z"/>
		<g>
			<path d="M32.3,15.24l-2.12-2.12l2.93-2.93l-2.97-2.96l2.12-2.12l2.93,2.93l2.95-2.95l2.13,2.13l-2.91,2.91l2.95,2.95l-2.13,2.13
				l-2.93-2.93L32.3,15.24z M30.48,13.12l1.82,1.82l2.95-2.95l2.93,2.93l1.83-1.83l-2.95-2.95l2.91-2.91l-1.83-1.83l-2.95,2.95
				l-2.93-2.93l-1.82,1.82l2.97,2.96L30.48,13.12z"/>
		</g>
		<path d="M34.89,64.19c-7.4,0-13.42-6.02-13.42-13.42v-0.11h26.83v0.11C48.31,58.17,42.29,64.19,34.89,64.19z M21.69,50.88
			c0.06,7.23,5.96,13.1,13.2,13.1c7.25,0,13.15-5.87,13.2-13.1H21.69z"/>
		<path d="M44.94,49.4l-20.18-0.25l1.67-9.93h16.34L44.94,49.4z M25.01,48.95l19.67,0.24l-2.08-9.75H26.6L25.01,48.95z"/>
		<rect x="26.51" y="40.53" width="16.41" height="0.05"/>
		<rect x="26.27" y="42.41" width="17.07" height="0.05"/>
		<rect x="25.7" y="44.29" width="17.88" height="0.05"/>
		<rect x="25.37" y="46.08" width="18.7" height="0.05"/>
		<rect x="25.04" y="47.96" width="19.35" height="0.05"/>
		<rect x="23.34" y="44.19" transform="matrix(0.0976 -0.9952 0.9952 0.0976 -18.5901 67.9348)" width="9.66" height="0.05"/>
		<rect x="31.43" y="39.36" transform="matrix(1 -8.066027e-03 8.066027e-03 1 -0.3562 0.2552)" width="0.05" height="9.85"/>
		<polygon points="34.9,49.13 34.74,39.33 34.79,39.33 34.95,49.13 		"/>
		<rect x="38.45" y="39.25" transform="matrix(1 -8.328482e-03 8.328482e-03 1 -0.3664 0.322)" width="0.05" height="9.8"/>
		<polygon points="41.96,49.23 41.68,39.36 41.73,39.36 42.02,49.23 		"/>
	</g>
</g>
<g id="Capa_2" class="st0">
	<circle class="st3" cx="35" cy="35" r="33.16"/>
	<g class="st2">
		<path d="M28.98,50.85h-2.72c-0.09,0-0.18-0.04-0.24-0.11c-0.06-0.07-0.09-0.16-0.07-0.25l3.12-18.78
			c0.02-0.15,0.15-0.26,0.31-0.26h1.45c0.11,0,0.2,0.05,0.26,0.14l3.77,5.45c0.02,0.03,0.05,0.05,0.09,0.05
			c0.03,0,0.07-0.02,0.08-0.04l3.68-5.42c0.06-0.09,0.16-0.14,0.26-0.14h0.81c0.15,0,0.28,0.1,0.31,0.25L44,50.43
			c0.02,0.09,0,0.19-0.06,0.26c-0.06,0.07-0.15,0.12-0.24,0.12h-2.72c-0.16,0-0.29-0.12-0.31-0.28L38.9,35.51
			c-0.01-0.07-0.06-0.08-0.08-0.09c-0.02,0-0.07-0.01-0.11,0.04l-3.58,5.59c-0.06,0.09-0.16,0.14-0.26,0.14
			c-0.11,0.01-0.21-0.05-0.26-0.14l-3.67-5.59c-0.04-0.06-0.09-0.05-0.11-0.04c-0.02,0-0.07,0.02-0.08,0.09l-1.46,15.05
			C29.28,50.73,29.14,50.85,28.98,50.85z M29.37,31.66c-0.05,0-0.09,0.04-0.1,0.09l-3.12,18.78c0,0.03,0,0.06,0.02,0.08
			c0.02,0.02,0.05,0.04,0.08,0.04h2.72c0.05,0,0.1-0.04,0.1-0.09l1.46-15.05c0.01-0.13,0.11-0.24,0.24-0.27
			c0.13-0.03,0.26,0.02,0.34,0.13l3.67,5.59c0.02,0.03,0.05,0.04,0.09,0.05c0.04,0,0.07-0.02,0.09-0.05l3.58-5.59
			c0.07-0.11,0.2-0.17,0.33-0.14c0.13,0.03,0.23,0.14,0.24,0.27l1.76,15.02c0.01,0.05,0.05,0.09,0.1,0.09h2.72
			c0.03,0,0.06-0.01,0.08-0.04s0.03-0.05,0.02-0.09l-3.92-18.7c-0.01-0.05-0.05-0.08-0.1-0.08h-0.81c-0.03,0-0.07,0.02-0.08,0.04
			l-3.68,5.42c-0.06,0.09-0.15,0.14-0.26,0.14c-0.1,0-0.2-0.05-0.26-0.14l-3.77-5.45c-0.02-0.03-0.05-0.05-0.08-0.05H29.37z"/>
		<path d="M42.22,31.66H27.64v-2.5h14.58V31.66z M27.85,31.45h14.16v-2.07H27.85V31.45z"/>
		<rect x="35.32" y="12.32" width="0.21" height="11.17"/>
		<path d="M41.67,29.37H28.18v-5.98h13.49V29.37z M28.39,29.16h13.07V23.6H28.39V29.16z"/>
		<g>
			<path d="M32.3,15.24l-2.12-2.12l2.93-2.93l-2.97-2.96l2.12-2.12l2.93,2.93l2.95-2.95l2.13,2.13l-2.91,2.91l2.95,2.95l-2.13,2.13
				l-2.93-2.93L32.3,15.24z M30.48,13.12l1.82,1.82l2.95-2.95l2.93,2.93l1.83-1.83l-2.95-2.95l2.91-2.91l-1.83-1.83l-2.95,2.95
				l-2.93-2.93l-1.82,1.82l2.97,2.96L30.48,13.12z"/>
		</g>
		<path d="M34.89,64.19c-7.4,0-13.42-6.02-13.42-13.42v-0.11h26.83v0.11C48.31,58.17,42.29,64.19,34.89,64.19z M21.69,50.88
			c0.06,7.23,5.96,13.1,13.2,13.1c7.25,0,13.15-5.87,13.2-13.1H21.69z"/>
		<path d="M44.94,49.4l-20.18-0.25l1.67-9.93h16.34L44.94,49.4z M25.01,48.95l19.67,0.24l-2.08-9.75H26.6L25.01,48.95z"/>
		<rect x="26.51" y="40.53" width="16.41" height="0.05"/>
		<rect x="26.27" y="42.41" width="17.07" height="0.05"/>
		<rect x="25.7" y="44.29" width="17.88" height="0.05"/>
		<rect x="25.37" y="46.08" width="18.7" height="0.05"/>
		<rect x="25.04" y="47.96" width="19.35" height="0.05"/>
		<rect x="23.34" y="44.19" transform="matrix(0.0976 -0.9952 0.9952 0.0976 -18.5901 67.9348)" width="9.66" height="0.05"/>
		<rect x="31.43" y="39.36" transform="matrix(1 -8.066027e-03 8.066027e-03 1 -0.3562 0.2552)" width="0.05" height="9.85"/>
		<polygon points="34.9,49.13 34.74,39.33 34.79,39.33 34.95,49.13 		"/>
		<rect x="38.45" y="39.25" transform="matrix(1 -8.328482e-03 8.328482e-03 1 -0.3664 0.322)" width="0.05" height="9.8"/>
		<polygon points="41.96,49.23 41.68,39.36 41.73,39.36 42.02,49.23 		"/>
	</g>
</g>
<g id="Capa_3">
	<circle class="st4" cx="35" cy="35" r="33.16"/>
	<g>
		<path d="M47.55,41.06l-8.78,7.29l-0.07-0.09c-1.86-2.34-1.36-5.85,1.11-7.82c2.53-2.01,5.83-1.78,7.67,0.54L47.55,41.06z
			 M38.8,48.02l8.42-6.99c-1.77-2.13-4.88-2.32-7.27-0.41C37.61,42.48,37.11,45.77,38.8,48.02z"/>
		<path d="M35.32,29.28l-6.82,5.99l-4.39-5.19l6.83-5.66L35.32,29.28z M28.53,34.94l6.46-5.67l-4.07-4.52l-6.48,5.37L28.53,34.94z"
			/>
		<path d="M42.07,36.29l-7.29,6.16l-4.43-5l7.01-6.07L42.07,36.29z M34.8,42.13l6.93-5.85l-4.39-4.57l-6.66,5.77L34.8,42.13z"/>
		<polygon points="39.53,40.72 39.45,40.79 38.9,40.19 38.99,40.11 		"/>
		<rect x="43.63" y="44.52" transform="matrix(0.3095 -0.9509 0.9509 0.3095 -15.6196 74.7914)" width="0.12" height="7.26"/>
		<polygon points="47.13,49.25 47.01,49.28 45.54,42.6 45.65,42.57 		"/>
		<polygon points="47.13,49.15 47.04,49.23 43,44.74 43.09,44.66 		"/>
		<path d="M47.73,49.51c-0.05,0.24-0.29,0.4-0.54,0.36c-0.26-0.04-0.43-0.29-0.39-0.54c0.04-0.26,0.29-0.43,0.54-0.39l0,0
			c0.26,0.04,0.43,0.29,0.39,0.54C47.73,49.49,47.73,49.5,47.73,49.51z M47.03,49.35c0,0,0,0.01,0,0.01
			c-0.02,0.13,0.07,0.25,0.2,0.28c0.13,0.02,0.25-0.07,0.28-0.2c0.02-0.13-0.07-0.25-0.2-0.28C47.18,49.15,47.06,49.23,47.03,49.35z
			"/>
		<path d="M42.71,37.06l-7.26,6.19l-0.81-0.95l7.26-6.19L42.71,37.06z M35.47,42.93l6.91-5.89l-0.51-0.6l-6.91,5.89L35.47,42.93z"/>
		<path d="M31.11,24.55l-6.84,5.68l-0.8-0.96l6.84-5.68L31.11,24.55z M24.31,29.9l6.48-5.38l-0.5-0.6l-6.48,5.38L24.31,29.9z"/>
		<path d="M36.37,32.51l-4.59,3.99l-2.21-2.44l4.54-4.08L36.37,32.51z M31.8,36.18l4.24-3.69l-1.95-2.17l-4.19,3.77L31.8,36.18z"/>
		<rect x="34.04" y="27.42" transform="matrix(0.7725 -0.635 0.635 0.7725 -9.3807 28.7651)" width="2.83" height="0.12"/>
		<polygon points="40.1,30.5 37.95,32.33 37.87,32.25 40.02,30.41 		"/>
		<rect x="29.37" y="38.9" transform="matrix(0.7211 -0.6928 0.6928 0.7211 -18.5077 31.9388)" width="2.1" height="0.12"/>
		<rect x="25.74" y="34.98" transform="matrix(0.7284 -0.6851 0.6851 0.7284 -16.7095 27.9242)" width="2.26" height="0.12"/>
		<path d="M39.5,26.81l-1.56,1.39l-2.19-2.46l1.56-1.39L39.5,26.81z M37.94,28.04l1.39-1.24l-2.04-2.28l-1.39,1.24L37.94,28.04z"/>
		<path d="M41.36,25.11l-1.56,1.39l-2.19-2.46l1.56-1.39L41.36,25.11z M39.8,26.34l1.39-1.24l-2.04-2.28l-1.39,1.24L39.8,26.34z"/>
		<path d="M43.21,23.42l-1.56,1.39l-2.19-2.46l1.56-1.39L43.21,23.42z M41.66,24.65l1.39-1.24l-2.04-2.28l-1.39,1.24L41.66,24.65z"
			/>
		<path d="M45.07,21.73l-1.56,1.39l-2.19-2.46l1.56-1.39L45.07,21.73z M43.52,22.96l1.39-1.24l-2.04-2.28l-1.39,1.24L43.52,22.96z"
			/>
		<path d="M46.93,20.03l-1.56,1.39l-2.19-2.46l1.56-1.39L46.93,20.03z M45.38,21.26l1.39-1.24l-2.04-2.28l-1.39,1.24L45.38,21.26z"
			/>
		<path d="M48.79,18.34l-1.56,1.39l-2.19-2.46l1.56-1.39L48.79,18.34z M47.24,19.57l1.39-1.24l-2.04-2.28l-1.39,1.24L47.24,19.57z"
			/>
		<path d="M50.65,16.65l-1.56,1.39l-2.19-2.46l1.56-1.39L50.65,16.65z M49.1,17.88l1.39-1.24l-2.04-2.28l-1.39,1.24L49.1,17.88z"/>
		<path d="M52.51,14.95l-1.56,1.39l-2.19-2.46l1.56-1.39L52.51,14.95z M50.96,16.18l1.39-1.24l-2.04-2.28l-1.39,1.24L50.96,16.18z"
			/>
		<path d="M42.18,29.73l-1.56,1.39l-2.19-2.46l1.56-1.39L42.18,29.73z M40.63,30.96l1.39-1.24l-2.04-2.28l-1.39,1.24L40.63,30.96z"
			/>
		<path d="M44.04,28.03l-1.56,1.39l-2.19-2.46l1.56-1.39L44.04,28.03z M42.49,29.26l1.39-1.24l-2.04-2.28l-1.39,1.24L42.49,29.26z"
			/>
		<path d="M45.9,26.34l-1.56,1.39l-2.19-2.46l1.56-1.39L45.9,26.34z M44.35,27.57l1.39-1.24l-2.04-2.28l-1.39,1.24L44.35,27.57z"/>
		<path d="M47.76,24.65l-1.56,1.39l-2.19-2.46l1.56-1.39L47.76,24.65z M46.21,25.88l1.39-1.24l-2.04-2.28l-1.39,1.24L46.21,25.88z"
			/>
		<path d="M49.62,22.95l-1.56,1.39l-2.19-2.46l1.56-1.39L49.62,22.95z M48.07,24.18l1.39-1.24l-2.04-2.28l-1.39,1.24L48.07,24.18z"
			/>
		<path d="M51.48,21.26l-1.56,1.39l-2.19-2.46l1.56-1.39L51.48,21.26z M49.93,22.49l1.39-1.24l-2.04-2.28l-1.39,1.24L49.93,22.49z"
			/>
		<path d="M53.34,19.57l-1.56,1.39l-2.19-2.46l1.56-1.39L53.34,19.57z M51.79,20.8l1.39-1.24l-2.04-2.28l-1.39,1.24L51.79,20.8z"/>
		<path d="M55.2,17.87l-1.56,1.39l-2.19-2.46l1.56-1.39L55.2,17.87z M53.65,19.1l1.39-1.24L53,15.58l-1.39,1.24L53.65,19.1z"/>
		<path d="M14.41,49.11l-1.56,1.39l-2.19-2.46l1.56-1.39L14.41,49.11z M12.85,50.34l1.39-1.24l-2.04-2.28l-1.39,1.24L12.85,50.34z"
			/>
		<path d="M16.26,47.42l-1.56,1.39l-2.19-2.46l1.56-1.39L16.26,47.42z M14.71,48.65l1.39-1.24l-2.04-2.28l-1.39,1.24L14.71,48.65z"
			/>
		<path d="M18.12,45.73l-1.56,1.39l-2.19-2.46l1.56-1.39L18.12,45.73z M16.57,46.96l1.39-1.24l-2.04-2.28l-1.39,1.24L16.57,46.96z"
			/>
		<path d="M19.98,44.04l-1.56,1.39l-2.19-2.46l1.56-1.39L19.98,44.04z M18.43,45.26l1.39-1.24l-2.04-2.28l-1.39,1.24L18.43,45.26z"
			/>
		<path d="M21.84,42.34l-1.56,1.39l-2.19-2.46l1.56-1.39L21.84,42.34z M20.29,43.57l1.39-1.24l-2.04-2.28l-1.39,1.24L20.29,43.57z"
			/>
		<path d="M23.7,40.65l-1.56,1.39l-2.19-2.46l1.56-1.39L23.7,40.65z M22.15,41.88l1.39-1.24l-2.04-2.28l-1.39,1.24L22.15,41.88z"/>
		<path d="M25.56,38.96L24,40.35l-2.19-2.46l1.56-1.39L25.56,38.96z M24.01,40.19l1.39-1.24l-2.04-2.28l-1.39,1.24L24.01,40.19z"/>
		<path d="M27.42,37.26l-1.56,1.39l-2.19-2.46l1.56-1.39L27.42,37.26z M25.87,38.49l1.39-1.24l-2.04-2.28l-1.39,1.24L25.87,38.49z"
			/>
		<path d="M17.09,52.04l-1.56,1.39l-2.19-2.46l1.56-1.39L17.09,52.04z M15.54,53.27l1.39-1.24l-2.04-2.28l-1.39,1.24L15.54,53.27z"
			/>
		<path d="M18.95,50.34l-1.56,1.39l-2.19-2.46l1.56-1.39L18.95,50.34z M17.4,51.57l1.39-1.24l-2.04-2.28l-1.39,1.24L17.4,51.57z"/>
		<path d="M20.81,48.65l-1.56,1.39l-2.19-2.46l1.56-1.39L20.81,48.65z M19.26,49.88l1.39-1.24l-2.04-2.28l-1.39,1.24L19.26,49.88z"
			/>
		<path d="M22.67,46.96l-1.56,1.39l-2.19-2.46l1.56-1.39L22.67,46.96z M21.12,48.19l1.39-1.24l-2.04-2.28l-1.39,1.24L21.12,48.19z"
			/>
		<path d="M24.53,45.26l-1.56,1.39l-2.19-2.46l1.56-1.39L24.53,45.26z M22.98,46.49l1.39-1.24l-2.04-2.28l-1.39,1.24L22.98,46.49z"
			/>
		<path d="M26.39,43.57l-1.56,1.39l-2.19-2.46l1.56-1.39L26.39,43.57z M24.84,44.8l1.39-1.24l-2.04-2.28l-1.39,1.24L24.84,44.8z"/>
		<path d="M28.25,41.88l-1.56,1.39l-2.19-2.46l1.56-1.39L28.25,41.88z M26.7,43.11l1.39-1.24l-2.04-2.28l-1.39,1.24L26.7,43.11z"/>
		<path d="M30.11,40.18l-1.56,1.39l-2.19-2.46l1.56-1.39L30.11,40.18z M28.56,41.41l1.39-1.24l-2.04-2.28l-1.39,1.24L28.56,41.41z"
			/>
		<path class="st5" d="M24.28,30.09"/>
		<path d="M28.69,25.16l-3.3,2.74l-0.8-0.96l3.3-2.74L28.69,25.16z M25.42,27.57l2.94-2.44l-0.5-0.6l-2.94,2.44L25.42,27.57z"/>
	</g>
</g>
</svg>
