<?xml version="1.0" encoding="utf-8"?>
<!-- Generator: Adobe Illustrator 25.4.1, SVG Export Plug-In . SVG Version: 6.00 Build 0)  -->
<svg version="1.1" xmlns="http://www.w3.org/2000/svg" xmlns:xlink="http://www.w3.org/1999/xlink" x="0px" y="0px"
	 viewBox="0 0 70 70" style="enable-background:new 0 0 70 70;" xml:space="preserve">
<style type="text/css">
	.st0{display:none;}
	.st1{display:inline;fill:#F4C81D;}
	.st2{display:inline;}
	.st3{fill:none;stroke:#F4C81D;stroke-width:2;stroke-miterlimit:10;}
</style>
<g id="Capa_1" class="st0">
	<circle class="st1" cx="35" cy="35" r="33.16"/>
	<g class="st2">
		<path d="M28.98,50.85h-2.72c-0.09,0-0.18-0.04-0.24-0.11c-0.06-0.07-0.09-0.16-0.07-0.25l3.12-18.78
			c0.02-0.15,0.15-0.26,0.31-0.26h1.45c0.11,0,0.2,0.05,0.26,0.14l3.77,5.45c0.02,0.03,0.05,0.05,0.09,0.05
			c0.03,0,0.07-0.02,0.08-0.04l3.68-5.42c0.06-0.09,0.16-0.14,0.26-0.14h0.81c0.15,0,0.28,0.1,0.31,0.25L44,50.43
			c0.02,0.09,0,0.19-0.06,0.26c-0.06,0.07-0.15,0.12-0.24,0.12h-2.72c-0.16,0-0.29-0.12-0.31-0.28L38.9,35.51
			c-0.01-0.07-0.06-0.08-0.08-0.09c-0.02,0-0.07-0.01-0.11,0.04l-3.58,5.59c-0.06,0.09-0.16,0.14-0.26,0.14
			c-0.11,0.01-0.21-0.05-0.26-0.14l-3.67-5.59c-0.04-0.06-0.09-0.05-0.11-0.04c-0.02,0-0.07,0.02-0.08,0.09l-1.46,15.05
			C29.28,50.73,29.14,50.85,28.98,50.85z M29.37,31.66c-0.05,0-0.09,0.04-0.1,0.09l-3.12,18.78c0,0.03,0,0.06,0.02,0.08
			c0.02,0.02,0.05,0.04,0.08,0.04h2.72c0.05,0,0.1-0.04,0.1-0.09l1.46-15.05c0.01-0.13,0.11-0.24,0.24-0.27
			c0.13-0.03,0.26,0.02,0.34,0.13l3.67,5.59c0.02,0.03,0.05,0.04,0.09,0.05c0.04,0,0.07-0.02,0.09-0.05l3.58-5.59
			c0.07-0.11,0.2-0.17,0.33-0.14c0.13,0.03,0.23,0.14,0.24,0.27l1.76,15.02c0.01,0.05,0.05,0.09,0.1,0.09h2.72
			c0.03,0,0.06-0.01,0.08-0.04s0.03-0.05,0.02-0.09l-3.92-18.7c-0.01-0.05-0.05-0.08-0.1-0.08h-0.81c-0.03,0-0.07,0.02-0.08,0.04
			l-3.68,5.42c-0.06,0.09-0.15,0.14-0.26,0.14c-0.1,0-0.2-0.05-0.26-0.14l-3.77-5.45c-0.02-0.03-0.05-0.05-0.08-0.05H29.37z"/>
		<path d="M42.22,31.66H27.64v-2.5h14.58V31.66z M27.85,31.45h14.16v-2.07H27.85V31.45z"/>
		<rect x="35.32" y="12.32" width="0.21" height="11.17"/>
		<path d="M41.67,29.37H28.18v-5.98h13.49V29.37z M28.39,29.16h13.07V23.6H28.39V29.16z"/>
		<g>
			<path d="M32.3,15.24l-2.12-2.12l2.93-2.93l-2.97-2.96l2.12-2.12l2.93,2.93l2.95-2.95l2.13,2.13l-2.91,2.91l2.95,2.95l-2.13,2.13
				l-2.93-2.93L32.3,15.24z M30.48,13.12l1.82,1.82l2.95-2.95l2.93,2.93l1.83-1.83l-2.95-2.95l2.91-2.91l-1.83-1.83l-2.95,2.95
				l-2.93-2.93l-1.82,1.82l2.97,2.96L30.48,13.12z"/>
		</g>
		<path d="M34.89,64.19c-7.4,0-13.42-6.02-13.42-13.42v-0.11h26.83v0.11C48.31,58.17,42.29,64.19,34.89,64.19z M21.69,50.88
			c0.06,7.23,5.96,13.1,13.2,13.1c7.25,0,13.15-5.87,13.2-13.1H21.69z"/>
		<path d="M44.94,49.4l-20.18-0.25l1.67-9.93h16.34L44.94,49.4z M25.01,48.95l19.67,0.24l-2.08-9.75H26.6L25.01,48.95z"/>
		<rect x="26.51" y="40.53" width="16.41" height="0.05"/>
		<rect x="26.27" y="42.41" width="17.07" height="0.05"/>
		<rect x="25.7" y="44.29" width="17.88" height="0.05"/>
		<rect x="25.37" y="46.08" width="18.7" height="0.05"/>
		<rect x="25.04" y="47.96" width="19.35" height="0.05"/>
		<rect x="23.34" y="44.19" transform="matrix(0.0976 -0.9952 0.9952 0.0976 -18.5901 67.9348)" width="9.66" height="0.05"/>
		<rect x="31.43" y="39.36" transform="matrix(1 -8.066027e-03 8.066027e-03 1 -0.3562 0.2552)" width="0.05" height="9.85"/>
		<polygon points="34.9,49.13 34.74,39.33 34.79,39.33 34.95,49.13 		"/>
		<rect x="38.45" y="39.25" transform="matrix(1 -8.328482e-03 8.328482e-03 1 -0.3664 0.322)" width="0.05" height="9.8"/>
		<polygon points="41.96,49.23 41.68,39.36 41.73,39.36 42.02,49.23 		"/>
	</g>
</g>
<g id="Capa_2">
	<circle class="st3" cx="35" cy="35" r="33.16"/>
	<g>
		<path d="M28.98,50.85h-2.72c-0.09,0-0.18-0.04-0.24-0.11c-0.06-0.07-0.09-0.16-0.07-0.25l3.12-18.78
			c0.02-0.15,0.15-0.26,0.31-0.26h1.45c0.11,0,0.2,0.05,0.26,0.14l3.77,5.45c0.02,0.03,0.05,0.05,0.09,0.05
			c0.03,0,0.07-0.02,0.08-0.04l3.68-5.42c0.06-0.09,0.16-0.14,0.26-0.14h0.81c0.15,0,0.28,0.1,0.31,0.25L44,50.43
			c0.02,0.09,0,0.19-0.06,0.26c-0.06,0.07-0.15,0.12-0.24,0.12h-2.72c-0.16,0-0.29-0.12-0.31-0.28L38.9,35.51
			c-0.01-0.07-0.06-0.08-0.08-0.09c-0.02,0-0.07-0.01-0.11,0.04l-3.58,5.59c-0.06,0.09-0.16,0.14-0.26,0.14
			c-0.11,0.01-0.21-0.05-0.26-0.14l-3.67-5.59c-0.04-0.06-0.09-0.05-0.11-0.04c-0.02,0-0.07,0.02-0.08,0.09l-1.46,15.05
			C29.28,50.73,29.14,50.85,28.98,50.85z M29.37,31.66c-0.05,0-0.09,0.04-0.1,0.09l-3.12,18.78c0,0.03,0,0.06,0.02,0.08
			c0.02,0.02,0.05,0.04,0.08,0.04h2.72c0.05,0,0.1-0.04,0.1-0.09l1.46-15.05c0.01-0.13,0.11-0.24,0.24-0.27
			c0.13-0.03,0.26,0.02,0.34,0.13l3.67,5.59c0.02,0.03,0.05,0.04,0.09,0.05c0.04,0,0.07-0.02,0.09-0.05l3.58-5.59
			c0.07-0.11,0.2-0.17,0.33-0.14c0.13,0.03,0.23,0.14,0.24,0.27l1.76,15.02c0.01,0.05,0.05,0.09,0.1,0.09h2.72
			c0.03,0,0.06-0.01,0.08-0.04s0.03-0.05,0.02-0.09l-3.92-18.7c-0.01-0.05-0.05-0.08-0.1-0.08h-0.81c-0.03,0-0.07,0.02-0.08,0.04
			l-3.68,5.42c-0.06,0.09-0.15,0.14-0.26,0.14c-0.1,0-0.2-0.05-0.26-0.14l-3.77-5.45c-0.02-0.03-0.05-0.05-0.08-0.05H29.37z"/>
		<path d="M42.22,31.66H27.64v-2.5h14.58V31.66z M27.85,31.45h14.16v-2.07H27.85V31.45z"/>
		<rect x="35.32" y="12.32" width="0.21" height="11.17"/>
		<path d="M41.67,29.37H28.18v-5.98h13.49V29.37z M28.39,29.16h13.07V23.6H28.39V29.16z"/>
		<g>
			<path d="M32.3,15.24l-2.12-2.12l2.93-2.93l-2.97-2.96l2.12-2.12l2.93,2.93l2.95-2.95l2.13,2.13l-2.91,2.91l2.95,2.95l-2.13,2.13
				l-2.93-2.93L32.3,15.24z M30.48,13.12l1.82,1.82l2.95-2.95l2.93,2.93l1.83-1.83l-2.95-2.95l2.91-2.91l-1.83-1.83l-2.95,2.95
				l-2.93-2.93l-1.82,1.82l2.97,2.96L30.48,13.12z"/>
		</g>
		<path d="M34.89,64.19c-7.4,0-13.42-6.02-13.42-13.42v-0.11h26.83v0.11C48.31,58.17,42.29,64.19,34.89,64.19z M21.69,50.88
			c0.06,7.23,5.96,13.1,13.2,13.1c7.25,0,13.15-5.87,13.2-13.1H21.69z"/>
		<path d="M44.94,49.4l-20.18-0.25l1.67-9.93h16.34L44.94,49.4z M25.01,48.95l19.67,0.24l-2.08-9.75H26.6L25.01,48.95z"/>
		<rect x="26.51" y="40.53" width="16.41" height="0.05"/>
		<rect x="26.27" y="42.41" width="17.07" height="0.05"/>
		<rect x="25.7" y="44.29" width="17.88" height="0.05"/>
		<rect x="25.37" y="46.08" width="18.7" height="0.05"/>
		<rect x="25.04" y="47.96" width="19.35" height="0.05"/>
		<rect x="23.34" y="44.19" transform="matrix(0.0976 -0.9952 0.9952 0.0976 -18.5901 67.9348)" width="9.66" height="0.05"/>
		<rect x="31.43" y="39.36" transform="matrix(1 -8.066027e-03 8.066027e-03 1 -0.3562 0.2552)" width="0.05" height="9.85"/>
		<polygon points="34.9,49.13 34.74,39.33 34.79,39.33 34.95,49.13 		"/>
		<rect x="38.45" y="39.25" transform="matrix(1 -8.328482e-03 8.328482e-03 1 -0.3664 0.322)" width="0.05" height="9.8"/>
		<polygon points="41.96,49.23 41.68,39.36 41.73,39.36 42.02,49.23 		"/>
	</g>
</g>
</svg>
