<?xml version="1.0" encoding="utf-8"?>
<!-- Generator: Adobe Illustrator 25.4.1, SVG Export Plug-In . SVG Version: 6.00 Build 0)  -->
<svg version="1.1" xmlns="http://www.w3.org/2000/svg" xmlns:xlink="http://www.w3.org/1999/xlink" x="0px" y="0px"
	 viewBox="0 0 70 70" style="enable-background:new 0 0 70 70;" xml:space="preserve">
<style type="text/css">
	.st0{display:none;}
	.st1{display:inline;fill:#F4C81D;}
	.st2{display:inline;}
	.st3{display:inline;fill:none;stroke:#F4C81D;stroke-width:2;stroke-miterlimit:10;}
	.st4{fill:none;stroke:#000000;stroke-miterlimit:10;}
	.st5{fill:none;stroke:#F4C81D;stroke-width:2;stroke-miterlimit:10;}
	.st6{fill:none;stroke:#1D1D1B;stroke-width:0.5;stroke-miterlimit:10;}
	.st7{fill:#1D1D1B;}
	.st8{fill:none;stroke:#1D1D1B;stroke-width:0.25;stroke-miterlimit:10;}
</style>
<g id="Capa_1" class="st0">
	<circle class="st1" cx="35" cy="35" r="33.16"/>
	<g class="st2">
		<path d="M28.98,50.85h-2.72c-0.09,0-0.18-0.04-0.24-0.11c-0.06-0.07-0.09-0.16-0.07-0.25l3.12-18.78
			c0.02-0.15,0.15-0.26,0.31-0.26h1.45c0.11,0,0.2,0.05,0.26,0.14l3.77,5.45c0.02,0.03,0.05,0.05,0.09,0.05
			c0.03,0,0.07-0.02,0.08-0.04l3.68-5.42c0.06-0.09,0.16-0.14,0.26-0.14h0.81c0.15,0,0.28,0.1,0.31,0.25L44,50.43
			c0.02,0.09,0,0.19-0.06,0.26c-0.06,0.07-0.15,0.12-0.24,0.12h-2.72c-0.16,0-0.29-0.12-0.31-0.28L38.9,35.51
			c-0.01-0.07-0.06-0.08-0.08-0.09c-0.02,0-0.07-0.01-0.11,0.04l-3.58,5.59c-0.06,0.09-0.16,0.14-0.26,0.14
			c-0.11,0.01-0.21-0.05-0.26-0.14l-3.67-5.59c-0.04-0.06-0.09-0.05-0.11-0.04c-0.02,0-0.07,0.02-0.08,0.09l-1.46,15.05
			C29.28,50.73,29.14,50.85,28.98,50.85z M29.37,31.66c-0.05,0-0.09,0.04-0.1,0.09l-3.12,18.78c0,0.03,0,0.06,0.02,0.08
			c0.02,0.02,0.05,0.04,0.08,0.04h2.72c0.05,0,0.1-0.04,0.1-0.09l1.46-15.05c0.01-0.13,0.11-0.24,0.24-0.27
			c0.13-0.03,0.26,0.02,0.34,0.13l3.67,5.59c0.02,0.03,0.05,0.04,0.09,0.05c0.04,0,0.07-0.02,0.09-0.05l3.58-5.59
			c0.07-0.11,0.2-0.17,0.33-0.14c0.13,0.03,0.23,0.14,0.24,0.27l1.76,15.02c0.01,0.05,0.05,0.09,0.1,0.09h2.72
			c0.03,0,0.06-0.01,0.08-0.04s0.03-0.05,0.02-0.09l-3.92-18.7c-0.01-0.05-0.05-0.08-0.1-0.08h-0.81c-0.03,0-0.07,0.02-0.08,0.04
			l-3.68,5.42c-0.06,0.09-0.15,0.14-0.26,0.14c-0.1,0-0.2-0.05-0.26-0.14l-3.77-5.45c-0.02-0.03-0.05-0.05-0.08-0.05H29.37z"/>
		<path d="M42.22,31.66H27.64v-2.5h14.58V31.66z M27.85,31.45h14.16v-2.07H27.85V31.45z"/>
		<rect x="35.32" y="12.32" width="0.21" height="11.17"/>
		<path d="M41.67,29.37H28.18v-5.98h13.49V29.37z M28.39,29.16h13.07V23.6H28.39V29.16z"/>
		<g>
			<path d="M32.3,15.24l-2.12-2.12l2.93-2.93l-2.97-2.96l2.12-2.12l2.93,2.93l2.95-2.95l2.13,2.13l-2.91,2.91l2.95,2.95l-2.13,2.13
				l-2.93-2.93L32.3,15.24z M30.48,13.12l1.82,1.82l2.95-2.95l2.93,2.93l1.83-1.83l-2.95-2.95l2.91-2.91l-1.83-1.83l-2.95,2.95
				l-2.93-2.93l-1.82,1.82l2.97,2.96L30.48,13.12z"/>
		</g>
		<path d="M34.89,64.19c-7.4,0-13.42-6.02-13.42-13.42v-0.11h26.83v0.11C48.31,58.17,42.29,64.19,34.89,64.19z M21.69,50.88
			c0.06,7.23,5.96,13.1,13.2,13.1c7.25,0,13.15-5.87,13.2-13.1H21.69z"/>
		<path d="M44.94,49.4l-20.18-0.25l1.67-9.93h16.34L44.94,49.4z M25.01,48.95l19.67,0.24l-2.08-9.75H26.6L25.01,48.95z"/>
		<rect x="26.51" y="40.53" width="16.41" height="0.05"/>
		<rect x="26.27" y="42.41" width="17.07" height="0.05"/>
		<rect x="25.7" y="44.29" width="17.88" height="0.05"/>
		<rect x="25.37" y="46.08" width="18.7" height="0.05"/>
		<rect x="25.04" y="47.96" width="19.35" height="0.05"/>
		<rect x="23.34" y="44.19" transform="matrix(0.0976 -0.9952 0.9952 0.0976 -18.5901 67.9348)" width="9.66" height="0.05"/>
		<rect x="31.43" y="39.36" transform="matrix(1 -8.066027e-03 8.066027e-03 1 -0.3562 0.2552)" width="0.05" height="9.85"/>
		<polygon points="34.9,49.13 34.74,39.33 34.79,39.33 34.95,49.13 		"/>
		<rect x="38.45" y="39.25" transform="matrix(1 -8.328482e-03 8.328482e-03 1 -0.3664 0.322)" width="0.05" height="9.8"/>
		<polygon points="41.96,49.23 41.68,39.36 41.73,39.36 42.02,49.23 		"/>
	</g>
</g>
<g id="Capa_2" class="st0">
	<circle class="st3" cx="35" cy="35" r="33.16"/>
	<g class="st2">
		<path d="M28.98,50.85h-2.72c-0.09,0-0.18-0.04-0.24-0.11c-0.06-0.07-0.09-0.16-0.07-0.25l3.12-18.78
			c0.02-0.15,0.15-0.26,0.31-0.26h1.45c0.11,0,0.2,0.05,0.26,0.14l3.77,5.45c0.02,0.03,0.05,0.05,0.09,0.05
			c0.03,0,0.07-0.02,0.08-0.04l3.68-5.42c0.06-0.09,0.16-0.14,0.26-0.14h0.81c0.15,0,0.28,0.1,0.31,0.25L44,50.43
			c0.02,0.09,0,0.19-0.06,0.26c-0.06,0.07-0.15,0.12-0.24,0.12h-2.72c-0.16,0-0.29-0.12-0.31-0.28L38.9,35.51
			c-0.01-0.07-0.06-0.08-0.08-0.09c-0.02,0-0.07-0.01-0.11,0.04l-3.58,5.59c-0.06,0.09-0.16,0.14-0.26,0.14
			c-0.11,0.01-0.21-0.05-0.26-0.14l-3.67-5.59c-0.04-0.06-0.09-0.05-0.11-0.04c-0.02,0-0.07,0.02-0.08,0.09l-1.46,15.05
			C29.28,50.73,29.14,50.85,28.98,50.85z M29.37,31.66c-0.05,0-0.09,0.04-0.1,0.09l-3.12,18.78c0,0.03,0,0.06,0.02,0.08
			c0.02,0.02,0.05,0.04,0.08,0.04h2.72c0.05,0,0.1-0.04,0.1-0.09l1.46-15.05c0.01-0.13,0.11-0.24,0.24-0.27
			c0.13-0.03,0.26,0.02,0.34,0.13l3.67,5.59c0.02,0.03,0.05,0.04,0.09,0.05c0.04,0,0.07-0.02,0.09-0.05l3.58-5.59
			c0.07-0.11,0.2-0.17,0.33-0.14c0.13,0.03,0.23,0.14,0.24,0.27l1.76,15.02c0.01,0.05,0.05,0.09,0.1,0.09h2.72
			c0.03,0,0.06-0.01,0.08-0.04s0.03-0.05,0.02-0.09l-3.92-18.7c-0.01-0.05-0.05-0.08-0.1-0.08h-0.81c-0.03,0-0.07,0.02-0.08,0.04
			l-3.68,5.42c-0.06,0.09-0.15,0.14-0.26,0.14c-0.1,0-0.2-0.05-0.26-0.14l-3.77-5.45c-0.02-0.03-0.05-0.05-0.08-0.05H29.37z"/>
		<path d="M42.22,31.66H27.64v-2.5h14.58V31.66z M27.85,31.45h14.16v-2.07H27.85V31.45z"/>
		<rect x="35.32" y="12.32" width="0.21" height="11.17"/>
		<path d="M41.67,29.37H28.18v-5.98h13.49V29.37z M28.39,29.16h13.07V23.6H28.39V29.16z"/>
		<g>
			<path d="M32.3,15.24l-2.12-2.12l2.93-2.93l-2.97-2.96l2.12-2.12l2.93,2.93l2.95-2.95l2.13,2.13l-2.91,2.91l2.95,2.95l-2.13,2.13
				l-2.93-2.93L32.3,15.24z M30.48,13.12l1.82,1.82l2.95-2.95l2.93,2.93l1.83-1.83l-2.95-2.95l2.91-2.91l-1.83-1.83l-2.95,2.95
				l-2.93-2.93l-1.82,1.82l2.97,2.96L30.48,13.12z"/>
		</g>
		<path d="M34.89,64.19c-7.4,0-13.42-6.02-13.42-13.42v-0.11h26.83v0.11C48.31,58.17,42.29,64.19,34.89,64.19z M21.69,50.88
			c0.06,7.23,5.96,13.1,13.2,13.1c7.25,0,13.15-5.87,13.2-13.1H21.69z"/>
		<path d="M44.94,49.4l-20.18-0.25l1.67-9.93h16.34L44.94,49.4z M25.01,48.95l19.67,0.24l-2.08-9.75H26.6L25.01,48.95z"/>
		<rect x="26.51" y="40.53" width="16.41" height="0.05"/>
		<rect x="26.27" y="42.41" width="17.07" height="0.05"/>
		<rect x="25.7" y="44.29" width="17.88" height="0.05"/>
		<rect x="25.37" y="46.08" width="18.7" height="0.05"/>
		<rect x="25.04" y="47.96" width="19.35" height="0.05"/>
		<rect x="23.34" y="44.19" transform="matrix(0.0976 -0.9952 0.9952 0.0976 -18.5901 67.9348)" width="9.66" height="0.05"/>
		<rect x="31.43" y="39.36" transform="matrix(1 -8.066027e-03 8.066027e-03 1 -0.3562 0.2552)" width="0.05" height="9.85"/>
		<polygon points="34.9,49.13 34.74,39.33 34.79,39.33 34.95,49.13 		"/>
		<rect x="38.45" y="39.25" transform="matrix(1 -8.328482e-03 8.328482e-03 1 -0.3664 0.322)" width="0.05" height="9.8"/>
		<polygon points="41.96,49.23 41.68,39.36 41.73,39.36 42.02,49.23 		"/>
	</g>
</g>
<g id="Capa_3" class="st0">
	<circle class="st3" cx="35" cy="35" r="33.16"/>
	<g class="st2">
		<path d="M47.55,41.06l-8.78,7.29l-0.07-0.09c-1.86-2.34-1.36-5.85,1.11-7.82c2.53-2.01,5.83-1.78,7.67,0.54L47.55,41.06z
			 M38.8,48.02l8.42-6.99c-1.77-2.13-4.88-2.32-7.27-0.41C37.61,42.48,37.11,45.77,38.8,48.02z"/>
		<path d="M35.32,29.28l-6.82,5.99l-4.39-5.19l6.83-5.66L35.32,29.28z M28.53,34.94l6.46-5.67l-4.07-4.52l-6.48,5.37L28.53,34.94z"
			/>
		<path d="M42.07,36.29l-7.29,6.16l-4.43-5l7.01-6.07L42.07,36.29z M34.8,42.13l6.93-5.85l-4.39-4.57l-6.66,5.77L34.8,42.13z"/>
		<polygon points="39.53,40.72 39.45,40.79 38.9,40.19 38.99,40.11 		"/>
		<rect x="43.63" y="44.52" transform="matrix(0.3095 -0.9509 0.9509 0.3095 -15.6196 74.7914)" width="0.12" height="7.26"/>
		<polygon points="47.13,49.25 47.01,49.28 45.54,42.6 45.65,42.57 		"/>
		<polygon points="47.13,49.15 47.04,49.23 43,44.74 43.09,44.66 		"/>
		<path d="M47.73,49.51c-0.05,0.24-0.29,0.4-0.54,0.36c-0.26-0.04-0.43-0.29-0.39-0.54c0.04-0.26,0.29-0.43,0.54-0.39l0,0
			c0.26,0.04,0.43,0.29,0.39,0.54C47.73,49.49,47.73,49.5,47.73,49.51z M47.03,49.35c0,0,0,0.01,0,0.01
			c-0.02,0.13,0.07,0.25,0.2,0.28c0.13,0.02,0.25-0.07,0.28-0.2c0.02-0.13-0.07-0.25-0.2-0.28C47.18,49.15,47.06,49.23,47.03,49.35z
			"/>
		<path d="M42.71,37.06l-7.26,6.19l-0.81-0.95l7.26-6.19L42.71,37.06z M35.47,42.93l6.91-5.89l-0.51-0.6l-6.91,5.89L35.47,42.93z"/>
		<path d="M31.11,24.55l-6.84,5.68l-0.8-0.96l6.84-5.68L31.11,24.55z M24.31,29.9l6.48-5.38l-0.5-0.6l-6.48,5.38L24.31,29.9z"/>
		<path d="M36.37,32.51l-4.59,3.99l-2.21-2.44l4.54-4.08L36.37,32.51z M31.8,36.18l4.24-3.69l-1.95-2.17l-4.19,3.77L31.8,36.18z"/>
		<rect x="34.04" y="27.42" transform="matrix(0.7725 -0.635 0.635 0.7725 -9.3807 28.7651)" width="2.83" height="0.12"/>
		<polygon points="40.1,30.5 37.95,32.33 37.87,32.25 40.02,30.41 		"/>
		<rect x="29.37" y="38.9" transform="matrix(0.7211 -0.6928 0.6928 0.7211 -18.5077 31.9388)" width="2.1" height="0.12"/>
		<rect x="25.74" y="34.98" transform="matrix(0.7284 -0.6851 0.6851 0.7284 -16.7095 27.9242)" width="2.26" height="0.12"/>
		<path d="M39.5,26.81l-1.56,1.39l-2.19-2.46l1.56-1.39L39.5,26.81z M37.94,28.04l1.39-1.24l-2.04-2.28l-1.39,1.24L37.94,28.04z"/>
		<path d="M41.36,25.11l-1.56,1.39l-2.19-2.46l1.56-1.39L41.36,25.11z M39.8,26.34l1.39-1.24l-2.04-2.28l-1.39,1.24L39.8,26.34z"/>
		<path d="M43.21,23.42l-1.56,1.39l-2.19-2.46l1.56-1.39L43.21,23.42z M41.66,24.65l1.39-1.24l-2.04-2.28l-1.39,1.24L41.66,24.65z"
			/>
		<path d="M45.07,21.73l-1.56,1.39l-2.19-2.46l1.56-1.39L45.07,21.73z M43.52,22.96l1.39-1.24l-2.04-2.28l-1.39,1.24L43.52,22.96z"
			/>
		<path d="M46.93,20.03l-1.56,1.39l-2.19-2.46l1.56-1.39L46.93,20.03z M45.38,21.26l1.39-1.24l-2.04-2.28l-1.39,1.24L45.38,21.26z"
			/>
		<path d="M48.79,18.34l-1.56,1.39l-2.19-2.46l1.56-1.39L48.79,18.34z M47.24,19.57l1.39-1.24l-2.04-2.28l-1.39,1.24L47.24,19.57z"
			/>
		<path d="M50.65,16.65l-1.56,1.39l-2.19-2.46l1.56-1.39L50.65,16.65z M49.1,17.88l1.39-1.24l-2.04-2.28l-1.39,1.24L49.1,17.88z"/>
		<path d="M52.51,14.95l-1.56,1.39l-2.19-2.46l1.56-1.39L52.51,14.95z M50.96,16.18l1.39-1.24l-2.04-2.28l-1.39,1.24L50.96,16.18z"
			/>
		<path d="M42.18,29.73l-1.56,1.39l-2.19-2.46l1.56-1.39L42.18,29.73z M40.63,30.96l1.39-1.24l-2.04-2.28l-1.39,1.24L40.63,30.96z"
			/>
		<path d="M44.04,28.03l-1.56,1.39l-2.19-2.46l1.56-1.39L44.04,28.03z M42.49,29.26l1.39-1.24l-2.04-2.28l-1.39,1.24L42.49,29.26z"
			/>
		<path d="M45.9,26.34l-1.56,1.39l-2.19-2.46l1.56-1.39L45.9,26.34z M44.35,27.57l1.39-1.24l-2.04-2.28l-1.39,1.24L44.35,27.57z"/>
		<path d="M47.76,24.65l-1.56,1.39l-2.19-2.46l1.56-1.39L47.76,24.65z M46.21,25.88l1.39-1.24l-2.04-2.28l-1.39,1.24L46.21,25.88z"
			/>
		<path d="M49.62,22.95l-1.56,1.39l-2.19-2.46l1.56-1.39L49.62,22.95z M48.07,24.18l1.39-1.24l-2.04-2.28l-1.39,1.24L48.07,24.18z"
			/>
		<path d="M51.48,21.26l-1.56,1.39l-2.19-2.46l1.56-1.39L51.48,21.26z M49.93,22.49l1.39-1.24l-2.04-2.28l-1.39,1.24L49.93,22.49z"
			/>
		<path d="M53.34,19.57l-1.56,1.39l-2.19-2.46l1.56-1.39L53.34,19.57z M51.79,20.8l1.39-1.24l-2.04-2.28l-1.39,1.24L51.79,20.8z"/>
		<path d="M55.2,17.87l-1.56,1.39l-2.19-2.46l1.56-1.39L55.2,17.87z M53.65,19.1l1.39-1.24L53,15.58l-1.39,1.24L53.65,19.1z"/>
		<path d="M14.41,49.11l-1.56,1.39l-2.19-2.46l1.56-1.39L14.41,49.11z M12.85,50.34l1.39-1.24l-2.04-2.28l-1.39,1.24L12.85,50.34z"
			/>
		<path d="M16.26,47.42l-1.56,1.39l-2.19-2.46l1.56-1.39L16.26,47.42z M14.71,48.65l1.39-1.24l-2.04-2.28l-1.39,1.24L14.71,48.65z"
			/>
		<path d="M18.12,45.73l-1.56,1.39l-2.19-2.46l1.56-1.39L18.12,45.73z M16.57,46.96l1.39-1.24l-2.04-2.28l-1.39,1.24L16.57,46.96z"
			/>
		<path d="M19.98,44.04l-1.56,1.39l-2.19-2.46l1.56-1.39L19.98,44.04z M18.43,45.26l1.39-1.24l-2.04-2.28l-1.39,1.24L18.43,45.26z"
			/>
		<path d="M21.84,42.34l-1.56,1.39l-2.19-2.46l1.56-1.39L21.84,42.34z M20.29,43.57l1.39-1.24l-2.04-2.28l-1.39,1.24L20.29,43.57z"
			/>
		<path d="M23.7,40.65l-1.56,1.39l-2.19-2.46l1.56-1.39L23.7,40.65z M22.15,41.88l1.39-1.24l-2.04-2.28l-1.39,1.24L22.15,41.88z"/>
		<path d="M25.56,38.96L24,40.35l-2.19-2.46l1.56-1.39L25.56,38.96z M24.01,40.19l1.39-1.24l-2.04-2.28l-1.39,1.24L24.01,40.19z"/>
		<path d="M27.42,37.26l-1.56,1.39l-2.19-2.46l1.56-1.39L27.42,37.26z M25.87,38.49l1.39-1.24l-2.04-2.28l-1.39,1.24L25.87,38.49z"
			/>
		<path d="M17.09,52.04l-1.56,1.39l-2.19-2.46l1.56-1.39L17.09,52.04z M15.54,53.27l1.39-1.24l-2.04-2.28l-1.39,1.24L15.54,53.27z"
			/>
		<path d="M18.95,50.34l-1.56,1.39l-2.19-2.46l1.56-1.39L18.95,50.34z M17.4,51.57l1.39-1.24l-2.04-2.28l-1.39,1.24L17.4,51.57z"/>
		<path d="M20.81,48.65l-1.56,1.39l-2.19-2.46l1.56-1.39L20.81,48.65z M19.26,49.88l1.39-1.24l-2.04-2.28l-1.39,1.24L19.26,49.88z"
			/>
		<path d="M22.67,46.96l-1.56,1.39l-2.19-2.46l1.56-1.39L22.67,46.96z M21.12,48.19l1.39-1.24l-2.04-2.28l-1.39,1.24L21.12,48.19z"
			/>
		<path d="M24.53,45.26l-1.56,1.39l-2.19-2.46l1.56-1.39L24.53,45.26z M22.98,46.49l1.39-1.24l-2.04-2.28l-1.39,1.24L22.98,46.49z"
			/>
		<path d="M26.39,43.57l-1.56,1.39l-2.19-2.46l1.56-1.39L26.39,43.57z M24.84,44.8l1.39-1.24l-2.04-2.28l-1.39,1.24L24.84,44.8z"/>
		<path d="M28.25,41.88l-1.56,1.39l-2.19-2.46l1.56-1.39L28.25,41.88z M26.7,43.11l1.39-1.24l-2.04-2.28l-1.39,1.24L26.7,43.11z"/>
		<path d="M30.11,40.18l-1.56,1.39l-2.19-2.46l1.56-1.39L30.11,40.18z M28.56,41.41l1.39-1.24l-2.04-2.28l-1.39,1.24L28.56,41.41z"
			/>
		<path class="st4" d="M24.28,30.09"/>
		<path d="M28.69,25.16l-3.3,2.74l-0.8-0.96l3.3-2.74L28.69,25.16z M25.42,27.57l2.94-2.44l-0.5-0.6l-2.94,2.44L25.42,27.57z"/>
	</g>
</g>
<g id="Capa_4">
	<circle class="st5" cx="35" cy="35" r="33.16"/>
	<g>
		<path class="st6" d="M46.03,25.83c-0.34,3.07-6.32,5.44-10.59,9.84c-4.64,4.01-7.35,9.84-10.44,10c-1.45-0.04-3.03-2.2-2.98-5.84
			c0.01-3.55,1.63-8.59,5.72-12.33c3.97-3.86,9.09-5.19,12.64-4.99C44.01,22.68,46.08,24.38,46.03,25.83z"/>
		<path class="st7" d="M31.81,24.04c-0.05,0.05-0.13,0.07-0.21,0.05c-0.11-0.03-0.18-0.15-0.14-0.26c0.4-1.33-0.32-2.1-1.01-2.85
			c-0.67-0.73-1.37-1.48-0.71-2.62c0.06-0.1,0.19-0.14,0.29-0.08c0.1,0.06,0.14,0.19,0.08,0.29c-0.48,0.83-0.08,1.32,0.66,2.12
			c0.7,0.76,1.57,1.69,1.1,3.26C31.85,23.99,31.83,24.02,31.81,24.04z"/>
		<path class="st7" d="M34.56,23.14c-0.07,0.07-0.18,0.08-0.26,0.02c-0.1-0.06-0.13-0.2-0.06-0.29c0.44-0.68,0.01-2.01-0.37-3.19
			c-0.36-1.14-0.68-2.12-0.32-2.65c0.06-0.1,0.2-0.12,0.3-0.06c0.1,0.07,0.12,0.2,0.06,0.3c-0.25,0.36,0.07,1.34,0.37,2.28
			c0.43,1.33,0.87,2.7,0.32,3.55C34.58,23.12,34.57,23.13,34.56,23.14z"/>
		<path class="st7" d="M37.36,22.35c-0.01,0.01-0.02,0.02-0.03,0.02c-0.1,0.07-0.23,0.04-0.29-0.06c-0.61-0.92-0.45-2.04-0.3-3.13
			c0.15-1.06,0.29-2.06-0.36-2.67c-0.09-0.08-0.09-0.21-0.01-0.3c0.08-0.09,0.21-0.09,0.3-0.01c0.81,0.76,0.65,1.92,0.49,3.04
			c-0.14,1.01-0.29,2.05,0.23,2.83C37.45,22.17,37.43,22.28,37.36,22.35z"/>
		<path class="st7" d="M40.21,22.17c-0.05,0.05-0.13,0.07-0.21,0.05c-0.11-0.03-0.17-0.15-0.14-0.27c0.45-1.46-0.03-2.71-0.41-3.71
			c-0.32-0.84-0.6-1.56-0.25-2.17c0.06-0.1,0.19-0.14,0.29-0.08c0.1,0.06,0.14,0.19,0.08,0.29c-0.25,0.43-0.01,1.04,0.28,1.8
			c0.41,1.06,0.92,2.39,0.42,3.99C40.26,22.12,40.24,22.15,40.21,22.17z"/>
		<path class="st7" d="M43,22.57c-0.07,0.07-0.18,0.08-0.26,0.02c-0.1-0.07-0.12-0.2-0.06-0.29c0.75-1.12,0.54-2.47,0.35-3.66
			c-0.16-1.04-0.31-1.94,0.19-2.54c0.08-0.09,0.21-0.1,0.3-0.03c0.09,0.08,0.1,0.21,0.03,0.3c-0.38,0.45-0.25,1.26-0.1,2.2
			c0.2,1.27,0.43,2.7-0.42,3.97C43.02,22.55,43.01,22.56,43,22.57z"/>
		<path class="st7" d="M44.9,23.06c-0.08,0.08-0.22,0.08-0.3-0.01c-0.08-0.08-0.08-0.22,0.01-0.3c0.02-0.02,2.45-2.39,2.57-5.11
			c0-0.12,0.1-0.21,0.22-0.2c0.12,0,0.21,0.1,0.2,0.22C47.47,20.56,45,22.96,44.9,23.06C44.9,23.06,44.9,23.06,44.9,23.06z"/>
		<path class="st7" d="M50.78,21.02c-0.03,0.03-0.07,0.05-0.12,0.06c-1.07,0.13-1.43,0.68-1.88,1.39c-0.51,0.79-1.08,1.68-2.76,2.17
			c-0.11,0.03-0.23-0.03-0.26-0.14c-0.03-0.11,0.03-0.23,0.14-0.26c1.52-0.44,2.03-1.23,2.52-1.99c0.47-0.73,0.92-1.43,2.19-1.58
			c0.12-0.01,0.22,0.07,0.24,0.19C50.85,20.91,50.83,20.98,50.78,21.02z"/>
		<path class="st7" d="M52.53,25.46c-0.05,0.05-0.13,0.07-0.2,0.05c-2.35-0.62-5.59,1.05-5.62,1.07c-0.1,0.05-0.23,0.01-0.29-0.09
			c-0.05-0.1-0.01-0.23,0.09-0.29c0.14-0.07,3.42-1.77,5.93-1.1c0.11,0.03,0.18,0.15,0.15,0.26C52.58,25.4,52.56,25.44,52.53,25.46z
			"/>
		<path class="st7" d="M51.13,29.67c-0.02,0.02-0.05,0.04-0.09,0.05c-1.62,0.44-2.47,0-3.38-0.47c-0.64-0.33-1.3-0.68-2.33-0.8
			c-0.12-0.01-0.2-0.12-0.19-0.24c0.01-0.12,0.12-0.2,0.24-0.19c1.11,0.13,1.84,0.51,2.48,0.84c0.9,0.47,1.61,0.84,3.07,0.44
			c0.11-0.03,0.23,0.04,0.26,0.15C51.21,29.53,51.18,29.61,51.13,29.67z"/>
		<path class="st7" d="M48.58,32.34c-0.04,0.03-0.09,0.06-0.14,0.06c-0.12,0-0.22-0.09-0.22-0.21c-0.01-0.37-0.26-0.43-1.24-0.44
			c-1.09-0.02-2.73-0.04-4.2-1.46c-0.08-0.08-0.09-0.22-0.01-0.3c0.08-0.08,0.22-0.09,0.3-0.01c1.35,1.3,2.83,1.32,3.91,1.34
			c0.88,0.01,1.63,0.03,1.66,0.85C48.64,32.25,48.62,32.3,48.58,32.34z"/>
		<path class="st7" d="M45.95,34.56c-0.03,0.03-0.07,0.05-0.11,0.06c-0.12,0.02-0.22-0.06-0.24-0.18c-0.08-0.53-0.81-0.66-2-0.82
			c-1.08-0.14-2.42-0.33-3.42-1.09c-0.09-0.07-0.11-0.2-0.04-0.3c0.07-0.09,0.2-0.11,0.3-0.04c0.92,0.69,2.14,0.86,3.23,1.01
			c1.2,0.16,2.23,0.3,2.36,1.18C46.02,34.44,45.99,34.51,45.95,34.56z"/>
		<path class="st7" d="M43.26,36.57c-0.03,0.03-0.07,0.05-0.11,0.05c-0.12,0.02-0.23-0.06-0.24-0.17c-0.08-0.46-0.37-0.49-1.23-0.52
			c-0.99-0.03-2.49-0.09-4.2-1.39c-0.09-0.07-0.11-0.2-0.04-0.3c0.07-0.09,0.2-0.11,0.3-0.04c1.6,1.22,2.96,1.27,3.96,1.3
			c0.8,0.03,1.49,0.05,1.63,0.88C43.34,36.45,43.31,36.52,43.26,36.57z"/>
		<path class="st7" d="M41.16,39.07c-0.03,0.03-0.06,0.04-0.1,0.05c-0.11,0.02-0.23-0.05-0.25-0.16c-0.31-1.45-3.93-1.85-5.3-1.88
			c-0.12,0-0.21-0.1-0.21-0.22c0-0.12,0.1-0.21,0.22-0.21c0.21,0.01,5.26,0.14,5.71,2.21C41.23,38.95,41.21,39.03,41.16,39.07z"/>
		<path class="st7" d="M39.62,40.8c-0.03,0.03-0.06,0.04-0.1,0.05c-1.36,0.3-5.53-1.76-6-2c-0.11-0.05-0.15-0.18-0.09-0.28
			c0.05-0.1,0.18-0.15,0.29-0.09c1.24,0.62,4.69,2.19,5.72,1.96c0.11-0.03,0.23,0.05,0.25,0.16C39.7,40.67,39.67,40.75,39.62,40.8z"
			/>
		<path class="st7" d="M37.89,42.81c-0.03,0.03-0.07,0.05-0.11,0.06c-1.43,0.23-2.25-0.28-3.11-0.81c-0.79-0.49-1.6-0.99-3.01-1.07
			c-0.12-0.01-0.21-0.11-0.2-0.23c0.01-0.12,0.11-0.21,0.22-0.2c1.52,0.09,2.42,0.65,3.21,1.14c0.83,0.51,1.55,0.96,2.82,0.76
			c0.12-0.02,0.23,0.06,0.24,0.18C37.97,42.69,37.94,42.76,37.89,42.81z"/>
		<path class="st7" d="M35.46,45.19c-0.01,0.01-0.02,0.01-0.02,0.02c-0.1,0.07-0.23,0.04-0.3-0.05c-1.17-1.67-5.3-1.95-5.35-1.96
			c-0.12-0.01-0.21-0.11-0.2-0.23c0.01-0.12,0.11-0.21,0.23-0.2c0.18,0.01,4.38,0.3,5.67,2.14C35.55,45,35.53,45.12,35.46,45.19z"/>
		<path class="st7" d="M33.19,47.38c-0.02,0.02-0.06,0.04-0.09,0.05c-0.11,0.03-0.23-0.04-0.26-0.15c-0.24-0.9-1.22-1.02-2.35-1.16
			c-1.13-0.14-2.3-0.28-2.81-1.29c-0.05-0.1-0.01-0.23,0.1-0.28c0.11-0.05,0.23-0.01,0.28,0.09c0.4,0.8,1.41,0.93,2.48,1.06
			c1.18,0.15,2.4,0.3,2.71,1.47C33.27,47.24,33.24,47.32,33.19,47.38z"/>
		<path class="st7" d="M28.78,51.54c-0.08,0.07-0.2,0.08-0.28,0.01c-0.09-0.07-0.11-0.21-0.03-0.3c1.57-1.93-2.09-5.14-2.13-5.17
			c-0.09-0.08-0.1-0.21-0.02-0.3c0.08-0.09,0.21-0.1,0.3-0.02c0.16,0.14,4,3.51,2.18,5.76C28.79,51.52,28.79,51.53,28.78,51.54z"/>
		<path class="st7" d="M23.21,51.87c-0.06,0.05-0.14,0.07-0.22,0.04c-0.18-0.07-0.32-0.2-0.38-0.37c-0.2-0.54,0.28-1.39,0.88-2.47
			c0.53-0.96,1.13-2.05,1.12-2.79c0-0.12,0.09-0.21,0.21-0.22c0.12,0,0.21,0.09,0.22,0.21c0.02,0.85-0.59,1.94-1.17,3
			c-0.46,0.83-0.98,1.77-0.85,2.12c0.02,0.04,0.04,0.09,0.13,0.12c0.11,0.04,0.16,0.16,0.12,0.27
			C23.25,51.82,23.23,51.84,23.21,51.87z"/>
		<path class="st7" d="M22.06,47.23c-0.46,0.44-0.93,0.74-1.34,1c-0.62,0.4-1.1,0.71-1.3,1.31c-0.04,0.11-0.16,0.17-0.27,0.13
			c-0.11-0.04-0.17-0.16-0.13-0.27c0.25-0.74,0.82-1.1,1.48-1.53c0.8-0.52,1.8-1.16,2.57-2.76c0.05-0.11,0.18-0.15,0.28-0.1
			c0.11,0.05,0.15,0.18,0.1,0.28C23.02,46.18,22.54,46.78,22.06,47.23z"/>
		<path class="st7" d="M19.25,45.6c-0.44,0.42-1.07,0.78-2.1,1.04c-0.11,0.03-0.23-0.04-0.26-0.16c-0.03-0.11,0.04-0.23,0.16-0.26
			c1.71-0.42,2.17-1.15,2.66-1.91c0.4-0.62,0.81-1.26,1.83-1.79c0.1-0.05,0.23-0.01,0.29,0.09c0.05,0.1,0.01,0.23-0.09,0.29
			c-0.92,0.48-1.29,1.04-1.67,1.64C19.83,44.91,19.6,45.27,19.25,45.6z"/>
		<path class="st7" d="M20.47,41.41c-0.72,0.68-1.49,0.91-2.19,1.11c-0.62,0.18-1.2,0.35-1.69,0.82c0,0-0.01,0.01-0.01,0.01
			c-0.08,0.08-0.22,0.08-0.3-0.01c-0.08-0.08-0.08-0.22,0.01-0.3c0.58-0.55,1.23-0.74,1.87-0.93c1.02-0.3,2.08-0.61,2.99-2.36
			c0.05-0.1,0.18-0.14,0.29-0.09c0.1,0.05,0.14,0.18,0.09,0.29C21.2,40.59,20.84,41.06,20.47,41.41z"/>
		<path class="st7" d="M21.94,37.32c-0.03,0.03-0.06,0.04-0.1,0.05c-1.53,0.32-2.48,1.03-3.24,1.6c-0.77,0.57-1.37,1.02-2.1,0.61
			c-0.1-0.06-0.14-0.19-0.08-0.29c0.06-0.1,0.19-0.14,0.29-0.08c0.47,0.26,0.86,0,1.64-0.58c0.75-0.56,1.79-1.33,3.4-1.67
			c0.11-0.02,0.23,0.05,0.25,0.16C22.02,37.2,22,37.27,21.94,37.32z"/>
		<path class="st7" d="M22.2,35.16c0,0-0.01,0.01-0.01,0.01c-0.99,0.79-1.85,0.47-2.76,0.14c-0.78-0.29-1.66-0.61-2.83-0.35
			c-0.11,0.03-0.23-0.05-0.25-0.16c-0.03-0.11,0.05-0.23,0.16-0.25c1.3-0.29,2.24,0.06,3.07,0.36c0.9,0.33,1.55,0.57,2.35-0.07
			c0.09-0.07,0.23-0.06,0.3,0.03C22.29,34.96,22.28,35.08,22.2,35.16z"/>
		<path class="st7" d="M23.83,32.24c-0.08,0.08-0.21,0.08-0.29,0c-0.84-0.78-2.38-0.48-3.61-0.25c-1.07,0.21-1.92,0.37-2.25-0.13
			c-0.06-0.1-0.04-0.23,0.06-0.29c0.1-0.06,0.23-0.04,0.29,0.06c0.17,0.26,1.01,0.1,1.81-0.05c1.33-0.26,2.98-0.58,3.98,0.35
			C23.91,32,23.92,32.14,23.83,32.24C23.83,32.23,23.83,32.23,23.83,32.24z"/>
		<path class="st7" d="M25.51,29.18c-0.05,0.05-0.13,0.07-0.2,0.05c-1.32-0.36-4.91-1.06-5.64,0.01c-0.07,0.1-0.2,0.12-0.3,0.05
			c-0.1-0.07-0.12-0.2-0.05-0.3c1.03-1.49,5.59-0.32,6.1-0.18c0.11,0.03,0.18,0.15,0.15,0.26C25.56,29.12,25.53,29.16,25.51,29.18z"
			/>
		<path class="st7" d="M27.37,27.3c-0.01,0.01-0.01,0.01-0.02,0.02c-0.09,0.07-0.23,0.05-0.3-0.05c-0.84-1.16-2.01-1.43-3.04-1.66
			c-0.94-0.21-1.83-0.42-2.09-1.33c-0.03-0.11,0.03-0.23,0.15-0.26c0.11-0.03,0.23,0.03,0.26,0.15c0.18,0.64,0.76,0.8,1.78,1.03
			c1.05,0.24,2.35,0.54,3.29,1.83C27.46,27.11,27.45,27.23,27.37,27.3z"/>
		<path class="st7" d="M29.62,25.54c-0.01,0.01-0.02,0.02-0.03,0.03c-0.1,0.06-0.23,0.03-0.29-0.07c-0.51-0.82-1.11-1.31-1.64-1.74
			c-0.85-0.69-1.58-1.29-1.43-2.81c0.01-0.12,0.11-0.2,0.23-0.19c0.12,0.01,0.2,0.11,0.19,0.23c-0.12,1.29,0.46,1.77,1.27,2.44
			c0.56,0.45,1.19,0.97,1.73,1.85C29.71,25.36,29.69,25.47,29.62,25.54z"/>
		<g>
			<path class="st8" d="M36.85,25.94c0.72,0.76,0.69,1.97-0.08,2.69c-0.76,0.72-1.97,0.69-2.69-0.08c-0.72-0.76-0.69-1.97,0.08-2.69
				C34.93,25.14,36.13,25.18,36.85,25.94z"/>
		</g>
		<path class="st8" d="M31.46,31.04c0.34,0.36,0.33,0.93-0.04,1.28c-0.36,0.34-0.93,0.33-1.28-0.04c-0.34-0.36-0.33-0.93,0.04-1.28
			C30.54,30.66,31.12,30.68,31.46,31.04z"/>
		<path class="st8" d="M31.79,35.92c0.28,0.3,0.27,0.77-0.03,1.05c-0.3,0.28-0.77,0.27-1.05-0.03c-0.28-0.3-0.27-0.77,0.03-1.05
			C31.03,35.61,31.51,35.62,31.79,35.92z"/>
		<path class="st8" d="M27.29,37.88c0.17,0.18,0.16,0.46-0.02,0.63c-0.18,0.17-0.46,0.16-0.63-0.02c-0.17-0.18-0.16-0.46,0.02-0.63
			C26.85,37.69,27.13,37.7,27.29,37.88z"/>
		<path class="st8" d="M25.89,34.4c0.12,0.12,0.11,0.32-0.01,0.44c-0.12,0.12-0.32,0.11-0.44-0.01c-0.12-0.12-0.11-0.32,0.01-0.44
			C25.57,34.27,25.77,34.28,25.89,34.4z"/>
		<path class="st8" d="M25.14,36.05c0.26,0.28,0.25,0.71-0.03,0.97c-0.28,0.26-0.71,0.25-0.97-0.03c-0.26-0.28-0.25-0.71,0.03-0.97
			C24.44,35.76,24.88,35.77,25.14,36.05z"/>
		<path class="st8" d="M25.96,42.35c0.26,0.27,0.24,0.7-0.03,0.95c-0.27,0.26-0.7,0.24-0.95-0.03c-0.25-0.27-0.24-0.7,0.03-0.95
			C25.28,42.06,25.71,42.08,25.96,42.35z"/>
		<path class="st8" d="M38.73,30.32c0.26,0.27,0.24,0.7-0.03,0.96c-0.27,0.26-0.7,0.24-0.96-0.03c-0.26-0.27-0.24-0.7,0.03-0.96
			C38.04,30.03,38.47,30.04,38.73,30.32z"/>
		<path class="st8" d="M43.31,26.54c0.23,0.24,0.21,0.62-0.02,0.84c-0.24,0.23-0.62,0.21-0.84-0.02c-0.23-0.24-0.21-0.62,0.02-0.84
			C42.7,26.29,43.08,26.3,43.31,26.54z"/>
		<path class="st8" d="M31.16,26.53c0.13,0.14,0.12,0.35-0.01,0.48C31,27.15,30.79,27.14,30.66,27c-0.13-0.14-0.12-0.35,0.01-0.48
			C30.81,26.39,31.03,26.39,31.16,26.53z"/>
		<path class="st8" d="M27.09,30.49c0.16,0.17,0.16,0.45-0.02,0.61c-0.17,0.16-0.45,0.16-0.61-0.02c-0.16-0.17-0.16-0.45,0.02-0.61
			C26.65,30.31,26.93,30.32,27.09,30.49z"/>
	</g>
</g>
</svg>
