<svg enable-background="new 0 0 130 284.56" viewBox="0 0 130 284.56" xmlns="http://www.w3.org/2000/svg"><path d="m48.66 125.78 17.96 27.18c.39.58 1.24.59 1.63.01l17.43-25.66c.18-.27.49-.43.81-.43h3.83c.46 0 .87.33.96.78l18.53 88.48c.13.61-.34 1.18-.96 1.18h-12.84c-.5 0-.92-.37-.98-.87l-8.34-71.07c-.11-.92-1.3-1.19-1.8-.41l-16.92 26.45c-.38.6-1.26.6-1.65.01l-17.37-26.45c-.51-.77-1.71-.48-1.8.44l-6.93 71.22c-.05.5-.47.89-.98.89h-12.9c-.6 0-1.07-.54-.97-1.14l14.63-90.23c.08-.48.49-.82.97-.82h6.88c.32 0 .63.16.81.44z" fill="#f9cb1e"/><path d="m88.03 51.16v39.63" fill="none" stroke="#000" stroke-miterlimit="10"/><path d="m33.43 118.12h67.99v10.82h-67.99z" fill="#face1d"/><path d="m68.98 37.94v52.88" fill="none" stroke="#000" stroke-miterlimit="10"/><path d="m36.01 90.82h62.84v27.3h-62.84z" fill="#face1d"/><circle cx="87.52" cy="41.37" fill="none" r="9.79" stroke="#000" stroke-miterlimit="10"/><path d="m68.94 37.06c-4.77 4.78-9.41 9.41-13.96 13.96-3.14-3.14-6.23-6.23-9.31-9.31l13.85-13.85c-4.77-4.76-9.44-9.41-14.06-14.02 3.18-3.18 6.26-6.26 9.33-9.33 4.59 4.59 9.24 9.24 13.85 13.86 4.75-4.75 9.39-9.4 13.96-13.97 3.22 3.22 6.31 6.31 9.39 9.39-4.52 4.52-9.17 9.17-13.78 13.79 4.75 4.75 9.39 9.39 13.96 13.96-3.21 3.21-6.3 6.31-9.38 9.38-4.52-4.52-9.16-9.17-13.85-13.86z" fill="#face1d"/><path d="m127.99 217.17c0 34.79-28.2 62.99-62.99 62.99s-62.99-28.2-62.99-62.99z" fill="#face1d"/><g fill="none" stroke="#000" stroke-miterlimit="10"><path d="m19.83 209.52 7.73-45.98h76.52l10.05 47.14z"/><g stroke-width=".25"><path d="m27.56 169.33h77.68"/><path d="m26.4 178.22h80.77"/><path d="m23.7 187.11h84.63"/><path d="m22.15 195.61h88.5"/><path d="m20.61 204.5h91.58"/><path d="m37.61 163.92-4.47 45.48"/><path d="m50.76 163.69.38 46.61"/><path d="m66.59 163.54.78 46.37"/><path d="m83.98 163.15.39 46.37"/><path d="m99.46 163.69 1.33 46.71"/></g></g></svg>