<svg enable-background="new 0 0 250 250" viewBox="0 0 250 250" xmlns="http://www.w3.org/2000/svg"><g stroke="#000" stroke-miterlimit="10"><path d="m184.06 48.06h-110.17c-.59 0-1.07.48-1.07 1.07v149.47c0 .59.48 1.07 1.07 1.07h110.17c.59 0 1.07-.48 1.07-1.07v-149.47c0-.59-.48-1.07-1.07-1.07zm-68.9 59.12c-2.37 0-4.3-1.92-4.3-4.3s1.92-4.3 4.3-4.3c2.37 0 4.3 1.92 4.3 4.3s-1.93 4.3-4.3 4.3z" fill="#face1d"/><circle cx="115.16" cy="102.88" fill="#face1d" r="4.3"/><path d="m172.72 59.29h-87.49c-.65 0-1.17.53-1.17 1.18v121.19c0 .65.53 1.18 1.17 1.18h87.49c.65 0 1.17-.53 1.17-1.18v-121.19c.01-.65-.52-1.18-1.17-1.18z" fill="#43cabf"/><circle cx="131.78" cy="191.25" fill="none" r="2.81" stroke-width=".5"/><path d="m83.36 168.79h87.73" fill="#fff" stroke-width=".75"/><g fill="#026bb2" stroke-width=".9"><path d="m99.62 142.99h13.55v25.8h-13.55z"/><path d="m121.3 133.06h13.55v35.73h-13.55z"/><path d="m142.98 128.1h13.55v40.69h-13.55z"/></g><g fill="none" stroke-width=".75"><path d="m46.58 87.5h-39.13"/><path d="m7.45 99.64h39.13"/><path d="m95.3 133.85-44.73-23.75-43.12.82"/><path d="m203.34 96.47h39.46"/><path d="m203.34 108.62h39.46"/><path d="m242.8 120.76h-39.46"/><path d="m153.12 148.89 46.2-17.67 43.48.82"/></g></g></svg>