<svg enable-background="new 0 0 250 250" viewBox="0 0 250 250" xmlns="http://www.w3.org/2000/svg"><g stroke-miterlimit="10"><g fill="none" stroke="#026bb2"><path d="m62.81 179.74c21.15 0 21.15 2 42.29 2 21.15 0 21.15-2 42.29-2 21.15 0 21.15 2 42.3 2s21.15-2 42.3-2"/><path d="m62.81 203.47c21.15 0 21.15 2 42.29 2 21.15 0 21.15-2 42.29-2 21.15 0 21.15 2 42.3 2s21.15-2 42.3-2"/><path d="m62.81 227.21c21.15 0 21.15 2 42.29 2 21.15 0 21.15-2 42.29-2 21.15 0 21.15 2 42.3 2s21.15-2 42.3-2"/></g><g stroke="#000"><path d="m172.94 123.03h-70.59c-.67 0-1.22-.55-1.22-1.22v-99.8c0-.67.55-1.22 1.22-1.22h70.59c.67 0 1.22.55 1.22 1.22v99.81c0 .67-.55 1.21-1.22 1.21z" fill="#face1d"/><g fill="none"><path d="m113.77 42.7h47.75" stroke-width=".9"/><path d="m114.77 56.36h47.74" stroke-width=".9"/><path d="m114.77 70.02h47.74" stroke-width=".9"/></g><circle cx="190.81" cy="117.73" fill="#43cabf" r="47.47"/><g stroke-width=".9"><path d="m236.27 104.06-45.46 13.67-28.96-37.57" fill="none"/><path d="m190.81 117.73-10.95 47.47" fill="none"/><path d="m17.41 143.12 31.44-34.98c1.13-1.25 3.14-1.34 4.37-.17l35.07 32.99c1.24 1.17 3.26 1.08 4.38-.19l30.9-34.94" fill="none"/><g fill="#fff"><circle cx="126.43" cy="102.95" r="5.74"/><circle cx="92" cy="143.12" r="5.74"/><circle cx="17.41" cy="143.12" r="5.74"/><circle cx="51.83" cy="108.69" r="5.74"/></g></g></g></g></svg>