<svg enable-background="new 0 0 250 250" viewBox="0 0 250 250" xmlns="http://www.w3.org/2000/svg"><g stroke="#000" stroke-miterlimit="10"><circle cx="125.42" cy="134.03" fill="#026bb2" r="70.38" stroke-width=".9"/><g fill="#fff" stroke-width=".75"><circle cx="55.1" cy="109.86" r="8.01"/><path d="m66.41 145.88h-22.62c-.39 0-.7-.31-.7-.7v-21.57c0-.97.78-1.75 1.75-1.75h20.52c.97 0 1.75.78 1.75 1.75v21.57c0 .39-.31.7-.7.7z"/><circle cx="195.15" cy="109.86" r="8.01"/><path d="m206.45 145.88h-22.62c-.39 0-.7-.31-.7-.7v-21.57c0-.97.78-1.75 1.75-1.75h20.52c.97 0 1.75.78 1.75 1.75v21.57c.01.39-.31.7-.7.7z"/><circle cx="128" cy="45.66" r="8.01"/><path d="m139.31 81.69h-22.62c-.39 0-.7-.31-.7-.7v-21.57c0-.97.78-1.75 1.75-1.75h20.52c.97 0 1.75.78 1.75 1.75v21.57c0 .38-.31.7-.7.7z"/><circle cx="128" cy="174.05" r="8.01"/><path d="m139.31 210.08h-22.62c-.39 0-.7-.31-.7-.7v-21.57c0-.97.78-1.75 1.75-1.75h20.52c.97 0 1.75.78 1.75 1.75v21.57c0 .39-.31.7-.7.7z"/></g></g><path d="m117.51 116.76h-15.5c-8.53 0-15.5 6.98-15.5 15.5 0 4.98 2.38 9.43 6.06 12.27l1.69 10.98 14.12-7.75h9.13c8.53 0 15.5-6.98 15.5-15.5s-6.97-15.5-15.5-15.5z" fill="#face1d"/><path d="m117.51 116.38c-3.2 0-6.39 0-9.59 0-3.53 0-7.3-.34-10.71.74-5.52 1.76-9.79 6.58-10.82 12.29-.54 3.01-.21 6.14.98 8.96.61 1.45 1.43 2.79 2.43 4 .55.66 1.14 1.27 1.79 1.83.3.26.51.32.64.63.27.62.24 1.58.35 2.24.19 1.22.37 2.43.56 3.65.25 1.63.5 3.25.75 4.88.04.25.36.33.55.22 3.21-1.76 6.42-3.52 9.63-5.28 1.43-.79 2.85-1.62 4.31-2.37.19-.1.2-.08.02-.05.22-.04.48 0 .7 0h3.1c1.77 0 3.54.02 5.3 0 3.22-.03 6.37-.98 9.01-2.82 5.27-3.67 7.89-10.28 6.47-16.55-1.61-7.18-8.16-12.28-15.47-12.37-.48-.01-.48.74 0 .75 6.75.08 12.81 4.62 14.6 11.17 1.81 6.63-1.25 13.78-7.22 17.14-4.23 2.38-8.99 1.94-13.65 1.94-.98 0-2.26-.24-3.18.12-1.29.5-2.54 1.4-3.76 2.06-3.41 1.87-6.82 3.74-10.23 5.62.18.07.37.15.55.22-.49-3.16-.97-6.32-1.46-9.49-.07-.43-.05-1.04-.22-1.45-.13-.3-.42-.46-.67-.67-.6-.51-1.17-1.08-1.69-1.67-2.32-2.67-3.64-6.14-3.69-9.67-.08-6.2 3.81-11.99 9.59-14.27 3.36-1.33 6.96-1.05 10.5-1.05h10.54c.47 0 .48-.75-.01-.75z"/><path d="m131.84 107.57h19.85c10.92 0 19.85 8.32 19.85 18.49 0 5.94-3.05 11.25-7.76 14.64l-2.17 13.1-18.08-9.24h-11.69c-10.92 0-19.85-8.32-19.85-18.49s8.94-18.5 19.85-18.5z" fill="#43cabf"/><path d="m131.84 107.95h10.91c3.99 0 8.25-.38 12.21.26 7.34 1.18 13.9 6.5 15.7 13.84.99 4 .44 8.29-1.49 11.94-.97 1.84-2.26 3.49-3.78 4.9-.7.65-1.81 1.09-2.04 2.04-.56 2.3-.78 4.74-1.17 7.08-.31 1.9-.63 3.79-.94 5.69.18-.07.37-.15.55-.22-3.75-1.92-7.5-3.83-11.24-5.75-2-1.02-3.99-2.04-5.99-3.06-1.04-.53-1.71-.49-2.91-.49-2.65 0-5.3 0-7.94 0-2.79 0-5.51-.12-8.19-.99-7.88-2.53-13.76-10.03-13.1-18.47.77-9.87 9.93-16.69 19.42-16.77.48 0 .48-.75 0-.75-8.08.07-15.9 4.69-18.96 12.33-3.05 7.62-.23 16.22 6.19 21.13 3.21 2.46 7.12 3.9 11.15 4.21 2.27.17 4.58.06 6.85.06h4.3c.69 0 1.47-.11 2.16 0-.35-.05-.04.01.1.09.29.17.6.31.9.46 1 .51 1.99 1.02 2.99 1.53 4.64 2.37 9.27 4.74 13.91 7.11.19.1.51.03.55-.22.67-4.08 1.35-8.16 2.02-12.24.03-.21.02-.55.12-.74.15-.29.81-.63 1.11-.88 1.54-1.3 2.89-2.84 3.96-4.55 2.11-3.39 3.07-7.45 2.6-11.43-.82-7.07-5.91-12.91-12.46-15.45-4.41-1.71-9.07-1.41-13.7-1.41-4.6 0-9.2 0-13.8 0-.47 0-.47.75.01.75z"/><g fill="none" stroke="#000" stroke-miterlimit="10" stroke-width=".75"><path d="m125.94 120.77h31.65"/><path d="m157.59 130.51-24.83-.5"/></g></svg>