<svg enable-background="new 0 0 130 130" viewBox="0 0 130 130" xmlns="http://www.w3.org/2000/svg"><path d="m24.6 79.75h-4.12c-.58 0-1.1-.44-1.1-1.01v-8.48c0-.5.45-.93 1.02-.93.56 0 1.02.44 1.02.93v7.65h3.17c.53 0 .99.39.99.91.01.52-.43.93-.98.93z"/><path d="m29.08 79.19c-.15.42-.61.69-.96.69-.57 0-1.05-.38-1.05-.93 0-.07.01-.25.04-.32l2.85-8.31c.19-.57.48-.99 1.18-.99s.99.41 1.2.99l2.85 8.31c.03.07.04.25.04.32 0 .55-.45.93-1.05.93-.38 0-.85-.28-.99-.69l-.51-1.47h-3.11zm2.32-5.63c-.13-.42-.2-.98-.26-1.43-.06.45-.13 1.01-.26 1.43l-.77 2.5h2.04z"/><path d="m38.57 76.04c0 1.26.44 2.04 1.75 2.04.51 0 .88-.13 1.21-.31v-2.27h-.76c-.48 0-.92-.41-.92-.92s.44-.92.92-.92h1.59c.67 0 1.2.32 1.2 1.02v3.23c0 1.37-1.81 1.96-3.31 1.96-2.56 0-3.72-1.52-3.72-3.83v-2.89c0-2.31 1.17-3.83 3.72-3.83 1.55 0 3.02.72 3.02 1.56 0 .47-.41.88-.96.88-.34 0-.44-.1-.63-.22l-.15-.09c-.36-.22-.74-.35-1.21-.35-1.31 0-1.75.79-1.75 2.04z"/><path d="m45.42 76.04v-2.89c0-2.07 1.07-3.83 3.8-3.83s3.8 1.75 3.8 3.83v2.89c0 2.13-1.27 3.84-3.8 3.84s-3.8-1.71-3.8-3.84zm2.04-2.89v2.89c0 1.17.55 1.99 1.75 1.99s1.75-.82 1.75-1.99v-2.89c0-1.18-.47-1.97-1.75-1.97s-1.75.78-1.75 1.97z"/><path d="m60.38 79.75h-3.87c-.72 0-1.36-.25-1.36-1.04v-8.22c0-.51.48-1.04 1.12-1.04h3.96c.55 0 1.02.44 1.02.95 0 .53-.47.91-1.02.91h-3.03v2.35h2.76c.51 0 1.01.39 1.01.92s-.44.93-1.01.93h-2.76v2.38h3.18c.54 0 1.02.41 1.02.91 0 .52-.46.95-1.02.95z" fill="#006aac"/><path d="m68.66 79.37-3.39-5.9v5.46c0 .51-.48.95-1.04.95-.57 0-1.01-.44-1.01-.95v-8.61c0-.57.45-.99 1.07-.99.39 0 .79.22.99.54 1.3 2.25 2.04 3.58 3.39 5.93v-5.52c0-.51.48-.95 1.04-.95.57 0 1.01.44 1.01.95v8.61c0 .54-.44.99-1.08.99-.38 0-.79-.21-.98-.51z" fill="#006aac"/><path d="m78.35 79.75h-4.12c-.58 0-1.1-.44-1.1-1.01v-8.48c0-.5.45-.93 1.02-.93.56 0 1.02.44 1.02.93v7.65h3.17c.53 0 .99.39.99.91.02.52-.42.93-.98.93z"/><path d="m81.05 70.26c0-.5.45-.93 1.02-.93.56 0 1.02.44 1.02.93v8.69c0 .5-.47.93-1.02.93-.57 0-1.02-.44-1.02-.93zm1.46-3.8.12-.12c.18-.18.28-.28.6-.28.34 0 .72.31.72.72 0 .12-.03.26-.13.41l-1.2 1.2c-.22.19-.34.31-.66.31-.41 0-.74-.29-.74-.72 0-.15.03-.25.12-.36z"/><path d="m90.95 79.37-3.39-5.9v5.46c0 .51-.48.95-1.04.95-.57 0-1.01-.44-1.01-.95v-8.61c0-.57.45-.99 1.07-.99.39 0 .79.22.99.54 1.3 2.25 2.04 3.58 3.39 5.93v-5.52c0-.51.48-.95 1.04-.95.57 0 1.01.44 1.01.95v8.61c0 .54-.44.99-1.08.99-.38 0-.79-.21-.98-.51z"/><path d="m100.66 79.75h-3.87c-.72 0-1.36-.25-1.36-1.04v-8.22c0-.51.48-1.04 1.12-1.04h3.96c.55 0 1.02.44 1.02.95 0 .53-.47.91-1.02.91h-3.04v2.35h2.76c.51 0 1.01.39 1.01.92s-.44.93-1.01.93h-2.76v2.38h3.18c.54 0 1.02.41 1.02.91.01.52-.46.95-1.01.95z"/><path d="m105.21 79.19c-.15.42-.61.69-.96.69-.57 0-1.05-.38-1.05-.93 0-.07.01-.25.04-.32l2.85-8.31c.19-.57.48-.99 1.18-.99s.99.41 1.2.99l2.85 8.31c.03.07.04.25.04.32 0 .55-.45.93-1.05.93-.38 0-.85-.28-.99-.69l-.51-1.47h-3.11zm2.33-5.63c-.13-.42-.2-.98-.26-1.43-.06.45-.13 1.01-.26 1.43l-.77 2.5h2.04z"/><path d="m53.01 50.27c.09.1.21.05.32.07 1.02.18 1.77.75 2.31 1.6.65 1.02 1.1 2.14 1.44 3.29.65 2.17 1.4 4.32 2.22 6.43.19.5.54.75 1.06.78.64.04 1.29.01 1.93.01.87-.01 1.74-.01 2.61 0 .98.01 1.74-.39 2.32-1.16.59-.78 1.03-1.65 1.56-2.46.42-.65.82-1.32 1.35-1.89 1.28-1.36 3.39-1.51 4.92-.36.45.34.82.74 1.1 1.22.68 1.15 1.36 2.3 2.03 3.45.49.85 1.23 1.21 2.2 1.19 1.25-.02 2.5-.01 3.75-.02.18 0 .36-.03.54-.05.57-.08.93-.42 1.15-.93.3-.69.5-1.41.74-2.12.65-1.97 1.22-3.96 1.94-5.91.29-.77.66-1.51 1.23-2.13.51-.55 1.14-.88 1.9-.98.04 0 .08 0 .1-.05h.5c.02.01.03.04.05.04 1.12.13 1.92.74 2.5 1.67.67 1.06 1.11 2.22 1.47 3.41.63 2.14 1.38 4.24 2.19 6.31.15.39.42.62.82.7.18.04.36.04.54.04 2.84 0 5.69 0 8.53-.01.12 0 .25 0 .37.03.44.11.66.42.81.81v.45c-.02.02-.04.03-.05.05-.22.54-.53.76-1.11.76-1.88.01-3.76.01-5.63.02-1.12 0-2.23-.01-3.35-.03s-1.93-.51-2.53-1.43c-.42-.65-.63-1.39-.88-2.11-.7-2.04-1.3-4.11-2.03-6.14-.22-.61-.48-1.19-.86-1.72-.16-.22-.34-.42-.57-.58-.42-.3-.8-.27-1.15.1-.32.32-.5.73-.69 1.13-.66 1.36-1.07 2.81-1.54 4.24-.37 1.13-.72 2.26-1.1 3.38-.27.81-.73 1.51-1.29 2.15-.68.78-1.61 1.01-2.59 1.01-1.47 0-2.95 0-4.42-.06-1.21-.05-2.18-.63-2.87-1.62-.8-1.14-1.45-2.38-2.14-3.58-.13-.22-.25-.44-.42-.64-.82-1.03-2.01-1.07-2.9-.1-.24.26-.42.55-.61.84-.54.84-1.04 1.7-1.54 2.56-.56.95-1.25 1.76-2.29 2.22-.67.31-1.39.36-2.11.37-1.44.01-2.88-.01-4.32 0-1.05.01-1.95-.29-2.6-1.16-.3-.41-.53-.85-.7-1.33-.77-2.12-1.4-4.28-2.13-6.42-.27-.79-.54-1.59-1-2.3-.16-.24-.34-.47-.55-.67-.51-.48-1.04-.43-1.46.13-.25.34-.44.72-.62 1.1-.63 1.34-1.04 2.75-1.49 4.16-.36 1.12-.7 2.24-1.09 3.36-.28.8-.73 1.5-1.27 2.13-.58.67-1.36.93-2.22 1-.95.08-1.9-.01-2.85-.01-.62 0-1.24 0-1.86-.03-1.3-.05-2.3-.65-3.02-1.72-.77-1.13-1.41-2.32-2.08-3.5-.18-.32-.37-.62-.64-.88-.7-.68-1.58-.73-2.35-.13-.27.21-.49.47-.68.75-.61.91-1.16 1.86-1.71 2.81-.35.61-.75 1.18-1.28 1.65-.9.8-1.96 1.11-3.15 1.06-.75-.03-1.5-.04-2.26-.05-1.23-.01-2.46-.02-3.7-.02-.47 0-.85-.26-1-.67-.15-.4-.06-.81.24-1.09.19-.18.42-.25.68-.25 1.34 0 2.68 0 4.02-.01.73 0 1.46-.02 2.18-.03.85-.01 1.53-.37 2.06-1.02.52-.63.9-1.36 1.33-2.05.44-.7.89-1.41 1.4-2.07 1.12-1.48 3.05-1.91 4.7-1.04.74.39 1.29.97 1.7 1.68.65 1.13 1.3 2.25 1.98 3.37.5.83 1.24 1.16 2.18 1.14 1.13-.02 2.27-.01 3.4-.01.28 0 .56-.01.84-.05.49-.07.86-.31 1.09-.75.28-.54.44-1.12.63-1.68.7-2.12 1.33-4.27 2.09-6.38.28-.79.65-1.55 1.22-2.19.56-.63 1.26-1 2.11-1.07.04 0 .08 0 .1-.05.09.04.17.04.25.04z" fill="#026bac"/></svg>