<svg enable-background="new 0 0 52 110" viewBox="0 0 52 110" xmlns="http://www.w3.org/2000/svg"><path d="m19.61 48.55 7.02 10.63c.15.23.48.23.64 0l6.81-10.03c.07-.11.19-.17.32-.17h1.5c.18 0 .34.13.38.31l7.25 34.59c.05.24-.13.46-.38.46h-5.02c-.19 0-.36-.15-.38-.34l-3.26-27.78c-.04-.36-.51-.47-.7-.16l-6.63 10.34c-.15.23-.49.24-.64 0l-6.79-10.34c-.2-.3-.67-.19-.7.17l-2.71 27.85c-.02.2-.18.35-.38.35h-5.04c-.24 0-.42-.21-.38-.45l5.72-35.28c.03-.19.19-.32.38-.32h2.69c.11 0 .23.06.3.17z" fill="#f9cb1e"/><path d="m35.01 19.38v15.49" fill="none" stroke="#000" stroke-miterlimit="10" stroke-width=".5"/><path d="m13.66 45.56h26.58v4.23h-26.58z" fill="#face1d"/><path d="m27.55 14.21v20.67" fill="none" stroke="#000" stroke-miterlimit="10" stroke-width=".5"/><path d="m14.67 34.88h24.57v10.67h-24.57z" fill="#face1d"/><circle cx="34.8" cy="15.55" fill="none" r="3.83" stroke="#000" stroke-miterlimit="10" stroke-width=".5"/><path d="m27.54 13.86c-1.87 1.87-3.68 3.68-5.46 5.46-1.23-1.23-2.44-2.44-3.64-3.64 1.77-1.77 3.58-3.58 5.42-5.42-1.87-1.86-3.69-3.68-5.5-5.48 1.24-1.24 2.45-2.45 3.65-3.65 1.79 1.8 3.61 3.61 5.42 5.42 1.86-1.86 3.67-3.67 5.46-5.46 1.26 1.26 2.47 2.47 3.67 3.67-1.77 1.77-3.58 3.58-5.39 5.39 1.86 1.86 3.67 3.67 5.46 5.46-1.26 1.26-2.46 2.47-3.67 3.67-1.77-1.77-3.59-3.58-5.42-5.42z" fill="#face1d"/><path d="m50.63 84.28c0 13.6-11.03 24.63-24.63 24.63s-24.63-11.03-24.63-24.63z" fill="#face1d"/><g fill="none" stroke="#000" stroke-miterlimit="10"><path d="m8.34 81.29 3.02-17.98h29.92l3.93 18.43z" stroke-width=".5"/><g stroke-width=".25"><path d="m11.36 65.58h30.37"/><path d="m10.91 69.05h31.58"/><path d="m9.85 72.53h33.09"/><path d="m9.25 75.85h34.6"/><path d="m8.64 79.33h35.81"/><path d="m15.29 63.46-1.75 17.78"/><path d="m20.43 63.37.15 18.22"/><path d="m26.62 63.31.31 18.13"/><path d="m33.42 63.16.15 18.13"/><path d="m39.47 63.37.52 18.26"/></g></g></svg>