<svg enable-background="new 0 0 378.4 377.4" viewBox="0 0 378.4 377.4" xmlns="http://www.w3.org/2000/svg"><path d="m269.1 320.5v-5.5h5.7c.2 0 .5.4.5.7.1 1.3.1 2.6 0 3.9-.1.4-.4.6-.8.7-1.6.2-3.4.2-5.4.2z" fill="#fff"/><g fill="none" stroke="#fff" stroke-miterlimit="9.9999" stroke-width=".75"><path d="m60.8 92.6-27.8-16.6 31.9-18.6 56.8-33.2.3 35.4s-26.5-20.1-28.5-18.9v33.8l-28.6-17.2"/><path d="m83.8 79.8-7.7-5.4 27.8-17.1 13 7"/><path d="m33 102.4v-26.4"/><path d="m64.9 92.6v-35.3"/><path d="m103.9 57.3.1 11.3"/><path d="m150.7 76.8 32.1-17.6 53.4 30.2 13.1-11.6 34.2-19.4 59.1 33.7-22.3 13.2-78.4-46.9 29.2-17.4 30.5 17-42.1 24.2 20.9 14.9 1.1-4.9"/><path d="m255.1 77.7-2.4 2.1v-38.8l30.8 17.4v39.2l-9.7 2 38.8-24.6v30.3"/><path d="m271.1 41v47.8"/><path d="m204.8 105.3-21.2-12.7 58.3-34.2.3 27-12.1 10.9-34.6-21.8-28.1 15.7"/><path d="m182.8 59.2v35.1"/><path d="m195.5 74.5v28.4"/><path d="m212.2 75.8v23.5"/><path d="m289.8 99.3 12.1-5v8.7"/></g><g fill="#fff"><path d="m344.3 305.4h-304v-3.4h1.4 301.1c1.3 0 1.7.3 1.5 1.6z"/><path d="m40 249.5h11.2v5.6c2.6-3.3 6-6.3 11.7-6.3 5.2 0 9.1 2.2 11.2 6.3 3.1-4 7.9-6.4 13-6.3 8.3 0 13.4 5 13.4 14.5v25.8h-11.3v-22.1c0-5.3-2.4-8.1-6.6-8.1s-6.8 2.7-6.8 8.1v22.1h-11.2v-22.1c0-5.3-2.4-8.1-6.6-8.1s-6.8 2.7-6.8 8.1v22.1h-11.2z"/><path d="m107.1 277.7v-.1c0-8.6 6.6-12.6 16-12.6 3.3 0 6.6.5 9.7 1.6v-.7c0-4.7-2.9-7.2-8.5-7.2-3.8 0-7.5.7-10.9 2.1l-2.8-8.6c4.8-2.2 10-3.3 15.3-3.2 6.2 0 10.5 1.6 13.4 4.4 2.9 2.9 4.3 7.3 4.3 12.6v23h-10.9v-4.3c-2.7 3-6.4 5-12 5-7.5.1-13.6-4.1-13.6-12zm25.8-2.6v-2c-2.3-1-4.7-1.5-7.2-1.5-4.8 0-7.8 1.9-7.8 5.5v.1c0 3 2.5 4.8 6.1 4.8 5.4.1 8.9-2.7 8.9-6.9zm-3.3-43.1 9.7 4.2-9.5 8.9h-8.6z"/><path d="m149.4 283.8 4.8-7.4c4.4 3.2 8.7 4.7 12.5 4.7 3.2 0 4.7-1.2 4.7-2.9v-.1c0-2.4-3.8-3.2-8.2-4.6-5.5-1.5-11.8-4.2-11.8-11.9v-.1c0-8.1 6.5-12.6 14.5-12.6 5.3.1 10.4 1.7 14.8 4.6l-4.3 7.8c-3.9-2.3-7.8-3.7-10.7-3.7-2.7 0-4.1 1.2-4.1 2.7v.1c0 2.1 3.8 3.4 8 4.7 5.5 1.8 12 4.5 12 11.7v.1c0 8.8-6.6 12.8-15.1 12.8-6.3.1-12.3-2-17.1-5.9z"/><path d="m207.7 237h10.5l22.2 52.1h-11.9l-4.7-11.6h-21.9l-4.7 11.6h-11.6zm12 30.4-6.9-16.8-6.8 16.8z"/><path d="m245.1 281.2 20.5-22.6h-19.8v-9.1h33.8v7.9l-20.6 22.6h20.5v9.1h-34.4z"/><path d="m287 275.1v-25.6h11.2v22.1c0 5.3 2.4 8 6.8 8s7-2.7 7-8v-22.1h11.2v39.6h-11.2v-5.6c-2.6 3.3-6 6.4-11.6 6.4-8.5-.1-13.4-5.6-13.4-14.8z"/><path d="m333.1 235.1h11.2v53.9h-11.2z"/><path d="m86.6 343.8c2.3.6 4.3 1.2 6.3 1.6.8.1 1.7.1 2.5 0 3.5-.4 5.2-2.7 4.8-6.3-.3.2-.5.4-.7.6-3.9 3.5-9.9 3.2-13.4-.6-.9-.9-1.5-2-1.9-3.2-1.6-4.6-.2-9.7 3.2-12.3 3.6-2.7 8.6-2.6 12.1.3l.6.5c.1-.1.2-.1.2-.2.2-2.2.2-2.2 2.4-2.2h3c.6 0 .9.1.9.8 0 6.1.1 12.2-.2 18.3-.3 5.7-3.6 8.7-9.2 9.3-3.9.5-7.9-.1-11.5-1.6-.9-.4-1-.8-.6-1.6.5-1.2 1-2.4 1.5-3.4zm8.4-6.9c2.8.1 5.2-2 5.3-4.8s-2-5.2-4.8-5.3c-.1 0-.3 0-.4 0-2.8-.1-5.2 2-5.3 4.8s2 5.2 4.8 5.3z"/><path d="m236.8 341.3c-.2 0-.3.1-.5.2-5.4 4.9-13.2 3-15.5-4-1.4-4.4-1.2-8.8 1.8-12.6 3.2-4 10-4.7 13.6-.9.1.1.3.2.5.3l.2-2.4h6.1c0 .5.1.9.1 1.3v25.8c0 1.1-.2 1.5-1.4 1.4-1.6-.1-3.1 0-4.9 0zm-10.4-8.3v.9c.2 2.4 1.9 4.5 4.3 5 2.2.4 4.4-.8 5.3-2.8 1.1-2.1 1-4.7-.2-6.8-1.4-2.4-4.5-3.1-6.9-1.6-.1.1-.3.2-.4.3-1.5 1.1-2.3 3.1-2.1 5z"/><path d="m278.9 314h5.2c.9 0 1.1.3 1 1.1v7.8 1.7c.5-.4.8-.7 1.1-1 2.1-2 5.2-2.7 8-1.6 2.6.7 4.5 3.1 4.5 5.9.2 5.3.1 10.6.1 16-1.8 0-3.7 0-5.5 0-.2 0-.6-.7-.6-1.1 0-3.4 0-6.9 0-10.3 0-.8-.1-1.6-.2-2.3-.3-1.7-1.8-3-3.5-2.8-1.8-.1-3.3 1.2-3.6 3-.1.6-.2 1.2-.1 1.8v10.6c0 .9-.2 1.3-1.2 1.2-1.4-.1-2.8 0-4.2 0-.7 0-1-.2-1-.9 0-9.5 0-18.9 0-28.3-.1-.4-.1-.6 0-.8z"/><path d="m120.4 321.6c6.3-.2 11.5 4.8 11.7 11.1v.9c-.4 6.2-5.6 11.1-11.9 10.9-6.3.2-11.6-4.8-11.8-11.1 0-.2 0-.5 0-.7.2-6.4 5.3-11.2 12-11.1zm5.5 11.6c.2-3.2-2.2-6-5.4-6.2-.1 0-.1 0-.2 0-3.1 0-5.6 2.4-5.6 5.5v.2c-.2 3.2 2.2 6 5.4 6.2h.2c3.1.1 5.6-2.4 5.7-5.4-.1-.1-.1-.2-.1-.3z"/><path d="m330 335.1c.7 4.5 5.7 5.4 10.4 1.9 1 .9 2.1 1.8 3.1 2.8.2.3.2.7 0 1-.4.5-.9 1-1.5 1.3-3.7 2.8-8.8 3.1-12.8.8-4.3-2.2-5.9-6.1-5.6-10.8.5-7.4 6.5-11.9 13.6-10.4 4 .9 6.9 4.1 7.6 8.5.2 1.2.2 2.4.3 3.6.1.9-.3 1.2-1.2 1.2-4.2 0-8.4 0-12.5 0zm8.7-4.1c.1-2.3-1.7-4.3-4-4.4-2.4-.2-4.5 1.6-4.7 4v.3h8.7z"/><path d="m189 341.9c-2.3 2.1-5.6 3-8.6 2.1-2.9-.5-5.1-2.9-5.3-5.9-.2-3.7 1.4-6.1 4.7-7.1 2.6-.7 5.4-.8 8.1-.1l1.1.3c.4-1.7-.7-3.4-2.4-3.8-2.2-.5-4.5-.3-6.6.4-.4.1-.8.3-1.5.5-.5-1.5-1-3-1.4-4.5-.1-.1.3-.5.6-.6 3.8-1.6 7.9-2 11.9-.9 3.5 1 5.5 3.6 5.6 7.9.1 4.2 0 8.5.1 12.8 0 .8-.3 1-1 1-1.2 0-2.4-.1-3.6 0s-1.7-.2-1.5-1.4c-.1-.3-.1-.5-.2-.7zm-3.7-7.7c-.9.1-1.7.3-2.5.6-1.3.5-1.9 2-1.4 3.3.1.3.3.6.6.9 1.3 1.2 2.9 1 4.5.6 1.4-.3 2.5-1.4 2.8-2.7.3-1.5.1-1.9-1.4-2.3-.8-.2-1.5-.3-2.6-.4z"/><path d="m75.5 331.2c.1-2.3-1.1-3.9-3.3-4-2 0-3.9.2-5.9.6-.5.1-.9.2-1.4.4l-1.6-4.8c1.2-.4 2.3-.9 3.4-1.1 2.9-.8 5.9-.8 8.8-.1 3.4.9 5.5 3.1 5.8 6.5.3 3.7.2 7.4.3 11v4.1h-6l-.2-2c-2 2-4.9 2.9-7.6 2.5-5.4-.5-8.2-6-5.4-10.5 1.1-1.6 2.7-2.6 4.6-2.9 2.9-.7 5.8-.5 8.5.3zm-4.1 8.7c1.7.1 3.2-.8 4-2.3.9-1.7.4-2.8-1.5-3.1-1.3-.2-2.6-.2-3.9.1-.9.3-1.7.9-2.1 1.8-.9 1.9.6 3.5 3.5 3.5z"/><path d="m259.6 321.9h5.3c.7 0 1 .2 1 .9v20.1c0 .3-.4.8-.6.9-1.8.1-3.7 0-5.7 0v-2.7c-.7.6-1.2 1.1-1.7 1.5-3 2.7-7.7 2.4-10.3-.7-1.2-1.4-1.9-3.2-1.8-5.1-.1-4.8 0-9.6 0-14.4 0-.2.1-.3.1-.5h6.2v1.5 10.8c0 2.5 1.1 3.9 3.1 4.2 1.9.4 3.7-.8 4.1-2.7 0-.1 0-.2 0-.3.2-1.5.2-3.1.2-4.6.2-2.8.1-5.8.1-8.9z"/><path d="m315.3 322h6.1v21.8h-6.1c0-.9-.1-1.7-.1-2.6-.6.6-1 1-1.5 1.4-3.2 2.6-7.9 2.3-10.6-.8-1.2-1.5-1.7-3.4-1.7-5.4-.1-4.4 0-8.9 0-13.3 0-.9.2-1.2 1.2-1.2 1.6.1 3.3 0 5.1 0 0 .5.1 1 .1 1.4v10.8c0 2.6 1.1 4 3.1 4.4 1.9.4 3.8-.8 4.1-2.8 0 0 0 0 0-.1.2-1.4.3-2.8.2-4.2.1-3.1.1-6.2.1-9.4z"/><path d="m211.9 343.9v-2c0-3.5 0-7 0-10.4 0-3-1.8-4.6-4.6-4-1.3.2-2.4 1.2-2.6 2.5-.2.9-.3 1.8-.3 2.7v9.8c0 .4 0 .9-.1 1.4h-5.5c-.9 0-.7-.7-.7-1.2 0-3.9 0-7.8 0-11.7v-9h6.2c.1.8.1 1.6.1 2.7.5-.5.9-.9 1.3-1.2 2.5-2.2 5.4-2.4 8.3-1.3 2.2.9 3.7 3 3.9 5.3.2 1.4.3 2.9.2 4.3v10.9c0 .8-.2 1.1-1.1 1.1-1.5 0-3.2.1-5.1.1z"/><path d="m150.8 338.1h14.2v5.7c-.4 0-.8.1-1.2.1-6 0-11.9 0-17.9 0-1.1 0-1.4-.3-1.4-1.4 0-8.7 0-17.3 0-26 0-1 .3-1.4 1.3-1.3 1.6.1 3.2 0 5 0z"/><path d="m40.8 343.8v-28.5h6.2v22.8h14.2v5.7z"/><path d="m173.2 314v1.4 27.1c0 1.1-.3 1.5-1.4 1.4-1.3-.1-2.6-.1-3.8 0-.8 0-1.1-.2-1.1-1 0-9.3 0-18.6 0-27.8 0-.5 0-1 .8-1 1.7-.1 3.5-.1 5.5-.1z"/><path d="m269.2 322h6.2v21.9c-1.9 0-3.8 0-5.6-.1-.2 0-.5-.7-.5-1.1 0-5.3 0-10.5 0-15.8z"/><path d="m343.9 153.1c.4-.1.6 0 .6.4v134.1 1.5h-13.5c0-2.8 0-5.5 0-8.3 0-15.3 0-30.7 0-46.1 0-1.8.2-1.6-1.6-1.6h-286.7c-2 0-1.7.3-1.7-1.8 0-2.2 0-4.5 0-6.7.4 0 .9-.1 1.3-.1h24.7c1.1 0 1.4-.2 1.4-1.3 0-13.3 0-26.6 0-39.9 0-.4 0-.7 0-1.1 0-.9.3-1.4 1.3-1.4 2.4.1 4.8 0 7.2 0 13.6 0 27.3 0 40.9.1 1 0 1.4-.4 1.3-1.4-.1-2-.1-4-.2-6 0-6.5-.1-12.9 0-19.4 0-1.1-.2-1.4-1.4-1.4-16 .1-31.9 0-47.9 0-.7 0-1.2.1-1.2-1 .1-6.2 0-12.4 0-18.6 0-.8.2-1 1-1h46.2c3.3 0 6.6 0 10 .1 1.5 0 1.7-.2 1.7-1.7 0-8.8 0-17.7 0-26.5 0-1.2-.3-1.5-1.5-1.5-27.1 0-54.2 0-81.3 0-.5.1-1 0-1.4-.1 2.2-1.4 4.4-2.7 6.7-3.9l57.6-32 12.9-7.2c.7-.4 1.1-.1 1.5.2 2.5 1.5 5.1 3 7.6 4.5l15.5 9.3c6 3.6 12 7.2 18.1 10.8 5.7 3.4 11.4 6.8 17.1 10.1 1 .4 1.6 1.4 1.4 2.4-.1 1.8-.1 3.6 0 5.4 0 1-.3 1.3-1.3 1.3-8.1-.1-16.2 0-24.3 0-.4 0-1-.3-1.3.3-.8.2-.4.9-.4 1.3v118.3c0 1.1.3 1.4 1.4 1.4h36c1.5 0 1.6 0 1.6-1.5v-113.6c-.1-.5 0-1 .1-1.4l22.3-12c5.1-2.7 10.2-5.5 15.3-8.3 6.1-3.3 12.4-6.5 18.4-10 2.1-1.2 3.6-1.4 5.7-.1 5 3 10.1 5.6 15.2 8.4 6.1 3.3 12.2 6.7 18.3 10 3.9 2.1 7.8 4.2 11.8 6.4.3.2.6.4.9.6-.4 0-.7 0-1.1-.1-3.7-.5-7.4-.9-11.2-1.1-6.2-.2-12.3.1-18.4 1-8.7 1-17.1 4-24.5 8.7-10.6 6.9-17 16.9-20.5 29-1.9 6.8-2.3 13.8-2.8 20.7-.3 6.8.2 13.7 1.5 20.4 1 6.4 3 12.6 6 18.3 6.1 11.3 15.5 18.6 27.4 22.8 8.2 2.9 16.8 3.9 25.5 4.1 10 .2 19.8-.8 29.2-4.1 12.6-4.4 22-12.4 27.3-24.8 2.9-6.8 3.5-14.1 4.1-21.4.1-.8-.4-.8-.9-.8-11.4 0-22.8 0-34.2 0-.8 0-1 .4-1.1 1-.2 1.5-.3 3-.6 4.5-1.2 7.3-5.2 12.4-12.2 14.9-5 1.7-10.4 2.1-15.6 1-5.1-.8-9.5-3.9-12.2-8.3-2.5-4.1-4-8.8-4.3-13.7-.4-6.4-.5-12.9-.2-19.3 0-4.1.8-8.1 2.2-12 2.3-6.1 6.2-10.4 12.7-12.2 3.6-.9 7.3-1.2 10.9-.8 8.3.8 14 5.5 16.5 13.5.7 2.7 1.3 5.4 1.6 8.2.1.6.3.9.9.9h35.3c.8.1 1.2.2 1.4-.4z"/></g><path d="m328.9 117.7v-6.5l-8.6-5.9-3.1 2" fill="none" stroke="#fff" stroke-miterlimit="9.9999" stroke-width=".75"/><path d="m344.5 154.6v-37h-15.6s15.6 9.3 15.6 37z" fill="#fff"/></svg>