<?xml version="1.0" encoding="utf-8"?>
<!-- Generator: Adobe Illustrator 27.1.1, SVG Export Plug-In . SVG Version: 6.00 Build 0)  -->
<svg version="1.1" id="Capa_1" xmlns="http://www.w3.org/2000/svg" xmlns:xlink="http://www.w3.org/1999/xlink" x="0px" y="0px"
	 viewBox="0 0 2531.1 712.3" style="enable-background:new 0 0 2531.1 712.3;" xml:space="preserve">
<g>
	<path d="M633.2,52.7c0.4,0.3,0.8,0.8,1.2,0.8c2.9,0.2,5.6,1.3,8.3,2.1c6.8,2,12.8,6.1,17.1,11.8c2,2.5,3.6,5.3,4.6,8.3
		c2.1,6,3.2,12.4,3.2,18.8v192v4.3c-0.1,1.8-1.3,2.5-3,1.6c-0.7-0.4-1.3-0.9-2-1.3c-12.4-7-24.8-14.1-37.2-21.1
		c-12.3-7-24.6-14.2-37-21.2c-7.8-4.4-15.6-8.8-23.4-13.2c-13-7.4-26-14.9-39-22.4c-10-5.7-20-11.3-30-17
		c-12.3-7.1-24.6-14.2-37-21.2c-10-5.7-20-11.4-30-17.1c-9.4-5.4-18.8-10.9-28.2-16.3c-7.8-4.4-15.5-8.8-23.3-13.3
		c-3.7-2.1-7.4-4.3-11.2-6.5c-11-6.4-22-12.9-33.1-19.4c-3.4-2-6.8-4.1-10.2-6.3c-1.4-0.9-2.8-1.5-4.2-2.2
		c-6.9-3.6-14.3-3.5-21.6-2.6c-5.7,0.8-11.2,3.1-15.8,6.5c-10.6,7.7-21.3,15.3-31.9,22.9c-12.2,8.7-24.4,17.5-36.6,26.2
		c-9.3,6.7-18.7,13.3-28.1,20c-15.9,11.3-31.7,22.7-47.6,34c-13.2,9.5-26.5,18.9-39.7,28.4c-9.9,7-19.7,14.1-29.6,21.2
		c-1.2,0.8-2.4,1.6-3.6,2.4c-0.6,0.4-1.5,0.3-1.9-0.3c-0.1-0.2-0.2-0.4-0.3-0.7c-0.1-1.1-0.1-2.2-0.1-3.4c0-49,0-97.9,0-146.9
		c-0.1-6.7,1-13.4,3.2-19.7C69.7,70,77.9,61.4,89.9,56.7c3.1-1.4,6.2-2.4,9.5-3.1c0.4-0.1,0.8-0.5,1.1-0.8h532.7L633.2,52.7z"/>
	<path d="M2433.6,151.6c-0.3,0.4-0.7,0.7-0.7,1.1c-1,10.8-5,20.5-11,29.3c-11.6,17.4-27.4,29.5-47.6,35.2
		c-19.3,5.6-39.8,5.6-59.2,0.1c-24.6-7-42.6-22.2-53.5-45.4c-7.6-16-8.4-33-4.2-50.2c2.9-11.6,8.6-21.6,16.3-30.7
		c12.3-14.8,29.3-24.8,48.2-28.4c13.5-2.7,27.4-2.9,41-0.8c11.3,1.6,22.1,5.4,31.8,11.4c16.5,10.3,28.6,24.4,35.2,42.9
		c1.5,3.9,2.5,8,2.8,12.1c0,0.8,0,1.6,0.9,2.1V151.6z M2344.9,188.4c7.2-0.1,12.2-0.4,19.3-3.1c15.2-5.8,24.7-16.5,28.3-32.5
		c1.2-5.8,1.5-11.8,0.9-17.7c-1.6-20.1-14.4-35-33.4-39.8c-12.5-3.2-25.1-2.8-37.2,2.3c-14.5,6.1-23.2,17.1-26.3,32.5
		c-1.3,6.6-1.4,13.4-0.3,20c2.3,14.4,9.7,25.1,22.4,32.3C2326.7,187,2335.6,188.5,2344.9,188.4z"/>
	<path d="M2432.4,387.5l1.2-0.7v28.8l-1.8-0.2c0.5-0.8,0.8-1.7,0.8-2.7C2432.5,404.3,2432.4,395.9,2432.4,387.5L2432.4,387.5z"/>
	<path d="M2433.6,290.8c-0.8-0.5-1.6,0-2.4,0c-0.3-0.9-0.1-1.9,0.4-2.8c0.7,0.2,1.4,0.2,2-0.2V290.8z"/>
	<path d="M367.4,658.9c-87.5,0-175,0-262.4,0c-12,0-22.1-4.5-30.9-12.2c-7.4-6.4-10.8-14.9-11.5-24.5c-0.1-1.9-0.1-3.8-0.1-5.8
		c0-50.7,0-101.4,0-152.1c0-0.8,0-1.6,0-2.4s-0.4-1.8,0.4-2.2c1.2-0.6,1.6,0.7,2.2,1.3c17.2,18.6,37.3,33.4,59.8,45.1
		c17.4,9.1,36,15.9,55.2,20.2c21.4,4.8,43.4,6.6,65.3,5.3c7.3-0.4,14.6-1.5,21.9-2.4c8.7-1.1,17.4-2.2,26.1-3.4
		c10.6-1.4,21.2-2.9,31.8-4.3c8.5-1.1,17.1-2.2,25.7-3.3l25.7-3.3c8.9-1.2,17.8-2.3,26.6-3.4c4.6-0.6,9.2-1.3,13.8-1.9
		c9.5-1.2,19.1-1.5,28.7-2.2c9.8-0.6,19.5-0.7,29.2-0.4c8.3,0.2,16.6,1.1,24.8,1.9c20.3,2.1,40.4,6.2,60,12.1
		c26,7.6,50.8,18.6,73.8,32.8c10.8,6.8,21.2,14.4,30.9,22.7c2.2,1.6,3.4,4.2,3.2,6.9c-0.2,11-0.2,22.1,0,33.1
		c0.1,5.3-0.8,10.5-2.7,15.5c-2.6,6.8-6.1,13-11.4,18.1c-5.5,5.5-13,8.5-20.7,8.6c-3.2,0.1-6.4,0-9.6,0L367.4,658.9z"/>
	<path d="M143.3,257.4c-1.1,1.5-1.9,3.3-2.3,5.1c-2.2,7-3.9,14.2-5,21.5c-2.3,14.3-2.5,28.7-1.6,43.1c0.7,12.1,2.3,24.2,4.9,36.1
		c1.2,5.5,2.5,10.9,3.7,16.4c0.3,1.2,0.6,2.5,0.8,3.8c0.3,1.7-0.1,2.2-1.9,2.6c-11.1,2.2-22.3,4.4-33.4,6.7
		c-12.2,2.6-24.4,5.3-36.3,8.9c-2.6,0.8-5.1,1.9-7.7,2.8c-0.6,0.2-1.1,0.6-1.8,0.2c-0.7-1-0.4-2.1-0.4-3.2c0-20.3,0-40.6-0.1-61
		c-0.1-2.5,0.9-5,2.8-6.7c15.4-15.3,30.8-30.7,46.1-46.2s30.6-30.9,46-46.2c7.2-7.3,14.4-14.6,21.6-21.9c1.3-1.4,2.7-2.7,4-3.9
		c1.4-0.2,1.9,0.7,2.6,1.4c11.5,11.3,23,22.7,34.4,34.1c14.4,14.3,28.9,28.5,43.4,42.8c0.4,0.5,0.9,0.9,1.4,1.3
		c0.4,0.2,0.9,0.2,1.3,0c1.1-0.9,2.2-1.9,3.2-2.9c10.5-10.5,21-21,31.6-31.5c1.2-1.2,2.2-2.7,4-3.4c1.3,1.2,2.5,2.6,3.4,4.1
		c14.6,20.4,29.3,40.8,43.8,61.3c1.3,2.2,3.7,3.5,6.3,3.6c10.5,0.5,21,1.9,31.5,3.2c10.1,1.2,20.3,2.8,30.4,4.3s20.2,3.2,30.2,5.1
		c23.3,4.3,46.3,9.7,69.1,16c22.2,6.1,44,13.5,65.3,22.2c20.1,8.3,39.6,18,57.8,30c8.1,5.2,15.7,11,23,17.2c1.4,1.1,2.2,2.8,2.1,4.5
		c-0.1,11.5,0,23,0,34.6c0,0.5,0,1-0.2,1.4c-0.2,0.5-0.5,0.9-1.1,0.6c-0.7-0.3-1.4-0.8-2-1.3c-13-10.4-26.6-20-40.7-28.8
		c-14.6-9.2-29.6-17.7-45-25.6c-13.4-6.8-27-13.2-40.8-19.1c-17.8-7.5-36-14.3-54.4-20.2c-17.3-5.6-34.9-10.4-52.7-14.5
		c-18.1-4.2-36.3-7.6-54.6-10.2c-16.1-2.3-32.4-4-48.6-5.2c-11.3-0.8-22.7-1-34-0.6c-4.3,0.2-8.6,0.8-12.8,1.8
		c-1.6,0.3-3.1,0.9-4.4,1.7c-0.3,0.1-0.4,0.5-0.3,0.8v0.1c0.1,0.1,0.1,0.3,0.3,0.3c0.3,0.1,0.6,0.2,0.9,0.2c10.2,1,20.4,1.8,30.5,3
		c8.3,0.9,16.5,2.2,24.7,3.4c15.2,2.3,30.3,5.1,45.3,8.3c10.8,2.3,21.5,4.9,32.2,7.6c18.5,4.6,36.7,10.1,54.7,16.2
		c17.4,5.9,34.6,12.5,51.5,19.7c17.3,7.5,34.3,15.6,50.9,24.7c34.7,18.9,67,41.1,96.4,67.6c4.2,3.8,4.2,3.8,4.2,9.4v23.5
		c0,1.3,0,2.5-0.1,3.8c-0.1,0.5-0.6,0.9-1.1,0.8c-0.1,0-0.2,0-0.3-0.1c-1.6-1.1-3.1-2.2-4.7-3.3c-20.2-14.6-41.2-28.2-62.8-40.7
		c-19.9-11.7-40.2-22.5-61-32.5c-19.6-9.4-39.5-18.1-59.8-26.1c-17.6-6.9-35.3-13.2-53.3-18.9c-16.3-5.1-32.8-9.7-49.4-13.7
		c-18.4-4.4-36.9-8.1-55.5-10.9c-13.3-2-26.6-3.6-40-4.8c-11.6-1-23.3-1.7-34.9-2.1s-23.3-0.4-35,0c-0.8,0-1.6,0-2.4,0.1
		c-2.3,0.5-3.5-0.7-4.5-2.6c-2.5-4.6-5.3-9.1-7.9-13.7c-8.7-15.5-17.3-31-25.5-46.8c-6.7-12.9-13.1-26-18.7-39.4
		c-2.3-5.4-4.3-11-5.7-16.8C144.6,259.3,144.5,258,143.3,257.4L143.3,257.4z"/>
	<path d="M1022.6,659.5c-15.7,0-30-1.9-43.9-6.7c-24.6-8.5-45.1-25.8-57.7-48.6c-5.1-9.5-8.4-19.8-9.7-30.4
		c-1.2-9.4-1.1-18.9,0.4-28.2c1.4-9.5,4.6-18.7,9.3-27.1c15.2-27,37.7-44.6,68-52c15-3.7,30.3-4.4,45.7-3.1
		c9.7,0.7,19.3,2.6,28.6,5.6c19.4,6.4,35.3,17.7,48.2,33.4c8.7,10.5,15.1,22.2,18.4,35.5c4.7,19,4,37.7-3,56.1
		c-4.7,12.1-11.9,23.1-21.1,32.3c-15.3,15.9-35.2,26.7-56.9,30.6C1040.2,658.5,1031.4,659.4,1022.6,659.5L1022.6,659.5z
		 M1021.5,619.4c9.9,0.1,19.4-1.4,28.5-5.5c13.9-6.3,23.9-16.4,29-30.9c4.8-13.4,5.1-27.9,0.7-41.5c-5.9-18.7-18.8-30.3-37.4-35.9
		c-8.1-2.3-16.6-3.2-25.1-2.7c-8.8,0.3-17.5,2.3-25.5,6.1c-13.2,6.4-22.7,16.4-27.7,30.4c-3.5,10-4.5,20.7-2.9,31.2
		c2.9,21,14.3,35.5,33.5,43.8C1003.2,618.2,1012.3,619.4,1021.5,619.4L1021.5,619.4z"/>
	<path d="M2154.4,658.5c-12.7,0.3-25.3-1.3-37.5-4.7c-22.2-6.1-40.2-18.3-54.6-36.2c-12-14.6-18.9-32.7-19.8-51.5
		c-1.3-24.1,5.8-45.4,21.2-64c9.5-11.7,21.5-21.2,35-27.9c10.3-4.9,21.2-8.2,32.4-9.9c9.3-1.4,18.8-1.9,28.2-1.6
		c17.8,0.7,34.9,4.1,50.8,12.4c12.7,6.6,23.9,15.7,32.9,26.7c9.4,11.3,16.2,23.8,19.3,38.2c6.1,28.7,0.5,55-18.1,78
		c-10.3,13-23.5,23.3-38.6,30.1c-9.2,4.1-18.9,7-28.9,8.5C2169.4,658,2161.9,658.6,2154.4,658.5L2154.4,658.5z M2154.1,502.8
		c-10.5-0.1-20.7,1.6-30.3,6.1c-11.8,5.4-21.1,14.9-26.4,26.7c-3.7,8.2-4.9,16.8-4.9,25.7c-0.1,7.7,1.2,15.3,4.1,22.5
		c7,17,19.7,27.7,37.2,32.4c9.1,2.5,18.6,3.3,28,2.1c6.7-0.9,13.3-2.1,19.5-4.8c13.5-5.9,23.3-15.5,28.9-29.2
		c4.6-11.7,5.7-24.5,3.1-36.7c-3.6-18.2-14-31.2-30.8-39C2173.5,504.3,2164,502.8,2154.1,502.8L2154.1,502.8z"/>
	<path d="M1573.6,659.4c1.3-3.3,2.3-5.8,3.4-8.3c7.4-17.5,14.8-35,22.2-52.5s14.8-35,22.2-52.6c7.6-18.1,15.3-36.2,22.9-54.3
		c3.4-8.1,6.8-16.2,10.2-24.3c0.4-0.9,0.7-1.8,1.1-2.7c0.4-1.3,1.7-2,3-1.9h2.4h50.4h1.9c1.6-0.2,3.2,0.7,3.7,2.3
		c2.2,5,4.5,9.9,6.8,14.8c8.5,18.3,17,36.5,25.4,54.8c7.6,16.4,15.2,32.8,22.8,49.2c7.4,16,14.8,31.9,22.2,47.8
		c3.8,8.3,7.6,16.5,11.5,24.8c1.3,2.8,0.4,2.9-2,2.9c-3.5,0-7,0-10.6,0h-36c-1.1,0-2.2,0-3.4,0c-1.3,0.2-2.5-0.6-2.9-1.9
		c-2.1-5-4.3-10-6.5-14.9c-2.8-6.5-5.7-12.9-8.4-19.4c-0.5-1.7-2.2-2.8-4-2.5c-4.2,0.1-8.3,0-12.5,0H1650c-1.3,0-2.6,0.1-3.8,0
		c-2.1-0.2-3.2,0.7-3.9,2.6c-3.8,10-7.8,20-11.8,29.9c-3,7.6-1.6,6.1-8.6,6.2c-14.4,0.1-28.8,0-43.2,0H1573.6z M1688.4,586.1h26.9
		c1.1,0,2.2-0.1,3.3-0.2c0.4,0,0.7-0.4,0.7-0.9v-0.1c-0.3-0.8-0.6-1.5-0.9-2.2c-8.7-19.9-17.3-39.9-26-59.8c-1.5-3.4-3-6.7-4.5-10.1
		c-0.2-0.4-0.4-1-1-0.8c-0.4,0.2-0.7,0.5-0.9,0.9c-0.4,0.7-0.7,1.4-0.9,2.2l-26.2,66.4c-0.3,0.9-0.7,1.8-1,2.7
		c-0.4,1.2,0,1.7,1.4,1.8h3.4L1688.4,586.1L1688.4,586.1z"/>
	<path d="M2008.9,519.1c-2.1,0-3.9-1.3-5.7-2.1c-9.8-4.4-19.9-7.9-30.3-10.5c-16.6-4.1-33.4-5.7-50.4-3.5
		c-14.2,1.8-27.3,6.6-37.9,16.7c-10.4,9.7-16.6,23.1-17.3,37.4c-0.6,6.9,0,13.8,1.7,20.5c3.8,13.5,12.1,23.4,23.8,30.7
		c9.1,5.7,19.2,8.6,29.8,9.7c9.8,1,19.5,0.8,29-1.7c3.7-1,7.3-2.3,10.9-3.5c1.6-0.4,2.7-1.9,2.6-3.5c-0.1-5.8,0-11.5-0.1-17.3
		c0-1.9-0.4-2.3-2.3-2.3c-6.4,0-12.8,0-19.2,0c-7.3,0-6.4,0.9-6.4-6.3c0-7.8,0-15.7,0-23.5c0-1.1,0-2.2,0-3.4c0.1-1.5,0.5-2,1.9-2.2
		c0.8-0.1,1.6,0,2.4,0h67.6c4.4,0,4.4,0,4.4,4.6c0,23.3-0.1,46.7,0.1,70c0.1,2.7-1.1,5.3-3.3,6.9c-5.3,4.2-11,7.7-17.2,10.3
		c-11.9,5.1-24.4,8.6-37.2,10.6c-10.9,1.7-22,2.3-33,1.6c-19.4-1-38-5.3-55.1-14.8c-15.2-8.4-27.9-19.6-37.3-34.5
		c-6.1-9.8-10.2-20.7-12-32.1c-1.5-8.8-1.7-17.8-0.8-26.8c2.3-23.8,12.4-43.7,30.4-59.5c13.4-11.7,29.5-20,46.8-24.2
		c11.9-3,24.2-4.5,36.5-4.6c20.1-0.2,39.9,2.3,59.1,8.4c5.6,1.8,11.1,3.9,16.6,6.3c1.4,0.6,2.4,1.4,2.4,3.2
		c-0.1,12.8-0.1,25.6-0.1,38.4C2009.3,518.4,2009.1,518.7,2008.9,519.1L2008.9,519.1z"/>
	<path d="M285.7,492.1c-4.2-5.5-8.3-10.9-12.4-16.2L222,409.4c-0.7-0.9-1.3-1.8-1.9-2.8c-0.2-0.5-0.1-1.1,0.4-1.3
		c0.1,0,0.2-0.1,0.3-0.1c1.1-0.1,2.2-0.1,3.4-0.1c15.4-0.2,30.7,0.6,46,1.6c13.4,0.9,26.8,2.4,40,4.2c21.3,2.8,42.3,6.7,63.2,11.6
		c20.1,4.7,39.9,10.3,59.5,16.9c11.5,3.9,22.9,8.1,34.2,12.6c14.3,5.7,28.2,12,42,18.8l2.4,1.5c0.1,0,0,0.3,0,0.7
		c-2.2,0.2-4.3,0.1-6.5-0.2c-11-1.1-22-1.7-33-2c-5.3-0.1-10.5-0.4-15.8,0c-4,0.3-8,0.4-11.9,1c-14.5,2.3-29.1,4.6-43.6,6.8
		c-9.3,1.4-18.7,2.7-28,4c-12.5,1.8-25,3.6-37.5,5.2c-18.1,2.4-36.1,4.8-54.3,6.4c-9.2,0.8-18.5,1.7-27.7,2c-1.8,0-3.5,0.1-5.3,0
		c-9.3-0.4-18.5-0.9-27.8-1.4c-19-1-37.9-3.3-56.3-8.3c-33.1-9-61.3-25.9-84.4-51.5c-1.3-1.4-2.6-2.8-3.8-4.3
		c-1.5-1.7-1.3-2.7,0.9-3.6c4.3-1.8,8.5-3.6,12.9-5.1c15.4-5,31.1-8.6,47.2-10.7c5.7-0.8,11.4-1.4,17.1-2.3c1.7-0.5,3.6,0.4,4.2,2.1
		c5.4,9.3,11.9,17.9,19.4,25.6c12.5,13.1,26.9,24.2,42.8,33c17.4,9.8,36,16.4,55.4,21c2.6,0.6,5.3,1.1,8,1.6
		C284.2,492.8,285,492.6,285.7,492.1L285.7,492.1z"/>
	<path d="M2008.6,140.8V65.9c0-5.6-0.3-5.2,5.1-5.2c9.9,0,19.8,0.1,29.7-0.1c2.2-0.1,4.4,0.8,5.8,2.5c9.1,10.1,18.3,20.1,27.5,30.1
		c12.1,13.2,24.1,26.5,36.1,39.7c6.3,6.8,12.5,13.7,18.8,20.5c1,1.1,2,2.1,3,3.1c0.3,0.2,0.6,0.2,0.9,0.2c0.4,0,0.5-0.3,0.5-0.7
		c0-0.6,0.1-1.3,0.1-1.9c0-2.2,0-4.5,0-6.7c0-26.9,0-53.7,0-80.6c0-1,0-1.9,0-2.9c0.1-3,0.2-3.2,3.3-3.2h35h1
		c2.2,0.1,2.6,0.5,2.7,2.5c0.1,1.3,0,2.6,0,3.8v127.1v21.6c0,1.1,0,2.2-0.1,3.4c0,1-0.7,1.8-1.7,1.8h-0.1c-0.8,0.1-1.6,0.1-2.4,0.1
		c-9.3,0-18.6-0.1-27.8,0.1c-2.4,0.1-4.7-1-6.1-2.9c-13.8-15.5-27.8-30.9-41.7-46.4c-14.4-16.1-28.9-32.1-43.3-48.2
		c-0.9-1-1.7-1.9-2.6-2.8c-0.3-0.3-0.7-0.7-1.2-0.3c-0.2,0.2-0.4,0.5-0.4,0.8c-0.1,1.3-0.1,2.6-0.1,3.8v32.6v57.1v3.8
		c-0.1,1.7-0.6,2.2-2.4,2.2c-3,0.1-6.1,0-9.1,0h-24.9c-1.3,0-2.6,0-3.8-0.1c-0.8,0-1.5-0.6-1.6-1.5c-0.1-1.4-0.1-2.9-0.1-4.3
		C2008.6,190.3,2008.6,165.5,2008.6,140.8L2008.6,140.8z"/>
	<path d="M1345.9,133c1.4,0.5,2.8,1,4.3,1.5c7.8,2.8,14.8,6.7,20.4,12.9c8.6,9.6,11.5,20.9,9.7,33.4c-2.4,16.6-11.8,27.9-27,34.6
		c-6.9,3-14.3,4.8-21.8,5.3c-4.9,0.4-9.9,0.6-14.8,0.6c-25.3,0.1-50.5,0-75.8,0c-6,0-5.6,0.2-5.6-5.4V65.7c0-0.5,0-1,0-1.4
		c0.1-3.6,0.2-3.8,3.8-3.8c25.1,0,50.2-0.1,75.3,0c10.5,0.1,20.7,2,30.1,6.9c8.6,4.4,15.6,10.6,19.9,19.4
		c6.2,12.7,3.2,27.9-7.2,37.4c-3,2.7-6.3,5-9.8,6.9C1346.9,131.5,1346,131.6,1345.9,133z M1278.9,172.7v12.5c0,1.4,0,2.9,0.1,4.3
		s0.6,2,2.1,2c2.6,0.1,5.1,0.1,7.7,0.1c7.8,0,15.7,0.2,23.5-0.4c4.6-0.2,9.2-1.3,13.5-3.1c3.7-1.7,6.5-4.2,7.8-8
		c3.3-9.6,1.3-18.5-9.6-23.4c-0.7-0.3-1.5-0.6-2.2-0.9c-3.3-1.1-6.8-1.7-10.4-1.8c-9.9-0.1-19.8-0.1-29.7,0c-2.3,0-2.6,0.4-2.7,3
		C1278.8,162.1,1278.9,167.4,1278.9,172.7L1278.9,172.7z M1278.9,107.4v14.3c0,2.2,0.4,2.6,2.5,2.6c6.7,0,13.4,0.1,20.1-0.1
		c4,0,8-0.8,11.6-2.4c7.3-3.5,11-10.7,9.4-18c-1.5-6.9-6.2-10.6-12.5-12.5c-2.4-0.7-5-1.1-7.6-1.2c-7,0-14-0.1-21-0.1
		c-2.1,0-2.5,0.4-2.6,2.5C1278.8,97.5,1278.9,102.4,1278.9,107.4z"/>
	<path d="M1161.3,620.3c0-5.9,0-11.8,0-17.8c0-2.4,0.5-2.7,2.4-1.5c2.7,1.7,5.4,3.4,8.1,5.1c6.8,4.2,13.9,8,21.2,11.2
		c12.7,5.6,26.1,7.5,39.8,6.4c4.5-0.3,8.9-1.4,12.9-3.5c8.5-4.4,10.2-16,4.5-22.6c-1.9-2.2-4.1-4.1-6.6-5.5
		c-5.4-3.1-11.1-5.7-17-7.8c-8.3-3.2-16.8-6.3-25-9.8c-7.5-3.1-15-6.4-21.6-11.4c-8.1-6.2-15.1-13.5-18.8-23.2
		c-5.5-14.8-5.8-29.7,0.9-44.3c3.8-8.4,10.2-14.7,17.6-19.8c8.6-5.8,18.5-9.7,28.8-11.4c18.1-3.1,36-2,53.8,2.3
		c9.6,2.4,19,5.5,28.2,9.4c0.6,0.2,1.2,0.5,1.8,0.8c0.9,0.4,1.5,1.3,1.4,2.3v1.9v30.2c0,0.8,0,1.6-0.2,2.4c0,0.6-0.5,1-1.1,0.9
		c-0.1,0-0.2,0-0.3-0.1c-0.8-0.2-1.5-0.5-2.2-0.8c-7.6-3.3-15.3-6.4-23.2-9c-8.9-3.1-18.1-5.2-27.5-6.2c-5.9-0.6-11.9-0.3-17.7,1
		c-4.4,0.8-8.6,2.9-11.8,6c-4.2,3.9-4.8,10.2-1.5,14.9c1.8,2.7,4.2,4.9,7,6.4c6.8,4,14.1,6.8,21.4,9.6c11.2,4.1,22.3,8.8,33,14.1
		c8.4,4.3,15.9,10.3,21.8,17.7c5.5,6.7,9,14.8,10.2,23.5c1.4,10.1,0.8,20.1-2.7,29.8c-3.2,8.6-8.7,16.1-15.9,21.8
		c-7,5.6-15,9.9-23.6,12.4c-11.3,3.4-22.9,4.3-34.6,3.9c-21.3-0.7-41.2-6.7-60-16.5c-0.4-0.2-0.8-0.5-1.3-0.7
		c-1.5-0.6-2.4-2.2-2.2-3.8C1161.3,632.5,1161.3,626.4,1161.3,620.3L1161.3,620.3z"/>
	<path d="M2422.9,496v16.8c0,1.5-0.7,1.9-2.2,1.3c-5.4-2.3-10.9-4.7-16.4-6.8c-8-3.2-16.3-5.7-24.7-7.5c-5.9-1.3-12-1.9-18.1-1.8
		c-4.2,0.1-8.3,0.8-12.3,2c-3.1,0.9-5.9,2.4-8.4,4.5c-4.9,4.4-5.6,10.5-1.9,15.9c1.9,2.6,4.3,4.8,7.1,6.3c6.4,3.5,13.2,6.5,20.1,9
		c9.7,3.7,19.3,7.6,28.7,12c10.1,4.8,19,11.2,25.9,20c3.9,4.9,6.8,10.5,8.5,16.5c2.5,9.3,2.8,19.1,0.9,28.5
		c-3,14.8-11.4,25.8-24,33.9c-9.6,6.1-20.2,9.4-31.5,10.8c-19.8,2.5-39.8,0.2-58.5-6.6c-7.4-2.6-14.5-5.8-21.4-9.5
		c-1.6-0.7-2.7-2.4-2.5-4.1c0.1-11.7,0-23.3,0-35c0-0.3,0-0.6,0-1c0.1-1.6,0.8-2.1,2.1-1.3c1.8,1.1,3.5,2.3,5.2,3.4
		c8.6,5.5,17.5,10.6,27.1,14.4c11.8,4.6,24.6,6.3,37.2,5c4-0.3,7.9-1.4,11.4-3.3c7.2-3.7,10-12.6,6.3-19.8c-0.3-0.6-0.6-1.1-1-1.6
		c-1.5-2.3-3.5-4.2-5.8-5.7c-5.2-3.5-11-5.9-16.8-8.2c-8.2-3.2-16.4-6.3-24.5-9.6c-7.5-3.1-15-6.4-21.7-11.2
		c-6.8-4.8-12.5-11-16.8-18.2c-2.6-4.4-4.4-9.2-5.3-14.3c-0.8-4.4-1.3-8.9-1.3-13.3c0-17.3,7.1-30.9,20.9-41
		c8.7-6.3,18.8-10.4,29.4-12.1c21.7-3.8,43-1.5,63.9,5.3c5.9,1.9,11.7,4.3,17.5,6.5c1.8,0.4,2.9,2.1,2.7,3.9
		C2422.8,485.4,2422.9,490.7,2422.9,496L2422.9,496z"/>
	<path d="M1515.2,339.1v-69.6c0-1.4,0-2.9,0-4.3c0.1-1.8,0.5-2.2,2.4-2.2h15.3c5.4,0,10.9,0.1,16.3-0.1c2.6-0.2,5,0.9,6.7,2.8
		c8.8,9.3,17.6,18.6,26.4,27.8c13.1,13.8,26.2,27.6,39.3,41.4c5.3,5.6,10.6,11.1,15.9,16.7c0.8,0.8,1.6,1.6,2.4,2.4
		c0.3,0.3,0.8,0.6,1.2,0.3c0.2-0.2,0.4-0.5,0.4-0.8c0.1-1.1,0.1-2.2,0.1-3.4c0-26.9,0-53.8,0-80.6c0-7.3-0.8-6.5,6.3-6.5h29.8h3.4
		c1.6,0.1,2,0.5,2.1,1.9c0.1,1,0.1,1.9,0.1,2.9v143c0,5.2,0.1,4.9-5.1,4.9c-9,0-17.9,0-26.9,0c-2.1,0.1-4.1-0.7-5.4-2.3
		c-10.8-11.6-21.7-23.1-32.5-34.6c-14.7-15.6-29.3-31.2-44-46.9c-3.3-3.5-6.6-7-9.9-10.5c-0.4-0.5-0.9-0.9-1.4-1.2
		c-0.3-0.2-0.7-0.2-0.9,0.1c-0.1,0.1-0.1,0.2-0.1,0.3c-0.1,1.4-0.2,2.9-0.2,4.3v80.6v7.2c0,0-0.4,2.8-2.8,2.9c-1,0-1.9,0-2.9,0
		h-30.7c-1.1,0-2.2,0-3.3,0c-1.4-0.1-1.9-0.6-2-2.1c-0.1-1.3,0-2.6,0-3.8L1515.2,339.1z"/>
	<path d="M1884,146.3c0.3,0.4,0.6,0.7,0.9,1c6.6,3.8,11.2,9.5,15.3,15.6c3,4.7,5.8,9.6,8.2,14.6c6.8,13.6,13.7,27.1,20.5,40.7
		c0.3,0.6,0.5,1.1,0.7,1.8c0.1,0.4-0.1,0.9-0.6,1h-0.1c-0.8,0.1-1.6,0.2-2.4,0.2h-40.8c-0.5,0-1,0-1.4,0c-1.3,0.1-2.6-0.7-3-1.9
		c-2.3-4.7-4.8-9.4-7.2-14.1c-4.3-8.8-8.3-17.7-13-26.2c-2.5-4.7-5.4-9.1-8.8-13.2c-2.7-3.2-6.1-5.7-9.9-7.4
		c-2.3-1.2-4.8-1.8-7.4-1.9c-4-0.1-8-0.1-12,0c-1.8,0-2.2,0.6-2.3,2.3s-0.1,3.5-0.1,5.3v51.8c0,5.8,0.3,5.4-5.6,5.4h-32.6
		c-1,0-1.9,0-2.9,0c-2.4-0.1-2.6-0.4-2.7-2.9c0-1,0-1.9,0-2.9V66.2c0-1,0-1.9,0-2.9c0.1-1.7,0.5-2.1,2.4-2.2h2.9h72.4
		c8-0.2,16,1,23.6,3.4c12.4,4.2,22.4,11.5,29,23c8,13.9,7.8,35.9-9,49.5c-3.8,3-7.8,5.6-12.1,7.7
		C1885.4,145,1884.6,145.6,1884,146.3L1884,146.3z M1820.7,108.5v15.3c0,2.5,0.3,2.8,2.7,2.8h23c3.4-0.1,6.7-0.8,9.8-2
		c4.9-1.7,8.8-5.5,10.4-10.5c0.7-2.6,0.9-5.4,0.6-8.1c-0.3-4.9-3-9.3-7.3-11.8c-3.3-2-7-3.1-10.9-3.3c-8.6-0.8-17.2-0.4-25.8-0.4
		c-2.1,0-2.5,0.4-2.5,2.6C1820.7,98.3,1820.8,103.4,1820.7,108.5L1820.7,108.5z"/>
	<path d="M746.5,561.1c0-30.8,0-61.7,0-92.6c0-6.5-0.7-5.8,6-5.8h48c4.5,0,4.4-0.1,4.4,4.5v139.1c0,1.6,0,3.2,0.1,4.8
		c0,0.7,0.5,1.2,1.2,1.2c1.3,0.1,2.5,0.1,3.8,0.1c5,0,9.9-0.2,14.9-0.2c21.3-0.1,42.5-0.1,63.8-0.2c5.8,0,5.3-0.4,5.4,5.5
		c0.1,12.2,0.1,24.3,0.2,36.5c0,1.3,0,2.5-0.1,3.8c0,0.8-0.7,1.5-1.5,1.5c-1.1,0.1-2.2,0.1-3.4,0.1H751.5c-0.8,0-1.6,0-2.4,0
		c-2.3-0.1-2.6-0.3-2.7-2.4c0-1.1,0-2.2,0-3.4L746.5,561.1z"/>
	<path d="M1417.5,560.8c0-30.7,0-61.4,0-92.1c0-6.6-0.5-5.8,6-5.8h48c4.2,0,4.2,0,4.2,4.2v133.8v9.1c0,2.1,0.4,2.4,2.6,2.4h2.9
		c23.8-0.1,47.6-0.1,71.4-0.2c3,0,6.1-0.2,9.1-0.1s3.1,0.2,3.2,3.4c0.1,5.4,0.1,10.9,0.1,16.3c0.1,7.7,0.1,15.3,0.2,23
		c0,1,0,1.9-0.1,2.9c0,0.9-0.7,1.7-1.6,1.7c-0.1,0-0.2,0-0.3,0c-1,0-1.9,0-2.9,0h-138.2c-4.8,0-4.8,0.2-4.8-4.7
		C1417.5,623.4,1417.5,592.1,1417.5,560.8L1417.5,560.8z"/>
	<path d="M1069.9,221.4c-12.7-0.1-25.2-1.8-37-6.8c-24.7-10.4-41.5-28.2-48.8-54.3c-2.9-10.9-3.3-22.3-1.2-33.3
		c2.7-14.9,9.6-27.6,19.7-38.8c9.2-10.3,20.9-18,34-22.5c5.9-2,12-3.5,18.2-4.2c11.9-1.6,24-1.3,35.8,0.8
		c29.8,5.9,50.7,23.1,62.7,51c5.2,12.1,6.2,25.1,4.4,38.1c-2.6,19.5-12,35.1-26.4,48.1s-31.6,19.5-50.8,21.2
		C1077,221.1,1073.4,221.2,1069.9,221.4L1069.9,221.4z M1118.6,141.9c-0.2-3.2-0.3-6.4-0.7-9.6c-2.2-18.7-16.2-33.8-34.7-37.5
		c-7.5-1.6-15.3-1.8-22.9-0.6c-16.5,2.7-28.7,11.4-35.1,27c-4.6,11.3-4.8,23-1.5,34.8c3.5,12.6,11.3,21.6,22.9,27.4
		c4.1,2.1,8.6,3.5,13.2,4.1c10.1,1.3,20.1,1.3,29.8-2.4c11.9-4.3,21.3-13.6,25.7-25.5C1117.6,154,1118.2,148,1118.6,141.9
		L1118.6,141.9z"/>
	<path d="M2131.3,339.1v-71c0-5.5-0.4-5.3,5.1-5.3h65.2c9.8-0.1,19.5,1,29,3.3c19.2,4.7,35,14.7,46.4,31c5.6,8.2,9.4,17.6,11,27.4
		c2.5,13.7,1.7,27.9-2.6,41.2c-5.4,16.8-16.3,29.1-31.5,37.8c-9,5.1-18.7,8.1-28.9,10c-9,1.6-18.1,2.4-27.2,2.4
		c-20.5,0-40.9,0-61.4,0c-5.5,0-5.2,0.1-5.2-5.2L2131.3,339.1z M2171.2,339.4v17.7v27.8c0,2.5,0.3,2.8,2.7,2.8h20.6
		c6.4,0.1,12.8-0.6,19-2c16-3.8,27-13.3,32.1-29.1c3.9-12,3.7-24.9-0.6-36.7c-3-8.7-8.9-16.1-16.7-20.9c-6.9-4.4-14.5-6.5-22.6-7.4
		c-10.5-1.1-21.1-0.4-31.6-0.6c-0.3,0-0.7,0-1,0c-1.1,0-2,0.8-2.1,1.9v0.2c-0.1,1.3-0.1,2.5-0.1,3.8
		C2171.2,311.2,2171.2,325.3,2171.2,339.4L2171.2,339.4z"/>
	<path d="M851,343.8c0.4,0.6,0.4,0.8,0.5,0.9c9.3,5.7,15.4,14.3,20.5,23.7c4.3,8,8.3,16.2,12.5,24.3c3.3,6.4,6.7,12.7,10,19.1
		c0.4,0.7,0.7,1.4,1,2.2c0.2,0.5,0.1,1-0.4,1.3c-0.1,0.1-0.3,0.1-0.4,0.1c-1.1,0.1-2.2,0.1-3.3,0.1h-37.9H851
		c-1.1,0-2.2-0.6-2.7-1.7c-1.1-2.1-2.3-4.2-3.3-6.4c-4.1-8.1-8.1-16.3-12.3-24.4c-2.8-5.7-6.1-11.3-9.8-16.5
		c-4-5.6-8.9-10-15.8-11.8c-0.8-0.2-1.5-0.4-2.3-0.5c-4.6-0.5-9.3-0.7-13.9-0.5c-1.5,0-2,0.6-2.1,2s0,2.9,0,4.3v49.4v3.4
		c-0.1,2.4-0.4,2.7-2.9,2.7c-12.3,0-24.6,0-36.9,0c-0.5,0-1,0-1.4-0.1c-0.7-0.1-1.2-0.6-1.2-1.3c-0.1-1.4-0.1-2.9-0.1-4.3V273.4
		c0-2.4,0-4.8,0-7.2c0-2.9,0.2-3,2.9-3.1h1.9H825c9.3-0.1,18.5,1.9,27,5.8c10.4,4.9,18.8,12.1,23.7,22.8c2.7,6.2,3.7,13,2.9,19.7
		c-1.2,11.5-7.3,19.9-16.6,26.2c-2.2,1.5-4.7,2.8-7,4.1C853.6,342.4,852.4,343.1,851,343.8L851,343.8z M788.9,308.5v14.4
		c0,2.2,0.4,2.6,2.5,2.6c8,0,16,0,24-0.1c3.9-0.1,7.6-1.2,11-3c4.4-2.1,7.5-6.3,8.2-11.1c1-6.3-0.9-14.7-10.2-17.9
		c-2.1-0.7-4.3-1.2-6.5-1.5c-8.7-1.1-17.5-0.6-26.3-0.7c-2.1,0-2.6,0.5-2.6,2.5C788.8,298.6,788.8,303.6,788.9,308.5L788.9,308.5z"
		/>
	<path d="M898.7,107.5c-4-1.6-7.6-3.2-11.3-4.7c-16.8-6.7-34.3-10.1-52.5-8.9c-8.5,0.6-16.8,2.3-24.4,6.4c-13.1,7-21,17.9-23.7,32.5
		c-1.3,6.9-1.2,14.1,0.5,20.9c1.9,8.2,6.3,15.5,12.5,21.1c6.8,6.2,15.2,10.3,24.2,12c8.6,1.8,17.5,1.9,26.2,0.3
		c3.9-0.8,7.7-2,11.5-3.4c1.4-0.4,2.4-1.8,2.3-3.2c0-4.2,0-8.3,0-12.5c0-2.9-0.2-3.1-3-3.1c-4.6-0.1-9.3,0-13.9,0
		c-5.3,0-5.4,0.4-5.3-5.1c0-6.2,0-12.5,0-18.7c0-1.1,0-2.2,0.1-3.4c0-0.8,0.7-1.5,1.6-1.5c1.1-0.1,2.2-0.1,3.4-0.1h50.8
		c1.1,0,2.2,0,3.3,0.1c0.8,0,1.5,0.6,1.6,1.5c0.1,1.1,0.1,2.2,0.1,3.4c0,18.2-0.1,36.5,0.1,54.7c0.2,2.9-1.1,5.7-3.5,7.3
		c-6.3,4.7-13.3,8.4-20.7,10.8c-16.3,5.8-33.7,8.1-51,6.7c-19.5-1.6-37.5-7.4-53-20c-17.8-14.6-27.5-33.2-28.2-56.4
		c-0.4-9.9,0.9-19.9,4-29.3c4.8-13.9,13.3-25.1,24.7-34.1c13.3-10.5,28.5-16.2,45.1-18.6c6-0.9,12.1-1.3,18.2-1.3
		c19.2,0,37.9,2.9,55.7,10.4l0.9,0.4c4.9,2.3,4.4,1.4,4.4,6.6v24.5C899.5,104.4,899.3,106,898.7,107.5L898.7,107.5z"/>
	<path d="M1400.4,263.1c13.8,0,25.3,1.5,36.3,5.8c21.5,8.2,36.9,23,46,44.2c4.1,9.6,5.1,19.7,4.7,30.1c-0.6,14-5.5,27.5-14.2,38.5
		c-7,9.3-16,17.1-26.2,22.6c-9.3,5-19.5,8.2-30,9.4c-5.7,0.8-11.5,1.1-17.2,1c-12.7-0.3-25.1-2.4-36.8-7.4
		c-10-4.3-19-10.6-26.5-18.6c-6-6.2-10.9-13.4-14.4-21.4c-9.6-22-7.6-50.2,8.8-71.2c13.3-17.1,30.6-27.7,52.1-31.3
		C1388.7,263.7,1394.6,263.1,1400.4,263.1L1400.4,263.1z M1448.8,339.1c0-1.8,0.1-3.5,0-5.3c-0.1-1.6-0.4-3.2-0.7-4.7
		c-3.4-16.8-13.4-27.7-29.6-32.6c-10.8-3.3-22.3-3.3-33.1,0c-11,3-20.2,10.4-25.4,20.6c-5.4,10.3-6.4,21.4-3.9,32.7
		c3.9,17.7,15.2,28.4,32.6,32.6c8.6,2,17.6,2.1,26.2,0.1c12.3-2.7,21.9-9.3,28.4-20.3C1447.4,355,1448.9,347.2,1448.8,339.1
		L1448.8,339.1z"/>
	<path d="M1205.9,364.9c0,9-0.1,17.9,0.1,26.9c0.1,2.1-0.9,4.1-2.6,5.3c-4.8,3.7-10.1,6.7-15.8,8.9c-10.1,3.9-20.7,6.6-31.5,7.9
		c-12.7,1.6-25.6,1.2-38.2-1.2c-18.2-3.4-34.3-11.1-47.5-24.3c-12.3-12.3-19-27-19.7-44.5c-0.3-8.5,0.1-16.9,2.5-25.2
		c3.6-12.4,10.6-23.4,20.4-31.9c9.4-8.5,20.7-14.7,32.8-18.3c14.8-4.3,30.2-5.9,45.5-4.8c10.9,0.6,21.6,2.3,32.1,5.1
		c5.7,1.6,11.3,3.5,16.7,5.9c1.4,0.5,2.3,1.9,2.1,3.3c-0.1,9.1,0,18.2-0.1,27.4c0,1.8-0.8,2.4-2.4,1.7c-5.2-2.4-10.6-4.4-16.1-6.2
		c-15-5.1-30.9-7.1-46.8-6c-10.7,0.8-20.8,3.4-29.6,9.9c-10.8,8-16.8,18.6-17.8,32c-0.6,6.2,0.2,12.5,2.2,18.4
		c3.6,9.6,10.2,16.5,19,21.5c6.8,3.7,14.2,6,21.8,6.7c7.9,1,16,0.6,23.8-1.2c2.9-0.7,5.8-1.8,8.7-2.7c1.1-0.2,2-1.3,1.9-2.4
		c0-4.3,0-8.6,0-13c0-1.7-0.6-2.1-2.5-2.1c-4.5-0.1-9,0-13.4,0c-1.3,0-2.6,0-3.8,0c-1.7-0.1-2.2-0.6-2.2-2.4c0-7.5,0-15,0-22.5
		c0-1.8,0.5-2.2,2.3-2.3h2.4h50.8c1.1,0,2.2,0,3.3,0.1c0.8,0,1.5,0.7,1.5,1.6c0.1,1.3,0.1,2.6,0.1,3.8L1205.9,364.9z"/>
	<path d="M1581.7,141c0-25,0-49.9,0-74.9c0-5.8-0.3-5.5,5.4-5.5h104.6c6.4,0,5.8-0.6,5.8,6v18.2v3.4c0.1,0.9-0.6,1.8-1.6,1.9
		c-0.1,0-0.1,0-0.2,0c-1.4,0.1-2.9,0.1-4.3,0.1h-64.3c-5.7,0-5.4-0.4-5.4,5.5v23v2.9c0.1,1.6,0.5,2.1,2,2.1c1.3,0.1,2.6,0,3.8,0
		h60.9c6,0,5.4-0.5,5.4,5.4v19.2v3.4c0,0.8-0.7,1.5-1.6,1.5c-1.4,0.1-2.9,0.1-4.3,0.1c-20.3,0-40.6,0-60.9,0c-5.5,0-5.3-0.2-5.3,5.1
		v27.8c0,1.1,0,2.2,0.1,3.4c0,1,0.8,1.8,1.7,1.8h0.1c1.4,0.1,2.9,0.1,4.3,0.1h65.2c1.4,0,2.9,0,4.3,0.1c1,0,1.8,0.7,1.8,1.7v0.2v3.4
		v19.2v2.9c-0.1,2.1-0.4,2.4-2.6,2.5c-0.8,0-1.6,0-2.4,0h-107.5c-0.6,0-1.3,0-1.9,0c-2.8-0.1-3.1-0.3-3.2-3c0-1.1,0-2.2,0-3.4
		L1581.7,141z"/>
	<path d="M1886.2,415.1c-1.1,0.5-2.3,0.6-3.4,0.5c-11.3,0-22.7,0-34,0h-2.4c-1,0-1.9-0.6-2.2-1.6c-1-2.4-2.1-4.7-3.1-7
		c-2.5-5.9-5-11.8-7.5-17.6c-0.3-0.7-0.7-1.5-1-2.2c-0.5-1.1-1.5-1.7-2.7-1.6c-0.8,0-1.6,0-2.4,0h-60.9c-0.5,0-1,0-1.4,0
		c-2.1-0.2-3.2,0.7-3.9,2.6c-2.9,7.6-5.9,15.2-8.9,22.8c-2,5.2-1.3,4.6-6.8,4.7c-10.6,0-21.1,0-31.7,0c-1.1,0-2.2,0-3.3-0.1
		c-0.5,0-0.9-0.4-0.9-1c0-0.1,0-0.3,0.1-0.4c0.7-2,1.5-3.9,2.3-5.8c10.1-24.4,20.2-48.7,30.2-73.1c9.1-21.9,18-43.7,27.2-65.5
		c3.3-8,1.2-6.5,9.9-6.5c11-0.1,22.1,0,33.1,0h3.3c1,0,1.9,0.5,2.3,1.4c0.4,0.7,0.7,1.4,1.1,2.1c12.2,26.8,24.4,53.5,36.5,80.3
		c9.5,20.8,18.9,41.6,28.4,62.4C1885,411.2,1886.1,413,1886.2,415.1L1886.2,415.1z M1796,358.6h18.7c1.1,0,2.2,0,3.3-0.1
		c0.8,0.1,1.4-0.5,1.5-1.2c0-0.2,0-0.5-0.1-0.7c-0.2-0.8-0.6-1.5-0.9-2.2c-7-16.3-13.9-32.6-20.9-48.9c-0.5-1.2-1.1-2.3-1.7-3.4
		c-0.2-0.4-0.7-0.5-1.1-0.3c-0.2,0.1-0.3,0.3-0.4,0.5c-0.7,1.6-1.3,3.2-2,4.9c-1.6,4-3.1,8-4.7,12.1c-4.6,11.9-9.2,23.8-13.8,35.8
		c-0.2,0.6-0.5,1.2-0.7,1.8c-0.3,0.7,0.1,1.4,0.7,1.7c0.1,0,0.2,0.1,0.3,0.1c1.1,0.1,2.2,0.1,3.3,0.1L1796,358.6z"/>
	<path d="M972,415.4h-53.2c-4.8,0-4.9,0.5-4.9-5c0-47.5,0-95,0-142.5c0-5.2,0.3-4.7,4.7-4.7h105.5c4.8,0,5-0.5,5,5v18.2
		c0,1.1,0,2.2-0.1,3.4c-0.1,0.8-0.8,1.5-1.6,1.5c-1.3,0.1-2.6,0.1-3.8,0.1h-63.3c-0.6,0-1.3,0-1.9,0c-4.7,0-4.8,0-4.8,4.8v22.1v1
		c0.1,3.5,0.2,3.6,3.4,3.6h3.8h59.5c5.4,0,5.3-0.3,5.2,5.2v17.3v3.4c-0.1,1.8-0.5,2.3-2.2,2.4c-1.3,0.1-2.6,0-3.8,0H959
		c-5.9,0-5.4-0.2-5.4,5.5v25.4c0,1.3,0,2.5,0.2,3.8c0.1,0.7,0.6,1.2,1.3,1.2c1.4,0.1,2.9,0.2,4.3,0.2h65.2c6.7,0,6-0.4,6,5.9
		s0,12.5,0,18.7c0,3.6-0.1,3.6-3.9,3.7c-1.8,0-3.5,0-5.3,0L972,415.4z"/>
	<path d="M2431.6,288.1c-0.5,0.8-0.7,1.8-0.4,2.8c-1.9,0.1-3.8,0.3-5.7,0.3c-20.9,0-41.7,0-62.6,0c-1.7-0.2-3.5-0.1-5.2,0.3
		l-0.4-0.1v0.4c-0.2,1.1-0.3,2.2-0.4,3.3V319v1.9c-0.1,1,0.6,1.8,1.6,1.9h0.1c1.4,0.1,2.9,0.1,4.3,0.1h64c0.1,0.4,0.4,0.5,0.8,0.5
		c0.4,9.1,0.3,18.1,0,27.2l-0.9,0.5h-64.2c-1.7-0.2-3.5-0.1-5.2,0.3c-0.5,0-0.6,0.2-0.4,0.7c0,11.1,0,22.3-0.1,33.4
		c0,0.5,0.1,0.9,0.3,1.4c-0.1,0.5,0.1,0.7,0.5,0.2c6.1,0,12.1,0.1,18.2,0.1h51.7c1.6,0,3.2,0.2,4.8,0.3c0,8.4,0.1,16.8,0.1,25.2
		c0,1-0.3,1.9-0.8,2.7h-108.9c-5.7,0-5.2,0.3-5.2-5.1v-142c0-0.8,0-1.6,0-2.4c0.1-2.5,0.3-2.6,2.8-2.7h3.8H2426h3.4
		c1.8,0.1,2.1,0.4,2.2,2.4c0.1,1.1,0,2.2,0,3.4L2431.6,288.1z"/>
	<path d="M1910,338.9c0-23.3,0-46.7,0-70.1c0-6.6-0.2-5.9,6-5.9h26.9c1.1,0,2.2,0,3.3,0.1c0.7,0,1.2,0.6,1.2,1.3
		c0.1,1.6,0.2,3.2,0.2,4.8v91.2v21.6v3.4c-0.1,1,0.6,1.8,1.6,1.9h0.2c1.4,0.1,2.9,0.1,4.3,0.1h64.8c6.3,0,5.8-0.2,5.8,5.7v17.8v2.9
		c0.1,1-0.7,1.8-1.7,1.9h-0.1c-1.1,0.1-2.2,0.1-3.3,0.1h-103.5c-5.6,0-5.5,0.4-5.5-5.5C1910,386.3,1910,362.6,1910,338.9L1910,338.9
		z"/>
	<path d="M1462.1,141V65.2c0-4.7,0-4.7,4.7-4.7h29.3c1.1,0,2.2,0,3.3,0.1c0.8,0,1.5,0.7,1.5,1.5c0.1,1.1,0.1,2.2,0.1,3.3v150.2
		c0,5.8,0.4,5.5-5.4,5.5c-9.4,0-18.9,0-28.3,0c-1.3,0-2.6-0.1-3.8-0.2c-0.7,0-1.2-0.6-1.2-1.2c-0.1-1.4-0.1-2.9-0.1-4.3
		C1462.1,190.6,1462.1,165.8,1462.1,141z"/>
	<path d="M1244.4,339.3v-69.6c0-1,0-1.9,0-2.9c0.1-3.7,0.1-3.7,3.8-3.7h31.7h1.4c1.6,0.1,2.1,0.5,2.2,1.9c0.1,1,0,1.9,0,2.9v142.5
		c0,5.3-0.2,5-5,5h-29.3c-0.8,0-1.6,0-2.4,0c-1.8-0.1-2.3-0.5-2.4-2.2c-0.1-1.3,0-2.6,0-3.8C1244.4,386,1244.4,362.6,1244.4,339.3
		L1244.4,339.3z"/>
	<path d="M445.4,321.3c4.1,0.1,8.3,0.2,12.5,0.3c16.8,0.6,33.5,1.7,50.2,3.5c11.3,1.2,22.6,2.6,33.8,4.3c13.6,2.1,27.1,4.7,40.5,7.8
		c20.9,4.7,41.4,10.8,61.5,18.3c7.3,2.8,14.5,5.9,21.5,9.3c1.4,0.5,2.2,1.9,2.1,3.4V396c0,1.5-0.8,1.9-2.2,1
		c-7.3-4.7-14.7-9.1-22.3-13.2c-15.6-8.4-31.7-15.9-48.3-22.3c-16.5-6.4-33.4-11.9-50.5-16.6c-11.2-3.1-22.6-5.8-34-8.2
		c-13.3-2.8-26.6-5.2-40.1-7.2c-9.3-1.4-18.7-2.4-28.1-3.5c-10.8-1.3-21.6-2.1-32.5-2.8c-0.6-0.1-1.2-0.2-1.8-0.4
		c-0.2-0.1-0.2-0.5-0.2-0.8c0-0.1,0.1-0.3,0.2-0.4c0.6-0.2,1.2-0.3,1.9-0.3c7.7-0.2,15.3-0.4,23-0.5c4.3-0.1,8.6,0,13,0L445.4,321.3
		z"/>
	<path d="M403.8,323.2c-5.6,0.5-11.2,0-16.8-0.1c-0.2,0-0.5-0.3-0.6-0.6s0-0.6,0.5-0.7c1.3-0.1,2.5-0.2,3.8-0.3h12.9
		C403.7,322.1,403.7,322.7,403.8,323.2z"/>
	<path d="M403.8,323.2c0-0.5-0.1-1.1-0.1-1.6c0.6,0,1.2,0,1.8,0.1s0.8,0.4,0.7,0.9c-0.1,0.3-0.3,0.5-0.6,0.5
		C404.9,323.1,404.3,323.2,403.8,323.2z"/>
	<path d="M2357,352c-0.2-0.5,0-0.7,0.4-0.7C2357.6,351.7,2357.4,352,2357,352z"/>
	<path d="M2426.9,351l0.9-0.5C2427.7,351,2427.4,351.2,2426.9,351z"/>
	<path d="M2427.7,323.2c-0.4,0-0.7-0.1-0.8-0.5C2427.4,322.5,2427.7,322.7,2427.7,323.2z"/>
	<path d="M2357.7,387.1c-0.4,0.4-0.6,0.3-0.5-0.2C2357.5,386.7,2357.6,386.8,2357.7,387.1z"/>
	<path d="M2357.3,291.7v-0.4l0.4,0.1l-0.1,0.3H2357.3z"/>
	<path d="M386.4,322.5c0,0,40.4-3.2,63.6-0.9s10.8,6.9,10.8,6.9"/>
</g>
</svg>
