<?xml version="1.0" encoding="utf-8"?>
<!-- Generator: Adobe Illustrator 27.1.1, SVG Export Plug-In . SVG Version: 6.00 Build 0)  -->
<svg version="1.1" id="Capa_1" xmlns="http://www.w3.org/2000/svg" xmlns:xlink="http://www.w3.org/1999/xlink" x="0px" y="0px"
	 viewBox="0 0 210 66" style="enable-background:new 0 0 210 66;" xml:space="preserve">
<style type="text/css">
	.st0{fill:#102B42;}
	.st1{fill:#CFB47C;}
	.st2{fill:#FFFFFF;}
</style>
<g>
	<g>
		<path class="st0" d="M33.1,1.5C15.6,1.5,1.4,15.7,1.4,33.1s14.2,31.6,31.6,31.6c17.5,0,31.6-14.2,31.6-31.6S50.6,1.5,33.1,1.5z
			 M33.1,63.3C16.4,63.3,3,49.8,3,33.1S16.4,3,33.1,3c16.6,0,30.1,13.5,30.1,30.1S49.7,63.3,33.1,63.3z"/>
		<circle class="st1" cx="33.1" cy="33.1" r="30.1"/>
		<g>
			<g>
				<g>
					<polygon class="st0" points="26,46.3 27.4,46.3 26.7,48.4 					"/>
					<polygon class="st0" points="27.4,50.5 26,50.5 26.7,48.4 					"/>
					<polygon class="st0" points="24.6,49.1 24.6,47.8 26.7,48.4 					"/>
					<polygon class="st0" points="28.8,47.8 28.8,49.1 26.7,48.4 					"/>
				</g>
				<g>
					<polygon class="st0" points="32,46.3 33.3,46.3 32.7,48.3 					"/>
					<polygon class="st0" points="33.3,50.4 32,50.4 32.7,48.3 					"/>
					<polygon class="st0" points="30.6,49 30.6,47.7 32.7,48.4 					"/>
					<polygon class="st0" points="34.7,47.7 34.7,49 32.7,48.4 					"/>
				</g>
				<g>
					<polygon class="st0" points="37.9,46.4 39.3,46.4 38.6,48.4 					"/>
					<polygon class="st0" points="39.3,50.5 37.9,50.5 38.6,48.4 					"/>
					<polygon class="st0" points="36.5,49.1 36.5,47.8 38.6,48.5 					"/>
					<polygon class="st0" points="40.7,47.8 40.7,49.1 38.6,48.5 					"/>
				</g>
			</g>
			<g>
				<path class="st0" d="M34.4,38.1C34.4,38.1,34.4,38.1,34.4,38.1c0,0.6,0.1,1.1,0.1,1.6c0,0.4,0.1,0.8,0.2,1.1
					c0.1,0.4,0.3,0.8,0.6,1.1c0.3,0.3,0.6,0.6,0.9,0.8l3.8,2.5c0,0.1,0,0.1,0,0.1h-1.8c-0.2,0-0.2-0.1-0.2-0.1
					c-0.3-0.2-1.2-0.9-1.8-1.2c0,0-2.4-1.7-2.5,1.3l-1.7,0l0,0c0,0-0.1-3.1-2.7-1.3l-1.9,1.2L27,45.4h-1.9c0,0-0.1-0.2,0.1-0.3
					c0,0,2.8-1.4,3.3-1.9c0.1-0.1,1.1-0.9,1.2-1c0.2-0.2,0.5-0.5,0.6-0.8c0.1-0.1,0.2-0.3,0.3-0.5c0.1-0.2,0.2-0.3,0.2-0.5
					c0.2-0.4,0.3-0.9,0.3-1.5c0-0.1,0-0.2,0-0.3c0-0.1,0-0.3,0-0.4c0-0.1,0-0.2,0-0.3h0c0-0.5,0-0.9,0-1.4c0-0.2,0-0.4,0-0.6
					c0-0.4-0.6-0.8-0.6-0.8l-0.9-0.6c0,0-1,1.2-2.2,1.8c0,0.1,0.1,0.1,0.2,0.1c0.1,0,0.2,0,0.3,0.1c0.2,0.1,0.3,0.3,0.3,0.4
					c0,0,0,0.1,0,0.1c0,0.2-0.2,0.2-0.4,0.2c0,0,0,0,0,0c-0.3-0.2-0.3-0.4-0.3-0.6c0-0.1,0-0.2-0.1-0.3c-0.3,0.1-0.6,0.2-0.9,0.2
					c-0.1,0-0.3,0-0.4,0c0,0,0,0.1,0,0.1c0.1,0.2,0.3,0.1,0.5,0.3c0.3,0.2,0.2,0.3,0.4,0.4c0.2,0,0.2,0,0.4,0.1
					c0.1,0,0.1,0.1,0.2,0.2c0.1,0.1,0.1,0.2,0.1,0.3c0,0.1-0.1,0.3-0.2,0.3c-0.1,0-0.1,0.1-0.2,0.1c-0.2,0-0.4-0.1-0.5-0.2
					c-0.1-0.1-0.1-0.3-0.1-0.5c0,0,0,0,0-0.1c0-0.1,0-0.1-0.1-0.1c-0.2-0.3-0.4-0.5-0.7-0.5c0,0.1,0,0.2,0,0.3c0,0,0,0.1,0,0.1
					c0,0,0.1,0.1,0.1,0.1c0.1,0.1,0.3,0.2,0.3,0.3c0,0.1,0,0.3-0.1,0.4c0,0.1-0.1,0.1-0.1,0.1c0,0-0.1,0-0.1,0c-0.1,0-0.2,0-0.3,0
					c0,0-0.2-0.1-0.2-0.2c-0.1-0.2,0-0.4,0-0.4c0.1-0.2,0.2-0.2,0.2-0.4c0,0,0,0,0,0c0-0.2,0-0.4-0.1-0.6c0,0,0-0.1,0-0.1
					c-0.1,0-0.2,0-0.3,0c-0.1,0.1-0.2,0.2-0.3,0.2c-0.1,0.1-0.2,0.1-0.4,0.2c0,0.2,0,0.4-0.2,0.5s-0.4,0.1-0.5,0
					C24,37.4,24,37.3,24,37.2c0-0.1-0.1-0.2-0.1-0.3c0-0.2,0.2-0.3,0.3-0.3c0.2,0,0.3,0,0.4,0.1c0,0,0.1,0,0.1,0c0,0,0.1,0,0.1,0
					c0.1,0,0.3-0.1,0.4-0.2c0,0,0.1-0.1,0.1-0.1c-0.1,0-0.2,0-0.3,0c0,0-0.1,0-0.1,0c-0.1,0-0.1,0-0.2,0.1c-0.1,0-0.3,0.1-0.4,0
					c-0.1,0-0.2-0.1-0.2-0.2c0-0.1,0-0.2,0.1-0.3c0.1-0.1,0.2-0.1,0.3-0.1c0.1,0,0.2,0.1,0.2,0.1c0,0,0.1,0.1,0.1,0.1c0,0,0,0,0,0
					c0.1,0,0.1,0,0.2,0c0,0,0,0,0.1,0c0.1,0,0.2,0,0.4,0c0-0.1,0-0.1-0.1-0.2c0,0,0,0-0.1-0.1c0,0-0.1,0-0.2,0c-0.2,0-0.4,0-0.5-0.1
					c-0.1-0.1-0.2-0.3-0.1-0.5c0.1-0.2,0.3-0.3,0.4-0.2c0.1,0,0.2,0.1,0.2,0.2c0.1,0.1,0.1,0.2,0.1,0.4c0,0.1,0,0.1,0,0.2
					c0,0.1,0.1,0.2,0.3,0.4c0,0,0,0,0,0c0.3,0,0.6,0,0.9,0c0-0.1-0.1-0.2-0.1-0.2c0,0,0-0.1-0.1-0.1c0,0-0.1,0-0.2,0
					c-0.2,0-0.4,0-0.5-0.1c-0.1-0.1-0.2-0.3-0.1-0.5c0.1-0.2,0.3-0.3,0.4-0.2c0.1,0,0.2,0.1,0.2,0.2c0.1,0.1,0.1,0.2,0.1,0.4
					c0,0.1,0,0.1,0,0.2l0.3,0.4c0,0,0,0,0.1,0c0,0,0.1,0,0.1,0c0.3-0.1,0.6-0.2,0.8-0.4c0,0,0-0.1,0-0.1c0,0-0.1,0-0.1,0
					c-0.1,0-0.2,0-0.3-0.1c-0.1,0-0.1-0.1-0.2-0.1c-0.1-0.2-0.3-0.3-0.4-0.5c-0.1,0-0.1,0.1-0.2,0c-0.1,0-0.1,0-0.2-0.1
					c-0.1,0-0.2-0.1-0.2-0.2c-0.1-0.1-0.1-0.2-0.1-0.3c0-0.1,0.1-0.3,0.2-0.3c0.1,0,0.1-0.1,0.2-0.1c0.2,0,0.4,0.1,0.5,0.2
					c0.1,0.1,0.1,0.3,0.1,0.5c0,0,0,0,0,0.1c0,0.1,0,0.1,0.1,0.1c0.2,0.3,0.4,0.5,0.7,0.5c0-0.1,0-0.2,0-0.3c0,0,0-0.1,0-0.1
					c0,0-0.1-0.1-0.1-0.1c-0.1-0.1-0.3-0.2-0.3-0.3c0-0.1,0-0.3,0.1-0.4c0.2-0.2,0.4-0.1,0.4-0.1c0,0,0.2,0,0.3,0.2
					c0.1,0.1,0.1,0.2,0.1,0.2c0,0.3-0.3,0.6-0.3,0.6c0,0,0,0,0,0c0,0,0,0,0,0c0,0.2,0,0.3,0,0.4c0.6-0.6,0.9-1.5,0.9-1.5
					s-0.5-0.3-2.6-0.8c-2.1-0.5-3.3-2.3-3.3-2.3c-0.1-0.2-0.3-0.5-0.6-0.8c-0.6-0.6-1.3-0.9-1.7-1.1c0,0.1,0,0.2,0,0.3
					c0,0,0.1,0.4,0.5,0.8c0,0,0,0,0,0c0,0,0,0,0.1,0c0.1,0,0.3,0,0.4,0c0.2,0.1,0.4,0.4,0.3,0.6c0,0.1-0.1,0.2-0.2,0.2
					c-0.1,0.1-0.3,0.1-0.5,0c-0.2-0.1-0.2-0.4-0.2-0.7c0,0,0,0,0,0c0,0,0,0,0,0c-0.1,0-0.2-0.2-0.3-0.2c-0.1,0-0.1,0.1-0.2,0.2
					c0,0.1-0.1,0.2,0,0.3c0,0,0.1,0.1,0.1,0.1c0.1,0.1,0.2,0.3,0.2,0.5c0,0.1,0,0.3-0.1,0.4c-0.1,0.1-0.2,0.1-0.3,0.1
					c-0.1,0-0.3,0-0.5-0.2c-0.1-0.2-0.2-0.4-0.1-0.6c0.1-0.2,0.3-0.2,0.4-0.4c0-0.1,0-0.1,0-0.2c-0.2,0.1-0.5,0.2-0.8,0.2
					c-0.1,0-0.1,0-0.2,0.1c-0.1,0.2,0,0.4-0.1,0.6c0,0.2-0.3,0.4-0.5,0.3c-0.2,0-0.4-0.2-0.5-0.4c-0.1-0.1-0.1-0.3,0-0.5
					c0.1-0.2,0.3-0.3,0.5-0.3c0.1,0,0.3,0,0.4,0c0,0,0,0,0.1,0c0,0,0,0,0,0c0.1,0,0.3-0.1,0.4-0.1c0.2-0.1,0.5-0.1,0.7-0.2
					c0.2-0.1,0.2-0.3,0.2-0.5c0-0.1-0.1-0.2-0.1-0.4c0-0.1-0.1-0.3-0.1-0.3c-0.1,0-0.3,0-0.5,0c-0.1,0-0.2,0-0.3,0
					c0,0-0.1,0.1-0.2,0.3c0,0,0,0.1,0,0.1c0,0,0,0,0,0.1c0,0.1,0,0.1,0,0.2c0,0.1-0.1,0.3-0.2,0.4c-0.1,0.1-0.1,0.2-0.2,0.2
					c-0.2,0.1-0.4,0-0.5-0.2c-0.1-0.2,0-0.4,0.1-0.6c0.1-0.1,0.2-0.2,0.3-0.2c0.2-0.1,0.4,0.1,0.5,0c0,0,0,0,0-0.1c0,0,0-0.1,0-0.1
					c-0.2,0-0.5,0-0.8,0.2c-0.2,0.1-0.4,0.2-0.5,0.3c0,0,0,0,0,0.1c0,0,0,0,0,0.1c0,0,0,0,0,0.1c0.1,0.1,0,0.3-0.1,0.4
					c-0.1,0.2-0.4,0.4-0.7,0.3c-0.1-0.1-0.2-0.2-0.3-0.3c0-0.2,0.1-0.3,0.2-0.4c0.1-0.1,0.2-0.1,0.3-0.1c0.1,0,0.2,0,0.2-0.1
					c0.1,0,0.2-0.1,0.3-0.2c0-0.4-0.1-0.5-0.2-0.6c-0.1,0-0.1,0-0.3-0.1c-0.1,0-0.2-0.1-0.2-0.3c0-0.2,0-0.3,0.1-0.5
					c0.1-0.1,0.4-0.2,0.5-0.1c0.2,0.1,0.2,0.3,0.3,0.3c0,0,0,0.2,0,0.4c-0.1,0.1-0.1,0.1-0.2,0.2c0,0.1,0,0.2,0.1,0.4
					c0.3-0.2,0.4-0.5,0.4-0.8c0-0.1,0-0.1,0-0.2c0,0,0,0-0.1,0c-0.1-0.1-0.2-0.3-0.2-0.5c0-0.2,0.2-0.3,0.3-0.4c0.1,0,0.2,0,0.2,0
					c0.1,0,0.2,0.1,0.3,0.2c0.1,0.1,0.1,0.2,0.1,0.3c0,0.1-0.1,0.2-0.1,0.2c-0.1,0.2-0.2,0.1-0.4,0.3c0,0,0,0-0.2,0.5
					c0,0-0.1,0.3-0.3,0.4c0,0,0,0,0,0c-0.1,0-0.1,0.1-0.1,0.1c0,0,0,0,0,0.1c0,0,0,0,0,0c0,0,0.1,0,0.1-0.1c0,0,0,0,0,0c0,0,0,0,0,0
					c0,0,0,0,0,0c0.4-0.2,1-0.4,1.6-0.4c0,0,0.1-0.1,0-0.2c0-0.1-0.1-0.1-0.1-0.2c-0.1,0-0.1,0-0.1-0.1c-0.1-0.1-0.2-0.2-0.3-0.3
					c0-0.2,0-0.4,0.2-0.5c0.1-0.1,0.4-0.1,0.5,0.1c0.1,0.1,0.1,0.2,0.1,0.3c0,0.1,0,0.3,0,0.4c0,0.1,0,0.1-0.1,0.2c0,0,0,0,0,0.1
					c0,0,0,0.1,0,0.1c0,0.1,0,0.2,0,0.2c0,0,0,0,0.1,0c0.6,0,1.2,0.2,1.7,0.5c0,0,0-0.6-0.4-1c-0.2-0.1-0.4-0.2-0.5-0.3
					c-0.2-0.2-0.3-0.4-0.3-0.6c0-0.1,0-0.3,0-0.4c0,0,0-0.1,0-0.1c0-0.1,0.1-0.2,0.2-0.3c0.1-0.1,0-0.3,0.1-0.4
					c0.1-0.1,0.2-0.2,0.3-0.3c0.1-0.1,0.2-0.2,0.3-0.1c0.1,0,0.1,0.1,0.1,0.1c0.1,0.1,0.2,0,0.3,0.1c0.1,0.1,0.1,0.2,0.1,0.3
					c0.1,0.1,0.2,0.1,0.2,0.2c0,0.1,0,0.1,0,0.2c0,0.1,0.1,0.1,0.1,0.2c0,0.1,0,0.2,0,0.3c0,0.1,0.1,0.2,0.1,0.3
					c0,0.1-0.1,0.2-0.2,0.4c0,0,0,0.1,0,0.1c0,0.1-0.1,0.2-0.1,0.3c0,0,0,0,0,0c0,0.4,0,1.3,0.7,2.3c0.8,1.4,3.3,2.2,4.8,2.2
					c0.3-0.7,0.3-2.2-0.5-3.4c-0.1,0-0.1,0.1-0.2,0.1c-0.1,0.1-0.2,0.3-0.3,0.5c-0.1,0.2,0,0.4,0,0.5c0,0,0,0,0,0.1c0,0,0,0,0.1,0
					c0.1,0.1,0.3,0.2,0.3,0.3c0.1,0.2,0,0.6-0.2,0.7c-0.1,0-0.2,0.1-0.3,0c-0.2,0-0.3-0.2-0.4-0.3c-0.1-0.3,0.1-0.5,0.4-0.7
					c0,0,0,0,0,0c0,0,0,0,0,0c0-0.1,0-0.3-0.1-0.4c-0.1-0.1-0.2,0-0.3,0c-0.1,0-0.3,0.1-0.3,0.3c0,0.1,0,0.1,0,0.2
					c0,0.2-0.1,0.5-0.2,0.6c-0.1,0.1-0.3,0.2-0.4,0.2c-0.1,0-0.2-0.1-0.3-0.1c-0.1-0.1-0.2-0.3-0.2-0.5c0-0.2,0.1-0.4,0.3-0.5
					c0.2-0.1,0.5-0.1,0.7,0c0-0.1,0-0.1,0.1-0.2c-0.2-0.1-0.5-0.3-0.8-0.4c-0.1,0-0.2-0.1-0.2-0.1c-0.2,0-0.3,0.3-0.5,0.5
					c-0.2,0.2-0.5,0.1-0.7-0.2c-0.2-0.2-0.2-0.5-0.1-0.8c0.1-0.2,0.2-0.3,0.4-0.4c0.2-0.1,0.4,0,0.6,0.1c0.1,0.1,0.3,0.2,0.3,0.4
					c0,0,0,0,0,0.1c0,0,0,0,0,0c0.2,0.1,0.3,0.1,0.5,0.2c0.2,0.1,0.5,0.3,0.7,0.4c0.2,0.1,0.4,0,0.5-0.1c0.1-0.1,0.2-0.4,0.3-0.5
					c0-0.1,0.1-0.1,0.2-0.2c-0.1-0.1-0.2-0.3-0.3-0.4c-0.3-0.1-0.4,0-0.5,0.1c-0.1,0-0.1,0-0.2,0.1c-0.1,0.1-0.3,0.2-0.4,0.2
					c-0.1,0-0.2,0-0.3,0c-0.2-0.1-0.3-0.3-0.2-0.5c0.1-0.2,0.3-0.3,0.5-0.3c0.2,0,0.4,0.1,0.5,0.3c0,0,0.1,0.1,0.1,0.1
					c0,0,0.1,0,0.1,0c0.1,0,0.1,0,0.1-0.1c-0.9-0.8-2-1.1-2.2-1.2c-0.1,0-0.1,0-0.1,0c-0.1,0-0.1,0.1-0.2,0.1c0,0-0.1,0.1-0.3,0.1
					c-0.2,0.1-0.5,0-0.7-0.2c0-0.1-0.1-0.2-0.2-0.3c0-0.2,0-0.4,0.1-0.5c0.1-0.2,0.4-0.2,0.5-0.1c0.1,0,0.3,0.1,0.4,0.2
					c0,0.1,0.1,0.2,0.3,0.2c0,0,0,0,0,0c0.1,0,0.4,0.1,0.8,0.3c0-0.2,0-0.3,0-0.5c0,0,0,0,0,0c0,0,0,0,0,0c-0.2-0.1-0.4-0.3-0.4-0.5
					c0,0,0-0.1,0-0.2c0-0.2,0.3-0.4,0.5-0.4c0,0,0.2,0,0.3,0.1c0.1,0.1,0.2,0.2,0.2,0.4c0,0.2-0.1,0.3-0.2,0.4c0,0-0.1,0.1-0.1,0.1
					c0,0,0,0.1,0,0.1c0,0.1,0,0.2,0.1,0.3c0.3-0.1,0.5-0.4,0.6-0.7c0-0.1,0-0.1,0-0.2c0,0,0,0,0-0.1c-0.1-0.1-0.1-0.3-0.1-0.5
					c0.1-0.2,0.2-0.3,0.4-0.3c0.1,0,0.2,0,0.2,0c0.1,0.1,0.2,0.2,0.2,0.3c0,0.1,0,0.2,0,0.3c0,0.1-0.1,0.2-0.2,0.2
					c-0.2,0.1-0.3,0.1-0.4,0.1c-0.1,0.2-0.2,0.3-0.3,0.5c0,0.1-0.1,0.2-0.2,0.2c-0.1,0.1-0.1,0.1-0.2,0.2c0,0-0.1,0-0.1,0.1
					c0,0,0,0.1,0,0.1c0.3,0.2,0.6,0.4,1,0.6c0,0,0.1-0.1,0.2-0.1c0,0,0.1-0.1,0.1-0.1c0-0.1,0-0.2,0-0.2c0-0.1-0.1-0.4,0-0.6
					c0.1-0.2,0.3-0.3,0.5-0.3c0.2,0,0.4,0.2,0.4,0.4c0,0.1,0,0.2-0.1,0.3c-0.1,0.1-0.2,0.2-0.4,0.3c-0.1,0-0.1,0-0.2,0.1
					c-0.1,0.1-0.2,0.2-0.2,0.4c0.2,0.2,0.5,0.4,0.7,0.7c0.1,0.1,0.2,0.2,0.3,0.4c0,0,0-0.1,0.1-0.1c0,0,0-0.1,0-0.1
					c0-0.1-0.1-0.1-0.1-0.1c-0.1-0.1-0.2-0.3-0.2-0.5c0-0.2,0.2-0.4,0.4-0.4c0.2,0,0.4,0.1,0.5,0.2c0,0.1,0,0.2,0,0.3
					c0,0.1-0.1,0.3-0.2,0.4c-0.1,0.1-0.1,0.1-0.1,0.1C28.1,29,28,29.1,28,29.4c0.2,0.3,0.4,0.7,0.6,1.2c0.2,0.4,0.3,0.8,0.3,1.2
					c0.2,0,0.4-0.2,0.4-0.4c0-0.3,0-0.6,0-0.8c0-0.2,0-0.3,0-0.5c0,0,0,0,0-0.1c0,0,0,0,0-0.1c-0.1-0.1-0.2-0.3-0.2-0.4
					c0-0.2,0-0.5,0.2-0.6c0.1-0.1,0.4-0.1,0.5-0.1c0.3,0,0.5,0.2,0.6,0.4c0.1,0.2,0,0.6-0.2,0.7c-0.2,0.1-0.5,0.1-0.7,0.3
					c0,0.1,0,0.2,0,0.2c0,0.3,0,0.6,0,0.9c0.1,0,0.1,0,0.2,0c0.1-0.2,0.2-0.5,0.4-0.6c0.2-0.1,0.4-0.1,0.5,0S31,30.9,31,31
					c0,0.1,0,0.2,0,0.3c-0.1,0.1-0.2,0.2-0.4,0.3c-0.2,0-0.5,0-0.7-0.1c0,0-0.1-0.1-0.1-0.1c-0.1,0-0.3,0-0.4,0.1
					c-0.1,0-0.2,0.2-0.2,0.3c0,0.1,0.2,0.2,0.3,0.2c0,0,0,0,0,0c0,0,0,0,0.1,0c0.3-0.1,0.6-0.2,0.8,0c0.1,0.1,0.2,0.3,0.1,0.5
					c0,0.1-0.1,0.2-0.2,0.3c-0.2,0.1-0.6,0-0.8-0.1c-0.1-0.1-0.2-0.3-0.1-0.4c0,0,0,0,0-0.1c0,0,0,0,0,0c-0.1-0.1-0.3-0.2-0.5-0.2
					c0,0,0,0,0,0c0.1,0.4,0.1,0.7,0.1,0.9c1.2,0.3,2.2,0.8,2.2,0.8s0.4-5,0.3-6.3c0,0-0.9-1.1-1.4-1.5c-0.6-0.4-1.5-1.1-1.5-1.1
					s-1.5,0.1-2.8-0.6c0,0-0.1,0-0.1,0.1c0,0-0.1,0-0.1,0c0,0,0,0,0,0.1c0,0,0,0,0,0.1c0,0.1,0,0.1-0.1,0.2c0,0-0.1,0.2-0.2,0.3
					c-0.2,0.1-0.5,0-0.6-0.2c0-0.2,0.1-0.3,0.2-0.4c0.1-0.1,0.3-0.1,0.4,0c0,0,0.1,0,0.1,0c0,0,0.1,0.1,0.1,0c0,0,0,0,0.1-0.1
					c0,0,0-0.1,0.1-0.1c-0.3-0.2-0.6-0.4-0.9-0.7c0,0-0.1,0.1-0.1,0.1c0,0-0.1,0-0.1,0.1c0,0,0,0.1-0.1,0.1c0,0,0,0,0,0.1
					c0,0.1,0,0.1-0.1,0.2c-0.1,0.1-0.2,0.2-0.3,0.3c-0.1,0.1-0.2,0.1-0.3,0.1c-0.2,0-0.4-0.2-0.4-0.4c0-0.2,0.1-0.4,0.3-0.5
					c0.1-0.1,0.3-0.1,0.5,0c0,0,0.1,0,0.1,0.1c0,0,0.1,0.1,0.2,0.1c0,0,0,0,0.1-0.1c0-0.1,0.1-0.1,0.2-0.2c-0.5-0.6-0.8-1.1-1-1.5
					c0,0,0,0,0,0c0,0,0,0.1,0,0.1c0,0.1,0,0.2,0,0.3c0,0.1,0,0.1-0.1,0.2c-0.1,0.2-0.2,0.3-0.3,0.5c0.1,0,0.1,0.1,0.1,0.2
					c0,0.1,0,0.2,0,0.2c0,0-0.1,0.3-0.3,0.4c0,0-0.2,0.1-0.4-0.1c-0.1,0-0.1-0.1-0.1-0.2c-0.1-0.1-0.1-0.3,0-0.5
					c0.1-0.1,0.2-0.2,0.4-0.2c0,0,0,0,0.1,0c0,0,0.1,0,0.1-0.1c0.2-0.2,0.3-0.5,0.3-0.8c-0.1,0-0.2,0-0.2,0.1c0,0-0.1,0-0.1,0.1
					c0,0,0,0.1,0,0.2c0,0.1-0.1,0.3-0.2,0.4c-0.1,0.1-0.3,0.1-0.4,0c-0.1,0-0.2-0.1-0.2-0.2c-0.1-0.1-0.1-0.2-0.1-0.3
					c0-0.1,0-0.2,0.1-0.3c0,0,0.1-0.1,0.1-0.1c0.2-0.1,0.4,0,0.6,0.1c0,0,0,0,0,0c0,0,0,0,0,0c0.2-0.1,0.3-0.1,0.4-0.2
					c-0.1-0.2-0.1-0.4-0.1-0.5c0-0.1,0-0.3-0.1-0.4c0-0.1-0.1-0.2-0.1-0.3c-0.1-0.1-0.1-0.3-0.1-0.4c0-0.2,0.1-0.4,0.2-0.5
					c0.2-0.1,0.3-0.1,0.5,0c0.1,0.1,0.2,0.1,0.2,0.2c0.2,0.3,0.1,0.5,0,0.6c0,0-0.1,0.1-0.1,0.2c-0.1,0.1-0.2,0.1-0.2,0.2
					c-0.1,0.1-0.1,0.3,0,0.5c0.1,0.5,0.4,1.2,0.5,1.4c0-0.1,0.1-0.1,0.1-0.2c0,0,0-0.1,0-0.1c0,0-0.1-0.1-0.1-0.1
					c0,0-0.1-0.1-0.1-0.1c-0.1-0.1-0.1-0.3-0.1-0.4c0-0.2,0.2-0.4,0.3-0.4c0.2,0,0.4,0,0.5,0.2c0,0.1,0,0.2,0,0.3
					c0,0.1-0.1,0.3-0.2,0.4c0,0.1-0.1,0.1-0.1,0.1c0,0,0,0-0.1,0c0,0,0,0.1,0,0.1c-0.1,0.2-0.1,0.2-0.1,0.2c0,0,0,0.1,0.2,0.3
					c0.1,0.1,0.2,0.2,0.4,0.3c0.2-0.1,0.3-0.2,0.4-0.3c0.3-0.3,0.3-0.4,0.3-0.5c0-0.2-0.1-0.3-0.3-0.6c-0.1-0.1-0.1-0.2-0.2-0.4
					c0,0,0,0,0,0c0,0,0,0,0,0c-0.1,0-0.2-0.1-0.3-0.2c-0.1-0.2-0.2-0.3-0.1-0.5c0.1-0.1,0.2-0.2,0.3-0.3c0.2-0.1,0.4-0.1,0.6,0.1
					c0.2,0.1,0.2,0.4,0.1,0.6c-0.1,0.2-0.4,0.2-0.4,0.4c0,0.1,0,0.1,0.1,0.2c0.1,0.2,0.2,0.4,0.3,0.6c0.1,0,0.1,0,0.2-0.1
					c0-0.2-0.1-0.4,0-0.6c0.1-0.1,0.2-0.2,0.4-0.2c0.2,0,0.3,0.1,0.4,0.2c0.1,0.1,0.1,0.1,0.1,0.2c0,0.1-0.1,0.2-0.2,0.3
					c-0.1,0.1-0.3,0.2-0.5,0.2c0,0-0.1,0-0.1,0c-0.1,0-0.2,0.1-0.2,0.2c0,0.1-0.1,0.2,0,0.2c0,0.1,0.2,0.1,0.3,0.1c0,0,0,0,0,0
					c0,0,0,0,0,0c0.2-0.2,0.3-0.4,0.6-0.3c0.1,0,0.2,0.2,0.3,0.3c0,0.1,0,0.2,0,0.2c-0.1,0.2-0.4,0.2-0.6,0.2
					c-0.1,0-0.2-0.1-0.3-0.3c0,0,0,0,0,0c0,0,0,0,0,0c-0.4,0-0.6,0.1-0.6,0.1c-0.2,0.1-0.3,0.2-0.3,0.3c0.1,0.1,0.2,0.1,0.3,0.2
					c1.1,0.6,1.8,0.5,2.2,0.4c0,0-0.9-1.4-0.4-2.6c0,0,0.2-0.3,0.2,0c0.1,0.3-0.1,0.9,0,1.2c0.1,0.3,0.3,1,1.1,1.5
					c0.7,0.5,0.9,0.8,2.1,1.3c0,0,0,0,0,0c0.1-0.2,0.2-0.8-0.2-1.6c0,0,0,0-0.1-0.1c-0.1-0.2-0.2-0.3-0.2-0.3c0,0-0.1,0-0.1,0.1
					c0,0-0.1,0.1-0.1,0.1c0,0,0,0,0,0c0,0,0,0,0,0c0,0,0,0.1-0.1,0.1c0,0.1-0.1,0.1-0.2,0.2c-0.1,0-0.1,0.1-0.2,0.1
					c-0.1,0-0.2-0.1-0.3-0.2c0-0.1,0.1-0.3,0.2-0.3c0.1-0.1,0.2-0.1,0.3,0c0,0,0,0,0.1,0c0,0,0.1,0,0.1,0c0,0,0.1,0,0.1-0.1
					c0,0,0.1-0.1,0.1-0.1c-0.2-0.1-0.3-0.2-0.4-0.3c0,0,0,0-0.1,0c-0.2-0.1-0.4-0.1-0.5-0.2c0,0,0,0,0,0c-0.1,0-0.2,0.1-0.2,0.1
					c-0.1,0-0.1,0-0.2-0.1c-0.1,0-0.1-0.1-0.2-0.2c0-0.1,0-0.2,0-0.2c0,0,0.1-0.1,0.1-0.1c0.1-0.1,0.2,0,0.3,0c0,0,0.2,0.1,0.2,0.2
					c0.1,0,0.1,0,0.2,0.1c0,0,0,0,0,0c0-0.1,0-0.2,0-0.2c-0.1-0.2-0.1-0.4-0.1-0.4c-0.1-0.1-0.2-0.1-0.3-0.2c-0.1-0.1-0.1-0.3,0-0.4
					c0.1-0.1,0.2-0.1,0.3-0.1c0,0,0.2,0,0.3,0.1c0.1,0.1,0.1,0.2,0.1,0.3c0,0.2-0.1,0.2-0.2,0.3c0,0.1,0,0.1,0,0.4
					c0,0.1,0,0.3,0,0.4c0,0,0,0,0,0c0.1,0,0.2,0.1,0.3,0.1c0,0,0.1-0.1,0.1-0.2c0-0.1,0.1-0.2,0-0.3c0-0.2-0.1-0.2-0.1-0.3
					c0-0.1,0.1-0.3,0.2-0.3c0.1,0,0.2,0,0.2,0c0,0,0.2,0,0.2,0.2c0,0.1,0,0.2,0,0.3c-0.1,0.1-0.2,0.1-0.3,0.2
					c-0.1,0.1,0,0.1-0.1,0.3c0,0-0.1,0.1-0.1,0.2c0,0,0,0,0,0c0.1,0,0.2,0.1,0.3,0.2c0,0,0.1,0,0.1,0.1c0,0,0,0,0,0c0,0,0,0,0,0
					c0,0,0,0,0.1-0.1c0,0,0,0,0-0.1c0,0,0,0,0,0c0,0,0-0.1,0-0.1c0-0.1,0.1-0.1,0.2-0.2c0.1,0,0.1-0.1,0.2-0.1
					c0.1,0,0.3,0.1,0.3,0.2c0,0.1,0,0.3-0.2,0.3c-0.1,0.1-0.2,0.1-0.3,0c0,0-0.1,0-0.1,0c0,0-0.1,0-0.1,0c0,0,0,0.1-0.1,0.1
					c0,0,0,0-0.1,0.1c0.1,0.1,0.3,0.2,0.4,0.4c0,0,0,0,0,0.1c0,0.1,0.1,0.1,0.1,0.2c0.4,0.6,0.5,1.4,0.5,1.9
					c0.1,0.1,0.2,0.1,0.2,0.2c0,0,0.2-4.8,0.3-5.1c0-0.3,0.1-0.8,0-1c-0.1-0.1-0.3-0.6-0.8-1.1c0,0.1,0,0.1-0.1,0.1
					c-0.1,0.3,0,0.6,0.2,0.9c0,0,0,0,0,0c0,0,0,0,0,0c0.1,0,0.3,0,0.3,0.1c0.1,0.1,0.2,0.4,0.1,0.6c0,0.1-0.1,0.1-0.2,0.1
					c-0.1,0-0.3,0-0.4-0.1c-0.2-0.2-0.1-0.4,0-0.7c0,0,0,0,0,0c0,0,0,0,0,0c0-0.1-0.1-0.2-0.2-0.2c-0.1,0-0.2,0.1-0.2,0.1
					c-0.1,0.1-0.1,0.2-0.1,0.3c0,0,0,0.1,0.1,0.1c0.1,0.2,0.1,0.4,0.1,0.5c0,0.1-0.1,0.3-0.2,0.3c-0.1,0-0.2,0-0.2,0
					c-0.1,0-0.3-0.1-0.4-0.3c-0.1-0.1-0.1-0.3,0-0.4c0.1-0.2,0.3-0.2,0.5-0.3c0-0.1,0-0.1,0-0.2c-0.2,0-0.5,0-0.7,0
					c-0.1,0-0.1,0-0.2,0c-0.2,0.1-0.1,0.4-0.2,0.5c-0.1,0.2-0.4,0.2-0.6,0.2c-0.2-0.1-0.3-0.3-0.3-0.5c0-0.1,0-0.3,0.1-0.4
					c0.1-0.1,0.3-0.2,0.5-0.2c0.1,0,0.3,0.1,0.3,0.1c0,0,0,0,0,0c0,0,0,0,0,0c0.1,0,0.3,0,0.4,0c0.2,0,0.4,0,0.7,0
					c0.2,0,0.3-0.2,0.3-0.4c0-0.1,0-0.2,0-0.4c0-0.1,0-0.2,0-0.3c-0.1-0.1-0.3-0.2-0.4-0.2c-0.2-0.1-0.4-0.2-0.5-0.2
					c-0.1,0.1-0.2,0.2-0.2,0.3c0,0-0.3,0.2-0.3,0.2c0,0,0.1,0.4,0,0.5c-0.1,0.1-0.2,0.1-0.3,0.1c-0.1,0-0.2-0.1-0.3-0.1
					c0,0-0.1-0.1-0.1-0.1c0,0,0-0.1,0-0.1c0-0.1,0.1-0.3,0.2-0.4c0.1-0.1,0.3-0.1,0.4,0c0,0,0.3-0.2,0.4-0.3c0,0,0,0,0,0
					c0,0,0.1-0.1,0.1-0.1c-0.6-0.2-1.1-0.2-1.4-0.1c-0.1,0.1-0.2,0.2-0.3,0.3c-0.1,0-0.2,0-0.3,0c-0.1,0-0.3-0.1-0.4-0.1
					c-0.1-0.1-0.2-0.2-0.1-0.4c0-0.1,0-0.1,0.1-0.2c0.1-0.1,0.3-0.2,0.5-0.2c0.1,0,0.4,0.2,0.5,0.3c0.1,0,0.2,0,0.4,0
					c0-0.1-0.1-0.2-0.1-0.3c0,0,0-0.3,0-0.3c0,0,0,0,0,0c-0.1,0-0.3-0.1-0.3-0.3c0-0.1,0-0.2,0.1-0.3c0.1-0.1,0.2-0.1,0.3-0.1
					c0,0,0.1,0,0.1,0c0,0,0.1,0,0.1,0.1c0.1,0.1,0.1,0.2,0.1,0.4c0,0.1-0.1,0.2-0.2,0.3c0,0,0,0.3,0,0.4c0,0,0,0,0,0
					c0,0.1,0,0.2,0.1,0.2c0.2,0,0.5,0,0.9,0.1c0-0.1,0-0.3-0.1-0.4c0,0,0,0,0,0c0,0,0,0,0,0c-0.2-0.1-0.3-0.2-0.4-0.4
					c0,0,0-0.1,0-0.2c0-0.1,0.1-0.2,0.1-0.2c0.1-0.1,0.2-0.1,0.2-0.1c0,0,0.1,0,0.1,0c0.1,0,0.1,0,0.1,0.1c0.1,0.1,0.2,0.2,0.2,0.3
					c0,0.1-0.1,0.3-0.2,0.3c0,0-0.1,0.1-0.1,0.1c0,0,0,0.1,0,0.1c0,0.1,0,0.2,0.1,0.2c0.2-0.1,0.4-0.4,0.5-0.6c0,0,0-0.1,0-0.1
					c0,0,0,0,0,0c-0.1-0.1-0.1-0.3-0.1-0.4c0.1-0.1,0.2-0.2,0.3-0.3c0.1,0,0.1,0,0.2,0c0.1,0,0.2,0.1,0.2,0.2c0,0.1,0.1,0.2,0,0.3
					c0,0.1-0.1,0.1-0.1,0.2c0,0-0.1,0.1-0.2,0.1c-0.1,0-0.1,0-0.2,0c-0.1,0.2-0.1,0.3-0.2,0.5c0,0.1-0.1,0.1-0.1,0.2
					c-0.1,0.1-0.1,0.1-0.2,0.1c0,0-0.1,0-0.1,0.1c0,0,0,0.1,0,0.1c0.2,0.1,0.3,0.1,0.5,0.2c0.3,0.1,0.5,0.3,0.7,0.4
					c0.1-0.1,0.3-0.3,0.1-1.1c0,0,0,0,0,0c0,0,0,0,0-0.1c0-0.2,0-0.3,0.1-0.5c0.1-0.1,0.2-0.1,0.2-0.2c0,0,0-0.1,0-0.1
					c0-0.1,0.1,0,0.2-0.1c0.1,0,0.2-0.1,0.3-0.2c0.1,0,0.2,0,0.3,0c0.1,0,0.2,0,0.2,0.1c0,0,0,0.1,0,0.1c0,0.1,0.1,0.1,0.1,0.2
					c0,0.1,0,0.1,0,0.2c0,0.1,0,0.1,0,0.2c0,0-0.1,0.1-0.1,0.1c0,0.1,0,0.1,0,0.2c0,0.1-0.1,0.1-0.1,0.1c0,0.1-0.1,0.2-0.1,0.2
					c-0.1,0-0.1,0.1-0.2,0.1c0,0,0,0-0.1,0c0,0-0.1,0-0.1,0.1c0,0-0.1,0-0.1,0c-0.2,0.1-0.4,0.3-0.6,0.7c0.5,0.3,0.9,0.6,1.2,0.6
					c0.3,0,0.5-0.1,0.8-0.4c0.1-0.2,0.3-0.3,0.4-0.5c0,0-0.1-0.1-0.1-0.1c-0.1,0.1-0.1,0.1-0.2,0.1c-0.1,0-0.2,0-0.3-0.1
					c-0.1,0-0.1-0.1-0.2-0.1c-0.1-0.1-0.1-0.3,0-0.4c0.1-0.1,0.2-0.2,0.4-0.2c0.1,0,0.2,0,0.3,0.1c0.1,0.1,0.1,0.3,0.1,0.4
					c0,0.1,0.1,0.1,0.1,0.2c0.4-0.4,0.8-0.7,1.3-0.9c0,0,0-0.1,0-0.1c0,0,0,0-0.1,0c-0.1,0-0.1-0.1-0.2-0.1
					c-0.1-0.1-0.2-0.2-0.2-0.2c-0.2-0.3-0.2-0.4-0.3-0.4c-0.1-0.1-0.2,0-0.3-0.1c0,0-0.1-0.1-0.1-0.2c0-0.1,0-0.2,0-0.3
					c0-0.1,0.1-0.2,0.2-0.2c0.1,0,0.2-0.1,0.2,0c0.1,0,0.3,0.1,0.4,0.2c0.1,0.1,0.1,0.3,0,0.4c0,0,0,0,0,0c0,0,0,0.1,0,0.1
					c0.1,0.2,0.3,0.5,0.5,0.6c0-0.1,0-0.1,0-0.2c0,0,0-0.1,0-0.1c0,0-0.1-0.1-0.1-0.1c-0.1-0.1-0.2-0.2-0.2-0.3
					c0-0.1,0.1-0.2,0.1-0.3c0,0,0.1-0.1,0.1-0.1c0,0,0.1,0,0.1,0c0.1,0,0.1,0,0.2,0.1c0.1,0,0.1,0.1,0.2,0.2c0,0,0,0.1,0,0.2
					c0,0.2-0.2,0.4-0.3,0.4c0,0,0,0,0,0c0,0,0,0,0,0c0,0.1,0,0.3,0,0.4c0.3-0.1,0.5-0.2,0.9-0.2c0-0.1,0.1-0.2,0.1-0.3c0,0,0,0,0,0
					c0-0.1,0-0.3-0.1-0.4c-0.1-0.1-0.2-0.1-0.2-0.2C36,16.2,36,16,36.1,15.9c0.1-0.1,0.2-0.1,0.2-0.1c0,0,0.2,0,0.3,0.1
					c0.1,0.1,0.1,0.2,0.1,0.3c-0.1,0.1-0.2,0.1-0.2,0.2c0,0.1,0,0.2,0,0.4c0,0.1,0,0.2,0,0.3c0.1,0,0.3,0,0.4,0
					c0.2-0.1,0.2-0.3,0.4-0.4c0.2-0.1,0.4-0.1,0.5,0.1c0.1,0.2,0.1,0.4,0,0.5c-0.1,0.2-0.3,0.2-0.3,0.2c-0.3,0-0.3-0.1-0.7-0.2
					c-0.2-0.1-0.4,0-0.6,0c-0.3,0.1-0.6,0.2-0.7,0.3c0,0,0.1,0.1,0.1,0.1c0,0,0,0,0,0c0,0,0.4,0.2,0.4,0.2c0.1-0.1,0.3-0.1,0.4-0.1
					c0.1,0.1,0.3,0.2,0.3,0.3c0,0,0,0.1,0,0.1c0,0,0,0.1-0.1,0.1c-0.1,0.1-0.2,0.2-0.3,0.2c-0.1,0-0.3,0-0.3-0.1
					c-0.1-0.1-0.1-0.4,0-0.5c0,0-0.4-0.2-0.4-0.2c0,0-0.2-0.1-0.2-0.2c-0.1,0-0.1,0.1-0.2,0.1c-0.2,0.1-0.3,0.2-0.4,0.2
					c-0.1,0.1-0.2,0.2-0.4,0.3c0,0,0.1,0.1,0.1,0.2c0.1,0.2,0,0.3,0.1,0.5c0.1,0.2,0.2,0.3,0.4,0.3c0.2,0,0.4-0.1,0.7-0.1
					c0.1,0,0.3,0,0.4,0c0,0,0,0,0,0c0,0,0,0,0,0c0.1-0.1,0.2-0.2,0.3-0.2c0.2,0,0.4,0,0.5,0.1c0.1,0.1,0.2,0.3,0.1,0.4
					c0,0.2-0.1,0.4-0.3,0.6c-0.2,0.1-0.5,0.1-0.6-0.1c-0.1-0.2-0.1-0.4-0.3-0.5c-0.1,0-0.1,0-0.2,0c-0.2,0-0.5,0.1-0.7,0.1
					c0,0.1,0,0.1,0,0.2c0.2,0,0.4,0.1,0.5,0.2c0.1,0.1,0.1,0.3,0.1,0.4c-0.1,0.1-0.2,0.3-0.3,0.3c-0.1,0-0.2,0-0.2,0
					c-0.1,0-0.2-0.2-0.3-0.3c-0.1-0.2-0.1-0.4,0-0.5c0,0,0-0.1,0-0.1c0-0.1-0.1-0.2-0.1-0.3c0,0-0.2-0.1-0.2-0.1
					c-0.1,0-0.1,0.2-0.2,0.2c0,0,0,0,0,0c0,0,0,0,0,0c0.1,0.2,0.2,0.4,0.1,0.6c-0.1,0.1-0.2,0.2-0.4,0.2c-0.1,0-0.2,0-0.2-0.1
					c-0.1-0.2-0.1-0.5,0-0.6c0.1-0.1,0.2-0.2,0.3-0.2c0,0,0,0,0,0c0,0,0,0,0,0c0.3-0.6,0.1-0.8,0.1-0.8c0,0,0-0.1-0.1-0.2
					c-0.4,0.4-0.7,1-0.8,1.4c0,0,0,2.6,0.1,3.3c0,0.6,0.2,3.3,0.2,3.3s0.1-0.1,0.3-0.2c0-0.5,0-1.4,0.5-2.1c0-0.1,0.1-0.1,0.1-0.2
					c0,0,0,0,0-0.1c0.1-0.1,0.3-0.3,0.4-0.4c0,0,0,0,0-0.1c0,0,0-0.1-0.1-0.1c0,0,0,0-0.1,0c0,0-0.1,0-0.1,0c-0.1,0-0.2,0-0.3,0
					c-0.1-0.1-0.2-0.2-0.2-0.3c0-0.1,0.1-0.2,0.3-0.2c0.1,0,0.1,0,0.2,0.1c0.1,0.1,0.1,0.1,0.2,0.2c0,0,0,0.1,0,0.1c0,0,0,0,0,0
					c0,0,0,0,0,0.1c0,0,0,0,0.1,0c0,0,0,0,0.1,0c0,0,0,0,0,0l0.1-0.1c0.1-0.1,0.2-0.1,0.3-0.2c0,0,0.1,0,0.1-0.1c0,0,0,0,0,0
					c0-0.1-0.1-0.1-0.1-0.2c0,0-0.1-0.3-0.1-0.3c0,0-0.1,0-0.1,0c-0.1,0-0.2,0-0.3-0.2c0-0.1,0-0.2,0-0.3c0,0,0.1-0.1,0.2-0.2
					c0.1,0,0.1,0,0.1,0c0,0,0.1,0,0.1,0c0.1,0.1,0.2,0.2,0.2,0.3c0,0.1-0.1,0.2-0.2,0.3c0,0,0.1,0.3,0.1,0.4c0,0,0,0,0,0
					c0,0,0,0.1,0,0.1c0.1,0,0.2-0.1,0.2-0.1c0,0,0.1,0,0.1,0c0.1,0,0.2-0.1,0.3-0.1c0.1-0.1,0.2-0.2,0.2-0.2c0.1-0.1,0.2-0.1,0.3,0
					c0,0,0.1,0,0.1,0.1c0,0.1,0,0.2,0,0.2c0,0.1-0.1,0.1-0.2,0.2c-0.1,0-0.1,0.1-0.2,0.1c-0.1,0-0.2-0.1-0.2-0.1c0,0,0,0,0,0
					c-0.1,0-0.3,0.1-0.5,0.2c0,0,0.1,0.1,0.1,0.1c0,0,0,0,0,0c0,0,0.4,0.1,0.4,0.1c0.1-0.1,0.2-0.1,0.3-0.1c0.1,0,0.2,0.1,0.3,0.2
					c0,0,0,0.1,0,0.1c0,0,0,0.1,0,0.1c-0.1,0.1-0.1,0.2-0.2,0.2c-0.1,0-0.2,0-0.3,0c-0.1-0.1-0.2-0.3-0.1-0.4c0,0-0.3-0.1-0.3-0.1
					c-0.1,0-0.2-0.1-0.3-0.2c-0.2,0.1-0.3,0.2-0.5,0.3c0,0,0.1,0.1,0.2,0.1c0,0,0.1,0,0.1,0c0,0,0.1,0,0.1,0c0.1,0,0.2,0,0.3,0
					c0.1,0.1,0.2,0.2,0.2,0.3c0,0.1-0.1,0.2-0.3,0.2c-0.1,0-0.1,0-0.2-0.1c-0.1-0.1-0.1-0.1-0.2-0.2c0,0,0,0-0.1-0.1
					c0,0,0-0.1-0.1-0.1c0,0,0-0.1-0.1-0.1c0,0-0.1,0-0.1-0.1c-0.1,0.1-0.2,0.2-0.2,0.3c0,0,0,0.1-0.1,0.1c-0.5,0.9-0.2,1.6-0.1,1.7
					c0.8-0.5,1.7-1.1,2-1.5c0.5-0.6,1.2-1.2,1.1-2.4c-0.1,0-0.2,0-0.4,0c-0.2,0-0.3-0.1-0.4-0.3c-0.1-0.1-0.1-0.2-0.2-0.3
					c0,0-0.1,0-0.1-0.1c0-0.1,0-0.2,0-0.2c0-0.1-0.1-0.2-0.1-0.3c0-0.1,0-0.2,0.1-0.3c0-0.1,0-0.2,0.1-0.2c0,0,0.1,0,0.1,0
					c0.1,0,0.2-0.1,0.2-0.1c0.1,0,0.1,0.1,0.2,0.1c0.1,0,0.2,0,0.2,0c0,0,0.1,0.1,0.1,0.1c0,0,0.1,0,0.2,0.1c0.1,0,0.1,0.1,0.1,0.2
					c0.1,0.1,0.1,0.1,0.2,0.2c0,0.1,0,0.2,0,0.3c0,0,0,0.1,0,0.1c0,0.1,0,0.1,0,0.2c0,0.1-0.1,0.2-0.1,0.2c0.1,0.5,0.1,1.4-0.4,2.3
					c0,0,1.4,0.1,2.7-0.8c-0.1-0.1-0.3-0.2-0.4-0.3c0,0-0.3-0.1-0.7-0.1c0,0,0,0,0,0c0,0,0,0,0,0c0,0.1-0.1,0.2-0.3,0.3
					c-0.2,0.1-0.5,0-0.6-0.2c0-0.1,0-0.2,0-0.2c0-0.1,0.1-0.3,0.3-0.3c0.2-0.1,0.4,0.1,0.6,0.3c0,0,0,0,0,0c0,0,0,0,0,0
					c0.1,0,0.2,0,0.3-0.1c0.1-0.1,0-0.2,0-0.2c0-0.1-0.1-0.2-0.2-0.2c0,0-0.1,0-0.1,0c-0.2,0-0.4-0.1-0.5-0.2
					c-0.1-0.1-0.2-0.2-0.2-0.3c0-0.1,0-0.2,0.1-0.2c0.1-0.1,0.2-0.2,0.4-0.2c0.2,0,0.3,0.1,0.4,0.2c0.1,0.2,0.1,0.4,0,0.6
					c0.1,0,0.1,0,0.2,0.1c0.1-0.2,0.2-0.4,0.3-0.6c0-0.1,0.1-0.1,0.1-0.2c0-0.2-0.3-0.3-0.4-0.4c-0.1-0.2,0-0.4,0.1-0.6
					c0.2-0.1,0.4-0.1,0.6-0.1c0.1,0,0.3,0.1,0.3,0.3c0.1,0.2,0,0.3-0.1,0.5c-0.1,0.1-0.2,0.2-0.3,0.2c0,0,0,0,0,0c0,0,0,0,0,0
					c-0.1,0.1-0.1,0.2-0.2,0.4c-0.2,0.3-0.3,0.4-0.3,0.6c0,0.2,0.2,0.4,0.2,0.5c0.2,0.2,0.5,0.3,0.6,0.3c0,0,0,0,0.1,0
					c0.1-0.1,0.3-0.2,0.4-0.4c0,0,0-0.1,0-0.1c0,0,0-0.1-0.1-0.2c0,0,0-0.1,0-0.1c0,0,0,0-0.1,0c0,0-0.1-0.1-0.1-0.1
					c-0.1-0.1-0.1-0.2-0.1-0.4c0-0.1,0-0.2,0-0.3c0.1-0.2,0.3-0.3,0.5-0.2c0.2,0,0.3,0.2,0.3,0.4c0,0.2,0,0.3-0.1,0.4
					c0,0-0.1,0.1-0.1,0.1c0,0-0.1,0.1-0.1,0.1c0,0,0,0,0,0.1c0,0.1,0.1,0.1,0.1,0.2c0.1-0.1,0.4-0.7,0.6-1.2c0.1-0.2,0.1-0.4,0-0.5
					c0-0.1-0.1-0.2-0.1-0.3c-0.1-0.2-0.1-0.1-0.2-0.2c-0.1-0.2-0.1-0.4,0-0.6c0.1-0.1,0.2-0.2,0.2-0.2c0.1-0.1,0.3-0.1,0.5,0
					c0.2,0.1,0.2,0.3,0.2,0.5c0,0.1-0.1,0.3-0.1,0.4c0,0.1-0.1,0.2-0.1,0.3c-0.1,0.1-0.1,0.3-0.1,0.4c0,0,0,0,0,0
					c0,0.1,0,0.2-0.1,0.3c0,0.1,0,0.1,0,0.2c0.1,0.1,0.3,0.2,0.4,0.2c0,0,0,0,0,0c0,0,0,0,0,0c0.2-0.1,0.4-0.2,0.6-0.1
					c0.1,0,0.1,0,0.1,0.1c0.1,0.1,0.1,0.2,0.1,0.3c0,0.1,0,0.2-0.1,0.3c0,0,0,0.1,0,0.1c0,0-0.1,0.1-0.2,0.1c-0.1,0-0.3,0-0.4,0
					c-0.1-0.1-0.2-0.2-0.2-0.4c0-0.1,0-0.1,0-0.2c0,0,0,0-0.1-0.1c-0.1,0-0.2-0.1-0.2-0.1c-0.1,0.3,0.1,0.6,0.2,0.8
					c0,0,0.1,0.1,0.1,0.1c0,0,0,0,0.1,0c0.2,0,0.3,0.1,0.4,0.2c0.1,0.1,0.1,0.3,0,0.5c0,0.1-0.1,0.1-0.1,0.2c-0.1,0.1-0.2,0.1-0.4,0
					c-0.1,0-0.2-0.1-0.2-0.2c0-0.1-0.1-0.1-0.1-0.2c0-0.1,0-0.1,0-0.2c0-0.1,0-0.1,0.1-0.2c-0.1-0.2-0.2-0.3-0.3-0.5
					c0-0.1,0-0.2-0.1-0.2c0-0.1,0-0.2,0-0.3c0,0,0-0.1,0-0.1c0,0,0,0-0.1,0c-0.1,0.4-0.4,0.9-0.8,1.4C41.1,22.9,41,23,41,23.1
					c0,0,0,0.1,0.1,0.1c0.1,0.1,0.2,0,0.2,0c0.1,0,0.1,0,0.1,0c0.2,0,0.3,0,0.5,0.1c0.2,0.1,0.3,0.3,0.2,0.5c0,0.2-0.2,0.4-0.4,0.3
					c-0.1,0-0.2-0.1-0.3-0.1c-0.1-0.1-0.1-0.2-0.3-0.5c0,0-0.1-0.1-0.2-0.2c0,0-0.1,0-0.1-0.1c-0.3,0.3-0.6,0.5-0.9,0.7c0,0,0,0,0,0
					c0,0,0,0,0.1,0c0,0,0.1,0,0.1,0c0.1,0,0.1,0,0.1,0c0.1,0,0.3,0,0.4,0c0.1,0.1,0.2,0.3,0.2,0.4c0,0.2-0.2,0.3-0.3,0.3
					c-0.2,0-0.4-0.2-0.5-0.4c0-0.1,0-0.2-0.1-0.3c0,0,0,0-0.1,0c-1,0.6-2.1,1-2.8,0.8c0,0-1.6,1.1-2,1.6c-0.4,0.5-1.2,1.6-1.2,1.6
					s0.2,5.5,0.3,5.6c0.1,0.1,1.3-0.7,2.5-0.8c0,0,0.1,0,0.1,0c0-0.3,0-0.7,0.1-1.1c0,0,0,0,0,0c-0.2,0-0.3,0.1-0.5,0.2c0,0,0,0,0,0
					c0,0,0,0,0,0.1c0,0.2,0,0.3-0.1,0.4c-0.2,0.2-0.5,0.3-0.8,0.1c-0.1-0.1-0.1-0.2-0.2-0.3c0-0.2,0-0.4,0.1-0.5
					c0.2-0.2,0.5-0.1,0.8,0c0,0,0,0,0.1,0c0,0,0,0,0,0c0.1-0.1,0.2-0.2,0.3-0.2c0-0.1-0.1-0.2-0.2-0.3c-0.1-0.1-0.2-0.2-0.4-0.1
					c-0.1,0-0.1,0-0.1,0.1c-0.2,0.1-0.4,0.1-0.7,0.1c-0.2,0-0.3-0.1-0.4-0.3c0-0.1,0-0.2,0-0.3c0-0.2,0.2-0.4,0.3-0.4
					c0.2-0.1,0.4-0.1,0.5,0c0.2,0.1,0.3,0.4,0.4,0.6c0.1,0,0.1,0,0.2,0c0-0.4,0-0.7,0-0.9c0-0.1,0-0.2,0-0.2
					c-0.1-0.2-0.4-0.2-0.7-0.3c-0.2-0.1-0.3-0.5-0.2-0.7c0.1-0.2,0.4-0.4,0.6-0.4c0.2,0,0.4,0,0.5,0.1c0.2,0.1,0.2,0.4,0.2,0.6
					c0,0.2-0.1,0.3-0.2,0.4c0,0,0,0,0,0.1c0,0,0,0,0,0.1c0,0.2,0,0.3,0,0.5c0,0.3,0,0.6,0,0.8c0,0.2,0.2,0.4,0.4,0.4
					c0.2-0.9,0.6-1.9,1.4-2.9c0,0,0,0,0,0c-0.1-0.1-0.1-0.2-0.2-0.3c-0.1,0-0.1,0-0.2-0.1c-0.1,0-0.3-0.1-0.4-0.2
					c-0.1-0.1-0.1-0.2-0.1-0.3c0-0.2,0.1-0.4,0.3-0.4c0.2,0,0.4,0.1,0.5,0.2c0.1,0.2,0.1,0.4,0,0.6c0,0.1-0.1,0.1,0,0.2
					c0,0,0,0.1,0.1,0.1c0,0,0.1,0,0.1,0.1c0.3-0.4,0.6-0.7,1-0.9c0-0.1,0.1-0.2,0-0.2c0,0,0,0-0.1-0.1c-0.1,0-0.2-0.1-0.3-0.1
					c0,0-0.1,0-0.1-0.2c-0.2-0.3-0.2-0.5-0.3-0.6c-0.1-0.1-0.2,0-0.4-0.1c0,0-0.1-0.1-0.2-0.2c0-0.1,0-0.2,0-0.3
					c0-0.1,0.1-0.2,0.2-0.3c0.1,0,0.2,0,0.2,0c0,0,0.3,0,0.4,0.3c0.1,0.2,0,0.4,0,0.5c0,0,0,0,0,0.1c0,0,0,0.1,0,0.2
					c0.1,0.3,0.3,0.6,0.6,0.7c0-0.1,0.1-0.2,0.1-0.3c0,0,0-0.1,0-0.1c0-0.1-0.1-0.1-0.1-0.1c-0.1-0.1-0.2-0.2-0.2-0.4
					c0-0.1,0.1-0.3,0.2-0.4c0,0,0.1-0.1,0.2-0.1c0,0,0.1,0,0.2,0c0.1,0,0.1,0.1,0.2,0.1c0.1,0.1,0.2,0.1,0.2,0.2c0,0.1,0,0.1,0,0.2
					c0,0.2-0.2,0.4-0.4,0.5c0,0,0,0,0,0c0,0,0,0,0,0c0,0.2-0.1,0.4,0,0.5c0.4-0.3,0.8-0.5,1.2-0.6c0-0.1,0.1-0.2,0.1-0.3
					c0,0,0-0.1,0-0.1c0-0.1-0.1-0.1-0.1-0.2c-0.2-0.2-0.3-0.4-0.3-0.6c0-0.2,0.2-0.5,0.4-0.5c0.2-0.1,0.5,0,0.6,0.3
					c0,0.1,0,0.2,0,0.4c0,0.2-0.1,0.3-0.3,0.5c-0.1,0.1-0.1,0.1-0.2,0.2C41,26.3,41,26.5,41,26.6c0,0,0.1,0,0.2-0.1
					c0.1,0,0.1,0,0.2-0.1c0.1,0,0.1,0,0.2-0.1c0,0,0.1,0,0.1-0.1c0.1-0.1,0.2-0.2,0.2-0.2c0.1-0.1,0.2-0.2,0.4-0.2
					c0.2-0.1,0.4,0,0.5,0.1c0.1,0.1,0.2,0.3,0.1,0.5c0,0.1-0.1,0.2-0.2,0.3C42.6,27,42.3,27,42.2,27c-0.1,0-0.3,0-0.4-0.1
					c0,0-0.1-0.1-0.1-0.1c-0.1,0-0.2,0-0.2,0c-0.4,0.1-0.3,0-0.7,0.2c-0.1,0-0.2,0.1-0.3,0.1c-0.2,0.1-0.6,0.3-1,0.6
					c0.1,0.1,0.1,0.1,0.1,0.1c0,0,0.1,0,0.1,0c0.1,0,0.1,0,0.2-0.1c0.2-0.1,0.4-0.2,0.6-0.1c0.2,0.1,0.3,0.2,0.4,0.5
					c0,0.2-0.1,0.4-0.3,0.4c-0.1,0-0.2,0-0.3-0.1c-0.1-0.1-0.2-0.2-0.3-0.3c0-0.1-0.1-0.1-0.1-0.2c-0.1-0.1-0.3-0.1-0.4-0.2
					c-0.2,0.2-0.4,0.4-0.6,0.6c0.1,0,0.2,0.1,0.3,0.3c0.2,0.2,0.2,0.3,0.4,0.4c0.2,0.1,0.4,0.1,0.5,0.1c0.3,0,0.3-0.2,0.7-0.4
					c0.2-0.1,0.3-0.1,0.5-0.2c0,0,0,0,0,0c0,0,0,0,0-0.1c0-0.2,0.2-0.3,0.3-0.4c0.2-0.1,0.4-0.2,0.6-0.1c0.2,0.1,0.3,0.2,0.4,0.4
					c0.1,0.3,0.1,0.5-0.1,0.8c-0.2,0.2-0.5,0.3-0.7,0.2c-0.2-0.1-0.3-0.5-0.5-0.5c-0.1,0-0.2,0-0.2,0.1c-0.3,0.1-0.5,0.3-0.8,0.4
					c0,0.1,0,0.1,0.1,0.2c0.2,0,0.5-0.1,0.7,0c0.2,0.1,0.3,0.3,0.3,0.5s-0.1,0.4-0.2,0.5c-0.1,0.1-0.2,0.1-0.3,0.1
					c-0.2,0-0.3-0.1-0.4-0.2c-0.1-0.2-0.2-0.4-0.2-0.6c0-0.1,0-0.1,0-0.2c0-0.1-0.2-0.2-0.3-0.3c-0.1,0-0.2-0.1-0.3,0
					c-0.1,0.1-0.1,0.3-0.1,0.4c0,0,0,0,0,0c0,0,0,0,0,0c0.2,0.2,0.4,0.4,0.4,0.7c-0.1,0.2-0.2,0.3-0.4,0.3c-0.1,0-0.2,0-0.3,0
					c-0.2-0.1-0.3-0.5-0.2-0.7c0.1-0.1,0.2-0.3,0.3-0.3c0,0,0,0,0.1,0c0,0,0,0,0-0.1c0-0.2,0.1-0.4,0-0.5c0-0.1-0.1-0.3-0.3-0.5
					c-0.1-0.1-0.3-0.1-0.3-0.2c0,0.1-0.1,0.1-0.1,0.2c-0.9,1.4-0.6,2.9-0.4,3.7c1-0.1,2.2-0.4,2.9-0.9c1.1-0.7,1.8-1.2,2.3-3
					c0.4-1.8,0.3,0.5,0.3,0.5s1.1-0.7,2.3-0.5c0,0,0-0.1,0.1-0.1c0,0,0,0,0,0c0,0,0-0.1,0-0.1c0,0,0-0.1,0-0.1c0,0,0,0,0-0.1
					c0-0.1,0-0.1-0.1-0.2c0-0.1,0-0.3,0-0.4c0-0.1,0.1-0.2,0.1-0.2c0.1-0.1,0.4-0.1,0.5,0c0.1,0.1,0.2,0.3,0.1,0.5
					c0,0.1-0.2,0.2-0.3,0.3c0,0-0.1,0-0.1,0.1c0,0-0.1,0.1-0.1,0.1c-0.1,0.1,0,0.3,0,0.3c0,0,0,0,0,0c0.7,0.2,1.4,0.4,1.8,0.6
					c0,0,0-0.1,0-0.1c0-0.1-0.2-0.2-0.3-0.4c0,0,0,0,0-0.1c0-0.2-0.1-0.4-0.1-0.6c-0.1,0-0.1,0-0.2-0.1c-0.1,0-0.1-0.1-0.1-0.2
					c0-0.1-0.1-0.1-0.1-0.2c0-0.1,0-0.2,0.1-0.3c0.1-0.1,0.2-0.2,0.3-0.2c0.1,0,0.2,0,0.2,0c0.2,0.1,0.3,0.2,0.3,0.4
					c0,0.2-0.1,0.4-0.2,0.4c0,0,0,0-0.1,0c0,0,0,0.1,0,0.2c0,0.3,0.1,0.6,0.4,0.8c0.1-0.1,0.1-0.1,0.1-0.2c0,0,0-0.1,0-0.1
					c0-0.1,0-0.1-0.1-0.2c-0.1-0.1-0.1-0.3-0.1-0.4c0-0.1,0.2-0.2,0.3-0.3c0.1,0,0.1,0,0.2,0c0,0,0.1,0,0.1,0
					c0.1,0.1,0.2,0.1,0.3,0.2c0.1,0.1,0.1,0.2,0.1,0.3c0,0.1,0,0.1-0.1,0.2c-0.1,0.2-0.3,0.3-0.5,0.3c0,0,0,0,0,0c0,0,0,0,0,0
					C48.1,29,48,29.2,48,29.4c0.1,0.1,0.2,0.2,0.3,0.2c0.1,0,0.2,0,0.2,0.1c0.1,0,0.2,0.1,0.3,0.1c0.1,0.1,0.2,0.3,0.2,0.4
					c0,0.1-0.1,0.3-0.3,0.3c-0.3,0.1-0.5,0-0.7-0.3C48,30.1,48,29.9,48,29.9c0,0,0-0.1,0-0.1c0-0.1-0.2-0.1-0.2-0.2
					c-0.2-0.1-0.6-0.3-1.1-0.6c0,0,0,0.1,0,0.2c0,0,0,0.1,0.1,0.1c0.1,0.1,0.2,0,0.3,0c0.2,0,0.3,0.2,0.3,0.2c0.1,0.1,0.2,0.4,0,0.6
					c-0.1,0.2-0.4,0.2-0.5,0.1c-0.1-0.1-0.2-0.1-0.2-0.2c-0.1-0.1-0.1-0.3-0.1-0.4c0-0.1,0-0.1,0-0.2c0,0,0,0,0-0.1
					c0-0.1,0-0.1-0.1-0.2c0,0,0,0,0-0.1L46.4,29c-0.1,0-0.1,0-0.2,0c-0.2,0-0.3,0-0.4,0c0,0.1-0.1,0.2-0.1,0.4
					c-0.1,0.2-0.2,0.2-0.2,0.3c0,0.2,0,0.4,0.2,0.5c0.2,0.1,0.5,0.2,0.7,0.3c0.1,0.1,0.3,0.1,0.4,0.2c0,0,0,0,0,0c0,0,0,0,0.1,0
					c0.1-0.1,0.3,0,0.4,0c0.2,0.1,0.4,0.2,0.4,0.4c0,0.2,0,0.3-0.1,0.5c-0.1,0.2-0.3,0.4-0.6,0.4c-0.2,0-0.5-0.2-0.5-0.4
					c0-0.2,0.1-0.5,0-0.6c0-0.1-0.1-0.1-0.2-0.1c-0.2-0.1-0.5-0.2-0.7-0.3c-0.1,0.1,0,0.1-0.1,0.2c0.2,0.1,0.3,0.3,0.4,0.5
					c0,0.2-0.1,0.3-0.2,0.4c-0.1,0.1-0.3,0.1-0.5,0.1c-0.1,0-0.2,0-0.2-0.1c-0.1-0.1-0.1-0.3-0.1-0.4c0-0.2,0.1-0.4,0.3-0.5
					c0,0,0.1-0.1,0.1-0.1c0.1-0.1,0-0.2,0-0.3c0-0.1-0.1-0.2-0.2-0.2c-0.1,0-0.2,0.1-0.3,0.1c0,0,0,0,0,0c0,0,0,0,0,0
					c0,0.2,0,0.5-0.3,0.7c-0.1,0.1-0.3,0-0.5-0.1c-0.1-0.1-0.1-0.1-0.2-0.2c0-0.2,0.2-0.5,0.4-0.6c0.1,0,0.3,0,0.4,0c0,0,0,0,0,0
					c0,0,0,0,0.1,0c0.5-0.4,0.6-0.7,0.6-0.7c0-0.1,0-0.2,0-0.3c-0.3,0-0.6,0.1-1,0.3c-0.6,0.3-1,0.7-1.4,1.2
					c-0.3,0.4-0.7,0.9-1.1,1.6c0.2-0.1,0.5-0.1,0.8-0.3c0,0,0,0,0,0c0,0,0.1,0,0.1,0c0.2-0.1,0.5-0.1,0.7,0c0.2,0.1,0.2,0.1,0.4,0.2
					c0.1,0,0.1,0,0.2,0.1c0.1,0.1,0,0.1,0.1,0.2c0.1,0.2,0.2,0.1,0.3,0.3c0.1,0.1,0.1,0.3,0.1,0.4c0,0.1,0.1,0.2,0,0.3
					c0,0-0.1,0-0.2,0.1c-0.1,0.1-0.1,0.2-0.2,0.2c-0.1,0-0.2,0-0.3,0c-0.1,0-0.2,0.1-0.3,0.1c-0.1,0-0.1-0.1-0.2-0.1
					c-0.1,0-0.2,0-0.3,0c-0.1,0-0.2-0.1-0.2-0.1c-0.1,0-0.2,0-0.3-0.1c-0.1-0.1-0.1-0.2-0.2-0.3c0,0,0,0-0.1-0.1
					c0,0-0.1-0.1-0.1-0.1c0,0-0.1-0.1-0.1-0.1c-0.2-0.2-0.4-0.4-0.7-0.5c-1,0.6-2.3,0.9-3.8,1.2c-0.3,0.1-0.5,0.1-0.8,0.2
					c0.1,0.4,0.4,1.4,1.5,2c0-0.2,0-0.3,0-0.5c0,0,0,0,0,0c0,0,0,0,0,0c-0.2-0.1-0.4-0.3-0.4-0.5c0-0.1,0-0.1,0-0.2
					c0-0.1,0.1-0.2,0.2-0.2c0.1,0,0.2-0.1,0.3-0.1c0,0,0.1,0,0.2,0c0.1,0,0.1,0.1,0.2,0.1c0.1,0.1,0.2,0.2,0.2,0.4
					c0,0.2-0.1,0.3-0.3,0.4c-0.1,0-0.1,0.1-0.1,0.1c0,0,0,0.1,0,0.1c0,0.1,0,0.2,0,0.3c0.3-0.1,0.5-0.4,0.7-0.6c0,0,0-0.1,0-0.2
					c0,0,0,0,0-0.1c-0.1-0.1-0.1-0.3,0-0.5c0.1-0.1,0.3-0.2,0.4-0.3c0.1,0,0.2,0,0.2,0c0.1,0.1,0.2,0.2,0.2,0.3c0,0.1,0,0.2,0,0.3
					c-0.1,0.1-0.1,0.2-0.2,0.2c0,0-0.1,0-0.1,0c-0.2,0-0.2,0-0.3,0c-0.2,0-0.2,0.3-0.4,0.6c0,0.1-0.1,0.1-0.2,0.2
					c-0.1,0.1-0.2,0.1-0.2,0.1c-0.1,0-0.1,0-0.1,0.1c0,0,0,0.1,0,0.2c0,0,0.1,0,0.1,0.1c0.3,0.1,0.6,0.2,0.9,0.2
					c0.1-0.2,0.2-0.3,0.2-0.4c0-0.1,0-0.1,0-0.2c0-0.2,0-0.3,0.1-0.4c0-0.1,0.1-0.2,0.2-0.2c0.2-0.1,0.4,0,0.5,0.1
					c0.1,0.1,0.1,0.4,0,0.5c-0.1,0.1-0.3,0.2-0.5,0.2c0,0-0.1,0-0.2,0c0,0,0,0-0.1,0.1c0,0.1,0,0.1,0,0.2c0.3,0,0.6,0,0.9-0.1
					c0.1-0.2,0.2-0.3,0.2-0.4c0,0,0-0.1,0-0.2c0-0.2,0-0.3,0.1-0.4c0-0.1,0.1-0.2,0.2-0.2c0.2-0.1,0.4,0,0.5,0.1
					c0.1,0.1,0.1,0.4,0,0.5c-0.1,0.1-0.3,0.2-0.5,0.2c0,0-0.1,0-0.2,0c0,0,0,0,0,0.1c0,0.1,0,0.1,0,0.2c0.1,0,0.2,0,0.4-0.1
					c0.2-0.1,0.3-0.2,0.3-0.2c0.1-0.1,0-0.1,0.1-0.1c0.1-0.1,0.1-0.1,0.2-0.2c0.1-0.1,0.2-0.1,0.3,0c0.1,0.1,0.1,0.2,0.1,0.3
					c0,0.1-0.1,0.2-0.2,0.3c-0.1,0.1-0.3,0.1-0.4,0.1c-0.1,0-0.1,0-0.2,0c-0.2,0-0.3,0.1-0.4,0.1c0,0,0,0,0,0
					c0.1,0.1,0.3,0.1,0.4,0.1c0,0,0.1,0,0.1,0c0,0,0.1,0,0.1,0c0.1-0.1,0.3-0.2,0.4-0.1c0.2,0,0.3,0.1,0.4,0.2c0,0.1,0,0.2,0,0.3
					c0,0.1-0.1,0.2-0.1,0.2c-0.1,0.1-0.3,0.2-0.5,0.1c-0.2-0.1-0.3-0.3-0.3-0.4c-0.1,0-0.3-0.1-0.4-0.1c-0.1,0-0.2-0.1-0.3-0.2
					c-0.1,0-0.2,0-0.4,0.1c0,0,0,0,0,0c0,0.2,0,0.4,0,0.6c0,0,0,0,0,0c0,0,0,0,0,0c0.2,0.1,0.4,0.3,0.4,0.5c0,0,0,0.1,0,0.2
					c-0.1,0.2-0.3,0.3-0.5,0.3c0,0-0.2,0-0.3-0.1c-0.1-0.1-0.2-0.2-0.2-0.4c0-0.2,0.1-0.3,0.3-0.4c0.1,0,0.1-0.1,0.1-0.1
					c0,0,0-0.1,0-0.1c0-0.1,0-0.2,0-0.3c-0.3,0.1-0.5,0.4-0.7,0.6c0,0,0,0.1,0,0.2c0,0,0,0,0,0.1c0.1,0.1,0.1,0.3,0,0.5
					c-0.1,0.1-0.3,0.2-0.4,0.3c-0.1,0-0.2,0-0.2,0c-0.1-0.1-0.2-0.2-0.2-0.3c0-0.1,0-0.2,0-0.3c0-0.1,0.1-0.1,0.2-0.2
					c0.1-0.1,0.2-0.1,0.3-0.1c0.2-0.1,0.2-0.3,0.5-0.5c0.2-0.2,0.4-0.2,0.5-0.4c0,0,0-0.1,0-0.1c-0.4,0-0.8,0-1.3,0
					c-0.1,0.1-0.1,0.2-0.1,0.3c0,0.2,0,0.3,0,0.4c0,0-0.1,0.2-0.2,0.2c-0.2,0.1-0.3,0-0.4-0.1c0,0,0-0.1,0-0.1
					c0-0.2,0.1-0.4,0.3-0.5c0.1,0,0.2-0.1,0.2-0.1c0.1,0,0.1-0.1,0.2-0.2c-0.3-0.1-0.6-0.2-0.9-0.3c-0.9-0.5-1.6-1.3-2-1.7
					c-0.9,0.6-1.6,1.3-1.6,1.9c0,0.3,0,1.1,0,1.1C34.3,37.5,34.3,37.8,34.4,38.1"/>
			</g>
		</g>
		<path class="st0" d="M33.1,4.4C17.2,4.4,4.4,17.3,4.4,33.2s12.9,28.7,28.7,28.7c15.9,0,28.7-12.9,28.7-28.7S48.9,4.4,33.1,4.4z
			 M50.8,14.8c0.7,0,1.3,0.6,1.3,1.3c0,0.7-0.6,1.3-1.3,1.3c-0.7,0-1.3-0.6-1.3-1.3C49.5,15.4,50,14.8,50.8,14.8z M15.3,15.2
			c0.7,0,1.3,0.6,1.3,1.3c0,0.7-0.6,1.3-1.3,1.3c-0.7,0-1.3-0.6-1.3-1.3C14,15.8,14.6,15.2,15.3,15.2z M33.5,53
			c-11,0-19.8-8.9-19.8-19.8s8.9-19.8,19.8-19.8s19.8,8.9,19.8,19.8S44.5,53,33.5,53z"/>
		<g>
			<path class="st2" d="M25.8,55l0.2,0.4l0.1-0.1c0.1,0,0.1-0.1,0.2-0.1c0.1,0,0.1-0.1,0.2-0.1c0,0,0,0,0,0c0,0,0,0.1,0,0.2v3.3
				c0,0.1,0,0.2,0,0.3c0,0,0,0.1,0,0.1c0,0,0,0-0.1,0c-0.1,0-0.2,0-0.3,0l-0.2,0v0.5h1.5v-5.1h-0.3L25.8,55z"/>
			<path class="st2" d="M31.6,55.1c-0.1-0.2-0.3-0.4-0.5-0.5c-0.2-0.1-0.5-0.2-0.8-0.2c-0.2,0-0.5,0.1-0.7,0.2
				c-0.2,0.1-0.4,0.2-0.5,0.4c-0.1,0.2-0.2,0.4-0.3,0.6c-0.1,0.2-0.1,0.4-0.1,0.7c0,0.2,0,0.4,0.1,0.6c0.1,0.2,0.1,0.4,0.3,0.5
				c0.1,0.1,0.3,0.3,0.4,0.4h0c0.2,0.1,0.4,0.2,0.7,0.1c0.5-0.1,0.7-0.8,0.7-0.8l0,0c-0.1,0.1-0.2,0.1-0.2,0.1
				c-0.2,0.1-0.4,0.1-0.6-0.1c-0.1-0.1-0.2-0.2-0.3-0.3c-0.1-0.1-0.1-0.3-0.2-0.4c0-0.2,0-0.3,0-0.4c0-0.1,0-0.3,0-0.4
				c0-0.1,0.1-0.2,0.1-0.3c0.1-0.1,0.1-0.2,0.2-0.2c0.1-0.1,0.2-0.1,0.3-0.1c0.1,0,0.1,0,0.2,0.1c0.1,0,0.1,0.1,0.2,0.2
				c0.1,0.1,0.1,0.2,0.1,0.3c0,0.1,0.1,0.2,0.1,0.3c0,0.1,0,0.2,0,0.3c0,0.1,0,0.2,0,0.3c0,0.1,0,0.3,0,0.4c0,0.1,0,0.2,0,0.3
				c0,0.1-0.2,0.6-0.2,0.6c0,0.1-0.1,0.1-0.1,0.2c-0.1,0.3-0.3,0.5-0.4,0.7c-0.2,0.2-0.4,0.4-0.6,0.5c-0.2,0.1-0.5,0.2-0.7,0.2
				l-0.2,0v0.5h0.3c0.4,0,0.8-0.1,1.1-0.3c0.3-0.2,0.7-0.4,0.9-0.7c0.3-0.3,0.5-0.6,0.6-1c0.2-0.4,0.2-0.8,0.2-1.2
				c0-0.2,0-0.5-0.1-0.7C31.9,55.5,31.8,55.3,31.6,55.1z"/>
			<path class="st2" d="M40,55.1c-0.1-0.2-0.3-0.4-0.5-0.5c-0.2-0.1-0.5-0.2-0.8-0.2c-0.2,0-0.5,0.1-0.7,0.2
				c-0.2,0.1-0.4,0.2-0.5,0.4c-0.1,0.2-0.2,0.4-0.3,0.6c-0.1,0.2-0.1,0.4-0.1,0.7c0,0.2,0,0.4,0.1,0.6c0.1,0.2,0.1,0.4,0.3,0.5
				c0.1,0.1,0.3,0.3,0.4,0.4h0c0.2,0.1,0.4,0.2,0.7,0.1c0.5-0.1,0.7-0.8,0.7-0.8l0,0c-0.1,0.1-0.2,0.1-0.2,0.1
				c-0.2,0.1-0.4,0.1-0.6-0.1c-0.1-0.1-0.2-0.2-0.3-0.3c-0.1-0.1-0.1-0.3-0.2-0.4c0-0.2,0-0.3,0-0.4c0-0.1,0-0.3,0-0.4
				c0-0.1,0.1-0.2,0.1-0.3c0.1-0.1,0.1-0.2,0.2-0.2c0.1-0.1,0.2-0.1,0.3-0.1c0.1,0,0.1,0,0.2,0.1c0.1,0,0.1,0.1,0.2,0.2
				c0.1,0.1,0.1,0.2,0.1,0.3c0,0.1,0.1,0.2,0.1,0.3c0,0.1,0,0.2,0,0.3c0,0.1,0,0.2,0,0.3c0,0.1,0,0.3,0,0.4c0,0.1,0,0.2,0,0.3
				c0,0.1-0.2,0.6-0.2,0.6c0,0.1-0.1,0.1-0.1,0.2c-0.1,0.3-0.3,0.5-0.4,0.7c-0.2,0.2-0.4,0.4-0.6,0.5c-0.2,0.1-0.5,0.2-0.7,0.2
				l-0.2,0v0.5h0.3c0.4,0,0.8-0.1,1.1-0.3c0.3-0.2,0.7-0.4,0.9-0.7c0.3-0.3,0.5-0.6,0.6-1c0.2-0.4,0.2-0.8,0.2-1.2
				c0-0.2,0-0.5-0.1-0.7C40.2,55.5,40.1,55.3,40,55.1z"/>
			<path class="st2" d="M35.4,57.2c-0.1-0.1-0.3-0.3-0.4-0.4c-0.1-0.1-0.2-0.2-0.3-0.2l-0.1-0.1c0,0,0,0,0,0
				c-0.1-0.1-0.2-0.2-0.3-0.2c-0.1-0.1-0.2-0.2-0.3-0.3c-0.1-0.1-0.1-0.2-0.2-0.3c0-0.1-0.1-0.2-0.1-0.3c0-0.1,0-0.2,0.1-0.2
				c0-0.1,0.1-0.1,0.1-0.2c0.1-0.1,0.1-0.1,0.2-0.1c0.1,0,0.1,0,0.2,0c0.1,0,0.2,0,0.3,0.1c0.1,0,0.2,0.1,0.2,0.2
				c0.1,0.1,0.1,0.2,0.2,0.2c0,0.1,0.1,0.2,0.1,0.3c0,0.1,0,0.2,0,0.2c0,0.1,0,0.1-0.1,0.1l-0.2,0.5c0,0,0.3,0.1,0.7-0.2
				c0,0,0,0,0,0c0.1-0.1,0.1-0.2,0.2-0.3c0.1-0.1,0.1-0.2,0.1-0.4c0-0.1,0-0.3-0.1-0.4c-0.1-0.1-0.2-0.3-0.3-0.4
				c-0.1-0.1-0.3-0.2-0.5-0.3c-0.3-0.1-0.7-0.1-1.1,0c-0.2,0.1-0.3,0.1-0.5,0.2c-0.1,0.1-0.2,0.2-0.3,0.4c-0.1,0.2-0.1,0.3-0.1,0.5
				c0,0.2,0,0.3,0.1,0.5c0.1,0.1,0.1,0.3,0.2,0.4c0.1,0.1,0.2,0.2,0.3,0.3c0.1,0,0.1,0.1,0.2,0.1c-0.1,0-0.1,0.1-0.2,0.1
				c-0.1,0.1-0.2,0.2-0.3,0.3c-0.1,0.1-0.2,0.3-0.2,0.4c-0.1,0.1-0.1,0.3-0.1,0.5c0,0.1,0,0.2,0.1,0.4c0,0.2,0.1,0.3,0.2,0.4
				c0.1,0.1,0.3,0.3,0.5,0.4c0.2,0.1,0.4,0.2,0.7,0.2c0.2,0,0.4,0,0.6-0.1c0.2-0.1,0.3-0.2,0.5-0.3c0.1-0.1,0.3-0.3,0.3-0.4
				c0.1-0.2,0.1-0.4,0.1-0.6c0-0.2-0.1-0.4-0.1-0.6C35.6,57.5,35.5,57.3,35.4,57.2z M35,58.8c0,0.1-0.1,0.2-0.2,0.2
				c-0.1,0.1-0.1,0.1-0.2,0.1c-0.2,0.1-0.4,0.1-0.6,0c-0.1-0.1-0.2-0.1-0.2-0.2c-0.1-0.1-0.1-0.2-0.2-0.3c0-0.1-0.1-0.2-0.1-0.3
				c0-0.2,0.1-0.4,0.2-0.5v0c0.1-0.1,0.2-0.3,0.3-0.4c0.2,0.1,0.3,0.3,0.4,0.4c0.1,0.1,0.2,0.2,0.3,0.3c0.1,0.1,0.1,0.2,0.2,0.3
				c0,0.1,0,0.2,0,0.2C35,58.6,35,58.7,35,58.8z"/>
			<path class="st2" d="M9.9,41.4l1.6-2.1L11,38l-0.4,0.1l0,0.1c0,0.1,0,0.2,0,0.3c0,0.1,0,0.2-0.1,0.3c0,0.1-0.1,0.2-0.1,0.3
				c-0.1,0.1-0.1,0.2-0.2,0.3l-0.7,0.9c0-0.1-0.1-0.1-0.1-0.2c-0.1-0.1-0.2-0.2-0.3-0.3c-0.1-0.1-0.3-0.1-0.4-0.1
				c-0.1,0-0.3,0-0.5,0c-0.1,0-0.2,0.1-0.3,0.2c-0.1,0.1-0.2,0.2-0.3,0.4c-0.1,0.1-0.1,0.3-0.1,0.6c0,0.2,0,0.5,0.1,0.8l0.6,1.8
				l0.4-0.1l0-0.1c0-0.2-0.1-0.2-0.1-0.3c0-0.1,0-0.1,0-0.1c0,0,0.1-0.1,0.1-0.1c0.1,0,0.2-0.1,0.3-0.1l3.2-1.1l-0.3-0.8L9.9,41.4z
				 M8.7,41.8c-0.1,0-0.2,0-0.3,0c-0.1,0-0.1,0-0.1,0c0,0,0,0-0.1-0.1c0,0,0-0.1-0.1-0.1c0-0.1,0-0.2,0-0.3c0-0.1,0-0.2,0.1-0.2
				c0-0.1,0.1-0.1,0.2-0.2c0.1-0.1,0.2-0.1,0.3-0.1c0.1,0,0.2,0,0.3,0c0,0,0.1,0,0.1,0c0.1,0,0.2,0.1,0.3,0.1
				c0.1,0.1,0.1,0.1,0.2,0.2c0.1,0.1,0.1,0.2,0.1,0.3l0,0.1L8.7,41.8z"/>
			<path class="st2" d="M10.8,36.3l-0.4,0l0,0.1c0,0.1,0,0.1,0,0.2c0,0,0,0.1,0,0.1c0,0,0,0,0,0.1c0,0,0,0,0,0c0,0-0.1,0-0.1,0
				c-0.1,0-0.2,0-0.2-0.1l-0.5-0.1l-0.2-1.3l1.3-0.7l-0.1-0.9L6.3,36l0,0.3l4.6,1.4L10.8,36.3z M7.8,36.1l1-0.6L9,36.5L7.8,36.1z"/>
			<path class="st2" d="M7.6,32.8l-0.1,0c-0.3-0.1-0.4-0.2-0.5-0.2c-0.1-0.1-0.2-0.4-0.2-0.7l0.1-1.2l3.3,2.7l0.3,0l0.3-3.6
				l-1.4-0.3l0,0.4l0.1,0c0.1,0.1,0.2,0.1,0.3,0.2c0.1,0,0.1,0.1,0.2,0.2c0,0.1,0.1,0.2,0.1,0.4c0,0.2,0,0.4,0,0.7l0,0.7l-3.6-2.9
				L6.2,33l1.3,0.3L7.6,32.8z"/>
			<path class="st2" d="M7.2,28.3c0.1,0.2,0.3,0.4,0.6,0.6c0.2,0.2,0.5,0.3,0.8,0.4c0.2,0.1,0.4,0.1,0.6,0.1c0.1,0,0.2,0,0.3,0
				c0.3,0,0.6-0.1,0.8-0.3c0.2-0.1,0.4-0.3,0.6-0.5c0.2-0.2,0.3-0.5,0.4-0.8v0c0.1-0.3,0.1-0.6,0-0.8c0-0.3-0.1-0.5-0.3-0.8
				c-0.1-0.2-0.3-0.4-0.6-0.6c-0.2-0.2-0.5-0.3-0.8-0.4c-0.3-0.1-0.6-0.1-0.9-0.1c-0.3,0-0.6,0.1-0.8,0.3c-0.2,0.1-0.4,0.3-0.6,0.5
				c-0.2,0.2-0.3,0.5-0.4,0.8c-0.1,0.3-0.1,0.6,0,0.8C7,27.9,7.1,28.1,7.2,28.3z M7.5,26.9L7.5,26.9c0-0.2,0.1-0.3,0.2-0.5
				c0.1-0.1,0.2-0.2,0.4-0.3C8.3,26,8.5,26,8.7,25.9c0,0,0.1,0,0.1,0c0.2,0,0.4,0,0.6,0.1c0.3,0.1,0.5,0.2,0.7,0.3
				c0.2,0.1,0.3,0.3,0.5,0.4c0.1,0.1,0.2,0.3,0.2,0.5c0,0.2,0,0.3,0,0.5c0,0.2-0.1,0.3-0.2,0.5c-0.1,0.1-0.2,0.2-0.4,0.3
				c-0.2,0.1-0.4,0.1-0.6,0.1c-0.2,0-0.5,0-0.8-0.1c-0.3-0.1-0.5-0.2-0.7-0.3C8,28.1,7.8,28,7.7,27.8c-0.1-0.1-0.2-0.3-0.2-0.5
				C7.4,27.2,7.5,27,7.5,26.9z"/>
			<path class="st2" d="M23.2,8.3l0.2,3.2L21,9.3l-1.1,0.5l0.2,0.4l0.1,0c0.1,0,0.1,0,0.2,0c0.1,0,0.1,0,0.2,0
				c0.1,0,0.1,0.1,0.2,0.1c0.1,0.1,0.1,0.1,0.2,0.2l2.8,2.5l0.3-0.1l-0.2-4.8L23.2,8.3z"/>
			<path class="st2" d="M28.1,10l0,0.1c0,0.1,0,0.3,0,0.4c0,0.1,0,0.2-0.1,0.2c0,0.1-0.1,0.1-0.1,0.1c-0.1,0-0.2,0.1-0.3,0.1
				l-0.4,0.1c-0.2,0-0.3,0-0.3,0c-0.1,0-0.1,0-0.2-0.1c0,0-0.1-0.1-0.1-0.1c0-0.1,0-0.1-0.1-0.2l-0.2-0.9l0.9-0.3c0.1,0,0.1,0,0.2,0
				c0,0,0,0,0,0c0,0,0,0,0.1,0.1l0,0.1l0.4-0.1l-0.3-1.1l-0.4,0.1l0,0.1c0,0.1,0,0.1,0,0.1c0,0,0,0,0,0c0,0-0.1,0-0.2,0.1l-0.9,0.2
				L25.8,8l0.8-0.2c0.1,0,0.2-0.1,0.3-0.1c0.1,0,0.1,0,0.2,0c0,0,0.1,0.1,0.1,0.1c0.1,0.1,0.1,0.2,0.2,0.3l0.1,0.1l0.4-0.1L27.5,7
				l-3.3,0.9l0.1,0.4l0.1,0c0.2,0,0.2,0,0.3-0.1c0.1,0,0.1,0,0.1,0c0,0,0.1,0.1,0.1,0.1c0,0.1,0.1,0.2,0.1,0.3l0.9,3.3l2.7-0.7
				l-0.1-1.3L28.1,10z"/>
			<path class="st2" d="M28.9,7.4c0,0.1,0,0.2,0,0.3l0.3,3.4l0.9-0.1l-0.2-2.2l1.8,2l1.3-0.1l0-0.4l-0.1,0c-0.1,0-0.2,0-0.3,0
				c-0.1,0-0.2-0.1-0.2-0.1c-0.1-0.1-0.2-0.1-0.2-0.2c-0.1-0.1-0.2-0.2-0.2-0.3L31,8.9c0.1,0,0.1-0.1,0.2-0.1
				c0.1-0.1,0.2-0.2,0.3-0.3c0.1-0.1,0.2-0.2,0.2-0.4c0.1-0.1,0.1-0.3,0.1-0.5c0-0.1,0-0.2-0.1-0.3c-0.1-0.1-0.1-0.3-0.3-0.4
				c-0.1-0.1-0.3-0.2-0.5-0.3c-0.2-0.1-0.5-0.1-0.8,0l-1.9,0.2l0,0.4l0.2,0c0.2,0,0.2,0,0.3,0c0.1,0,0.1,0,0.1,0
				C28.8,7.3,28.9,7.3,28.9,7.4z M29.8,7.4c0-0.1,0-0.1,0.1-0.1c0,0,0.1,0,0.1,0c0,0,0.1,0,0.1,0c0,0,0.1,0,0.1,0c0.1,0,0.1,0,0.2,0
				c0.1,0,0.2,0.1,0.2,0.1c0.1,0.1,0.1,0.1,0.2,0.2c0,0.1,0.1,0.2,0.1,0.3c0,0.1,0,0.3,0,0.4c0,0.1-0.1,0.2-0.2,0.2
				c-0.1,0.1-0.2,0.1-0.3,0.1c-0.1,0-0.2,0.1-0.3,0.1l-0.1,0l-0.1-1C29.8,7.5,29.8,7.4,29.8,7.4z"/>
			<path class="st2" d="M37.4,9c0-0.2,0-0.3,0-0.5c0-0.2-0.1-0.3-0.1-0.5c-0.1-0.2-0.1-0.3-0.2-0.5c-0.1-0.1-0.2-0.3-0.4-0.4
				c-0.1-0.1-0.3-0.2-0.4-0.2c-0.1-0.1-0.3-0.1-0.4-0.2c-0.1,0-0.3-0.1-0.4-0.1c-0.1,0-0.3,0-0.4-0.1l-1.7-0.2l0,0.4l0.2,0
				c0.2,0,0.2,0,0.3,0.1c0.1,0,0.1,0,0.1,0.1c0,0,0,0.1,0,0.1c0,0.1,0,0.2,0,0.3l-0.3,3.4l1.4,0.1c0.1,0,0.2,0,0.3,0
				c0.3,0,0.5,0,0.7-0.1c0.3-0.1,0.6-0.2,0.8-0.4c0.2-0.2,0.4-0.4,0.5-0.7C37.3,9.5,37.4,9.3,37.4,9z M36.5,8.9
				c0,0.2-0.1,0.4-0.2,0.6C36.2,9.7,36.1,9.9,36,10c-0.1,0.1-0.3,0.2-0.5,0.3c-0.2,0.1-0.4,0.1-0.6,0.1c-0.1,0-0.2,0-0.3,0
				c-0.1,0-0.1,0-0.2,0l0.2-2.5c0-0.2,0.1-0.3,0.1-0.4c0.1-0.1,0.1-0.1,0.2-0.2c0.1,0,0.1,0,0.2-0.1c0.2,0,0.4,0.1,0.6,0.2
				c0.2,0.1,0.3,0.2,0.4,0.4c0.1,0.2,0.2,0.3,0.2,0.5C36.5,8.4,36.5,8.7,36.5,8.9z"/>
			<path class="st2" d="M39.9,7.3l-3,3.8l1.3,0.4l0.1-0.4l-0.1,0c0,0-0.1,0-0.1-0.1c0,0-0.1,0-0.1-0.1c0,0,0,0,0,0c0,0,0,0,0,0
				c0,0,0-0.1,0.1-0.1c0.1-0.1,0.1-0.1,0.1-0.2l0.3-0.4l1.3,0.4l0.2,1.4l0.8,0.2l-0.5-4.7L39.9,7.3z M38.8,9.7l0.7-0.9l0.2,1.2
				L38.8,9.7z"/>
			<path class="st2" d="M45.4,10c-0.1-0.1-0.2-0.3-0.3-0.4c-0.1-0.1-0.2-0.2-0.4-0.3c-0.1-0.1-0.3-0.2-0.4-0.2
				C44.2,9,44.1,8.9,44,8.9l-1.5-0.7l-0.2,0.4l0.1,0.1c0.1,0.1,0.2,0.1,0.2,0.1c0,0,0,0.1,0.1,0.1c0,0,0,0.1,0,0.1
				c0,0.1-0.1,0.2-0.1,0.3l-1.5,3.1l1.3,0.6c0.3,0.2,0.7,0.3,1,0.3c0.1,0,0.1,0,0.2,0c0.2,0,0.5,0,0.7-0.1c0.3-0.1,0.5-0.2,0.7-0.4
				c0.2-0.2,0.4-0.4,0.5-0.7c0.1-0.2,0.1-0.3,0.2-0.5c0-0.2,0.1-0.3,0.1-0.5c0-0.2,0-0.3-0.1-0.5C45.6,10.3,45.5,10.1,45.4,10z
				 M44.7,10.9c0,0.2-0.1,0.4-0.2,0.6c-0.1,0.2-0.2,0.4-0.4,0.5c-0.1,0.2-0.3,0.3-0.5,0.4c-0.2,0.1-0.4,0.1-0.6,0.1c0,0,0,0,0,0
				c-0.2,0-0.4-0.1-0.6-0.2c-0.1,0-0.2-0.1-0.3-0.1c-0.1,0-0.1-0.1-0.2-0.1l1.1-2.3c0.1-0.2,0.2-0.3,0.3-0.3
				c0.1-0.1,0.2-0.1,0.2-0.1c0.1,0,0.2,0,0.2,0c0.2,0.1,0.4,0.2,0.5,0.4c0.1,0.2,0.2,0.3,0.3,0.5C44.8,10.5,44.8,10.7,44.7,10.9z"/>
			<path class="st2" d="M58,23.8l-3.2,0.1l2.2-2.3l-0.5-1.1l-0.4,0.2l0,0.1c0,0.1,0,0.1,0,0.2c0,0.1,0,0.1-0.1,0.2
				c0,0.1-0.1,0.1-0.1,0.2c-0.1,0.1-0.1,0.1-0.2,0.2l-2.6,2.7l0.1,0.3l4.8-0.1L58,23.8z"/>
			<rect x="54.2" y="25.5" transform="matrix(0.956 -0.2933 0.2933 0.956 -5.1383 17.6748)" class="st2" width="4.3" height="0.9"/>
			<path class="st2" d="M58.4,26.5c0,0.2,0,0.2,0,0.3c0,0,0,0.1,0,0.1c0,0-0.1,0-0.1,0.1c-0.1,0-0.2,0-0.3,0.1l-3.4,0.6l0.2,0.9
				l2.1-0.4L55.1,30l0.2,1.3l0.4-0.1l0-0.1c0-0.1,0-0.2,0-0.3c0-0.1,0-0.2,0.1-0.3c0-0.1,0.1-0.2,0.2-0.2c0.1-0.1,0.2-0.2,0.2-0.3
				l0.8-0.8c0,0.1,0.1,0.1,0.1,0.2c0.1,0.1,0.2,0.2,0.3,0.3c0.1,0.1,0.2,0.1,0.4,0.2c0.1,0,0.3,0,0.5,0c0.1,0,0.2-0.1,0.3-0.1
				c0.1-0.1,0.3-0.2,0.4-0.3c0.1-0.1,0.2-0.3,0.2-0.5c0-0.2,0-0.5,0-0.8l-0.3-1.9l-0.4,0.1L58.4,26.5z M58.6,28c0,0,0,0.1,0,0.1
				c0,0.1,0,0.2,0,0.3c0,0.1-0.1,0.2-0.1,0.2c0,0.1-0.1,0.1-0.2,0.2c-0.1,0-0.2,0.1-0.3,0.1c-0.1,0-0.3,0-0.4,0
				c-0.1,0-0.2-0.1-0.2-0.1c-0.1-0.1-0.1-0.1-0.2-0.2c0-0.1-0.1-0.2-0.1-0.3l0-0.1l1-0.2c0.1,0,0.2,0,0.3,0
				C58.5,27.9,58.5,27.9,58.6,28C58.5,27.9,58.6,28,58.6,28z"/>
			<path class="st2" d="M58.2,31.2l0.1,0c0.4,0.1,0.5,0.2,0.5,0.2C59,31.5,59,31.6,59,32l0,0.2l-3.8,0.1l0,0.9l3.8-0.1l0,0.2
				c0,0.4-0.1,0.6-0.1,0.6c0,0-0.1,0.1-0.5,0.2l-0.1,0l0,0.4l1.3-0.1l-0.1-3.7l-1.3,0L58.2,31.2z"/>
			<path class="st2" d="M59.2,35.3c0,0.2-0.1,0.2-0.1,0.3c0,0,0,0.1-0.1,0.1c0,0-0.1,0-0.1,0c-0.1,0-0.2,0-0.3,0l-1.8-0.3
				c-0.2,0-0.4,0-0.6,0c-0.2,0-0.4,0.1-0.6,0.2c-0.2,0.1-0.3,0.3-0.5,0.5c-0.1,0.2-0.2,0.5-0.3,0.8c-0.1,0.3,0,0.6,0,0.9
				c0.1,0.2,0.2,0.4,0.3,0.6c0.1,0.2,0.3,0.3,0.5,0.3c0.2,0.1,0.4,0.1,0.6,0.2l2.7,0.4l0.1-0.6l-2.4-0.4c-0.1,0-0.2,0-0.3,0
				c-0.1,0-0.2,0-0.3-0.1c-0.1,0-0.2-0.1-0.3-0.1c-0.1,0-0.1-0.1-0.2-0.1c-0.1-0.1-0.2-0.3-0.3-0.4c0-0.2-0.1-0.4,0-0.5
				c0-0.1,0-0.2,0.1-0.3c0-0.1,0.1-0.1,0.1-0.2c0.1-0.1,0.1-0.1,0.2-0.2c0.1,0,0.1-0.1,0.2-0.1c0,0,0.1,0,0.2,0c0.1,0,0.2,0,0.2,0
				c0.1,0,0.2,0,0.2,0c0.1,0,0.1,0,0.2,0l2.5,0.4l0.2-1.4l-0.4-0.1L59.2,35.3z"/>
			<path class="st2" d="M58.4,39.8c-0.1,0.2-0.1,0.2-0.1,0.3c0,0.1-0.1,0.1-0.1,0.1c0,0-0.1,0-0.1,0c-0.1,0-0.2-0.1-0.3-0.1
				l-3.2-1.1l-0.5,1.4c-0.1,0.4-0.2,0.7-0.2,1c0,0.3,0.1,0.6,0.2,0.9c0.1,0.3,0.3,0.5,0.5,0.6c0.2,0.2,0.5,0.3,0.7,0.4
				c0.2,0.1,0.3,0.1,0.5,0.1c0.1,0,0.2,0,0.3,0c0.1,0,0.1,0,0.2,0c0.2,0,0.3-0.1,0.5-0.1c0.2-0.1,0.3-0.1,0.5-0.3
				c0.1-0.1,0.2-0.2,0.3-0.3c0.1-0.1,0.2-0.3,0.3-0.4c0.1-0.1,0.1-0.3,0.2-0.4c0.1-0.1,0.1-0.3,0.2-0.4l0.6-1.6l-0.4-0.1L58.4,39.8z
				 M57.7,41.4c-0.1,0.2-0.2,0.4-0.3,0.6c-0.1,0.1-0.3,0.2-0.5,0.3c-0.2,0.1-0.4,0.1-0.6,0.1c-0.2,0-0.4,0-0.6-0.1
				c-0.2-0.1-0.4-0.2-0.6-0.3c-0.2-0.1-0.3-0.3-0.4-0.4c-0.1-0.2-0.2-0.3-0.2-0.5c0-0.2,0-0.4,0.1-0.6c0-0.1,0.1-0.2,0.1-0.3
				c0-0.1,0.1-0.1,0.1-0.2l2.4,0.8c0.2,0.1,0.3,0.1,0.4,0.2c0.1,0.1,0.1,0.1,0.1,0.2C57.8,41.3,57.8,41.4,57.7,41.4z"/>
			<path class="st2" d="M9.7,20.7l0.1-0.2l0-0.1l-0.3-0.1l-0.3,0.6L9,21.3l2.4,1l-3.2,0.9l0,0l0,0l0,0l-0.2,0.5l4,1.7l0.3-0.6
				l-1.9-0.9l-0.6-0.3l3.5-1l0,0l0.2-0.4l-3.6-1.6C9.8,20.9,9.6,20.9,9.7,20.7z"/>
		</g>
	</g>
	<g>
		<g>
			<rect x="69.4" y="43.2" class="st2" width="137.8" height="0.6"/>
		</g>
		<g>
			<path class="st2" d="M77.8,19.6c0,0.4-0.1,0.9-0.2,1.3c-0.1,0.4-0.3,0.9-0.6,1.2c-0.3,0.4-0.7,0.7-1.2,0.9
				c-0.5,0.2-1.1,0.3-1.9,0.3c-0.8,0-1.4-0.1-1.9-0.3c-0.5-0.2-0.9-0.5-1.2-0.8c-0.3-0.3-0.5-0.7-0.6-1.2c-0.1-0.4-0.2-0.9-0.2-1.4
				v-4.4c0-0.3,0-0.6,0-0.8c0-0.2-0.1-0.4-0.2-0.5c-0.1-0.1-0.2-0.2-0.4-0.3c-0.2-0.1-0.5-0.1-0.8-0.1v-0.3h2.8v5.8
				c0,0.1,0,0.3,0,0.5c0,0.2,0,0.4,0,0.6c0,0.2,0,0.4,0.1,0.6c0,0.2,0.1,0.3,0.1,0.5c0.1,0.2,0.2,0.5,0.4,0.6
				c0.2,0.2,0.3,0.3,0.5,0.4c0.2,0.1,0.4,0.2,0.7,0.3c0.2,0.1,0.5,0.1,0.7,0.1c0.5,0,1-0.1,1.4-0.3c0.5-0.2,0.9-0.5,1.1-0.9
				c0.1-0.2,0.2-0.4,0.3-0.6c0.1-0.2,0.1-0.5,0.1-0.7c0-0.2,0-0.5,0.1-0.7c0-0.2,0-0.5,0-0.7v-5.5l0.6,0V19.6z"/>
			<path class="st2" d="M90.7,13.3h1.4v9.8h-1.4V13.3z"/>
			<path class="st2" d="M99.2,23.3h-0.3l-3.5-8.2c-0.1-0.2-0.2-0.4-0.3-0.6c-0.1-0.2-0.2-0.3-0.3-0.5c-0.1-0.1-0.3-0.3-0.4-0.4
				c-0.2-0.1-0.4-0.2-0.6-0.2v-0.3h2.3l3.2,7.8l3.1-7.8h0.7L99.2,23.3z"/>
			<path class="st2" d="M106.6,17.7h2c0.3,0,0.5,0,0.8,0c0.2,0,0.4,0,0.5-0.1c0.1,0,0.3-0.1,0.3-0.2c0.1-0.1,0.1-0.2,0.1-0.4h0.3v2
				h-0.3c0-0.2,0-0.4-0.1-0.5c-0.1-0.1-0.2-0.2-0.3-0.3c-0.1,0-0.3-0.1-0.5-0.1c-0.2,0-0.5,0-0.8,0h-2v2.6c0,0.1,0,0.3,0,0.5
				c0,0.2,0.1,0.4,0.2,0.6c0.1,0.2,0.3,0.3,0.5,0.4c0.2,0.1,0.6,0.2,1,0.2h1.1c0.3,0,0.6,0,0.8-0.1c0.2-0.1,0.4-0.2,0.6-0.3
				c0.2-0.2,0.3-0.4,0.4-0.6c0.1-0.2,0.2-0.5,0.3-0.9h0.4l-0.5,2.5h-6.2v-7.9c0-0.3,0-0.6,0-0.8c0-0.2-0.1-0.4-0.2-0.5
				c-0.1-0.1-0.2-0.2-0.4-0.3c-0.2-0.1-0.5-0.1-0.8-0.1v-0.3h7.5l0.1,2.1h-0.3c-0.1-0.4-0.2-0.7-0.2-0.9c-0.1-0.2-0.2-0.4-0.4-0.5
				c-0.2-0.1-0.4-0.2-0.6-0.2c-0.2,0-0.5,0-0.9,0h-2.5V17.7z"/>
			<path class="st2" d="M114,15.2c0-0.3,0-0.6,0-0.8c0-0.2-0.1-0.4-0.2-0.5c-0.1-0.1-0.2-0.2-0.4-0.3c-0.2-0.1-0.5-0.1-0.8-0.1v-0.3
				h4.2c0.7,0,1.3,0.1,1.7,0.3c0.4,0.2,0.8,0.4,1,0.7c0.2,0.3,0.4,0.5,0.5,0.8c0.1,0.3,0.1,0.5,0.1,0.8c0,0.4-0.1,0.7-0.2,0.9
				c-0.1,0.3-0.3,0.5-0.5,0.7c-0.2,0.2-0.5,0.4-0.8,0.5c-0.3,0.1-0.6,0.2-0.9,0.3l1.9,2.7c0.2,0.3,0.4,0.5,0.5,0.7
				c0.2,0.2,0.4,0.4,0.5,0.6c0.2,0.2,0.4,0.3,0.7,0.4c0.2,0.1,0.5,0.2,0.9,0.2v0.3h-2.6l-3.6-5c0.3,0,0.6,0,0.9-0.1
				c0.3-0.1,0.6-0.2,0.8-0.4c0.2-0.2,0.4-0.4,0.6-0.7c0.1-0.3,0.2-0.6,0.2-1c0-0.3,0-0.6-0.1-0.8c-0.1-0.3-0.2-0.5-0.4-0.7
				c-0.2-0.2-0.4-0.3-0.6-0.4c-0.2-0.1-0.5-0.2-0.8-0.2c-0.1,0-0.2,0-0.4,0c-0.1,0-0.3,0.1-0.4,0.1c-0.1,0.1-0.2,0.2-0.3,0.4
				c-0.1,0.2-0.1,0.4-0.1,0.8v7.9H114V15.2z"/>
			<path class="st2" d="M123.2,20c0.1,0.6,0.2,1.1,0.4,1.4c0.2,0.4,0.5,0.6,0.8,0.8c0.3,0.2,0.6,0.3,0.9,0.4
				c0.3,0.1,0.6,0.1,0.8,0.1c0.2,0,0.5,0,0.7-0.1c0.2-0.1,0.4-0.2,0.6-0.3c0.2-0.1,0.3-0.3,0.4-0.5c0.1-0.2,0.2-0.4,0.2-0.7
				c0-0.4-0.1-0.7-0.4-1c-0.3-0.3-0.6-0.5-1-0.8c-0.4-0.2-0.8-0.5-1.2-0.7c-0.4-0.2-0.9-0.5-1.2-0.8c-0.4-0.3-0.7-0.6-1-1
				c-0.3-0.4-0.4-0.8-0.4-1.3c0-0.4,0.1-0.7,0.2-1c0.1-0.3,0.4-0.6,0.6-0.8c0.3-0.2,0.6-0.4,0.9-0.5c0.3-0.1,0.7-0.2,1.1-0.2
				c0.3,0,0.5,0,0.7,0.1c0.2,0.1,0.4,0.1,0.6,0.2c0.1,0,0.2,0.1,0.3,0.2c0.1,0.1,0.2,0.2,0.4,0.2c0.1,0.1,0.3,0.1,0.5,0.1
				c0.2,0,0.3,0,0.5-0.1l0,2.7h-0.3c0-0.4-0.1-0.7-0.2-1.1c-0.1-0.3-0.3-0.6-0.6-0.9c-0.2-0.3-0.5-0.5-0.8-0.6
				c-0.3-0.1-0.7-0.2-1.1-0.2c-0.2,0-0.4,0-0.6,0.1c-0.2,0.1-0.4,0.2-0.5,0.3c-0.2,0.1-0.3,0.3-0.4,0.5c-0.1,0.2-0.1,0.4-0.1,0.6
				c0,0.3,0.1,0.7,0.4,0.9c0.3,0.3,0.6,0.5,1,0.7c0.4,0.2,0.8,0.5,1.3,0.7c0.5,0.2,0.9,0.5,1.3,0.8c0.4,0.3,0.7,0.6,1,1
				c0.3,0.4,0.4,0.8,0.4,1.3c0,0.4-0.1,0.7-0.2,1.1c-0.2,0.3-0.4,0.6-0.7,0.9c-0.3,0.3-0.6,0.5-1,0.6c-0.4,0.1-0.8,0.2-1.3,0.2
				c-0.3,0-0.6,0-0.9-0.1c-0.2-0.1-0.5-0.1-0.7-0.2c-0.1,0-0.2-0.1-0.3-0.2c-0.1-0.1-0.2-0.1-0.3-0.2c-0.1-0.1-0.3-0.1-0.5-0.2
				c-0.2,0-0.4-0.1-0.7-0.1V20H123.2z"/>
			<path class="st2" d="M131.7,13.3h1.4v9.8h-1.4V13.3z"/>
			<path class="st2" d="M136.6,15.2c0-0.3,0-0.6,0-0.8c0-0.2-0.1-0.4-0.2-0.5c-0.1-0.1-0.2-0.2-0.4-0.3c-0.2-0.1-0.5-0.1-0.8-0.1
				v-0.3h3.8c0.3,0,0.7,0,1,0c0.4,0,0.7,0.1,1.1,0.1c0.4,0.1,0.7,0.1,1,0.2c0.3,0.1,0.7,0.3,0.9,0.5c0.3,0.2,0.6,0.5,0.9,0.8
				c0.2,0.3,0.5,0.6,0.6,1c0.2,0.4,0.3,0.7,0.4,1.1c0.1,0.4,0.1,0.8,0.1,1.2c0,0.7-0.1,1.3-0.3,1.9c-0.2,0.6-0.5,1.1-1,1.6
				c-0.4,0.5-1,0.8-1.7,1.1c-0.7,0.3-1.4,0.4-2.3,0.4h-3.2V15.2z M138,22.4c0.3,0.1,0.5,0.1,0.8,0.1c0.3,0,0.5,0.1,0.8,0.1
				c0.6,0,1.2-0.1,1.7-0.4c0.5-0.2,0.9-0.5,1.2-0.9c0.3-0.4,0.6-0.9,0.7-1.4c0.2-0.5,0.3-1.1,0.3-1.7c0-0.6-0.1-1.2-0.3-1.7
				c-0.2-0.5-0.4-1-0.7-1.4c-0.3-0.4-0.7-0.7-1.2-0.9c-0.5-0.2-1.1-0.3-1.7-0.3c-0.3,0-0.6,0.1-0.7,0.2c-0.2,0.1-0.4,0.3-0.5,0.6
				c-0.2,0.3-0.2,0.7-0.2,1.2V22.4z"/>
			<path class="st2" d="M155.7,15.2c0-0.3,0-0.6,0-0.8c0-0.2-0.1-0.4-0.2-0.5c-0.1-0.1-0.2-0.2-0.4-0.3c-0.2-0.1-0.5-0.1-0.8-0.1
				v-0.3h3.8c0.3,0,0.7,0,1,0c0.4,0,0.7,0.1,1.1,0.1c0.4,0.1,0.7,0.1,1,0.2c0.3,0.1,0.7,0.3,0.9,0.5c0.3,0.2,0.6,0.5,0.9,0.8
				c0.2,0.3,0.5,0.6,0.6,1c0.2,0.4,0.3,0.7,0.4,1.1c0.1,0.4,0.1,0.8,0.1,1.2c0,0.7-0.1,1.3-0.3,1.9c-0.2,0.6-0.5,1.1-1,1.6
				c-0.4,0.5-1,0.8-1.7,1.1c-0.7,0.3-1.4,0.4-2.3,0.4h-3.2V15.2z M157.1,22.4c0.3,0.1,0.5,0.1,0.8,0.1c0.3,0,0.5,0.1,0.8,0.1
				c0.6,0,1.2-0.1,1.7-0.4c0.5-0.2,0.9-0.5,1.2-0.9c0.3-0.4,0.6-0.9,0.7-1.4c0.2-0.5,0.3-1.1,0.3-1.7c0-0.6-0.1-1.2-0.3-1.7
				c-0.2-0.5-0.4-1-0.7-1.4c-0.3-0.4-0.7-0.7-1.2-0.9c-0.5-0.2-1.1-0.3-1.7-0.3c-0.3,0-0.6,0.1-0.7,0.2c-0.2,0.1-0.4,0.3-0.5,0.6
				c-0.2,0.3-0.2,0.7-0.2,1.2V22.4z"/>
			<path class="st2" d="M87.4,13.3L87.4,13.3l-0.6,0v7.3h0l-0.1-0.1v0l-5.9-7.3h0l0,0H80c0,0,0,1.7,0,2.1v7.7h0.5v0h0.1v-7.5l0,0
				v-0.2h0l6.4,7.9h0.2v0h0.3V15c0-0.3,0-0.5,0-0.7c0-0.2,0.1-0.3,0.1-0.4c0.1-0.1,0.2-0.2,0.4-0.2c0.2,0,0.3-0.1,0.6-0.1v-0.2H87.4
				z"/>
			<path class="st2" d="M150.3,13.1H150l-4.4,10h2.4v-0.3c-0.1,0-0.3,0-0.4,0c-0.1,0-0.3-0.1-0.4-0.1c-0.1,0-0.2-0.1-0.3-0.2
				c-0.1-0.1-0.1-0.2-0.1-0.3c0-0.1,0-0.3,0.1-0.5c0.1-0.2,0.1-0.3,0.2-0.4h0l0.1-0.1l0.6-1.3h3.8l1.3,3.3h1.3L150.3,13.1z
				 M148,19.3l1.7-3.9l1.7,3.9H148z"/>
		</g>
		<g>
			<path class="st2" d="M109.7,35.5c0.1,0.8,0.3,1.4,0.6,1.9c0.3,0.5,0.6,0.8,1,1.1c0.4,0.3,0.8,0.4,1.2,0.5c0.4,0.1,0.8,0.1,1,0.1
				c0.3,0,0.6,0,0.9-0.1c0.3-0.1,0.6-0.2,0.8-0.4c0.2-0.2,0.4-0.4,0.6-0.7c0.1-0.3,0.2-0.6,0.2-0.9c0-0.5-0.2-0.9-0.5-1.3
				c-0.3-0.4-0.7-0.7-1.2-1c-0.5-0.3-1-0.6-1.6-0.9c-0.6-0.3-1.1-0.6-1.6-1c-0.5-0.4-0.9-0.8-1.2-1.2c-0.3-0.5-0.5-1-0.5-1.7
				c0-0.5,0.1-0.9,0.3-1.4c0.2-0.4,0.5-0.8,0.8-1.1c0.3-0.3,0.7-0.5,1.2-0.7c0.4-0.2,0.9-0.3,1.4-0.3c0.4,0,0.7,0,1,0.1
				c0.3,0.1,0.6,0.2,0.8,0.2c0.1,0.1,0.3,0.1,0.4,0.3c0.2,0.1,0.3,0.2,0.5,0.3c0.2,0.1,0.4,0.2,0.6,0.2c0.2,0,0.4,0,0.7-0.2
				l-0.1,3.5h-0.3c0-0.5-0.1-1-0.3-1.4c-0.2-0.4-0.4-0.8-0.7-1.2c-0.3-0.3-0.7-0.6-1.1-0.8c-0.4-0.2-0.9-0.3-1.4-0.3
				c-0.3,0-0.5,0-0.8,0.1c-0.3,0.1-0.5,0.2-0.7,0.4c-0.2,0.2-0.4,0.4-0.5,0.6c-0.1,0.2-0.2,0.5-0.2,0.8c0,0.4,0.2,0.8,0.5,1.2
				c0.4,0.3,0.8,0.7,1.3,1c0.5,0.3,1.1,0.6,1.7,0.9c0.6,0.3,1.2,0.6,1.7,1c0.5,0.4,1,0.8,1.3,1.2c0.4,0.5,0.5,1,0.5,1.6
				c0,0.5-0.1,1-0.3,1.4c-0.2,0.4-0.5,0.8-0.9,1.2c-0.4,0.3-0.8,0.6-1.3,0.8c-0.5,0.2-1.1,0.3-1.7,0.3c-0.5,0-0.8,0-1.2-0.1
				c-0.3-0.1-0.6-0.2-0.9-0.3c-0.1,0-0.3-0.1-0.4-0.2c-0.1-0.1-0.3-0.2-0.4-0.2c-0.2-0.1-0.4-0.1-0.6-0.2c-0.2-0.1-0.5-0.1-0.9-0.1
				v-3.3H109.7z"/>
			<path class="st2" d="M122.5,32.5h2.6c0.4,0,0.7,0,1,0c0.3,0,0.5,0,0.7-0.1c0.2,0,0.3-0.1,0.4-0.2c0.1-0.1,0.1-0.3,0.1-0.5h0.3
				v2.7h-0.3c0-0.3,0-0.5-0.1-0.7c-0.1-0.2-0.2-0.3-0.4-0.3c-0.2-0.1-0.4-0.1-0.7-0.1c-0.3,0-0.6,0-1,0h-2.6v3.4c0,0.2,0,0.4,0,0.7
				c0,0.3,0.1,0.5,0.2,0.7c0.1,0.2,0.4,0.4,0.7,0.6c0.3,0.2,0.7,0.2,1.3,0.2h1.5c0.4,0,0.8,0,1.1-0.1c0.3-0.1,0.5-0.2,0.7-0.4
				c0.2-0.2,0.4-0.5,0.5-0.8c0.1-0.3,0.3-0.7,0.4-1.1h0.5l-0.7,3.2h-8.1V29.2c0-0.4,0-0.7,0-1c0-0.3-0.1-0.5-0.2-0.7
				c-0.1-0.2-0.3-0.3-0.5-0.3c-0.2-0.1-0.6-0.1-1-0.1v-0.4h9.8l0.2,2.8h-0.4c-0.1-0.5-0.2-0.9-0.3-1.1c-0.1-0.3-0.3-0.5-0.5-0.6
				c-0.2-0.1-0.5-0.2-0.8-0.3c-0.3,0-0.7-0.1-1.1-0.1h-3.3V32.5z"/>
			<path class="st2" d="M132.4,29.2c0-0.4,0-0.7,0-1c0-0.3-0.1-0.5-0.2-0.7c-0.1-0.2-0.3-0.3-0.5-0.3c-0.2-0.1-0.6-0.1-1-0.1v-0.4
				h5.9c0.9,0,1.7,0.1,2.3,0.3c0.6,0.2,1.1,0.4,1.5,0.8c0.4,0.3,0.7,0.7,0.9,1.1c0.2,0.4,0.3,0.8,0.3,1.3c0,0.7-0.2,1.3-0.7,1.8
				c-0.4,0.5-1,0.8-1.6,1v0c0.4,0.1,0.7,0.2,1.1,0.3c0.3,0.2,0.6,0.4,0.9,0.6c0.3,0.3,0.5,0.5,0.6,0.9c0.2,0.3,0.2,0.7,0.2,1.1
				c0,0.3-0.1,0.6-0.2,1c-0.1,0.4-0.3,0.8-0.7,1.2c-0.3,0.4-0.8,0.7-1.5,1c-0.6,0.3-1.5,0.4-2.6,0.4h-4.7V29.2z M134.2,38.6
				c0.7,0.2,1.4,0.2,2.2,0.2c0.4,0,0.8,0,1.2-0.1c0.4-0.1,0.8-0.2,1.1-0.5c0.3-0.2,0.6-0.5,0.8-0.8c0.2-0.3,0.3-0.7,0.3-1.2
				c0-0.6-0.1-1-0.4-1.4c-0.2-0.4-0.6-0.7-0.9-0.9c-0.4-0.2-0.8-0.4-1.3-0.5c-0.5-0.1-1-0.1-1.4-0.1l-1.6,0.1L134.2,38.6z M138,32.4
				c0.4-0.2,0.7-0.4,1-0.7c0.2-0.3,0.4-0.6,0.4-0.8c0.1-0.3,0.1-0.5,0.1-0.7c0-0.5-0.1-0.9-0.3-1.3c-0.2-0.3-0.5-0.6-0.8-0.8
				c-0.3-0.2-0.7-0.4-1.2-0.5c-0.4-0.1-0.9-0.1-1.3-0.1c-0.3,0-0.6,0.1-0.8,0.3c-0.2,0.2-0.4,0.5-0.6,0.9c-0.2,0.4-0.3,1-0.3,1.8
				v2.3l2.1,0C137.1,32.7,137.6,32.6,138,32.4z"/>
			<path class="st2" d="M155.5,35.5c0.1,0.8,0.3,1.4,0.6,1.9c0.3,0.5,0.6,0.8,1,1.1c0.4,0.3,0.8,0.4,1.2,0.5c0.4,0.1,0.7,0.1,1,0.1
				c0.3,0,0.6,0,0.9-0.1c0.3-0.1,0.6-0.2,0.8-0.4c0.2-0.2,0.4-0.4,0.6-0.7c0.1-0.3,0.2-0.6,0.2-0.9c0-0.5-0.2-0.9-0.5-1.3
				c-0.3-0.4-0.7-0.7-1.2-1c-0.5-0.3-1-0.6-1.6-0.9c-0.6-0.3-1.1-0.6-1.6-1c-0.5-0.4-0.9-0.8-1.2-1.2c-0.3-0.5-0.5-1-0.5-1.7
				c0-0.5,0.1-0.9,0.3-1.4c0.2-0.4,0.5-0.8,0.8-1.1c0.3-0.3,0.7-0.5,1.2-0.7c0.4-0.2,0.9-0.3,1.4-0.3c0.3,0,0.7,0,1,0.1
				c0.3,0.1,0.5,0.2,0.8,0.2c0.1,0.1,0.2,0.1,0.4,0.3c0.2,0.1,0.3,0.2,0.5,0.3c0.2,0.1,0.4,0.2,0.6,0.2c0.2,0,0.4,0,0.7-0.2
				l-0.1,3.5h-0.3c0-0.5-0.1-1-0.3-1.4c-0.2-0.4-0.4-0.8-0.7-1.2c-0.3-0.3-0.7-0.6-1.1-0.8c-0.4-0.2-0.9-0.3-1.4-0.3
				c-0.3,0-0.5,0-0.8,0.1c-0.3,0.1-0.5,0.2-0.7,0.4c-0.2,0.2-0.4,0.4-0.5,0.6c-0.1,0.2-0.2,0.5-0.2,0.8c0,0.4,0.2,0.8,0.5,1.2
				c0.4,0.3,0.8,0.7,1.3,1c0.5,0.3,1.1,0.6,1.7,0.9c0.6,0.3,1.2,0.6,1.7,1c0.5,0.4,1,0.8,1.3,1.2c0.4,0.5,0.5,1,0.5,1.6
				c0,0.5-0.1,1-0.3,1.4c-0.2,0.4-0.5,0.8-0.8,1.2c-0.4,0.3-0.8,0.6-1.3,0.8c-0.5,0.2-1.1,0.3-1.7,0.3c-0.5,0-0.8,0-1.2-0.1
				c-0.3-0.1-0.6-0.2-0.9-0.3c-0.1,0-0.2-0.1-0.4-0.2c-0.1-0.1-0.3-0.2-0.4-0.2c-0.2-0.1-0.4-0.1-0.6-0.2c-0.2-0.1-0.5-0.1-0.9-0.1
				v-3.3H155.5z"/>
			<path class="st2" d="M169.2,27.6h-1.1c-1.1,0-1.8,0.2-2.2,0.5c-0.4,0.3-0.6,0.9-0.9,2h-0.5l0.1-3.3h10.9l0.1,3.3h-0.5
				c-0.2-1.1-0.5-1.7-0.9-2c-0.3-0.3-1.1-0.5-2.2-0.5h-1.1v12h-1.9V27.6z"/>
			<path class="st2" d="M178.2,26.8h1.8v12.8h-1.8V26.8z"/>
			<path class="st2" d="M205.2,26.8L205.2,26.8l-0.8,0v9.6h0l-0.1-0.1v0l-7.7-9.4h0l0,0h-0.9c0,0,0,2.3,0,2.7v10.1h0.8V29.5h0
				l8.4,10.3h0.2l0,0h0.4V28.9c0-0.4,0-0.7,0-0.9c0-0.2,0.1-0.4,0.2-0.6c0.1-0.1,0.3-0.3,0.5-0.3c0.2-0.1,0.4-0.1,0.8-0.1v-0.3
				H205.2z"/>
			<path class="st2" d="M84.1,26.5h-0.3L78,39.6h3.2v-0.3c-0.2,0-0.4,0-0.5-0.1c-0.2,0-0.3-0.1-0.5-0.1c-0.1-0.1-0.3-0.1-0.4-0.2
				c-0.1-0.1-0.1-0.2-0.1-0.4c0-0.2,0.1-0.4,0.2-0.7c0.1-0.2,0.2-0.4,0.2-0.5l0,0l0.1-0.2l0.7-1.8h5l1.7,4.3h1.7L84.1,26.5z
				 M81.2,34.6l2.2-5.2l2.2,5.2H81.2z"/>
			<path class="st2" d="M101.1,26.8L101.1,26.8l-0.8,0v9.6h0l-0.1-0.1v0l-7.7-9.4h0l0,0h-0.9c0,0,0,2.3,0,2.7v10.1h0.8v-9.8v0v-0.2
				h0l8.4,10.3h0.2l0,0h0.4V28.9c0-0.4,0-0.7,0-0.9c0-0.2,0.1-0.4,0.2-0.6c0.1-0.1,0.3-0.3,0.5-0.3c0.2-0.1,0.4-0.1,0.8-0.1v-0.3
				H101.1z"/>
			<path class="st2" d="M149.2,26.5h-0.3l-5.8,13.1h3.2v-0.3c-0.2,0-0.4,0-0.5-0.1c-0.2,0-0.3-0.1-0.5-0.1c-0.1-0.1-0.3-0.1-0.3-0.2
				c-0.1-0.1-0.1-0.2-0.1-0.4c0-0.2,0.1-0.4,0.2-0.7c0.1-0.2,0.1-0.4,0.2-0.5h0l0.1-0.2l0.7-1.8h5l1.7,4.3h1.7L149.2,26.5z
				 M146.3,34.5l2.2-5.2l2.2,5.2H146.3z"/>
			<path class="st2" d="M69.2,35.5c0.1,0.8,0.3,1.4,0.6,1.9c0.3,0.5,0.6,0.8,1,1.1c0.4,0.3,0.8,0.4,1.2,0.5c0.4,0.1,0.7,0.1,1,0.1
				c0.3,0,0.6,0,0.9-0.1c0.3-0.1,0.6-0.2,0.8-0.4c0.2-0.2,0.4-0.4,0.6-0.7c0.1-0.3,0.2-0.6,0.2-0.9c0-0.5-0.2-0.9-0.5-1.3
				c-0.3-0.4-0.7-0.7-1.2-1c-0.5-0.3-1-0.6-1.6-0.9c-0.6-0.3-1.1-0.6-1.6-1c-0.5-0.4-0.9-0.8-1.2-1.2c-0.3-0.5-0.5-1-0.5-1.7
				c0-0.5,0.1-0.9,0.3-1.4c0.2-0.4,0.5-0.8,0.8-1.1c0.3-0.3,0.7-0.5,1.2-0.7c0.4-0.2,0.9-0.3,1.4-0.3c0.4,0,0.7,0,1,0.1
				c0.3,0.1,0.5,0.2,0.8,0.2c0.1,0.1,0.3,0.1,0.4,0.3c0.2,0.1,0.3,0.2,0.5,0.3c0.2,0.1,0.4,0.2,0.6,0.2c0.2,0,0.4,0,0.7-0.2
				l-0.1,3.5H76c0-0.5-0.1-1-0.3-1.4c-0.2-0.5-0.4-0.8-0.7-1.2c-0.3-0.3-0.7-0.6-1.1-0.8c-0.4-0.2-0.9-0.3-1.4-0.3
				c-0.3,0-0.5,0-0.8,0.1c-0.3,0.1-0.5,0.2-0.7,0.4c-0.2,0.2-0.4,0.4-0.5,0.6c-0.1,0.2-0.2,0.5-0.2,0.8c0,0.4,0.2,0.8,0.5,1.2
				c0.4,0.3,0.8,0.7,1.3,1c0.5,0.3,1.1,0.6,1.7,0.9c0.6,0.3,1.2,0.6,1.7,1c0.5,0.4,1,0.8,1.3,1.2c0.4,0.5,0.5,1,0.5,1.6
				c0,0.5-0.1,1-0.3,1.4c-0.2,0.4-0.5,0.8-0.9,1.2c-0.4,0.3-0.8,0.6-1.3,0.8c-0.5,0.2-1.1,0.3-1.7,0.3c-0.5,0-0.8,0-1.2-0.1
				c-0.3-0.1-0.6-0.2-0.9-0.3c-0.1,0-0.3-0.1-0.4-0.2c-0.1-0.1-0.3-0.2-0.4-0.2c-0.2-0.1-0.4-0.1-0.6-0.2c-0.2-0.1-0.5-0.1-0.9-0.1
				v-3.3H69.2z"/>
			<g>
				<path class="st2" d="M190.2,35.2h-5l-0.8,1.8c-0.1,0.2-0.2,0.4-0.3,0.6c-0.1,0.3-0.2,0.5-0.2,0.7c0,0.2,0,0.3,0.1,0.4
					c0.1,0.1,0.2,0.2,0.3,0.2c0.1,0.1,0.3,0.1,0.5,0.1c0.2,0,0.4,0,0.5,0.1v0.3h-3.2l5.8-13.1h0.3l5.2,13.1h-1.7L190.2,35.2z
					 M187.7,29.4l-2.2,5.2h4.4L187.7,29.4z"/>
			</g>
		</g>
		<g>
			<g>
				<path class="st2" d="M72.6,51.3l-1.7-4.1h-1.5v0.5l0.1,0c0.1,0,0.2,0,0.2,0.1c0.1,0,0.1,0.1,0.2,0.2c0.1,0.1,0.1,0.2,0.2,0.2
					c0,0.1,0.1,0.2,0.1,0.3l2,4.6h0.4l2.4-5.9h-0.7L72.6,51.3z"/>
				<path class="st2" d="M80.6,48c-0.3-0.3-0.6-0.5-0.9-0.6c-0.7-0.3-1.5-0.3-2.2,0c-0.3,0.1-0.6,0.4-0.9,0.6
					c-0.2,0.3-0.4,0.6-0.6,0.9c-0.1,0.4-0.2,0.8-0.2,1.2s0.1,0.8,0.2,1.2c0.1,0.4,0.3,0.7,0.6,0.9c0.3,0.3,0.6,0.5,0.9,0.6
					c0.3,0.1,0.7,0.2,1.1,0.2c0.4,0,0.8-0.1,1.1-0.2c0.3-0.1,0.6-0.4,0.9-0.6c0.2-0.3,0.4-0.6,0.6-0.9c0.1-0.4,0.2-0.8,0.2-1.2
					c0-0.4-0.1-0.8-0.2-1.2C81.1,48.5,80.9,48.2,80.6,48z M77.4,51.8c-0.2-0.2-0.3-0.4-0.4-0.7c-0.1-0.3-0.1-0.6-0.1-1
					c0-0.4,0-0.7,0.1-1c0.1-0.3,0.2-0.5,0.4-0.7c0.2-0.2,0.3-0.3,0.6-0.4c0.2-0.1,0.4-0.2,0.7-0.2c0.2,0,0.5,0.1,0.7,0.2
					c0.2,0.1,0.4,0.3,0.6,0.4c0.2,0.2,0.3,0.4,0.4,0.7c0.1,0.3,0.1,0.6,0.1,1c0,0.4,0,0.7-0.1,1c-0.1,0.3-0.2,0.5-0.4,0.7
					c-0.2,0.2-0.3,0.3-0.6,0.4c-0.4,0.2-1,0.2-1.4,0C77.7,52.2,77.6,52,77.4,51.8z"/>
				<path class="st2" d="M91.1,47.1L88.5,53h1.8v-0.5l-0.2,0c-0.1,0-0.1,0-0.2,0c-0.1,0-0.1,0-0.2,0c0,0-0.1,0-0.1-0.1
					c0,0,0-0.1,0-0.1c0,0,0-0.1,0.1-0.2c0-0.1,0.1-0.2,0.1-0.3l0.3-0.7H92l0.7,1.8h1.1l-2.3-5.9H91.1z M90.4,50.5l0.7-1.6l0.7,1.6
					H90.4z"/>
				<rect x="100.8" y="47.2" class="st2" width="1.1" height="5.8"/>
				<path class="st2" d="M107.6,48c-0.3-0.3-0.6-0.5-0.9-0.6c-0.7-0.3-1.5-0.3-2.2,0c-0.3,0.1-0.6,0.4-0.9,0.6
					c-0.2,0.3-0.4,0.6-0.6,0.9c-0.1,0.4-0.2,0.8-0.2,1.2c0,0.4,0.1,0.8,0.2,1.2c0.1,0.4,0.3,0.7,0.6,0.9c0.3,0.3,0.6,0.5,0.9,0.6
					c0.3,0.1,0.7,0.2,1.1,0.2c0.4,0,0.8-0.1,1.1-0.2c0.3-0.1,0.6-0.4,0.9-0.6c0.2-0.3,0.4-0.6,0.6-0.9c0.1-0.4,0.2-0.8,0.2-1.2
					c0-0.4-0.1-0.8-0.2-1.2C108.1,48.5,107.9,48.2,107.6,48z M104.4,51.8c-0.2-0.2-0.3-0.4-0.4-0.7c-0.1-0.3-0.1-0.6-0.1-1
					c0-0.4,0-0.7,0.1-1c0.1-0.3,0.2-0.5,0.4-0.7c0.2-0.2,0.3-0.3,0.6-0.4c0.2-0.1,0.4-0.2,0.7-0.2c0.2,0,0.5,0.1,0.7,0.2
					c0.2,0.1,0.4,0.3,0.6,0.4c0.2,0.2,0.3,0.4,0.4,0.7c0.1,0.3,0.1,0.6,0.1,1c0,0.4,0,0.7-0.1,1c-0.1,0.3-0.2,0.5-0.4,0.7
					c-0.2,0.2-0.3,0.3-0.6,0.4c-0.4,0.2-1,0.2-1.4,0C104.7,52.2,104.5,52,104.4,51.8z"/>
				<path class="st2" d="M122.8,47.7c-0.2-0.2-0.4-0.3-0.7-0.4c-0.3-0.1-0.6-0.1-0.9-0.1h-2.4v0.5h0.2c0.2,0,0.3,0,0.4,0
					c0.1,0,0.1,0,0.1,0.1c0,0,0.1,0.1,0.1,0.2c0,0.1,0,0.3,0,0.4V53h1.1v-2.6c0.1,0,0.1,0.1,0.2,0.1c0.1,0,0.2,0.1,0.3,0.1
					c0.1,0,0.2,0,0.3,0c0.4,0,0.7-0.1,0.9-0.2c0.2-0.1,0.4-0.3,0.6-0.5c0.1-0.2,0.2-0.4,0.3-0.5c0-0.2,0.1-0.3,0.1-0.5
					c0-0.2,0-0.4-0.1-0.6C123.1,48.1,122.9,47.9,122.8,47.7z M120.7,48.4c0-0.2,0-0.3,0-0.4c0-0.1,0.1-0.1,0.1-0.1c0,0,0.1,0,0.1,0
					c0.2,0,0.4,0,0.6,0.1c0.1,0.1,0.2,0.1,0.3,0.2c0.1,0.1,0.1,0.2,0.2,0.3c0,0.1,0.1,0.3,0.1,0.4c0,0.1,0,0.3-0.1,0.4
					c0,0.1-0.1,0.2-0.2,0.3c-0.1,0.1-0.1,0.2-0.2,0.2c-0.2,0.1-0.4,0.1-0.6,0.1c-0.1,0-0.2,0-0.3-0.1l0,0V48.4z"/>
				<path class="st2" d="M129.1,48c-0.3-0.3-0.6-0.5-0.9-0.6c-0.7-0.3-1.5-0.3-2.2,0c-0.3,0.1-0.6,0.4-0.9,0.6
					c-0.2,0.3-0.4,0.6-0.6,0.9c-0.1,0.4-0.2,0.8-0.2,1.2c0,0.4,0.1,0.8,0.2,1.2c0.1,0.4,0.3,0.7,0.6,0.9c0.3,0.3,0.6,0.5,0.9,0.6
					c0.3,0.1,0.7,0.2,1.1,0.2c0.4,0,0.8-0.1,1.1-0.2c0.3-0.1,0.6-0.4,0.9-0.6c0.2-0.3,0.4-0.6,0.6-0.9c0.1-0.4,0.2-0.8,0.2-1.2
					c0-0.4-0.1-0.8-0.2-1.2C129.6,48.5,129.4,48.2,129.1,48z M125.9,51.8c-0.2-0.2-0.3-0.4-0.4-0.7c-0.1-0.3-0.1-0.6-0.1-1
					c0-0.4,0-0.7,0.1-1c0.1-0.3,0.2-0.5,0.4-0.7c0.2-0.2,0.3-0.3,0.6-0.4c0.2-0.1,0.4-0.2,0.7-0.2c0.2,0,0.5,0.1,0.7,0.2
					c0.2,0.1,0.4,0.3,0.6,0.4c0.2,0.2,0.3,0.4,0.4,0.7c0.1,0.3,0.1,0.6,0.1,1c0,0.4,0,0.7-0.1,1c-0.1,0.3-0.2,0.5-0.4,0.7
					c-0.2,0.2-0.3,0.3-0.6,0.4c-0.4,0.2-1,0.2-1.4,0C126.2,52.2,126,52,125.9,51.8z"/>
				<path class="st2" d="M135.4,52.4c-0.1,0-0.2-0.1-0.3-0.2c-0.1-0.1-0.2-0.2-0.3-0.3c-0.1-0.1-0.2-0.2-0.3-0.4l-0.9-1.3
					c0.1,0,0.2-0.1,0.3-0.1c0.2-0.1,0.3-0.2,0.5-0.3c0.1-0.1,0.2-0.3,0.3-0.4c0.1-0.2,0.1-0.4,0.1-0.6c0-0.1,0-0.3-0.1-0.5
					c-0.1-0.2-0.2-0.4-0.3-0.5c-0.2-0.2-0.4-0.3-0.6-0.4c-0.3-0.1-0.6-0.2-1-0.2h-2.5v0.5h0.2c0.2,0,0.3,0,0.4,0
					c0.1,0,0.1,0,0.1,0.1c0,0,0.1,0.1,0.1,0.2c0,0.1,0,0.3,0,0.4V53h1.1v-3l2.2,3h1.7v-0.5l-0.1,0C135.7,52.5,135.6,52.5,135.4,52.4
					z M132.2,49.9v-1.4c0-0.2,0-0.3,0.1-0.4c0-0.1,0.1-0.1,0.1-0.2c0,0,0.1,0,0.1-0.1c0.3,0,0.4,0,0.6,0.1c0.1,0,0.2,0.1,0.3,0.2
					c0.1,0.1,0.1,0.2,0.2,0.3c0,0.1,0.1,0.3,0.1,0.4c0,0.2,0,0.4-0.1,0.5c-0.1,0.1-0.2,0.2-0.3,0.3c-0.1,0.1-0.2,0.1-0.4,0.2
					c-0.2,0-0.3,0.1-0.5,0.1H132.2z"/>
				<path class="st2" d="M144.1,51.4c-0.1,0.2-0.1,0.3-0.2,0.5c-0.1,0.1-0.1,0.2-0.2,0.3c-0.1,0.1-0.2,0.1-0.3,0.1
					c-0.1,0-0.2,0.1-0.4,0.1h-0.6c-0.2,0-0.4,0-0.5-0.1c-0.1-0.1-0.2-0.1-0.2-0.2c0-0.1-0.1-0.2-0.1-0.2c0-0.1,0-0.2,0-0.3v-4.4
					h-1.9v0.5h0.2c0.2,0,0.3,0,0.4,0c0.1,0,0.1,0,0.1,0.1c0,0,0.1,0.1,0.1,0.2c0,0.1,0,0.3,0,0.4V53h3.7l0.4-1.7h-0.6L144.1,51.4z"
					/>
				<path class="st2" d="M147.7,47.1l-2.6,5.9h1.8v-0.5l-0.2,0c-0.1,0-0.1,0-0.2,0c-0.1,0-0.1,0-0.2,0c0,0-0.1,0-0.1-0.1
					c0,0,0-0.1,0-0.1c0,0,0-0.1,0.1-0.2c0-0.1,0.1-0.2,0.1-0.3l0.3-0.7h1.9l0.7,1.8h1.1l-2.3-5.9H147.7z M147,50.5l0.7-1.6l0.7,1.6
					H147z"/>
				<path class="st2" d="M158,51.4c-0.1,0.2-0.1,0.3-0.2,0.5c-0.1,0.1-0.1,0.2-0.2,0.3c-0.1,0.1-0.2,0.1-0.3,0.1
					c-0.1,0-0.2,0.1-0.4,0.1h-0.6c-0.2,0-0.4,0-0.5-0.1c-0.1-0.1-0.2-0.1-0.2-0.2c0-0.1-0.1-0.2-0.1-0.2c0-0.1,0-0.2,0-0.3v-1.3h1.4
					c0.1,0,0.2,0,0.3,0c0,0,0.1,0,0.1,0.1c0,0,0,0.1,0,0.2v0.2h0.5v-1.5h-0.5v0.2c0,0.1,0,0.1,0,0.1c0,0,0,0-0.1,0
					c-0.1,0-0.2,0-0.3,0h-1.3v-1.8h1.2c0.2,0,0.3,0,0.5,0c0.1,0,0.2,0,0.3,0.1c0.1,0,0.1,0.1,0.2,0.2c0,0.1,0.1,0.3,0.1,0.5l0,0.1
					h0.5l-0.1-1.5h-4.5v0.5h0.2c0.2,0,0.3,0,0.4,0c0.1,0,0.1,0,0.1,0.1c0,0,0.1,0.1,0.1,0.2c0,0.1,0,0.3,0,0.4V53h3.7l0.4-1.7H158
					L158,51.4z"/>
				<path class="st2" d="M165,52.5c-0.1,0-0.1,0-0.2-0.1c-0.1,0-0.1-0.1-0.2-0.2c-0.1-0.1-0.2-0.2-0.3-0.4l-1.4-2l0.9-1.2
					c0.1-0.1,0.2-0.2,0.3-0.3c0.1-0.1,0.2-0.2,0.3-0.3c0.1-0.1,0.2-0.2,0.3-0.2c0.1,0,0.2-0.1,0.4-0.1h0.2v-0.5h-1.2l-1.5,2l-1.3-2
					h-1.7v0.4l0.4,0.1c0.1,0,0.1,0,0.2,0.1c0.1,0,0.1,0.1,0.2,0.2c0.1,0.1,0.2,0.2,0.3,0.4l1.2,1.8l-1.1,1.4
					c-0.1,0.1-0.2,0.2-0.3,0.3c-0.1,0.1-0.2,0.2-0.3,0.3c-0.1,0.1-0.2,0.2-0.3,0.2c-0.1,0.1-0.2,0.1-0.4,0.1l-0.1,0V53h1.1l1.8-2.3
					l1.5,2.3h1.7v-0.5l-0.2,0C165.2,52.5,165.1,52.5,165,52.5z"/>
				<path class="st2" d="M170.7,47.6c-0.1,0-0.1,0-0.2,0c-0.1,0-0.1-0.1-0.1-0.1l-0.1-0.1c-0.2-0.1-0.4-0.2-0.6-0.2
					c-0.2-0.1-0.4-0.1-0.6-0.1c-0.4,0-0.8,0.1-1.2,0.2c-0.4,0.2-0.7,0.4-0.9,0.7c-0.3,0.3-0.5,0.6-0.6,1c-0.1,0.4-0.2,0.8-0.2,1.2
					c0,0.4,0.1,0.8,0.2,1.1c0.1,0.4,0.3,0.7,0.6,0.9c0.2,0.3,0.5,0.5,0.9,0.6c0.3,0.1,0.7,0.2,1.1,0.2c0.6,0,1-0.1,1.4-0.4
					c0.4-0.2,0.7-0.6,1-1.1l0.1-0.1l-0.4-0.3l-0.1,0.1c-0.1,0.2-0.2,0.3-0.4,0.5c-0.1,0.1-0.2,0.2-0.4,0.3c-0.1,0.1-0.3,0.2-0.4,0.2
					c-0.3,0.1-0.8,0.1-1.2,0c-0.2-0.1-0.4-0.2-0.6-0.4c-0.2-0.2-0.3-0.4-0.4-0.7c-0.1-0.3-0.2-0.6-0.2-1.1c0-0.4,0-0.8,0.1-1.1
					c0.1-0.3,0.2-0.6,0.4-0.8c0.2-0.2,0.3-0.3,0.5-0.4c0.4-0.2,0.9-0.2,1.3,0c0.2,0.1,0.3,0.2,0.5,0.3c0.1,0.1,0.2,0.3,0.3,0.4
					c0.1,0.2,0.2,0.4,0.2,0.6l0,0.1h0.4l-0.1-1.6"/>
				<path class="st2" d="M176.4,51.4c-0.1,0.2-0.1,0.3-0.2,0.5c-0.1,0.1-0.1,0.2-0.2,0.3c-0.1,0.1-0.2,0.1-0.2,0.1
					c-0.1,0-0.2,0.1-0.4,0.1h-0.6c-0.2,0-0.4,0-0.5-0.1c-0.1-0.1-0.2-0.1-0.2-0.2c0-0.1-0.1-0.2-0.1-0.2c0-0.1,0-0.2,0-0.3v-1.3h1.4
					c0.1,0,0.2,0,0.3,0c0,0,0.1,0,0.1,0.1c0,0,0,0.1,0,0.2v0.2h0.5v-1.5h-0.5v0.2c0,0.1,0,0.1,0,0.1c0,0,0,0-0.1,0
					c-0.1,0-0.2,0-0.3,0H174v-1.8h1.2c0.2,0,0.3,0,0.5,0c0.1,0,0.2,0,0.3,0.1c0.1,0,0.1,0.1,0.2,0.2c0,0.1,0.1,0.3,0.1,0.5l0,0.1
					h0.5l-0.1-1.5h-4.5v0.5h0.2c0.2,0,0.3,0,0.4,0c0.1,0,0.1,0,0.1,0.1c0,0,0.1,0.1,0.1,0.2c0,0.1,0,0.3,0,0.4V53h3.7l0.4-1.7h-0.6
					L176.4,51.4z"/>
				<path class="st2" d="M182,51.4c-0.1,0.2-0.1,0.3-0.2,0.5c-0.1,0.1-0.1,0.2-0.2,0.3c-0.1,0.1-0.2,0.1-0.3,0.1
					c-0.1,0-0.2,0.1-0.4,0.1h-0.6c-0.2,0-0.4,0-0.5-0.1c-0.1-0.1-0.2-0.1-0.2-0.2c0-0.1-0.1-0.2-0.1-0.2c0-0.1,0-0.2,0-0.3v-4.4
					h-1.9v0.5h0.2c0.2,0,0.3,0,0.4,0c0.1,0,0.1,0,0.1,0.1c0,0,0.1,0.1,0.1,0.2c0,0.1,0,0.3,0,0.4V53h3.7l0.4-1.7H182L182,51.4z"/>
				<path class="st2" d="M187.5,51.4c-0.1,0.2-0.1,0.3-0.2,0.5c-0.1,0.1-0.1,0.2-0.2,0.3c-0.1,0.1-0.2,0.1-0.3,0.1
					c-0.1,0-0.2,0.1-0.4,0.1h-0.6c-0.2,0-0.4,0-0.5-0.1c-0.1-0.1-0.2-0.1-0.2-0.2c0-0.1-0.1-0.2-0.1-0.2c0-0.1,0-0.2,0-0.3v-1.3h1.4
					c0.1,0,0.2,0,0.3,0c0,0,0.1,0,0.1,0.1c0,0,0,0.1,0,0.2v0.2h0.5v-1.5h-0.5v0.2c0,0.1,0,0.1,0,0.1c0,0,0,0-0.1,0
					c-0.1,0-0.2,0-0.3,0h-1.3v-1.8h1.2c0.2,0,0.3,0,0.5,0c0.1,0,0.2,0,0.3,0.1c0.1,0,0.1,0.1,0.2,0.2c0,0.1,0.1,0.3,0.1,0.5l0,0.1
					h0.5l-0.1-1.5h-4.5v0.5h0.2c0.2,0,0.3,0,0.4,0c0.1,0,0.1,0,0.1,0.1c0,0,0.1,0.1,0.1,0.2c0,0.1,0,0.3,0,0.4V53h3.7l0.4-1.7h-0.6
					L187.5,51.4z"/>
				<rect x="200.6" y="47.2" class="st2" width="1.1" height="5.8"/>
				<path class="st2" d="M205.4,47.1H205l-2.6,5.9h1.8v-0.5l-0.2,0c-0.1,0-0.1,0-0.2,0c-0.1,0-0.1,0-0.2,0c0,0-0.1,0-0.1-0.1
					c0,0,0-0.1,0-0.1c0,0,0-0.1,0.1-0.2c0-0.1,0.1-0.2,0.1-0.3l0.3-0.7h1.9l0.7,1.8h1.1L205.4,47.1z M204.3,50.5l0.7-1.6l0.7,1.6
					H204.3z"/>
				<path class="st2" d="M113.8,47.8c0-0.1,0-0.1,0.1-0.2c0-0.1,0.1-0.1,0.2-0.1c0.1,0,0.2,0,0.3,0v-0.2h-0.8v0l-0.6,0V51l-3.1-3.8
					h-0.2l0.2,0h-0.7c0,0,0,1,0,1.2V53h0.7l0-2.8l0-1.2l3.4,4.1h0.1l0,0h0.3"/>
				<path class="st2" d="M199.2,47.6c-0.1,0-0.1,0-0.2,0c-0.1,0-0.1-0.1-0.1-0.1l-0.1-0.1c-0.2-0.1-0.4-0.2-0.6-0.2
					c-0.2-0.1-0.4-0.1-0.6-0.1c-0.4,0-0.8,0.1-1.2,0.2c-0.4,0.2-0.7,0.4-0.9,0.7c-0.3,0.3-0.5,0.6-0.6,1c-0.1,0.4-0.2,0.8-0.2,1.2
					c0,0.4,0.1,0.8,0.2,1.1c0.1,0.4,0.3,0.7,0.6,0.9c0.2,0.3,0.5,0.5,0.9,0.6c0.3,0.1,0.7,0.2,1.1,0.2c0.6,0,1-0.1,1.4-0.4
					c0.4-0.2,0.7-0.6,1-1.1l0.1-0.1l-0.4-0.3l-0.1,0.1c-0.1,0.2-0.2,0.3-0.4,0.5c-0.1,0.1-0.2,0.2-0.4,0.3c-0.1,0.1-0.3,0.2-0.4,0.2
					c-0.3,0.1-0.8,0.1-1.2,0c-0.2-0.1-0.4-0.2-0.6-0.4c-0.2-0.2-0.3-0.4-0.4-0.7c-0.1-0.3-0.2-0.6-0.2-1.1c0-0.4,0-0.8,0.1-1.1
					c0.1-0.3,0.2-0.6,0.4-0.8c0.2-0.2,0.3-0.3,0.5-0.4c0.4-0.2,0.9-0.2,1.3,0c0.2,0.1,0.3,0.2,0.5,0.3c0.1,0.1,0.2,0.3,0.3,0.4
					c0.1,0.2,0.2,0.4,0.2,0.6l0,0.1h0.4l-0.1-1.6"/>
				<path class="st2" d="M87,47.6c-0.1,0-0.1,0-0.2,0c-0.1,0-0.1-0.1-0.1-0.1l-0.1-0.1c-0.2-0.1-0.4-0.2-0.6-0.2
					c-0.2-0.1-0.4-0.1-0.6-0.1c-0.4,0-0.8,0.1-1.2,0.2c-0.4,0.2-0.7,0.4-0.9,0.7c-0.3,0.3-0.5,0.6-0.6,1c-0.1,0.4-0.2,0.8-0.2,1.2
					c0,0.4,0.1,0.8,0.2,1.1c0.1,0.4,0.3,0.7,0.6,0.9c0.2,0.3,0.5,0.5,0.9,0.6c0.3,0.1,0.7,0.2,1.1,0.2c0.6,0,1-0.1,1.4-0.4
					c0.4-0.2,0.7-0.6,1-1.1l0.1-0.1l-0.4-0.3l-0.1,0.1c-0.1,0.2-0.2,0.3-0.4,0.5c-0.1,0.1-0.2,0.2-0.4,0.3c-0.1,0.1-0.3,0.2-0.4,0.2
					c-0.3,0.1-0.8,0.1-1.2,0c-0.2-0.1-0.4-0.2-0.6-0.4c-0.2-0.2-0.3-0.4-0.4-0.7c-0.1-0.3-0.2-0.6-0.2-1.1c0-0.4,0-0.8,0.1-1.1
					c0.1-0.3,0.2-0.6,0.4-0.8c0.2-0.2,0.3-0.3,0.5-0.4c0.4-0.2,0.9-0.2,1.3,0c0.2,0.1,0.3,0.2,0.5,0.3c0.1,0.1,0.2,0.3,0.3,0.4
					c0.1,0.2,0.2,0.4,0.2,0.6l0,0.1h0.4l-0.1-1.6"/>
				<path class="st2" d="M99.3,47.6c-0.1,0-0.1,0-0.2,0c-0.1,0-0.1-0.1-0.1-0.1l-0.1-0.1c-0.2-0.1-0.4-0.2-0.6-0.2
					c-0.2-0.1-0.4-0.1-0.6-0.1c-0.4,0-0.8,0.1-1.2,0.2c-0.4,0.2-0.7,0.4-0.9,0.7c-0.3,0.3-0.5,0.6-0.6,1c-0.1,0.4-0.2,0.8-0.2,1.2
					c0,0.4,0.1,0.8,0.2,1.1c0.1,0.4,0.3,0.7,0.6,0.9c0.2,0.3,0.5,0.5,0.9,0.6c0.3,0.1,0.7,0.2,1.1,0.2c0.6,0,1-0.1,1.4-0.4
					c0.4-0.2,0.7-0.6,1-1.1l0.1-0.1l-0.4-0.3l-0.1,0.1c-0.1,0.2-0.2,0.3-0.4,0.5c-0.1,0.1-0.2,0.2-0.4,0.3c-0.1,0.1-0.3,0.2-0.4,0.2
					c-0.3,0.1-0.8,0.1-1.2,0c-0.2-0.1-0.4-0.2-0.6-0.4c-0.2-0.2-0.3-0.4-0.4-0.7c-0.1-0.3-0.2-0.6-0.2-1.1c0-0.4,0-0.8,0.1-1.1
					c0.1-0.3,0.2-0.6,0.4-0.8c0.2-0.2,0.3-0.3,0.5-0.4c0.4-0.2,0.9-0.2,1.3,0c0.2,0.1,0.3,0.2,0.5,0.3c0.1,0.1,0.2,0.3,0.3,0.4
					c0.1,0.2,0.2,0.4,0.2,0.6l0,0.1h0.4l-0.1-1.6"/>
				<path class="st2" d="M193.3,47.9c0-0.1,0-0.1,0.1-0.2c0-0.1,0.1-0.1,0.2-0.1c0.1,0,0.2,0,0.3,0v-0.2h-0.8v0l-0.6,0v3.8l-3.1-3.8
					h-0.2l0.2,0h-0.7c0,0,0,1,0,1.2v4.5h0.7l0-2.8l0-1.2l3.4,4.1h0.1l0,0h0.3"/>
			</g>
			<path class="st2" d="M107.3,46c0.2-0.1,0.2-0.3,0.2-0.4c0-0.1-0.1-0.3-0.2-0.3c-0.1-0.1-0.2-0.1-0.4-0.1c-0.2,0-0.3,0.1-0.4,0.2
				l-0.8,1.2l0.3,0.3L107.3,46z"/>
		</g>
	</g>
</g>
</svg>
