<svg enable-background="new 0 0 240 90" viewBox="0 0 240 90" xmlns="http://www.w3.org/2000/svg"><g fill="#fff"><path d="m21.12 76.58h-10.03c-1.42 0-2.67-1.07-2.67-2.45v-20.67c0-1.21 1.1-2.28 2.49-2.28 1.35 0 2.49 1.07 2.49 2.28v18.64h7.72c1.28 0 2.42.96 2.42 2.21 0 1.27-1.07 2.27-2.42 2.27z"/><path d="m32.04 75.23c-.36 1.03-1.49 1.67-2.35 1.67-1.39 0-2.56-.92-2.56-2.28 0-.18.04-.6.11-.78l6.94-20.24c.46-1.39 1.17-2.42 2.88-2.42s2.42 1 2.92 2.42l6.94 20.24c.07.18.11.6.11.78 0 1.35-1.1 2.28-2.56 2.28-.92 0-2.06-.68-2.42-1.67l-1.25-3.59h-7.58zm5.65-13.73c-.32-1.03-.5-2.38-.64-3.49-.14 1.1-.32 2.45-.64 3.49l-1.88 6.08h4.98z"/><path d="m55.15 67.54c0 3.06 1.07 4.98 4.27 4.98 1.25 0 2.13-.32 2.95-.75v-5.55h-1.85c-1.17 0-2.24-1-2.24-2.24 0-1.25 1.07-2.24 2.24-2.24h3.88c1.64 0 2.92.78 2.92 2.49v7.86c0 3.34-4.41 4.77-8.07 4.77-6.22 0-9.07-3.7-9.07-9.32v-7.04c0-5.62 2.85-9.32 9.07-9.32 3.77 0 7.36 1.74 7.36 3.81 0 1.14-1 2.13-2.35 2.13-.82 0-1.07-.25-1.53-.53l-.36-.21c-.89-.53-1.81-.85-2.95-.85-3.2 0-4.27 1.92-4.27 4.98z"/><path d="m71.83 67.54v-7.04c0-5.05 2.6-9.32 9.25-9.32s9.25 4.27 9.25 9.32v7.04c0 5.19-3.09 9.35-9.25 9.35s-9.25-4.15-9.25-9.35zm4.98-7.04v7.04c0 2.85 1.35 4.84 4.27 4.84s4.27-1.99 4.27-4.84v-7.04c0-2.88-1.14-4.8-4.27-4.8s-4.27 1.92-4.27 4.8z"/></g><path d="m108.29 76.58h-9.43c-1.74 0-3.31-.6-3.31-2.53v-20.02c0-1.25 1.17-2.53 2.74-2.53h9.64c1.35 0 2.49 1.07 2.49 2.31 0 1.28-1.14 2.21-2.49 2.21h-7.4v5.73h6.72c1.25 0 2.45.96 2.45 2.24s-1.07 2.28-2.45 2.28h-6.72v5.8h7.75c1.32 0 2.49 1 2.49 2.21.01 1.27-1.13 2.3-2.48 2.3z" fill="#006ab2"/><path d="m128.45 75.65-8.25-14.37v13.3c0 1.25-1.17 2.31-2.53 2.31-1.39 0-2.45-1.07-2.45-2.31v-20.98c0-1.39 1.1-2.42 2.6-2.42.96 0 1.92.53 2.42 1.32 3.17 5.48 4.98 8.71 8.25 14.44v-13.45c0-1.25 1.17-2.31 2.53-2.31 1.39 0 2.45 1.07 2.45 2.31v20.99c0 1.32-1.07 2.42-2.63 2.42-.93 0-1.93-.5-2.39-1.25z" fill="#006ab2"/><g fill="#fff"><path d="m152.07 76.58h-10.03c-1.42 0-2.67-1.07-2.67-2.45v-20.67c0-1.21 1.1-2.28 2.49-2.28 1.35 0 2.49 1.07 2.49 2.28v18.64h7.72c1.28 0 2.42.96 2.42 2.21-.01 1.27-1.07 2.27-2.42 2.27z"/><path d="m158.64 53.46c0-1.21 1.1-2.28 2.49-2.28 1.35 0 2.49 1.07 2.49 2.28v21.16c0 1.21-1.14 2.28-2.49 2.28-1.39 0-2.49-1.07-2.49-2.28zm3.56-9.25.28-.28c.43-.43.68-.68 1.46-.68.82 0 1.74.75 1.74 1.74 0 .29-.07.64-.32 1l-2.92 2.92c-.53.46-.82.75-1.6.75-1 0-1.81-.71-1.81-1.74 0-.36.07-.6.29-.89z"/><path d="m182.76 75.65-8.25-14.37v13.3c0 1.25-1.17 2.31-2.53 2.31-1.39 0-2.45-1.07-2.45-2.31v-20.98c0-1.39 1.1-2.42 2.6-2.42.96 0 1.92.53 2.42 1.32 3.17 5.48 4.98 8.71 8.25 14.44v-13.45c0-1.25 1.17-2.31 2.53-2.31 1.39 0 2.45 1.07 2.45 2.31v20.99c0 1.32-1.07 2.42-2.63 2.42-.94 0-1.93-.5-2.39-1.25z"/><path d="m206.41 76.58h-9.43c-1.74 0-3.31-.6-3.31-2.53v-20.02c0-1.25 1.17-2.53 2.74-2.53h9.64c1.35 0 2.49 1.07 2.49 2.31 0 1.28-1.14 2.21-2.49 2.21h-7.4v5.73h6.72c1.25 0 2.45.96 2.45 2.24s-1.07 2.28-2.45 2.28h-6.72v5.8h7.75c1.32 0 2.49 1 2.49 2.21.01 1.27-1.13 2.3-2.48 2.3z"/><path d="m217.5 75.23c-.36 1.03-1.49 1.67-2.35 1.67-1.39 0-2.56-.92-2.56-2.28 0-.18.04-.6.11-.78l6.94-20.24c.46-1.39 1.17-2.42 2.88-2.42s2.42 1 2.92 2.42l6.94 20.24c.07.18.11.6.11.78 0 1.35-1.1 2.28-2.56 2.28-.92 0-2.06-.68-2.42-1.67l-1.25-3.59h-7.58zm5.66-13.73c-.32-1.03-.5-2.38-.64-3.49-.14 1.1-.32 2.45-.64 3.49l-1.88 6.08h4.98z"/></g><g fill="#006ab2"><path d="m207.91 39.79c3.15 0 1.46.15 18 .1 1.41 0 2.55-1.15 2.55-2.56v-.03c0-1.41-1.14-2.55-2.55-2.55-16.33-.01-13.54.03-15.79.03"/><path d="m26.16 39.68c-2.73.42-1.46.15-18 .1-1.41 0-2.55-1.15-2.55-2.56v-.05c0-1.28 1.04-2.32 2.32-2.32 16.44-.01 14-.13 16.07-.03"/><path d="m119.26 34.78v5.13c-3.21.02-9.95.19-12.99-.1-3.26-.5-5.15-3.17-6.2-6.08-1.94-5.39-3.53-10.9-5.39-16.32-.67-1.95-1.42-3.98-2.62-5.61-1.85-2.52-3.62-2.53-4.98-.23-1.22 2.07-2.14 4.36-2.92 6.64-1.62 4.71-2.97 9.51-4.61 14.21-.55 1.57-1.53 3.02-2.51 4.39-2.17 3.02-5.4 3.3-8.78 3.21-4.63-.12-3.59-.12-8.22-.13-3.4-.01-6.1-1.51-7.94-4.22-1.99-2.93-3.65-6.08-5.42-9.15-2.36-4.1-6.23-4.02-8.78-.16-1.51 2.29-2.9 4.66-4.26 7.04-2.44 4.28-5.83 6.9-11.09 6.5 0-1.63-.01-3.21-.01-5.07 4.24 0 5.79-2.26 7.53-5.13 1.65-2.72 3.28-5.47 5.23-7.97 3.67-4.72 11.64-4.57 15.34 1.83 1.68 2.9 3.32 5.82 5.09 8.66 1.13 1.81 2.86 2.6 5.04 2.57 4.6-.05 3.53-.01 8.13-.02 4.1 0 4.86-.49 6.17-4.46 1.81-5.47 3.47-10.99 5.32-16.45.63-1.86 1.46-3.72 2.55-5.34 3.36-5.02 9.93-4.86 13.21.28 2.28 3.58 3.45 7.63 4.67 11.67 1.28 4.26 2.88 8.43 4.47 12.59.51 1.33 1.69 1.75 3.2 1.74 2.26-.01 8.29-.02 10.77-.02z"/><path d="m218.69 34.75v5.13c-3.21.02-13.32.19-16.37-.1-3.26-.5-5.15-3.17-6.2-6.08-1.94-5.39-3.53-10.9-5.39-16.32-.67-1.95-1.42-3.98-2.62-5.61-1.85-2.52-3.62-2.53-4.98-.23-1.22 2.07-2.14 4.36-2.92 6.64-1.62 4.71-2.97 9.51-4.61 14.21-.55 1.57-1.53 3.02-2.51 4.39-2.17 3.02-5.4 3.3-8.78 3.21-4.63-.12-3.59-.12-8.22-.13-3.4-.01-6.1-1.51-7.94-4.22-1.99-2.93-3.65-6.08-5.42-9.15-2.36-4.1-6.23-4.02-8.78-.16-1.51 2.29-2.9 4.66-4.26 7.04-2.44 4.28-5.83 6.9-11.09 6.5 0-1.63-.01-3.21-.01-5.07 4.24 0 5.79-2.26 7.53-5.13 1.65-2.72 3.28-5.47 5.23-7.97 3.67-4.72 11.64-4.57 15.34 1.83 1.68 2.9 3.32 5.82 5.09 8.66 1.13 1.81 2.86 2.6 5.04 2.57 4.6-.05 3.53-.01 8.13-.02 4.1 0 4.86-.49 6.17-4.46 1.81-5.47 3.47-10.99 5.32-16.45.63-1.86 1.46-3.72 2.55-5.34 3.38-5.03 9.94-4.87 13.22.28 2.28 3.58 3.45 7.63 4.67 11.67 1.28 4.26 2.88 8.43 4.47 12.59.51 1.33 1.69 1.75 3.2 1.74 2.25-.01 11.66-.02 14.14-.02z"/></g></svg>