<svg enable-background="new 0 0 2531.1 712.3" viewBox="0 0 2531.1 712.3" xmlns="http://www.w3.org/2000/svg"><g fill="#fff"><path d="m633.2 52.7c.4.3.8.8 1.2.8 2.9.2 5.6 1.3 8.3 2.1 6.8 2 12.8 6.1 17.1 11.8 2 2.5 3.6 5.3 4.6 8.3 2.1 6 3.2 12.4 3.2 18.8v192 4.3c-.1 1.8-1.3 2.5-3 1.6-.7-.4-1.3-.9-2-1.3-12.4-7-24.8-14.1-37.2-21.1-12.3-7-24.6-14.2-37-21.2-7.8-4.4-15.6-8.8-23.4-13.2-13-7.4-26-14.9-39-22.4-10-5.7-20-11.3-30-17-12.3-7.1-24.6-14.2-37-21.2-10-5.7-20-11.4-30-17.1-9.4-5.4-18.8-10.9-28.2-16.3-7.8-4.4-15.5-8.8-23.3-13.3-3.7-2.1-7.4-4.3-11.2-6.5-11-6.4-22-12.9-33.1-19.4-3.4-2-6.8-4.1-10.2-6.3-1.4-.9-2.8-1.5-4.2-2.2-6.9-3.6-14.3-3.5-21.6-2.6-5.7.8-11.2 3.1-15.8 6.5-10.6 7.7-21.3 15.3-31.9 22.9-12.2 8.7-24.4 17.5-36.6 26.2-9.3 6.7-18.7 13.3-28.1 20-15.9 11.3-31.7 22.7-47.6 34-13.2 9.5-26.5 18.9-39.7 28.4-9.9 7-19.7 14.1-29.6 21.2-1.2.8-2.4 1.6-3.6 2.4-.6.4-1.5.3-1.9-.3-.1-.2-.2-.4-.3-.7-.1-1.1-.1-2.2-.1-3.4 0-49 0-97.9 0-146.9-.1-6.7 1-13.4 3.2-19.7 4.5-11.9 12.7-20.5 24.7-25.2 3.1-1.4 6.2-2.4 9.5-3.1.4-.1.8-.5 1.1-.8h532.7z"/><path d="m2433.6 151.6c-.3.4-.7.7-.7 1.1-1 10.8-5 20.5-11 29.3-11.6 17.4-27.4 29.5-47.6 35.2-19.3 5.6-39.8 5.6-59.2.1-24.6-7-42.6-22.2-53.5-45.4-7.6-16-8.4-33-4.2-50.2 2.9-11.6 8.6-21.6 16.3-30.7 12.3-14.8 29.3-24.8 48.2-28.4 13.5-2.7 27.4-2.9 41-.8 11.3 1.6 22.1 5.4 31.8 11.4 16.5 10.3 28.6 24.4 35.2 42.9 1.5 3.9 2.5 8 2.8 12.1 0 .8 0 1.6.9 2.1zm-88.7 36.8c7.2-.1 12.2-.4 19.3-3.1 15.2-5.8 24.7-16.5 28.3-32.5 1.2-5.8 1.5-11.8.9-17.7-1.6-20.1-14.4-35-33.4-39.8-12.5-3.2-25.1-2.8-37.2 2.3-14.5 6.1-23.2 17.1-26.3 32.5-1.3 6.6-1.4 13.4-.3 20 2.3 14.4 9.7 25.1 22.4 32.3 8.1 4.6 17 6.1 26.3 6z"/><path d="m2432.4 387.5 1.2-.7v28.8l-1.8-.2c.5-.8.8-1.7.8-2.7-.1-8.4-.2-16.8-.2-25.2z"/><path d="m2433.6 290.8c-.8-.5-1.6 0-2.4 0-.3-.9-.1-1.9.4-2.8.7.2 1.4.2 2-.2z"/><path d="m367.4 658.9c-87.5 0-175 0-262.4 0-12 0-22.1-4.5-30.9-12.2-7.4-6.4-10.8-14.9-11.5-24.5-.1-1.9-.1-3.8-.1-5.8 0-50.7 0-101.4 0-152.1 0-.8 0-1.6 0-2.4s-.4-1.8.4-2.2c1.2-.6 1.6.7 2.2 1.3 17.2 18.6 37.3 33.4 59.8 45.1 17.4 9.1 36 15.9 55.2 20.2 21.4 4.8 43.4 6.6 65.3 5.3 7.3-.4 14.6-1.5 21.9-2.4 8.7-1.1 17.4-2.2 26.1-3.4 10.6-1.4 21.2-2.9 31.8-4.3 8.5-1.1 17.1-2.2 25.7-3.3l25.7-3.3c8.9-1.2 17.8-2.3 26.6-3.4 4.6-.6 9.2-1.3 13.8-1.9 9.5-1.2 19.1-1.5 28.7-2.2 9.8-.6 19.5-.7 29.2-.4 8.3.2 16.6 1.1 24.8 1.9 20.3 2.1 40.4 6.2 60 12.1 26 7.6 50.8 18.6 73.8 32.8 10.8 6.8 21.2 14.4 30.9 22.7 2.2 1.6 3.4 4.2 3.2 6.9-.2 11-.2 22.1 0 33.1.1 5.3-.8 10.5-2.7 15.5-2.6 6.8-6.1 13-11.4 18.1-5.5 5.5-13 8.5-20.7 8.6-3.2.1-6.4 0-9.6 0z"/><path d="m143.3 257.4c-1.1 1.5-1.9 3.3-2.3 5.1-2.2 7-3.9 14.2-5 21.5-2.3 14.3-2.5 28.7-1.6 43.1.7 12.1 2.3 24.2 4.9 36.1 1.2 5.5 2.5 10.9 3.7 16.4.3 1.2.6 2.5.8 3.8.3 1.7-.1 2.2-1.9 2.6-11.1 2.2-22.3 4.4-33.4 6.7-12.2 2.6-24.4 5.3-36.3 8.9-2.6.8-5.1 1.9-7.7 2.8-.6.2-1.1.6-1.8.2-.7-1-.4-2.1-.4-3.2 0-20.3 0-40.6-.1-61-.1-2.5.9-5 2.8-6.7 15.4-15.3 30.8-30.7 46.1-46.2s30.6-30.9 46-46.2c7.2-7.3 14.4-14.6 21.6-21.9 1.3-1.4 2.7-2.7 4-3.9 1.4-.2 1.9.7 2.6 1.4 11.5 11.3 23 22.7 34.4 34.1 14.4 14.3 28.9 28.5 43.4 42.8.4.5.9.9 1.4 1.3.4.2.9.2 1.3 0 1.1-.9 2.2-1.9 3.2-2.9 10.5-10.5 21-21 31.6-31.5 1.2-1.2 2.2-2.7 4-3.4 1.3 1.2 2.5 2.6 3.4 4.1 14.6 20.4 29.3 40.8 43.8 61.3 1.3 2.2 3.7 3.5 6.3 3.6 10.5.5 21 1.9 31.5 3.2 10.1 1.2 20.3 2.8 30.4 4.3s20.2 3.2 30.2 5.1c23.3 4.3 46.3 9.7 69.1 16 22.2 6.1 44 13.5 65.3 22.2 20.1 8.3 39.6 18 57.8 30 8.1 5.2 15.7 11 23 17.2 1.4 1.1 2.2 2.8 2.1 4.5-.1 11.5 0 23 0 34.6 0 .5 0 1-.2 1.4-.2.5-.5.9-1.1.6-.7-.3-1.4-.8-2-1.3-13-10.4-26.6-20-40.7-28.8-14.6-9.2-29.6-17.7-45-25.6-13.4-6.8-27-13.2-40.8-19.1-17.8-7.5-36-14.3-54.4-20.2-17.3-5.6-34.9-10.4-52.7-14.5-18.1-4.2-36.3-7.6-54.6-10.2-16.1-2.3-32.4-4-48.6-5.2-11.3-.8-22.7-1-34-.6-4.3.2-8.6.8-12.8 1.8-1.6.3-3.1.9-4.4 1.7-.3.1-.4.5-.3.8v.1c.1.1.1.3.3.3.3.1.6.2.9.2 10.2 1 20.4 1.8 30.5 3 8.3.9 16.5 2.2 24.7 3.4 15.2 2.3 30.3 5.1 45.3 8.3 10.8 2.3 21.5 4.9 32.2 7.6 18.5 4.6 36.7 10.1 54.7 16.2 17.4 5.9 34.6 12.5 51.5 19.7 17.3 7.5 34.3 15.6 50.9 24.7 34.7 18.9 67 41.1 96.4 67.6 4.2 3.8 4.2 3.8 4.2 9.4v23.5c0 1.3 0 2.5-.1 3.8-.1.5-.6.9-1.1.8-.1 0-.2 0-.3-.1-1.6-1.1-3.1-2.2-4.7-3.3-20.2-14.6-41.2-28.2-62.8-40.7-19.9-11.7-40.2-22.5-61-32.5-19.6-9.4-39.5-18.1-59.8-26.1-17.6-6.9-35.3-13.2-53.3-18.9-16.3-5.1-32.8-9.7-49.4-13.7-18.4-4.4-36.9-8.1-55.5-10.9-13.3-2-26.6-3.6-40-4.8-11.6-1-23.3-1.7-34.9-2.1s-23.3-.4-35 0c-.8 0-1.6 0-2.4.1-2.3.5-3.5-.7-4.5-2.6-2.5-4.6-5.3-9.1-7.9-13.7-8.7-15.5-17.3-31-25.5-46.8-6.7-12.9-13.1-26-18.7-39.4-2.3-5.4-4.3-11-5.7-16.8-.3-1.2-.4-2.5-1.6-3.1z"/><path d="m1022.6 659.5c-15.7 0-30-1.9-43.9-6.7-24.6-8.5-45.1-25.8-57.7-48.6-5.1-9.5-8.4-19.8-9.7-30.4-1.2-9.4-1.1-18.9.4-28.2 1.4-9.5 4.6-18.7 9.3-27.1 15.2-27 37.7-44.6 68-52 15-3.7 30.3-4.4 45.7-3.1 9.7.7 19.3 2.6 28.6 5.6 19.4 6.4 35.3 17.7 48.2 33.4 8.7 10.5 15.1 22.2 18.4 35.5 4.7 19 4 37.7-3 56.1-4.7 12.1-11.9 23.1-21.1 32.3-15.3 15.9-35.2 26.7-56.9 30.6-8.7 1.6-17.5 2.5-26.3 2.6zm-1.1-40.1c9.9.1 19.4-1.4 28.5-5.5 13.9-6.3 23.9-16.4 29-30.9 4.8-13.4 5.1-27.9.7-41.5-5.9-18.7-18.8-30.3-37.4-35.9-8.1-2.3-16.6-3.2-25.1-2.7-8.8.3-17.5 2.3-25.5 6.1-13.2 6.4-22.7 16.4-27.7 30.4-3.5 10-4.5 20.7-2.9 31.2 2.9 21 14.3 35.5 33.5 43.8 8.6 3.8 17.7 5 26.9 5z"/><path d="m2154.4 658.5c-12.7.3-25.3-1.3-37.5-4.7-22.2-6.1-40.2-18.3-54.6-36.2-12-14.6-18.9-32.7-19.8-51.5-1.3-24.1 5.8-45.4 21.2-64 9.5-11.7 21.5-21.2 35-27.9 10.3-4.9 21.2-8.2 32.4-9.9 9.3-1.4 18.8-1.9 28.2-1.6 17.8.7 34.9 4.1 50.8 12.4 12.7 6.6 23.9 15.7 32.9 26.7 9.4 11.3 16.2 23.8 19.3 38.2 6.1 28.7.5 55-18.1 78-10.3 13-23.5 23.3-38.6 30.1-9.2 4.1-18.9 7-28.9 8.5-7.3 1.4-14.8 2-22.3 1.9zm-.3-155.7c-10.5-.1-20.7 1.6-30.3 6.1-11.8 5.4-21.1 14.9-26.4 26.7-3.7 8.2-4.9 16.8-4.9 25.7-.1 7.7 1.2 15.3 4.1 22.5 7 17 19.7 27.7 37.2 32.4 9.1 2.5 18.6 3.3 28 2.1 6.7-.9 13.3-2.1 19.5-4.8 13.5-5.9 23.3-15.5 28.9-29.2 4.6-11.7 5.7-24.5 3.1-36.7-3.6-18.2-14-31.2-30.8-39-9-4.3-18.5-5.8-28.4-5.8z"/><path d="m1573.6 659.4c1.3-3.3 2.3-5.8 3.4-8.3 7.4-17.5 14.8-35 22.2-52.5s14.8-35 22.2-52.6c7.6-18.1 15.3-36.2 22.9-54.3 3.4-8.1 6.8-16.2 10.2-24.3.4-.9.7-1.8 1.1-2.7.4-1.3 1.7-2 3-1.9h2.4 50.4 1.9c1.6-.2 3.2.7 3.7 2.3 2.2 5 4.5 9.9 6.8 14.8 8.5 18.3 17 36.5 25.4 54.8 7.6 16.4 15.2 32.8 22.8 49.2 7.4 16 14.8 31.9 22.2 47.8 3.8 8.3 7.6 16.5 11.5 24.8 1.3 2.8.4 2.9-2 2.9-3.5 0-7 0-10.6 0h-36c-1.1 0-2.2 0-3.4 0-1.3.2-2.5-.6-2.9-1.9-2.1-5-4.3-10-6.5-14.9-2.8-6.5-5.7-12.9-8.4-19.4-.5-1.7-2.2-2.8-4-2.5-4.2.1-8.3 0-12.5 0h-69.4c-1.3 0-2.6.1-3.8 0-2.1-.2-3.2.7-3.9 2.6-3.8 10-7.8 20-11.8 29.9-3 7.6-1.6 6.1-8.6 6.2-14.4.1-28.8 0-43.2 0zm114.8-73.3h26.9c1.1 0 2.2-.1 3.3-.2.4 0 .7-.4.7-.9v-.1c-.3-.8-.6-1.5-.9-2.2-8.7-19.9-17.3-39.9-26-59.8-1.5-3.4-3-6.7-4.5-10.1-.2-.4-.4-1-1-.8-.4.2-.7.5-.9.9-.4.7-.7 1.4-.9 2.2l-26.2 66.4c-.3.9-.7 1.8-1 2.7-.4 1.2 0 1.7 1.4 1.8h3.4 25.7z"/><path d="m2008.9 519.1c-2.1 0-3.9-1.3-5.7-2.1-9.8-4.4-19.9-7.9-30.3-10.5-16.6-4.1-33.4-5.7-50.4-3.5-14.2 1.8-27.3 6.6-37.9 16.7-10.4 9.7-16.6 23.1-17.3 37.4-.6 6.9 0 13.8 1.7 20.5 3.8 13.5 12.1 23.4 23.8 30.7 9.1 5.7 19.2 8.6 29.8 9.7 9.8 1 19.5.8 29-1.7 3.7-1 7.3-2.3 10.9-3.5 1.6-.4 2.7-1.9 2.6-3.5-.1-5.8 0-11.5-.1-17.3 0-1.9-.4-2.3-2.3-2.3-6.4 0-12.8 0-19.2 0-7.3 0-6.4.9-6.4-6.3 0-7.8 0-15.7 0-23.5 0-1.1 0-2.2 0-3.4.1-1.5.5-2 1.9-2.2.8-.1 1.6 0 2.4 0h67.6c4.4 0 4.4 0 4.4 4.6 0 23.3-.1 46.7.1 70 .1 2.7-1.1 5.3-3.3 6.9-5.3 4.2-11 7.7-17.2 10.3-11.9 5.1-24.4 8.6-37.2 10.6-10.9 1.7-22 2.3-33 1.6-19.4-1-38-5.3-55.1-14.8-15.2-8.4-27.9-19.6-37.3-34.5-6.1-9.8-10.2-20.7-12-32.1-1.5-8.8-1.7-17.8-.8-26.8 2.3-23.8 12.4-43.7 30.4-59.5 13.4-11.7 29.5-20 46.8-24.2 11.9-3 24.2-4.5 36.5-4.6 20.1-.2 39.9 2.3 59.1 8.4 5.6 1.8 11.1 3.9 16.6 6.3 1.4.6 2.4 1.4 2.4 3.2-.1 12.8-.1 25.6-.1 38.4 0 .3-.2.6-.4 1z"/><path d="m285.7 492.1c-4.2-5.5-8.3-10.9-12.4-16.2l-51.3-66.5c-.7-.9-1.3-1.8-1.9-2.8-.2-.5-.1-1.1.4-1.3.1 0 .2-.1.3-.1 1.1-.1 2.2-.1 3.4-.1 15.4-.2 30.7.6 46 1.6 13.4.9 26.8 2.4 40 4.2 21.3 2.8 42.3 6.7 63.2 11.6 20.1 4.7 39.9 10.3 59.5 16.9 11.5 3.9 22.9 8.1 34.2 12.6 14.3 5.7 28.2 12 42 18.8l2.4 1.5c.1 0 0 .3 0 .7-2.2.2-4.3.1-6.5-.2-11-1.1-22-1.7-33-2-5.3-.1-10.5-.4-15.8 0-4 .3-8 .4-11.9 1-14.5 2.3-29.1 4.6-43.6 6.8-9.3 1.4-18.7 2.7-28 4-12.5 1.8-25 3.6-37.5 5.2-18.1 2.4-36.1 4.8-54.3 6.4-9.2.8-18.5 1.7-27.7 2-1.8 0-3.5.1-5.3 0-9.3-.4-18.5-.9-27.8-1.4-19-1-37.9-3.3-56.3-8.3-33.1-9-61.3-25.9-84.4-51.5-1.3-1.4-2.6-2.8-3.8-4.3-1.5-1.7-1.3-2.7.9-3.6 4.3-1.8 8.5-3.6 12.9-5.1 15.4-5 31.1-8.6 47.2-10.7 5.7-.8 11.4-1.4 17.1-2.3 1.7-.5 3.6.4 4.2 2.1 5.4 9.3 11.9 17.9 19.4 25.6 12.5 13.1 26.9 24.2 42.8 33 17.4 9.8 36 16.4 55.4 21 2.6.6 5.3 1.1 8 1.6.7.5 1.5.3 2.2-.2z"/><path d="m2008.6 140.8v-74.9c0-5.6-.3-5.2 5.1-5.2 9.9 0 19.8.1 29.7-.1 2.2-.1 4.4.8 5.8 2.5 9.1 10.1 18.3 20.1 27.5 30.1 12.1 13.2 24.1 26.5 36.1 39.7 6.3 6.8 12.5 13.7 18.8 20.5 1 1.1 2 2.1 3 3.1.3.2.6.2.9.2.4 0 .5-.3.5-.7 0-.6.1-1.3.1-1.9 0-2.2 0-4.5 0-6.7 0-26.9 0-53.7 0-80.6 0-1 0-1.9 0-2.9.1-3 .2-3.2 3.3-3.2h35 1c2.2.1 2.6.5 2.7 2.5.1 1.3 0 2.6 0 3.8v127.1 21.6c0 1.1 0 2.2-.1 3.4 0 1-.7 1.8-1.7 1.8h-.1c-.8.1-1.6.1-2.4.1-9.3 0-18.6-.1-27.8.1-2.4.1-4.7-1-6.1-2.9-13.8-15.5-27.8-30.9-41.7-46.4-14.4-16.1-28.9-32.1-43.3-48.2-.9-1-1.7-1.9-2.6-2.8-.3-.3-.7-.7-1.2-.3-.2.2-.4.5-.4.8-.1 1.3-.1 2.6-.1 3.8v32.6 57.1 3.8c-.1 1.7-.6 2.2-2.4 2.2-3 .1-6.1 0-9.1 0h-24.9c-1.3 0-2.6 0-3.8-.1-.8 0-1.5-.6-1.6-1.5-.1-1.4-.1-2.9-.1-4.3-.1-24.6-.1-49.4-.1-74.1z"/><path d="m1345.9 133c1.4.5 2.8 1 4.3 1.5 7.8 2.8 14.8 6.7 20.4 12.9 8.6 9.6 11.5 20.9 9.7 33.4-2.4 16.6-11.8 27.9-27 34.6-6.9 3-14.3 4.8-21.8 5.3-4.9.4-9.9.6-14.8.6-25.3.1-50.5 0-75.8 0-6 0-5.6.2-5.6-5.4v-150.2c0-.5 0-1 0-1.4.1-3.6.2-3.8 3.8-3.8 25.1 0 50.2-.1 75.3 0 10.5.1 20.7 2 30.1 6.9 8.6 4.4 15.6 10.6 19.9 19.4 6.2 12.7 3.2 27.9-7.2 37.4-3 2.7-6.3 5-9.8 6.9-.5.4-1.4.5-1.5 1.9zm-67 39.7v12.5c0 1.4 0 2.9.1 4.3s.6 2 2.1 2c2.6.1 5.1.1 7.7.1 7.8 0 15.7.2 23.5-.4 4.6-.2 9.2-1.3 13.5-3.1 3.7-1.7 6.5-4.2 7.8-8 3.3-9.6 1.3-18.5-9.6-23.4-.7-.3-1.5-.6-2.2-.9-3.3-1.1-6.8-1.7-10.4-1.8-9.9-.1-19.8-.1-29.7 0-2.3 0-2.6.4-2.7 3-.2 5.1-.1 10.4-.1 15.7zm0-65.3v14.3c0 2.2.4 2.6 2.5 2.6 6.7 0 13.4.1 20.1-.1 4 0 8-.8 11.6-2.4 7.3-3.5 11-10.7 9.4-18-1.5-6.9-6.2-10.6-12.5-12.5-2.4-.7-5-1.1-7.6-1.2-7 0-14-.1-21-.1-2.1 0-2.5.4-2.6 2.5 0 5 .1 9.9.1 14.9z"/><path d="m1161.3 620.3c0-5.9 0-11.8 0-17.8 0-2.4.5-2.7 2.4-1.5 2.7 1.7 5.4 3.4 8.1 5.1 6.8 4.2 13.9 8 21.2 11.2 12.7 5.6 26.1 7.5 39.8 6.4 4.5-.3 8.9-1.4 12.9-3.5 8.5-4.4 10.2-16 4.5-22.6-1.9-2.2-4.1-4.1-6.6-5.5-5.4-3.1-11.1-5.7-17-7.8-8.3-3.2-16.8-6.3-25-9.8-7.5-3.1-15-6.4-21.6-11.4-8.1-6.2-15.1-13.5-18.8-23.2-5.5-14.8-5.8-29.7.9-44.3 3.8-8.4 10.2-14.7 17.6-19.8 8.6-5.8 18.5-9.7 28.8-11.4 18.1-3.1 36-2 53.8 2.3 9.6 2.4 19 5.5 28.2 9.4.6.2 1.2.5 1.8.8.9.4 1.5 1.3 1.4 2.3v1.9 30.2c0 .8 0 1.6-.2 2.4 0 .6-.5 1-1.1.9-.1 0-.2 0-.3-.1-.8-.2-1.5-.5-2.2-.8-7.6-3.3-15.3-6.4-23.2-9-8.9-3.1-18.1-5.2-27.5-6.2-5.9-.6-11.9-.3-17.7 1-4.4.8-8.6 2.9-11.8 6-4.2 3.9-4.8 10.2-1.5 14.9 1.8 2.7 4.2 4.9 7 6.4 6.8 4 14.1 6.8 21.4 9.6 11.2 4.1 22.3 8.8 33 14.1 8.4 4.3 15.9 10.3 21.8 17.7 5.5 6.7 9 14.8 10.2 23.5 1.4 10.1.8 20.1-2.7 29.8-3.2 8.6-8.7 16.1-15.9 21.8-7 5.6-15 9.9-23.6 12.4-11.3 3.4-22.9 4.3-34.6 3.9-21.3-.7-41.2-6.7-60-16.5-.4-.2-.8-.5-1.3-.7-1.5-.6-2.4-2.2-2.2-3.8 0-6.1 0-12.2 0-18.3z"/><path d="m2422.9 496v16.8c0 1.5-.7 1.9-2.2 1.3-5.4-2.3-10.9-4.7-16.4-6.8-8-3.2-16.3-5.7-24.7-7.5-5.9-1.3-12-1.9-18.1-1.8-4.2.1-8.3.8-12.3 2-3.1.9-5.9 2.4-8.4 4.5-4.9 4.4-5.6 10.5-1.9 15.9 1.9 2.6 4.3 4.8 7.1 6.3 6.4 3.5 13.2 6.5 20.1 9 9.7 3.7 19.3 7.6 28.7 12 10.1 4.8 19 11.2 25.9 20 3.9 4.9 6.8 10.5 8.5 16.5 2.5 9.3 2.8 19.1.9 28.5-3 14.8-11.4 25.8-24 33.9-9.6 6.1-20.2 9.4-31.5 10.8-19.8 2.5-39.8.2-58.5-6.6-7.4-2.6-14.5-5.8-21.4-9.5-1.6-.7-2.7-2.4-2.5-4.1.1-11.7 0-23.3 0-35 0-.3 0-.6 0-1 .1-1.6.8-2.1 2.1-1.3 1.8 1.1 3.5 2.3 5.2 3.4 8.6 5.5 17.5 10.6 27.1 14.4 11.8 4.6 24.6 6.3 37.2 5 4-.3 7.9-1.4 11.4-3.3 7.2-3.7 10-12.6 6.3-19.8-.3-.6-.6-1.1-1-1.6-1.5-2.3-3.5-4.2-5.8-5.7-5.2-3.5-11-5.9-16.8-8.2-8.2-3.2-16.4-6.3-24.5-9.6-7.5-3.1-15-6.4-21.7-11.2-6.8-4.8-12.5-11-16.8-18.2-2.6-4.4-4.4-9.2-5.3-14.3-.8-4.4-1.3-8.9-1.3-13.3 0-17.3 7.1-30.9 20.9-41 8.7-6.3 18.8-10.4 29.4-12.1 21.7-3.8 43-1.5 63.9 5.3 5.9 1.9 11.7 4.3 17.5 6.5 1.8.4 2.9 2.1 2.7 3.9.1 5.3.2 10.6.2 15.9z"/><path d="m1515.2 339.1v-69.6c0-1.4 0-2.9 0-4.3.1-1.8.5-2.2 2.4-2.2h15.3c5.4 0 10.9.1 16.3-.1 2.6-.2 5 .9 6.7 2.8 8.8 9.3 17.6 18.6 26.4 27.8 13.1 13.8 26.2 27.6 39.3 41.4 5.3 5.6 10.6 11.1 15.9 16.7.8.8 1.6 1.6 2.4 2.4.3.3.8.6 1.2.3.2-.2.4-.5.4-.8.1-1.1.1-2.2.1-3.4 0-26.9 0-53.8 0-80.6 0-7.3-.8-6.5 6.3-6.5h29.8 3.4c1.6.1 2 .5 2.1 1.9.1 1 .1 1.9.1 2.9v143c0 5.2.1 4.9-5.1 4.9-9 0-17.9 0-26.9 0-2.1.1-4.1-.7-5.4-2.3-10.8-11.6-21.7-23.1-32.5-34.6-14.7-15.6-29.3-31.2-44-46.9-3.3-3.5-6.6-7-9.9-10.5-.4-.5-.9-.9-1.4-1.2-.3-.2-.7-.2-.9.1-.1.1-.1.2-.1.3-.1 1.4-.2 2.9-.2 4.3v80.6 7.2s-.4 2.8-2.8 2.9c-1 0-1.9 0-2.9 0h-30.7c-1.1 0-2.2 0-3.3 0-1.4-.1-1.9-.6-2-2.1-.1-1.3 0-2.6 0-3.8z"/><path d="m1884 146.3c.3.4.6.7.9 1 6.6 3.8 11.2 9.5 15.3 15.6 3 4.7 5.8 9.6 8.2 14.6 6.8 13.6 13.7 27.1 20.5 40.7.3.6.5 1.1.7 1.8.1.4-.1.9-.6 1h-.1c-.8.1-1.6.2-2.4.2h-40.8c-.5 0-1 0-1.4 0-1.3.1-2.6-.7-3-1.9-2.3-4.7-4.8-9.4-7.2-14.1-4.3-8.8-8.3-17.7-13-26.2-2.5-4.7-5.4-9.1-8.8-13.2-2.7-3.2-6.1-5.7-9.9-7.4-2.3-1.2-4.8-1.8-7.4-1.9-4-.1-8-.1-12 0-1.8 0-2.2.6-2.3 2.3s-.1 3.5-.1 5.3v51.8c0 5.8.3 5.4-5.6 5.4h-32.6c-1 0-1.9 0-2.9 0-2.4-.1-2.6-.4-2.7-2.9 0-1 0-1.9 0-2.9v-149.3c0-1 0-1.9 0-2.9.1-1.7.5-2.1 2.4-2.2h2.9 72.4c8-.2 16 1 23.6 3.4 12.4 4.2 22.4 11.5 29 23 8 13.9 7.8 35.9-9 49.5-3.8 3-7.8 5.6-12.1 7.7-.6.3-1.4.9-2 1.6zm-63.3-37.8v15.3c0 2.5.3 2.8 2.7 2.8h23c3.4-.1 6.7-.8 9.8-2 4.9-1.7 8.8-5.5 10.4-10.5.7-2.6.9-5.4.6-8.1-.3-4.9-3-9.3-7.3-11.8-3.3-2-7-3.1-10.9-3.3-8.6-.8-17.2-.4-25.8-.4-2.1 0-2.5.4-2.5 2.6 0 5.2.1 10.3 0 15.4z"/><path d="m746.5 561.1c0-30.8 0-61.7 0-92.6 0-6.5-.7-5.8 6-5.8h48c4.5 0 4.4-.1 4.4 4.5v139.1c0 1.6 0 3.2.1 4.8 0 .7.5 1.2 1.2 1.2 1.3.1 2.5.1 3.8.1 5 0 9.9-.2 14.9-.2 21.3-.1 42.5-.1 63.8-.2 5.8 0 5.3-.4 5.4 5.5.1 12.2.1 24.3.2 36.5 0 1.3 0 2.5-.1 3.8 0 .8-.7 1.5-1.5 1.5-1.1.1-2.2.1-3.4.1h-137.8c-.8 0-1.6 0-2.4 0-2.3-.1-2.6-.3-2.7-2.4 0-1.1 0-2.2 0-3.4z"/><path d="m1417.5 560.8c0-30.7 0-61.4 0-92.1 0-6.6-.5-5.8 6-5.8h48c4.2 0 4.2 0 4.2 4.2v133.8 9.1c0 2.1.4 2.4 2.6 2.4h2.9c23.8-.1 47.6-.1 71.4-.2 3 0 6.1-.2 9.1-.1s3.1.2 3.2 3.4c.1 5.4.1 10.9.1 16.3.1 7.7.1 15.3.2 23 0 1 0 1.9-.1 2.9 0 .9-.7 1.7-1.6 1.7-.1 0-.2 0-.3 0-1 0-1.9 0-2.9 0h-138.2c-4.8 0-4.8.2-4.8-4.7.2-31.3.2-62.6.2-93.9z"/><path d="m1069.9 221.4c-12.7-.1-25.2-1.8-37-6.8-24.7-10.4-41.5-28.2-48.8-54.3-2.9-10.9-3.3-22.3-1.2-33.3 2.7-14.9 9.6-27.6 19.7-38.8 9.2-10.3 20.9-18 34-22.5 5.9-2 12-3.5 18.2-4.2 11.9-1.6 24-1.3 35.8.8 29.8 5.9 50.7 23.1 62.7 51 5.2 12.1 6.2 25.1 4.4 38.1-2.6 19.5-12 35.1-26.4 48.1s-31.6 19.5-50.8 21.2c-3.5.4-7.1.5-10.6.7zm48.7-79.5c-.2-3.2-.3-6.4-.7-9.6-2.2-18.7-16.2-33.8-34.7-37.5-7.5-1.6-15.3-1.8-22.9-.6-16.5 2.7-28.7 11.4-35.1 27-4.6 11.3-4.8 23-1.5 34.8 3.5 12.6 11.3 21.6 22.9 27.4 4.1 2.1 8.6 3.5 13.2 4.1 10.1 1.3 20.1 1.3 29.8-2.4 11.9-4.3 21.3-13.6 25.7-25.5 2.3-5.6 2.9-11.6 3.3-17.7z"/><path d="m2131.3 339.1v-71c0-5.5-.4-5.3 5.1-5.3h65.2c9.8-.1 19.5 1 29 3.3 19.2 4.7 35 14.7 46.4 31 5.6 8.2 9.4 17.6 11 27.4 2.5 13.7 1.7 27.9-2.6 41.2-5.4 16.8-16.3 29.1-31.5 37.8-9 5.1-18.7 8.1-28.9 10-9 1.6-18.1 2.4-27.2 2.4-20.5 0-40.9 0-61.4 0-5.5 0-5.2.1-5.2-5.2zm39.9.3v17.7 27.8c0 2.5.3 2.8 2.7 2.8h20.6c6.4.1 12.8-.6 19-2 16-3.8 27-13.3 32.1-29.1 3.9-12 3.7-24.9-.6-36.7-3-8.7-8.9-16.1-16.7-20.9-6.9-4.4-14.5-6.5-22.6-7.4-10.5-1.1-21.1-.4-31.6-.6-.3 0-.7 0-1 0-1.1 0-2 .8-2.1 1.9v.2c-.1 1.3-.1 2.5-.1 3.8.3 14.3.3 28.4.3 42.5z"/><path d="m851 343.8c.4.6.4.8.5.9 9.3 5.7 15.4 14.3 20.5 23.7 4.3 8 8.3 16.2 12.5 24.3 3.3 6.4 6.7 12.7 10 19.1.4.7.7 1.4 1 2.2.2.5.1 1-.4 1.3-.1.1-.3.1-.4.1-1.1.1-2.2.1-3.3.1h-37.9-2.5c-1.1 0-2.2-.6-2.7-1.7-1.1-2.1-2.3-4.2-3.3-6.4-4.1-8.1-8.1-16.3-12.3-24.4-2.8-5.7-6.1-11.3-9.8-16.5-4-5.6-8.9-10-15.8-11.8-.8-.2-1.5-.4-2.3-.5-4.6-.5-9.3-.7-13.9-.5-1.5 0-2 .6-2.1 2s0 2.9 0 4.3v49.4 3.4c-.1 2.4-.4 2.7-2.9 2.7-12.3 0-24.6 0-36.9 0-.5 0-1 0-1.4-.1-.7-.1-1.2-.6-1.2-1.3-.1-1.4-.1-2.9-.1-4.3v-136.4c0-2.4 0-4.8 0-7.2 0-2.9.2-3 2.9-3.1h1.9 73.9c9.3-.1 18.5 1.9 27 5.8 10.4 4.9 18.8 12.1 23.7 22.8 2.7 6.2 3.7 13 2.9 19.7-1.2 11.5-7.3 19.9-16.6 26.2-2.2 1.5-4.7 2.8-7 4.1-1.4.7-2.6 1.4-4 2.1zm-62.1-35.3v14.4c0 2.2.4 2.6 2.5 2.6 8 0 16 0 24-.1 3.9-.1 7.6-1.2 11-3 4.4-2.1 7.5-6.3 8.2-11.1 1-6.3-.9-14.7-10.2-17.9-2.1-.7-4.3-1.2-6.5-1.5-8.7-1.1-17.5-.6-26.3-.7-2.1 0-2.6.5-2.6 2.5-.2 4.9-.2 9.9-.1 14.8z"/><path d="m898.7 107.5c-4-1.6-7.6-3.2-11.3-4.7-16.8-6.7-34.3-10.1-52.5-8.9-8.5.6-16.8 2.3-24.4 6.4-13.1 7-21 17.9-23.7 32.5-1.3 6.9-1.2 14.1.5 20.9 1.9 8.2 6.3 15.5 12.5 21.1 6.8 6.2 15.2 10.3 24.2 12 8.6 1.8 17.5 1.9 26.2.3 3.9-.8 7.7-2 11.5-3.4 1.4-.4 2.4-1.8 2.3-3.2 0-4.2 0-8.3 0-12.5 0-2.9-.2-3.1-3-3.1-4.6-.1-9.3 0-13.9 0-5.3 0-5.4.4-5.3-5.1 0-6.2 0-12.5 0-18.7 0-1.1 0-2.2.1-3.4 0-.8.7-1.5 1.6-1.5 1.1-.1 2.2-.1 3.4-.1h50.8c1.1 0 2.2 0 3.3.1.8 0 1.5.6 1.6 1.5.1 1.1.1 2.2.1 3.4 0 18.2-.1 36.5.1 54.7.2 2.9-1.1 5.7-3.5 7.3-6.3 4.7-13.3 8.4-20.7 10.8-16.3 5.8-33.7 8.1-51 6.7-19.5-1.6-37.5-7.4-53-20-17.8-14.6-27.5-33.2-28.2-56.4-.4-9.9.9-19.9 4-29.3 4.8-13.9 13.3-25.1 24.7-34.1 13.3-10.5 28.5-16.2 45.1-18.6 6-.9 12.1-1.3 18.2-1.3 19.2 0 37.9 2.9 55.7 10.4l.9.4c4.9 2.3 4.4 1.4 4.4 6.6v24.5c.1 1.6-.1 3.2-.7 4.7z"/><path d="m1400.4 263.1c13.8 0 25.3 1.5 36.3 5.8 21.5 8.2 36.9 23 46 44.2 4.1 9.6 5.1 19.7 4.7 30.1-.6 14-5.5 27.5-14.2 38.5-7 9.3-16 17.1-26.2 22.6-9.3 5-19.5 8.2-30 9.4-5.7.8-11.5 1.1-17.2 1-12.7-.3-25.1-2.4-36.8-7.4-10-4.3-19-10.6-26.5-18.6-6-6.2-10.9-13.4-14.4-21.4-9.6-22-7.6-50.2 8.8-71.2 13.3-17.1 30.6-27.7 52.1-31.3 5.7-1.1 11.6-1.7 17.4-1.7zm48.4 76c0-1.8.1-3.5 0-5.3-.1-1.6-.4-3.2-.7-4.7-3.4-16.8-13.4-27.7-29.6-32.6-10.8-3.3-22.3-3.3-33.1 0-11 3-20.2 10.4-25.4 20.6-5.4 10.3-6.4 21.4-3.9 32.7 3.9 17.7 15.2 28.4 32.6 32.6 8.6 2 17.6 2.1 26.2.1 12.3-2.7 21.9-9.3 28.4-20.3 4.1-7.2 5.6-15 5.5-23.1z"/><path d="m1205.9 364.9c0 9-.1 17.9.1 26.9.1 2.1-.9 4.1-2.6 5.3-4.8 3.7-10.1 6.7-15.8 8.9-10.1 3.9-20.7 6.6-31.5 7.9-12.7 1.6-25.6 1.2-38.2-1.2-18.2-3.4-34.3-11.1-47.5-24.3-12.3-12.3-19-27-19.7-44.5-.3-8.5.1-16.9 2.5-25.2 3.6-12.4 10.6-23.4 20.4-31.9 9.4-8.5 20.7-14.7 32.8-18.3 14.8-4.3 30.2-5.9 45.5-4.8 10.9.6 21.6 2.3 32.1 5.1 5.7 1.6 11.3 3.5 16.7 5.9 1.4.5 2.3 1.9 2.1 3.3-.1 9.1 0 18.2-.1 27.4 0 1.8-.8 2.4-2.4 1.7-5.2-2.4-10.6-4.4-16.1-6.2-15-5.1-30.9-7.1-46.8-6-10.7.8-20.8 3.4-29.6 9.9-10.8 8-16.8 18.6-17.8 32-.6 6.2.2 12.5 2.2 18.4 3.6 9.6 10.2 16.5 19 21.5 6.8 3.7 14.2 6 21.8 6.7 7.9 1 16 .6 23.8-1.2 2.9-.7 5.8-1.8 8.7-2.7 1.1-.2 2-1.3 1.9-2.4 0-4.3 0-8.6 0-13 0-1.7-.6-2.1-2.5-2.1-4.5-.1-9 0-13.4 0-1.3 0-2.6 0-3.8 0-1.7-.1-2.2-.6-2.2-2.4 0-7.5 0-15 0-22.5 0-1.8.5-2.2 2.3-2.3h2.4 50.8c1.1 0 2.2 0 3.3.1.8 0 1.5.7 1.5 1.6.1 1.3.1 2.6.1 3.8z"/><path d="m1581.7 141c0-25 0-49.9 0-74.9 0-5.8-.3-5.5 5.4-5.5h104.6c6.4 0 5.8-.6 5.8 6v18.2 3.4c.1.9-.6 1.8-1.6 1.9-.1 0-.1 0-.2 0-1.4.1-2.9.1-4.3.1h-64.3c-5.7 0-5.4-.4-5.4 5.5v23 2.9c.1 1.6.5 2.1 2 2.1 1.3.1 2.6 0 3.8 0h60.9c6 0 5.4-.5 5.4 5.4v19.2 3.4c0 .8-.7 1.5-1.6 1.5-1.4.1-2.9.1-4.3.1-20.3 0-40.6 0-60.9 0-5.5 0-5.3-.2-5.3 5.1v27.8c0 1.1 0 2.2.1 3.4 0 1 .8 1.8 1.7 1.8h.1c1.4.1 2.9.1 4.3.1h65.2c1.4 0 2.9 0 4.3.1 1 0 1.8.7 1.8 1.7v.2 3.4 19.2 2.9c-.1 2.1-.4 2.4-2.6 2.5-.8 0-1.6 0-2.4 0h-107.5c-.6 0-1.3 0-1.9 0-2.8-.1-3.1-.3-3.2-3 0-1.1 0-2.2 0-3.4z"/><path d="m1886.2 415.1c-1.1.5-2.3.6-3.4.5-11.3 0-22.7 0-34 0h-2.4c-1 0-1.9-.6-2.2-1.6-1-2.4-2.1-4.7-3.1-7-2.5-5.9-5-11.8-7.5-17.6-.3-.7-.7-1.5-1-2.2-.5-1.1-1.5-1.7-2.7-1.6-.8 0-1.6 0-2.4 0h-60.9c-.5 0-1 0-1.4 0-2.1-.2-3.2.7-3.9 2.6-2.9 7.6-5.9 15.2-8.9 22.8-2 5.2-1.3 4.6-6.8 4.7-10.6 0-21.1 0-31.7 0-1.1 0-2.2 0-3.3-.1-.5 0-.9-.4-.9-1 0-.1 0-.3.1-.4.7-2 1.5-3.9 2.3-5.8 10.1-24.4 20.2-48.7 30.2-73.1 9.1-21.9 18-43.7 27.2-65.5 3.3-8 1.2-6.5 9.9-6.5 11-.1 22.1 0 33.1 0h3.3c1 0 1.9.5 2.3 1.4.4.7.7 1.4 1.1 2.1 12.2 26.8 24.4 53.5 36.5 80.3 9.5 20.8 18.9 41.6 28.4 62.4.9 1.7 2 3.5 2.1 5.6zm-90.2-56.5h18.7c1.1 0 2.2 0 3.3-.1.8.1 1.4-.5 1.5-1.2 0-.2 0-.5-.1-.7-.2-.8-.6-1.5-.9-2.2-7-16.3-13.9-32.6-20.9-48.9-.5-1.2-1.1-2.3-1.7-3.4-.2-.4-.7-.5-1.1-.3-.2.1-.3.3-.4.5-.7 1.6-1.3 3.2-2 4.9-1.6 4-3.1 8-4.7 12.1-4.6 11.9-9.2 23.8-13.8 35.8-.2.6-.5 1.2-.7 1.8-.3.7.1 1.4.7 1.7.1 0 .2.1.3.1 1.1.1 2.2.1 3.3.1z"/><path d="m972 415.4h-53.2c-4.8 0-4.9.5-4.9-5 0-47.5 0-95 0-142.5 0-5.2.3-4.7 4.7-4.7h105.5c4.8 0 5-.5 5 5v18.2c0 1.1 0 2.2-.1 3.4-.1.8-.8 1.5-1.6 1.5-1.3.1-2.6.1-3.8.1h-63.3c-.6 0-1.3 0-1.9 0-4.7 0-4.8 0-4.8 4.8v22.1 1c.1 3.5.2 3.6 3.4 3.6h3.8 59.5c5.4 0 5.3-.3 5.2 5.2v17.3 3.4c-.1 1.8-.5 2.3-2.2 2.4-1.3.1-2.6 0-3.8 0h-60.5c-5.9 0-5.4-.2-5.4 5.5v25.4c0 1.3 0 2.5.2 3.8.1.7.6 1.2 1.3 1.2 1.4.1 2.9.2 4.3.2h65.2c6.7 0 6-.4 6 5.9s0 12.5 0 18.7c0 3.6-.1 3.6-3.9 3.7-1.8 0-3.5 0-5.3 0z"/><path d="m2431.6 288.1c-.5.8-.7 1.8-.4 2.8-1.9.1-3.8.3-5.7.3-20.9 0-41.7 0-62.6 0-1.7-.2-3.5-.1-5.2.3l-.4-.1v.4c-.2 1.1-.3 2.2-.4 3.3v23.9 1.9c-.1 1 .6 1.8 1.6 1.9h.1c1.4.1 2.9.1 4.3.1h64c.1.4.4.5.8.5.4 9.1.3 18.1 0 27.2l-.9.5h-64.2c-1.7-.2-3.5-.1-5.2.3-.5 0-.6.2-.4.7 0 11.1 0 22.3-.1 33.4 0 .5.1.9.3 1.4-.1.5.1.7.5.2 6.1 0 12.1.1 18.2.1h51.7c1.6 0 3.2.2 4.8.3 0 8.4.1 16.8.1 25.2 0 1-.3 1.9-.8 2.7h-108.9c-5.7 0-5.2.3-5.2-5.1v-142c0-.8 0-1.6 0-2.4.1-2.5.3-2.6 2.8-2.7h3.8 101.8 3.4c1.8.1 2.1.4 2.2 2.4.1 1.1 0 2.2 0 3.4z"/><path d="m1910 338.9c0-23.3 0-46.7 0-70.1 0-6.6-.2-5.9 6-5.9h26.9c1.1 0 2.2 0 3.3.1.7 0 1.2.6 1.2 1.3.1 1.6.2 3.2.2 4.8v91.2 21.6 3.4c-.1 1 .6 1.8 1.6 1.9h.2c1.4.1 2.9.1 4.3.1h64.8c6.3 0 5.8-.2 5.8 5.7v17.8 2.9c.1 1-.7 1.8-1.7 1.9h-.1c-1.1.1-2.2.1-3.3.1h-103.5c-5.6 0-5.5.4-5.5-5.5-.2-23.9-.2-47.6-.2-71.3z"/><path d="m1462.1 141v-75.8c0-4.7 0-4.7 4.7-4.7h29.3c1.1 0 2.2 0 3.3.1.8 0 1.5.7 1.5 1.5.1 1.1.1 2.2.1 3.3v150.2c0 5.8.4 5.5-5.4 5.5-9.4 0-18.9 0-28.3 0-1.3 0-2.6-.1-3.8-.2-.7 0-1.2-.6-1.2-1.2-.1-1.4-.1-2.9-.1-4.3-.1-24.8-.1-49.6-.1-74.4z"/><path d="m1244.4 339.3v-69.6c0-1 0-1.9 0-2.9.1-3.7.1-3.7 3.8-3.7h31.7 1.4c1.6.1 2.1.5 2.2 1.9.1 1 0 1.9 0 2.9v142.5c0 5.3-.2 5-5 5h-29.3c-.8 0-1.6 0-2.4 0-1.8-.1-2.3-.5-2.4-2.2-.1-1.3 0-2.6 0-3.8 0-23.4 0-46.8 0-70.1z"/><path d="m445.4 321.3c4.1.1 8.3.2 12.5.3 16.8.6 33.5 1.7 50.2 3.5 11.3 1.2 22.6 2.6 33.8 4.3 13.6 2.1 27.1 4.7 40.5 7.8 20.9 4.7 41.4 10.8 61.5 18.3 7.3 2.8 14.5 5.9 21.5 9.3 1.4.5 2.2 1.9 2.1 3.4v27.8c0 1.5-.8 1.9-2.2 1-7.3-4.7-14.7-9.1-22.3-13.2-15.6-8.4-31.7-15.9-48.3-22.3-16.5-6.4-33.4-11.9-50.5-16.6-11.2-3.1-22.6-5.8-34-8.2-13.3-2.8-26.6-5.2-40.1-7.2-9.3-1.4-18.7-2.4-28.1-3.5-10.8-1.3-21.6-2.1-32.5-2.8-.6-.1-1.2-.2-1.8-.4-.2-.1-.2-.5-.2-.8 0-.1.1-.3.2-.4.6-.2 1.2-.3 1.9-.3 7.7-.2 15.3-.4 23-.5 4.3-.1 8.6 0 13 0z"/><path d="m403.8 323.2c-5.6.5-11.2 0-16.8-.1-.2 0-.5-.3-.6-.6s0-.6.5-.7c1.3-.1 2.5-.2 3.8-.3h12.9c.1.6.1 1.2.2 1.7z"/><path d="m403.8 323.2c0-.5-.1-1.1-.1-1.6.6 0 1.2 0 1.8.1s.8.4.7.9c-.1.3-.3.5-.6.5-.7 0-1.3.1-1.8.1z"/><path d="m2357 352c-.2-.5 0-.7.4-.7.2.4 0 .7-.4.7z"/><path d="m2426.9 351 .9-.5c-.1.5-.4.7-.9.5z"/><path d="m2427.7 323.2c-.4 0-.7-.1-.8-.5.5-.2.8 0 .8.5z"/><path d="m2357.7 387.1c-.4.4-.6.3-.5-.2.3-.2.4-.1.5.2z"/><path d="m2357.3 291.7v-.4l.4.1-.1.3z"/><path d="m386.4 322.5s40.4-3.2 63.6-.9 10.8 6.9 10.8 6.9"/></g></svg>