<svg enable-background="new 0 0 400 128" viewBox="0 0 400 128" xmlns="http://www.w3.org/2000/svg"><path d="m31.84 124.98h-17.12c-2.43 0-4.55-1.82-4.55-4.19v-35.26c0-2.06 1.88-3.88 4.25-3.88 2.31 0 4.25 1.82 4.25 3.88v31.8h13.17c2.18 0 4.13 1.64 4.13 3.76-.01 2.19-1.83 3.89-4.13 3.89z"/><path d="m50.47 122.68c-.61 1.76-2.55 2.85-4.01 2.85-2.37 0-4.37-1.58-4.37-3.88 0-.3.06-1.03.18-1.34l11.83-34.53c.79-2.37 2-4.13 4.92-4.13 2.91 0 4.13 1.7 4.98 4.13l11.83 34.53c.12.3.18 1.03.18 1.34 0 2.31-1.88 3.88-4.37 3.88-1.58 0-3.52-1.15-4.13-2.85l-2.12-6.13h-12.92zm9.65-23.43c-.55-1.76-.85-4.07-1.09-5.95-.24 1.88-.55 4.19-1.09 5.95l-3.22 10.38h8.5z"/><path d="m89.91 109.57c0 5.22 1.82 8.5 7.28 8.5 2.12 0 3.64-.55 5.04-1.27v-9.47h-3.16c-2 0-3.82-1.7-3.82-3.82s1.82-3.82 3.82-3.82h6.62c2.79 0 4.98 1.34 4.98 4.25v13.41c0 5.71-7.53 8.13-13.78 8.13-10.62 0-15.48-6.31-15.48-15.9v-12.03c0-9.59 4.86-15.9 15.48-15.9 6.43 0 12.56 2.97 12.56 6.49 0 1.94-1.7 3.64-4.01 3.64-1.4 0-1.82-.42-2.61-.91l-.61-.36c-1.52-.91-3.1-1.46-5.04-1.46-5.46 0-7.28 3.28-7.28 8.5v12.02z"/><path d="m118.37 109.57v-12.02c0-8.62 4.43-15.9 15.78-15.9s15.78 7.28 15.78 15.9v12.02c0 8.86-5.28 15.96-15.78 15.96s-15.78-7.1-15.78-15.96zm8.5-12.02v12.02c0 4.86 2.31 8.25 7.28 8.25 4.98 0 7.28-3.4 7.28-8.25v-12.02c0-4.92-1.94-8.19-7.28-8.19s-7.28 3.27-7.28 8.19z"/><path d="m180.57 124.98h-16.08c-2.97 0-5.64-1.03-5.64-4.31v-34.17c0-2.12 2-4.31 4.67-4.31h16.45c2.31 0 4.25 1.82 4.25 3.95 0 2.18-1.94 3.76-4.25 3.76h-12.62v9.77h11.47c2.12 0 4.19 1.64 4.19 3.82s-1.82 3.88-4.19 3.88h-11.47v9.89h13.23c2.25 0 4.25 1.7 4.25 3.76-.01 2.2-1.95 3.96-4.26 3.96z" fill="#006ab2"/><path d="m214.98 123.4-14.08-24.52v22.7c0 2.12-2 3.95-4.31 3.95-2.37 0-4.19-1.82-4.19-3.95v-35.8c0-2.37 1.88-4.13 4.43-4.13 1.64 0 3.28.91 4.13 2.25 5.4 9.35 8.5 14.87 14.08 24.64v-22.95c0-2.12 2-3.95 4.31-3.95 2.37 0 4.19 1.82 4.19 3.95v35.81c0 2.25-1.82 4.13-4.49 4.13-1.58 0-3.28-.85-4.07-2.13z" fill="#006ab2"/><path d="m255.28 124.98h-17.11c-2.43 0-4.55-1.82-4.55-4.19v-35.26c0-2.06 1.88-3.88 4.25-3.88 2.31 0 4.25 1.82 4.25 3.88v31.8h13.17c2.19 0 4.13 1.64 4.13 3.76-.02 2.19-1.84 3.89-4.14 3.89z"/><path d="m266.5 85.53c0-2.06 1.88-3.88 4.25-3.88 2.31 0 4.25 1.82 4.25 3.88v36.11c0 2.06-1.94 3.88-4.25 3.88-2.37 0-4.25-1.82-4.25-3.88zm6.07-15.78.49-.49c.73-.73 1.15-1.15 2.49-1.15 1.4 0 2.97 1.27 2.97 2.97 0 .49-.12 1.09-.55 1.7l-4.98 4.98c-.91.79-1.4 1.27-2.73 1.27-1.7 0-3.1-1.21-3.1-2.97 0-.61.12-1.03.49-1.52z"/><path d="m307.65 123.4-14.08-24.52v22.7c0 2.12-2 3.95-4.31 3.95-2.37 0-4.19-1.82-4.19-3.95v-35.8c0-2.37 1.88-4.13 4.43-4.13 1.64 0 3.28.91 4.13 2.25 5.4 9.35 8.5 14.87 14.08 24.64v-22.95c0-2.12 2-3.95 4.31-3.95 2.37 0 4.19 1.82 4.19 3.95v35.81c0 2.25-1.82 4.13-4.49 4.13-1.59 0-3.29-.85-4.07-2.13z"/><path d="m348 124.98h-16.08c-2.97 0-5.64-1.03-5.64-4.31v-34.17c0-2.12 2-4.31 4.67-4.31h16.45c2.31 0 4.25 1.82 4.25 3.95 0 2.18-1.94 3.76-4.25 3.76h-12.62v9.77h11.47c2.12 0 4.19 1.64 4.19 3.82s-1.82 3.88-4.19 3.88h-11.47v9.89h13.22c2.25 0 4.25 1.7 4.25 3.76 0 2.2-1.94 3.96-4.25 3.96z"/><path d="m366.93 122.68c-.61 1.76-2.55 2.85-4.01 2.85-2.37 0-4.37-1.58-4.37-3.88 0-.3.06-1.03.18-1.34l11.83-34.53c.79-2.37 2-4.13 4.92-4.13 2.91 0 4.13 1.7 4.98 4.13l11.84 34.53c.12.3.18 1.03.18 1.34 0 2.31-1.88 3.88-4.37 3.88-1.58 0-3.52-1.15-4.13-2.85l-2.12-6.13h-12.93zm9.65-23.43c-.55-1.76-.85-4.07-1.09-5.95-.24 1.88-.55 4.19-1.09 5.95l-3.22 10.38h8.5z"/><path d="m149.95 2.47c.37.43.89.2 1.33.28 4.23.75 7.34 3.1 9.6 6.65 2.71 4.25 4.56 8.88 6 13.68 2.71 9.04 5.81 17.94 9.23 26.74.81 2.09 2.24 3.14 4.4 3.26 2.68.16 5.36.06 8.04.02 3.61-.04 7.22-.06 10.83-.02 4.06.05 7.23-1.63 9.63-4.82 2.44-3.24 4.29-6.85 6.5-10.23 1.77-2.69 3.41-5.49 5.63-7.84 5.32-5.66 14.1-6.26 20.43-1.5 1.86 1.4 3.4 3.09 4.58 5.09 2.82 4.78 5.65 9.54 8.43 14.34 2.05 3.54 5.12 5.03 9.16 4.96 5.19-.09 10.38-.03 15.57-.06.75 0 1.51-.11 2.26-.21 2.38-.33 3.87-1.76 4.8-3.88 1.25-2.86 2.09-5.86 3.06-8.81 2.69-8.18 5.08-16.47 8.08-24.55 1.19-3.22 2.73-6.29 5.12-8.83 2.14-2.28 4.75-3.67 7.88-4.06.16-.02.35.01.42-.2h2.06c.07.06.14.16.22.17 4.66.53 7.97 3.06 10.39 6.92 2.77 4.41 4.63 9.22 6.1 14.18 2.64 8.88 5.74 17.61 9.09 26.24.62 1.61 1.73 2.56 3.42 2.92.75.16 1.5.18 2.25.18 11.82-.01 23.64-.02 35.46-.03.51 0 1.02-.01 1.53.12 1.82.44 2.76 1.74 3.35 3.38v1.85c-.06.07-.15.14-.19.22-.91 2.26-2.21 3.17-4.63 3.18-7.81.03-15.61.05-23.42.07-4.64.02-9.28-.05-13.92-.12-4.67-.07-8.04-2.14-10.51-5.95-1.75-2.71-2.63-5.78-3.67-8.78-2.93-8.47-5.41-17.09-8.45-25.52-.91-2.52-2-4.95-3.59-7.13-.67-.92-1.42-1.76-2.35-2.43-1.73-1.24-3.31-1.11-4.8.42-1.32 1.35-2.08 3.05-2.89 4.71-2.75 5.65-4.46 11.68-6.4 17.63-1.53 4.68-3.01 9.38-4.56 14.05-1.12 3.36-3.04 6.29-5.34 8.94-2.82 3.25-6.68 4.21-10.78 4.22-6.12 0-12.24-.01-18.35-.26-5.05-.2-9.04-2.61-11.93-6.74-3.33-4.75-6.03-9.88-8.91-14.9-.53-.92-1.06-1.84-1.73-2.67-3.41-4.27-8.35-4.43-12.04-.4-.98 1.07-1.75 2.28-2.53 3.49-2.24 3.49-4.31 7.08-6.4 10.66-2.31 3.95-5.21 7.3-9.5 9.25-2.8 1.27-5.76 1.51-8.76 1.52-5.98.02-11.97-.04-17.95.01-4.37.03-8.12-1.2-10.82-4.83-1.26-1.69-2.2-3.54-2.92-5.51-3.22-8.8-5.82-17.81-8.85-26.67-1.13-3.3-2.25-6.61-4.16-9.58-.65-1.02-1.41-1.95-2.29-2.77-2.14-1.97-4.31-1.79-6.05.56-1.05 1.41-1.82 2.98-2.56 4.56-2.61 5.56-4.32 11.45-6.19 17.28-1.5 4.65-2.92 9.33-4.54 13.95-1.16 3.31-3.04 6.22-5.3 8.86-2.39 2.8-5.67 3.87-9.24 4.16-3.95.32-7.9-.05-11.85-.05-2.58 0-5.16-.02-7.73-.12-5.41-.21-9.54-2.72-12.55-7.14-3.19-4.68-5.87-9.66-8.66-14.57-.75-1.31-1.54-2.59-2.64-3.66-2.92-2.83-6.56-3.04-9.78-.55-1.12.87-2.03 1.94-2.82 3.12-2.52 3.8-4.84 7.72-7.1 11.68-1.45 2.54-3.13 4.92-5.34 6.88-3.74 3.32-8.15 4.62-13.11 4.42-3.12-.13-6.25-.16-9.38-.2-5.12-.05-10.25-.06-15.37-.1-1.95-.01-3.54-1.08-4.17-2.78-.62-1.65-.24-3.37 1.02-4.53.8-.73 1.74-1.03 2.82-1.03 5.57 0 11.14 0 16.72-.03 3.02-.02 6.05-.09 9.07-.13 3.53-.05 6.35-1.55 8.56-4.24 2.17-2.64 3.72-5.67 5.53-8.53 1.84-2.93 3.71-5.84 5.8-8.61 4.66-6.15 12.68-7.93 19.52-4.32 3.07 1.62 5.35 4.02 7.07 7 2.71 4.69 5.42 9.37 8.22 14 2.08 3.44 5.14 4.8 9.07 4.73 4.71-.08 9.42-.02 14.14-.03 1.17 0 2.33-.05 3.5-.21 2.05-.29 3.58-1.27 4.55-3.12 1.17-2.23 1.83-4.64 2.62-7 2.92-8.83 5.53-17.76 8.68-26.52 1.18-3.3 2.71-6.45 5.06-9.11 2.32-2.63 5.22-4.18 8.76-4.45.17-.01.35.02.41-.21.36-.01.71-.01 1.05-.01z" fill="#026bb2"/></svg>