<svg enable-background="new 0 0 2531.1 712.3" viewBox="0 0 2531.1 712.3" xmlns="http://www.w3.org/2000/svg"><g fill="#fff"><path d="m851 495.1c3.3 5.5 7.1 9.8 11.3 12.7 4.3 3 8.7 5 13.2 6 4.5 1.1 8.4 1.6 11.6 1.6 3.6 0 7.1-.5 10.6-1.4 3.4-1 6.5-2.5 9.2-4.5 1.5-1.1 2.7-2.4 3.8-3.8-.8.8-1.5 1.6-2.4 2.3-2.7 2-5.7 3.5-9.2 4.4-3.5 1-7 1.5-10.6 1.5-3.2 0-7-.5-11.6-1.6s-8.9-3.1-13.2-6.1-8-7.2-11.4-12.8c-3.3-5.5-5.4-12.8-6.2-21.7h-3.9v1.5h2.4c1 9.1 3.1 16.4 6.4 21.9z"/><path d="m846.1 471.8c.8 9 2.9 16.2 6.3 21.7 3.3 5.5 7.1 9.8 11.3 12.8 4.3 3 8.7 5 13.2 6 4.6 1.1 8.4 1.5 11.6 1.5 3.6 0 7.1-.5 10.6-1.4 3.5-1 6.5-2.4 9.1-4.5 2.7-2.1 4.8-4.6 6.4-7.6 1.6-3.1 2.4-6.6 2.4-10.6 0-5.7-1.8-10.7-5.5-14.9-3.7-4.3-8.3-8.2-13.9-11.9-5.6-3.6-11.6-7.2-18.1-10.7-6.4-3.5-12.4-7.4-18-11.6-5.6-4.3-10.3-9.1-13.9-14.4-3.7-5.4-5.5-11.8-5.5-19.3 0-5.7 1.1-10.9 3.2-15.7 2.2-4.8 5.2-8.9 9-12.4s8.2-6.2 13.2-8.2c5-1.9 10.3-2.9 15.9-2.9 3.9 0 7.5.4 10.7 1.4 3.2.9 6.1 1.8 8.7 2.9 1.3.6 2.8 1.6 4.6 2.9 1.7 1.3 3.6 2.6 5.7 3.7s4.3 1.8 6.6 2.1 4.7-.5 7.3-2.2l-.6 40.6h-3.9c-.4-5.8-1.6-11.4-3.6-16.6s-4.7-9.7-8.1-13.5-7.6-6.8-12.3-9.1c-4.7-2.2-10-3.3-16-3.3-3 0-6.1.5-9.1 1.7-3 1.1-5.7 2.7-8 4.8s-4.2 4.6-5.6 7.4c-1.4 2.9-2.2 5.9-2.2 9.2 0 5.2 2 9.8 5.9 13.8 4 3.9 8.9 7.7 14.7 11.2s12.2 7 19.1 10.4 13.3 7.3 19.1 11.5c5.8 4.3 10.7 9.1 14.7 14.5s5.9 11.7 5.9 19c0 5.9-1.1 11.3-3.3 16.5-2.3 5.1-5.4 9.7-9.5 13.7-4.1 3.9-9 7-14.7 9.3-5.7 2.2-12 3.4-18.9 3.4-5.1 0-9.4-.4-13-1.3s-6.9-1.9-9.7-2.9c-1.5-.6-2.8-1.3-4.1-2.3s-2.8-1.9-4.6-2.8-4.1-1.6-6.7-2.4c-2.7-.6-6.1-1-10.3-1v-38.1h3.9z"/><path d="m1298.8 471.8c.9 9 3 16.2 6.3 21.7s7.1 9.8 11.3 12.8 8.6 5 13.2 6c4.5 1.1 8.4 1.5 11.5 1.5 3.6 0 7.1-.5 10.6-1.4 3.5-1 6.5-2.4 9.2-4.5 2.7-2 4.8-4.6 6.4-7.6 1.6-3.1 2.4-6.6 2.4-10.6 0-5.7-1.8-10.7-5.5-14.9-3.7-4.3-8.3-8.2-13.9-11.9-5.6-3.6-11.7-7.2-18.1-10.7s-12.4-7.4-18-11.6c-5.6-4.3-10.2-9.1-13.9-14.4-3.7-5.4-5.5-11.8-5.5-19.3 0-5.7 1.1-10.9 3.2-15.7 2.2-4.8 5.2-8.9 9-12.4s8.2-6.2 13.2-8.2c5-1.9 10.3-2.9 15.8-2.9 3.9 0 7.5.4 10.7 1.4 3.2.9 6.2 1.8 8.7 2.9 1.3.6 2.8 1.6 4.5 2.9s3.6 2.6 5.7 3.7 4.3 1.8 6.6 2.1 4.7-.5 7.3-2.3l-.7 40.6h-3.9c-.4-5.8-1.6-11.4-3.6-16.6-1.9-5.2-4.6-9.7-8.1-13.5s-7.6-6.8-12.3-9.1c-4.8-2.2-10.1-3.3-16-3.3-3 0-6.1.5-9.1 1.7-3 1.1-5.7 2.7-8 4.8s-4.2 4.6-5.6 7.4c-1.5 2.9-2.2 5.9-2.2 9.2 0 5.2 2 9.8 5.9 13.8 4 3.9 8.8 7.7 14.7 11.2 5.8 3.5 12.2 7 19.1 10.4s13.3 7.3 19.1 11.5c5.8 4.3 10.7 9.1 14.7 14.5s5.9 11.7 5.9 19c0 5.8-1.1 11.3-3.3 16.4-2.2 5.2-5.4 9.7-9.5 13.7-4.1 3.9-9 7-14.7 9.3-5.7 2.2-11.9 3.4-18.9 3.4-5.1 0-9.4-.5-12.9-1.3-3.6-.9-6.8-1.9-9.7-2.9-1.4-.6-2.8-1.3-4.1-2.3s-2.8-1.9-4.6-2.8-4-1.6-6.7-2.4c-2.7-.6-6.1-1-10.2-1v-38.1h4z"/><path d="m1513.7 482.1c-1.4 5.2-2.9 9.7-4.5 13.3-1.6 3.7-3.5 6.7-5.8 9.1s-5.1 4.1-8.3 5.2c-3.3 1-7.3 1.6-12 1.6h-16.4c-6.2 0-11-.9-14.3-2.7-3.4-1.8-5.9-4.1-7.3-6.7-1.6-2.7-2.4-5.5-2.6-8.5s-.3-5.6-.3-7.8v-39.7h28.7 11.2c3.2 0 5.8.3 7.9 1s3.6 2 4.5 3.8c1 1.9 1.4 4.6 1.4 8.2h3.9v-30.9h-3.9c0 2.7-.5 4.8-1.5 6.2s-2.6 2.4-4.6 2.9c-2.1.5-4.7.8-7.8.8-3 0-6.7 0-11.1 0h-28.9v-58.7h36.5c5.1 0 9.3.2 12.6.7 3.4.4 6.2 1.5 8.5 3.1s4.1 4.1 5.5 7.3 2.6 7.7 3.6 13.3h4.3l-2-32.5h-109.7v4.1c5 0 8.9.4 11.7 1.1 2.7.7 4.7 2.1 6 4s2.1 4.5 2.3 7.6.3 7 .3 11.6v119.8h90.5l7.6-37.2z"/><path d="m1553.6 399.5c0-4.6-.1-8.5-.3-11.6s-1-5.7-2.3-7.6-3.3-3.3-6.1-4c-2.7-.8-6.6-1.1-11.7-1.1v-4.2h66.1c10.1 0 18.7 1.1 25.7 3.3 7.1 2.2 12.8 5.1 17.2 8.9 4.4 3.7 7.6 8 9.6 12.8 2 4.7 3 9.8 3 15 0 8.3-2.4 15.2-7.3 20.8-4.9 5.7-10.9 9.6-17.9 11.6v.4c4.2.6 8.1 1.9 12 3.7 3.8 1.9 7.2 4.2 10.1 7.1 3 2.9 5.4 6.3 7.1 10.3 1.8 3.9 2.7 8.3 2.7 13.1 0 3.3-.6 7.3-1.9 12-1.2 4.7-3.8 9.2-7.7 13.6-3.9 4.3-9.5 8-16.8 11.1-7.2 3-16.8 4.5-28.8 4.5h-52.9v-119.7zm20.3 108.8c7.5 1.9 15.6 2.9 24.4 2.9 4.6 0 9.2-.6 13.8-1.7s8.8-2.9 12.5-5.4c3.7-2.4 6.8-5.6 9.2-9.5s3.6-8.6 3.6-14.1c0-6.6-1.4-12.1-4.1-16.5s-6.2-7.9-10.6-10.5c-4.3-2.6-9.2-4.4-14.6-5.5-5.4-1-10.8-1.5-16.1-1.3l-18.3.7zm42.4-72.2c4.6-2.2 8.2-4.8 10.7-7.9s4.1-6.4 4.9-9.7c.7-3.4 1.1-6.2 1.1-8.4 0-5.8-1.2-10.7-3.6-14.6-2.4-4-5.5-7.2-9.4-9.8-3.9-2.5-8.3-4.4-13.1-5.5s-9.6-1.7-14.4-1.7c-3.9.1-7 1.2-9.3 3.1s-4.4 5.3-6.4 10-2.9 11.7-2.9 20.9v26.7l23.8.2c7.8 0 14-1.1 18.6-3.3z"/><path d="m1812.1 471.8c.9 9 2.9 16.2 6.3 21.7 3.3 5.5 7.1 9.8 11.3 12.8 4.3 3 8.6 5 13.2 6 4.5 1.1 8.4 1.5 11.6 1.5 3.6 0 7.1-.5 10.6-1.4 3.5-1 6.5-2.4 9.2-4.5 2.7-2 4.8-4.6 6.4-7.6 1.6-3.1 2.4-6.6 2.4-10.6 0-5.7-1.8-10.7-5.5-14.9-3.7-4.3-8.3-8.2-13.9-11.9-5.6-3.6-11.7-7.2-18-10.7-6.4-3.5-12.4-7.4-18-11.6-5.6-4.3-10.2-9.1-13.9-14.4-3.7-5.4-5.5-11.8-5.5-19.3 0-5.7 1.1-10.9 3.2-15.7 2.2-4.8 5.1-8.9 9-12.4 3.8-3.5 8.2-6.2 13.1-8.2 5-1.9 10.3-2.9 15.9-2.9 3.8 0 7.4.4 10.7 1.4 3.2.9 6.1 1.8 8.7 2.9 1.3.6 2.8 1.6 4.5 2.9s3.6 2.6 5.7 3.7 4.3 1.8 6.6 2.1 4.7-.5 7.3-2.3l-.7 40.6h-3.9c-.4-5.8-1.6-11.4-3.6-16.6s-4.6-9.7-8.1-13.5-7.6-6.8-12.4-9.1c-4.7-2.2-10.1-3.3-16-3.3-3 0-6 .5-9 1.7-3 1.1-5.7 2.7-8 4.8s-4.2 4.6-5.6 7.4c-1.4 2.9-2.1 5.9-2.1 9.2 0 5.2 2 9.8 5.9 13.8 4 3.9 8.9 7.7 14.7 11.2s12.2 7 19.1 10.4 13.3 7.3 19.1 11.5c5.8 4.3 10.7 9.1 14.7 14.5 3.9 5.4 5.9 11.7 5.9 19 0 5.8-1.1 11.3-3.4 16.4-2.2 5.2-5.4 9.7-9.5 13.7-4.1 3.9-9 7-14.7 9.3-5.7 2.2-12 3.4-18.9 3.4-5.1 0-9.4-.5-13-1.3-3.6-.9-6.8-1.9-9.7-2.9-1.4-.6-2.8-1.3-4.1-2.3s-2.8-1.9-4.6-2.8-4-1.6-6.7-2.4c-2.6-.6-6.1-1-10.2-1v-38.1h3.9z"/><path d="m1965.1 380.5h-12.1c-11.8 0-19.9 1.8-24.4 5.4-4 3.1-7.2 10.9-9.7 23.3h-5.2l1.3-38.1h121.8l1.3 38.1h-5.2c-2.6-12.2-5.8-20-9.7-23.3-3.9-3.6-12.1-5.4-24.6-5.4h-11.9v138.8h-21.6z"/><path d="m2065.9 371h20.3v148.2h-20.3z"/><path d="m1105.4 277.4c0 5.9-.7 12-2 18s-3.8 11.5-7.4 16.3c-3.7 4.8-8.6 8.8-14.9 11.8s-14.4 4.5-24.4 4.5c-10.2 0-18.5-1.4-24.9-4.2s-11.4-6.5-15-11.1-6.1-10-7.5-16-2-12.2-2-18.7v-59.2c0-4-.1-7.5-.3-10.3s-.9-5.1-2-6.8-2.9-2.9-5.4-3.5c-2.4-.7-5.9-1-10.3-1v-3.6h36v77.6c0 2 .1 4.3.1 6.9.1 2.6.2 5.3.4 8.1s.5 5.4.8 7.9.8 4.6 1.4 6.4c1.1 3.3 2.7 6.2 4.8 8.5 2 2.4 4.4 4.3 7 5.9s5.5 2.8 8.5 3.5 6.2 1.1 9.3 1.1c6.3 0 12.5-1.3 18.7-3.9s11.2-6.6 14.8-12.2c1.5-2.4 2.7-5.1 3.6-8.1.8-3.1 1.4-6.1 1.8-9.3s.6-6.4.7-9.5c.1-3.2.1-6.1.1-8.8v-74l8.2.2v83.5z"/><path d="m1272.1 193.7h18v131.4h-18z"/><path d="m1381.6 328h-3.5l-45-109.5c-1-2.5-2.1-5-3.3-7.5-1.2-2.4-2.5-4.6-3.9-6.5-1.5-1.9-3.2-3.6-5.3-4.9-2-1.3-4.5-2.1-7.5-2.4v-3.6h29.7l41.9 104.6 40.4-104.6h9.2z"/><path d="m1477.5 252.9h25.5 9.8c2.8 0 5.1-.3 7-.7 1.9-.5 3.2-1.3 4.1-2.6.9-1.2 1.3-3.1 1.3-5.4h3.4v27.4h-3.4c0-3.2-.4-5.6-1.3-7.3-.8-1.6-2.1-2.8-4-3.4-1.8-.6-4.2-.9-7-.9s-6.1 0-9.9 0h-25.5v35.1c0 2 .1 4.3.3 7 .2 2.6 1 5.1 2.3 7.6 1.4 2.3 3.5 4.3 6.5 5.9s7.2 2.4 12.7 2.4h14.6c4.2 0 7.7-.5 10.6-1.4s5.3-2.4 7.4-4.6c2-2.1 3.8-4.8 5.2-8s2.7-7.2 4-11.8h5.4l-6.7 33h-80.2v-106.3c0-4-.1-7.5-.3-10.3s-.9-5.1-2-6.8-2.9-2.9-5.3-3.5c-2.4-.7-5.9-1-10.3-1v-3.6h97.2l1.7 28.8h-3.8c-.9-5-1.9-8.9-3.1-11.8-1.2-2.8-2.9-5-4.9-6.5-2.1-1.5-4.6-2.4-7.6-2.7-3-.5-6.7-.6-11.2-.6h-32.3v52z"/><path d="m1573.4 218.9c0-4-.1-7.5-.3-10.3s-.8-5.1-2-6.8c-1.1-1.7-2.9-2.9-5.3-3.5-2.4-.7-5.9-1-10.3-1v-3.6h54.9c9.3 0 16.8 1.2 22.6 3.7 5.7 2.4 10.2 5.4 13.4 9s5.3 7.3 6.4 11.2 1.6 7.3 1.6 10.2c0 4.8-.9 9-2.6 12.7s-4 6.9-6.9 9.7-6.2 5.1-10 6.9c-3.7 1.8-7.7 3.1-11.9 4.1l24.7 35.7c2.3 3.4 4.5 6.6 6.7 9.4s4.5 5.3 7.1 7.4c2.5 2.1 5.4 3.9 8.6 5.2 3.2 1.4 7 2.2 11.3 2.6v3.6h-33.9l-46.5-67.5c4 0 7.9-.5 11.8-1.4s7.3-2.5 10.2-4.8c2.9-2.2 5.3-5.2 7.2-8.9 1.8-3.7 2.8-8.3 2.8-13.9 0-3.9-.6-7.6-1.8-11-1.2-3.3-2.9-6.3-5.3-8.8-2.3-2.5-5.1-4.4-8.3-5.8s-6.7-2.1-10.5-2.1c-1.4 0-3 .1-4.8.3s-3.5.8-5.1 1.9c-1.6 1-2.9 2.8-4.1 5.3-1.1 2.5-1.7 6-1.7 10.5v106.2h-18z"/><path d="m1692.6 283c.8 7.9 2.6 14.3 5.6 19.2 2.9 4.9 6.2 8.7 10 11.3s7.7 4.4 11.7 5.3 7.4 1.4 10.2 1.4c3.2 0 6.3-.4 9.4-1.3 3.1-.8 5.8-2.2 8.1-3.9 2.3-1.8 4.3-4 5.7-6.7 1.4-2.8 2.1-5.9 2.1-9.5 0-5-1.6-9.4-4.9-13.2s-7.4-7.2-12.4-10.5c-5-3.2-10.3-6.4-16-9.5s-11-6.6-16-10.3c-5-3.8-9.1-8.1-12.3-12.8-3.3-4.7-4.9-10.4-4.9-17 0-5 .9-9.6 2.9-13.9 1.9-4.2 4.5-7.9 7.9-11s7.3-5.5 11.7-7.3c4.4-1.7 9.1-2.6 14.1-2.6 3.5 0 6.6.4 9.5 1.2s5.4 1.7 7.8 2.6c1.1.6 2.5 1.4 4 2.6 1.6 1.2 3.2 2.3 5.1 3.3 1.8 1 3.8 1.6 5.8 1.9 2.1.3 4.2-.4 6.5-2l-.5 35.9h-3.5c-.4-5.1-1.4-10-3.2-14.7-1.7-4.6-4.1-8.6-7.1-12-3.1-3.4-6.7-6-10.9-8-4.3-2-9-3-14.2-3-2.7 0-5.4.5-8 1.5-2.7 1-5.1 2.4-7.1 4.2s-3.7 4.1-5 6.6-1.9 5.2-1.9 8.1c0 4.6 1.7 8.7 5.3 12.2 3.5 3.5 7.9 6.8 13 9.9 5.2 3.1 10.8 6.2 17 9.2 6.1 3 11.7 6.5 16.9 10.2 5.2 3.8 9.5 8 13 12.8s5.2 10.4 5.2 16.9c0 5.2-1 10.1-2.9 14.6-2 4.6-4.8 8.6-8.4 12.1s-8 6.3-13 8.3-10.6 3-16.7 3c-4.5 0-8.3-.4-11.5-1.2s-6.1-1.6-8.6-2.6c-1.3-.5-2.5-1.2-3.6-2.1-1.2-.9-2.5-1.7-4.1-2.5s-3.6-1.5-6-2.1c-2.3-.6-5.4-.9-9.1-.9v-33.7z"/><path d="m1802.7 193.7h18v131.4h-18z"/><path d="m1865.3 218.9c0-4-.1-7.5-.3-10.3s-.9-5.1-2-6.8-2.9-2.9-5.3-3.5c-2.4-.7-5.9-1-10.3-1v-3.6h49c4.3 0 8.8.1 13.5.3s9.3.7 13.9 1.3c4.6.7 9.1 1.8 13.5 3.3s8.5 3.6 12.2 6.1c4.3 3.1 8.1 6.6 11.3 10.6s5.8 8.4 7.9 13.1 3.7 9.6 4.7 14.8c1 5.1 1.6 10.4 1.6 15.7 0 9-1.4 17.5-4.2 25.5s-7.1 15.1-12.8 21.2-12.9 10.9-21.4 14.4-18.6 5.3-30 5.3h-41v-106.4zm18 96.4c3.3.8 6.6 1.4 10 1.9 3.3.5 6.6.7 10 .7 8.2 0 15.4-1.6 21.6-4.7s11.5-7.3 15.7-12.7 7.4-11.6 9.6-18.7 3.3-14.6 3.3-22.5c0-8.1-1.1-15.7-3.3-22.8-2.2-7.2-5.4-13.4-9.7-18.7s-9.6-9.5-16-12.5-13.7-4.6-22-4.6c-3.9.6-7.1 1.6-9.6 3.3-2.4 1.7-4.6 4.4-6.6 8.2s-3 9.2-3 16.2z"/><path d="m2112.4 218.9c0-4-.1-7.5-.3-10.3s-.9-5.1-2-6.8-2.9-2.9-5.3-3.5c-2.4-.7-5.9-1-10.3-1v-3.6h49c4.3 0 8.8.1 13.5.3s9.3.7 13.9 1.3c4.6.7 9.1 1.8 13.5 3.3s8.4 3.6 12.1 6.1c4.3 3.1 8.1 6.6 11.3 10.6s5.8 8.4 8 13.1c2.1 4.7 3.6 9.6 4.7 14.8 1 5.1 1.6 10.4 1.6 15.7 0 9-1.4 17.5-4.2 25.5s-7.1 15.1-12.8 21.2c-5.8 6.1-12.9 10.9-21.4 14.4s-18.6 5.3-30 5.3h-41v-106.4zm18 96.4c3.3.8 6.6 1.4 10 1.9 3.3.5 6.6.7 10 .7 8.1 0 15.3-1.6 21.6-4.7s11.5-7.3 15.7-12.7 7.4-11.6 9.6-18.7 3.3-14.6 3.3-22.5c0-8.1-1.1-15.7-3.3-22.8-2.2-7.2-5.4-13.4-9.7-18.7s-9.6-9.5-16-12.5-13.7-4.6-22-4.6c-4 .6-7.1 1.6-9.6 3.3-2.4 1.7-4.6 4.4-6.6 8.2s-3 9.2-3 16.2z"/><path d="m2368 371.1h-9.3v110.9h-.4l-.9-1.1v-.1l-86-109.5-.1-.1h-10.6v31.6 116.7h7.9 1.5v-114-.2-2.7h.3l93.7 119.2h2.5 4.1v-125.5c0-4.1.1-7.6.3-10.3.2-2.8.9-5.1 2-6.8s2.9-2.9 5.4-3.6c2.4-.7 4.3-1 8.7-1v-3.6h-19.1z"/><path d="m1203.1 372h-9.3v110.9h-.4l-.9-1.2v-.1l-86-109.5-.1-.1h-10.6v31.6 116.7h7.9 1.5v-113.8l-.1-.2v-2.7h.4l93.8 119.1h2.5v.1h4.1v-125.5c0-4.1.1-7.6.3-10.3.2-2.8.9-5 2-6.7s2.9-2.9 5.4-3.6c2.4-.7 4.3-1 8.7-1v-3.7z"/><path d="m1229.2 193.4h-8.2v98.4h-.4l-.8-1v-.1l-76.4-97.3-.1-.1h-9.4v28.1 103.6h7.1v.1h1.3v-101.1l-.1-.2v-2.4h.4l83.2 105.7h2.2v.1h3.6v-111.4c0-3.6.1-6.7.3-9.1.2-2.5.8-4.5 1.8-6s2.6-2.6 4.7-3.2c2.2-.6 3.8-.9 7.8-.9v-3.2z"/><path d="m2035.6 220.9 21.6 52.9h-44.5l-5.3 7.2h52.3l17 44h16.8l-51.1-134.3h-3.4l-57 134.3h31.6v-3.6c-1.8-.1-3.5-.4-5.3-.6-1.7-.3-3.3-.7-4.7-1.3s-2.6-1.4-3.5-2.5-1.3-2.5-1.3-4.4c0-1.8.5-4.1 1.6-6.7.8-2 1.5-3.7 2-5.2l.7-1.7 7.3-18.1"/><path d="m976.9 469.6-8.2 20.4 8.4-20.4z"/><path d="m980.4 461.5h.1l24.7-59.8z"/><path d="m1005.2 401.7 24.4 59.8h-51.1l-6 8h59.9l19.2 49.7h19l-57.6-151.5h-3.9l-64.4 151.6h35.7v-4c-2-.1-4-.4-5.9-.6-2-.3-3.7-.8-5.3-1.5s-2.9-1.6-3.9-2.8-1.5-2.9-1.5-4.9c0-2.1.6-4.6 1.8-7.6.9-2.3 1.7-4.2 2.3-5.8l.8-1.9 8.2-20.5"/><path d="m968.7 490-.8 1.9c.2-.5.4-1.1.6-1.6z"/><path d="m1733.5 401.4 24.4 59.8h-49.7l-6 8.1h58.6l19.2 49.7h19l-57.6-151.6h-3.9l-64.4 151.6h35.6v-4c-2-.2-4-.4-5.9-.7s-3.7-.8-5.3-1.5-2.9-1.6-3.9-2.8-1.5-2.9-1.5-4.9c0-2.1.6-4.6 1.9-7.6.9-2.3 1.6-4.2 2.3-5.8h-.1l.8-1.9 8.3-20.5"/><path d="m2172.5 401.4 24.4 59.7h-51.2l-6 8.1h60.1l19.2 49.8h19l-57.7-151.6h-3.9l-64.3 151.6h35.6v-4c-2-.2-4-.4-5.9-.7s-3.7-.8-5.3-1.5-2.9-1.6-3.9-2.8-1.5-2.8-1.5-4.9.6-4.6 1.8-7.6c.9-2.3 1.7-4.2 2.3-5.8h-.1l.8-1.9 8.3-20.4"/><path d="m452.1 12c-190.2 0-345 154.7-345 344.8s154.8 344.7 345 344.7c190.3 0 345-154.6 345-344.7.1-190.1-154.7-344.8-345-344.8zm0 685.7c-188.2 0-341.2-153-341.2-341s153.1-341 341.2-341c188.2 0 341.3 153 341.3 341 0 188.1-153.1 341-341.3 341z"/><path d="m369.7 490.9h16.7l-8.4 26z"/><path d="m386.4 542.9h-16.7l8.3-26z"/><path d="m352.1 525.6v-16.6l25.9 8.3z"/><path d="m404 509v16.6l-26-8.3z"/><path d="m444.6 490.1h16.7l-8.4 25.9z"/><path d="m461.3 542h-16.7l8.3-26z"/><path d="m427 524.7v-16.6l25.9 8.3z"/><path d="m478.9 508.1v16.6l-26-8.3z"/><path d="m519 491.3h16.7l-8.4 25.9z"/><path d="m535.7 543.2h-16.7l8.3-26z"/><path d="m501.4 526v-16.7l25.9 8.3z"/><path d="m553.3 509.3v16.7l-26-8.4z"/><path d="m450.9 178.2c.5.4 1.1 1.1 1 2 .3.5 1.1.9.7 1.8 0 .1-.2.2-.2.4 0 .4.3.7.3 1.1 0 .5-.4 1-.6 1.2.1.7.4 1.3.2 1.9s-.9.8-1.3 1.2c0 1.2-.6 1.8-1.3 2.2-.3 1.1-.9 2.3-2 2.4-.7.1-2-.5-3.1-.9-.5-.2-1-.4-1.4-.6-1.6-.8-2.4-1.7-3.2-3.5-.3-.8-.9-1.7-.9-2.3 0-.7.6-1.1 1.3-1.3.3-.9.6-1.7 1.8-1.7.7-.8.7-2.3 2.4-2.1.4-.5.6-1.2 1.1-1.5.6-.1 1 .1 1.5.1.4-.1.7-.6 1.1-.6s.5.2 1 .5c.6-.2 1.2-.2 1.6-.3z"/><path d="m437.8 187.4c.1 0 .1.1.2.1 1.9 3 4.1 6 8.7 6.2 0 .4-.6.5-1 .7-1.2.6-2.6 1.3-4.1 1.5-.5.1-.8.5-1.5.5-.7-.1-1.5-.5-2-1-.2-.2-.4-.3-.6-.4-.5-.7-.7-1.7-.5-2.7.2-.1.4.2.5.4.4.5.7 1.2 1.3 1.5-.1-1-1.3-1.8-1.5-3s.3-2.4.3-3.7c.1 0 .2 0 .2-.1z"/><path d="m499.7 221.3c1-.1 1.5.3 1.5 1.2.8.5 1.7 1 1.5 2.1-.1.7-.9 1.1-1.3 1.6-.3.4-.5 1-.9 1.4-.2.2-.5.5-.7.7s-.4.5-.6.7c-.2.1-.4.2-.6.3s-.4.4-.5.5c-.5.5-1.2 1-1.8 1.4-.4.1-.8.3-1.1.5-.7 0-1.1.3-1.5.5-.6-.3-1.3-.5-1.3-1.4-.3-.4-.8-.5-1-.9-.1-.2-.1-.6-.2-.8-.3-.6-.9-.8-.9-1.6 0-.2.1-.4.1-.6-.2-.5-.9-.7-1-1.2.1-.5.4-.9.6-1.3-.4-.8.1-1.4.6-1.9 0-.5.2-.9.3-1.4.3 0 .3-.4.5-.4.1-.1.4 0 .6 0 .2-.1.3-.2.4-.2.2-.1.4 0 .6 0 .5-.2.8-.7 1.3-.7.3 0 .4.1.6.2.5 0 .8-.3 1.1-.2.3 0 .6.3.9.4.5.1.9 0 1.5-.1.8 0 1.1.6 1.3 1.2z"/><path d="m346.1 286.4c.2.7.8 1.5.9 2.3.3 2-1 2.3-2.4 3-.8.4-1.4.7-2.1 1-1.3.5-3.4 1.3-4.9 1.4-2.3.2-4.1-.3-5.6-.7-.4-.6-.9-1-1-1.8 0-.4.3-.7.3-1.1 0-.5-.6-1.1-.6-1.6-.1-.7.3-1.3.3-1.9 0-.7-.3-1.4-.3-2.2 0-.1.1-.3.2-.5.1-.4.4-.7.4-1 0-.6-.6-1.4-.5-2.1.1-.8 1.4-1.2 1.7-1.8-.1-.8.1-1.4.7-1.6.2-.1.5 0 .7-.2.4-.2.7-1.1 1.1-1.5.8-.6 2.4-.1 3.1.5.5.1 1.1-.1 1.7.1.4.1.5.8 1 1.1.4.3 1 .2 1.4.5.2.2.4.7.6 1 .9 1 2.1 1.2 2.3 2.7.1.5-.2 1-.1 1.5.1.4.5.5.8.9.6.5.8 1.2.3 2z"/><path d="m566.9 338.4c.6 0 1.5-.1 2 .2.2.2.3.4.5.7.2.2.5.5.6.5.4.2.8.1 1.1.3.2.1 1 .5 1.1.7.3.3.3.7.5 1.1.7.3 2 .2 2.4.8.4.5 0 1.3.2 2 .2.5 1 .7 1.1 1.3.2.7-.3 1.2-.4 1.6.3.7.8 1.4.7 2.1 0 .4-.4 1-.6 1.3-.4.6-1.2 1-1.7 1.3-.4 1-.8 2.1-2.3 2.1-.5.4-.8.9-1.4 1.3-1 0-1.5.2-2.3.6-.5.3-.9.8-1.6.8-.4 0-.9-.2-1.2-.4-.3-.1-.6-.6-.9-.7-.4 0-.6.3-.9.4-.7.3-1.3.3-1.8-.2-.2-.2-.3-.5-.6-.6s-.7.1-1 .1c-1.3 0-2.3-.6-2.8-1.5.4-3.2.7-6.6 1.7-9.7.7-2 1.8-3.8 3.1-5.5.3-.4.9-1.4 1.3-1.6.4-.1 1.4-.2 1.9 0 .7.2 1 .7 1.3 1z"/><path d="m502.3 233.4s.3-.2.1-.3c0 .1-.3.2-.1.3z"/><path d="m501.5 233.8c.2 0 .4 0 .4-.2-.2.1-.4.1-.4.2z"/><path d="m339.8 302.4c.1.1.6.1.5-.1-.2.1-.4-.2-.5.1z"/><path d="m611.3 310.1c.6-.3 1.4-.5 2.1-.6.8-.2 1.5-.3 2.2-.5.7.3 1.1.8 1.6 1.3.7.1 1.2.5 1.9.6 3.3.3 6.8-3.2 5.2-6.8-.1-.3-.2-.7-.4-.9-.4-.6-1.6-1.4-2.6-1.7-.3-.1-.7-.2-.9-.2-.6 0-1.6.1-2.1.3-.2.1-.6.4-.9.6-.9.4-1.5 1.3-1.9 2.3-.2.5-.3.8-.5 1.4-.1.7.3 1.2 0 1.9-1.9.3-4.1.6-5.9 1.1-.5.1-1.4.6-1.9.6-.5-.1-2-.8-2-1.1-.1-.3.4-1.3.5-1.7.4-1.3.7-2.3 1.1-3.5.2-.6.2-1.5.7-1.6.3-.1.8.2 1.1.2s.7 0 1-.1c.1 0 .3-.2.4-.2.2-.1.4 0 .5-.1.3-.1.6-.4.9-.7.9-.7 1.7-1.7 1.9-2.9.2-1.5-.4-2.9-1.1-3.6-.9-1.1-2.8-1.9-4.5-1.5-.2.1-.7.2-1 .3-.2.1-.4.3-.6.5-.6.4-1.3 1.1-1.6 1.7-.5 1.2-.3 2.9.1 4 .2.5.7 1 .8 1.4.2.9-.1 1.8-.4 2.5-.2.5-.3 1.1-.7 1.3-.7-.3-1.1-1-1.6-1.6-.5-.5-1-1.1-1.5-1.7-.4-.5-.9-1.2-1.3-1.9s-.9-1.5-1-2.2c-.2-1.5.4-2.8 1-3.5.4-.5 1-.7 1.4-1.3 1.1-1.6 1-3.8-.1-5.4-.4-.5-1-.8-1.4-1.3-1.3-.5-2.6-.7-3.9-.3-.8.3-1.8.9-2.3 1.6-.3.3-.6.8-.8 1.2-1.1 2.4.2 5.1 2.2 6.1.5.2 1.1.2 1.5.5 0 1.5.3 2.9.7 4 1 2.7 2.5 5.1 4 7.3.3.5.8.9.7 1.4-1.2-.3-2.4-.9-3.7-1.3-.5-.1-1-.2-1.2-.5s-.2-.8-.4-1.2c-.1-.4-.3-.8-.4-1.2-.3-.5-1.1-1.5-1.1-2.1 0-.4.4-.8.5-1.1.2-.8.1-1.8-.4-2.6-.9-1.5-3.4-2.2-5-.9-.4.3-.8.9-1 1.5-.5 1.1-.2 2.4.4 3.2s1.6 1.3 2.7 1.3c.7 0 1.3-.4 2.1-.5.3.3.4.8.6 1.3s.4 1 .3 1.6c-.9 0-1.8-.3-2.7-.5-2.5-.5-4.8-.7-7.4-.9-.5-.1-1 0-1.5-.1-.2-.6.2-1.1.4-1.6.8-1.4 2.3-2.5 2.3-4.3 0-1.1-.5-2.2-1.3-2.8-.3-.3-.7-.3-1-.7-.8-.2-1.5-.4-2.3-.4-.9.1-1.5.5-2.1 1-.9.8-2.1 2.5-2.1 3.8 0 1.9 1.8 3 3 3.7.4.6 1.5.5 1.7 1.3-.6.2-1.2.2-1.8.3-2 .3-3.8.7-5.5 1.2-2.3.7-4.4 1.6-6.5 2.4-.7.3-1.5.6-2.2.9-.6.3-1.3.8-2.1.8-.2-.5.1-.9.2-1.5.2-1.1.3-2.3.4-3.3.1-.5.4-1 .1-1.5-.4-.1-1.1.1-1.6.2-.6.2-1.4.2-1.8.6-1.4 8.7-4.9 15.9-9.9 21.2-.8.9-1.6 1.8-2.5 2.6-.4.4-1 .8-1.4 1.2-.3.2-.4.5-.6.7s-.6.3-.9.5-.5.5-.7.7-.6.3-.9.5c-.6.4-1.2.9-1.7 1.3-.3.2-.6.4-.9.6-1 .6-1.9 1.1-2.9 1.6-.5.3-1 .6-1.4.8-.2.1-.4.1-.6.2-.3.2-.6.4-.9.5-.4.2-.8.3-1.1.5-.1 0-.1.2-.1.2-.1.1-.2 0-.4.1-.9.4-1.7.8-2.6 1.1-.4.2-.7.4-1 .5-.2.1-.4.1-.7.1-.2 0-.4.1-.6.2-.9.4-1.9.9-2.8 1.3-.2.1-.4.1-.7.2-1.6.5-3.4.9-5.2 1.3-2.6.7-5.6 1.1-8.1 1.6-.2.1-.5.1-.7.1-.3.1-.6.2-.7.2-.5.1-1-.1-1.6-.1-.4 0-1.1.1-1.7.2s-1.1.4-1.5.1c-.2-.1-.5-1.1-.6-1.4 0-.4-.1-.8-.2-1.3-.2-.7-.2-1.5-.4-2.3-.1-.3-.2-.6-.3-.9 0-.3 0-.6 0-.9-.1-.7-.3-1.5-.3-2.3-.1-1.3-.1-2.5-.2-3.6 0-.4-.1-.8-.1-1.1 0-1.4.1-2.5.3-3.8.1-.8 0-1.7.2-2.5.1-.9.3-1.8.5-2.7.2-1.2.5-2.6.7-3.5.2-.6.3-1 .4-1.4.4-1.2.6-2.3 1-3.3.2-.5.3-.9.5-1.2.1-.3.4-.6.6-.9.6-1 1-2 1.5-2.9.3-.5.6-1.3 1.1-1.9.2-.2.5-.5.7-.8.3-.5.5-.8.7-.8.5-.1.8.3 1.1.4.2.1.4.1.6.1.2.1.4.2.5.3.5.3 1.6.8 1.9 1.2s.7 1.5.7 2.1c0 .3-.1.6-.1.8-.2 1.1-.4 1.7-.8 2.6-.3.8-.6 1.6-1.1 2.4-.1.3-.3.5-.4.7-.3.4-.6.7-.8.9-.1.1-.1.3-.2.4-.3.4-.8.7-1.2 1-.3.3-.5.6-.8.8-.1.1-.3.1-.4.2-.3.3-.6.8-1 1.2s-.8.8-1.1 1.2-.4.9-.7 1.3c-.2.5-.5 1-.5 1.5-.1 1.1.3 2 .5 2.8.1.3.4.5.6.7s.3.5.4.7c.3.2.8.4 1.1.7s.6.6 1 .8c1.3.9 3.4 1.3 5.1.4.2-.1.6-.3.8-.5.3-.2.5-.4.8-.6 1-.8 1.9-2.1 2.1-3.4.1-.4.1-1.6.1-2.1-.1-.4-.5-.9-.7-1.5s-.4-1.2-.6-1.7c-.2-.3-.5-.6-.7-1-.2-.3-.4-.8-.6-1-.3-.4-1-.7-1.1-1.3 0-.4.2-.7.3-1.1.3-.9.5-1.6.7-2.3.1-.3 0-.8.4-1.1.9.3 1.9.7 2.8 1.1.9.5 1.7 1 2.3 1.6.5.5.7 1 .9 1.7.3.7 1 1.6.9 2.5 0 .3-.2.6-.3.9-.1.4-.1.8-.2 1.1v1.3c0 .3.3.7.4 1 .1.5.1 1.1.3 1.5.3.9.9 2 1.5 2.6s1.3.8 2.3 1c.6.1 1.1.2 1.6.3.7 0 1.3-.2 2-.3 2.1-.3 3.2-1.4 4-3 .5-1.1.9-2.6.7-3.9-.2-1.6-.9-2.5-1.7-3.4-.8-.8-1.6-1-2.8-1.3-1.1-.3-2.1-.7-3.4-.7-.5 0-1.4.2-2.1 0-.6-.1-1-.9-1.2-1.6.4-.5 1.2-.6 1.8-.8.8-.3 1.6-.4 2.5-.7.6-.1 1.1-.4 1.7-.5.3 0 .7 0 1.1-.1.7-.2 1.3-.2 2.1-.3.4 0 .6-.2 1-.3 1.4-.2 2.9-.3 4 .1.8.2 1.1.4 1.6.9s1 1 1.6 1.5c.8.6 1.5 1.3 2.3 1.8.3.2.6.2 1 .4.9.3 2.3.7 3.4.2.9-.3 1.6-1.5 2.1-2.3.5-.9.9-2 1.3-3.1.2-.6.4-1.3.5-1.8.1-1.1-.1-2.4-.5-2.9-.9-1.5-2.8-2.5-5.4-2.1-.3 0-.7.3-1.1.4s-.8.3-1.1.4c-.7.3-1.4.6-2 .9-.7.3-1.4.5-2 1-.6.4-1.1.9-1.9 1.1-.7.3-1.6.4-2.4.5-.4.1-.9.1-1.3.1s-.8.3-1.1.3c-.2 0-.5-.1-.7 0-.3 0-.7.3-1 .3-.4.1-.9 0-1.3.1-.2.1-.5.2-.7.3-.3.1-.5.1-.9.1-.6.1-1.1.3-1.6.5-.6.2-1.1.2-1.7.4-.5.1-1.1.2-1.6.4s-1.1.6-1.6.7-.8-.1-1.4-.4c-.4-.1-.9-.3-1.2-.4-.5-.3-1.4-1.4-1.5-1.9s.1-1 0-1.5c-.1-.3-.3-.9-.5-1.3-.1-.2-.4-.4-.6-.7-.2-.2-.4-.5-.5-.8-1-1.4-1.8-2.5-3.3-3.3-.4-.2-.7-.3-.8-.5-.1-.5.4-.7.4-.7.3-.3.6-.4.7-.4.4-.4.7-.9 1-1.3.7-.8 1.4-1.5 2.2-2.3.4-.4.9-1 1.3-1 .2 0 .6.2 1 .3 2.7.8 5.1 2.2 6.3 4.3.6 1.1.7 2.7 1.4 3.8.5.8 1 1.3 1.7 1.7 1.1.5 2.4.4 4 .4.2 0 .6.1.9.1s.8-.3 1.2-.5c1.4-.6 2.5-1.5 3.2-2.7.4-.7.9-2.1.7-3.2 0-.3-.1-.7-.2-1.1-.2-1-.4-1.6-.9-2.4-.6-.9-.9-1.2-2-1.5-1-.3-2.2-.8-3.6-.7-1.3 0-3.1.7-3.9 1.2-.3.2-.7.7-1.1 1.1-.3.4-.7 1-1.3 1.1s-1.2-.3-1.6-.5c-1-.6-1.6-1.2-2.4-1.9-.4-.2-1.1-.7-1.1-1.1 0-.3.7-.7 1.1-1 .4-.4.8-.6 1.2-.9s.8-.6 1.2-.8c.7-.4 1.1-.7 1.7-1.1.2-.1.3-.2.5-.3.7-.4 1.5-.5 2.3-.9.5-.2.8-.5 1.1-.5s.3.2.6.3c.2.2.4.3.6.4 1.4.9 2.8 1.7 4.5 2.4 1.3.5 2.7.9 4 1.1.4.1 1 0 1.3.4 0 .5-.3.8-.3 1.3-.3 1.4.1 3 .5 3.9.2.3.3.6.4.9.8 1.3 2.7 2.4 4.4 2.8.5.1 1.2.3 1.4.3.4 0 .9-.2 1.4-.3s.9-.1 1.3-.3c.8-.3 2-.9 2.5-1.4s1.2-1.5 1.5-2.2c1.4-3.3-.3-6.9-2.5-8.4-.4-.3-1.3-.4-2-.7-.7-.2-1.3-.3-2-.3-1.1 0-2.1.3-2.9.6-.3.1-.6.2-.9.3-.5.2-1 1-1.5 1.1-.3 0-.7-.2-1.2-.3-.8-.2-1.5-.4-2.3-.5-.4-.1-.7-.3-1.1-.4s-.7 0-1-.1c-1.2-.2-1.7-.6-2.6-1-.4-.2-1.4-.5-1.4-1.1 0-.5.9-.5 1.4-.7.3-.1.5-.3.7-.3.3-.1.6-.2.8-.2.5-.2 1-.4 1.5-.6.6-.2 1.4-.2 1.9-.3.7-.2 1.7-.6 2.6-.5.2 0 .3.2.6.3s.5 0 .8.1c.5.1.9.3 1.5.4 1.4.2 3 .3 4.2.1.9-.2 1.3-.4 1.9-.8.9-.6 1.4-1.2 1.5-2.4.1-.8-.1-1.6-.3-2.1-.3-1-.8-2.1-1.4-2.7s-1.4-1.5-2.4-1.6c-1.7-.2-2.8.7-3.7 1.3-.5.3-.8.8-1.3 1.1-.3.2-.7.2-.9.4-.2.1-.2.4-.4.6s-.4.3-.6.5c-.3.4-.5.8-1 1.1-.3.2-.8.3-1.2.4s-.8.3-1.2.4c-.8.4-1.5.8-2.5.9-.4-.7 0-1.6.2-2.3s.5-1.5.9-2.1c.3-.5.6-1.3 1-2 .3-.6.8-1.6 1.2-1.7s.7 0 1 0c.2-.1.6-.3.9-.4.8-.3 1.1-.6 1.7-1 .3-.2.7-.4.8-.6.3-.3.6-1 .9-1.5 1-2 .8-4.7-.3-6.4-.6-1-.9-1.3-1.7-1.9-.2-.2-.5-.4-.8-.5-1-.4-2.9-.5-4.2-.4-.8.1-1.8.8-2.3 1.3s-1 1-1.3 1.7c-.6 1.3-1.1 2.5-.9 4.2.1 1.5.7 2.6 1.6 3.7.6.2.9.6 1.3.9.1.1.2.1.4.1.9.5.3.9-.1 1.6-.8 1.3-1.3 2.4-1.9 3.5-.4.7-.8 1.6-1.2 2.4-.3.7-.6 2-1 2.6-.3.3-.7.4-1.3.7-.5.2-.9.5-1.1.5s-.3-.4-.6-.7c-.2-.3-.5-.5-.7-.7-.5-.5-.9-1.1-1.2-1.6-1-1.4-1.7-2.8-2.8-4-.1-.1-.3-.3-.3-.3-.5-.7.4-1.2.8-1.7 1-1.2 1.9-2.6 1.7-4.8-.1-1.6-.9-3-1.9-3.8-1-.9-3.7-1.8-5.6-1.2-.4.1-.7.3-1.1.5-.5.2-1.1.3-1.4.5s-.7.7-1 1c-.8 1.1-1.3 2.9-1 4.5.2.9.3 1.2.7 1.9.2.4.3.9.5 1.1s.5.4.7.6.4.5.7.7c.5.4 1.3.6 2 .8s1.5.3 2.2.6c1 .3 1.6 1 2.1 1.7.3.4 1.4 1.6 1.1 2.1-.2.3-.4.3-.9.3-1.1.1-2.6.2-3.5.2-1.6.1-3.3-.1-4.5-.2-.8-.1-1.4-.1-2.1-.3-1.3-.4-1.9-1.2-2.9-2-.5-.4-1.3-.7-1.4-1.1 0-.2.1-.5.1-.6 0-.3 0-.6 0-.9-.1-1.8-.5-3.2-1.3-4.3-.3-.4-.6-.5-1.1-.9-.3-.2-.6-.5-.9-.6-.6-.3-1.4-.5-1.9-.5-1.4-.1-2.1.2-3.1.6-1.6.7-2.4 1.3-3.1 3-.2.4-.4 1-.5 1.3-.2.8-.1 1.5-.1 2.1.2 2.1.9 3.1 2 4.5 1.1.8 1.9 1.2 3.7 1.3.6 0 1.5.1 2.1-.1.3-.1 1.1-.5 1.3-.7.5-.3.8-.9 1.3-.9.3 0 .5.3.7.5 1 .7 1.9 1.1 3.5 1.4 1 .2 2 .5 3.1.6.9.1 1.9 0 2.8 0 1 0 1.9.1 2.7.1.6-.1 1.4-.3 2.2-.3.3 0 .6.1.9 0 .4-.1 1.1-.5 1.6-.1.3.2.8 2 .8 2.4-.1.3-.4.5-.8.7-.7.5-1.4.7-2 1.1-.4.3-.6.6-.9.7s-.7.1-.9.2c-.3.1-.6.4-.9.7-.4.2-.7.4-1 .6-.2.1-.3.3-.4.4-.2.1-.4.2-.5.3-.3.2-.6.5-.8.8-.5.4-1.2.8-1.8 1.4-.4.3-1.2 1.4-1.9 1.4-1 0-1.7-2.2-1.9-3.1-.2-1-.3-2-.9-2.5-1.2-1-2.6-1.4-4.3-.7-.4.2-1.2.5-1.6.8-.5.4-.8 1.3-.9 1.9-.1.8.1 1.6.3 2.1.1.3 0 .6.1.8s.3.3.4.5c.7 1 1 1.6 2.3 1.8s2.6-.6 3.3-1.1c.2-.2.5-.6 1-.6.6 0 1.4.5 1.4.9 0 .3-.5.5-.8.9-.8.9-1.8 2.1-2.4 2.8-.5.7-1.1 1.2-1.6 1.9-.2.3-.5.7-.7 1s-.4.8-.9.9c-.8-.8-1.2-1.8-1.6-2.9-.5-1.3-.7-3-1.4-4-.3-.4-1-1.4-1.5-1.5-1.9-.4-4-.5-5.5.3-.3.2-.7.7-1.1 1-.7.8-1.2 1.7-1.3 2.9-.1 1.1.2 1.9.3 2.7.2.9.4 1.5.7 2.1.2.3.3.5.4.8.8 1 1.5 1.4 3.1 1.4.8 0 1.6-.1 2.1-.3.3-.1.5-.3.8-.5s.7-.2 1-.3c.5-.3.8-1.2 1.6-1.2.3 0 .5.2.8.4.2.1.5.2.6.6 0 .4-.8 1.1-1 1.4-.9 1.1-1.2 2-1.8 3.1-.4.8-1 1.6-1.5 2.2-.2.3-.2.5-.4.8-.2.6-.6 1.1-.9 1.7-.2.6-.5 1.2-.7 1.7-.3.6-.6 1.1-.9 1.7-.5 1.1-1 2.3-1.5 3.5-.8 1.9-1.3 3.6-1.9 5.5-.4 1.4-.8 2.3-1.2 3.8-.1.6-.3 1.7-.5 2-.4.5-1.7.4-2.3.2-.4-.1-1.3-.6-1.7-.8-.9-.6-1.7-1.8-1.8-2.7 0-.7.3-.9.4-1.4.1-.4.2-1.1.2-1.7 0-.5.2-1.1.2-1.6 0-2.7-.3-6-.3-8.7 0-1-.2-2-.1-3s.6-1.5.9-2.2c.4-1 .6-2 .9-3.1.1-.5.3-1.2.3-1.7.1-1.5-.1-2.9-.6-3.9-.2-.5-.6-1.1-.9-1.3-.2-.1-.5-.1-.9-.3-.3-.1-.5-.3-.7-.4-.2 0-.5 0-.7-.1-.2 0-.5-.1-.7-.1-.9-.1-1.4.3-2.1.5-.4.1-.9.1-1.3.2-.5.1-1.1.6-1.4.8-.2.1-.4.2-.6.3-.6.4-1.1.9-1.7 1.4-.5.5-1.1 1.3-1.3 1.8-.6 1.9.6 3.5 1.4 4.5.4.6.9 1.1 1.5 1.5 1.1.9 2.6 1.3 3.5 2.4.3.3.4.8.6 1.5.4 1.3.8 3.1.8 4.5 0 .3-.1.6-.1.9s.1.7.1 1c0 .4-.1.8-.1 1.1 0 .2.1.4.1.7 0 1.3-.1 2.9-.2 4 0 .5.1 1-.3 1.3-1.3.1-1.7-.5-2-1.5-.4-1.6-.7-3-1.5-4.1-.5-.7-.8-1.2-1.5-1.8-.8-.9-2.4-2-3.8-2.1-1.9-.1-3.9.8-4.9 1.7-.5.5-.7.8-1.1 1.4-.2.3-.5.6-.7.9-.5 1-.5 2.7-.4 3.6 0 .3 0 .6.1.8.1.6.5.9.9 1.4.2.3.4.8.7 1 1.1 1 2.6 1.3 4.2 1.5 1.3.2 2.7 0 3.7-.4.4-.1.8-.2 1.1-.3s.5-.4.9-.5c.5-.1 1.1.1 1.7.2.5.1 1.1.1 1.7.2.5.1 1.1.5 1.5.8.5.4 1 .9 1.3 1.2.8 1 1.6 1.6 2.1 2.8-.7 1-2.2 1.4-3.2 2.1-.4.3-.7.7-1.1.7-.3 0-.7-.4-1.1-.6s-.8-.4-1.1-.5c-1.5-.6-3.3-1.2-5.2-1.2-1.7 0-3.2 1.1-4.1 2-.7.7-1.6 2-1.8 3.1-.4 2.5.4 3.7 1.8 5 .4.4 1 .9 1.6 1.2s1.4.8 1.9.9c.8.2 1.6 0 2.2.1h.1c.5-.1 1-.4 1.5-.6 1.4-.7 2.2-2 3.2-3 .5-.8.9-1.7 1.4-2.5.2-.4.5-.7.8-1.1s.5-.9.8-1.2c.2-.1.5-.3.7-.5s.4-.3.6-.5c.5-.4.9-.7 1.3-1 .9-.6 1.8-1.5 3.1-1.6.2.8-.2 1.7-.3 2.6-.3 2.3-.7 4.6-1 7-.1.5 0 1.2-.2 1.4-.3.3-1.9.5-2.6.7-1.1.3-1.9.4-2.7.6-3.8 1-7.4 2-10.7 3.2-.7.3-1.3.4-1.9.6-.8.3-1.6.6-2.3 1-.6.1-1.1.4-1.6.6-1.1.5-2 .9-3 1.4-.3.1-.6.2-.9.3-.2.1-.4.5-.7.3-.8-7.9-1-16.7-1.6-25-.2-3.4-.3-6.9-.3-10.3 0-1.7-.1-3.4-.1-5.1-.1-1.6 0-3.2-.2-4.8-.1-1.2-.1-2.8-.2-4.2-.2-2.3-.3-4.8-.4-7.2 0-.8-.2-1.7-.1-2.4 0-.2.5-.8.7-1.2.3-.4.6-.9.9-1.2 1.8-2.4 3.8-4.4 5.5-6.7 1.2-1.5 2.3-3.1 3.6-4.5 1.3-1.5 2.5-3 3.9-4.3 2.9-2.6 5.8-5 9-7.2 1.5-1 3.1-2.2 4.7-3.5.7-.6 1.6-1.2 2.2-1.8 1-1 1.6-2 3.1-2.1h3.5c.6-.1 1.1-.2 1.7-.3s1.2 0 1.9-.1 1.3-.3 2.1-.5c.7-.1 1.4-.2 2.1-.4 8.1-2 15-5.4 20.8-9.5.7-.5 1.6-1 2.2-1.6.2-.2.3-.6.7-.5-.1 1.6-1.1 2.9-1.2 4.5 0 1 .3 2.1.7 2.6.8 1 2.8 1.6 4.2 1.6.3 0 .8 0 1-.1 2.7-.5 4.4-4.3 2.6-6.7-.4-.5-1-.8-1.5-1.1-1.5-.7-3.7-.5-4.8-1.8 1.4-1.4 2.8-2.9 4.2-4.4.7-.7 1.3-1.6 2-2.3.7-.8 1.2-1.7 1.9-2.5.4.4.6.9.8 1.4s.5 1.1.5 1.7c-.5.4-1 .4-1.4.6-1.1.6-1.9 1.6-1.8 3.3s1.7 3.1 3.1 3.2c2.2.2 3.9-1.5 3.9-3.5.1-1.2-.8-2.3-1.4-2.8-.3-.2-.9-.2-1.2-.7-.1-.1-.1-.6-.2-.9-.3-1.5-.7-2.8-1.3-3.9 1.1-1.7 2-3.5 3-5.2.6.2 1.3.2 1.7.5 0 1.4-.2 2.9-.2 4.4 0 2.5.3 4.8 1 6.5.4 1.1 1.2 2.1 1.7 2.9-.8 1.2-1.5 2.3-1.3 3.9.2 1.9 1.9 3.5 3.6 4 1.3.3 2.6.2 3.6-.2 1.4-.7 2.7-2.1 3-3.8.3-2-.7-3.3-1.5-4-.7-.6-1.6-1.2-2.7-1.4-.7-.1-1.3.1-1.8 0-.2-.1-.5-.2-.9-.4-.8-.4-1.7-1.2-2-1.8-.6-1.1-.7-2.9-.8-4.5 0-.8-.1-1.7-.1-2.5s0-1.7.1-2.4c.8.2 1.4.5 2 .9s1.3.9 1.6 1.5c.1.3 0 .7.1.9.4 2.2 2.1 4.5 5 4.2.2 0 .3-.2.5-.2h.7c1.3-.4 2.2-1.5 2.7-2.7.4-.9.6-2.1.3-3.2-.5-1.9-2.5-3.6-5-3.5-1 .1-2.2.7-2.8 1.1-.5.4-.6.9-1.1 1.3-1.9-1.1-3.8-2.4-5.7-3.6-.4-.2-.7-.3-.8-.6-.1-.4 1-2 1.1-2.1.5-.3 1.2-.6 1.8-.9 1.3-.6 2.5-1.3 3.6-2 .6-.4 1.2-.9 1.9-1 .3.3.4.7.7 1 1.5 1.8 4.7 2.4 6.9.9.2-.1.3-.4.5-.5.2-.2.4-.3.6-.5.7-.8 1.1-2.2 1.1-3.5-.2-2.4-2.4-4.5-5.1-4.4-1.1 0-2.3.4-3.1 1.1-1.2.9-1.9 2.3-2 4.1-1.2.9-2.7 1.8-4.1 2.4-.5.2-1.1.4-1.7.4.1-1 .5-1.6.7-2.4s.3-1.8.7-2.5c.3-.6 1-1.1 1.5-1.8.8-1.1 1.9-2.5 1.9-4.3 0-2.2-2.3-3.5-4.4-3.4-.3 0-1.2.2-1.6.4-2.1 1.1-1.8 5.2-.9 7.3.2.4.5.8.6 1.2.1.7-.1 1.6-.2 2.3-.3 1.9-.7 3.6-1.2 5.2-.1.3-.2.7-.5.9-.3-.1-.5-.4-.7-.7-1.4-1.9-2.1-4.6-2.7-7.2.8-1.2 1.7-2.6 1.4-4.5-.3-2.4-1.9-4-3.7-4.7-2-.5-3.9.1-4.9.9-.6.5-1.3 1.3-1.6 2-1 2.1-.4 4.7.8 6 1 1.2 2.7 2 4.7 1.9.5.7.8 1.5 1.2 2.3 1 1.9 2.2 3.9 3.8 5.2.4.3.9.6 1 .9 0 .2-.2.6-.4 1-.8 1.9-1.5 3-2.5 4.6-.2.3-.8 1.6-1.2 1.7-.3 0-1.4-1.1-1.7-1.4-.6-.6-1.1-1.2-1.3-1.8-.7-1.6.5-1.8 1.2-2.8.4-.6.9-1.7 1-2.6.1-1.2-.3-2.7-.7-3.7-.1-.2-.4-.4-.5-.5-1.4-1.2-3.9-2.1-5.8-1-1.4.8-2.3 2.4-2.5 4.3-.1.8-.1 1.8.1 2.7.4 1.4 1.8 2 3.2 2.5.5.1.9.2 1.4.4 1.2.5 2 1.7 2.6 2.8.6 1 1.1 2.1 1.3 3.3-.9 1.1-1.8 2.1-2.8 2.9-.3.3-.7.6-1 .9-.6-.4-.8-.9-1.3-1.3-.7-.5-1.7-.8-2.5-1.1-.9-.3-2-.4-2.9-.8-.8-.4-2.4-1.7-2.5-2.7 0-.4.4-.9.6-1.4 1.5-2.7 1.7-6.6 1.9-10.1 0-.7 0-1.4.2-1.9s.6-1 .9-1.5c.2-.5.5-1 .7-1.5.5-.9.9-2.1 1.1-3.3.2-1.6-.2-2.9-1.2-3.7-2.2-1.6-5.4 0-7.5 1.1-.7.7-1.2 1.9-.9 3.2.3 1.1.9 1.8 1.5 2.6.4.5.9 1 1.3 1.5.9 1 1.5 2.3 1.7 4 .4 2.5-.2 5.3-1 7.3-.1.3-.6 1.8-1 1.9s-1.4-.7-1.5-1c-.2-.5 0-1.2-.1-1.6-.1-1.2-.4-2.3-.9-3.1-.2-.3-.2-.7-.4-.9 0-.1-.2-.2-.3-.3s-.1-.3-.2-.4c-1.2-1.4-3.3-1.9-5.1-1.3-1.1.4-2.1 1.3-2.7 2.4-.4.7-.7 1.8-.7 2.8.1 2.4 1.6 3.6 3.3 4.1.9.3 1.9.5 3.1.5.6 0 1.2-.4 1.9-.4.3 0 .7.3 1.1.4.5.2 1 .3 1.3.4.8.4 1.3 1.2 1.7 1.9.5.8.9 1.6 1.1 2.6-.5.3-1 .4-1.7.7-.4.2-1.3.7-1.7.7-.3 0-.7-.5-1.2-.9-.4-.3-1-.6-1.3-.8-1.3-.6-2.8-1.4-4.3-1-1.7.5-3.1 2-3.6 3.7-.1.4-.2 1.1-.1 1.5.1 1 .9 2.2 1.4 2.7.7.7 2.1 1.8 3.4 1.8.8 0 1.7-.3 2.3-.7.8-.5 1.3-1.1 1.9-1.9 1.2-1.3 2.4-2.8 3.9-3.7.8-.5 1.7-1 2.7-1.2 2.4-.6 4 .2 4.6 2.4-.6.7-1.5 1.1-2.2 1.7-5.1 3.3-11.3 6.4-18.6 6.9-1.7.1-3.4.2-5 0-.3-.1-.7 0-.9-.3 0-.4.4-.7.5-1.1.7-1.5 1.3-3.2 2-4.7.5-1.3.8-2.5 1.2-3.9.5-1.7.9-3.6 1.1-5.5.3-2 .3-4.3 0-6.5 0-.3-.2-.6-.2-.9-.1-.4-.1-.7-.2-1.1-.3-1.7-.8-3.2-1.2-4.5-.1-.2-.2-.6-.4-.8-.3 0-.5.4-.7.6-.5.6-.9 1-1.5 1.6-.3.3-.6.5-.6.8s.2.8.3 1.2c.4 1.1.8 2.2.8 3.5-.5-.2-.9-.5-1.4-.8-.3-.2-1.1-.7-1.2-1.1-.1-.3.1-1 .1-1.5s0-1.1-.1-1.5c-.1-1.1-.1-2.2-.6-2.8-.4 1.3-1.2 2.4-2 3.3-.3.3-.6.7-.9 1-.1.1-.3.1-.5.2-.1.1-.2.3-.4.4-.9.8-1.9 1.3-2.9 2-.4-.1-.7.1-1 .3-.3.1-.7.2-.9.4.4.4 1.3.4 2.1.5.7.1 1.9.2 2.5.2.6-.1 1-.7 1.5-.7-.1.6-1 .6-.9 1.3.3.1.8-.1 1.1-.1.6.4 1.3.6 2 .9.7.4 1.5.8 2 1.2.1.4.3.8.6 1.1.1.6.6.5.6 1.1 0 .3-.2.9-.3 1.4-.8 3.4-2.5 6.2-4.1 8.5-.2.4-.4.7-.7 1.1-2 2.7-4.4 5.3-6.8 7.5-.6.6-1.2 1.2-1.9 1.7-.2.2-.5.5-.7.7-.1.1-.2 0-.4.1-.7.5-1.2 1.1-1.9 1.7-2 1.6-4 3.2-6.1 4.6-.7.5-1.4 1-2.1 1.5s-1.4 1.1-2 1.5c-.5.3-1.2.5-1.7.8-1.1.6-2 1.3-3 1.9-.5.3-1 .7-1.6.8-1.7-4.3-1.4-10.9.1-15 .2-.6.4-1.3.7-1.9.3-.8.8-1.3 1.1-1.9s.6-1.1 1.1-1.8c.3-.4.9-1.5 1.4-1.6.2 0 .8.2 1.3.3 1.3.3 2.5 1 3.1 1.7.7 1.1.9 2.5 2.1 2.9.8.2 1.9.1 2.6-.1.9-.3 2.1-1.3 2.4-2.1.6-1.8-.5-3.4-1.5-4-1.2-.7-3.2-.4-4.3.5-.4.3-.9 1.4-1.4 1.4-.8.2-2-.9-2.5-1.2-.2-.2-.6-.3-.6-.7 1.2-1.4 2.9-2.5 4.5-3.6.8.7 1.7 1.2 2.8 1.5s2.5.4 3.7.6c.1 1.3.2 2.4.8 3.3.6.8 1.8 1.5 3 1.4 1.1-.1 2.1-.7 2.7-1.4.7-.8 1.1-2.1.8-3.4-.2-.9-.8-1.6-1.6-2.1-.9-.6-2.2-.8-3.3-.5-.6.2-.9.4-1.3.7-.3.2-.4.6-.8.6-.3.1-1-.1-1.5-.2s-1-.2-1.5-.3c-.9-.2-2-.4-2.4-1.1.3-.4.8-.5 1.3-.6 1.3-.6 2.7-1.2 4.3-1.5 1.7.9 5.5.4 5.8-1.4.2-1-.3-2.1-.8-2.7-.2-.3-.8-.6-1.1-.7-2.2-.6-3.7 2-4.8 3-.5.2-1.1.4-1.7.7-.5.2-.9.8-1.5.7.3-1.7.7-3.1 1.4-4.3 2.4-.3 3.7-3 2.5-5.2-1.5-3-6.5-2-6.4 1.9.1 1.1.6 2 1.3 2.6.4.3.9.3 1.3.7-.5 1.1-1.2 2.6-1.6 4-.2.5-.2 1-.5 1.4-.2.3-1 .8-1.3.8s-.6-.6-.9-.9c-.9-1.1-1.8-1.9-2.5-3 .4-.4.7-.8 1-1.3-.1-.3.1-.6.2-.8.3-2.8-2.5-4.7-4.8-3.5-1.1.6-1.9 1.8-1.8 3.3.1 1.1 1 2.5 2.2 2.8.6.2 1.2.1 1.7.2.7.2 1.3.7 1.8 1.2.1.2.4.4.5.8-.7.3-1.7.4-2.7.5-1.1.1-2.2.3-3.2.1-.7-.1-1.1-.5-1.6-.8-.4-.2-.8-.3-.9-.6.1-2.5-1.7-4.5-3.9-4.1-1.1.2-2.4 1.4-2.7 2.6-.7 2.7 1.8 5.3 4.5 4.2.6-.2.9-.6 1.5-1.1 2.2 1.7 6.8.9 9.6.2.2.3.6.7.5 1.1-.1.3-.5.4-.8.7-.6.5-1 .8-1.6 1.3-.2.2-.6.6-.8.7-.2 0-.6-.1-.9-.2-.9-.1-1.8-.3-2.6-.3-.4-.4-.6-.8-1-1.1-1.4-.8-3.5.1-3.6 1.7-.2 1.3.5 2.3 1.5 2.6 1.4.5 2.5-.2 3-1 .2-.4.1-.9.5-1.2.7-.2 1.7 0 2.1.4-1.2 1.3-2.7 2.8-3.9 4.3-.3.5-.7 1.5-1.2 1.5-.5.1-1-.4-1.3-.7-.3-.5-.3-1.1-.6-1.5-1.1-2.3-4.1-1.4-5 .1-.8 1.4 0 3.4.8 4.2.9 1 2.4.7 3.4 0 .3-.2.5-.6.9-.6-1.7 4.1-3.6 8.7-4.1 14-.2 1.8-.5 3.8-.3 5.7 0 .5.1 1.1.4 1.6-.6.6-1.4 1.2-2 1.8-.2.2-.4.5-.7.4-.4-8.6-1.1-17.4-1.5-25.9-.1-2.1-.3-4.3-.4-6.4 0-.7-.1-1.4-.2-2.1-.2-2.4-.3-4.8-.5-7.2-.3-3.6-.2-7.3-.4-10.7 0-.9-.2-1.7-.2-2.4 0-1.8.1-3.6.1-5.3s.2-3.5 0-5.2c-.1-.7-.3-1.3-.2-2.1.1-1.1.4-2.5.7-3.6.1-.4.3-.7.4-1.1.5-1.5 1-3 1.6-4.2 1.4-2.6 3.2-4.8 5-6.6 1.4.5 3 1.7 2.6 3.6-.2.9-.7 1.9-1.1 2.7-1 1.6-2.4 2.7-3.9 3.7-1.9 1.2-4.6 3.2-3.2 6.3.6 1.3 2 2.9 3.4 3.2 1.1.2 2.3 0 3-.4 1.3-.7 2.6-2.1 2.7-3.7s-.7-3.3-1.2-4.2c-.3-.6-.6-1.1-1-1.6.3-.5.6-1 .9-1.6s.5-1.2 1-1.6c1.4.7 3.5 1.7 4 3.2.1.3.1.8.2 1.3.1.4.3.9.3 1.2s-.3.7-.4 1.1c-.4 1.5-.2 2.9.2 4.3.3 1 .8 1.7 1.5 2.1 1.6 1 4 1 5.6-.1.6-.4 1.6-1.6 1.9-2.7.8-2.9-1.2-4.8-3.1-5.7-1.1-.5-2.5-.8-3.8-1-.4-.4-.8-.8-.7-1.6 3.1-1.1 6.6-1.8 9.9-.6 1.6.6 2.6 1.5 3.5 2.4s2 2.2 3.3 2.6 2.6-.4 3.2-1c.8-.9 1.8-2.8 2-4.2.3-1.6-.4-2.8-1.3-3.5-2-1.3-5.3-.2-7.1.6-.6.2-1.1.5-1.6.6-.9.3-2.5.1-3.8 0-3.1-.1-5.8 0-8 .9-.5.2-1 .5-1.4.5-.6 0-1-.5-1.5-1-.9-1-1.2-2-1.4-3.5-.1-.8-.2-1.6-.4-2.2-.4-1.2-1-2-1.7-2.7 1.1-.9 2-1.7 3.2-2.5.3-.3.9-.7 1.2-.7.4 0 1 .4 1.4.7 1.3.7 2.7 1.6 3.4 2.9.3.7.3 1.5.5 2.3.2 1.3.7 2.2 1.5 2.8 2.2 1.5 6 .7 7.4-.9 1-1.2 1-3.6.3-5.1-.1-.2-.1-.4-.2-.5-.7-1.2-2.7-2-4.5-1.9-1.4.1-2.5.7-3.3 1.3-.4.3-.5.6-.9.6-.8.1-1.7-.8-2.2-1.3-.3-.3-.5-.6-.8-1-.3-.3-.6-.7-.7-1.1 2.3-1.3 4.9-2.3 7.7-3.2 1.8 2.7 4.7 4.4 7.3 6.3-.6 3.3 1.4 5.6 3.7 6.3 3 .8 6.1-1 6.7-3.9.3-1.3 0-2.7-.5-3.6-1.1-2-4-3.5-6.7-2.5-.3.1-1 .7-1.3.7-.5 0-1.4-.5-2-.6-2.1-.8-3.8-1.7-5.1-3.1.9-.3 2-.4 3.2-.6 1.1-.1 2.4-.4 3.5-.3.6 0 1.2.4 1.6.6.5.2 1 .4 1.5.5 1 .3 2.2.7 3.6.5.6-.1 1.4-.5 1.7-1.1.6-.9.7-2.7.3-3.9-.1-.3-.4-.8-.6-1.1-.5-.8-1.1-1.2-1.9-1.5-1-.1-1.6.2-2.4.5-1 .5-1.8 1-2.6 1.7-.4.3-.7.9-1.2 1-.1 0-.3 0-.4 0-1.1.2-2.3.5-3.4.5.5-1.7 1.3-2.9 2.3-4.3.3-.4.7-1 1-1.1.2-.1.5.1.7.1 1.9-.1 3.4-1.3 4.1-2.5.6-1.1.7-2.7.4-4-.5-1.7-2-3.1-3.9-3.3-2.3-.3-4.4 1.5-5.1 3.2-.5 1.3-.2 3 .2 3.9.3.7.7 1.2 1.1 1.6.2.2.5.3.7.6-.4.6-.8 1.1-1.2 1.6-1.3 1.6-2.4 3.3-3.5 5.1-.7.2-1.4.5-2.2.6-.3-.5-.6-1-.9-1.5-.8-1.7-1.6-3.3-2.4-4.9 1.5-.9 2.6-1.9 2.8-3.7.4-3.2-2.2-5.4-4.8-5.2-1.5.1-3.2 1-3.9 2.5-.6 1.1-.6 2.9-.1 4 .6 1.1 1.7 1.9 2.8 2.4.4.1.9.1 1.3.3.5.3 1 1 1.3 1.6.3.7.6 1.5.6 2.2-1.5 0-3.3-.3-4.9-.5-2.7-.4-4.8-1.2-5.7-3.3-.1-.3-.2-.8-.3-1.1 0-.5.2-.8.2-1.2 0-.6-.1-1.4-.3-1.9-.6-1.7-2.3-3-4.2-3.1-2.2-.1-3.9 1.4-4.5 2.8-.4.8-.6 2-.5 2.8.4 3.3 4 5.7 7.5 3.4 2.7 3 7.7 3.7 13.2 3.7.1.5.1 1.1.3 1.6-3.3 1.3-6.4 2.6-9.2 4.3-2.8 1.8-5.2 3.8-7.4 6.1-1.1-1-.9-2.8-1.1-4.3-.3-2.1-2.4-3.8-5-3.1-.4.1-.7.4-1.1.4-.6.6-1.4 1.1-1.7 2.1-.5 1.5 0 4.2.9 5.2.2.2.6.5.9.7 1.1.6 2.5.4 3.8.1.9-.1 1.6-.5 2.5-.2-.3.6-.9 1.1-1.4 1.7-.5.5-.9 1.2-1.3 1.7-.9 1.1-1.7 2.4-2.7 3.5-.7.7-1.8 1.3-3 1.8-1.1.4-2.3.8-3.5.8-1.3 0-2.7-.4-3.5-.7-.1 0-.3 0-.4-.1-.8-.3-1.4-.6-2.1-.9-2.2-1.1-4.2-2.4-6.1-3.8-.5-.3-1-.6-1.2-.8-.2-.7.1-1.5.2-2.1-.4-.1-.8-.1-1.1-.3-.5-.2-.8-.7-1.3-.9-.2.4 0 1-.2 1.3-1.2-.8-2.3-1.7-3.6-2.4-1.2-.7-2.5-1.4-3.9-2-2.8-1.2-5.8-2.1-9-3 0-.6-.1-1.1.1-1.5 4.5-.6 9-1.5 11.5-4 .4-.4.7-.9 1.1-1.2.9.3 1.6.6 2.8.6 1.8-.1 3.2-1.5 3.8-2.8 1.3-3.1-.6-5.9-2.8-6.7-2.4-.9-5.2.3-5.8 2.6-.4 1.5-.1 3.1.4 4.6-.8.7-1.1 1.6-1.9 2.3-.9.9-2.6 1.4-4 1.8-.7.2-1.6.4-2.4.6s-1.7.5-2.5.3c.3-1.4.6-2.4 1.4-3.2s2.1-1.1 2.9-1.9 1.6-2.7 1.2-4.4c-.8-3-4.6-4.4-7.2-2.6-.8.6-1.7 1.7-1.9 3.1-.2 1.5.3 2.8 1 3.7.6.7 1.6 1 2.4 1.6-.6 1.7-1.3 3.5-1.9 5.1-.2.6-.3 1.3-.7 1.7-.7-.1-1.2-.3-2-.3-1.5-1.5-2.7-3.2-4.2-4.7-.5-.5-1.2-.8-1.5-1.5.4-.5.8-.7 1.1-1.1.9-1.5.9-3.8.2-5.1-.6-1.1-2-2.3-3.3-2.6-1.7-.4-3.7.5-4.6 1.5-2.3 2.8-.6 7.7 3.2 8.2.6.1 1.5-.2 1.8-.1.4.1.8.7 1.2 1.1.9.9 1.4 1.5 2 2.4.3.4.7.9.6 1.5-.7.1-1.3 0-1.9 0s-1.4.1-2.1 0c-.4-.1-.8-.6-1.2-.8-1.1-.7-2.7-1.7-4.3-1.6-1.2 0-1.9.7-2.4 1.5-.1.2-.3.4-.3.5-.8 1.7-.3 4.9 1.5 5.4 1.6.5 3.2-.2 4.4-.7.9-.4 1.7-1 2.6-1.3 1-.3 2.2-.2 3.4-.2h1.9c.6.1 1.2 0 1.7.2-.7 1.1-1.7 1.9-2.9 2.7-.5.3-1.1.6-1.8 1-.4.2-1.4.9-1.9.9-.2 0-.4-.3-.6-.3-1.9-.8-4.1-.3-5.5.7-1.1.8-2.2 2.7-2 4.9.3 2.7 2.8 4.7 5.9 4.4 2-.2 3.5-1.5 4.1-3.1.7-1.8.3-3.6-.3-5.3 2.4-1.3 5.1-2.6 6.6-4.8.2-.3.3-.8.6-1 2.6.5 5.7 1.2 7.9 2.3-.4.8-.8 1.4-1.3 2.2-.4.5-1.1 1.6-2 1.5-.3 0-.8-.4-1.1-.5-1.1-.6-2.2-1.2-4-.8-.5.1-1 .3-1.3.5-.4.2-.9.3-1.3.7-.9.7-1.4 2.4-1.3 3.9.2 3.4 3.9 4.7 7.1 3.7 1.3-.4 2.3-1.2 2.6-2.5.2-1.1-.1-2.3.2-3.4.4-1.4 2-2.8 3.1-3.6.4-.3 1.1-.8 1.5-.8.3 0 .9.3 1.3.5 1.3.7 2.3 1.4 3.4 2.1-1.1 1.1-1.5 3.1-1.5 5v1.3c-.1 1.4-1.1 3.6-2.5 3.7-.6 0-1-.3-1.7-.5-1-.2-2.3-.3-3.4-.3-2.7.1-5.4.8-7.7 1-.5 0-1.2-.3-1.8-.5-.6-.1-1.1-.3-1.7-.4-2.9-.6-6.4-.4-6.7 2.7-.1 1.3.4 2.1.9 2.9.8 1.5 1.9 3.4 3.8 3.4 1.5 0 2.3-1 3-1.7 1.6-1.6 2.4-3.4 4.6-4.4 2.1-1 5-1.2 7.7-.9.9.1 1.8.4 2.6.5 2.2.2 3.5-.9 4.3-2 .2-.2.3-.6.6-.9.7.9 1.4 2 2 3-.8 1.7-1.5 3.5-1.5 5.4s1.9 3.6 3.3 4c1.8.5 3.5-.2 4.5-1.2.7-.8 1.6-2.2 1.7-3.4.1-1.6-.7-2.5-1.4-3.2-1.3-1.2-3.3-1.8-4.9-2.9-1.7-1.2-2.9-2.6-3.5-4.3-.7-2 .6-3.5 2-4 1.9 1.5 3.7 3.2 5.3 5.2.7.9 1.3 2 2 3.3.3.5.7 1.1.9 1.7.3.6.7 1.4.7 1.9.1.8 0 1.9-.1 2.9-.3 5.7-.4 11-.8 16.4-.1 1.4 0 2.8-.1 4.2-.1 1.6-.2 3.5-.3 5.2-.1 1.5 0 3-.2 4.5 0 .3-.2.7-.3 1-.2 1.2 0 2.4-.1 3.7-.2 3.7-.4 7.5-.5 11.1-.2 4.4-.4 8.8-.6 13.1 0 .6 0 1.2-.2 1.8-.8-.5-1.6-1.1-2.3-1.8.3 0 .2-.2.2-.4.1-.7 0-1.5 0-2.2-.2-1.9-.5-3.8-.8-5.6-.1-.9-.4-1.7-.7-2.5-.7-2.5-1.7-4.8-2.7-6.9-.4-.7-.8-1.5-1-2.2 1 .7 2.1 1.4 3.2 1 .9-.3 1.6-1.7 1.7-2.9.2-2.8-3.5-3.9-4.8-2-.5.8-.5 2.8-1.9 2.7-.5-.1-.9-.9-1.2-1.3-.9-1.1-1.7-1.8-2.5-2.7-.5-.4-1.1-.7-1.3-1.3.5-.3 1.1-.5 1.9-.5.3.4.3.8.5 1.2.5.8 1.6 1.2 2.4 1.1.8-.2 1.4-.8 1.7-1.4.9-2.4-2.4-4.2-3.9-2.3-.2.3-.2.6-.5.8-.2.1-.6 0-.9.1-.9.1-1.5.3-2.3.5-.6-.4-1-.8-1.6-1.1-.3-.7-1.4-.6-1.5-1.3 0-.2.3-.9.6-1s1.1.3 1.9.3c.7.1 1.3.2 1.9.2 2.2.1 4-.4 5.1-1.2.6.4.8.7 1.4.9 2.4.8 4.1-1 4.2-3 0-1.9-1.5-3.6-3.4-3.5-2 .1-2.9 1.9-2.9 4.1-.5.4-1.2 1-2 1.3-.1 0-.1.1-.2.1-1.3.3-3.1 0-4.4-.1-.4 0-1 .1-1.3-.3.5-1 1.1-1.7 2.2-2 .6-.1 1.3-.1 1.7-.4 2.2-1.3 2-4.6-.4-5.6-2-.8-4.3.6-4.3 2.8 0 1.4.7 1.9 1.3 2.7-.4.7-.9 1.2-1.5 1.9-.3.4-1.1 1.8-1.6 1.8-.4 0-1.1-.5-1.3-.8s-.3-.8-.5-1.2c-.4-1.2-1.1-2.5-1.6-3.6.4-.4.9-.5 1.3-.9 1.2-1.3 1.2-3.7-.1-4.9-.7-.7-2.1-1-3.1-.7-1.2.4-2.3 1.8-2.2 3.4.1 1.8 1.5 2.9 3.1 3.2.5 1.2 1.3 2.5 1.3 3.9-1.1-.3-1.9-1-3.1-1.2-.8-.9-2.2-2.7-3.9-2.6-1.6 0-2.7 1.8-2.2 3.5.2 1 1.5 1.5 2.5 1.6s2-.3 2.9-.5c.4-.1 1.2.2 1.6.3 1 .2 1.8.5 2.6.8.4.2 1 .3 1.1.7-1.3 1-3.2 1.3-5.2 1.7-.9-.9-2.5-1.6-4.1-1.1-1 .4-2.1 1.6-2.3 2.7-.4 2.2 1.3 3.8 2.7 4.1 2.6.6 4.6-1.6 4.3-4.5 1.7-.3 3.3-.5 4.5-1.2.6-.3 1-.8 1.6-1.2 1.5 1.1 3.3 1.9 4.4 3.3-.4.4-.7.7-1.3 1.1-.4.3-1.1.9-1.7.7-.3-.1-.7-.6-.9-.8-.9-.9-2.4-1.7-4.1-1-1.4.5-2.3 2.7-1.5 4.3.5 1 2.8 2.5 4.7 1.7 1.1-.4 1.2-1.7 1.7-2.7.7-1.3 2.2-1.8 4.2-2.3.7.6 1.6 1.5 2.1 2.4.1.2.2.5.4.7.1.2.4.4.6.7.6.7.9 1.5 1.3 2.4.7 1.7 1.2 3.7 1.5 5.8.3 2.2.2 4.4-.1 6.5-.1.7 0 1.4-.5 2-1.8-.8-3.5-1.9-5.2-2.7-.3-.1-.6-.1-.9-.3s-.7-.5-1.1-.7c-1.2-.7-2.3-1.5-3.5-2.1-1.6-.9-3-2-4.4-3-1.5-1-3-2-4.3-3.1s-2.6-2.2-4-3.5c-2.4-2.2-4.9-4.9-6.9-8-.9-1.4-1.8-3.2-2.4-5-.6-1.9-1.1-4.1-.9-6.5.1-1.1.3-2.3.6-3.2.1-.4.3-.8.3-1.1 0-.2-.4-.5-.6-.7-.6-.5-1-.9-1.4-1.4-.2-.2-.5-.5-.9-.6-1.6 4-1.9 10-.8 14.9 1 4 2.6 7.6 4.2 10.8.3.5.7.9.8 1.5-1.1.3-2.7.5-3.9.5-1.3.1-2.8-.1-3.9-.2-1.6-.1-2.9-.3-4.3-.6-4.5-1.1-8-2.7-11.6-4.8-.6-.4-1.9-.9-1.9-1.4 0-.2.1-.4.2-.7.7-1.6 1.9-2.1 3.8-1.7 1.8.4 3 1.1 4.2 2.1 1.6 1.3 2.7 3 4.4 3.8.6.3 1.7.6 2.5.4 1.6-.4 3-2 3.5-3.4.3-.9.3-2.1-.1-3.1-.5-1.2-2.1-2.5-3.3-2.7-.2-.1-.4 0-.6 0-.1 0-.3-.1-.5-.1-1.1 0-2.2.8-3 1.3-1 .6-1.4 1.1-2.4 1.8-.5-.2-1-.4-1.6-.6-.5-.2-1.2-.2-1.6-.6.2-.9.6-2 1-2.7.1-.2.3-.6.5-.8.8-1 2.1-1 3.3-1.7 1 .3 2 .4 3.1.2.3-.1.6-.3 1-.4.4-.2.7-.2 1.1-.4 1.1-.6 2-1.5 2.2-2.7.5-2.8-1.4-5.1-3.2-5.7-.9-.3-2-.4-2.9-.1-2.5.9-3.5 3.9-3.3 7.5-.4.5-.7.9-1.5 1-.8-1.1-1-2-1.4-3.1-.7-1.9-1.2-4.7-.5-7.1.4-1.3 1.2-2.2 1.8-3.1.7-1 1.6-2 1.7-3.3.2-1.6-.7-2.4-1.6-2.9-1.7-1-4.5-1.8-6.3-.6-1.3.8-1.5 2.8-1 4.5.5 1.4 1 2.4 1.7 3.5.3.5.8 1 1 1.6.3.9.3 2.2.5 3.4.4 2.9.9 5.5 2.1 7.5.3.4.6.9.6 1.4 0 1-1.3 2.2-2.2 2.7s-1.8.6-2.7.9c-.7.3-1.5.6-2 1-.6.5-.8 1-1.3 1.4-1-.5-1.3-.9-2-1.6-.4-.4-1.7-1.3-1.8-1.9 0-.4.3-1.2.5-1.8.5-1.8 1.6-3.2 2.8-4 .4-.2 1-.2 1.3-.4 1.1-.4 2.1-.8 2.7-1.9.4-.8.5-2 .4-2.8-.1-1.4-.9-3-1.8-3.6-.4-.4-1.4-.9-2.1-1-1.8-.2-3.5.7-4.3 1.6-.7.7-1.2 2.7-.9 4.2.1.7.7 1.8 1 2.2.3.5 1.4 1 1.5 1.7 0 .5-.3 1-.4 1.3-.2.3-.5.7-.7 1-.3.4-1.4 1.8-1.8 1.7-.3 0-1-1.2-1.2-1.5-1.2-1.6-2.3-3.5-3.1-5.2.6-.5 1.1-1.1 1.6-1.7.5-.7 1-1.2 1.4-2 .4-.7.8-1.5 1.1-2.3.4-.7.7-1.5 1.1-2.2 2.4.1 4.3-1.4 5-3.2.7-1.7.3-3.6-.5-4.8-1.1-1.8-3.4-3-6-2-2.6.9-4.1 4.3-2.6 7.3.2.4 1 .9 1 1.5 0 .1-.2.8-.2 1.1-.4 2.1-1 4.3-2 5.7-.2.2-.4.6-.7.6-.8-1.6-1.3-3.6-1.7-5.6-.1-.6-.4-1.5-.3-2.1.1-.4.4-.9.5-1.3.6-1.7.6-4-.3-5.5-.6-1-1.8-1.4-3.1-1.2-2 .2-4.2 1.8-3.2 4.6.3.8 1 1.7 1.5 2.4.3.3.6.7.9 1 .3.4.8.6 1 .9s.2.8.4 1.2c.1.4.2.8.4 1.2.3.8.7 1.5.7 2.3-1.3-.1-2.6-.8-3.6-1.2-.6-.3-1.7-.7-1.9-1.1-.2-.3-.1-1-.3-1.5-.7-2.1-3.2-3.5-5.8-2.8-1.6.4-2.8 1.6-3.2 3.1-.6 2 .3 3.7 1.5 4.7.2.1.4.4.6.5 1.7 1 4.4.7 5.7-.4.6-.5.8-1.3 1.4-1.8 1.5.9 3.6 1.9 5.3 2.7.6.3 1.5.5 1.9.9.2.2.3.6.5.9.1.3.4.6.4 1-1.9 1.4-3.8 2.8-5.8 4.1-.6-.5-.7-.9-1.1-1.2-1.4-1.1-3.3-1-4.5-.5s-2.2 1.7-2.6 3c-.7 3 1.7 5.5 4.2 5.6 1.3 0 2.5-.6 3.1-1.3.4-.5.7-.9.9-1.4.4-.7.4-1.5.6-2.6.1-.6 1-1.1 1.5-1.5s1.1-.8 1.8-.9c.1 1.3.3 2.9.3 4.5 0 1.5.1 3.6-.5 4.5-.5.8-1.6 2-2.7 2.2-.3 0-.5-.1-.7-.1-1.9.1-3.6 1.4-4.2 2.8-1.3 2.9 1.1 5.7 3.3 6.3 3 .8 5.9-1.6 5.9-4.3.1-1.7-.7-2.4-1.4-3.5 2.5-2.7 2.2-8.6 1.5-13 .4-.3 1.1-.4 1.6-.6.8 1.1 1.5 2.4 2.3 3.5.3.4.7.9.7 1.3 0 .3-.2.7-.4 1.1-.4 1.1-.6 2.2-.7 3.6-1.2.7-2.4 1.5-2.3 3.3.1 2.2 1.9 3.3 3.6 3.2 1.6-.1 2.9-1.5 3-3.1 0-1.3-.7-2.5-1.8-3.1-.5-.2-.9-.1-1.3-.5.2-1.2.4-2.3 1.2-2.9.6.7 1.2 1.5 1.9 2.2s1.3 1.5 1.9 2.1c1.4 1.3 2.9 2.5 4.3 3.9-1.8 1.6-4.8 1.2-5.9 3.1-.4.7-.5 1.5-.5 2.2.1 1.8 1.5 3.5 3.3 3.8 1.2.2 2.6-.2 3.6-.8.8-.4 1.6-1.3 1.8-2.3.2-1.3-.4-2.4-.7-3.4-.2-.6-.7-1.2-.6-1.9 4.5 3.2 9.2 5.8 14.9 7.6 2.9.9 5.7 1.8 8.8 2.2 2.5.3 5.1.5 7.6.6.9 0 1.7-.2 2.5-.1 1 0 1.8.9 2.6 1.6 2 1.7 4.3 3.1 6.4 4.4 3.1 1.9 5.8 3.8 8.5 6 2.6 2.1 5 4.4 7.3 7.2 1.6 1.9 3.4 3.8 5.2 5.7.5.6 1.5 1.4 1.7 2 .1.4 0 1-.1 1.6-.1 3-.2 5.8-.4 8.3-.1 1.2 0 2.4-.1 3.5-.2 2.8-.3 6-.5 8.9-.1 1.8 0 3.7-.1 5.6-.3 5.5-.5 11.1-.8 16.6-.2 3.7-.3 7.3-.6 10.9-.2 2.8-.4 5.6-.5 8.2-.1 1 .1 2-.4 2.6-1.7-.6-3.3-1.5-5.1-2.1-4.5-1.7-9.5-3.4-14.6-4.5-.7-.2-1.4-.3-2.1-.7-.4-2.3-.6-4.9-1-7.2-.1-.7-.6-1.5-.1-2.1 1.1.2 1.9.9 2.7 1.4.8.6 1.4 1.2 2.2 1.9s1.3 1.4 1.8 2.3c.5.8.9 1.8 1.5 2.6l.6.6c.8.9 1.5 1.9 2.6 2.4.3.2.7.3 1 .4 2.6.6 4.4-.8 5.9-1.9.6-.9 1.7-1.6 1.8-3 .1-1.1-.2-2.1-.5-3.2-.8-.8-1.3-1.9-2.2-2.5-.6-.5-1.5-.9-2.4-1.1-1.3-.2-3 .2-3.8.5-.9.3-1.5.4-2.3.9-.6.3-1.2.8-1.7.8-.4 0-.6-.4-1-.7-1.1-.8-2.4-1-3-2.2.5-.9 1.3-1.6 2.1-2.4.3-.4.7-.8 1.1-1.1s1-.8 1.4-.9c.5-.1 1.2-.1 1.8-.1.5 0 1.2-.3 1.7-.2.3.1.6.4.9.5 2.8 1.2 7 .8 8.8-.9.2-.2.4-.6.5-.8.1-.1.2-.1.2-.2.2-.3.5-.9.6-1.2.1-.2 0-.5 0-.8s.1-.4.1-.7c0-.7 0-1.7-.3-2.4-.1-.4-.4-.7-.7-1.1-.4-.6-.7-1-1.1-1.5-.5-.5-1-.8-1.8-1.1-.5-.2-1.1-.5-1.5-.6-1.7-.3-3 .2-4 .9-.5.3-1.2.9-1.5 1.3s-.5.7-.8 1.1c-.3.5-.7 1-.9 1.6-.2.5-.4 1.2-.6 1.9-.2.6-.3 1.6-.6 1.8-.4.3-1 .4-1.6.4-.3-.4-.2-1-.3-1.5-.1-1.4 0-2.8 0-4.3 0-2.5.1-5.4.8-7.4.3-.9.5-1.2 1.2-1.7.2-.1.5-.3.7-.5.5-.3 1-.5 1.5-.8s1.2-1 1.6-1.4c.6-.6.8-1 1.3-1.8.2-.4.5-.9.6-1.4.1-.7-.1-1.4-.2-1.7-.3-1-1.1-1.7-1.8-2.4-.2-.2-.5-.4-.8-.6-.5-.3-1.2-.8-1.7-1.1-.6-.2-1.2-.2-1.9-.5-.6-.2-1.1-.3-1.7-.2-1.1 0-2.4.4-3 .8-.5.4-1.1 1.7-1.2 2.7-.2 1.3 0 2.5.2 3.5.1.5.2 1.1.3 1.5.3 1.2 1 2.2 1.2 3.5.3 1.3.2 2.8.1 4.4-.2 3-.6 6-.3 9.1 0 .3.1.7.2 1.1.2.5.5.9.5 1.4 0 .9-1 2.2-2 2.8-.7.4-1.8.9-2.8.8-1.2-.2-1-1.7-1.4-3-.5-1.8-1.2-3.4-1.7-5.1-.3-.9-.6-1.7-.9-2.5-.5-1.4-1.1-3-1.7-4.3-.1-.2-.3-.4-.3-.5-.4-.8-.6-1.7-1-2.4-.2-.4-.5-.7-.7-1-.2-.4-.2-.9-.5-1.3-.1-.3-.4-.5-.6-.7-.2-.3-.3-.6-.5-.9-.6-.9-1.1-1.8-1.6-2.6-.2-.3-.3-.7-.4-.9-.4-.6-1-.9-1.2-1.6.3-.4.8-1 1.4-.9.7 0 1.1.8 1.5 1.1.2.2.6.3.9.4 1.1.6 3.2 1.1 4.6.4.8-.4 1.4-1.3 1.8-2.1.4-.9.8-2.1.8-3.1.2-2.1-.9-3.8-2.2-4.7-1.4-.9-3.3-.9-5.4-.3-.4.4-.9 1-1.3 1.5-.3.4-.3.5-.5.9-.1.3-.2.7-.3 1.1-.1.5-.2 1-.4 1.4-.1.2-.2.4-.3.6-.2.5-.8 2.4-1.4 2.4-.4 0-.6-.8-.7-1-.4-.7-1-1.4-1.5-1.9-.6-.6-1.1-1.1-1.6-1.8-.2-.3-.4-.7-.7-1-.1-.1-.3-.2-.5-.3-.1-.1-.2-.4-.3-.5-.3-.3-.9-.5-.8-.9.1-.5 1.1-.8 1.6-.7s.9.7 1.4.9c.9.5 2.3.9 3.5.3.7-.3 1.3-1.2 1.6-1.9.4-1.1.6-2.7.1-3.7-.4-.8-.9-1-1.8-1.4-.7-.4-1.4-.6-2.3-.5s-2 .8-2.4 1.3-.4 1.5-.6 2.2c-.1.3-.2.6-.3.8-.3.8-.9 2.2-1.7 2.2-.3 0-.7-.5-1-.7-.4-.3-.7-.6-.9-.8-.7-.6-1.3-1.1-1.8-1.5-.6-.5-1.3-1-1.9-1.4-.5-.3-1.1-.8-1.5-1-.2-.1-.5 0-.7-.1-.3-.1-.5-.4-.8-.7-.3-.2-.6-.4-1-.6-.6-.3-1.5-.6-1.7-1.2-.2-.5.4-2.1.6-2.2.5-.3 1.1.1 1.7.1.4.1.8.1 1.3.1 2.2.3 4.2.2 6.2.1 1.2-.1 2.5-.3 3.5-.6.9-.2 2.3-.5 2.9-.9.5-.3.9-1 1.5-.9.5 0 .8.6 1.3.9.3.2.6.3.9.6 1.5 0 2.8.2 4-.2.7-.2 1.1-.8 1.7-1 .8-.9 1.3-1.7 1.7-2.8.1-.3.3-.6.3-.9.3-1.8-.3-3.2-.9-4.3-.5-.9-1-1.5-1.9-1.9-1.5-.8-3.2-1.4-5.2-.6-.4.1-.7.5-1.1.7-.7.5-1.1.6-1.5 1.3-.8 1.4-1.1 3.1-1 5.3-.2.3-.5.4-.7.6-.7.5-1.4 1.4-2.2 1.8-.8.5-2 .6-3.2.7-2.3.2-3.9.1-6.2 0-.8-.1-2.1.1-2.3-.4-.1-.5.4-.9.7-1.3.3-.5.6-1 .8-1.3.7-.8 1.5-1.1 2.6-1.3 2.4-.5 4-1.3 5-3.2.3-.7.7-1.9.7-2.8 0-1.3-.6-2.7-1.2-3.5s-.9-1-2-1.4c-.5-.2-.9-.4-1.2-.5-1.5-.3-2.7-.1-3.8.4-1.4.6-2.1 1.3-2.7 2.7-.9 2.1-.6 4.5.6 6 .3.3 1.4 1.1 1.4 1.6s-.9 1-1.2 1.3c-.2.2-.3.5-.5.8-.6.8-1 1.6-1.6 2.4-.3.4-.6 1-1.1 1.5-.1.2-.4.4-.7.7s-.4.6-.7.6c-.4 0-.6-.4-1-.6-.5-.2-.9-.3-1.1-.5-.4-.4-.6-1.5-.9-2.1-.6-1.1-.8-2-1.3-2.8-.7-1.1-1.1-2.2-1.7-3.3-.2-.4-.7-.7-.6-1.3.2-.3.6-.4.9-.6s.6-.4.9-.6c.5-.4 1.1-.9 1.4-1.6.5-1.1.6-3 .4-4.1-.2-.7-.3-1-.5-1.5-.5-1.1-1.2-1.9-2-2.5-.5-.3-1-.6-1.7-.7-1.2-.3-3.2-.2-4.2.3-.5.2-1.3 1-1.7 1.5-.9 1.2-1.7 2.9-1.4 4.9.1 1.3.8 2.8 1.4 3.5.4.4 1 .6 1.5 1 .8.6 1.6.9 2.7.8.5.4.8 1.1 1.1 1.7.7 1.3 1.4 2.4 1.8 4 .1.5.7 2 .1 2.2-.2.1-.9-.3-1.2-.4-1-.4-1.4-.6-2.2-.9-.4-.2-1.1-.3-1.3-.5-.6-.5-1-1.5-1.6-2-1-.5-1.6-1.2-2.3-1.7s-1.9-1.1-3.1-1-2.1 1.1-2.7 1.9c-.7 1-1.4 2.7-1.3 4.2 0 .4.2 1.1.3 1.4.2.4 1.4 1.2 1.7 1.4 2.1.9 5.2.4 7.1-.2.3-.1.7-.2 1-.3.8-.1 1.7.2 2.4.3.7.2 1.5.3 2.2.5.6.2 1 .5 1.9.8.6.2 1.9.5 1.9.9.1.5-.9.9-1.2 1.1-.5.3-1 .7-1.6.8-.3.1-.6.1-.9.1-.8.2-1.4.3-2 .5-.4.1-.7.2-1.1.3-.6.1-1.7.5-2.2.4-.6 0-1.2-1-1.7-1.1-1.3-.3-2.3-.8-3.8-.7-1 0-2.3.4-3.3.9-.8.4-1.4 1.2-1.9 2-.4.5-.8 1.3-.9 2.1-.4 2.1.2 3.9 1 5.2.7 1 1.3 1.3 2.3 1.9.8.4 1.3.6 2.3.7.4.1.8.2 1.1.2.7 0 1.6-.3 2.5-.7 1.4-.6 2.5-1.4 3.2-2.5.4-.7.6-1.3.7-2.3.1-.3.1-.5.1-.7 0-1-.2-1.6-.3-2.6.9-.4 2-.5 2.8-.7.2-.1.5 0 .7-.1.7-.2 1.3-.5 1.8-.7.3-.1.7-.1.9-.3 1.2-.5 1.8-1 3-1.7.5-.3 1.1-.9 1.4-.9s.8.5 1.2.7c.6.2 1.3.3 1.7.5.3.1.5.3.7.5.3.2.5.3.7.5.5.3 1 .7 1.5 1 .2.2.4.3.6.5.3.1.6.3.8.4.1.1.3.4.5.6.4.3.7.3.7.6 0 .5-.7.8-1.1 1.1-.5.4-.7.6-1.2.9-.5.5-1.2 1.1-1.9 1.3-1.3.3-1.5-.5-2-1-.9-1-1.3-1.2-2.7-1.6-.6-.2-1.2-.5-1.8-.5-1.3-.1-2.1.1-3.1.4-1.3.4-1.6.6-2.3 1.4-.5.7-.8 1.3-1 2.2-.1.5-.3.9-.3 1.3-.1 1.1.2 2.4.8 3.3.7 1.1 1.8 1.9 3 2.4.3.1.7.4 1 .5.3 0 .6-.1.9-.1.4 0 .8.1 1.3.1 2 0 3.1-.4 3.9-1.7.3-.4.6-.8.6-1.2.3-.8.3-1.7.7-2.6.2-.3.6-.5.6-.9 1-1 2.3-2.1 3.7-2.7.5-.2 1-.5 1.5-.7.2 0 .5 0 .8-.1s.5-.3.7-.3c.3 0 .8.5 1.2.9s.8.9 1 1.2c.4.4.8.7 1.1 1.1.4.5.7.9 1 1.2.4.3 1.1.6 1 1.3-.4.3-.7.4-1.1.6-.8.5-1.4 1.2-2 1.9s-1.1 1.6-1.8 2.2c-.1.5-.4.9-.6 1.3-.1.6 0 1.1 0 1.6 0 .6-.9 1.5-1.3 1.8-.2.1-.6.1-.9.3-.3.1-.6.3-.9.3-1.2.3-1.8-.3-2.9-.7-1.1-.3-2.3-.6-3.3-.9-.7-.2-1.4-.4-2.1-.5-.4-.1-.8 0-1.3-.1-.3-.1-.6-.3-.9-.3s-.6.1-.9 0c-.3 0-.5-.3-.9-.3-.3-.1-.7 0-1-.1-.3 0-.6-.1-.9-.2-.6-.2-1.3-.2-1.9-.3-.7-.2-1.2-.7-1.7-1.1-.6-.4-1.3-.7-2-1-1-.4-2-.9-3-1.3-.4-.1-.7-.3-1.1-.4-2.5-.4-4.1.5-5 2.1-1.1 1.8-.1 4.4.4 6 .4 1 .8 2 1.3 2.6.4.4 1 .9 1.4 1.1 1.4.6 3-.1 4.1-.6 1.1-.6 2.3-1.7 3.2-2.6.8-.8 1.3-1.3 2.6-1.5.9-.1 2.1 0 3.2.1 1.5.2 3 .5 4.4.8.9.2 1.8.5 2.7.7.5.1.9.3 1.3.4.6.2 1.3.4 1.4.7.1.5-.8 1.4-1.1 1.6-.6.1-1.3-.1-1.7-.1-1.2 0-2.8.4-3.9.7-.4.1-.9.2-1.2.3-1.1.5-2.1 1.8-2.5 2.9-.4.9-.4 2.1-.3 3.1.1.8.2 1.2.5 1.8.5.9 1.4 2 2.1 2.4s1.4.5 2.3.6c.7.1 1.4.2 2.3.1.5-.1 1-.2 1.4-.3 1.1-.3 1.7-1.2 2.2-2.1.3-.6.6-1.2.8-1.9 0-.2 0-.5 0-.8.1-.3.3-.6.4-.9.1-.4.1-.9.1-1.4 0-.6-.3-1.2-.3-1.8 0-.5.3-1.2.5-1.7.5-1.1.8-1.8 1.6-2.5 1.3-1 2.8-1.9 4.6-2.3.4.8.7 2.2 1.1 3.2.1.4.4.9.3 1.2-.1.4-.7.7-1 1.2-.2.3-.4.7-.7 1.2-.2.3-.5.8-.7 1.2s-.3.9-.5 1.4-.6.9-.7 1.2c0 .3.1.7.1 1 0 1.2.1 1.5.5 2.3.5 1.1 1 1.6 1.8 2.2.6.5 1.3 1.1 2.1 1.2 1.7.3 3 0 4-.7.7-.4 1.2-1 2-1.4.1-.5.7-.7 1-1.1.2-.3.4-.9.5-1.5.4-1.9-.5-3.1-1.2-4.2-.6-.8-1.2-1.7-1.8-2.1-1-1-2.1-1.7-2.9-2.9-.7-.9-1.1-1.8-1.6-3-.5-1.1-1.1-2.4-.9-3.8.1-.5.3-1.4.7-1.8.2-.4.7-.5 1.1-.8.7-.3 1.1-.5 1.9-.8.4-.1.8-.4 1.1-.3.2.1.4.5.7.9s.6.6.8.9c.3.5.6 1.1 1 1.7s.7 1.3.9 2c.3.6.7 1.2.9 1.9.3.7.6 1.3.8 2.1.7 2.1 1.2 4.5 1.7 6.8.2.8.3 1.7.4 2.5.2 2.5.4 4.5.3 7-.1 1.6-.1 3.1-.3 4.5-.1.4-.2.9-.3 1.3v.9c0 .3-.3.6-.3.9-.1.3 0 .6-.1.9 0 .3-.1.6-.2.8-.1.6-.1 1.2-.4 1.7-1.1.1-2.1-.2-3.1-.4-.8-.1-1.6-.2-2.3-.3-.8-.1-1.5 0-2.2-.1-.5-.1-.9-.2-1.4-.3-1.9-.3-3.7-.7-5.3-1-.9-.2-1.8-.4-2.7-.6-1.8-.4-3.6-.8-5.3-1.3-1.6-.5-3.1-1.6-4.7-1.9-1.4-.8-2.8-1.3-4.1-2-1.4-.7-2.8-1.3-4.1-2.1-1.6-.9-3.3-2-4.7-3-.3-.2-.6-.4-.9-.6-.4-.3-.8-.8-1.3-1-.5-.3-.7-.5-1.1-.9-.2-.2-.4-.3-.7-.5-2.2-1.9-4-4.2-5.8-6.5-3.3-4.5-5.6-10-6.8-16.4-.1-.4 0-.8-.1-1.1-.2-.4-.7-.5-.9-.9-.1-.1-.1-.4-.2-.6-.4-1.3-.9-2.6-1.3-3.8.3-.4.6-.8.6-1.5.7-.9 1-2.1 1.4-3.3s.9-2.4 1.1-3.6c-.4-.1-.7.4-.9.6-.3.3-.6.5-.8.8-1.3.7-2.9 1.5-4.8 1.9s-4.3.6-6.4.3c-.5 0-1-.4-1.7-.3 0 .6.5 1 .9 1.4l1.1 1.1c1.1 1 2.1 2 3.7 2.3.4.1 1 0 1.3.3-.3.5-1.6.1-1.8.6.1.7.9.7 1.4.9.1.3.1.6.2.8 1.3 1.5 2.1 3.4 3 5.3-.1.8.2 2.1-.2 2.5-.7-.1-1.3-.5-1.9-.8-1.6-.7-3.2-1.3-4.8-1.9-1.1-.4-2-.7-3-1-1.8-.5-3.6-1-5.5-1.2-.4-.1-.9 0-1.2-.3.1-.5.7-.6 1.1-.8s.8-.5 1.2-.7c.8-.5 1.6-1.2 2-1.9 1.3-2.3-1.2-5.3-2.9-5.9-1.4-.6-3-.1-3.9.6-.8.6-1.6 1.7-1.6 2.8-.1 2.5 2.5 3.5 2.7 5.9-.4.2-.9.1-1.3.1-1.5.1-3.1.2-4.6.4-.9.1-1.9.2-2.8.4s-1.8.5-2.7.5c-.1-.6.1-1 .3-1.6.1-.4.3-1.1.6-1.3.3-.1.6.1 1 .2.3.1.8.3 1.1.3.5 0 1.2-.2 1.7-.5.9-.6 1.6-1.9 1.5-2.9-.1-1.5-1.2-2.8-2.5-3.1-2.3-.6-4.2 1.3-4.2 3.3 0 .7.4 1.2.6 1.9-.8 1.4-1.5 2.8-2 4.4-.8.3-1.6.6-2.5.9-.4.2-.8.3-1.2.4-.4.2-.8.5-1.2.3.1-.6.5-.9.8-1.3 1.4-2 2.8-4.2 3.7-6.7.4-1 .8-2.1.9-3.3 0-.4-.1-.9.1-1.3 2.3-.4 4.2-2.4 4-4.8-.1-1.6-1.1-3.1-2.3-3.8-.7-.4-1.7-.8-2.7-.8-.8 0-1.4.4-2.3.5-.4.6-1 .8-1.4 1.3-.1.2-.2.4-.3.6s-.2.4-.3.6c-.6 1.4-.3 3 .5 4.2.4.7 1.1 1 1.5 1.5.6.7.9 2.1.8 3.3-.1.7-.6 1.4-1 2.1-.9 1.5-1.8 2.5-2.7 3.7-.5.6-1 1.2-1.7 1.5-.6-1-1.3-2.5-1-3.8.1-.3.3-.5.5-.8.7-1.3 1.2-2.9.5-4.5-.4-.9-1.2-1.7-2.1-2.1-3-1.5-6.4 1.1-6.5 3.8-.1 1.6.8 3.1 1.7 3.8.8.6 1.8 1.2 3.2 1.1.4 0 .7-.3 1.1-.1s.4 1 .6 1.6.5 1.3.6 1.7c.4 1.4.6 2.3.9 3.5-.2.2-.6.3-.9.5s-.7.4-1.1.4c-.5 0-1.3-.3-1.9-.5-1.4-.3-2.7-.6-3.9-.8-.7-.1-1.5 0-1.9-.5.4-2-.5-3.7-1.4-4.7-.1-.1-.2-.2-.3-.3s-.4-.3-.6-.4c-1.1-.6-2.7-.9-4-.4-.7.2-1.1.5-1.6.9-1 .7-1.8 2.1-1.5 3.9.4 3.2 4.3 5.4 7.2 3.7.6-.3 1.1-1.1 1.6-1.2.1-.1.5.1.7.1.8.2 1.5.3 2.2.5.5.1 2.4.5 2.4 1.1 0 .4-.5.5-.9.8-1.1.6-2.1 1.5-3 2-1.3.1-3.2.3-4.3.8-.5.2-1.1.6-1.4.8-.1.1-.3.4-.4.6-.2.2-.3.3-.4.5-.9 2 .5 3.8 1.7 4.7.4.3.7.5 1.1.6.8.2 1.2 0 1.7-.2.7-.3.9-.6 1.4-1.1.3-.2.6-.4.8-.6.6-.7 1.1-1.6 1.4-2.6.1-.3.1-.8.3-1.1.2-.5.9-.9 1.5-1.4 1.4-1.2 2.8-2.1 4.3-3 .3-.2.5-.5.9-.4.3.7 0 1.4-.2 2.1-.3 1.5-.8 2.5-1.4 3.8-.2.5-.5 1.4-.9 1.6-.3.2-.7.2-1 .3s-.6.4-1 .3c-.9.6-1.7 1.4-2.1 2.3-1.4 2.8-.1 5.9 2.1 7 .4.2 1 .5 1.5.6 1.6.2 2.9-.3 3.9-1 .9-.6 2-2 2.2-3.4.3-1.5-.2-2.9-.7-3.7-.3-.4-1.3-1.2-1.4-1.7 0-.2.2-.6.3-1 .1-.3.2-.7.3-1.1.4-2.4.9-4.7.4-7.2.7-.6 1.7-.9 2.5-1.3 1-.4 1.9-.8 2.9-1.1.7-.2 1.3-.4 2-.5.5.5.4 1.7.4 2.7s-.1 2.1-.7 2.4c-2.5.1-4.1 1-5.2 2.5-.5.7-1 1.6-1 2.5 0 1.1.7 2.2 1.2 2.9.9 1.1 1.9 1.9 3.8 1.7 1.2-.1 2.1-.8 3-1.6.4-.3.8-.6 1.1-1.1s.6-1 .7-1.6c.2-1.2-.4-2.1-.9-3-.4-.6-.9-1.1-1.1-1.7s-.2-1.7-.1-2.3c.1-1.4.6-2.9 1.6-4 .7 0 1.5-.1 2.2-.2.9-.1 1.8-.1 2.5.1 0 1.7.5 2.7 1.2 4 .5.8 1.1 1.4 1.4 2.1.5.9.9 2.6.3 3.6-.2.5-.9.6-1.6.9-.9.4-1.6.8-2.3 1.2s-1.4 1-2 1.5c-.9.8-1.9 1.7-2.6 2.6-.4.5-1 .9-1.6 1.4-.2.2-.4.4-.6.6-.5.2-1.2.4-1.7.6-.6.2-1.1.5-1.6.7-.9.4-1.6.9-2.1 1.4-.6.6-1.2 1.1-1.5 2-.2.6 0 1.6.2 2.1.5 1.3 2.1 2 3.5 2.6.9.4 2.1.6 3 .5.9-.2 1.8-1.2 2.1-2.1.6-1.6.3-3.3.5-5 .2-1.6.8-2.7 1.7-3.8 1.4-1.8 2.7-2.7 4.4-3.7.6-.3 1.2-.9 1.8-.9 0 .6-.4 1-.6 1.5-.6 1.4-1.2 3.6-1.3 5.2 0 1.7.7 3 1.6 3.8.2.1.5.2.8.4.2.2.5.4.7.5s.4 0 .6.1c.9.2 1.9.1 2.6-.2 1.1-.4 1.8-1.1 2.5-1.9.5-.7 1-1.9.7-3-.5-1.7-1.8-3.4-3-4.2-.3-.1-.8-.2-1.1-.5-.2-.2-.5-.8-.7-1.1-.4-.7-.9-1.2-.9-2.4 0-.8.6-3.5 1-3.7.5-.2 1 .3 1.6.5.6.3 1.2.3 1.6.5.4.3.3 1.2.4 1.6.2.8.5 1.5.9 2.2.3.7.9 1.8 1.4 2.1.7.4 1.9 1 3.4.8.6-.1 1.3-.3 1.8-.6.3-.2.8-.5 1.1-.8 1.5-1.7 1.3-6-.8-7.2-.3-.2-.8-.4-1.1-.5-1.9-.5-4.3.4-6.1.5-1 0-2.6-.3-3.3-.5-.2-.1-.4 0-.5-.1-.2-.1-.3-.2-.5-.4-1.2-.6-2.3-1.1-2.4-2.6-.1-.7.1-1.9.6-2.1.4-.2 1.4.1 2.2.3 1.2.2 2 .4 3 .7.4.1.6.2.9.4 1.9.6 3.8 1.3 5.4 2.2.3.2.5.4.7.5.3.1.6.2.9.4 1.6.9 3 2 4.5 3.2 1.9 1.6 3.5 3.2 5 5.1s2.9 4 4.1 6c1.3 2.2 2.7 4.1 4.2 5.9.4.4.7.9 1.1 1.4s.8.9 1.3 1.3c1.6 1.8 3.3 3.4 5.2 4.9 1.4 1.1 3 2.1 4.4 3.2.6.5 1.1 1.1 1.7 1.5.4.2.9.3 1.3.6 1.7.9 3.2 1.9 4.9 2.7 1.4.7 3 1.4 4.4 1.9.9.4 1.8.8 2.8 1.1 1.3.4 2.6.8 4 1.1 2.8.5 5.5 1.4 8.1 2 .7.2 1.3.3 2 .5s1.5.2 2.1.5c.3.1.5.3.8.3.3.1.6.1.9.2 1.7.5 3.6 1 5.3 1.5.3.1.5.2.8.3s.6.1.9.2c1.2.4 2.4.7 3.4 1.2.5.2.9.6 1.4.9.4.2.7.1 1.2.5-.5 2.2-1.4 4.1-2.3 5.9-.4.9-1 1.8-1.5 2.6s-1.1 1.7-1.6 2.4c-2.4 3.1-5.1 5.8-8.6 7.8-1-.7-1.5-1.3-1.7-2.5-.1-.5.5-1.4.7-1.8.9-1.4 2.8-2.6 4.2-3.1 1.2-.5 2.6-.7 3.7-1.2 1.2-.5 2.6-1.4 2.8-2.9.3-2.6-1.3-5-3.3-5.5-2.4-.5-4.8 1.1-5.3 2.9-.3 1.3-.2 2.6 0 3.8.1.4.4 1.2.4 1.5-.1.5-.7.9-1.2 1.4-.4.4-.9 1.1-1.3 1.1-.2 0-1-1-1.3-1.4-.8-1-1.4-1.9-1.2-3.7.1-.4.1-.9.1-1.1.1-.4.5-.8.7-1.1.6-1 1.2-2.4 1.2-4.1-.1-2.3-2.3-4-4.9-3.9-2.3.1-4.2 2.1-4.3 4.2-.1 2.8 2.5 4.5 4.1 5.4.2.1.6.2.7.5-.4.7-.9.9-1.5 1-1.7.3-3.5 0-4.8-.5s-2.4-1.2-3.2-2.1-1.4-2.3-2-3.4c-.7-1.2-1.8-3-3.8-2.7-1.5.3-3.8 2.8-4.3 4s0 2.6.5 3.2c1.2 1.3 3.6 1.6 6 1.5.8-.1 1.6-.2 2.4-.1s1.8.5 2.8.9c2.2.8 4.8 1.9 7.4 1.7.6 0 1.2-.2 1.7-.1 1 .3 1.4 2.1 1.5 3.5 0 .7-.3 1.5-.3 2.2-.1.8-.2 1.6-.1 2.3.1.8.5 1.1.7 1.8-1 .6-2.1.9-3.3 1.4-.4.2-.9.4-1.2.4s-1-.7-1.2-.8c-1-.9-2.1-2.4-2.4-3.8-.3-1.5.5-2.6.2-4-.2-1.2-1.1-1.9-2.1-2.4-.9-.5-1.9-.8-3.3-.7-1.5.1-3 1.1-3.5 2.3-.4.9-.6 2-.3 3.2.3 1.4 1.8 2.5 2.9 2.9 1.2.5 2.6.2 3.6-.1.4-.1.7-.4 1.1-.3.6.1 1.2 1.1 1.5 1.6.5.9.6 1.7.9 2.6-1 .5-2.3.6-3.7.7-.7.1-1.4.1-2 .1-.7 0-1.4.1-2-.1-.2-.4-.3-.7-.4-1-.8-1.9-2-3.1-3.6-4.3-.3-.2-1.6-1.2-1.6-1.5s.3-.6.4-.8c.4-.6.7-1.5.8-2.2.7-4.2-3.6-6.5-6.8-5.1-1.3.5-2 1.3-2.6 2.5-.7 1.7-.3 3.9.8 5.2.9 1 2.3 1.8 4.1 1.8.5 0 1-.4 1.5-.3.4.1 1.2.8 1.6 1.1.7.5 1.1.9 1.5 1.3.7.7 1.3 1.4 1.8 2.3.2.3.4.6.3 1-2.6-.2-5.4-.8-7.6-1.6-1.2-1.5-3.5-3.6-6.1-3.2-1.9.3-3.1 3.5-2.1 5.3.9 1.6 3.2 1.8 5.4 1.3.8-.2 1.5-.6 2.2-.6.5 0 1.5.2 2.4.3.8.1 1.7.1 2.3.4-.4.9-1.1 1.4-2 2.1-.3.2-.7.5-1.1.8s-.9.8-1.3.8-.8-.4-1.2-.4c-3.2-.6-5.7 2.4-5.5 5.2.1 1.8 1.9 3.7 3.7 3.9 2.5.3 4-1.1 4.7-2.6.2-.4.4-.8.5-1.2.3-1.5-.2-2.8-.9-3.9.9-.8 2-1.4 3.2-2.3.4-.3 1-.8 1.5-1.2.4-.3 1.1-1.1 1.6-1.2.3-.1.7 0 1 0s.6 0 .8.1c.4 2.2.8 4.4 1 6.7-2.1.6-3.3 1.6-3.8 3.5-.8 3.5 3 6.5 6.1 4.9.9-.4 1.7-1.4 2.2-2.4.8-1.8-.1-3.9-1.3-4.9-.4-.4-.9-.7-1.3-1.1-.7-.8-1-2.2-.8-3.5.7.1 1.4.5 2.1.8 1.4.6 2.7 1.2 4 2.1.6.4 1.2.9 1.6 1.4.2.4.3.8.6 1.4.2.4.6.8.6 1.1 0 .5-.6 1-.7 1.3-.2.5-.4 1.3-.5 1.9-.2 2.5 1.8 4.3 3.9 4.5 2.4.2 4.2-1.6 4.7-3.3 1-2.9-1.1-6.2-4.5-5.9-.3 0-.6.2-1 .2-.5-.7-.9-1.5-1.5-2.1-.5-.5-1.3-1.1-1.9-1.6-1-.8-2.2-1.4-3.4-1.9-.9-.4-1.7-.7-2.6-1-.4-.2-.9-.3-1.2-.6-.1-.4 0-1.1.3-1.4 1.5-.3 2.9-.3 4.2-.5.3 0 .7-.3 1-.2s.6.5.9.8c.6.7 1.1 1.1 1.9 1.6.3.3.8.6.9.8.1.4 0 .9.1 1.2 0 .2.1.4.2.5 1.5 3 6.1 2 6.1-1.3 0-.8-.3-1.6-.7-2-.6-.8-2.1-1.6-3.7-1.1-.3.1-.7.4-1 .6-.1.2-.4.5-.8.5-.3 0-.9-.5-1.2-.8-.4-.4-.7-.7-.9-1.2.7-.3 1.6-.4 2.5-.7 2.1-.5 4.1-1.1 6-1.9.4-.2.9-.4 1.2-.4.5.1.9.7 1 1.1.3 1.3-.5 2.1-.4 3.4.2 2.3 2.6 3.7 4.8 3.2 1.1-.2 2.1-1.2 2.5-2.3.3-.6.5-1.5.5-2.2.1-2.7-1.9-3.6-4.3-3.4-.3 0-.7.1-1-.1.4-.4.8-.6 1.3-.9 1.4-.9 2.7-1.8 3.9-2.8 4.2-3.2 8.3-6.7 11.3-11 .6-.9 1.1-1.9 2-2.6.7.3 1.4.7 2.1 1.1.8.5 1.4.9 2 1.3.7.5 1.4.8 2 1.3.4.2.6.5.9.8.3.2.7.4 1 .7 1.2 1 2.4 2 3.5 3.1 1.1 1.2 2.3 2.3 3.1 3.6.2.4.5.8.6 1.2.2.7.2 1.7.1 2.6-.1 1.3-.2 2.8-.3 4.3-.1 1.2-.1 2.3-.2 3.5-.3 4.8-.5 9.6-.7 14.3-.1 2.5-.1 4.9-.3 7.2-.1 1.3-.1 3-.2 4.3s-.2 2.4-.2 3.7c-.3 6.3-1.6 11.5-3.4 16.3-.7 1.9-1.6 3.7-2.5 5.4s-1.7 3.5-2.8 5.1c-2.1 3.1-4.4 6.1-7 8.7-1.3 1.3-2.7 2.5-4.1 3.8 1.6 1.6 3.4 3.5 5 5.3.4.4 1.2 1.7 1.7 1.7.4.1 1.5-.8 2.1-1.2 2.3-1.3 4.5-2.6 6.4-3.7 3.6-2 7.3-4 12-4.9 1-.2 2-.4 3.1-.3 4.2.1 6.7 2.4 8.1 5.4 2.5 5.6 1.8 14 .9 20.4-.1.7-.4 1.4-.2 2h.7c.2 0 .1-.2.2-.2.1-.1.4-.1.4-.1 2 0 4-.2 6-.3s3.9-.1 5.6-.5c-.4-7.6 1.1-15.5 9.4-13.7 2.5.5 4.8 1.7 7 2.8s4.3 2.4 6.4 3.5c3.9-2.4 7.7-5 11.4-7.4.3-.1.6-.2.7-.5-4.3-2.3-8.2-4.5-12-6.9-3.8-2.5-7.3-5.2-10.3-8.6-3-3.5-5.1-7.5-6.6-12.2-1.2-3.6-1.8-7.7-2.1-12-.4-5.3-.5-11-.9-16.5 0-.2-.1-.4-.1-.7s.1-.5.1-.8-.2-.5-.2-.7c-.1-1.5-.1-3-.2-4.5-.3-3.8-.3-7.6-.5-11.2 0-.2-.1-.5-.1-.7s.1-.5.1-.8-.1-.5-.1-.7c-.1-1.2 0-2.5-.1-3.7-.1-1.3-.3-2.6-.3-3.9.1-.8.3-1.6.5-2.4.8-2.3 1.7-4.2 3.1-5.8 2.5-2.8 4.9-5 7.9-7 1.4-1 3-2 4.6-2.9s3.2-1.8 4.9-2.5c1.4-.6 2.8-1.4 4.3-1.7 1.3 1.7 2.5 3.5 3.8 5.1 1.5 1.8 3.4 3.5 5 5.1 2.2 2 4.6 3.8 6.9 5.5.4.3.9.6 1.4.9.4.3 1.1.4 1.3 1-2.7-.4-5.1.3-5.4 2.6-.2 1.5.3 3.5 1.3 4.4.7.6 1.9 1.1 3.3 1 1.8-.2 3.2-1.7 3.3-3.3 0-1-.7-2.1-.4-3.4.1-.4.6-1 1.1-1 .3 0 .7.3 1.1.5s.9.3 1.2.4c2.1.7 4.1 1.4 6.2 1.8.4.1.9 0 1.2.4-.5.9-1.2 1.6-2.2 2-.6-.4-1-1-1.6-1.2-2.2-.9-4.6.9-4.5 3.1.1 1.5 1.4 2.8 2.6 3.1 2.3.5 4-1.4 3.9-3.7.7-.4 1.2-.9 1.9-1.5.4-.3 1.4-1.5 1.8-1.6.2 0 .6.1.9.1 1.4.2 3 .3 4.5.6.1.4.2 1 .2 1.5-1.1.5-2.2.8-3.3 1.3-2.1.9-4.1 2-5.6 3.4-.4.3-.7.8-1.1 1.2-.3.4-.5.9-.9 1.4-2.9-.9-5.3.9-5.8 3.2-.5 2.9 1.3 5 3.2 5.6 2.6.8 5.9-.8 5.7-4.2 0-.6-.3-1.4-.5-2-.2-.5-.7-.9-.7-1.4 0-.3.4-.8.6-1.2s.4-.9.5-1.2c.3-.6 1-1 1.6-1.4.7-.4 1.3-.8 1.9-1.1 1.5-.7 3-1.5 4.3-1.8.2.7 0 1.4-.1 1.9-.2.6-.3 1.2-.7 1.6-.7.9-1.8 1.4-2.4 2.3-1.8 3.1.8 6.7 3.9 6.6 2.2 0 4.3-1.8 4.4-4.2 0-1.1-.3-1.8-.7-2.5-.4-.8-1.1-1.4-1.9-1.8-.4-.2-1-.2-1.4-.6.4-2.2.6-4.6 1.1-6.7.3-.2 1.3.1 1.9-.1 1.6 1.2 3.1 2.5 4.7 3.7.5.4 1.2.6 1.6 1.2-.2.5-.6.9-.8 1.5-1 3 1.2 5.9 3.5 6.3.8.1 1.9.1 2.7-.2.3-.2.6-.5 1.1-.7 1.1-1.2 1.9-2.6 1.5-4.7-.2-1-1.1-2.3-1.8-2.8-.9-.7-2.4-1.1-3.6-.8-.3.1-.8.5-1.2.4-.3 0-.9-.5-1.3-.8s-.9-.7-1.1-.9c-.8-.7-1.8-1.3-1.9-2.1.7-.3 1.6-.2 2.4-.3.4-.1.8-.2 1.1-.2.4-.1.9-.2 1.2-.2.4 0 .9.4 1.4.5 1.5.5 3.7.8 5.1.1.5-.3 1.2-1.1 1.4-1.8s0-1.7-.1-2.2c-.3-1-.8-1.9-1.5-2.3-.8-.4-2-.4-2.9 0-1.2.3-2.2 1-3 1.8-.4.4-.7.9-1.2 1.2s-1.2.4-1.8.5c-1.2.4-2.5.6-3.9.8-.7.1-1.3.3-2 .1-.1-.4.2-.7.4-.9.5-.9 1.1-1.6 1.9-2.3.6-.6 1.5-1.4 2.2-1.9.3-.2.7-.5.9-.6.3 0 .7.2 1 .2 3.6.4 6.2-2.6 5.8-5.8-.3-2.3-2.5-4.2-4.7-4.2-2.8-.1-5.2 2-5.2 4.6 0 1.5.6 2.6 1.3 4.1-.8.9-2 1.5-2.9 2.5-.9.9-1.8 2-2.3 3.2-.2.4-.3 1.1-.7 1.3s-1.5 0-1.9 0c-.7 0-1.4-.1-2-.1-1.4-.1-2.7-.2-3.7-.7.2-.9.5-1.6 1-2.5.3-.7.8-1.8 1.7-1.8.4 0 .9.3 1.3.4 1.5.4 2.9.2 4.1-.4.7-.4 1.4-1 1.8-1.5 1.2-1.8.5-4.7-1.2-5.9-1.8-1.3-4.6-.8-6.3.3-.7.4-1.3 1.4-1.4 2.3-.2 1.3.5 2.4.3 3.7-.2 1.1-.9 2-1.5 2.8s-1.2 1.6-2.2 2.1c-1.1-.5-2.4-.9-3.4-1.3-.3-.2-.8-.3-1-.6 0-.5.4-.6.5-1 .4-1.2.2-2.9 0-4.1-.1-.5-.3-.9-.3-1.3 0-1.3.7-3.3 1.7-3.5.5-.1 1 .1 1.4.1 2 .1 3.8-.4 5.5-.9 1.6-.5 3.1-1.4 4.9-1.7.8-.2 1.7 0 2.6.1 2.7.2 6.7-.3 6.6-3.5 0-1.5-.8-2.2-1.6-3.1-.5-.6-1.2-1.3-1.6-1.6-.7-.4-1.9-.9-2.8-.5-2.7 1.3-2.8 4.9-5.3 6.8-1.6 1.3-4.1 2.2-7 1.8-.7-.1-1.7-.2-1.9-1.1.5-.5 1.2-.6 1.7-1 1.4-.9 3.3-2.7 3.3-4.9 0-1.8-1.5-3.3-3-3.9-2.9-1.1-6.2.8-6.3 3.5 0 2.1.6 3.5 1.4 4.6.2.3.4.5.5.7s0 .8 0 1.2c.2 1.9-.4 2.7-1.2 3.6-.4.6-1 1.4-1.5 1.4-.4 0-1-.9-1.2-1.2-.4-.4-1.1-.8-1.1-1.3 0-.2.1-.5.2-.8.2-.7.4-1.8.4-2.6 0-.6 0-1.5-.2-2.2-.4-1.4-2.5-2.8-4.1-2.9s-2.7.6-3.5 1.6-1.5 2.9-1.1 4.4c.1.6.4.9.8 1.3.9 1 2 1.4 3.6 1.9 2.3.6 4 1.4 5.5 2.9.6.6 1.5 1.6 1.5 2.7.1 1.5-.8 1.9-1.7 2.6-4.9-3.1-8.7-7.4-11.5-12.6-.9-1.7-1.8-3.6-2.4-5.7.7-.4 1.4-.5 2.1-.8 1.8-.6 3.5-1.4 5.4-1.8 1-.2 2.1-.6 3.1-.8 1.7-.4 3.6-.8 5.1-1.1.4-.1.8-.1 1.2-.1.3-.1.5-.2.9-.4.3 0 .8 0 1.1-.1s.6-.2.9-.3.8 0 1.1-.1c.4-.1.7-.3 1.1-.3 1.3-.3 2.2-.7 3.3-1.1.9-.4 1.7-.7 2.5-1 .2-.1.3-.2.5-.3.4-.1.7-.2 1.1-.4 1.3-.6 2.5-1.3 3.8-1.9.9-.5 1.9-1.1 2.7-1.5.7-.4 1.4-.5 1.7-1.2 1.1 1.2 2.6 2.2 4.5 2.7s4.1.6 6.1.9c.2.7.8 1.1 1 1.6.7 1.1 1.3 2.1 2.1 3.1.4.4.8.9 1.2 1.4.4.4.8 1.1 1.4 1.2-1.1-3.6.2-7.5 1.5-10.4.9-2.1 2-4 3.3-5.5.2-.2.5-.5.5-.9-1 0-1.8.4-2.7.7-.8.3-1.6.7-2.4 1.1-1.2.6-2 1.5-2.7 2.6-.2.4-.3 1-.7.9.2-1 .7-1.7.8-2.7-1.5.4-2 1.8-2.7 3.1-.1.1 0 .6-.3.7-.1-.6.2-1 .4-1.5.2-.4.5-.8.5-1.3-.9.2-2.1.4-3.3.5-1.9.2-3.8.3-4.8-.7 5.3-4.1 10-8.8 13.6-14.7 1.8-2.9 3.5-5.8 5.9-8.2 2.3-2.4 4.8-4.6 7.8-6.4 1.9-1.2 4.1-2.2 6.4-3.1 1.1-.4 2.4-.8 3.7-1.1 1.2-.3 2.5-.7 3.9-.7.3.6.6 1.4.5 2.3s-.7 1.6-1.5 2c-.8.5-1.7.8-2.7 1-1.3.3-2.8.4-4.2.2-.5 0-1-.3-1.5-.4-1.7-.3-3.4-.1-4.4.6-2 1.3-2.4 5.1-.8 7.2.6.3 1.1.9 1.9 1.2 1.5.5 3.2.1 4.5-.6 1-1 1.7-2.5 2.3-4.1.1-.2.2-.5.3-.8.1-.4 0-.7.1-.9.3-.5 1.4-.5 1.8-.7.5-.2.9-.5 1.5-.5.3.5.5 1.1.6 1.7.2.7.3 1.4.3 2.1 0 1.2-.4 1.6-.8 2.3-.3.4-.5 1-.7 1.2-.3.2-.8.2-1.1.5-1.3.8-2.8 2.7-3.1 4.3-.3 1.5.4 2.6 1.1 3.5.3.4 1 1 1.4 1.2.9.6 2.8.7 4 .3s2.1-1.3 2.7-2.5c1-2.5-.2-5.4-.9-7.6-.3-.4-.7-.9-.5-1.5 1.6.6 2.5 1.4 3.7 2.2.1.1.3.1.4.3 2 1.7 3.7 3.7 3.9 7.3.1 2 .1 3.8.9 5 .2.3.7.7.9.9 1 .6 2.7.2 3.6-.2 1.8-.6 3.5-1.5 4-3.2 0-.5 0-1.3-.1-1.7-.3-.7-.7-1.2-1.2-1.6-1.2-1.1-2.8-1.9-4.3-2.5-.4-.2-1-.3-1.4-.5-.3-.2-.7-.5-1-.7-.3-.3-.7-.6-.9-.9-1.7-1.8-3.6-3.8-5.7-5-.5-.3-1-.5-1.6-.8s-1.3-.4-1.5-.9c-.5-.9-.2-2.7.2-3.5.2-.4.6-.9.9-1.4.6-.9 1.4-1.9 1.7-3 .2-.7.1-1.3.3-2 1.5-.2 3.5.2 4.9.2.9 1.3 1.5 2.8 1.5 4.6 0 .6.1 1.3-.1 1.8-.2.7-.7 1.2-1.1 1.7-.4.6-.8 1.3-.9 1.9-.2 1 .1 1.6.4 2.2.5.9.9 1.3 1.7 1.9 1.1.9 2.6 1.6 4.4 1.3.7-.2 1.6-.8 2.2-1.4.7-.9 1.4-2.1 1.4-3.3 0-.8-.4-1.7-.9-2.4-.8-1.2-1.9-2-3.4-2.4-.5-.1-1-.1-1.8-.2-.7-.1-.9-1.5-.9-2.5s-.1-2.4.5-2.8c2.1.4 3.9 1.2 5.8 2 .5.2 1.6.5 1.7.9.1.3-.2.8-.2 1-.2 1.3 0 3 .2 4.4.1.6.2 1.3.4 2.1.1.8.5 1.5.4 2-.1.4-.6.6-.7.8-.3.3-.5.7-.6.9-2.2 3.4.3 7.2 3.2 7.9 1.8.5 3.5-.2 4.5-1 1.5-1.2 2.6-3.8 1.5-6-.1-.2-.1-.4-.2-.5-.3-.6-.7-1.1-1.3-1.5-.2-.2-.5-.5-.8-.6-.7-.4-1.3-.4-2-.7-.3-.1-.4-.4-.6-.8-.4-.8-1-2-1.3-2.7-.2-.6-.5-1.4-.6-2.1s-.5-1.6 0-2.1c.6.3 1.2.7 1.8 1.1 1.2.7 2.1 1.5 3.3 2.5.6.5 1.5 1 1.6 1.5.2.7.2 1.4.5 2 .1.2.4.5.5.7.7 1.1 1.6 2.1 2.7 2.6 1.5.7 2.4 0 3.4-.8.6-.5 1-1.1 1.2-1.7.6-1.5.1-2.7-.8-3.7-1.5-1-3.4-1.7-5.8-1.8-1.1-.6-2.1-1.5-3.3-2.1-.4-.2-.7-.2-.7-.6 2.7-1.7 3.3-1.7 3.8-1.8zm-163.2 66.7c-.3 5.1.1 10.1-.2 15-.2 2.5.1 5-.1 7.5-.1 1.1-.2 2.4-.3 3.6s-.1 2.4-.4 3.5c-.5-.4-.6-1.1-.7-1.7-.1-.7-.2-1.4-.3-2-.2-1.3-.4-2.8-.5-4.1-.3-2.8-.5-5.6-.8-8.4-.4-5.6-.8-11.2-1.2-16.8-.1-1.8.2-3.7.3-5.6.1-2.8.2-5.5.3-8.4.5-9.7 1-19.9 3.2-28.4 0 0 .1-.1.2-.1h.1c.2 10 .3 20.3.3 30.6.1 5.1.3 10.3.1 15.3zm-.3-156.7c0 .3.2 1-.3 1.1-.1-.7-.2-1.5-.4-2.2-.1-1-.4-1.9-.2-2.9.2-1.6.9-3.4 1.7-4.3.4.3.8.4 1.2.5-1 2.1-1.6 5-2 7.8zm3.9 27.8c-.5-.2-.4-.9-.5-1.3-.5-3.2-.8-7-1-10.6-.5-5.7 0-11.5.7-16.6.1-.6.1-1.3.3-1.9 0-.3.2-.6.3-.9s.1-.7.1-.9.3-.4.3-.7c.1 0 .1 0 .1.1.2 10.8.4 22.4-.3 32.8z"/><path d="m452.1 22.5c-184.4 0-334.5 150-334.5 334.3s150.1 334.3 334.5 334.3c184.5 0 334.6-150 334.6-334.3 0-184.4-150.1-334.3-334.6-334.3zm0 653.5c-176.4 0-319.5-142.9-319.5-319.3 0-176.3 143.1-319.3 319.5-319.3 176.5 0 319.5 143 319.5 319.3.1 176.4-143 319.3-319.5 319.3z"/></g><path d="m454.4 53.2c-169.4 0-306.7 137.2-306.7 306.5s137.3 306.5 306.7 306.5 306.7-137.2 306.7-306.5-137.3-306.5-306.7-306.5zm0 529.9c-123.4 0-223.5-100-223.5-223.4s100.1-223.4 223.5-223.4 223.5 100 223.5 223.4-100.1 223.4-223.5 223.4z"/><path d="m454.4 147.6c-117.2 0-212.3 95-212.3 212.2s95.1 212.1 212.3 212.1 212.3-95 212.3-212.1c0-117.3-95-212.2-212.3-212.2zm0 418.7c-114.2 0-206.8-92.5-206.8-206.6s92.6-206.7 206.8-206.7 206.8 92.5 206.8 206.7c0 114.1-92.6 206.6-206.8 206.6z" fill="#fff"/><path d="m508 257.6s.3-.2.1-.3c0 .1-.4.2-.1.3z" fill="#283241"/><path d="m507 258.1c.3 0 .4 0 .4-.2-.2.1-.3.1-.4.2z" fill="#283241"/><path d="m326.3 334.7c.1.2.6.1.6-.1-.2.1-.5-.2-.6.1z" fill="#283241"/><g fill="#fff"><path d="m284.5 140.6c-5.2 0-9.4 4.2-9.4 9.4s4.2 9.4 9.4 9.4 9.4-4.2 9.4-9.4-4.2-9.4-9.4-9.4z"/><path d="m209.4 481.4c-5.2 0-9.4 4.2-9.4 9.4s4.2 9.4 9.4 9.4 9.4-4.2 9.4-9.4-4.2-9.4-9.4-9.4z"/><circle cx="621.1" cy="156.2" r="9.4"/><path d="m686.8 483.4c-5.2 0-9.4 4.2-9.4 9.4s4.2 9.4 9.4 9.4 9.4-4.2 9.4-9.4-4.2-9.4-9.4-9.4z"/><path d="m280.1 564 4.8-5.6-14.8-12.8 8.6-10.1 15.9 13.8 4.8-5.6-21.1-18.3-32.8 38 21.3 18.4 4.8-5.5-16.1-13.9 9.7-11.3z"/><path d="m334.8 567.4-28.5 25.1 10.1-36.6-6.9-4.3-26.6 42.6 5.9 3.6 16-25.6-8.3 30.5 5 3 23.6-20.8-16 25.6 5.9 3.7 26.6-42.5z"/><path d="m375.3 587.1c-1.2-1.2-2.6-2.1-4.3-2.8l-16.3-6.4-18.3 46.7 6.5 2.5 7.3-18.6 9.8 3.9c1.5.6 3 .9 4.5.9h.6c1.7-.1 3.3-.6 4.8-1.5s2.8-2.1 4-3.6 2.2-3.3 3-5.4 1.3-4.1 1.5-6 0-3.7-.5-5.4c-.6-1.6-1.5-3.1-2.6-4.3zm-4.9 13.2c-1 2.5-2.3 4.2-3.8 4.9s-3 .7-4.7.1l-9.1-3.6 5.7-14.4 9.1 3.6c1.7.7 2.8 1.7 3.4 3.2s.4 3.6-.6 6.2z"/><path d="m419.8 600.2c-.9-1.3-2.1-2.5-3.5-3.3s-2.9-1.4-4.5-1.7l-17.7-3.2-9 49.3 6.8 1.2 3.7-20.3 10.9 2c1.1.1 1.9.5 2.3 1 .6.7.9 1.6 1.1 2.6.2 1.2.3 2.5.1 4-.1 1.6-.3 3.2-.5 4.9l-.4 3.7c-.1.7-.1 1.5-.1 2.2 0 .8.1 1.5.3 2.1l.3 1.1 7.9 1.5-1.2-3c-.1-.3-.3-.8-.3-1.9 0-1 0-2 .1-3.1s.3-2.2.4-3.3c.2-1.1.3-2.1.4-2.9.2-1.5.3-2.9.3-4.1 0-1.4-.2-2.7-.5-3.8-.4-1.2-1-2.3-1.7-3.1 1.2-.6 2.3-1.6 3.3-2.8 1.7-2.2 2.8-4.9 3.4-8.1.4-2.3.4-4.3.1-6.1-.5-1.9-1.1-3.5-2-4.9zm-5.2 10.6c-.2 1.2-.6 2.2-1.1 3.1-.5.8-1.1 1.5-1.7 2s-1.3.8-2 1-1.5.2-2.2.1l-10.6-1.9 2.6-14.5 10.6 1.9c2 .4 3.2 1.2 3.9 2.5.7 1.4.9 3.4.5 5.8z"/><path d="m437.3 647.6 28.1 1.2.3-7.4-21.2-.9.6-14.8 19.7.8.3-7.3-19.7-.8.5-13.3 21 .9.3-7.4-27.9-1.1z"/><path d="m501.4 592.3 6.4 33.5-23.9-30.1-6.5 1.2 9.4 49.3 6.8-1.3-6.4-33.5 23.9 30.1 6.5-1.2-9.4-49.3z"/><path d="m550.3 583.2c-4.4-2.8-9.4-3.3-15.1-1.3l-13 5.1 18.3 46.7 13.1-5.1c5.5-2.3 8.9-6.1 10.1-11.2 1.2-4.9.4-11.2-2.6-18.7-3-7.7-6.5-12.7-10.8-15.5zm6.5 32.1c-.4 1.6-1.3 2.9-2.5 4-1.2 1.2-3 2.2-5.1 3l-5 2-12.9-33 5-2c4.2-1.6 7.5-1.8 10.4 0 1.4.9 2.8 2.3 4.1 4.2 1.4 2 2.7 4.6 3.9 7.7 1.2 3.2 2 5.9 2.4 8.3.3 2.2.2 4.2-.3 5.8z"/><path d="m591.9 601.8-7.9-12.5 16.6-10.5-3.9-6.2-16.6 10.5-7.1-11.3 17.8-11.2-3.9-6.2-23.7 14.9 26.7 42.5 23.9-15-3.9-6.3z"/><path d="m650 559.1c-.8-.5-1.6-1.2-2.4-1.9s-1.6-1.5-2.4-2.3l-2.1-2c-1-1-2.1-1.9-3.1-2.7-1.1-.8-2.3-1.4-3.4-1.8-1.2-.4-2.3-.6-3.6-.5.2-1.4.1-2.8-.3-4.3-.7-2.7-2.2-5.2-4.4-7.5-1.6-1.7-3.2-2.9-4.9-3.7-1.7-.9-3.4-1.3-5.4-1.3-1.5 0-3 .3-4.4.9-1.5.6-2.8 1.5-4 2.7l-13.1 12.3 34.4 36.5 5-4.8-14.2-15 8-7.6c.8-.8 1.5-1.2 2.5-1.2.8 0 1.7.2 2.5.6 1.1.5 2.2 1.3 3.3 2.3 1.2 1.1 2.4 2.2 3.6 3.3.4.3.8.7 1.2 1.1.5.5 1 .9 1.5 1.4s1.1 1 1.7 1.4c.6.5 1.3.8 1.8 1.1l1.1.4 5.9-5.6-3.2-.8c-.2-.2-.7-.4-1.6-1zm-24.1-10.1c-.3.7-.7 1.3-1.3 1.9l-7.8 7.4-10.1-10.7 7.8-7.4c1.5-1.4 2.9-1.9 4.3-1.7 1.6.3 3.3 1.3 5 3.1.8.9 1.4 1.8 1.8 2.7s.6 1.7.6 2.6c.1.7 0 1.4-.3 2.1z"/><path d="m213 381.3c-3.8-2.4-8.1-3.4-12.9-3.1l-1.2.1 1.4 7.7h.8c2.8.1 5.1.5 6.9 1.3 3.4 1.5 5.4 4.1 6.1 8 .8 4.3-.1 7.7-2.6 10.3-2.6 2.7-6.3 4.5-11.1 5.4-5.9 1.1-10.5.7-13.7-1.2s-5.1-4.7-5.8-8.6c-.6-3.1-.3-5.7.9-7.7s3-3.5 5.4-4.6l.8-.3-1.4-7.6-1.1.3c-3.8 1.1-7 3.5-9.5 7.2s-3.2 8.5-2.2 14.1c1.2 6.6 4.5 11.5 9.8 14.4 3.4 1.9 7.2 2.8 11.4 2.8 1.9 0 3.8-.2 5.8-.5 8.6-1.6 14.7-5.1 18.1-10.5 2.6-4.1 3.4-8.8 2.4-14-.9-6.1-3.7-10.6-8.3-13.5z"/><path d="m216.5 359.4-18.8-.3.2-12.1c0-2.2.3-3.8.8-4.7.8-1.6 2.4-2.4 4.9-2.5l7.3-.2c1.7-.1 2.9-.1 3.6-.3.7-.1 1.3-.3 1.8-.6l.6-.3.1-8.9h-2.7l-.3.6c-.3.6-1 1-2 1.3-.7.2-1.9.3-3.5.3l-5.9.1c-2.8.1-4.8.6-6.1 1.6-.9.6-1.6 1.5-2.2 2.5-.9-1.3-2-2.5-3.3-3.3-1.8-1.2-4.2-1.9-7-1.9-.1 0-.2 0-.3 0-5.3 0-9 2.2-11.1 6.5-1.1 2.2-1.6 5.1-1.7 8.5l-.3 20.9 45.9.7zm-38.7-.7.2-13c0-1.8.3-3.2.8-4.2 1-1.8 2.7-2.7 5.3-2.7h.2c2.5 0 4.3.7 5.1 2 1 1.4 1.4 3.4 1.4 5.9l-.2 12.3z"/><path d="m212.4 312.7-12.5-2.6 4.8-23.5-7-1.4-4.8 23.5-11-2.2 5.2-25.5-7.3-1.4-6.7 33.1 44.9 9.1 6.8-33.6-7.1-1.5z"/><path d="m223.4 270.5-11.8-4.7 8.9-22.4-6.7-2.6-8.9 22.3-10.4-4.1 9.6-24.2-6.9-2.7-12.5 31.4 42.6 17 12.7-31.9-6.8-2.7z"/><path d="m261.2 208.4c-.5.4-1.3.4-2.4 0-.7-.2-1.8-.8-3.2-1.6l-5.1-3c-2.4-1.4-4.4-2-6-1.9-1.1.1-2.1.4-3.2 1-.1-1.6-.4-3.2-1.1-4.6-.9-2-2.6-3.8-4.9-5.3-4.6-2.9-9-3.1-13.1-.4-2.1 1.3-4.1 3.5-5.9 6.4l-11.3 17.8 38.7 24.6 4.3-6.8-15.9-10.1 6.5-10.2c1.2-1.8 2.2-3.1 3.1-3.6 1.5-.9 3.3-.7 5.5.5l6.4 3.6c1.6.9 2.6 1.4 3.2 1.7.7.3 1.3.4 1.8.4h.6l4.8-7.5-2.3-1.5zm-28.3 2-6.6 10.4-10.9-6.9 7-11c1-1.5 2-2.6 2.9-3.2 1.8-1 3.8-.8 6.1.6 2.1 1.4 3.3 2.8 3.3 4.4.1 1.7-.5 3.6-1.8 5.7z"/><path d="m366.3 108.3c-2-.5-4.5-.6-7.6-.1l-6 1c-4 .6-6.6.9-7.7.7-1.6-.2-2.7-1.1-3.4-2.7-.6-1.6-.6-3.1.1-4.8.7-1.6 2.5-3.1 5.3-4.2 3.5-1.4 6.4-1.5 8.5-.3 1.2.7 2.3 2 3.4 3.9l.4.8 7-2.9-.4-1c-2-4.8-5-7.7-9.1-8.7-3.9-.9-8.1-.5-12.4 1.3-4.7 1.9-7.9 4.7-9.5 8.3s-1.6 7.4 0 11.3c1.5 3.7 4.1 5.9 7.6 6.7 2 .4 4.9.3 8.8-.3l5.8-.9c3-.5 5.4-.6 7-.2 1.4.3 2.4 1.4 3.2 3.3 1 2.5.4 4.8-2 6.9-1.3 1.2-2.9 2.2-4.8 2.9-4.1 1.7-7.4 1.7-9.9-.1-1.3-.9-2.5-2.5-3.5-4.5l-.4-.9-7 2.9.4 1c1.8 4.7 4.9 7.8 9 9.3 1.7.6 3.5 1 5.4 1 2.6 0 5.5-.6 8.5-1.8 4.4-1.8 7.9-4.4 10.4-7.8 2.6-3.5 2.9-7.8.9-12.6-1.8-4.1-4.4-6.6-8-7.5z"/><path d="m390.3 78-7.4 48.5 8.1-1.7 1.9-13.8 15.4-3.2 7.2 11.9 8.5-1.8-25.8-41.4zm14.2 23.4-10.6 2.2 2.2-16z"/><path d="m456.9 92c.8-.6 1.4-1.2 1.9-1.8 1.7-2 2.5-4.5 2.4-7.6-.1-2.6-.9-4.9-2.3-6.8-2.5-3.3-6.5-4.9-12-4.7l-20 .6 1.3 45.9 19.7-.6c6.1-.2 10.6-2.2 13.3-5.9 1.8-2.5 2.7-5.3 2.6-8.4-.1-3.6-1.3-6.5-3.5-8.5-.7-.8-1.9-1.5-3.4-2.2zm-10.4 4.6c2.4 0 4.3.2 5.7.7 2.5.9 3.7 2.7 3.8 5.4 0 1.7-.3 3.1-1.1 4.3-1.3 1.9-3.6 2.8-6.9 2.9l-11.9.3-.5-13.2zm4.2-7.9c-1.2.7-3.1 1-5.4 1.1l-9.9.3-.3-11.5 9.7-.3c2.5-.1 4.3.1 5.5.6 2 .8 3 2.3 3 4.7.1 2.5-.8 4.1-2.6 5.1z"/><path d="m471.4 117.3 33.9 5 1.1-7.2-26.1-3.9 1.9-12.6 23.7 3.5 1.1-7-23.8-3.6 1.7-11.1 25.7 3.9 1.1-7.4-33.5-5z"/><path d="m548.2 88-19.7-7-15.1 43.3 7.6 2.6 6.2-17.7 11.4 4c2.1.7 3.5 1.5 4.2 2.2 1.2 1.3 1.5 3.1.8 5.4l-2.1 7c-.5 1.7-.8 2.9-.9 3.5-.1.7-.1 1.3 0 1.8l.1.6 8.4 3 .9-2.6-.5-.5c-.5-.4-.7-1.2-.6-2.3.1-.8.3-1.9.8-3.4l1.7-5.6c.8-2.7 1-4.7.5-6.3-.3-1-.9-2-1.7-2.9 1.6-.4 3-1.1 4.2-2.1 1.7-1.3 3.1-3.4 4-6 1.8-5.1.9-9.5-2.6-12.9-1.8-1.6-4.3-3-7.6-4.1zm-2.2 6.8c1.7.6 3 1.3 3.8 2.1 1.4 1.5 1.7 3.5.8 6.1-.8 2.4-2 3.8-3.5 4.2-1.7.5-3.7.3-6-.5l-11.6-4.1 4.3-12.2z"/><path d="m675.3 232.2 1-.5-4.2-6.5-.8.3c-2.6 1-5 1.5-6.9 1.5-3.7-.1-6.6-1.7-8.7-5-2.4-3.7-2.9-7.1-1.6-10.5 1.3-3.5 4.1-6.6 8.1-9.3 5-3.3 9.4-4.7 13.1-4.2s6.5 2.4 8.7 5.7c1.7 2.7 2.5 5.2 2.2 7.4-.3 2.3-1.4 4.4-3.3 6.3l-.6.6 4.2 6.5.9-.7c3.1-2.5 5.1-5.9 6-10.3s-.3-9-3.4-13.8c-3.7-5.6-8.6-8.8-14.6-9.5-5.5-.6-11.2.9-16.8 4.6-7.4 4.8-11.6 10.4-12.6 16.6-.8 4.8.3 9.5 3.2 13.9 3.3 5.1 7.7 8.2 13 9.1 1.1.2 2.2.3 3.3.3 3.3 0 6.6-.8 9.8-2.5z"/><path d="m681.1 281.9c0-.6.5-1.3 1.4-2 .6-.4 1.6-1 3.1-1.7l5.4-2.4c2.6-1.1 4.2-2.4 5-3.8.5-.9.9-2 1.1-3.2 1.4.9 2.8 1.5 4.3 1.8 2.2.4 4.6.1 7.2-.9 5.1-2 7.7-5.5 8-10.4.1-2.5-.5-5.3-1.7-8.5l-7.8-19.4-42.6 17.1 3 7.4 17.4-7 4.5 11.2c.8 2 1.2 3.6 1.1 4.6-.2 1.8-1.3 3.1-3.6 4.2l-6.6 3.1c-1.6.7-2.6 1.3-3.2 1.6-.6.4-1.1.8-1.4 1.2l-.4.5 3.3 8.3 2.5-1zm22.2-40.4 4.9 12.1c.7 1.7 1 3.1.9 4.2-.2 2.1-1.5 3.6-4 4.6-2.4.9-4.2 1-5.5.1-1.4-.9-2.6-2.6-3.5-4.9l-4.6-11.4z"/><path d="m694.1 323.4-5.1-26 12.6-2.4 4.6 23.6 7-1.4-4.6-23.6 11-2.2 5 25.6 7.3-1.5-6.5-33.2-45 8.8 6.6 33.7z"/><path d="m687.7 336.5 13.2 4.5.3 15.7-13 4.8.1 8.7 45.6-17.4-.1-8.1-46.1-16.5zm20.1 6.9 15.3 5.3-15.1 5.5z"/><path d="m686.2 383.2 18.5 3.2-2 11.9c-.4 2.2-.9 3.7-1.5 4.5-1.1 1.4-2.8 2-5.2 1.7l-7.3-.9c-1.8-.2-2.9-.3-3.6-.3s-1.3.1-1.8.3l-.6.2-1.5 8.8 2.7.5.4-.6c.4-.6 1.1-.9 2.2-1 .5-.1 1.6 0 3.5.2l5.8.8c2.8.4 4.8.2 6.3-.6.9-.5 1.8-1.2 2.6-2.1.7 1.5 1.6 2.7 2.8 3.8 1.6 1.5 3.8 2.5 6.6 2.9 1 .2 1.9.3 2.9.3 4 0 7.2-1.6 9.4-4.9 1.4-2 2.4-4.8 3-8.2l3.5-20.7-45.2-7.7zm38.1 6.6-2.2 12.9c-.3 1.8-.8 3.1-1.5 4.1-1.2 1.7-3.1 2.3-5.8 1.8-2.5-.4-4.1-1.4-4.8-2.8-.7-1.5-.9-3.5-.5-6l2.1-12.1z"/></g></svg>