<svg enable-background="new 0 0 70 70" viewBox="0 0 70 70" xmlns="http://www.w3.org/2000/svg"><circle cx="35" cy="35" fill="#f4c81d" r="33.16"/><path d="m28.98 50.85h-2.72c-.09 0-.18-.04-.24-.11s-.09-.16-.07-.25l3.12-18.78c.02-.15.15-.26.31-.26h1.45c.11 0 .2.05.26.14l3.77 5.45c.02.03.05.05.09.05.03 0 .07-.02.08-.04l3.68-5.42c.06-.09.16-.14.26-.14h.81c.15 0 .28.1.31.25l3.91 18.69c.02.09 0 .19-.06.26s-.15.12-.24.12h-2.72c-.16 0-.29-.12-.31-.28l-1.77-15.02c-.01-.07-.06-.08-.08-.09-.02 0-.07-.01-.11.04l-3.58 5.59c-.06.09-.16.14-.26.14-.11.01-.21-.05-.26-.14l-3.67-5.59c-.04-.06-.09-.05-.11-.04-.02 0-.07.02-.08.09l-1.46 15.05c-.01.17-.15.29-.31.29zm.39-19.19c-.05 0-.09.04-.1.09l-3.12 18.78c0 .03 0 .06.02.08s.05.04.08.04h2.72c.05 0 .1-.04.1-.09l1.46-15.05c.01-.13.11-.24.24-.27s.26.02.34.13l3.67 5.59c.02.03.05.04.09.05.04 0 .07-.02.09-.05l3.58-5.59c.07-.11.2-.17.33-.14s.23.14.24.27l1.76 15.02c.01.05.05.09.1.09h2.72c.03 0 .06-.01.08-.04s.03-.05.02-.09l-3.92-18.7c-.01-.05-.05-.08-.1-.08h-.81c-.03 0-.07.02-.08.04l-3.68 5.42c-.06.09-.15.14-.26.14-.1 0-.2-.05-.26-.14l-3.77-5.45c-.02-.03-.05-.05-.08-.05z"/><path d="m42.22 31.66h-14.58v-2.5h14.58zm-14.37-.21h14.16v-2.07h-14.16z"/><path d="m35.32 12.32h.21v11.17h-.21z"/><path d="m41.67 29.37h-13.49v-5.98h13.49zm-13.28-.21h13.07v-5.56h-13.07z"/><path d="m32.3 15.24-2.12-2.12 2.93-2.93-2.97-2.96 2.12-2.12 2.93 2.93 2.95-2.95 2.13 2.13-2.91 2.91 2.95 2.95-2.13 2.13-2.93-2.93zm-1.82-2.12 1.82 1.82 2.95-2.95 2.93 2.93 1.83-1.83-2.95-2.95 2.91-2.91-1.83-1.83-2.95 2.95-2.93-2.93-1.82 1.82 2.97 2.96z"/><path d="m34.89 64.19c-7.4 0-13.42-6.02-13.42-13.42v-.11h26.83v.11c.01 7.4-6.01 13.42-13.41 13.42zm-13.2-13.31c.06 7.23 5.96 13.1 13.2 13.1 7.25 0 13.15-5.87 13.2-13.1z"/><path d="m44.94 49.4-20.18-.25 1.67-9.93h16.34zm-19.93-.45 19.67.24-2.08-9.75h-16z"/><path d="m26.51 40.53h16.41v.05h-16.41z"/><path d="m26.27 42.41h17.07v.05h-17.07z"/><path d="m25.7 44.29h17.88v.05h-17.88z"/><path d="m25.37 46.08h18.7v.05h-18.7z"/><path d="m25.04 47.96h19.35v.05h-19.35z"/><path d="m23.34 44.19h9.66v.05h-9.66z" transform="matrix(.0976 -.9952 .9952 .0976 -18.5901 67.9348)"/><path d="m31.43 39.36h.05v9.85h-.05z" transform="matrix(1 -.00806603 .00806603 1 -.3562 .2552)"/><path d="m34.9 49.13-.16-9.8h.05l.16 9.8z"/><path d="m38.45 39.25h.05v9.8h-.05z" transform="matrix(1 -.00832848 .00832848 1 -.3664 .322)"/><path d="m41.96 49.23-.28-9.87h.05l.29 9.87z"/></svg>