<svg enable-background="new 0 0 70 70" viewBox="0 0 70 70" xmlns="http://www.w3.org/2000/svg"><circle cx="35" cy="35" fill="#f4c81d" r="33.16"/><path d="m46.82 26.87c-.34 3.07-6.32 5.44-10.59 9.84-4.64 4.01-7.35 9.84-10.44 10-1.45-.04-3.03-2.2-2.98-5.84.01-3.55 1.63-8.59 5.72-12.33 3.97-3.86 9.09-5.19 12.64-4.99 3.63.18 5.7 1.87 5.65 3.32z" fill="none" stroke="#1d1d1b" stroke-miterlimit="10" stroke-width=".5"/><g fill="#1d1d1b"><path d="m32.6 25.09c-.05.05-.13.07-.21.05-.11-.03-.18-.15-.14-.26.4-1.33-.32-2.1-1.01-2.85-.67-.73-1.37-1.48-.71-2.62.06-.1.19-.14.29-.08s.14.19.08.29c-.48.83-.08 1.32.66 2.12.7.76 1.57 1.69 1.1 3.26-.02.03-.04.06-.06.09z"/><path d="m35.35 24.19c-.07.07-.18.08-.26.02-.1-.06-.13-.2-.06-.29.44-.68.01-2.01-.37-3.19-.36-1.14-.68-2.12-.32-2.65.06-.1.2-.12.3-.06.1.07.12.2.06.3-.25.36.07 1.34.37 2.28.43 1.33.87 2.7.32 3.55-.02.01-.03.02-.04.04z"/><path d="m38.15 23.4c-.01.01-.02.02-.03.02-.1.07-.23.04-.29-.06-.61-.92-.45-2.04-.3-3.13.15-1.06.29-2.06-.36-2.67-.09-.08-.09-.21-.01-.3s.21-.09.3-.01c.81.76.65 1.92.49 3.04-.14 1.01-.29 2.05.23 2.83.06.09.04.21-.03.28z"/><path d="m41.01 23.22c-.05.05-.13.07-.21.05-.11-.03-.17-.15-.14-.27.45-1.46-.03-2.71-.41-3.71-.32-.84-.6-1.56-.25-2.17.06-.1.19-.14.29-.08s.14.19.08.29c-.25.43-.01 1.04.28 1.8.41 1.06.92 2.39.42 3.99-.02.04-.04.07-.06.1z"/><path d="m43.79 23.61c-.07.07-.18.08-.26.02-.1-.07-.12-.2-.06-.29.75-1.12.54-2.47.35-3.66-.16-1.04-.31-1.94.19-2.54.08-.09.21-.1.3-.03.09.08.1.21.03.3-.38.45-.25 1.26-.1 2.2.2 1.27.43 2.7-.42 3.97-.01.01-.02.02-.03.03z"/><path d="m45.69 24.11c-.08.08-.22.08-.3-.01-.08-.08-.08-.22.01-.3.02-.02 2.45-2.39 2.57-5.11 0-.12.1-.21.22-.2.12 0 .21.1.2.22-.13 2.89-2.6 5.29-2.7 5.4z"/><path d="m51.57 22.06c-.03.03-.07.05-.12.06-1.07.13-1.43.68-1.88 1.39-.51.79-1.08 1.68-2.76 2.17-.11.03-.23-.03-.26-.14s.03-.23.14-.26c1.52-.44 2.03-1.23 2.52-1.99.47-.73.92-1.43 2.19-1.58.12-.01.22.07.24.19 0 .05-.02.12-.07.16z"/><path d="m53.32 26.51c-.05.05-.13.07-.2.05-2.35-.62-5.59 1.05-5.62 1.07-.1.05-.23.01-.29-.09-.05-.1-.01-.23.09-.29.14-.07 3.42-1.77 5.93-1.1.11.03.18.15.15.26-.01.04-.03.07-.06.1z"/><path d="m51.92 30.71c-.02.02-.05.04-.09.05-1.62.44-2.47 0-3.38-.47-.64-.33-1.3-.68-2.33-.8-.12-.01-.2-.12-.19-.24s.12-.2.24-.19c1.11.13 1.84.51 2.48.84.9.47 1.61.84 3.07.44.11-.03.23.04.26.15.02.09-.01.17-.06.22z"/><path d="m49.37 33.39c-.04.03-.09.06-.14.06-.12 0-.22-.09-.22-.21-.01-.37-.26-.43-1.24-.44-1.09-.02-2.73-.04-4.2-1.46-.08-.08-.09-.22-.01-.3s.22-.09.3-.01c1.35 1.3 2.83 1.32 3.91 1.34.88.01 1.63.03 1.66.85.01.07-.02.13-.06.17z"/><path d="m46.74 35.6c-.03.03-.07.05-.11.06-.12.02-.22-.06-.24-.18-.08-.53-.81-.66-2-.82-1.08-.14-2.42-.33-3.42-1.09-.09-.07-.11-.2-.04-.3.07-.09.2-.11.3-.04.92.69 2.14.86 3.23 1.01 1.2.16 2.23.3 2.36 1.18-.01.07-.03.13-.08.18z"/><path d="m44.05 37.61c-.03.03-.07.05-.11.05-.12.02-.23-.06-.24-.17-.08-.46-.37-.49-1.23-.52-.99-.03-2.49-.09-4.2-1.39-.09-.07-.11-.2-.04-.3.07-.09.2-.11.3-.04 1.6 1.22 2.96 1.27 3.96 1.3.8.03 1.49.05 1.63.88.01.07-.02.14-.07.19z"/><path d="m41.95 40.12c-.03.03-.06.04-.1.05-.11.02-.23-.05-.25-.16-.31-1.45-3.93-1.85-5.3-1.88-.12 0-.21-.1-.21-.22s.1-.21.22-.21c.21.01 5.26.14 5.71 2.21.01.08-.02.16-.07.21z"/><path d="m40.41 41.84c-.03.03-.06.04-.1.05-1.36.3-5.53-1.76-6-2-.11-.05-.15-.18-.09-.28.05-.1.18-.15.29-.09 1.24.62 4.69 2.19 5.72 1.96.11-.03.23.05.25.16.01.08-.02.15-.07.2z"/><path d="m38.68 43.85c-.03.03-.07.05-.11.06-1.43.23-2.25-.28-3.11-.81-.79-.49-1.6-.99-3.01-1.07-.12-.01-.21-.11-.2-.23s.11-.21.22-.2c1.52.09 2.42.65 3.21 1.14.83.51 1.55.96 2.82.76.12-.02.23.06.24.18.02.06-.01.13-.06.17z"/><path d="m36.25 46.24c-.01.01-.02.01-.02.02-.1.07-.23.04-.3-.05-1.17-1.67-5.3-1.95-5.35-1.96-.12-.01-.21-.11-.2-.23s.11-.21.23-.2c.18.01 4.38.3 5.67 2.14.06.09.04.2-.03.28z"/><path d="m33.98 48.42c-.02.02-.06.04-.09.05-.11.03-.23-.04-.26-.15-.24-.9-1.22-1.02-2.35-1.16s-2.3-.28-2.81-1.29c-.05-.1-.01-.23.1-.28s.23-.01.28.09c.4.8 1.41.93 2.48 1.06 1.18.15 2.4.3 2.71 1.47.02.08 0 .16-.06.21z"/><path d="m29.57 52.58c-.08.07-.2.08-.28.01-.09-.07-.11-.21-.03-.3 1.57-1.93-2.09-5.14-2.13-5.17-.09-.08-.1-.21-.02-.3s.21-.1.3-.02c.16.14 4 3.51 2.18 5.76-.01.01-.01.01-.02.02z"/><path d="m24 52.91c-.06.05-.14.07-.22.04-.18-.07-.32-.2-.38-.37-.2-.54.28-1.39.88-2.47.53-.96 1.13-2.05 1.12-2.79 0-.12.09-.21.21-.22.12 0 .21.09.22.21.02.85-.59 1.94-1.17 3-.46.83-.98 1.77-.85 2.12.02.04.04.09.13.12.11.04.16.16.12.27-.02.04-.04.07-.06.09z"/><path d="m22.85 48.28c-.46.44-.93.74-1.34 1-.62.4-1.1.71-1.3 1.31-.04.11-.16.17-.27.13s-.17-.16-.13-.27c.25-.74.82-1.1 1.48-1.53.8-.52 1.8-1.16 2.57-2.76.05-.11.18-.15.28-.1.11.05.15.18.1.28-.43.88-.91 1.48-1.39 1.94z"/><path d="m20.04 46.65c-.44.42-1.07.78-2.1 1.04-.11.03-.23-.04-.26-.16-.03-.11.04-.23.16-.26 1.71-.42 2.17-1.15 2.66-1.91.4-.62.81-1.26 1.83-1.79.1-.05.23-.01.29.09.05.1.01.23-.09.29-.92.48-1.29 1.04-1.67 1.64-.24.36-.47.73-.82 1.06z"/><path d="m21.26 42.45c-.72.68-1.49.91-2.19 1.11-.62.18-1.2.35-1.69.82 0 0-.01.01-.01.01-.08.08-.22.08-.3-.01-.07-.08-.07-.22.01-.3.58-.55 1.23-.74 1.87-.93 1.02-.3 2.08-.61 2.99-2.36.05-.1.18-.14.29-.09.1.05.14.18.09.29-.33.65-.69 1.11-1.06 1.46z"/><path d="m22.73 38.36c-.03.03-.06.04-.1.05-1.53.32-2.48 1.03-3.24 1.6-.77.57-1.37 1.02-2.1.61-.1-.06-.14-.19-.08-.29s.19-.14.29-.08c.47.26.86 0 1.64-.58.75-.56 1.79-1.33 3.4-1.67.11-.02.23.05.25.16.02.08 0 .16-.06.2z"/><path d="m22.99 36.2s-.01.01-.01.01c-.99.79-1.85.47-2.76.14-.78-.29-1.66-.61-2.83-.35-.11.03-.23-.05-.25-.16-.03-.11.05-.23.16-.25 1.3-.29 2.24.06 3.07.36.9.33 1.55.57 2.35-.07.09-.07.23-.06.3.03.06.09.05.21-.03.29z"/><path d="m24.62 33.28c-.08.08-.21.08-.29 0-.84-.78-2.38-.48-3.61-.25-1.07.21-1.92.37-2.25-.13-.06-.1-.04-.23.06-.29s.23-.04.29.06c.17.26 1.01.1 1.81-.05 1.33-.26 2.98-.58 3.98.35.09.08.1.21.01.31 0-.01 0 0 0 0z"/><path d="m26.3 30.23c-.05.05-.13.07-.2.05-1.32-.36-4.91-1.06-5.64.01-.07.1-.2.12-.3.05s-.12-.2-.05-.3c1.03-1.49 5.59-.32 6.1-.18.11.03.18.15.15.26-.01.05-.03.08-.06.11z"/><path d="m28.16 28.35c-.01.01-.01.01-.02.02-.09.07-.23.05-.3-.05-.84-1.16-2.01-1.43-3.04-1.66-.94-.21-1.83-.42-2.09-1.33-.03-.11.03-.23.15-.26.11-.03.23.03.26.15.18.64.76.8 1.78 1.03 1.05.24 2.35.54 3.29 1.83.06.07.05.19-.03.27z"/><path d="m30.41 26.58c-.01.01-.02.02-.03.03-.1.06-.23.03-.29-.07-.51-.82-1.11-1.31-1.64-1.74-.85-.69-1.58-1.29-1.43-2.81.01-.12.11-.2.23-.19s.2.11.19.23c-.12 1.29.46 1.77 1.27 2.44.56.45 1.19.97 1.73 1.85.06.08.04.19-.03.26z"/></g><g fill="none" stroke="#1d1d1b" stroke-miterlimit="10" stroke-width=".25"><path d="m37.64 26.98c.72.76.69 1.97-.08 2.69-.76.72-1.97.69-2.69-.08-.72-.76-.69-1.97.08-2.69.77-.71 1.97-.68 2.69.08z"/><path d="m32.25 32.08c.34.36.33.93-.04 1.28-.36.34-.93.33-1.28-.04-.34-.36-.33-.93.04-1.28.36-.34.94-.32 1.28.04z"/><path d="m32.58 36.97c.28.3.27.77-.03 1.05s-.77.27-1.05-.03-.27-.77.03-1.05c.29-.29.77-.27 1.05.03z"/><path d="m28.09 38.92c.17.18.16.46-.02.63s-.46.16-.63-.02-.16-.46.02-.63.46-.16.63.02z"/><path d="m26.68 35.44c.12.12.11.32-.01.44s-.32.11-.44-.01-.11-.32.01-.44c.13-.12.32-.11.44.01z"/><path d="m25.93 37.09c.26.28.25.71-.03.97s-.71.25-.97-.03-.25-.71.03-.97c.28-.25.71-.24.97.03z"/><path d="m26.75 43.39c.26.27.24.7-.03.95-.27.26-.7.24-.95-.03s-.24-.7.03-.95.7-.24.95.03z"/><path d="m39.52 31.36c.26.27.24.7-.03.96s-.7.24-.96-.03-.24-.7.03-.96.7-.24.96.03z"/><path d="m44.1 27.58c.23.24.21.62-.02.84-.24.23-.62.21-.84-.02-.23-.24-.21-.62.02-.84.23-.23.61-.22.84.02z"/><path d="m31.95 27.58c.13.14.12.35-.01.48-.14.13-.35.12-.48-.01-.13-.14-.12-.35.01-.48.13-.14.35-.13.48.01z"/><path d="m27.88 31.53c.16.17.16.45-.02.61-.17.16-.45.16-.61-.02-.16-.17-.16-.45.02-.61s.45-.15.61.02z"/></g></svg>