<?xml version="1.0" encoding="utf-8"?>
<!-- Generator: Adobe Illustrator 27.1.1, SVG Export Plug-In . SVG Version: 6.00 Build 0)  -->
<svg version="1.1" id="Capa_1" xmlns="http://www.w3.org/2000/svg" xmlns:xlink="http://www.w3.org/1999/xlink" x="0px" y="0px"
	 viewBox="0 0 70 70" style="enable-background:new 0 0 70 70;" xml:space="preserve">
<style type="text/css">
	.st0{fill:#FFFFFF;stroke:#F4C81D;stroke-width:2;stroke-miterlimit:10;}
</style>
<circle class="st0" cx="35" cy="35" r="33.2"/>
<path d="M47.5,41.1l-8.8,7.3l-0.1-0.1c-1.9-2.3-1.4-5.8,1.1-7.8C42.3,38.4,45.6,38.7,47.5,41.1L47.5,41.1z M38.8,48l8.4-7
	c-1.8-2.1-4.9-2.3-7.3-0.4C37.6,42.5,37.1,45.8,38.8,48z"/>
<path d="M35.3,29.3l-6.8,6l-4.4-5.2l6.8-5.7L35.3,29.3z M28.5,34.9l6.5-5.7l-4.1-4.5l-6.5,5.4L28.5,34.9z"/>
<path d="M42.1,36.3l-7.3,6.2l-4.4-5l7-6.1L42.1,36.3z M34.8,42.1l6.9-5.8l-4.4-4.6l-6.7,5.8L34.8,42.1z"/>
<path d="M39.5,40.7L39.5,40.7l-0.6-0.5l0.1-0.1L39.5,40.7z"/>
<path d="M40.2,47.1l0-0.1l6.9,2.2l0,0.1L40.2,47.1z"/>
<path d="M47.1,49.2l-0.1,0l-1.5-6.7l0.1,0L47.1,49.2z"/>
<path d="M47.1,49.2L47.1,49.2L43,44.7l0.1-0.1L47.1,49.2z"/>
<path d="M47.7,49.5c0,0.2-0.3,0.4-0.5,0.4c-0.3,0-0.4-0.3-0.4-0.5c0-0.3,0.3-0.4,0.5-0.4C47.6,49,47.8,49.2,47.7,49.5L47.7,49.5z
	 M47,49.3L47,49.3c0,0.1,0.1,0.3,0.2,0.3c0.1,0,0.2-0.1,0.3-0.2c0-0.1-0.1-0.2-0.2-0.3C47.2,49.1,47.1,49.2,47,49.3z"/>
<path d="M42.7,37.1l-7.3,6.2l-0.8-1l7.3-6.2L42.7,37.1z M35.5,42.9l6.9-5.9l-0.5-0.6L35,42.3L35.5,42.9z"/>
<path d="M31.1,24.5l-6.8,5.7l-0.8-1l6.8-5.7L31.1,24.5z M24.3,29.9l6.5-5.4l-0.5-0.6l-6.5,5.4L24.3,29.9z"/>
<path d="M36.4,32.5l-4.6,4l-2.2-2.4l4.5-4.1L36.4,32.5z M31.8,36.2l4.2-3.7l-2-2.2l-4.2,3.8L31.8,36.2z"/>
<path d="M34.3,28.3l2.2-1.8l0.1,0.1L34.3,28.3L34.3,28.3z"/>
<path d="M40.1,30.5l-2.2,1.8l-0.1-0.1L40.1,30.5L40.1,30.5z"/>
<path d="M29.6,39.6l1.5-1.5l0.1,0.1L29.6,39.6L29.6,39.6z"/>
<path d="M26,35.8l1.6-1.5l0.1,0.1L26,35.8L26,35.8z"/>
<path d="M39.5,26.8l-1.6,1.4l-2.2-2.5l1.6-1.4L39.5,26.8z M37.9,28l1.4-1.2l-2-2.3l-1.4,1.2L37.9,28z"/>
<path d="M41.4,25.1l-1.6,1.4L37.6,24l1.6-1.4L41.4,25.1z M39.8,26.3l1.4-1.2l-2-2.3l-1.4,1.2L39.8,26.3z"/>
<path d="M43.2,23.4l-1.6,1.4l-2.2-2.5L41,21L43.2,23.4z M41.7,24.6l1.4-1.2l-2-2.3l-1.4,1.2L41.7,24.6z"/>
<path d="M45.1,21.7l-1.6,1.4l-2.2-2.5l1.6-1.4L45.1,21.7z M43.5,23l1.4-1.2l-2-2.3l-1.4,1.2L43.5,23z"/>
<path d="M46.9,20l-1.6,1.4L43.2,19l1.6-1.4L46.9,20z M45.4,21.3l1.4-1.2l-2-2.3L43.3,19L45.4,21.3z"/>
<path d="M48.8,18.3l-1.6,1.4L45,17.3l1.6-1.4L48.8,18.3z M47.2,19.6l1.4-1.2l-2-2.3l-1.4,1.2L47.2,19.6z"/>
<path d="M50.7,16.6L49.1,18l-2.2-2.5l1.6-1.4L50.7,16.6z M49.1,17.9l1.4-1.2l-2-2.3l-1.4,1.2L49.1,17.9z"/>
<path d="M52.5,14.9l-1.6,1.4l-2.2-2.5l1.6-1.4L52.5,14.9z M51,16.2l1.4-1.2l-2-2.3l-1.4,1.2L51,16.2z"/>
<path d="M42.2,29.7l-1.6,1.4l-2.2-2.5l1.6-1.4L42.2,29.7z M40.6,31l1.4-1.2l-2-2.3l-1.4,1.2L40.6,31z"/>
<path d="M44,28l-1.6,1.4L40.3,27l1.6-1.4L44,28z M42.5,29.3l1.4-1.2l-2-2.3L40.5,27L42.5,29.3z"/>
<path d="M45.9,26.3l-1.6,1.4l-2.2-2.5l1.6-1.4L45.9,26.3z M44.4,27.6l1.4-1.2l-2-2.3l-1.4,1.2L44.4,27.6z"/>
<path d="M47.8,24.6L46.2,26L44,23.6l1.6-1.4L47.8,24.6z M46.2,25.9l1.4-1.2l-2-2.3l-1.4,1.2L46.2,25.9z"/>
<path d="M49.6,23l-1.6,1.4l-2.2-2.5l1.6-1.4L49.6,23z M48.1,24.2l1.4-1.2l-2-2.3L46,21.9L48.1,24.2z"/>
<path d="M51.5,21.3l-1.6,1.4l-2.2-2.5l1.6-1.4L51.5,21.3z M49.9,22.5l1.4-1.2l-2-2.3l-1.4,1.2L49.9,22.5z"/>
<path d="M53.3,19.6L51.8,21l-2.2-2.5l1.6-1.4L53.3,19.6z M51.8,20.8l1.4-1.2l-2-2.3l-1.4,1.2L51.8,20.8z"/>
<path d="M55.2,17.9l-1.6,1.4l-2.2-2.5l1.6-1.4L55.2,17.9z M53.7,19.1l1.4-1.2l-2-2.3l-1.4,1.2L53.7,19.1z"/>
<path d="M14.4,49.1l-1.6,1.4L10.7,48l1.6-1.4L14.4,49.1z M12.9,50.3l1.4-1.2l-2-2.3l-1.4,1.2L12.9,50.3z"/>
<path d="M16.3,47.4l-1.6,1.4l-2.2-2.5l1.6-1.4L16.3,47.4z M14.7,48.6l1.4-1.2l-2-2.3l-1.4,1.2L14.7,48.6z"/>
<path d="M18.1,45.7l-1.6,1.4l-2.2-2.5l1.6-1.4L18.1,45.7z M16.6,47l1.4-1.2l-2-2.3l-1.4,1.2L16.6,47z"/>
<path d="M20,44l-1.6,1.4L16.2,43l1.6-1.4L20,44z M18.4,45.3l1.4-1.2l-2-2.3L16.4,43L18.4,45.3z"/>
<path d="M21.8,42.3l-1.6,1.4l-2.2-2.5l1.6-1.4L21.8,42.3z M20.3,43.6l1.4-1.2l-2-2.3l-1.4,1.2L20.3,43.6z"/>
<path d="M23.7,40.7L22.1,42L20,39.6l1.6-1.4L23.7,40.7z M22.2,41.9l1.4-1.2l-2-2.3l-1.4,1.2L22.2,41.9z"/>
<path d="M25.6,39L24,40.3l-2.2-2.5l1.6-1.4L25.6,39z M24,40.2l1.4-1.2l-2-2.3L22,37.9L24,40.2z"/>
<path d="M27.4,37.3l-1.6,1.4l-2.2-2.5l1.6-1.4L27.4,37.3z M25.9,38.5l1.4-1.2l-2-2.3l-1.4,1.2L25.9,38.5z"/>
<path d="M17.1,52l-1.6,1.4L13.3,51l1.6-1.4L17.1,52z M15.5,53.3l1.4-1.2l-2-2.3L13.5,51L15.5,53.3z"/>
<path d="M19,50.3l-1.6,1.4l-2.2-2.5l1.6-1.4L19,50.3z M17.4,51.6l1.4-1.2l-2-2.3l-1.4,1.2L17.4,51.6z"/>
<path d="M20.8,48.7L19.2,50l-2.2-2.5l1.6-1.4L20.8,48.7z M19.3,49.9l1.4-1.2l-2-2.3l-1.4,1.2L19.3,49.9z"/>
<path d="M22.7,47l-1.6,1.4l-2.2-2.5l1.6-1.4L22.7,47z M21.1,48.2l1.4-1.2l-2-2.3l-1.4,1.2L21.1,48.2z"/>
<path d="M24.5,45.3L23,46.6l-2.2-2.5l1.6-1.4L24.5,45.3z M23,46.5l1.4-1.2l-2-2.3l-1.4,1.2L23,46.5z"/>
<path d="M26.4,43.6L24.8,45l-2.2-2.5l1.6-1.4L26.4,43.6z M24.8,44.8l1.4-1.2l-2-2.3l-1.4,1.2L24.8,44.8z"/>
<path d="M28.2,41.9l-1.6,1.4l-2.2-2.5l1.6-1.4L28.2,41.9z M26.7,43.1l1.4-1.2l-2-2.3l-1.4,1.2L26.7,43.1z"/>
<path d="M30.1,40.2l-1.6,1.4l-2.2-2.5l1.6-1.4L30.1,40.2z M28.6,41.4l1.4-1.2l-2-2.3l-1.4,1.2L28.6,41.4z"/>
<path d="M28.7,25.2l-3.3,2.7l-0.8-1l3.3-2.7L28.7,25.2z M25.4,27.6l2.9-2.4l-0.5-0.6L24.9,27L25.4,27.6z"/>
</svg>
