<svg enable-background="new 0 0 70 70" viewBox="0 0 70 70" xmlns="http://www.w3.org/2000/svg"><circle cx="35" cy="35" fill="#f4c81d" r="33.16"/><path d="m47.55 41.06-8.78 7.29-.07-.09c-1.86-2.34-1.36-5.85 1.11-7.82 2.53-2.01 5.83-1.78 7.67.54zm-8.75 6.96 8.42-6.99c-1.77-2.13-4.88-2.32-7.27-.41-2.34 1.86-2.84 5.15-1.15 7.4z"/><path d="m35.32 29.28-6.82 5.99-4.39-5.19 6.83-5.66zm-6.79 5.66 6.46-5.67-4.07-4.52-6.48 5.37z"/><path d="m42.07 36.29-7.29 6.16-4.43-5 7.01-6.07zm-7.27 5.84 6.93-5.85-4.39-4.57-6.66 5.77z"/><path d="m39.53 40.72-.08.07-.55-.6.09-.08z"/><path d="m43.63 44.52h.12v7.26h-.12z" transform="matrix(.3095 -.9509 .9509 .3095 -15.6196 74.7914)"/><path d="m47.13 49.25-.12.03-1.47-6.68.11-.03z"/><path d="m47.13 49.15-.09.08-4.04-4.49.09-.08z"/><path d="m47.73 49.51c-.05.24-.29.4-.54.36-.26-.04-.43-.29-.39-.54.04-.26.29-.43.54-.39.26.04.43.29.39.54zm-.7-.16v.01c-.02.13.07.25.2.28.13.02.25-.07.28-.2.02-.13-.07-.25-.2-.28-.13-.01-.25.07-.28.19z"/><path d="m42.71 37.06-7.26 6.19-.81-.95 7.26-6.19zm-7.24 5.87 6.91-5.89-.51-.6-6.91 5.89z"/><path d="m31.11 24.55-6.84 5.68-.8-.96 6.84-5.68zm-6.8 5.35 6.48-5.38-.5-.6-6.48 5.38z"/><path d="m36.37 32.51-4.59 3.99-2.21-2.44 4.54-4.08zm-4.57 3.67 4.24-3.69-1.95-2.17-4.19 3.77z"/><path d="m34.04 27.42h2.83v.12h-2.83z" transform="matrix(.7725 -.635 .635 .7725 -9.3807 28.7651)"/><path d="m40.1 30.5-2.15 1.83-.08-.08 2.15-1.84z"/><path d="m29.37 38.9h2.1v.12h-2.1z" transform="matrix(.7211 -.6928 .6928 .7211 -18.5077 31.9388)"/><path d="m25.74 34.98h2.26v.12h-2.26z" transform="matrix(.7284 -.6851 .6851 .7284 -16.7095 27.9242)"/><path d="m39.5 26.81-1.56 1.39-2.19-2.46 1.56-1.39zm-1.56 1.23 1.39-1.24-2.04-2.28-1.39 1.24z"/><path d="m41.36 25.11-1.56 1.39-2.19-2.46 1.56-1.39zm-1.56 1.23 1.39-1.24-2.04-2.28-1.39 1.24z"/><path d="m43.21 23.42-1.56 1.39-2.19-2.46 1.56-1.39zm-1.55 1.23 1.39-1.24-2.04-2.28-1.39 1.24z"/><path d="m45.07 21.73-1.56 1.39-2.19-2.46 1.56-1.39zm-1.55 1.23 1.39-1.24-2.04-2.28-1.39 1.24z"/><path d="m46.93 20.03-1.56 1.39-2.19-2.46 1.56-1.39zm-1.55 1.23 1.39-1.24-2.04-2.28-1.39 1.24z"/><path d="m48.79 18.34-1.56 1.39-2.19-2.46 1.56-1.39zm-1.55 1.23 1.39-1.24-2.04-2.28-1.39 1.24z"/><path d="m50.65 16.65-1.56 1.39-2.19-2.46 1.56-1.39zm-1.55 1.23 1.39-1.24-2.04-2.28-1.39 1.24z"/><path d="m52.51 14.95-1.56 1.39-2.19-2.46 1.56-1.39zm-1.55 1.23 1.39-1.24-2.04-2.28-1.39 1.24z"/><path d="m42.18 29.73-1.56 1.39-2.19-2.46 1.56-1.39zm-1.55 1.23 1.39-1.24-2.04-2.28-1.39 1.24z"/><path d="m44.04 28.03-1.56 1.39-2.19-2.46 1.56-1.39zm-1.55 1.23 1.39-1.24-2.04-2.28-1.39 1.24z"/><path d="m45.9 26.34-1.56 1.39-2.19-2.46 1.56-1.39zm-1.55 1.23 1.39-1.24-2.04-2.28-1.39 1.24z"/><path d="m47.76 24.65-1.56 1.39-2.19-2.46 1.56-1.39zm-1.55 1.23 1.39-1.24-2.04-2.28-1.39 1.24z"/><path d="m49.62 22.95-1.56 1.39-2.19-2.46 1.56-1.39zm-1.55 1.23 1.39-1.24-2.04-2.28-1.39 1.24z"/><path d="m51.48 21.26-1.56 1.39-2.19-2.46 1.56-1.39zm-1.55 1.23 1.39-1.24-2.04-2.28-1.39 1.24z"/><path d="m53.34 19.57-1.56 1.39-2.19-2.46 1.56-1.39zm-1.55 1.23 1.39-1.24-2.04-2.28-1.39 1.24z"/><path d="m55.2 17.87-1.56 1.39-2.19-2.46 1.56-1.39zm-1.55 1.23 1.39-1.24-2.04-2.28-1.39 1.24z"/><path d="m14.41 49.11-1.56 1.39-2.19-2.46 1.56-1.39zm-1.56 1.23 1.39-1.24-2.04-2.28-1.39 1.24z"/><path d="m16.26 47.42-1.56 1.39-2.19-2.46 1.56-1.39zm-1.55 1.23 1.39-1.24-2.04-2.28-1.39 1.24z"/><path d="m18.12 45.73-1.56 1.39-2.19-2.46 1.56-1.39zm-1.55 1.23 1.39-1.24-2.04-2.28-1.39 1.24z"/><path d="m19.98 44.04-1.56 1.39-2.19-2.46 1.56-1.39zm-1.55 1.22 1.39-1.24-2.04-2.28-1.39 1.24z"/><path d="m21.84 42.34-1.56 1.39-2.19-2.46 1.56-1.39zm-1.55 1.23 1.39-1.24-2.04-2.28-1.39 1.24z"/><path d="m23.7 40.65-1.56 1.39-2.19-2.46 1.56-1.39zm-1.55 1.23 1.39-1.24-2.04-2.28-1.39 1.24z"/><path d="m25.56 38.96-1.56 1.39-2.19-2.46 1.56-1.39zm-1.55 1.23 1.39-1.24-2.04-2.28-1.39 1.24z"/><path d="m27.42 37.26-1.56 1.39-2.19-2.46 1.56-1.39zm-1.55 1.23 1.39-1.24-2.04-2.28-1.39 1.24z"/><path d="m17.09 52.04-1.56 1.39-2.19-2.46 1.56-1.39zm-1.55 1.23 1.39-1.24-2.04-2.28-1.39 1.24z"/><path d="m18.95 50.34-1.56 1.39-2.19-2.46 1.56-1.39zm-1.55 1.23 1.39-1.24-2.04-2.28-1.39 1.24z"/><path d="m20.81 48.65-1.56 1.39-2.19-2.46 1.56-1.39zm-1.55 1.23 1.39-1.24-2.04-2.28-1.39 1.24z"/><path d="m22.67 46.96-1.56 1.39-2.19-2.46 1.56-1.39zm-1.55 1.23 1.39-1.24-2.04-2.28-1.39 1.24z"/><path d="m24.53 45.26-1.56 1.39-2.19-2.46 1.56-1.39zm-1.55 1.23 1.39-1.24-2.04-2.28-1.39 1.24z"/><path d="m26.39 43.57-1.56 1.39-2.19-2.46 1.56-1.39zm-1.55 1.23 1.39-1.24-2.04-2.28-1.39 1.24z"/><path d="m28.25 41.88-1.56 1.39-2.19-2.46 1.56-1.39zm-1.55 1.23 1.39-1.24-2.04-2.28-1.39 1.24z"/><path d="m30.11 40.18-1.56 1.39-2.19-2.46 1.56-1.39zm-1.55 1.23 1.39-1.24-2.04-2.28-1.39 1.24z"/><path d="m28.69 25.16-3.3 2.74-.8-.96 3.3-2.74zm-3.27 2.41 2.94-2.44-.5-.6-2.94 2.44z"/></svg>