<?xml version="1.0" encoding="utf-8"?>
<!-- Generator: Adobe Illustrator 27.1.1, SVG Export Plug-In . SVG Version: 6.00 Build 0)  -->
<svg version="1.1" id="Capa_1" xmlns="http://www.w3.org/2000/svg" xmlns:xlink="http://www.w3.org/1999/xlink" x="0px" y="0px"
	 viewBox="0 0 70 70" style="enable-background:new 0 0 70 70;" xml:space="preserve">
<style type="text/css">
	.st0{fill:#FFFFFF;stroke:#F4C81D;stroke-width:2;stroke-miterlimit:10;}
	.st1{display:none;fill:none;stroke:#1D1D1B;stroke-width:0.5;stroke-miterlimit:10;}
	.st2{display:none;}
	.st3{display:inline;fill:#1D1D1B;}
	.st4{display:inline;fill:none;stroke:#1D1D1B;stroke-width:0.25;stroke-miterlimit:10;}
	.st5{clip-path:url(#SVGID_00000132065977288235785920000000294154326048916412_);}
	.st6{fill:#070707;}
</style>
<circle class="st0" cx="35" cy="35" r="33.2"/>
<path class="st1" d="M46,25.8c-0.3,3.1-6.3,5.4-10.6,9.8c-4.6,4-7.4,9.8-10.4,10c-1.5,0-3-2.2-3-5.8c0-3.5,1.6-8.6,5.7-12.3
	c4-3.9,9.1-5.2,12.6-5C44,22.7,46.1,24.4,46,25.8z"/>
<g class="st2">
	<path class="st3" d="M31.8,24c0,0-0.1,0.1-0.2,0c-0.1,0-0.2-0.1-0.1-0.3c0.4-1.3-0.3-2.1-1-2.9c-0.7-0.7-1.4-1.5-0.7-2.6
		c0.1-0.1,0.2-0.1,0.3-0.1s0.1,0.2,0.1,0.3c-0.5,0.8-0.1,1.3,0.7,2.1C31.5,21.5,32.3,22.4,31.8,24C31.9,24,31.8,24,31.8,24z"/>
	<path class="st3" d="M34.6,23.1c-0.1,0.1-0.2,0.1-0.3,0s-0.1-0.2-0.1-0.3c0.4-0.7,0-2-0.4-3.2c-0.4-1.1-0.7-2.1-0.3-2.6
		c0.1-0.1,0.2-0.1,0.3-0.1c0.1,0.1,0.1,0.2,0.1,0.3c-0.2,0.4,0.1,1.3,0.4,2.3C34.7,20.9,35.2,22.2,34.6,23.1L34.6,23.1z"/>
	<path class="st3" d="M37.4,22.4C37.4,22.4,37.3,22.4,37.4,22.4c-0.1,0.1-0.3,0.1-0.3,0c-0.6-0.9-0.5-2-0.3-3.1s0.3-2.1-0.4-2.7
		c-0.1-0.1-0.1-0.2,0-0.3s0.2-0.1,0.3,0c0.8,0.8,0.7,1.9,0.5,3c-0.1,1-0.3,2,0.2,2.8C37.5,22.2,37.4,22.3,37.4,22.4z"/>
	<path class="st3" d="M40.2,22.2c0,0-0.1,0.1-0.2,0c-0.1,0-0.2-0.1-0.1-0.3c0.5-1.5,0-2.7-0.4-3.7c-0.3-0.8-0.6-1.6-0.2-2.2
		c0.1-0.1,0.2-0.1,0.3-0.1c0.1,0.1,0.1,0.2,0.1,0.3c-0.2,0.4,0,1,0.3,1.8c0.4,1.1,0.9,2.4,0.4,4C40.3,22.1,40.2,22.1,40.2,22.2z"/>
	<path class="st3" d="M43,22.6c-0.1,0.1-0.2,0.1-0.3,0s-0.1-0.2-0.1-0.3c0.8-1.1,0.5-2.5,0.3-3.7c-0.2-1-0.3-1.9,0.2-2.5
		c0.1-0.1,0.2-0.1,0.3,0s0.1,0.2,0,0.3c-0.4,0.5-0.2,1.3-0.1,2.2C43.6,19.8,43.9,21.3,43,22.6C43,22.5,43,22.6,43,22.6z"/>
	<path class="st3" d="M44.9,23.1c-0.1,0.1-0.2,0.1-0.3,0s-0.1-0.2,0-0.3c0,0,2.5-2.4,2.6-5.1c0-0.1,0.1-0.2,0.2-0.2
		c0.1,0,0.2,0.1,0.2,0.2C47.5,20.6,45,23,44.9,23.1z"/>
	<path class="st3" d="M50.8,21c0,0-0.1,0-0.1,0.1c-1.1,0.1-1.4,0.7-1.9,1.4c-0.5,0.8-1.1,1.7-2.8,2.2c-0.1,0-0.2,0-0.3-0.1
		s0-0.2,0.1-0.3c1.5-0.4,2-1.2,2.5-2c0.5-0.7,0.9-1.4,2.2-1.6C50.6,20.7,50.7,20.8,50.8,21C50.9,20.9,50.8,21,50.8,21z"/>
	<path class="st3" d="M52.5,25.5c0,0-0.1,0.1-0.2,0c-2.3-0.6-5.6,1-5.6,1.1c-0.1,0-0.2,0-0.3-0.1c0-0.1,0-0.2,0.1-0.3
		c0.1-0.1,3.4-1.8,5.9-1.1c0.1,0,0.2,0.1,0.2,0.3C52.6,25.4,52.6,25.4,52.5,25.5z"/>
	<path class="st3" d="M51.1,29.7L51.1,29.7c-1.7,0.5-2.6,0-3.5-0.4c-0.6-0.3-1.3-0.7-2.3-0.8c-0.1,0-0.2-0.1-0.2-0.2
		s0.1-0.2,0.2-0.2c1.1,0.1,1.8,0.5,2.5,0.8c0.9,0.5,1.6,0.8,3.1,0.4c0.1,0,0.2,0,0.3,0.1C51.2,29.5,51.2,29.6,51.1,29.7z"/>
	<path class="st3" d="M48.6,32.3L48.6,32.3c-0.2,0.1-0.3,0-0.3-0.1c0-0.4-0.3-0.4-1.2-0.4c-1.1,0-2.7,0-4.2-1.5
		c-0.1-0.1-0.1-0.2,0-0.3s0.2-0.1,0.3,0c1.3,1.3,2.8,1.3,3.9,1.3c0.9,0,1.6,0,1.7,0.9C48.6,32.3,48.6,32.3,48.6,32.3z"/>
	<path class="st3" d="M46,34.6C46,34.6,45.9,34.6,46,34.6c-0.2,0.1-0.3,0-0.3-0.1c-0.1-0.5-0.8-0.7-2-0.8c-1.1-0.1-2.4-0.3-3.4-1.1
		c-0.1-0.1-0.1-0.2,0-0.3s0.2-0.1,0.3,0c0.9,0.7,2.1,0.9,3.2,1c1.2,0.2,2.2,0.3,2.4,1.2C46,34.4,46,34.5,46,34.6z"/>
	<path class="st3" d="M43.3,36.6L43.3,36.6c-0.2,0-0.3-0.1-0.3-0.2c-0.1-0.5-0.4-0.5-1.2-0.5c-1,0-2.5-0.1-4.2-1.4
		c-0.1-0.1-0.1-0.2,0-0.3s0.2-0.1,0.3,0c1.6,1.2,3,1.3,4,1.3c0.8,0,1.5,0,1.6,0.9C43.3,36.5,43.3,36.5,43.3,36.6z"/>
	<path class="st3" d="M41.2,39.1C41.1,39.1,41.1,39.1,41.2,39.1c-0.2,0.1-0.3,0-0.3-0.1c-0.3-1.5-3.9-1.8-5.3-1.9
		c-0.1,0-0.2-0.1-0.2-0.2s0.1-0.2,0.2-0.2c0.2,0,5.3,0.1,5.7,2.2C41.2,38.9,41.2,39,41.2,39.1z"/>
	<path class="st3" d="M39.6,40.8L39.6,40.8c-1.5,0.3-5.6-1.7-6.1-2c-0.1,0-0.2-0.2-0.1-0.3c0-0.1,0.2-0.2,0.3-0.1
		c1.2,0.6,4.7,2.2,5.7,2c0.1,0,0.2,0,0.2,0.2C39.7,40.7,39.7,40.8,39.6,40.8z"/>
	<path class="st3" d="M37.9,42.8C37.9,42.8,37.8,42.8,37.9,42.8c-1.5,0.3-2.3-0.2-3.2-0.7c-0.8-0.5-1.6-1-3-1.1
		c-0.1,0-0.2-0.1-0.2-0.2s0.1-0.2,0.2-0.2c1.5,0.1,2.4,0.7,3.2,1.1c0.8,0.5,1.5,1,2.8,0.8c0.1,0,0.2,0.1,0.2,0.2
		C38,42.7,37.9,42.8,37.9,42.8z"/>
	<path class="st3" d="M35.5,45.2C35.5,45.2,35.4,45.2,35.5,45.2c-0.1,0.1-0.2,0.1-0.3,0c-1.2-1.7-5.3-2-5.4-2s-0.2-0.1-0.2-0.2
		s0.1-0.2,0.2-0.2c0.2,0,4.4,0.3,5.7,2.1C35.5,45,35.5,45.1,35.5,45.2z"/>
	<path class="st3" d="M33.2,47.4C33.2,47.4,33.1,47.4,33.2,47.4c-0.2,0.1-0.3,0-0.3-0.1c-0.2-0.9-1.2-1-2.4-1.2s-2.3-0.3-2.8-1.3
		c0-0.1,0-0.2,0.1-0.3s0.2,0,0.3,0.1c0.4,0.8,1.4,0.9,2.5,1.1c1.2,0.2,2.4,0.3,2.7,1.5C33.3,47.2,33.2,47.3,33.2,47.4z"/>
	<path class="st3" d="M28.8,51.5c-0.1,0.1-0.2,0.1-0.3,0c-0.1-0.1-0.1-0.2,0-0.3c1.6-1.9-2.1-5.1-2.1-5.2c-0.1-0.1-0.1-0.2,0-0.3
		s0.2-0.1,0.3,0C26.8,45.9,30.6,49.3,28.8,51.5L28.8,51.5z"/>
	<path class="st3" d="M23.2,51.9c-0.1,0-0.1,0.1-0.2,0c-0.2-0.1-0.3-0.2-0.4-0.4c-0.2-0.5,0.3-1.4,0.9-2.5c0.5-1,1.1-2,1.1-2.8
		c0-0.1,0.1-0.2,0.2-0.2s0.2,0.1,0.2,0.2c0,0.8-0.6,1.9-1.2,3c-0.5,0.8-1,1.8-0.9,2.1c0,0,0,0.1,0.1,0.1
		C23.3,51.5,23.3,51.7,23.2,51.9C23.2,51.8,23.2,51.8,23.2,51.9z"/>
	<path class="st3" d="M22.1,47.2c-0.5,0.4-0.9,0.7-1.3,1c-0.6,0.4-1.1,0.7-1.3,1.3c0,0.1-0.2,0.2-0.3,0.1S19,49.5,19,49.4
		c0.2-0.7,0.8-1.1,1.5-1.5c0.8-0.5,1.8-1.2,2.6-2.8c0-0.1,0.2-0.2,0.3-0.1c0.1,0,0.1,0.2,0.1,0.3C23,46.2,22.5,46.8,22.1,47.2z"/>
	<path class="st3" d="M19.2,45.6c-0.4,0.4-1.1,0.8-2.1,1c-0.1,0-0.2,0-0.3-0.2c0-0.1,0-0.2,0.2-0.3c1.7-0.4,2.2-1.2,2.7-1.9
		c0.4-0.6,0.8-1.3,1.8-1.8c0.1,0,0.2,0,0.3,0.1c0,0.1,0,0.2-0.1,0.3c-0.9,0.5-1.3,1-1.7,1.6C19.8,44.9,19.6,45.3,19.2,45.6z"/>
	<path class="st3" d="M20.5,41.4c-0.7,0.7-1.5,0.9-2.2,1.1c-0.6,0.2-1.2,0.3-1.7,0.8l0,0c-0.1,0.1-0.2,0.1-0.3,0
		c-0.1-0.1-0.1-0.2,0-0.3c0.6-0.5,1.2-0.7,1.9-0.9c1-0.3,2.1-0.6,3-2.4c0-0.1,0.2-0.1,0.3-0.1c0.1,0,0.1,0.2,0.1,0.3
		C21.2,40.6,20.8,41.1,20.5,41.4z"/>
	<path class="st3" d="M21.9,37.3h-0.1c-1.5,0.3-2.5,1-3.2,1.6c-0.8,0.6-1.4,1-2.1,0.6c-0.1-0.1-0.1-0.2-0.1-0.3s0.2-0.1,0.3-0.1
		c0.5,0.3,0.9,0,1.6-0.6c0.8-0.6,1.8-1.3,3.4-1.7c0.1,0,0.2,0,0.2,0.2C22,37.2,22,37.3,21.9,37.3z"/>
	<path class="st3" d="M22.2,35.2L22.2,35.2c-1,0.8-1.9,0.5-2.8,0.1c-0.8-0.3-1.7-0.6-2.8-0.3c-0.1,0-0.2,0-0.2-0.2
		c0-0.1,0-0.2,0.2-0.2c1.3-0.3,2.2,0.1,3.1,0.4c0.9,0.3,1.5,0.6,2.4-0.1c0.1-0.1,0.2-0.1,0.3,0C22.3,35,22.3,35.1,22.2,35.2z"/>
	<path class="st3" d="M23.8,32.2c-0.1,0.1-0.2,0.1-0.3,0c-0.8-0.8-2.4-0.5-3.6-0.2c-1.1,0.2-1.9,0.4-2.2-0.1c-0.1-0.1,0-0.2,0.1-0.3
		s0.2,0,0.3,0.1c0.2,0.3,1,0.1,1.8,0C21.2,31.4,22.9,31.1,23.8,32.2C23.9,32,23.9,32.1,23.8,32.2L23.8,32.2z"/>
	<path class="st3" d="M25.5,29.2c0,0-0.1,0.1-0.2,0c-1.3-0.4-4.9-1.1-5.6,0c-0.1,0.1-0.2,0.1-0.3,0s-0.1-0.2,0-0.3
		c1-1.5,5.6-0.3,6.1-0.2c0.1,0,0.2,0.1,0.1,0.3C25.6,29.1,25.5,29.2,25.5,29.2z"/>
	<path class="st3" d="M27.4,27.3L27.4,27.3c-0.1,0.1-0.2,0.1-0.3,0c-0.8-1.2-2-1.4-3-1.7c-0.9-0.2-1.8-0.4-2.1-1.3
		c0-0.1,0-0.2,0.1-0.3c0.1,0,0.2,0,0.3,0.1c0.2,0.6,0.8,0.8,1.8,1s2.4,0.5,3.3,1.8C27.5,27.1,27.5,27.2,27.4,27.3z"/>
	<path class="st3" d="M29.6,25.5C29.6,25.6,29.6,25.6,29.6,25.5c-0.1,0.1-0.3,0.1-0.3,0c-0.5-0.8-1.1-1.3-1.6-1.7
		c-0.9-0.7-1.6-1.3-1.4-2.8c0-0.1,0.1-0.2,0.2-0.2s0.2,0.1,0.2,0.2c-0.1,1.3,0.5,1.8,1.3,2.4c0.6,0.5,1.2,1,1.7,1.9
		C29.7,25.4,29.7,25.5,29.6,25.5z"/>
</g>
<g class="st2">
	<path class="st4" d="M36.8,25.9c0.7,0.8,0.7,2-0.1,2.7s-2,0.7-2.7-0.1c-0.7-0.8-0.7-2,0.1-2.7S36.1,25.2,36.8,25.9z"/>
	<path class="st4" d="M31.5,31c0.3,0.4,0.3,0.9,0,1.3c-0.4,0.3-0.9,0.3-1.3,0c-0.3-0.4-0.3-0.9,0-1.3C30.5,30.7,31.1,30.7,31.5,31z"
		/>
	<path class="st4" d="M31.8,35.9c0.3,0.3,0.3,0.8,0,1s-0.8,0.3-1,0s-0.3-0.8,0-1C31,35.6,31.5,35.6,31.8,35.9z"/>
	<path class="st4" d="M27.3,37.9c0.2,0.2,0.2,0.5,0,0.6s-0.5,0.2-0.6,0s-0.2-0.5,0-0.6C26.9,37.7,27.1,37.7,27.3,37.9z"/>
	<path class="st4" d="M25.9,34.4c0.1,0.1,0.1,0.3,0,0.4s-0.3,0.1-0.4,0s-0.1-0.3,0-0.4S25.8,34.3,25.9,34.4z"/>
	<path class="st4" d="M25.1,36c0.3,0.3,0.2,0.7,0,1s-0.7,0.2-1,0s-0.2-0.7,0-1C24.4,35.8,24.9,35.8,25.1,36z"/>
	<path class="st4" d="M26,42.3c0.3,0.3,0.2,0.7,0,1c-0.3,0.3-0.7,0.2-1,0s-0.2-0.7,0-1C25.3,42.1,25.7,42.1,26,42.3z"/>
	<path class="st4" d="M38.7,30.3c0.3,0.3,0.2,0.7,0,1s-0.7,0.2-1,0s-0.2-0.7,0-1S38.5,30,38.7,30.3z"/>
	<path class="st4" d="M43.3,26.5c0.2,0.2,0.2,0.6,0,0.8c-0.2,0.2-0.6,0.2-0.8,0s-0.2-0.6,0-0.8C42.7,26.3,43.1,26.3,43.3,26.5z"/>
	<path class="st4" d="M31.2,26.5c0.1,0.1,0.1,0.4,0,0.5s-0.4,0.1-0.5,0s-0.1-0.4,0-0.5C30.8,26.4,31,26.4,31.2,26.5z"/>
	<path class="st4" d="M27.1,30.5c0.2,0.2,0.2,0.5,0,0.6c-0.2,0.2-0.5,0.2-0.6,0c-0.2-0.2-0.2-0.5,0-0.6
		C26.6,30.3,26.9,30.3,27.1,30.5z"/>
</g>
<g>
	<g>
		<defs>
			<rect id="SVGID_1_" x="0.5" y="9.2" width="62.9" height="44.1"/>
		</defs>
		<clipPath id="SVGID_00000174604136033416871780000005468497292669206437_">
			<use xlink:href="#SVGID_1_"  style="overflow:visible;"/>
		</clipPath>
		<g style="clip-path:url(#SVGID_00000174604136033416871780000005468497292669206437_);">
			<g>
				<path d="M40.8,52.4c-0.8,0-1.5-0.4-1.8-1L37.2,48c-0.1-2.5-0.2-5.5-0.3-7.7v-0.1l0.4-0.2l1.1,2.3c0.5,1.1,1.1,2.2,1.7,3.2
					l2.6,4.2c0.2,0.4,0.3,1,0.1,1.4c-0.2,0.5-0.5,0.9-1,1.1C41.4,52.4,41.1,52.4,40.8,52.4z M37.5,48l1.7,3.2
					c0.4,0.7,1.4,1.1,2.2,0.7c0.4-0.2,0.7-0.5,0.8-0.9l0,0c0.1-0.4,0.1-0.8-0.1-1.1l-2.6-4.2c-0.6-1-1.2-2.1-1.7-3.2l-0.7-1.4
					C37.4,43.2,37.5,45.7,37.5,48z"/>
			</g>
			<g>
				<path d="M32.3,28.6c-3,0-5.4-2.4-5.4-5.4s2.4-5.4,5.4-5.4s5.4,2.4,5.4,5.4S35.3,28.6,32.3,28.6z M32.3,18.2c-2.8,0-5,2.2-5,5
					c0,2.7,2.2,5,5,5c2.7,0,5-2.2,5-5S35,18.2,32.3,18.2z"/>
			</g>
			<g>
				<path d="M36.3,35.3h-0.4l0.1-3.1c0-0.5-0.3-0.9-0.8-0.9c-0.6,0-1.2,0-1.4,0l-3.7-0.2v-0.4l3.7,0.2c0.2,0,0.8,0,1.4,0
					c0.7,0,1.2,0.6,1.2,1.3L36.3,35.3z"/>
			</g>
			<g>
				<path d="M25.5,75.8c-0.2,0-0.4,0-0.5,0c-0.8-0.1-1.5-0.6-1.9-1.2s-0.6-1.4-0.5-2.2l3.4-19c0-0.1,1.5-10.3,1.3-13.9
					c-0.1-2-0.3-4.2-0.4-5.4v-0.5l0.4,0.4l0.1,0.1l7.1,5.9c0.4,0.3,0.9,0.5,1.4,0.5c0.1,0,0.2,0,0.3,0c0.3,0,0.5-0.1,0.8-0.2
					l0.3-0.1v1.1c0.1,2.2,0.2,4.5,0.2,6.6c0,0.2,0,0.3,0,0.5c0,0.1,0,0.2,0,0.2c0,0.1,0,0.2,0,0.2c0,1.3,0.1,2.5,0.1,3.5v0.1
					c0,0.3,0,0.6,0,0.8v19.5c0,1.6-1.3,2.9-2.9,2.9c-1.6,0-3-1.3-3-2.9V54.8l0,0l-3.3,18.5c-0.1,0.8-0.6,1.5-1.2,1.9
					C26.7,75.6,26.1,75.8,25.5,75.8z M27.3,34.4c0.1,1.3,0.3,3.3,0.4,5c0.2,3.7-1.3,13.9-1.3,14l-3.4,19c-0.1,0.7,0,1.4,0.4,1.9
					c0.4,0.6,1,0.9,1.6,1.1c0.7,0.1,1.3,0,1.9-0.4s0.9-1,1.1-1.7l3.4-18.9l0.7,0.1v18.1c0,1.4,1.2,2.6,2.6,2.6
					c1.4,0,2.6-1.1,2.6-2.6V53.1c0-0.3,0-0.5,0-0.8v-0.1c0-1,0-2.2-0.1-3.5c0-0.1,0-0.2,0-0.2c0-0.1,0-0.2,0-0.2c0-0.2,0-0.3,0-0.5
					c-0.1-2.1-0.2-4.4-0.2-6.6v-0.6c-0.3,0.1-0.7,0.1-1,0.1l0,0c-0.6,0-1.2-0.2-1.6-0.6L27.3,34.4z"/>
			</g>
			<g>
				<path d="M36,40.7c-0.1,0-0.2,0-0.3,0h-0.1l0,0c-0.5,0-1-0.2-1.4-0.5l-7.1-5.9c-0.2-0.1-0.3-0.3-0.5-0.5v-0.1l-0.1-0.8
					c-0.1-0.7,0.2-1.4,0.6-1.9c0.3-0.3,0.6-0.5,1-0.7l0,0h0.1c0.6,0,1.2,0.1,1.6,0.5l4.5,3.7l1.2,0.6c0.2,0.1,0.4,0.1,0.5,0l1.2-0.7
					l3.8-2.9c0.5-0.4,1.1-0.5,1.7-0.4c0.6,0.1,1.1,0.4,1.5,0.9c0.4,0.5,0.5,1.1,0.4,1.7s-0.4,1.1-0.9,1.5l-6.5,4.9l0,0l-0.1,0.1l0,0
					c0,0,0,0-0.1,0l-0.1,0.1l-0.1,0.1C36.7,40.6,36.4,40.7,36,40.7L36,40.7z M27,33.5c0.1,0.1,0.2,0.3,0.4,0.4l7.1,5.9
					c0.3,0.3,0.7,0.4,1.2,0.4l0.1,0.2v-0.2c0.1,0,0.1,0,0.2,0l0,0l0,0l0,0c0.3,0,0.5-0.1,0.7-0.2l0,0c0.1,0,0.2-0.1,0.2-0.2l0,0l0,0
					l0.2-0.1c0,0,0,0,0.1-0.1l0,0l6.4-4.9c0.4-0.3,0.7-0.7,0.7-1.2c0.1-0.5-0.1-1-0.4-1.4c-0.3-0.4-0.7-0.7-1.2-0.7
					c-0.5-0.1-1,0.1-1.4,0.4l-0.7,0.5l-3.2,2.4l-1.2,0.7c-0.3,0.2-0.6,0.2-0.9,0l-1.2-0.6l-4.5-3.7c-0.4-0.3-0.9-0.5-1.4-0.4
					c-0.3,0.1-0.7,0.3-0.9,0.6c-0.4,0.4-0.6,1-0.5,1.6L27,33.5z"/>
			</g>
			<g>
				<path class="st6" d="M48.8,30.6l-9.4-1.3c-0.9-0.1-1.7-0.9-1.7-1.9v-1.3c0-1,0.7-1.8,1.7-1.9l9.3-1.2l-0.2,0.3
					c-1.8,3.5,0,6.9,0,6.9L48.8,30.6z M48.1,23.5l-8.6,1.1c-0.8,0.1-1.3,0.7-1.3,1.5v1.3c0,0.8,0.6,1.4,1.3,1.5l8.6,1.2
					C47.7,29.2,46.8,26.5,48.1,23.5z"/>
			</g>
			<g>
				<path class="st6" d="M49,30.8c-1,0-1.5-2.1-1.5-4.1s0.5-4.1,1.5-4.1s1.5,2.1,1.5,4.1C50.5,28.8,50,30.8,49,30.8z M49,23.1
					c-0.5,0-1.1,1.6-1.1,3.7s0.6,3.7,1.1,3.7s1.1-1.6,1.1-3.7S49.5,23.1,49,23.1z"/>
			</g>
			<g>
				<path class="st6" d="M44.7,33.1l-0.1-0.4c0.2-0.1,0.3-0.1,0.5-0.2c0.3-0.1,0.4-0.4,0.4-0.7V30h0.4v1.8c0,0.4-0.2,0.8-0.6,1
					C45,32.9,44.8,33,44.7,33.1z"/>
			</g>
			<g>
				<rect x="40.3" y="29.3" class="st6" width="0.4" height="3"/>
			</g>
			<g>
				<g>
					<path d="M58.3,27.1c-0.1,1.7-0.8,3.5-2.2,4.9c-0.1,0.1-0.1,0.2-0.2,0.2c-0.1,0-0.2,0-0.3,0c-0.1-0.1-0.1-0.2,0-0.3
						c0-0.1,0.1-0.2,0.2-0.3c2.6-2.6,2.8-6.9,0.4-9.7l-0.1-0.1c0-0.1,0-0.2,0-0.4c0.1,0,0.3,0,0.4,0.1c0.3,0.4,0.6,0.8,0.9,1.2
						C58,23.8,58.4,25.4,58.3,27.1z"/>
				</g>
				<g>
					<path d="M56.9,26.9c-0.1,1.5-0.7,2.8-1.8,4C55,31,54.9,31,54.9,31.1c-0.1,0-0.2,0-0.3,0c0-0.1,0-0.2,0-0.3
						c0-0.1,0.1-0.2,0.2-0.2c2-2.1,2.2-5.4,0.3-7.6c-0.1-0.1-0.4-0.3-0.2-0.5c0.3-0.2,0.4,0.1,0.5,0.3
						C56.4,23.8,56.9,25.2,56.9,26.9z"/>
				</g>
				<g>
					<path d="M55.4,26.8c-0.1,1.2-0.5,2.2-1.3,3L54,29.9c-0.1,0.1-0.3,0.3-0.4,0.1c-0.1-0.1,0-0.3,0.1-0.4c0.6-0.7,1.1-1.5,1.2-2.4
						c0.2-1.2-0.1-2.3-0.9-3.3c-0.1-0.1-0.1-0.1-0.2-0.2c0-0.1,0-0.2,0-0.3c0.1,0,0.2,0,0.3,0s0.1,0.1,0.2,0.2
						C55.1,24.5,55.5,25.6,55.4,26.8z"/>
				</g>
				<g>
					<path d="M53.9,26.7c-0.1,0.8-0.3,1.5-0.9,2.1c-0.1,0.1-0.3,0.1-0.4,0.1c0-0.1,0-0.3,0.1-0.4c1-1.1,1-2.6,0.2-3.7
						c-0.1-0.1-0.3-0.3-0.1-0.4c0.1,0,0.3,0.1,0.4,0.2C53.7,25.1,54,25.9,53.9,26.7z"/>
				</g>
			</g>
			<g>
				<path d="M47.7,27.8v-0.4c1-0.1,1-0.1,1-0.4c0-0.1,0-0.2,0-0.3c0-0.1,0-0.1,0-0.1c-0.1-0.2-0.7-0.2-1.1-0.2V26
					c0.2,0,1.1,0,1.4,0.3c0.1,0.1,0.1,0.3,0.1,0.4s0,0.2,0,0.3C49.1,27.7,48.9,27.8,47.7,27.8z"/>
			</g>
		</g>
	</g>
</g>
</svg>
