<?xml version="1.0" encoding="utf-8"?>
<!-- Generator: Adobe Illustrator 27.1.1, SVG Export Plug-In . SVG Version: 6.00 Build 0)  -->
<svg version="1.1" id="Capa_1" xmlns="http://www.w3.org/2000/svg" xmlns:xlink="http://www.w3.org/1999/xlink" x="0px" y="0px"
	 viewBox="0 0 70 70" style="enable-background:new 0 0 70 70;" xml:space="preserve">
<style type="text/css">
	.st0{fill:#FFFFFF;stroke:#F4C81D;stroke-width:2;stroke-miterlimit:10;}
</style>
<circle class="st0" cx="35" cy="35" r="33.2"/>
<path d="M29,50.8h-2.7c-0.1,0-0.2,0-0.2-0.1s-0.1-0.2-0.1-0.2l3.1-18.8c0-0.1,0.1-0.3,0.3-0.3h1.5c0.1,0,0.2,0,0.3,0.1l3.8,5.5
	c0,0,0,0,0.1,0c0,0,0.1,0,0.1,0l3.7-5.4c0.1-0.1,0.2-0.1,0.3-0.1h0.8c0.2,0,0.3,0.1,0.3,0.2L44,50.4c0,0.1,0,0.2-0.1,0.3
	s-0.2,0.1-0.2,0.1H41c-0.2,0-0.3-0.1-0.3-0.3l-1.8-15c0-0.1-0.1-0.1-0.1-0.1c0,0-0.1,0-0.1,0L35.1,41c-0.1,0.1-0.2,0.1-0.3,0.1
	c-0.1,0-0.2,0-0.3-0.1l-3.7-5.6c0-0.1-0.1,0-0.1,0c0,0-0.1,0-0.1,0.1l-1.5,15C29.3,50.7,29.1,50.8,29,50.8z M29.4,31.7
	c0,0-0.1,0-0.1,0.1l-3.1,18.8c0,0,0,0.1,0,0.1s0,0,0.1,0H29c0,0,0.1,0,0.1-0.1l1.5-15c0-0.1,0.1-0.2,0.2-0.3s0.3,0,0.3,0.1l3.7,5.6
	c0,0,0,0,0.1,0c0,0,0.1,0,0.1,0l3.6-5.6c0.1-0.1,0.2-0.2,0.3-0.1s0.2,0.1,0.2,0.3l1.8,15c0,0,0,0.1,0.1,0.1h2.7c0,0,0.1,0,0.1,0
	s0,0,0-0.1l-3.9-18.7c0,0,0-0.1-0.1-0.1H39c0,0-0.1,0-0.1,0l-3.7,5.4c-0.1,0.1-0.2,0.1-0.3,0.1c-0.1,0-0.2,0-0.3-0.1l-3.8-5.5
	c0,0,0,0-0.1,0L29.4,31.7z"/>
<path d="M42.2,31.7H27.6v-2.5h14.6V31.7z M27.9,31.5H42v-2.1H27.9V31.5z"/>
<path d="M35.3,12.3h0.2v11.2h-0.2V12.3z"/>
<path d="M41.7,29.4H28.2v-6h13.5V29.4z M28.4,29.2h13.1v-5.6H28.4V29.2z"/>
<path d="M32.3,15.2l-2.1-2.1l2.9-2.9l-3-3l2.1-2.1L35.2,8l3-2.9l2.1,2.1l-2.9,2.9l3,2.9l-2.1,2.1l-2.9-2.9L32.3,15.2z M30.5,13.1
	l1.8,1.8l3-2.9l2.9,2.9l1.8-1.8l-3-2.9L40,7.2l-1.8-1.8l-3,2.9l-2.9-2.9l-1.8,1.8l3,3L30.5,13.1z"/>
<path d="M34.9,64.2c-7.4,0-13.4-6-13.4-13.4v-0.1h26.8v0.1C48.3,58.2,42.3,64.2,34.9,64.2z M21.7,50.9c0.1,7.2,6,13.1,13.2,13.1
	c7.2,0,13.2-5.9,13.2-13.1L21.7,50.9z"/>
<path d="M44.9,49.4l-20.2-0.2l1.7-9.9h16.3L44.9,49.4z M25,49l19.7,0.2l-2.1-9.8h-16L25,49z"/>
<path d="M26.5,40.5h16.4v0L26.5,40.5L26.5,40.5z"/>
<path d="M26.3,42.4h17.1v0L26.3,42.4L26.3,42.4z"/>
<path d="M25.7,44.3h17.9v0L25.7,44.3L25.7,44.3z"/>
<path d="M25.4,46.1h18.7v0L25.4,46.1L25.4,46.1z"/>
<path d="M25,48h19.3v0L25,48L25,48z"/>
<path d="M27.7,49l0.9-9.6l0,0L27.7,49L27.7,49z"/>
<path d="M31.4,39.4L31.4,39.4l0.1,9.8l0,0L31.4,39.4z"/>
<path d="M34.9,49.1l-0.2-9.8h0L34.9,49.1L34.9,49.1z"/>
<path d="M38.4,39.3L38.4,39.3l0.1,9.8l0,0L38.4,39.3z"/>
<path d="M42,49.2l-0.3-9.9h0L42,49.2L42,49.2z"/>
</svg>
