<?xml version="1.0" encoding="utf-8"?>
<!-- Generator: Adobe Illustrator 26.4.1, SVG Export Plug-In . SVG Version: 6.00 Build 0)  -->
<svg version="1.1" xmlns="http://www.w3.org/2000/svg" xmlns:xlink="http://www.w3.org/1999/xlink" x="0px" y="0px"
	 viewBox="0 0 70 70" style="enable-background:new 0 0 70 70;" xml:space="preserve">
<style type="text/css">
	.st0{fill:#F4C81D;}
	.st1{display:none;fill:none;stroke:#1D1D1B;stroke-width:0.5;stroke-miterlimit:10;}
	.st2{display:none;}
	.st3{display:inline;fill:#1D1D1B;}
	.st4{display:inline;fill:none;stroke:#1D1D1B;stroke-width:0.25;stroke-miterlimit:10;}
	.st5{clip-path:url(#SVGID_00000030462929250956172910000000007347029311151236_);}
	.st6{fill:#070707;}
</style>
<g id="Capa_1">
	<circle class="st0" cx="35" cy="35" r="33.2"/>
	<path class="st1" d="M46.8,26.9c-0.3,3.1-6.3,5.4-10.6,9.8c-4.6,4-7.4,9.8-10.4,10c-1.5,0-3-2.2-3-5.8c0-3.5,1.6-8.6,5.7-12.3
		c4-3.9,9.1-5.2,12.6-5C44.8,23.7,46.9,25.4,46.8,26.9z"/>
	<g class="st2">
		<path class="st3" d="M32.6,25.1c0,0-0.1,0.1-0.2,0c-0.1,0-0.2-0.1-0.1-0.3c0.4-1.3-0.3-2.1-1-2.9c-0.7-0.7-1.4-1.5-0.7-2.6
			c0.1-0.1,0.2-0.1,0.3-0.1s0.1,0.2,0.1,0.3c-0.5,0.8-0.1,1.3,0.7,2.1C32.3,22.5,33.1,23.4,32.6,25.1C32.6,25,32.6,25.1,32.6,25.1z"
			/>
		<path class="st3" d="M35.3,24.2c-0.1,0.1-0.2,0.1-0.3,0C35,24.2,35,24,35,23.9c0.4-0.7,0-2-0.4-3.2c-0.4-1.1-0.7-2.1-0.3-2.6
			c0.1-0.1,0.2-0.1,0.3-0.1c0.1,0.1,0.1,0.2,0.1,0.3c-0.2,0.4,0.1,1.3,0.4,2.3C35.5,21.9,35.9,23.3,35.3,24.2
			C35.4,24.2,35.4,24.2,35.3,24.2z"/>
		<path class="st3" d="M38.2,23.4C38.1,23.4,38.1,23.4,38.2,23.4c-0.1,0.1-0.3,0.1-0.3,0c-0.6-0.9-0.5-2-0.3-3.1
			c0.2-1.1,0.3-2.1-0.4-2.7c-0.1-0.1-0.1-0.2,0-0.3s0.2-0.1,0.3,0c0.8,0.8,0.7,1.9,0.5,3c-0.1,1-0.3,2,0.2,2.8
			C38.2,23.2,38.2,23.3,38.2,23.4z"/>
		<path class="st3" d="M41,23.2c0,0-0.1,0.1-0.2,0c-0.1,0-0.2-0.1-0.1-0.3c0.5-1.5,0-2.7-0.4-3.7c-0.3-0.8-0.6-1.6-0.2-2.2
			c0.1-0.1,0.2-0.1,0.3-0.1s0.1,0.2,0.1,0.3c-0.2,0.4,0,1,0.3,1.8c0.4,1.1,0.9,2.4,0.4,4C41,23.2,41,23.2,41,23.2z"/>
		<path class="st3" d="M43.8,23.6c-0.1,0.1-0.2,0.1-0.3,0c-0.1-0.1-0.1-0.2-0.1-0.3c0.8-1.1,0.5-2.5,0.3-3.7c-0.2-1-0.3-1.9,0.2-2.5
			c0.1-0.1,0.2-0.1,0.3,0c0.1,0.1,0.1,0.2,0,0.3c-0.4,0.5-0.2,1.3-0.1,2.2C44.4,20.9,44.7,22.3,43.8,23.6
			C43.8,23.6,43.8,23.6,43.8,23.6z"/>
		<path class="st3" d="M45.7,24.1c-0.1,0.1-0.2,0.1-0.3,0c-0.1-0.1-0.1-0.2,0-0.3c0,0,2.5-2.4,2.6-5.1c0-0.1,0.1-0.2,0.2-0.2
			c0.1,0,0.2,0.1,0.2,0.2C48.3,21.6,45.8,24,45.7,24.1z"/>
		<path class="st3" d="M51.6,22.1c0,0-0.1,0-0.1,0.1c-1.1,0.1-1.4,0.7-1.9,1.4c-0.5,0.8-1.1,1.7-2.8,2.2c-0.1,0-0.2,0-0.3-0.1
			s0-0.2,0.1-0.3c1.5-0.4,2-1.2,2.5-2c0.5-0.7,0.9-1.4,2.2-1.6c0.1,0,0.2,0.1,0.2,0.2C51.6,21.9,51.6,22,51.6,22.1z"/>
		<path class="st3" d="M53.3,26.5c0,0-0.1,0.1-0.2,0c-2.3-0.6-5.6,1-5.6,1.1c-0.1,0-0.2,0-0.3-0.1c0-0.1,0-0.2,0.1-0.3
			c0.1-0.1,3.4-1.8,5.9-1.1c0.1,0,0.2,0.1,0.2,0.3C53.4,26.4,53.4,26.5,53.3,26.5z"/>
		<path class="st3" d="M51.9,30.7C51.9,30.7,51.9,30.8,51.9,30.7c-1.7,0.5-2.6,0-3.5-0.4c-0.6-0.3-1.3-0.7-2.3-0.8
			c-0.1,0-0.2-0.1-0.2-0.2s0.1-0.2,0.2-0.2c1.1,0.1,1.8,0.5,2.5,0.8c0.9,0.5,1.6,0.8,3.1,0.4c0.1,0,0.2,0,0.3,0.1
			C52,30.6,52,30.7,51.9,30.7z"/>
		<path class="st3" d="M49.4,33.4c0,0-0.1,0.1-0.1,0.1c-0.1,0-0.2-0.1-0.2-0.2c0-0.4-0.3-0.4-1.2-0.4c-1.1,0-2.7,0-4.2-1.5
			c-0.1-0.1-0.1-0.2,0-0.3s0.2-0.1,0.3,0c1.3,1.3,2.8,1.3,3.9,1.3c0.9,0,1.6,0,1.7,0.8C49.4,33.3,49.4,33.4,49.4,33.4z"/>
		<path class="st3" d="M46.7,35.6c0,0-0.1,0-0.1,0.1c-0.1,0-0.2-0.1-0.2-0.2c-0.1-0.5-0.8-0.7-2-0.8c-1.1-0.1-2.4-0.3-3.4-1.1
			c-0.1-0.1-0.1-0.2,0-0.3c0.1-0.1,0.2-0.1,0.3,0c0.9,0.7,2.1,0.9,3.2,1c1.2,0.2,2.2,0.3,2.4,1.2C46.8,35.5,46.8,35.5,46.7,35.6z"/>
		<path class="st3" d="M44,37.6c0,0-0.1,0-0.1,0c-0.1,0-0.2-0.1-0.2-0.2C43.6,37,43.3,37,42.5,37c-1,0-2.5-0.1-4.2-1.4
			c-0.1-0.1-0.1-0.2,0-0.3c0.1-0.1,0.2-0.1,0.3,0c1.6,1.2,3,1.3,4,1.3c0.8,0,1.5,0,1.6,0.9C44.1,37.5,44.1,37.6,44,37.6z"/>
		<path class="st3" d="M42,40.1C41.9,40.1,41.9,40.2,42,40.1c-0.2,0.1-0.3,0-0.3-0.1c-0.3-1.5-3.9-1.8-5.3-1.9
			c-0.1,0-0.2-0.1-0.2-0.2s0.1-0.2,0.2-0.2c0.2,0,5.3,0.1,5.7,2.2C42,40,42,40.1,42,40.1z"/>
		<path class="st3" d="M40.4,41.8C40.4,41.9,40.3,41.9,40.4,41.8c-1.5,0.3-5.6-1.7-6.1-2c-0.1,0-0.2-0.2-0.1-0.3
			c0-0.1,0.2-0.2,0.3-0.1c1.2,0.6,4.7,2.2,5.7,2c0.1,0,0.2,0,0.2,0.2C40.5,41.7,40.5,41.8,40.4,41.8z"/>
		<path class="st3" d="M38.7,43.8c0,0-0.1,0-0.1,0.1c-1.4,0.2-2.2-0.3-3.1-0.8c-0.8-0.5-1.6-1-3-1.1c-0.1,0-0.2-0.1-0.2-0.2
			s0.1-0.2,0.2-0.2c1.5,0.1,2.4,0.7,3.2,1.1c0.8,0.5,1.5,1,2.8,0.8c0.1,0,0.2,0.1,0.2,0.2C38.8,43.7,38.7,43.8,38.7,43.8z"/>
		<path class="st3" d="M36.2,46.2C36.2,46.2,36.2,46.2,36.2,46.2c-0.1,0.1-0.2,0.1-0.3,0c-1.2-1.7-5.3-2-5.4-2
			c-0.1,0-0.2-0.1-0.2-0.2s0.1-0.2,0.2-0.2c0.2,0,4.4,0.3,5.7,2.1C36.3,46.1,36.3,46.2,36.2,46.2z"/>
		<path class="st3" d="M34,48.4C34,48.4,33.9,48.5,34,48.4c-0.2,0.1-0.3,0-0.3-0.1c-0.2-0.9-1.2-1-2.4-1.2s-2.3-0.3-2.8-1.3
			c0-0.1,0-0.2,0.1-0.3s0.2,0,0.3,0.1c0.4,0.8,1.4,0.9,2.5,1.1c1.2,0.2,2.4,0.3,2.7,1.5C34.1,48.3,34,48.4,34,48.4z"/>
		<path class="st3" d="M29.6,52.6c-0.1,0.1-0.2,0.1-0.3,0c-0.1-0.1-0.1-0.2,0-0.3c1.6-1.9-2.1-5.1-2.1-5.2c-0.1-0.1-0.1-0.2,0-0.3
			s0.2-0.1,0.3,0C27.6,46.9,31.4,50.3,29.6,52.6C29.6,52.6,29.6,52.6,29.6,52.6z"/>
		<path class="st3" d="M24,52.9c-0.1,0-0.1,0.1-0.2,0c-0.2-0.1-0.3-0.2-0.4-0.4c-0.2-0.5,0.3-1.4,0.9-2.5c0.5-1,1.1-2,1.1-2.8
			c0-0.1,0.1-0.2,0.2-0.2c0.1,0,0.2,0.1,0.2,0.2c0,0.8-0.6,1.9-1.2,3c-0.5,0.8-1,1.8-0.9,2.1c0,0,0,0.1,0.1,0.1
			C24,52.6,24.1,52.7,24,52.9C24,52.9,24,52.9,24,52.9z"/>
		<path class="st3" d="M22.9,48.3c-0.5,0.4-0.9,0.7-1.3,1c-0.6,0.4-1.1,0.7-1.3,1.3c0,0.1-0.2,0.2-0.3,0.1s-0.2-0.2-0.1-0.3
			c0.2-0.7,0.8-1.1,1.5-1.5c0.8-0.5,1.8-1.2,2.6-2.8c0-0.1,0.2-0.2,0.3-0.1c0.1,0,0.1,0.2,0.1,0.3C23.8,47.2,23.3,47.8,22.9,48.3z"
			/>
		<path class="st3" d="M20,46.7c-0.4,0.4-1.1,0.8-2.1,1c-0.1,0-0.2,0-0.3-0.2c0-0.1,0-0.2,0.2-0.3c1.7-0.4,2.2-1.2,2.7-1.9
			c0.4-0.6,0.8-1.3,1.8-1.8c0.1,0,0.2,0,0.3,0.1c0,0.1,0,0.2-0.1,0.3c-0.9,0.5-1.3,1-1.7,1.6C20.6,46,20.4,46.3,20,46.7z"/>
		<path class="st3" d="M21.3,42.5c-0.7,0.7-1.5,0.9-2.2,1.1c-0.6,0.2-1.2,0.3-1.7,0.8l0,0c-0.1,0.1-0.2,0.1-0.3,0
			c-0.1-0.1-0.1-0.2,0-0.3c0.6-0.5,1.2-0.7,1.9-0.9c1-0.3,2.1-0.6,3-2.4c0-0.1,0.2-0.1,0.3-0.1c0.1,0,0.1,0.2,0.1,0.3
			C22,41.6,21.6,42.1,21.3,42.5z"/>
		<path class="st3" d="M22.7,38.4c0,0-0.1,0-0.1,0c-1.5,0.3-2.5,1-3.2,1.6c-0.8,0.6-1.4,1-2.1,0.6c-0.1-0.1-0.1-0.2-0.1-0.3
			s0.2-0.1,0.3-0.1c0.5,0.3,0.9,0,1.6-0.6c0.8-0.6,1.8-1.3,3.4-1.7c0.1,0,0.2,0,0.2,0.2C22.8,38.2,22.8,38.3,22.7,38.4z"/>
		<path class="st3" d="M23,36.2L23,36.2c-1,0.8-1.9,0.5-2.8,0.1c-0.8-0.3-1.7-0.6-2.8-0.3c-0.1,0-0.2,0-0.2-0.2c0-0.1,0-0.2,0.2-0.2
			c1.3-0.3,2.2,0.1,3.1,0.4c0.9,0.3,1.5,0.6,2.4-0.1c0.1-0.1,0.2-0.1,0.3,0C23.1,36,23.1,36.1,23,36.2z"/>
		<path class="st3" d="M24.6,33.3c-0.1,0.1-0.2,0.1-0.3,0c-0.8-0.8-2.4-0.5-3.6-0.2c-1.1,0.2-1.9,0.4-2.2-0.1
			c-0.1-0.1,0-0.2,0.1-0.3s0.2,0,0.3,0.1c0.2,0.3,1,0.1,1.8,0c1.3-0.3,3-0.6,4,0.3C24.7,33,24.7,33.2,24.6,33.3
			C24.6,33.3,24.6,33.3,24.6,33.3z"/>
		<path class="st3" d="M26.3,30.2c0,0-0.1,0.1-0.2,0c-1.3-0.4-4.9-1.1-5.6,0c-0.1,0.1-0.2,0.1-0.3,0s-0.1-0.2,0-0.3
			c1-1.5,5.6-0.3,6.1-0.2c0.1,0,0.2,0.1,0.1,0.3C26.4,30.2,26.3,30.2,26.3,30.2z"/>
		<path class="st3" d="M28.2,28.4C28.1,28.4,28.1,28.4,28.2,28.4c-0.1,0.1-0.2,0.1-0.3,0c-0.8-1.2-2-1.4-3-1.7
			c-0.9-0.2-1.8-0.4-2.1-1.3c0-0.1,0-0.2,0.1-0.3c0.1,0,0.2,0,0.3,0.1c0.2,0.6,0.8,0.8,1.8,1c1,0.2,2.4,0.5,3.3,1.8
			C28.2,28.2,28.2,28.3,28.2,28.4z"/>
		<path class="st3" d="M30.4,26.6C30.4,26.6,30.4,26.6,30.4,26.6c-0.1,0.1-0.3,0.1-0.3,0c-0.5-0.8-1.1-1.3-1.6-1.7
			c-0.9-0.7-1.6-1.3-1.4-2.8c0-0.1,0.1-0.2,0.2-0.2s0.2,0.1,0.2,0.2c-0.1,1.3,0.5,1.8,1.3,2.4c0.6,0.5,1.2,1,1.7,1.9
			C30.5,26.4,30.5,26.5,30.4,26.6z"/>
	</g>
	<g class="st2">
		<path class="st4" d="M37.6,27c0.7,0.8,0.7,2-0.1,2.7c-0.8,0.7-2,0.7-2.7-0.1c-0.7-0.8-0.7-2,0.1-2.7C35.7,26.2,36.9,26.2,37.6,27z
			"/>
		<path class="st4" d="M32.2,32.1c0.3,0.4,0.3,0.9,0,1.3c-0.4,0.3-0.9,0.3-1.3,0c-0.3-0.4-0.3-0.9,0-1.3
			C31.3,31.7,31.9,31.7,32.2,32.1z"/>
		<path class="st4" d="M32.6,37c0.3,0.3,0.3,0.8,0,1s-0.8,0.3-1,0s-0.3-0.8,0-1C31.8,36.7,32.3,36.7,32.6,37z"/>
		<path class="st4" d="M28.1,38.9c0.2,0.2,0.2,0.5,0,0.6s-0.5,0.2-0.6,0s-0.2-0.5,0-0.6S27.9,38.7,28.1,38.9z"/>
		<path class="st4" d="M26.7,35.4c0.1,0.1,0.1,0.3,0,0.4s-0.3,0.1-0.4,0s-0.1-0.3,0-0.4C26.4,35.3,26.6,35.3,26.7,35.4z"/>
		<path class="st4" d="M25.9,37.1c0.3,0.3,0.2,0.7,0,1s-0.7,0.2-1,0s-0.2-0.7,0-1C25.2,36.8,25.7,36.8,25.9,37.1z"/>
		<path class="st4" d="M26.8,43.4c0.3,0.3,0.2,0.7,0,1c-0.3,0.3-0.7,0.2-1,0s-0.2-0.7,0-1S26.5,43.1,26.8,43.4z"/>
		<path class="st4" d="M39.5,31.4c0.3,0.3,0.2,0.7,0,1s-0.7,0.2-1,0s-0.2-0.7,0-1S39.3,31.1,39.5,31.4z"/>
		<path class="st4" d="M44.1,27.6c0.2,0.2,0.2,0.6,0,0.8c-0.2,0.2-0.6,0.2-0.8,0c-0.2-0.2-0.2-0.6,0-0.8
			C43.5,27.3,43.9,27.3,44.1,27.6z"/>
		<path class="st4" d="M32,27.6c0.1,0.1,0.1,0.4,0,0.5c-0.1,0.1-0.4,0.1-0.5,0c-0.1-0.1-0.1-0.4,0-0.5C31.6,27.4,31.8,27.4,32,27.6z
			"/>
		<path class="st4" d="M27.9,31.5c0.2,0.2,0.2,0.5,0,0.6c-0.2,0.2-0.5,0.2-0.6,0c-0.2-0.2-0.2-0.5,0-0.6S27.7,31.4,27.9,31.5z"/>
	</g>
</g>
<g id="Capa_2">
	<g>
		<defs>
			<rect id="SVGID_1_" x="0.5" y="9.2" width="62.9" height="44.1"/>
		</defs>
		<clipPath id="SVGID_00000028324364463487580190000005770092764254297225_">
			<use xlink:href="#SVGID_1_"  style="overflow:visible;"/>
		</clipPath>
		<g style="clip-path:url(#SVGID_00000028324364463487580190000005770092764254297225_);">
			<g>
				<path d="M40.8,52.4c-0.8,0-1.5-0.4-1.8-1L37.2,48c-0.1-2.5-0.2-5.5-0.3-7.7l0-0.1l0.4-0.2l1.1,2.3c0.5,1.1,1.1,2.2,1.7,3.2
					l2.6,4.2c0.2,0.4,0.3,1,0.1,1.4c-0.2,0.5-0.5,0.9-1,1.1C41.4,52.4,41.1,52.4,40.8,52.4z M37.5,48l1.7,3.2
					c0.4,0.7,1.4,1.1,2.2,0.7c0.4-0.2,0.7-0.5,0.8-0.9l0,0c0.1-0.4,0.1-0.8-0.1-1.1l-2.6-4.2c-0.6-1-1.2-2.1-1.7-3.2l-0.7-1.4
					C37.4,43.2,37.5,45.7,37.5,48z"/>
			</g>
			<g>
				<path d="M32.3,28.6c-3,0-5.4-2.4-5.4-5.4c0-3,2.4-5.4,5.4-5.4c3,0,5.4,2.4,5.4,5.4C37.7,26.2,35.3,28.6,32.3,28.6z M32.3,18.2
					c-2.8,0-5,2.2-5,5c0,2.7,2.2,5,5,5c2.7,0,5-2.2,5-5C37.3,20.4,35,18.2,32.3,18.2z"/>
			</g>
			<g>
				<path d="M36.3,35.3l-0.4,0l0.1-3.1c0-0.5-0.3-0.9-0.8-0.9c-0.6,0-1.2,0-1.4,0l-3.7-0.2l0-0.4l3.7,0.2c0.2,0,0.8,0,1.4,0
					c0.7,0,1.2,0.6,1.2,1.3L36.3,35.3z"/>
			</g>
			<g>
				<path d="M25.5,75.8c-0.2,0-0.4,0-0.5,0c-0.8-0.1-1.5-0.6-1.9-1.2c-0.4-0.6-0.6-1.4-0.5-2.2l3.4-19c0-0.1,1.5-10.3,1.3-13.9
					c-0.1-2-0.3-4.2-0.4-5.4l0-0.5l0.4,0.4c0,0,0.1,0.1,0.1,0.1l7.1,5.9c0.4,0.3,0.9,0.5,1.4,0.5c0.1,0,0.2,0,0.3,0
					c0.3,0,0.5-0.1,0.8-0.2l0.3-0.1l0,1.1c0.1,2.2,0.2,4.5,0.2,6.6c0,0.2,0,0.3,0,0.5c0,0.1,0,0.2,0,0.2c0,0.1,0,0.2,0,0.2
					c0,1.3,0.1,2.5,0.1,3.5v0.1c0,0.3,0,0.6,0,0.8l0,19.5c0,1.6-1.3,2.9-2.9,2.9c-1.6,0-3-1.3-3-2.9V54.8l0,0l-3.3,18.5
					c-0.1,0.8-0.6,1.5-1.2,1.9C26.7,75.6,26.1,75.8,25.5,75.8z M27.3,34.4c0.1,1.3,0.3,3.3,0.4,5c0.2,3.7-1.3,13.9-1.3,14l-3.4,19
					c-0.1,0.7,0,1.4,0.4,1.9c0.4,0.6,1,0.9,1.6,1.1c0.7,0.1,1.3,0,1.9-0.4c0.6-0.4,0.9-1,1.1-1.7l3.4-18.9l0.7,0.1v18.1
					c0,1.4,1.2,2.6,2.6,2.6c1.4,0,2.6-1.1,2.6-2.6l0-19.5c0-0.3,0-0.5,0-0.8v-0.1c0-1,0-2.2-0.1-3.5c0-0.1,0-0.2,0-0.2
					c0-0.1,0-0.2,0-0.2c0-0.2,0-0.3,0-0.5c-0.1-2.1-0.2-4.4-0.2-6.6l0-0.6c-0.3,0.1-0.7,0.1-1,0.1c0,0,0,0,0,0
					c-0.6,0-1.2-0.2-1.6-0.6L27.3,34.4z"/>
			</g>
			<g>
				<path d="M36,40.7c-0.1,0-0.2,0-0.3,0l-0.1,0c0,0,0,0,0,0c-0.5,0-1-0.2-1.4-0.5l-7.1-5.9c-0.2-0.1-0.3-0.3-0.5-0.5l0-0.1
					l-0.1-0.8c-0.1-0.7,0.2-1.4,0.6-1.9c0.3-0.3,0.6-0.5,1-0.7l0,0l0.1,0c0.6,0,1.2,0.1,1.6,0.5l4.5,3.7l1.2,0.6
					c0.2,0.1,0.4,0.1,0.5,0l1.2-0.7l3.8-2.9c0.5-0.4,1.1-0.5,1.7-0.4c0.6,0.1,1.1,0.4,1.5,0.9c0.4,0.5,0.5,1.1,0.4,1.7
					c-0.1,0.6-0.4,1.1-0.9,1.5l-6.5,4.9c0,0,0,0,0,0c0,0-0.1,0.1-0.1,0.1l0,0c0,0,0,0-0.1,0c0,0-0.1,0.1-0.1,0.1
					c0,0-0.1,0.1-0.1,0.1C36.7,40.6,36.4,40.7,36,40.7C36,40.7,36,40.7,36,40.7z M27,33.5c0.1,0.1,0.2,0.3,0.4,0.4l7.1,5.9
					c0.3,0.3,0.7,0.4,1.2,0.4l0.1,0.2l0-0.2c0.1,0,0.1,0,0.2,0c0,0,0,0,0,0v0c0,0,0,0,0,0c0.3,0,0.5-0.1,0.7-0.2c0,0,0,0,0,0
					c0.1,0,0.2-0.1,0.2-0.2l0,0c0,0,0,0,0,0l0.2-0.1c0,0,0,0,0.1-0.1l0,0l6.4-4.9c0.4-0.3,0.7-0.7,0.7-1.2c0.1-0.5-0.1-1-0.4-1.4
					c-0.3-0.4-0.7-0.7-1.2-0.7c-0.5-0.1-1,0.1-1.4,0.4l-0.7,0.5l-3.2,2.4l-1.2,0.7c-0.3,0.2-0.6,0.2-0.9,0l-1.2-0.6l-4.5-3.7
					c-0.4-0.3-0.9-0.5-1.4-0.4c-0.3,0.1-0.7,0.3-0.9,0.6c-0.4,0.4-0.6,1-0.5,1.6L27,33.5z"/>
			</g>
			<g>
				<path class="st6" d="M48.8,30.6l-9.4-1.3c-0.9-0.1-1.7-0.9-1.7-1.9v-1.3c0-1,0.7-1.8,1.7-1.9l9.3-1.2l-0.2,0.3
					c-1.8,3.5,0,6.9,0,6.9L48.8,30.6z M48.1,23.5l-8.6,1.1c-0.8,0.1-1.3,0.7-1.3,1.5v1.3c0,0.8,0.6,1.4,1.3,1.5l8.6,1.2
					C47.7,29.2,46.8,26.5,48.1,23.5z"/>
			</g>
			<g>
				<path class="st6" d="M49,30.8c-1,0-1.5-2.1-1.5-4.1c0-2,0.5-4.1,1.5-4.1s1.5,2.1,1.5,4.1C50.5,28.8,50,30.8,49,30.8z M49,23.1
					c-0.5,0-1.1,1.6-1.1,3.7c0,2.1,0.6,3.7,1.1,3.7s1.1-1.6,1.1-3.7C50.1,24.7,49.5,23.1,49,23.1z"/>
			</g>
			<g>
				<path class="st6" d="M44.7,33.1l-0.1-0.4c0.2-0.1,0.3-0.1,0.5-0.2c0.3-0.1,0.4-0.4,0.4-0.7V30h0.4v1.8c0,0.4-0.2,0.8-0.6,1
					C45,32.9,44.8,33,44.7,33.1z"/>
			</g>
			<g>
				<rect x="40.3" y="29.3" class="st6" width="0.4" height="3"/>
			</g>
			<g>
				<g>
					<path d="M58.3,27.1c-0.1,1.7-0.8,3.5-2.2,4.9c-0.1,0.1-0.1,0.2-0.2,0.2c-0.1,0-0.2,0-0.3,0c-0.1-0.1-0.1-0.2,0-0.3
						c0-0.1,0.1-0.2,0.2-0.3c2.6-2.6,2.8-6.9,0.4-9.7c0,0-0.1-0.1-0.1-0.1c0-0.1,0-0.2,0-0.4c0.1,0,0.3,0,0.4,0.1
						c0.3,0.4,0.6,0.8,0.9,1.2C58,23.8,58.4,25.4,58.3,27.1z"/>
				</g>
				<g>
					<path d="M56.9,26.9c-0.1,1.5-0.7,2.8-1.8,4C55,31,54.9,31,54.9,31.1c-0.1,0-0.2,0-0.3,0c0-0.1,0-0.2,0-0.3
						c0-0.1,0.1-0.2,0.2-0.2c2-2.1,2.2-5.4,0.3-7.6c-0.1-0.1-0.4-0.3-0.2-0.5c0.3-0.2,0.4,0.1,0.5,0.3
						C56.4,23.8,56.9,25.2,56.9,26.9z"/>
				</g>
				<g>
					<path d="M55.4,26.8c-0.1,1.2-0.5,2.2-1.3,3c0,0-0.1,0.1-0.1,0.1c-0.1,0.1-0.3,0.3-0.4,0.1c-0.1-0.1,0-0.3,0.1-0.4
						c0.6-0.7,1.1-1.5,1.2-2.4c0.2-1.2-0.1-2.3-0.9-3.3c-0.1-0.1-0.1-0.1-0.2-0.2c0-0.1,0-0.2,0-0.3c0.1,0,0.2,0,0.3,0
						c0.1,0,0.1,0.1,0.2,0.2C55.1,24.5,55.5,25.6,55.4,26.8z"/>
				</g>
				<g>
					<path d="M53.9,26.7c-0.1,0.8-0.3,1.5-0.9,2.1c-0.1,0.1-0.3,0.1-0.4,0.1c0-0.1,0-0.3,0.1-0.4c1-1.1,1-2.6,0.2-3.7
						c-0.1-0.1-0.3-0.3-0.1-0.4c0.1,0,0.3,0.1,0.4,0.2C53.7,25.1,54,25.9,53.9,26.7z"/>
				</g>
			</g>
			<g>
				<path d="M47.7,27.8l0-0.4c1-0.1,1-0.1,1-0.4c0-0.1,0-0.2,0-0.3c0-0.1,0-0.1,0-0.1c-0.1-0.2-0.7-0.2-1.1-0.2l0-0.4
					c0.2,0,1.1,0,1.4,0.3c0.1,0.1,0.1,0.3,0.1,0.4c0,0.1,0,0.2,0,0.3C49.1,27.7,48.9,27.8,47.7,27.8z"/>
			</g>
		</g>
	</g>
</g>
</svg>
