<svg enable-background="new 0 0 281 389.19" viewBox="0 0 281 389.19" xmlns="http://www.w3.org/2000/svg"><path d="m276.91 378.59-206.49-282.4" fill="none" stroke="#face1d" stroke-miterlimit="10" stroke-width="2"/><path d="m70.26 96.12 147.8 288.07" fill="none" stroke="#face1d" stroke-miterlimit="10" stroke-width="2"/><circle cx="51.76" cy="53.02" fill="none" r="47.46" stroke="#face1d" stroke-miterlimit="10" stroke-width="2"/><path d="m38.48 84.97-.25-.1c-1.38-.54-2.43-1.77-2.9-3.47-.71-2.55.01-5.54 1.92-8 7.53-9.73 19.36-15.12 31.64-14.43 1.1.06 2.17.28 3.16.65 3.75 1.4 5.88 4.76 4.85 7.65l-.03.1c-1.26 3.59-5.4 5.07-8.7 4.93-7.91-.44-15.52 3.03-20.36 9.28-2.04 2.56-5.82 4.71-9.33 3.39z" fill="#43cabf"/><path d="m68.22 71.07c-8.28-.46-16.31 3.2-21.38 9.75-1.96 2.47-5.24 4.07-8.02 2.97-.03-.02-.07-.03-.1-.04-2.77-1.08-3.46-5.78-.5-9.6 7.27-9.39 18.76-14.63 30.61-13.96 4.83.27 7.93 3.88 6.93 6.67-.01.03-.02.07-.03.1-1.01 2.83-4.37 4.25-7.51 4.11z" fill="#026bb2"/><g fill="#43cabf"><path d="m62.1 59.47-.14-3.02c1.02-.24 1.75-1.01 1.7-1.89-.06-1-1.13-1.75-2.39-1.67s-2.23.96-2.16 1.96c.06.91.96 1.61 2.07 1.66l.14 2.99c.01.22.19.38.41.37h.01c.2 0 .37-.18.36-.4z"/><path d="m55.78 60.68-.53-2.98c.98-.37 1.6-1.23 1.43-2.09-.19-.99-1.35-1.59-2.59-1.34-1.24.24-2.08 1.24-1.89 2.22.18.9 1.16 1.47 2.27 1.38l.53 2.95c.04.21.24.35.45.32h.01c.22-.04.36-.25.32-.46z"/><path d="m49.92 63.24-1.21-2.77c.87-.59 1.27-1.57.91-2.37-.42-.91-1.68-1.23-2.83-.71s-1.74 1.69-1.32 2.6c.38.83 1.47 1.16 2.53.82l1.2 2.75c.09.2.32.29.52.2h.01c.19-.09.28-.32.19-.52z"/><path d="m44.5 66.78-1.5-2.63c.8-.68 1.1-1.7.65-2.45-.51-.86-1.81-1.04-2.89-.4-1.09.64-1.55 1.86-1.04 2.73.47.79 1.58 1 2.6.54l1.48 2.6c.11.19.35.25.54.15h.01c.19-.11.26-.35.15-.54z"/><path d="m39.95 70.75-2.28-1.99c.53-.9.48-1.97-.19-2.53-.77-.65-2.05-.39-2.86.57s-.85 2.27-.08 2.92c.7.59 1.82.42 2.63-.34l2.26 1.97c.16.14.41.13.55-.04v-.01c.15-.16.14-.4-.03-.55z"/><path d="m36.31 75.57-2.83-1.06c.18-1.03-.24-2.01-1.07-2.3-.95-.34-2.06.35-2.48 1.54s0 2.42.95 2.76c.86.31 1.86-.25 2.35-1.25l2.81 1.05c.2.08.43-.03.5-.23v-.01c.08-.2-.02-.42-.23-.5z"/><path d="m35.49 80-2.74 1.28c-.61-.85-1.61-1.23-2.39-.84-.9.44-1.18 1.72-.63 2.85s1.73 1.69 2.64 1.25c.82-.4 1.12-1.5.75-2.55l2.71-1.27c.2-.09.28-.33.19-.52v-.01c-.1-.2-.33-.28-.53-.19z"/><path d="m38.11 84.41-1.31 2.73c-1.01-.27-2.02.06-2.39.86-.42.91.17 2.08 1.32 2.61 1.14.53 2.41.21 2.83-.7.38-.83-.08-1.87-1.03-2.45l1.3-2.7c.09-.19.01-.43-.18-.52h-.01c-.2-.11-.43-.03-.53.17z"/><path d="m42.74 84.62 1.01 2.85c-.91.52-1.38 1.48-1.08 2.3.35.94 1.59 1.35 2.77.91s1.86-1.56 1.51-2.5c-.32-.86-1.38-1.26-2.46-1l-1-2.83c-.07-.2-.3-.31-.5-.24h-.01c-.21.08-.31.31-.24.51z"/><path d="m47.36 81.5 2.01 2.26c-.64.83-.72 1.89-.12 2.53.68.74 1.98.64 2.91-.21s1.12-2.15.44-2.88c-.62-.67-1.76-.65-2.66.01l-2-2.23c-.14-.16-.39-.18-.55-.03l-.01.01c-.15.13-.16.38-.02.54z"/><path d="m52.46 76.55 2.01 2.25c-.64.83-.72 1.89-.12 2.53.68.74 1.98.64 2.91-.21.93-.86 1.12-2.15.44-2.88-.62-.67-1.76-.65-2.66.01l-2-2.23c-.14-.16-.39-.18-.55-.03l-.01.01c-.15.14-.17.38-.02.55z"/><path d="m60.49 72.61.52 2.98c-.98.36-1.61 1.23-1.44 2.09.19.99 1.35 1.59 2.58 1.36 1.24-.24 2.09-1.23 1.9-2.22-.17-.9-1.15-1.48-2.26-1.39l-.52-2.95c-.04-.21-.24-.36-.45-.32h-.01c-.21.03-.36.23-.32.45z"/><path d="m67.67 71.96.26 3.01c-1.01.28-1.71 1.09-1.62 1.96.1 1 1.21 1.7 2.46 1.57s2.19-1.05 2.08-2.05c-.1-.91-1.02-1.57-2.14-1.58l-.26-2.98c-.02-.22-.21-.38-.42-.36h-.01c-.21.02-.37.21-.35.43z"/><path d="m73.83 70.58 2.13 2.14c-.6.86-.62 1.93.01 2.54.72.7 2.02.54 2.9-.37.88-.9 1.01-2.2.29-2.9-.66-.64-1.79-.55-2.65.16l-2.11-2.12c-.15-.15-.4-.15-.55 0l-.01.01c-.16.14-.16.39-.01.54z"/><path d="m76.62 66.22 3.01.31c.08 1.05.74 1.88 1.62 1.96 1 .09 1.9-.86 2.01-2.12s-.62-2.34-1.62-2.43c-.91-.08-1.73.71-1.95 1.8l-2.98-.31c-.22-.02-.41.14-.43.35v.01c-.03.22.13.41.34.43z"/><path d="m68.43 59 .74-2.93c1.05.07 1.97-.47 2.17-1.32.23-.98-.58-2-1.81-2.29s-2.41.27-2.64 1.25c-.21.89.45 1.82 1.5 2.19l-.73 2.9c-.05.21.08.42.29.48h.01c.21.06.42-.07.47-.28z"/><path d="m74.22 61.26 2.01-2.26c.9.54 1.96.5 2.53-.17.66-.76.41-2.04-.54-2.87-.96-.82-2.26-.87-2.92-.11-.6.69-.44 1.82.32 2.64l-1.99 2.24c-.14.16-.13.41.03.55h.01c.15.15.4.14.55-.02z"/><path d="m70.01 67.25-4.21-.58c-.56-.08-.94-.59-.87-1.14v-.02c.08-.55.59-.94 1.14-.87l4.21.58c.55.08.94.59.87 1.14v.02c-.08.56-.59.94-1.14.87z"/><path d="m52.37 73.18-4.05.89c-.53.12-1.06-.22-1.18-.75v-.02c-.12-.53.22-1.06.75-1.18l4.05-.89c.53-.12 1.06.22 1.18.75v.02c.12.53-.22 1.06-.75 1.18z"/><path d="m40.58 78.52c-.12-.05-.24-.11-.34-.2-.26-.21-.41-.5-.44-.81-.03-.32.06-.63.27-.87l2.31-2.8c.41-.49 1.18-.57 1.67-.16.26.21.41.5.44.82s-.06.63-.27.87l-2.31 2.8c-.31.38-.85.53-1.33.35zm2.9-4.43c-.22-.08-.46-.01-.6.16l-2.31 2.8c-.09.11-.13.25-.12.39s.08.27.19.36c.06.05.11.08.17.1.21.08.46.01.6-.16l2.31-2.8c.09-.11.14-.25.12-.39s-.08-.27-.19-.36c-.06-.05-.11-.08-.17-.1z"/><path d="m54.37 67.75c-.24-.09-.44-.25-.58-.47-.18-.28-.24-.6-.18-.91.07-.31.25-.58.52-.75l3.04-1.97c.53-.34 1.3-.18 1.65.35.18.28.24.6.18.91-.07.31-.25.58-.52.75l-3.04 1.97c-.32.21-.72.25-1.07.12zm3.64-3.61c-.16-.06-.34-.04-.48.05l-3.04 1.97c-.12.08-.2.2-.23.34s0 .29.08.41c.18.28.51.33.75.17l3.04-1.97c.12-.08.2-.2.23-.34s0-.28-.07-.41c-.08-.11-.17-.18-.28-.22z"/></g><path d="m63.08 69.22c-.19.51-.76.77-1.27.58s-.77-.76-.58-1.27.76-.77 1.27-.58.77.76.58 1.27z" fill="#fff"/><path d="m62.74 65.79c-.11.29-.44.44-.73.33-.3-.11-.45-.44-.34-.73.11-.3.44-.45.73-.34.3.12.45.44.34.74z" fill="#fff"/><path d="m69.78 63.43c-.15.41-.6.61-1.01.46-.4-.15-.61-.6-.46-1.01s.6-.61 1.01-.46.61.6.46 1.01z" fill="#fff"/><path d="m49.67 68.39c-.19.52-.77.78-1.29.59s-.78-.77-.59-1.29.77-.78 1.29-.59.78.77.59 1.29z" fill="#fff"/><path d="m45.13 80.45c-.19.51-.76.77-1.27.58s-.77-.76-.58-1.27.76-.77 1.27-.58.77.76.58 1.27z" fill="#fff"/><path d="m44.63 70.72c-.09.23-.34.35-.57.26s-.35-.34-.26-.57.34-.35.57-.26c.23.08.34.34.26.57z" fill="#fff"/><path d="m40.95 81.78c-.17.46-.68.69-1.14.52s-.69-.68-.52-1.14.68-.69 1.14-.52.69.68.52 1.14z" fill="#fff"/><path d="m74.61 65.49c-.1.28-.41.42-.69.32s-.42-.41-.32-.69.41-.42.69-.32.42.41.32.69z" fill="#fff"/><path d="m58.41 70.48c-.21.57-.85.86-1.41.65-.57-.21-.86-.85-.65-1.42s.85-.86 1.42-.65c.56.22.85.85.64 1.42z" fill="#fff"/><path d="m62.51 62.74c-.08.22-.32.33-.54.25s-.33-.32-.25-.54.32-.33.54-.25.33.32.25.54z" fill="#fff"/><path d="m53.18 23.58c-4.49-.25-11.22 1.3-16.64 6.4-.09.08-.17.16-.23.22-5.6 5.13-7.61 11.91-7.62 16.46-.07 5.56 2.55 8.63 5.05 8.7h.1c1.4-.07 2.77-.78 4.3-2.23 1.19-1.13 2.4-2.61 3.68-4.19 1.7-2.1 3.65-4.5 5.94-6.48l.04-.04.04-.04c2.11-2.17 4.62-3.98 6.81-5.56 1.65-1.19 3.2-2.31 4.4-3.43 1.53-1.45 2.32-2.77 2.47-4.17l.01-.11c.11-2.48-2.8-5.27-8.35-5.53z" fill="#43cabf"/><path d="m60.22 29.08c-.43 3.86-7.94 6.84-13.31 12.37-5.84 5.04-9.24 12.37-13.13 12.57-1.83-.05-3.8-2.77-3.75-7.35.01-4.47 2.05-10.79 7.18-15.49 4.99-4.85 11.42-6.52 15.89-6.27 4.58.21 7.18 2.35 7.12 4.17z" fill="#026bb2"/><g fill="#43cabf"><path d="m42.34 26.84c-.07.06-.17.09-.26.06-.14-.04-.22-.19-.18-.33.5-1.67-.4-2.64-1.26-3.58-.85-.91-1.72-1.86-.9-3.29.07-.13.24-.17.36-.1.13.07.17.24.1.37-.6 1.04-.1 1.66.82 2.67.88.95 1.97 2.13 1.38 4.1 0 .03-.02.07-.06.1z"/><path d="m45.8 25.7c-.09.08-.22.1-.33.03-.12-.08-.16-.25-.08-.37.55-.85.01-2.53-.46-4.01-.46-1.43-.86-2.66-.4-3.33.08-.12.25-.15.37-.07s.15.25.07.37c-.31.45.08 1.68.46 2.87.54 1.67 1.09 3.39.4 4.46 0 .02-.01.04-.03.05z"/><path d="m49.32 24.71c-.01.01-.02.02-.04.03-.12.08-.29.05-.37-.07-.77-1.15-.57-2.57-.37-3.93.19-1.33.37-2.6-.45-3.35-.11-.1-.11-.27-.01-.38s.27-.11.38-.01c1.02.95.81 2.41.61 3.82-.18 1.27-.37 2.58.29 3.56.07.1.06.24-.04.33z"/><path d="m52.91 24.48c-.07.06-.17.09-.26.06-.14-.04-.22-.19-.18-.33.57-1.83-.03-3.4-.52-4.66-.41-1.05-.76-1.96-.32-2.72.08-.13.24-.17.36-.1.13.07.17.24.1.36-.31.54-.02 1.3.35 2.27.52 1.34 1.16 3 .53 5.01 0 .04-.03.08-.06.11z"/><path d="m56.41 24.98c-.09.08-.23.1-.33.03-.12-.08-.16-.25-.07-.37.94-1.41.68-3.11.44-4.6-.21-1.31-.39-2.44.24-3.19.1-.11.26-.13.38-.03.11.09.13.26.03.38-.47.57-.31 1.59-.13 2.77.25 1.59.54 3.4-.52 4.98-.01 0-.02.02-.04.03z"/><path d="m58.8 25.6c-.11.1-.27.1-.38-.01-.1-.11-.1-.28.01-.38.03-.03 3.08-3 3.23-6.42.01-.15.13-.26.28-.26.15.01.26.13.26.28-.17 3.64-3.27 6.66-3.4 6.79z"/><path d="m66.19 23.04c-.04.04-.09.06-.15.07-1.34.16-1.79.86-2.36 1.74-.64.99-1.36 2.11-3.47 2.72-.14.04-.29-.04-.33-.18s.04-.29.18-.33c1.91-.55 2.55-1.54 3.17-2.5.6-.92 1.16-1.79 2.75-1.98.15-.02.28.09.3.23 0 .09-.03.17-.09.23z"/><path d="m68.39 28.62c-.07.06-.16.09-.25.06-2.95-.78-7.02 1.32-7.06 1.35-.13.07-.29.02-.36-.11s-.02-.29.11-.36c.17-.09 4.3-2.23 7.45-1.39.14.04.23.18.19.33-.02.04-.04.09-.08.12z"/><path d="m66.63 33.9c-.03.03-.07.05-.11.06-2.04.56-3.11 0-4.25-.59-.8-.42-1.64-.85-2.93-1-.15-.02-.25-.15-.23-.3s.15-.25.3-.23c1.4.16 2.31.64 3.12 1.06 1.13.59 2.02 1.06 3.86.55.14-.04.29.04.33.19.01.1-.02.2-.09.26z"/><path d="m63.42 37.27c-.05.04-.11.07-.17.07-.15 0-.27-.11-.28-.26-.01-.47-.33-.54-1.56-.56-1.37-.02-3.44-.05-5.28-1.83-.11-.1-.11-.27-.01-.38.1-.1.27-.11.38-.01 1.69 1.63 3.56 1.66 4.92 1.68 1.1.02 2.05.03 2.08 1.07.01.1-.02.17-.08.22z"/><path d="m60.12 40.05c-.04.04-.09.06-.14.07-.15.02-.28-.08-.3-.23-.1-.67-1.02-.83-2.51-1.03-1.35-.18-3.04-.41-4.31-1.37-.12-.09-.14-.26-.05-.37.09-.12.26-.14.37-.05 1.15.87 2.69 1.08 4.05 1.26 1.51.2 2.81.38 2.97 1.48.01.1-.02.18-.08.24z"/><path d="m56.74 42.58c-.04.04-.09.06-.14.07-.15.02-.28-.07-.31-.22-.09-.58-.47-.62-1.54-.65-1.25-.04-3.13-.11-5.28-1.75-.12-.09-.14-.26-.05-.37.09-.12.26-.14.37-.05 2.01 1.54 3.72 1.6 4.97 1.64 1.01.03 1.88.06 2.05 1.1.03.08-.01.17-.07.23z"/><path d="m54.1 45.73c-.03.03-.08.06-.13.07-.14.03-.29-.06-.32-.2-.39-1.83-4.94-2.32-6.67-2.36-.15 0-.26-.13-.26-.27 0-.15.13-.26.27-.26.27.01 6.62.17 7.18 2.78.02.09-.01.18-.07.24z"/><path d="m52.16 47.9c-.03.03-.08.06-.13.07-1.72.38-6.95-2.22-7.54-2.51-.13-.07-.19-.23-.12-.36s.23-.19.36-.12c1.56.78 5.89 2.76 7.19 2.47.14-.03.29.06.32.2.02.09-.01.18-.08.25z"/><path d="m49.99 50.43c-.04.04-.09.06-.14.07-1.8.29-2.82-.35-3.91-1.02-.99-.61-2.01-1.24-3.78-1.35-.15-.01-.26-.14-.25-.28.01-.15.14-.26.28-.25 1.91.11 3.04.81 4.03 1.43 1.05.65 1.95 1.21 3.55.95.15-.02.28.08.31.22 0 .08-.03.17-.09.23z"/><path d="m46.93 53.42c-.01.01-.02.02-.03.02-.12.08-.29.06-.37-.07-1.47-2.1-6.67-2.45-6.72-2.46-.15-.01-.26-.14-.25-.28.01-.15.14-.26.28-.25.22.01 5.5.37 7.12 2.68.08.12.07.27-.03.36z"/><path d="m44.08 56.16c-.03.03-.07.05-.11.06-.14.04-.29-.05-.33-.19-.3-1.13-1.53-1.28-2.96-1.46-1.42-.18-2.9-.36-3.53-1.62-.07-.13-.01-.29.12-.36s.29-.01.36.12c.5 1.01 1.77 1.16 3.11 1.33 1.48.18 3.02.37 3.41 1.85.03.11 0 .21-.07.27z"/><path d="m38.54 61.4c-.1.09-.25.1-.35.01-.11-.09-.13-.26-.04-.38 1.97-2.43-2.63-6.46-2.68-6.5-.11-.1-.12-.27-.03-.38.1-.11.27-.12.38-.03.21.18 5.03 4.41 2.74 7.24-.01.02-.01.03-.02.04z"/><path d="m31.54 61.81c-.07.07-.18.09-.28.06-.23-.09-.4-.25-.48-.47-.25-.67.35-1.75 1.1-3.11.67-1.21 1.42-2.58 1.41-3.5 0-.15.11-.27.26-.27s.27.12.27.26c.02 1.07-.74 2.44-1.47 3.77-.58 1.04-1.23 2.22-1.07 2.67.02.05.05.11.17.15.14.05.21.21.15.34-.01.04-.04.07-.06.1z"/><path d="m30.09 55.99c-.58.55-1.17.92-1.69 1.26-.78.5-1.39.89-1.64 1.64-.05.14-.2.21-.34.17-.14-.05-.22-.2-.17-.34.31-.93 1.03-1.39 1.86-1.92 1.01-.65 2.26-1.46 3.23-3.47.07-.13.22-.19.36-.13.13.06.19.22.13.36-.54 1.1-1.14 1.86-1.74 2.43z"/><path d="m26.55 53.94c-.55.52-1.34.99-2.64 1.31-.14.04-.29-.05-.32-.2-.04-.14.05-.29.2-.32 2.15-.53 2.73-1.44 3.35-2.4.5-.78 1.02-1.59 2.31-2.25.13-.07.29-.02.36.11s.02.29-.12.36c-1.16.6-1.62 1.31-2.1 2.07-.3.44-.59.9-1.04 1.32z"/><path d="m28.1 48.66c-.91.86-1.87 1.14-2.75 1.4-.77.23-1.51.44-2.13 1.03 0 0-.01.01-.01.01-.11.1-.28.1-.38-.01s-.1-.28.01-.38c.73-.69 1.55-.93 2.36-1.17 1.29-.38 2.62-.77 3.76-2.97.07-.13.23-.18.36-.11s.18.23.11.36c-.42.82-.87 1.41-1.33 1.84z"/><path d="m29.94 43.53c-.03.03-.08.06-.13.07-1.91.4-3.11 1.29-4.07 2-.96.72-1.72 1.28-2.64.77-.13-.07-.17-.24-.1-.37s.23-.18.36-.1c.59.33 1.09 0 2.06-.73.95-.7 2.25-1.67 4.28-2.1.14-.03.29.06.32.21.02.09-.01.18-.08.25z"/><path d="m30.26 40.8c-.01.01-.01.01-.02.02-1.25.99-2.33.59-3.47.17-.98-.36-2.09-.77-3.56-.44-.14.03-.29-.06-.32-.2s.06-.29.2-.32c1.63-.37 2.82.07 3.86.45 1.13.42 1.94.72 2.96-.09.12-.09.28-.07.38.04.08.12.07.28-.03.37z"/><path d="m32.31 37.13c-.1.1-.26.1-.36 0-1.06-.98-2.99-.61-4.54-.31-1.35.26-2.41.47-2.83-.17-.08-.12-.05-.29.08-.37.12-.08.29-.05.37.08.22.33 1.27.13 2.28-.06 1.67-.32 3.75-.72 5 .44.11.1.11.27.01.38 0 .01-.01.01-.01.01z"/><path d="m34.42 33.3c-.07.06-.16.09-.25.06-1.66-.45-6.18-1.33-7.09.01-.08.12-.25.15-.37.07s-.15-.25-.07-.37c1.29-1.88 7.02-.4 7.67-.22.14.04.23.19.19.33-.02.04-.04.08-.08.12z"/><path d="m36.77 30.93c-.01.01-.02.02-.03.02-.12.09-.29.06-.37-.06-1.06-1.46-2.52-1.79-3.82-2.09-1.18-.27-2.3-.53-2.63-1.67-.04-.14.04-.29.18-.33s.29.04.33.18c.23.8.96 1 2.23 1.29 1.32.3 2.96.68 4.13 2.3.09.12.07.27-.02.36z"/><path d="m39.59 28.71c-.01.01-.03.02-.04.03-.13.08-.29.04-.37-.09-.64-1.03-1.39-1.64-2.06-2.19-1.06-.87-1.98-1.62-1.8-3.53.01-.15.14-.25.29-.24s.25.14.24.29c-.16 1.62.58 2.23 1.6 3.06.7.57 1.49 1.22 2.18 2.32.07.13.05.27-.04.35z"/><path d="m48.68 29.22c.91.96.86 2.47-.1 3.38s-2.47.86-3.38-.1-.86-2.47.1-3.38c.97-.9 2.48-.86 3.38.1z"/></g><g fill="#fff"><path d="m41.9 35.63c.43.46.41 1.17-.05 1.6s-1.17.41-1.6-.05-.41-1.17.05-1.61c.45-.42 1.17-.4 1.6.06z"/><path d="m42.32 41.77c.36.38.34.97-.04 1.33s-.97.34-1.33-.04-.34-.97.04-1.33c.38-.35.97-.34 1.33.04z"/><path d="m36.67 44.22c.21.22.2.58-.02.79s-.58.2-.79-.02-.2-.58.02-.79c.23-.21.58-.2.79.02z"/><path d="m34.9 39.86c.15.16.14.4-.02.55s-.4.14-.55-.02-.14-.4.02-.55.4-.14.55.02z"/><path d="m33.96 41.93c.33.35.31.89-.04 1.22s-.89.31-1.22-.04-.31-.89.04-1.22c.35-.32.89-.31 1.22.04z"/><path d="m35 49.84c.32.34.31.88-.03 1.2s-.88.31-1.2-.03-.31-.88.03-1.2.88-.31 1.2.03z"/><path d="m51.04 34.72c.32.34.31.88-.03 1.21-.34.32-.88.31-1.21-.04-.32-.34-.31-.88.03-1.21.35-.32.89-.3 1.21.04z"/><path d="m53.95 27.92c.11.11.1.29-.01.4s-.29.1-.4-.01-.1-.29.01-.4c.12-.11.3-.1.4.01z"/><path d="m56.8 29.97c.28.3.27.77-.03 1.06-.3.28-.77.27-1.06-.03-.28-.3-.27-.77.03-1.06s.77-.27 1.06.03z"/><path d="m41.52 29.96c.16.17.16.45-.02.61-.17.16-.45.16-.61-.02-.16-.17-.16-.45.02-.61s.45-.15.61.02z"/><path d="m36.42 34.94c.21.22.2.56-.02.77s-.56.2-.77-.02-.2-.56.02-.77.56-.2.77.02z"/></g></svg>