<?xml version="1.0" encoding="utf-8"?>
<!-- Generator: Adobe Illustrator 27.1.1, SVG Export Plug-In . SVG Version: 6.00 Build 0)  -->
<svg version="1.1" id="Capa_1" xmlns="http://www.w3.org/2000/svg" xmlns:xlink="http://www.w3.org/1999/xlink" x="0px" y="0px"
	 viewBox="0 0 300 200" style="enable-background:new 0 0 300 200;" xml:space="preserve">
<style type="text/css">
	.st0{fill:#03A5B6;}
	.st1{fill:#020203;}
	.st2{fill:#914685;}
	.st3{fill:#F5BE32;}
	.st4{fill:#E13F80;}
</style>
<path class="st0" d="M18.8,127.2c-0.7,0.7-1.5,1.1-2.5,1.1c-0.8,0.1-1.6-0.1-2.3-0.5c-0.7-0.4-1.4-1-1.8-1.7
	c-0.2-0.4-0.4-0.7-0.5-1.2c-0.1-0.6-0.1-1-0.1-1.5c0-0.4,0.4-0.8,0.7-1c0.3-0.2,1-0.3,1-0.3c0.5-0.7,1.3-1.1,2.1-1.4
	c0.9-0.2,1.7-0.2,2.6,0.2c0.8,0.3,1.5,1.1,1.8,1.9c0.3,0.7,0.3,1.6,0.1,2.3C19.7,125.8,19.3,126.6,18.8,127.2"/>
<path class="st0" d="M297.6,120.6c0-3.8-6-3.8-6,0v16.2c0,5.3,0,10.6,0,15.9c0,3.5-1.5,6.8-4.3,8.9c-2.3,1.6-4.8,2.1-7.5,2.1h-29.3
	c-2.3,0-3.3,1.8-3.3,4.1v1.9h18.6c5.1,0,10.1,0.1,15.2,0c9.5-0.2,16.6-7.8,16.6-17.2C297.7,141.8,297.6,131.2,297.6,120.6"/>
<path class="st0" d="M247.5,196c-1.2,0-2.3-0.4-3.3-1.1L207,168.6c-1.3-0.9-1.6-2.7-0.7-4c0.9-1.3,2.7-1.6,4-0.7l36.8,26v-23.4
	c0-1.6,1.3-2.9,2.9-2.9c1.6,0,2.9,1.3,2.9,2.9v23.7c0.1,2.1-0.9,4-2.7,5C249.3,195.8,248.4,196,247.5,196"/>
<path class="st1" d="M89.4,144.3v-14.4h1.6v6.1h-0.3c0-1.3,0.2-2.5,0.6-3.4c0.4-1,0.9-1.7,1.7-2.2c0.7-0.5,1.7-0.8,2.8-0.8h0.1
	c1.1,0,2.1,0.3,2.8,0.8s1.3,1.3,1.7,2.2c0.4,1,0.5,2.1,0.5,3.5h-0.7c0-1.3,0.2-2.5,0.6-3.4c0.4-1,0.9-1.7,1.7-2.2
	c0.8-0.5,1.7-0.8,2.8-0.8h0.1c1.1,0,2.1,0.3,2.8,0.8c0.8,0.5,1.3,1.3,1.7,2.2c0.4,1,0.6,2.1,0.6,3.5v8.4h-2v-8.8
	c0-1.3-0.3-2.3-0.9-3c-0.6-0.7-1.5-1.1-2.7-1.1c-1.2,0-2.1,0.4-2.8,1.2c-0.7,0.8-1,1.8-1,3.1v8.7h-2v-8.8c0-1.3-0.3-2.3-0.9-3
	c-0.6-0.7-1.5-1.1-2.7-1.1c-1.2,0-2.1,0.4-2.8,1.2c-0.7,0.8-1.1,1.8-1.1,3.1v8.7H89.4z"/>
<path class="st1" d="M120.5,144.7c-1.7,0-3-0.6-4-1.7c-0.9-1.1-1.4-2.7-1.4-4.7v-8.5h2v8.9c0,1.3,0.3,2.2,1,3
	c0.7,0.7,1.6,1.1,2.8,1.1c1.2,0,2.2-0.4,3-1.2c0.7-0.8,1.1-1.8,1.1-3.1v-8.7h2v14.4h-1.6v-6h0.3c0,1.3-0.2,2.5-0.6,3.4
	c-0.4,1-1,1.7-1.7,2.2C122.7,144.5,121.7,144.7,120.5,144.7L120.5,144.7z"/>
<path class="st1" d="M132.2,144.3v-14.4h1.6v6.1h-0.3c0-1.3,0.2-2.5,0.6-3.5s1-1.7,1.8-2.2c0.8-0.5,1.8-0.8,3-0.8h0.1
	c1.8,0,3.2,0.6,4.1,1.7c0.9,1.1,1.3,2.7,1.3,4.8v8.4h-2v-8.8c0-1.3-0.3-2.3-1-3c-0.7-0.8-1.7-1.1-2.9-1.1c-1.3,0-2.3,0.4-3.1,1.2
	c-0.8,0.8-1.2,1.8-1.2,3.1v8.7H132.2z"/>
<path class="st1" d="M147.7,129.9h4.3v1.6h-4.3V129.9z M150.5,127.2c-0.5,0-0.9-0.1-1.1-0.4c-0.2-0.3-0.4-0.6-0.4-1
	c0-0.4,0.1-0.7,0.4-1c0.2-0.3,0.6-0.4,1.1-0.4c0.5,0,0.9,0.1,1.1,0.4c0.2,0.3,0.4,0.6,0.4,1c0,0.4-0.1,0.7-0.4,1
	C151.4,127.1,151,127.2,150.5,127.2 M150.1,129.9h2v14.4h-2V129.9z"/>
<path class="st1" d="M163.3,144.8c-1.2,0-2.3-0.2-3.2-0.6s-1.6-1-2.2-1.7c-0.6-0.7-1.1-1.5-1.3-2.4c-0.3-0.9-0.5-1.8-0.5-2.7v-0.4
	c0-0.9,0.2-1.8,0.5-2.7c0.3-0.9,0.8-1.7,1.3-2.4c0.6-0.7,1.3-1.3,2.2-1.7s1.9-0.6,3.1-0.6c1.2,0,2.3,0.2,3.2,0.7
	c0.9,0.4,1.7,1.1,2.3,1.9c0.6,0.8,0.9,1.7,1,2.8h-2c-0.2-1-0.6-1.8-1.4-2.5c-0.8-0.7-1.8-1-3.1-1c-1.1,0-2.1,0.3-2.8,0.8
	c-0.8,0.5-1.3,1.2-1.7,2.1c-0.4,0.9-0.6,1.9-0.6,2.9c0,1.1,0.2,2,0.6,2.9c0.4,0.9,1,1.6,1.7,2.2c0.8,0.5,1.7,0.8,2.9,0.8
	c0.9,0,1.7-0.2,2.3-0.5c0.7-0.3,1.2-0.7,1.6-1.3c0.4-0.5,0.6-1.1,0.7-1.8h2c-0.1,1.1-0.4,2-1,2.8c-0.6,0.8-1.4,1.4-2.4,1.9
	C165.6,144.5,164.5,144.8,163.3,144.8"/>
<path class="st1" d="M172,129.9h4.3v1.6H172V129.9z M174.7,127.2c-0.5,0-0.9-0.1-1.1-0.4c-0.2-0.3-0.4-0.6-0.4-1
	c0-0.4,0.1-0.7,0.4-1c0.2-0.3,0.6-0.4,1.1-0.4c0.5,0,0.9,0.1,1.1,0.4c0.2,0.3,0.4,0.6,0.4,1c0,0.4-0.1,0.7-0.4,1
	C175.6,127.1,175.2,127.2,174.7,127.2 M174.3,129.9h2v14.4h-2V129.9z"/>
<path class="st1" d="M181.5,149.8v-19.9h1.6v6.2l-0.5,0.1c0.1-1.5,0.4-2.7,0.9-3.7c0.6-1,1.3-1.8,2.3-2.3c1-0.5,2-0.8,3.2-0.8
	c1.1,0,2,0.2,2.9,0.6c0.9,0.4,1.6,1,2.2,1.7c0.6,0.7,1.1,1.5,1.4,2.4c0.3,0.9,0.5,1.8,0.5,2.8v0.4c0,1-0.2,1.9-0.5,2.8
	c-0.3,0.9-0.8,1.7-1.4,2.4c-0.6,0.7-1.3,1.3-2.2,1.7c-0.9,0.4-1.8,0.6-2.9,0.6c-1.1,0-2.2-0.3-3.1-0.8c-1-0.5-1.7-1.3-2.3-2.3
	c-0.6-1-0.9-2.3-1-3.8l1,2v9.8H181.5z M188.7,143c1.1,0,2-0.3,2.8-0.8c0.8-0.5,1.4-1.2,1.8-2.1c0.4-0.9,0.6-1.9,0.6-3
	c0-1.1-0.2-2.1-0.6-3c-0.4-0.9-1-1.6-1.8-2.1c-0.8-0.5-1.7-0.8-2.8-0.8c-1,0-1.9,0.2-2.7,0.7c-0.8,0.4-1.4,1.1-1.9,1.8
	c-0.5,0.8-0.7,1.7-0.7,2.8v1.3c0,1,0.2,1.9,0.7,2.7c0.5,0.8,1.1,1.4,1.9,1.8C186.8,142.8,187.7,143,188.7,143"/>
<path class="st1" d="M203.8,144.7c-1,0-1.9-0.2-2.7-0.5c-0.8-0.4-1.4-0.9-1.8-1.6c-0.4-0.7-0.6-1.5-0.6-2.5c0-1,0.2-1.8,0.7-2.5
	c0.4-0.7,1.1-1.2,1.9-1.5c0.8-0.4,1.9-0.5,3.1-0.5h4.2v1.6h-4.4c-1.1,0-2,0.3-2.6,0.8c-0.6,0.6-0.9,1.3-0.9,2.2c0,0.9,0.3,1.6,1,2.2
	c0.6,0.5,1.5,0.8,2.6,0.8c0.7,0,1.3-0.1,1.9-0.4c0.6-0.2,1.1-0.7,1.6-1.3c0.4-0.6,0.6-1.4,0.7-2.4l0.6,0.8c-0.1,1.1-0.3,2-0.8,2.7
	c-0.4,0.7-1,1.3-1.8,1.6C205.7,144.5,204.8,144.7,203.8,144.7 M208.7,144.3V140h-0.3v-5.1c0-1.1-0.3-1.9-0.8-2.5
	c-0.6-0.6-1.4-0.9-2.6-0.9c-0.5,0-1.1,0-1.6,0c-0.6,0-1.1,0-1.6,0.1s-0.9,0.1-1.3,0.1v-1.8c0.4,0,0.8-0.1,1.2-0.1
	c0.4,0,0.9-0.1,1.3-0.1c0.4,0,0.9,0,1.3,0c1.5,0,2.7,0.2,3.6,0.5c0.9,0.4,1.6,0.9,2,1.7c0.4,0.8,0.6,1.8,0.6,3.1v9.3H208.7z"/>
<path class="st1" d="M213.3,124.4h4.1v1.7h-4.1V124.4z M215.4,124.4h2v19.9h-2V124.4z"/>
<path class="st1" d="M221,129.9h4.3v1.6H221V129.9z M223.7,127.2c-0.5,0-0.9-0.1-1.1-0.4c-0.2-0.3-0.4-0.6-0.4-1
	c0-0.4,0.1-0.7,0.4-1c0.2-0.3,0.6-0.4,1.1-0.4c0.5,0,0.9,0.1,1.1,0.4c0.2,0.3,0.4,0.6,0.4,1c0,0.4-0.1,0.7-0.4,1
	C224.6,127.1,224.2,127.2,223.7,127.2 M223.3,129.9h2v14.4h-2V129.9z"/>
<path class="st1" d="M236.4,144.8c-1.1,0-2-0.2-2.9-0.6c-0.9-0.4-1.6-0.9-2.2-1.6c-0.6-0.7-1.1-1.5-1.4-2.4
	c-0.3-0.9-0.5-1.9-0.5-2.9v-0.4c0-1,0.2-1.9,0.5-2.8c0.3-0.9,0.8-1.7,1.4-2.4c0.6-0.7,1.3-1.3,2.2-1.7c0.9-0.4,1.8-0.6,2.9-0.6
	c1.2,0,2.3,0.3,3.2,0.8s1.7,1.3,2.2,2.3c0.6,1,0.9,2.2,0.9,3.6l-0.9-1.7v-10h2v19.9h-1.6v-6.4h0.7c0,1.5-0.3,2.8-0.9,3.8
	c-0.6,1-1.4,1.8-2.3,2.3C238.7,144.5,237.6,144.8,236.4,144.8 M236.7,143c1,0,1.9-0.2,2.7-0.7c0.8-0.4,1.4-1.1,1.9-1.9
	c0.5-0.8,0.7-1.7,0.7-2.8v-1.3c0-1-0.2-1.9-0.7-2.7c-0.5-0.8-1.1-1.4-1.9-1.8c-0.8-0.4-1.7-0.7-2.7-0.7c-1.1,0-2,0.3-2.8,0.8
	c-0.8,0.5-1.4,1.2-1.8,2.1c-0.4,0.9-0.6,1.9-0.6,3c0,1.1,0.2,2.2,0.7,3.1c0.4,0.9,1.1,1.6,1.9,2.1C234.7,142.7,235.6,143,236.7,143"
	/>
<path class="st1" d="M252.9,144.7c-1,0-1.9-0.2-2.7-0.5c-0.8-0.4-1.4-0.9-1.8-1.6c-0.4-0.7-0.6-1.5-0.6-2.5c0-1,0.2-1.8,0.7-2.5
	c0.4-0.7,1.1-1.2,1.9-1.5c0.8-0.4,1.9-0.5,3.1-0.5h4.2v1.6h-4.4c-1.1,0-2,0.3-2.6,0.8c-0.6,0.6-0.9,1.3-0.9,2.2c0,0.9,0.3,1.6,1,2.2
	c0.6,0.5,1.5,0.8,2.6,0.8c0.7,0,1.3-0.1,1.9-0.4c0.6-0.2,1.1-0.7,1.6-1.3c0.4-0.6,0.6-1.4,0.7-2.4l0.6,0.8c-0.1,1.1-0.3,2-0.8,2.7
	c-0.4,0.7-1,1.3-1.8,1.6C254.7,144.5,253.9,144.7,252.9,144.7 M257.7,144.3V140h-0.3v-5.1c0-1.1-0.3-1.9-0.8-2.5
	c-0.6-0.6-1.4-0.9-2.6-0.9c-0.5,0-1.1,0-1.6,0c-0.6,0-1.1,0-1.6,0.1s-0.9,0.1-1.3,0.1v-1.8c0.4,0,0.8-0.1,1.2-0.1
	c0.4,0,0.9-0.1,1.3-0.1c0.4,0,0.9,0,1.3,0c1.5,0,2.7,0.2,3.6,0.5c0.9,0.4,1.6,0.9,2,1.7c0.4,0.8,0.6,1.8,0.6,3.1v9.3H257.7z"/>
<path class="st1" d="M270.2,144.8c-1.1,0-2-0.2-2.9-0.6c-0.9-0.4-1.6-0.9-2.2-1.6c-0.6-0.7-1.1-1.5-1.4-2.4
	c-0.3-0.9-0.5-1.9-0.5-2.9v-0.4c0-1,0.2-1.9,0.5-2.8c0.3-0.9,0.8-1.7,1.4-2.4c0.6-0.7,1.3-1.3,2.2-1.7c0.9-0.4,1.8-0.6,2.9-0.6
	c1.2,0,2.3,0.3,3.2,0.8c0.9,0.5,1.7,1.3,2.2,2.3c0.6,1,0.9,2.2,0.9,3.6l-0.9-1.7v-10h2v19.9H276v-6.4h0.7c0,1.5-0.4,2.8-0.9,3.8
	c-0.6,1-1.4,1.8-2.3,2.3C272.4,144.5,271.4,144.8,270.2,144.8 M270.5,143c1,0,1.9-0.2,2.7-0.7c0.8-0.4,1.4-1.1,1.9-1.9
	c0.5-0.8,0.7-1.7,0.7-2.8v-1.3c0-1-0.2-1.9-0.7-2.7s-1.1-1.4-1.9-1.8c-0.8-0.4-1.7-0.7-2.7-0.7c-1.1,0-2,0.3-2.8,0.8
	c-0.8,0.5-1.4,1.2-1.8,2.1c-0.4,0.9-0.6,1.9-0.6,3c0,1.1,0.2,2.2,0.7,3.1c0.4,0.9,1.1,1.6,1.9,2.1C268.5,142.7,269.4,143,270.5,143"
	/>
<path class="st2" d="M3.1,106.6V75.4h16.2c2.2,0,4.1,0.4,5.6,1.2c1.5,0.8,2.6,2,3.4,3.5c0.8,1.5,1.2,3.3,1.2,5.3
	c0,2.1-0.4,3.9-1.2,5.4c-0.8,1.5-2,2.7-3.5,3.6s-3.4,1.3-5.7,1.3H9.9v10.9H3.1z M9.9,90.2h8.3c1.4,0,2.5-0.4,3.3-1.2
	c0.8-0.8,1.2-2,1.2-3.4c0-1-0.2-1.8-0.5-2.5c-0.3-0.7-0.8-1.2-1.5-1.5c-0.7-0.4-1.5-0.5-2.5-0.5H9.9V90.2z"/>
<path class="st2" d="M41.9,107.1c-2.3,0-4.2-0.6-5.6-1.9c-1.4-1.3-2.2-3.4-2.2-6.4V82.7h5.5v15.1c0,0.8,0.1,1.6,0.3,2.1
	c0.2,0.6,0.5,1,0.9,1.4c0.4,0.3,0.8,0.6,1.4,0.8c0.5,0.2,1.2,0.2,1.8,0.2c1,0,1.9-0.2,2.7-0.7c0.8-0.5,1.4-1.2,1.9-2
	c0.5-0.9,0.7-1.8,0.7-2.9V82.7h5.5v23.9h-4.6l-0.5-3.2h-0.3c-0.5,0.7-1.2,1.4-1.9,1.9c-0.7,0.6-1.6,1-2.5,1.3S43,107.1,41.9,107.1"
	/>
<path class="st2" d="M71.8,107.1c-2.5,0-4.7-0.4-6.4-1.3c-1.7-0.9-3-2.3-3.8-4.1c-0.8-1.8-1.3-4.2-1.3-7c0-2.9,0.4-5.2,1.3-7.1
	c0.8-1.8,2.1-3.2,3.8-4.1c1.7-0.9,3.8-1.3,6.4-1.3c2.3,0,4.2,0.4,5.8,1.3c1.6,0.9,2.7,2.2,3.5,4c0.8,1.8,1.2,4.1,1.2,7V96H66
	c0.1,1.5,0.3,2.7,0.7,3.7c0.4,1,1,1.8,1.8,2.3c0.8,0.5,1.9,0.7,3.3,0.7c0.7,0,1.3-0.1,2-0.3c0.6-0.2,1.1-0.5,1.6-0.8
	c0.5-0.4,0.8-0.9,1.1-1.4c0.3-0.6,0.4-1.2,0.4-2h5.5c0,1.5-0.3,2.8-0.8,4c-0.5,1.1-1.3,2-2.2,2.8c-1,0.7-2.1,1.3-3.3,1.6
	C74.6,106.9,73.3,107.1,71.8,107.1 M66.1,92.1h10.4c0-1-0.1-1.8-0.3-2.5c-0.2-0.7-0.5-1.3-1-1.7c-0.4-0.5-0.9-0.8-1.5-1
	c-0.6-0.2-1.2-0.3-2-0.3c-1.2,0-2.2,0.2-3,0.6c-0.8,0.4-1.4,1-1.8,1.8C66.5,89.8,66.2,90.8,66.1,92.1"/>
<path class="st2" d="M87.7,106.6V82.7h4.6l0.5,3.8h0.3c0.3-0.8,0.7-1.5,1.1-2.1c0.4-0.7,1-1.2,1.7-1.6c0.7-0.4,1.5-0.6,2.5-0.6
	c0.5,0,0.9,0,1.3,0.1c0.4,0.1,0.7,0.2,0.9,0.3v5.2h-1.7c-0.9,0-1.8,0.1-2.5,0.4c-0.7,0.3-1.3,0.7-1.8,1.2c-0.5,0.5-0.9,1.2-1.1,2
	c-0.2,0.8-0.4,1.8-0.4,2.9v12.3H87.7z"/>
<path class="st2" d="M111.2,107.1c-1.5,0-2.7-0.3-3.5-0.9c-0.8-0.6-1.4-1.3-1.8-2.3c-0.3-0.9-0.5-1.9-0.5-2.8V87.2h-2.9v-4.5h3
	l1-6.7h4.4v6.7h4.1v4.5h-4.1v13.4c0,0.6,0.2,1.1,0.5,1.5c0.3,0.3,0.8,0.5,1.5,0.5h2.1v3.8c-0.3,0.1-0.7,0.2-1.1,0.3
	c-0.4,0.1-0.9,0.2-1.4,0.3C112.1,107.1,111.6,107.1,111.2,107.1"/>
<path class="st2" d="M130.5,107.1c-2.6,0-4.8-0.4-6.5-1.3c-1.8-0.9-3.1-2.3-4-4.1c-0.9-1.8-1.3-4.2-1.3-7c0-2.9,0.4-5.2,1.3-7.1
	c0.9-1.8,2.2-3.2,4-4.1c1.8-0.9,3.9-1.3,6.5-1.3c2.6,0,4.8,0.4,6.6,1.3c1.7,0.9,3.1,2.3,3.9,4.1c0.9,1.8,1.3,4.2,1.3,7.1
	c0,2.8-0.4,5.2-1.3,7c-0.9,1.8-2.2,3.2-3.9,4.1C135.4,106.7,133.2,107.1,130.5,107.1 M130.5,102.6c1.5,0,2.6-0.3,3.5-0.8
	c0.9-0.6,1.5-1.4,2-2.5c0.4-1.1,0.6-2.6,0.6-4.2v-0.6c0-1.7-0.2-3.1-0.6-4.2c-0.4-1.1-1.1-2-2-2.5c-0.9-0.6-2.1-0.8-3.5-0.8
	c-1.5,0-2.6,0.3-3.5,0.8c-0.9,0.6-1.5,1.4-2,2.5c-0.4,1.1-0.6,2.6-0.6,4.2v0.6c0,1.7,0.2,3.1,0.6,4.2c0.4,1.1,1.1,2,2,2.5
	C127.9,102.3,129.1,102.6,130.5,102.6"/>
<path class="st2" d="M166.5,106.6l-11.3-31.2h7.3l6.7,19.9c0.1,0.3,0.3,0.7,0.4,1.2c0.2,0.5,0.3,0.9,0.5,1.4
	c0.2,0.5,0.3,0.9,0.4,1.2h0.3c0.1-0.3,0.2-0.7,0.4-1.2c0.1-0.4,0.3-0.9,0.4-1.3c0.1-0.5,0.3-0.9,0.4-1.3l6.7-19.9h7l-11.3,31.2
	H166.5z"/>
<path class="st2" d="M196,107.1c-0.7,0-1.4-0.1-2.3-0.2c-0.9-0.2-1.7-0.5-2.5-0.9c-0.8-0.5-1.5-1.1-2-2c-0.5-0.9-0.8-2.1-0.8-3.5
	c0-1.6,0.4-3,1.1-4.1c0.7-1.1,1.7-1.9,3.1-2.5c1.3-0.6,2.9-1.1,4.7-1.3c1.8-0.3,3.8-0.4,6-0.4v-2c0-0.7-0.1-1.3-0.3-1.9
	c-0.2-0.5-0.6-1-1.2-1.3c-0.6-0.3-1.4-0.5-2.5-0.5s-2,0.1-2.6,0.4c-0.6,0.3-1.1,0.6-1.3,1c-0.2,0.4-0.4,0.8-0.4,1.2v0.6h-5.4
	c0-0.2,0-0.3,0-0.5v-0.5c0-1.4,0.4-2.5,1.2-3.5c0.8-1,2-1.8,3.4-2.3c1.5-0.5,3.1-0.8,5-0.8c2.2,0,4,0.3,5.4,0.9
	c1.4,0.6,2.5,1.5,3.2,2.6c0.7,1.1,1,2.5,1,4.1V101c0,0.6,0.2,1,0.5,1.2c0.3,0.2,0.7,0.4,1.1,0.4h1.5v3.8c-0.3,0.1-0.7,0.3-1.3,0.4
	c-0.6,0.2-1.3,0.3-2.1,0.3c-0.8,0-1.5-0.1-2.1-0.4c-0.6-0.3-1.1-0.6-1.6-1.1c-0.4-0.5-0.7-1.1-0.9-1.7h-0.3
	c-0.5,0.6-1.1,1.2-1.8,1.7c-0.7,0.5-1.5,0.9-2.5,1.2C198.3,107,197.2,107.1,196,107.1 M197.7,102.6c0.9,0,1.7-0.1,2.4-0.4
	c0.7-0.3,1.3-0.7,1.8-1.1c0.5-0.5,0.8-1.1,1.1-1.8c0.3-0.7,0.4-1.5,0.4-2.3v-1.1c-1.7,0-3.2,0.1-4.6,0.3c-1.4,0.2-2.5,0.6-3.4,1.2
	c-0.8,0.6-1.2,1.4-1.2,2.5c0,0.5,0.1,1,0.4,1.4c0.3,0.4,0.7,0.7,1.2,1C196.2,102.5,196.9,102.6,197.7,102.6"/>
<path class="st2" d="M215.9,106.6V82.7h4.6l0.5,3.8h0.3c0.3-0.8,0.7-1.5,1.1-2.1c0.4-0.7,1-1.2,1.7-1.6c0.7-0.4,1.5-0.6,2.5-0.6
	c0.5,0,0.9,0,1.3,0.1c0.4,0.1,0.7,0.2,0.9,0.3v5.2h-1.7c-0.9,0-1.8,0.1-2.5,0.4c-0.7,0.3-1.3,0.7-1.8,1.2c-0.5,0.5-0.9,1.2-1.1,2
	c-0.2,0.8-0.4,1.8-0.4,2.9v12.3H215.9z"/>
<path class="st2" d="M238.7,107.1c-0.7,0-1.4-0.1-2.3-0.2c-0.9-0.2-1.7-0.5-2.5-0.9c-0.8-0.5-1.5-1.1-2-2c-0.5-0.9-0.8-2.1-0.8-3.5
	c0-1.6,0.4-3,1.1-4.1c0.7-1.1,1.7-1.9,3.1-2.5c1.3-0.6,2.9-1.1,4.7-1.3c1.8-0.3,3.8-0.4,6-0.4v-2c0-0.7-0.1-1.3-0.3-1.9
	c-0.2-0.5-0.6-1-1.2-1.3c-0.6-0.3-1.4-0.5-2.5-0.5s-2,0.1-2.6,0.4c-0.6,0.3-1.1,0.6-1.3,1c-0.2,0.4-0.4,0.8-0.4,1.2v0.6h-5.4
	c0-0.2,0-0.3,0-0.5v-0.5c0-1.4,0.4-2.5,1.2-3.5c0.8-1,2-1.8,3.4-2.3c1.5-0.5,3.1-0.8,5-0.8c2.2,0,4,0.3,5.4,0.9
	c1.4,0.6,2.5,1.5,3.2,2.6c0.7,1.1,1,2.5,1,4.1V101c0,0.6,0.2,1,0.5,1.2c0.3,0.2,0.7,0.4,1.1,0.4h1.5v3.8c-0.3,0.1-0.7,0.3-1.3,0.4
	c-0.6,0.2-1.3,0.3-2.1,0.3c-0.8,0-1.5-0.1-2.1-0.4c-0.6-0.3-1.1-0.6-1.6-1.1c-0.4-0.5-0.7-1.1-0.9-1.7h-0.3
	c-0.5,0.6-1.1,1.2-1.8,1.7c-0.7,0.5-1.5,0.9-2.5,1.2C241.1,107,240,107.1,238.7,107.1 M240.4,102.6c0.9,0,1.7-0.1,2.4-0.4
	c0.7-0.3,1.3-0.7,1.8-1.1c0.5-0.5,0.8-1.1,1.1-1.8c0.3-0.7,0.4-1.5,0.4-2.3v-1.1c-1.7,0-3.2,0.1-4.6,0.3c-1.4,0.2-2.5,0.6-3.4,1.2
	c-0.8,0.6-1.2,1.4-1.2,2.5c0,0.5,0.1,1,0.4,1.4c0.3,0.4,0.7,0.7,1.2,1C239,102.5,239.6,102.6,240.4,102.6"/>
<path class="st2" d="M267.9,107.1c-1.7,0-3.2-0.2-4.5-0.6c-1.3-0.4-2.4-0.9-3.3-1.6c-0.9-0.7-1.5-1.4-2-2.3
	c-0.4-0.9-0.7-1.9-0.7-2.9c0-0.2,0-0.3,0-0.4c0-0.1,0-0.2,0-0.3h5.5v0.2v0.2c0,0.8,0.3,1.5,0.8,2c0.5,0.5,1.1,0.9,1.9,1.1
	c0.8,0.2,1.6,0.3,2.5,0.3c0.8,0,1.5-0.1,2.2-0.2c0.7-0.2,1.3-0.4,1.8-0.8c0.5-0.4,0.7-0.9,0.7-1.5c0-0.8-0.3-1.4-0.9-1.8
	c-0.6-0.4-1.4-0.8-2.4-1c-1-0.3-2-0.6-3.2-0.9c-1-0.3-2-0.6-3-0.9c-1-0.3-1.9-0.8-2.7-1.3c-0.8-0.5-1.5-1.2-2-2s-0.7-1.8-0.7-3
	c0-1.2,0.3-2.2,0.8-3.1c0.5-0.9,1.2-1.6,2.1-2.2c0.9-0.6,2-1,3.2-1.3c1.2-0.3,2.6-0.5,4-0.5c1.4,0,2.7,0.2,3.9,0.5
	c1.2,0.3,2.2,0.7,3,1.3c0.9,0.6,1.5,1.2,2,2c0.5,0.8,0.7,1.7,0.7,2.7c0,0.2,0,0.4,0,0.6s0,0.3,0,0.4h-5.4v-0.3
	c0-0.6-0.2-1.1-0.5-1.5c-0.3-0.4-0.8-0.7-1.5-1c-0.7-0.2-1.5-0.4-2.4-0.4c-0.7,0-1.4,0.1-1.9,0.2c-0.5,0.1-1,0.3-1.3,0.5
	c-0.3,0.2-0.6,0.5-0.8,0.7c-0.2,0.3-0.3,0.6-0.3,0.9c0,0.6,0.2,1,0.7,1.4c0.5,0.3,1.1,0.6,1.8,0.9c0.8,0.2,1.6,0.5,2.5,0.8
	c1.1,0.3,2.2,0.6,3.4,0.9c1.2,0.3,2.2,0.7,3.2,1.2c1,0.5,1.8,1.2,2.4,2c0.6,0.9,0.9,2,0.9,3.5c0,1.4-0.3,2.6-0.8,3.6
	c-0.5,1-1.3,1.8-2.2,2.4c-1,0.6-2.1,1-3.4,1.3C270.8,107,269.4,107.1,267.9,107.1"/>
<path class="st3" d="M50.2,142.5c-3.5-6.4-18.1-15.1-20.6-16.9c-2.2-1.6,0.3-4.9,2.5-3.4c4.6,3.4,14.5,7.8,19.4,5.1
	c5.1-2.8,8.4-8.2,9.7-13.7c0.3-1.1,1.1-2,2.3-1.9c1.1,0.1,2.1,1.3,1.9,2.4C63.7,121.1,54.2,149.7,50.2,142.5"/>
<path class="st3" d="M51.7,118.9c-0.2,1.2-0.8,2.4-1.9,3.1c-0.8,0.7-1.9,1.1-2.9,1.2c-1.1,0.1-2.3-0.1-3.3-0.6
	c-0.5-0.3-1-0.5-1.4-0.9c-0.5-0.5-0.9-1-1.3-1.6c-0.3-0.5-0.2-1.2,0-1.6c0.2-0.4,0.8-1.1,0.8-1.1c0.1-1.1,0.6-2.3,1.2-3.1
	c0.8-0.9,1.8-1.5,3-1.8c1.2-0.3,2.5,0.1,3.4,0.8c0.9,0.6,1.6,1.5,1.9,2.4C51.7,116.7,51.9,117.9,51.7,118.9"/>
<path class="st4" d="M89.7,123.7c0,0.2,0,0.3,0,0.4c-0.3,2.2-1.5,4.1-3.1,5.6c-1.3,1.3-3,2.1-4.2,3.5c-5.8,6.9-0.3,8.8-1,11
	c-0.8,2.3-7,1.2-8.4,0.4c-6.3-4.1-6.7-23.8-6.2-29.8c0.3-4.1,4.6-4.4,3.3-0.2c-0.5,1.5-0.7,9-0.2,10.6c1.4,4.1,3.7,5.2,5.9,5.5
	c3.2,0.4,5.2,0,8.9-3.1c3-2.5,2.3-5,3.8-5.9C89.8,120.9,89.8,122.7,89.7,123.7"/>
<path class="st4" d="M73.2,123.3c0.1,1,0.5,2,1.2,2.7c0.6,0.6,1.5,1,2.3,1.1c0.9,0.2,1.8,0.1,2.6-0.2c0.5-0.2,0.9-0.4,1.2-0.7
	c0.5-0.4,0.8-0.7,1.1-1.2c0.3-0.3,0.2-0.9,0.2-1.3c-0.1-0.1-0.1-0.3-0.2-0.4c-0.3-0.4-0.5-0.9-0.6-1.4c-0.3-1.5-1.3-2.8-2.8-3.2
	c-1-0.3-2-0.1-2.8,0.4c-0.7,0.4-1.3,1.1-1.7,1.8C73.4,121.6,73.1,122.5,73.2,123.3"/>
<path class="st0" d="M3.4,123.9c-1.8-3.7,1.5-4.3,3.6-0.4c12.6,22.5,16.1-4.6,20.5,0.3c1,1.1-5.3,13.8-8.4,23.2
	C18.6,149,15.8,148.4,3.4,123.9"/>
<path class="st0" d="M114.8,20.7C91.9,33.2,59.8,48.9,3.5,56.8c0,0-1.3,0.2-1.2,1.6c0.1,1.4,1.2,1.4,1.2,1.4
	c33.6-4.1,78-8.3,131.1-30.6C134.6,29.2,122.3,24.4,114.8,20.7"/>
<path class="st0" d="M120.9,17.1c59.1,26.8,117.6,38.1,156.2,42.8c0,0,1.4,0.1,1.4-1.4c0-1.6-1.4-1.7-1.4-1.7
	C191.6,44.7,150.8,12.8,142.2,5.3c-1.2-1-1.5-1.2-1.8-1.2c-0.3,0-0.7,0.3-2.1,1.3C135,7.9,128.2,12.9,121,17L120.9,17.1z"/>
</svg>
