<?xml version="1.0" encoding="utf-8"?>
<!-- Generator: Adobe Illustrator 27.1.1, SVG Export Plug-In . SVG Version: 6.00 Build 0)  -->
<svg version="1.1" id="Capa_1" xmlns="http://www.w3.org/2000/svg" xmlns:xlink="http://www.w3.org/1999/xlink" x="0px" y="0px"
	 viewBox="0 0 310 150" style="enable-background:new 0 0 310 150;" xml:space="preserve">
<style type="text/css">
	.st0{fill:#03A5B6;}
</style>
<path class="st0" d="M13.5,18.4l4.4,11.5l12.5-4.3l-3.2-11.4l1.2-0.5l-2.6-9L8.1,10.6l3.6,8.2L13.5,18.4z M12.7,16.9l-2.4-5.7
	l3.5-1.1l1.2,2.7l1.8-0.5l-1-2.8l3.3-1.1l1.2,2.8l1.8-0.6L21.4,8l3.2-1.2l2.1,5.8"/>
<path class="st0" d="M34.4,12.2l1.3,12.3l13.2-1l-0.2-11.8l1.3-0.2l-0.2-9.3L31.1,3.3l1.4,8.9L34.4,12.2z M36.6,4.4l0.5,2.9l1.9,0
	l-0.2-3l3.8-0.2l0.1,3l1.9-0.1l0-2.8L48,3.8l0.5,6.2l-14.6,1.1L33,4.6L36.6,4.4z"/>
<path class="st0" d="M87.1,29.3L91.4,18l1.5,0.4L96,9.5L78.3,4.7l-1.9,8.7l1.1,0.6l-3,11.7L87.1,29.3z M79.3,6.4l3.5,1l-0.5,2.9
	l1.8,0.6l0.7-2.8L88.5,9l-0.9,3l1.8,0.5l0.9-2.6l3.4,0.8l-1.5,6l-14-4.2L79.3,6.4z"/>
<path class="st0" d="M54.6,23.3l13.5,1.5l1.7-12l1.8,0.1l1.7-9l-18.5-2l-0.5,9.1h1.2L54.6,23.3z M56,3.8l3.6,0.3L59.8,7l1.9,0.2
	l0.2-2.9l3.8,0.2l-0.3,3l1.9,0.1L67.5,5l3.8,0.1l-0.7,6.1L55.8,9.9L56,3.8z"/>
<path class="st0" d="M18.3,32.2L22.4,43l0.5-0.2c9.3-3.4,19.2-5.1,29.5-5.1c16.9,0,29.2,4.8,29.7,5l0.5,0.2l3.6-10.6l-0.5-0.2
	c-11-4.2-22.4-6.3-34-6.3c-17.9,0-30.6,5.1-32.9,6.2L18.3,32.2z"/>
<path class="st0" d="M30.1,115.6c0,0,1-0.8,1.1-1.4c0,0,3,5.2,6.9-0.1c0,0,3.2,5.2,6.8,0c0,0,2.6,4.9,7,0.3v3.9c0,0-3.1,5.2-7-0.2
	c0,0-2.9,5.7-6.7-0.1c0,0-0.9,2.7-3.7,2.4C34.5,120.4,31.7,118.3,30.1,115.6"/>
<path class="st0" d="M52,121.8v4.4c0,0-6.6,0.9-14.5-3.7c0,0,0.3,0.1,0.4-0.8c0,0,2.6,5,6.9,0.2C44.9,121.9,48.1,127.1,52,121.8"/>
<path class="st0" d="M51.9,109.5c0,0,3.2,6.2,6.9,0.3c0,0,3.4,5.8,6.8-0.2c0,0,3.1,6.1,6.7,0.1c0,0,0.9,2.8,3.7,2.2
	c0,0-1.9,4-2.3,4.3c0,0-1.3-0.9-1.5-1.9c0,0-2.8,5.2-6.7-0.1c0,0-2.6,5.4-6.8,0.3c0,0-2.6,5.1-6.8-0.2V109.5z"/>
<path class="st0" d="M51.9,118.4v3.4c0,0,3.2,5.9,6.8,0.4c0,0,3.7,4.8,6.6-0.2c0,0,0.4,0.9,1.3,0.8c0,0,0.9-0.6,3-2.3
	c0,0-2.5,0.8-4.1-2.4c0,0-3,5.3-6.7,0.1C58.8,118.3,56.3,123.3,51.9,118.4"/>
<path class="st0" d="M28.7,73.9c0,0,0.2,2.3,2.4,4.3c0,0-0.6,0.9-3.1-0.8c0,0,0.5,1.7,3.2,3c0,0-0.2,0.8-2.7,0.5
	c0,0,0.9,1.3,2.8,1.8c0,0-0.1,0.8-2.6,0.8c0,0,1.2,1.1,2.6,2c0,0-0.6,0.9-1.9,1.2c0,0,2.3,0.4,2.6,0.4c0,0-0.1,1.3-0.9,1.3
	c0,0,1.6-0.3,2-0.4c0.4-0.2,0,0.8-0.3,1.2c-0.3,0.4-0.1,0.8,0.3,0.6c0,0,2-2,2.9-1.6c0,0,0.8,0,0.2,2.6c0,0-2.6,1.8-2.9,3.3
	c0,0-0.2,0.7-1.2,1.1c0,0-2.5,0.6-2.8,0.8c0,0,0.9,0.3,1.4,0.3l-0.9,0.7l1.3-0.3L31,97.9l0.9-0.9l0.5,0.7L33,96c0,0,0.7-1.2,1.5-1.4
	c0,0,1.5-0.8,1.6-1.9c0,0,0.7-1.4,1.3,0.2c0,0,0.6,1.9,0.2,3.4c0,0-0.5,1.8-1.7,0.5c0,0-0.5-0.7-0.2-1c0,0-0.4-0.8-0.9,0.5
	c0,0-0.2,1.4,1.9,1.9c2,0.5,1.9,1.7,1.9,1.7s1-1.5,2.1-1.7c1.1-0.2,2.3-0.2,1.7-2.2c0,0-0.8-0.6-0.6,0.3c0,0-0.3,1.7-1.4,0.7
	c0,0-1.1-1.9-0.4-3.5c0,0,0.3-0.8,0.6-1.2c0,0,0.2,2,3.1,2.6c0,0,0.9,0.5,1.2,1.7v0.9l0.6-0.5l1.1,1.5l-0.4-1.7c0,0,0.9-0.1,1.2,0.5
	c0,0,0.3-0.7-0.5-1c0,0,0.1-0.6,0.9-0.3c0,0-0.2-0.9-2.3-1.1c0,0-0.7,0.3-1.5-1.4c0,0-0.5-2.1-2.3-2.6c0,0-1.1-1.4-0.3-2.3
	c0,0,0-0.3,0.9,0.4c0,0,1.2,0.6,2.6,0.7c0,0-1.3-1.2-0.8-1.6c0,0,1,0.8,2.6,0.2c0,0-1.4-0.6-1.1-1.4c0,0,1.5,0.1,2.5-0.4
	c0,0,0.7-0.3-0.8-0.5c0,0-1.3-0.3-1.6-1.2c0,0,2.6-0.2,3.2-1.4c0,0-1.8,0.5-2.8-0.1c0,0-0.5-0.6,0.4-0.6c0,0,2.3-0.9,2.8-2.4
	c0,0-1.7,1.3-2.6,0.8c0,0,2.7-1.7,3.5-4.4c0,0-1.9,1.7-3.2,1.7c0,0-1.3,0.2,0.1-0.9c0,0,2-2.1,1.8-3.9c0,0-2,3.1-3.6,3.1
	c0,0-0.9,0,0-1.4c0,0-2.8,0.2-3,3.7c0,0,0.7,5-0.7,4.9c-1.4-0.1-1.6-0.3-1.6-1.4s0.6-3.7-0.6-4.1c-1.1-0.4-1.6,0-2.2,0.4
	c-0.6,0.4-1,0.3-1.2,0.4c0,0-0.5,0.5,0.4,0.9c0,0,1.6-0.1,1.6,1c0,0,0.5,2.5-1.4,2.7c0,0-1.3,0.2-1.2-1.3c0,0,0.7-5-1-6.4
	c0,0-1.6-1.1-2-1.1c0,0-0.9-0.2,0.3,0.8c0,0,1.8,1.4-0.5,0.7C31.9,76.5,30,75.6,28.7,73.9"/>
<path class="st0" d="M26.3,107.5c0,0,3.5,1.1,5.1-2.1c0,0,3,5.4,6.8,0.1c0,0,3.2,5.4,6.8-0.1c0,0,3.1,5.1,6.8,0.1v3.9
	c0,0-2.5,6.8-7,0.9c0,0-2.9,5.3-6.8,0.1c0,0-2.9,5.3-6.8-0.1c0,0-0.7,2.8-3,2.3C28.2,112.7,26.1,110,26.3,107.5"/>
<path class="st0" d="M51.8,64.9l-0.1,40.7c4.3,4.4,6.8-0.5,6.8-0.5c3.9,5.4,6.8,0.1,6.8,0.1c0,0.1,0.1,0.1,0.1,0.2
	c3.7,5,6.6-0.3,6.6-0.3c1.6,3.2,4.4,2.1,4.4,2.1l0.6-42.3H51.8z M72.1,81.4c0.9,0.5,2.6-0.8,2.6-0.8C74.3,82.1,72,83,72,83
	c-0.9,0-0.4,0.6-0.4,0.6c1,0.6,2.8,0.1,2.8,0.1c-0.6,1.2-3.2,1.4-3.2,1.4c0.3,0.9,1.6,1.2,1.6,1.2c1.4,0.2,0.8,0.5,0.8,0.5
	c-0.9,0.5-2.5,0.4-2.5,0.4c-0.3,0.8,1.1,1.4,1.1,1.4c-1.5,0.6-2.6-0.2-2.6-0.2c-0.5,0.4,0.8,1.6,0.8,1.6c-1.4-0.1-2.6-0.7-2.6-0.7
	C67,88.6,67,88.9,67,88.9c-0.8,0.9,0.3,2.3,0.3,2.3c1.8,0.5,2.3,2.6,2.3,2.6c0.8,1.6,1.5,1.4,1.5,1.4c2.1,0.3,2.3,1.1,2.3,1.1
	c-0.9-0.3-0.9,0.3-0.9,0.3c0.8,0.3,0.5,1,0.5,1c-0.3-0.6-1.2-0.5-1.2-0.5l0.4,1.7l-1.1-1.5l-0.6,0.5v-0.9c-0.3-1.2-1.2-1.7-1.2-1.7
	c-3-0.6-3.1-2.6-3.1-2.6c-0.3,0.4-0.6,1.2-0.6,1.2c-0.7,1.6,0.4,3.5,0.4,3.5c1.1,1,1.4-0.7,1.4-0.7c-0.2-0.9,0.6-0.3,0.6-0.3
	c0.6,2-0.6,2-1.7,2.2c-1.1,0.2-2.1,1.7-2.1,1.7s0.2-1.2-1.9-1.7c-2-0.5-1.9-1.9-1.9-1.9c0.5-1.3,0.9-0.5,0.9-0.5
	c-0.3,0.3,0.2,1,0.2,1c1.2,1.3,1.7-0.5,1.7-0.5c0.4-1.5-0.2-3.4-0.2-3.4c-0.6-1.5-1.3-0.2-1.3-0.2c-0.1,1.1-1.6,1.9-1.6,1.9
	c-0.8,0.3-1.5,1.4-1.5,1.4L58,98l-0.5-0.7l-0.9,0.9l0.2-1.4l-1.3,0.3l0.9-0.7c-0.5,0-1.4-0.3-1.4-0.3c0.3-0.2,2.8-0.8,2.8-0.8
	c1-0.4,1.2-1.1,1.2-1.1c0.3-1.5,2.9-3.3,2.9-3.3c0.6-2.6-0.2-2.6-0.2-2.6c-0.9-0.3-2.9,1.6-2.9,1.6c-0.4,0.2-0.7-0.2-0.3-0.6
	c0.3-0.4,0.8-1.4,0.3-1.2c-0.3,0.1-1.4,0.3-1.8,0.4c-0.1,0-0.1,0-0.2,0c0,0,0.1,0,0.2,0c0.6-0.2,0.7-1.2,0.7-1.2
	c-0.3,0-2.6-0.4-2.6-0.4c1.3-0.3,1.9-1.2,1.9-1.2c-1.4-0.8-2.6-2-2.6-2c2.6,0,2.6-0.8,2.6-0.8c-1.9-0.5-2.8-1.8-2.8-1.8
	c2.6,0.3,2.7-0.5,2.7-0.5c-2.7-1.3-3.2-3-3.2-3c2.5,1.7,3.1,0.8,3.1,0.8c-2.2-2-2.4-4.3-2.4-4.3c1.3,1.7,3.1,2.6,3.1,2.6
	c2.3,0.7,0.5-0.7,0.5-0.7c-1.1-1-0.3-0.8-0.3-0.8c0.4,0,2,1.1,2,1.1c1.7,1.4,1,6.4,1,6.4c-0.1,1.5,1.2,1.3,1.2,1.3
	c2-0.3,1.4-2.7,1.4-2.7c0-1.1-1.6-1-1.6-1c-0.8-0.3-0.4-0.8-0.4-0.8c0.2,0,0.6,0,1.2-0.4c0.6-0.4,1.1-0.8,2.2-0.4
	c1.1,0.4,0.6,2.9,0.6,4.1c0,1.2,0.3,1.4,1.6,1.4c1.4,0.1,0.7-4.9,0.7-4.9c0.2-3.6,3-3.7,3-3.7c-0.9,1.4,0,1.4,0,1.4
	c1.6,0,3.6-3.1,3.6-3.1c0.3,1.8-1.8,3.9-1.8,3.9c-1.4,1.1-0.1,0.9-0.1,0.9c1.4,0,3.2-1.7,3.2-1.7C74.9,79.6,72.1,81.4,72.1,81.4"/>
<path class="st0" d="M4.6,44.9l0.5,63C5,127,17.7,137,28.3,141.9c11.5,5.3,23.3,6.2,23.4,6.2c24.6-2.3,36-12.6,41.2-20.8
	c5.6-8.8,5.5-17.1,5.4-17.5v-65h-53l0.4,0.3c0,0,0.8,0.6,2.7,0.5c0,0,1,0,1.7,0.6c0.4,0.4,0.7,1,0.7,1.7c-0.1,0.9-0.2,2-0.1,2.2
	l0.2,0.4l-0.5-0.1c-0.8,0-5.1-0.3-5.1-2v-3.6H4.6z M13.8,48.4c0.1-0.1,1.8-1.3,3.8-1c1.2,0.2,2.2,0.8,3,2l0.3,0.4h-0.5
	c0,0-2.9,0-4,0.4l-0.1,0.1l-0.1-0.1c-0.7-0.6-1.8-1.3-2.1-1.3h-0.8L13.8,48.4z M15.8,52.1c0,0-2,0.6-2.8,2l-0.2,0.4l-0.2-0.4
	c0-0.1-0.9-1.6,0.1-2.6c1.1-1.1,3.1,0.1,3.2,0.1l0.5,0.3L15.8,52.1z M16.2,55.6c-0.3,0.7-1,1-1,1l-0.1,0l-0.1,0
	c-0.5-0.2-0.9-0.5-1-0.9c-0.3-0.9,0.6-2.1,0.6-2.1l0,0c0.2-0.1,0.6-0.6,1-0.4c0.4,0.2,0.4,0.6,0.4,0.8
	C16.4,54.6,16.4,55.2,16.2,55.6 M15.5,58l1,0.4l-1.1,0.2c-0.9,0.1-1.7,0.2-2.2,0.2c-0.9,0-1.3-0.1-1.5-0.3c-0.2-0.1-0.5-0.7-0.7-4
	L11,52.6l0.6,1.7C12.6,56.9,15.5,58,15.5,58 M12.4,80.8c0,0,1,0,1.7,0.6c0.4,0.4,0.7,1,0.7,1.7c-0.1,0.9-0.2,2-0.1,2.2l0.2,0.4
	l-0.5-0.1c-0.8,0-5.1-0.3-5.1-2V80l0.4,0.3C9.8,80.3,10.6,80.9,12.4,80.8L12.4,80.8z M9.7,85.8c0,0,0.8,0.6,2.7,0.5h0
	c0,0,1,0,1.7,0.6c0.4,0.4,0.7,1,0.7,1.7c-0.1,0.9-0.2,2-0.1,2.2l0.2,0.4l-0.5-0.1c-0.8,0-5.1-0.3-5.1-2v-3.7L9.7,85.8z M14.8,96.1
	l0.2,0.4l-0.5-0.1c-0.8,0-5.1-0.3-5.1-2v-3.7l0.4,0.3c0,0,0.8,0.6,2.7,0.5c0,0,1,0,1.7,0.6c0.4,0.4,0.7,1,0.7,1.7
	C14.8,94.9,14.7,95.9,14.8,96.1 M9.8,108.4c1.6-1.2,4.1,0.4,4.2,0.5l0.6,0.4l-0.7,0.1c0,0-3.1,0.6-4.5,3.6L9,113.7l-0.2-0.8
	C8.8,112.7,8.2,109.5,9.8,108.4 M15.8,111.3c0,0-2,0.6-2.8,2l-0.2,0.4l-0.2-0.4c0-0.1-0.9-1.6,0.1-2.6c1.1-1.1,3.1,0.1,3.2,0.1
	l0.5,0.3L15.8,111.3z M16.2,114.8c-0.3,0.7-1,1-1,1l-0.1,0l-0.1,0c-0.5-0.2-0.9-0.5-1-0.9c-0.3-0.9,0.6-2.1,0.6-2.1l0,0
	c0.2-0.1,0.6-0.6,1-0.4c0.4,0.2,0.4,0.6,0.4,0.8C16.4,113.8,16.4,114.3,16.2,114.8 M11.6,113.5c1,2.6,3.9,3.7,3.9,3.7l1,0.4
	l-1.1,0.2c-0.9,0.1-1.7,0.2-2.2,0.2c-0.9,0-1.3-0.1-1.5-0.3c-0.2-0.1-0.5-0.7-0.7-4l-0.1-1.8L11.6,113.5z M16.4,116.7
	c-0.3-0.2-0.4-0.5-0.4-0.5l-0.1-0.2l0.2-0.1c1-0.5,0.7-2.6,0.5-3.4l-0.1-0.5l0.5,0.1c0.7,0.2,1.2,0.6,1.5,1.2
	c0.6,1.3-0.4,3.2-0.4,3.3l-0.1,0.1l-0.1,0c-0.3,0.1-0.5,0.1-0.8,0.1C16.8,116.9,16.6,116.9,16.4,116.7 M16.4,109.5l-0.1,0.1
	l-0.1-0.1c-0.7-0.6-1.8-1.3-2.1-1.3h-0.8l0.6-0.5c0.1-0.1,1.8-1.3,3.8-1c1.2,0.2,2.2,0.8,3,2l0.3,0.4h-0.5
	C20.3,109,17.4,109,16.4,109.5 M16.4,96.6l-0.5,0l0.2-0.4c0-0.2,0-1.3-0.1-2.1c0-0.8,0.2-1.3,0.6-1.8c0.7-0.7,1.7-0.6,1.7-0.6
	c1.8,0.1,2.7-0.5,2.7-0.5l0.4-0.3l0,3.7C21.4,96.3,17.2,96.6,16.4,96.6 M16.5,91.2l-0.5,0l0.2-0.4c0-0.2,0-1.3-0.1-2.1
	c0-0.8,0.2-1.3,0.6-1.8c0.7-0.7,1.7-0.6,1.7-0.6c1.8,0.1,2.7-0.5,2.7-0.5l0.4-0.3l0,3.7C21.6,90.9,17.3,91.2,16.5,91.2 M16.5,85.8
	l-0.5,0l0.2-0.4c0-0.2,0-1.3-0.1-2.1c0-0.8,0.2-1.3,0.6-1.8c0.7-0.7,1.7-0.6,1.7-0.6c1.8,0.1,2.7-0.5,2.7-0.5l0.4-0.3l0,3.7
	C21.6,85.5,17.3,85.8,16.5,85.8 M17.2,62l0.1,1.5l3.4,0.1L17.3,67v3.2l-2.1,0.1L15,62.1c-1.5-0.3-2.2-1.9-2.2-2l-0.2-0.4l0.5,0.1
	c5.1,0.8,7.8-3.4,7.9-3.5l0.4-0.7l0.1,0.8C21.7,59.8,18.1,61.6,17.2,62 M18.1,57.5L18,57.6l-0.1,0c-0.3,0.1-0.5,0.1-0.8,0.1
	c-0.3,0-0.5-0.1-0.7-0.2c-0.3-0.2-0.4-0.5-0.4-0.5l-0.1-0.2l0.2-0.1c1-0.5,0.7-2.6,0.5-3.4l-0.1-0.5L17,53c0.7,0.2,1.2,0.6,1.5,1.2
	C19,55.6,18.1,57.4,18.1,57.5 M9.8,49.2c1.6-1.2,4.1,0.4,4.2,0.5l0.6,0.4l-0.7,0.1c0,0-3.1,0.6-4.5,3.6L9,54.5l-0.2-0.8
	C8.8,53.6,8.2,50.4,9.8,49.2 M9.8,53.7l0.6-0.8l-0.1,1c0,0-0.3,3.6,1.5,5.8l0.3,0.4l-0.5,0.1c0,0-0.3,0-0.7,0
	c-0.8,0-2.2-0.2-2.8-1.2C7.5,57.9,8.1,56.1,9.8,53.7 M11.7,119.3c0,0-0.3,0-0.7,0c-0.8,0-2.2-0.2-2.8-1.2c-0.7-1.1-0.1-2.9,1.7-5.3
	l0.6-0.8l-0.1,1c0,0-0.3,3.6,1.5,5.8l0.3,0.4L11.7,119.3z M17.3,122.6l3.4,0.1l-3.4,3.4v3.2l-2.1,0.1l-0.2-8.2
	c-1.5-0.3-2.2-1.9-2.2-2l-0.2-0.4l0.5,0.1c5.1,0.8,7.8-3.4,7.9-3.5l0.4-0.7l0.1,0.8c0.3,3.4-3.4,5.2-4.2,5.6L17.3,122.6z
	 M21.8,113.4L21.8,113.4c-0.2,0.3-1.5,2.7-2.5,2.9l-0.6,0.1l0.4-0.5c0.1-0.1,1.7-2.6-1.7-5.6l-0.4-0.4l0.6-0.1
	c0.1,0,2.7-0.4,3.9,0.9C22,111.4,22.1,112.3,21.8,113.4 M21.8,54.3L21.8,54.3c-0.2,0.3-1.5,2.7-2.5,2.9l-0.6,0.1l0.4-0.5
	c0.1-0.1,1.7-2.6-1.7-5.6l-0.4-0.4l0.6-0.1c0.1,0,2.7-0.4,3.9,0.9C22,52.2,22.1,53.1,21.8,54.3 M50.7,135.5l0.2,0.4l-0.5,0
	c-0.8,0-5.1-0.3-5.1-2v-3.7l0.4,0.3c0,0,0.8,0.6,2.7,0.5c0,0,1,0,1.7,0.6c0.4,0.4,0.7,1,0.7,1.7C50.8,134.3,50.7,135.3,50.7,135.5
	 M45.8,136c0,0,0.8,0.6,2.7,0.5h0c0,0,1,0,1.7,0.6c0.4,0.4,0.7,1,0.7,1.7c-0.1,0.9-0.2,2-0.1,2.2l0.2,0.4l-0.5-0.1
	c-0.8,0-5.1-0.3-5.1-2v-3.7L45.8,136z M50.6,146.7c-0.8,0-5.1-0.3-5.1-2V141l0.4,0.3c0,0,0.8,0.6,2.7,0.5c0,0,1,0,1.7,0.6
	c0.4,0.4,0.7,1,0.7,1.7c-0.1,0.9-0.2,2-0.1,2.2l0.2,0.4L50.6,146.7z M52.5,146.8l-0.5,0l0.2-0.4c0-0.2-0.1-1.2-0.2-2.1
	c0-0.8,0.2-1.3,0.6-1.8c0.7-0.7,1.7-0.6,1.7-0.6c1.8,0.1,2.7-0.5,2.7-0.5l0.4-0.3l0,3.7C57.5,146.5,53.3,146.8,52.5,146.8
	 M52.6,141.4l-0.5,0l0.2-0.4c0-0.2,0-1.2-0.2-2.1c0-0.8,0.2-1.3,0.6-1.8c0.7-0.7,1.7-0.6,1.7-0.6c1.8,0.1,2.7-0.5,2.7-0.5l0.4-0.3
	l0,3.7C57.6,141.1,53.4,141.4,52.6,141.4 M52.6,136l-0.5,0l0.2-0.4c0-0.2,0-1.2-0.2-2.1c0-0.8,0.2-1.3,0.6-1.8
	c0.7-0.7,1.7-0.6,1.7-0.6c1.8,0.1,2.7-0.5,2.7-0.5l0.4-0.3l0,3.7C57.6,135.7,53.4,136,52.6,136 M91.4,119.3c0,0.1-0.7,1.6-2.2,2
	l-0.2,8.2l-2.1-0.1v-3.2l-3.4-3.4l3.4-0.1l0.1-1.5c-0.9-0.4-4.5-2.2-4.2-5.6l0.1-0.8l0.4,0.7c0,0,2.7,4.3,7.9,3.5l0.5-0.1
	L91.4,119.3z M88,56.8l0.2,0.1l-0.1,0.2c0,0-0.1,0.3-0.4,0.5c-0.2,0.1-0.4,0.2-0.7,0.2c-0.2,0-0.5,0-0.8-0.1l-0.1,0l-0.1-0.1
	c0-0.1-1-1.9-0.4-3.3c0.3-0.6,0.8-1,1.5-1.2l0.5-0.1l-0.1,0.5C87.3,54.2,87,56.3,88,56.8 M88.1,113.2c0-0.2,0.1-0.6,0.4-0.8
	c0.4-0.2,0.9,0.2,1,0.4c0.1,0.1,0.9,1.2,0.6,2.2c-0.1,0.4-0.5,0.7-1,0.9l-0.1,0l-0.1,0c0,0-0.7-0.3-1-1
	C87.8,114.3,87.8,113.8,88.1,113.2 M87.8,111.1l0.5-0.3c0.1,0,2.1-1.2,3.2-0.1c1.1,1.1,0.2,2.6,0.1,2.6l-0.2,0.4l-0.2-0.4
	c-0.9-1.4-2.8-2-2.8-2L87.8,111.1z M88.7,117.2c0,0,2.9-1.1,3.9-3.7l0.6-1.7l-0.1,1.8c-0.2,3.4-0.5,3.9-0.7,4
	c-0.2,0.2-0.6,0.3-1.5,0.3c-0.5,0-1.3-0.1-2.2-0.2l-1.1-0.2L88.7,117.2z M90.3,109.3l-0.7-0.1l0.6-0.4c0.1-0.1,2.6-1.7,4.2-0.5
	c1.6,1.2,1,4.4,0.9,4.5l-0.2,0.8l-0.3-0.7C93.5,109.9,90.4,109.3,90.3,109.3 M89.3,94L89.3,94c0-0.8,0.2-1.3,0.6-1.8
	c0.7-0.7,1.7-0.6,1.7-0.6c1.8,0.1,2.7-0.5,2.7-0.5l0.4-0.3l0,3.7c0,1.7-4.2,2-5.1,2l-0.5,0l0.2-0.4C89.5,95.9,89.4,94.9,89.3,94
	 M89.4,88.6c0-0.8,0.2-1.3,0.6-1.8c0.7-0.7,1.7-0.6,1.7-0.6c1.8,0.1,2.7-0.5,2.7-0.5l0.4-0.3l0,3.7c0,1.7-4.2,2-5.1,2l-0.5,0
	l0.2-0.4C89.6,90.6,89.5,89.5,89.4,88.6 M89.8,85.7l-0.5,0l0.2-0.4c0-0.2,0-1.2-0.2-2.1c0-0.8,0.2-1.3,0.7-1.8
	c0.7-0.7,1.7-0.6,1.7-0.6c1.8,0.1,2.7-0.5,2.7-0.5l0.4-0.3l0,3.7C94.9,85.4,90.7,85.6,89.8,85.7 M90.9,58.7c-0.5,0-1.3-0.1-2.2-0.2
	l-1.1-0.2l1-0.4c0,0,2.9-1.1,3.9-3.7l0.6-1.7l-0.1,1.8c-0.2,3.4-0.5,3.9-0.7,4C92.2,58.6,91.8,58.7,90.9,58.7 M88,55.6
	c-0.2-0.5-0.2-1,0.1-1.6c0-0.2,0.1-0.6,0.4-0.8c0.4-0.2,0.9,0.2,1,0.4c0.1,0.1,0.9,1.2,0.6,2.2c-0.1,0.4-0.5,0.7-1,0.9l-0.1,0
	l-0.1,0C89,56.6,88.3,56.3,88,55.6 M91.7,54.1l-0.2,0.4l-0.2-0.4c-0.9-1.4-2.8-2-2.8-2l-0.6-0.2l0.5-0.3c0.1,0,2.1-1.2,3.2-0.1
	C92.6,52.6,91.7,54.1,91.7,54.1 M91.1,59.8l0.5-0.1l-0.2,0.4c0,0.1-0.7,1.6-2.2,2L89,70.3l-2.1-0.1V67l-3.4-3.4l3.4-0.1L87,62
	c-0.9-0.4-4.5-2.2-4.2-5.6l0.1-0.8l0.4,0.7C83.2,56.3,85.9,60.6,91.1,59.8 M83.1,80.4c0,0,0.8,0.6,2.7,0.5l0,0c0,0,1,0,1.7,0.6
	c0.4,0.4,0.7,1,0.7,1.7c-0.1,0.9-0.2,2-0.1,2.2l0.2,0.4l-0.5-0.1c-0.8,0-5.1-0.3-5.1-2v-3.7L83.1,80.4z M83.1,85.9
	c0,0,0.8,0.6,2.7,0.5l0,0c0,0,1,0,1.7,0.6c0.4,0.4,0.7,1,0.7,1.7c-0.1,0.9-0.2,2-0.1,2.2l0.2,0.4l-0.5-0.1c-0.8,0-5.1-0.3-5.1-2
	v-3.7L83.1,85.9z M82.8,90.9l0.4,0.3c0,0,0.8,0.6,2.7,0.5c0,0,1,0,1.7,0.6c0.4,0.4,0.7,1,0.7,1.7c-0.1,0.9-0.2,2-0.1,2.2l0.2,0.4
	l-0.5-0.1c-0.8,0-5.1-0.3-5.1-2V90.9z M83.6,108.6c0.8-1.1,1.8-1.8,3-2c2-0.3,3.7,1,3.8,1l0.6,0.5h-0.8c-0.4,0-1.5,0.8-2.1,1.3
	l-0.1,0.1l-0.2-0.1c-1-0.4-3.9-0.4-4-0.4h-0.5L83.6,108.6z M88,115.9l0.2,0.1l-0.1,0.2c0,0-0.1,0.3-0.4,0.5
	c-0.2,0.1-0.4,0.2-0.7,0.2c-0.2,0-0.5,0-0.8-0.1l-0.1,0l-0.1-0.1c0-0.1-1-1.9-0.4-3.3c0.3-0.6,0.8-1,1.5-1.2l0.5-0.1l-0.1,0.5
	C87.3,113.3,87,115.5,88,115.9 M96,118.2c-0.6,1-2,1.2-2.8,1.2c-0.4,0-0.6,0-0.7,0l-0.5-0.1l0.3-0.4c1.8-2.2,1.5-5.8,1.5-5.8l-0.1-1
	l0.6,0.8C96.1,115.3,96.7,117.1,96,118.2 M96,59c-0.6,1-2,1.2-2.8,1.2c-0.4,0-0.6,0-0.7,0L92,60.1l0.3-0.4c1.8-2.2,1.5-5.8,1.5-5.8
	l-0.1-1l0.6,0.8C96.1,56.1,96.7,57.9,96,59 M94.4,49.2c1.6,1.2,1,4.4,0.9,4.5l-0.2,0.8l-0.3-0.7c-1.4-3.1-4.5-3.6-4.5-3.6L89.7,50
	l0.6-0.4C90.3,49.6,92.8,48,94.4,49.2 M83.6,49.4c0.8-1.1,1.8-1.8,3-2c2-0.3,3.7,1,3.8,1l0.6,0.5h-0.8c-0.4,0-1.5,0.8-2.1,1.3
	L88,50.4l-0.2-0.1c-1-0.4-3.9-0.4-4-0.4h-0.5L83.6,49.4z M82.8,51.6c1.2-1.3,3.8-0.9,3.9-0.9l0.6,0.1l-0.4,0.4
	c-3.4,2.9-1.8,5.5-1.7,5.6l0.4,0.5l-0.6-0.1c-1-0.2-2.3-2.5-2.5-2.8l0-0.1C82.1,53.1,82.2,52.2,82.8,51.6 M82.8,110.8
	c1.2-1.3,3.8-0.9,3.9-0.9l0.6,0.1l-0.4,0.4c-3.4,2.9-1.8,5.5-1.7,5.6l0.4,0.5l-0.6-0.1c-1-0.2-2.3-2.5-2.5-2.8l0-0.1
	C82.1,112.3,82.2,111.4,82.8,110.8 M79.5,109.9c0,0.2-1.4,19.8-27.5,20.2c0,0-0.3,0-0.8,0c-4,0-21.1-1.1-27.4-20.1l0-0.1l-0.4-48
	h56.7L79.5,109.9z M52.2,48.1c0-0.8,0.2-1.3,0.6-1.8c0.7-0.7,1.7-0.6,1.7-0.6h0c1.8,0.1,2.7-0.5,2.7-0.5l0.4-0.3l0,3.7
	c0,1.7-4.2,2-5.1,2l-0.5,0l0.2-0.4C52.4,50.1,52.3,49,52.2,48.1 M52.3,55.7c0-0.2,0-1.2-0.2-2.1c0-0.8,0.2-1.3,0.6-1.8
	c0.7-0.7,1.7-0.6,1.7-0.6c1.8,0.1,2.7-0.5,2.7-0.5l0.4-0.3l0,3.7c0,1.7-4.2,2-5.1,2l-0.5,0L52.3,55.7z M52.1,59
	c0-0.8,0.2-1.3,0.6-1.8c0.7-0.7,1.7-0.6,1.7-0.6c1.8,0.1,2.7-0.5,2.7-0.5l0.4-0.3l0,3.7c0,1.7-4.2,2-5.1,2l-0.5,0l0.2-0.4
	C52.2,60.9,52.2,59.9,52.1,59 M50.8,61l0.2,0.4l-0.5-0.1c-0.8,0-5.1-0.3-5.1-2v-3.7L46,56c0,0,0.8,0.6,2.7,0.5c0,0,1,0,1.7,0.6
	c0.4,0.4,0.7,1,0.7,1.7C50.9,59.7,50.8,60.8,50.8,61 M45.8,50.6c0,0,0.8,0.6,2.7,0.5c0,0,1,0,1.7,0.6c0.4,0.4,0.7,1,0.7,1.7
	c-0.1,0.9-0.2,2-0.1,2.2l0.2,0.4L50.5,56c-0.8,0-5.1-0.3-5.1-2v-3.7L45.8,50.6z"/>
<rect x="113.6" y="46.7" class="st0" width="2.2" height="18"/>
<rect x="120.6" y="45.2" class="st0" width="2.1" height="19.5"/>
<path class="st0" d="M132.2,65.1c-0.7,0-1.3-0.1-1.8-0.2c-0.5-0.1-1-0.3-1.4-0.6c-0.4-0.3-0.7-0.6-1-0.9c-0.3-0.4-0.5-0.8-0.7-1.2
	c-0.1-0.3-0.2-0.7-0.3-1.1c-0.1-0.4-0.1-0.8-0.1-1.3V52h2.1v7.8c0,0.7,0.1,1.3,0.3,1.8c0.2,0.5,0.6,1,1,1.3c0.5,0.3,1.1,0.5,1.8,0.5
	c0.8,0,1.4-0.2,1.9-0.5c0.5-0.3,0.8-0.8,1-1.4c0.2-0.4,0.2-1,0.2-1.6V52h2.1v7.9c0,0.4,0,0.8-0.1,1.2c-0.1,0.4-0.1,0.7-0.2,1
	c-0.2,0.4-0.4,0.8-0.7,1.2c-0.3,0.4-0.6,0.7-1,1c-0.4,0.3-0.9,0.5-1.4,0.6C133.5,65,132.9,65.1,132.2,65.1"/>
<path class="st0" d="M143.2,55.4c0,0.3,0.1,0.6,0.2,0.9c0.1,0.2,0.3,0.4,0.6,0.5c0.3,0.1,0.5,0.3,0.9,0.3c0.3,0.1,0.7,0.2,1,0.2
	c0.5,0.1,0.9,0.2,1.4,0.4c0.4,0.1,0.8,0.3,1.2,0.6c0.4,0.3,0.7,0.6,0.9,1.1c0.2,0.4,0.3,1,0.3,1.7c0,0.6-0.1,1.2-0.4,1.7
	c-0.3,0.5-0.6,0.9-1.1,1.2c-0.5,0.3-1,0.6-1.6,0.8c-0.6,0.2-1.3,0.3-2.1,0.3c-0.5,0-0.9,0-1.3-0.1c-0.4-0.1-0.7-0.1-1-0.2
	c-0.3-0.1-0.5-0.2-0.8-0.2c-0.2-0.1-0.4-0.2-0.5-0.2v-1.8c0.5,0.2,1.1,0.4,1.6,0.5c0.5,0.1,1.1,0.2,1.7,0.2c0.5,0,0.9,0,1.3-0.1
	c0.4-0.1,0.7-0.2,1-0.4c0.3-0.2,0.5-0.4,0.7-0.7c0.2-0.3,0.2-0.6,0.2-0.9c0-0.4-0.1-0.7-0.2-0.9c-0.1-0.2-0.3-0.4-0.6-0.6
	c-0.2-0.2-0.5-0.3-0.8-0.4c-0.3-0.1-0.6-0.2-1-0.3c-0.4-0.1-0.9-0.2-1.4-0.3c-0.5-0.1-0.9-0.3-1.3-0.6c-0.4-0.2-0.7-0.6-0.9-1
	c-0.2-0.4-0.3-1-0.3-1.6c0-0.7,0.1-1.3,0.4-1.8c0.2-0.5,0.6-0.9,1-1.2c0.4-0.3,0.9-0.6,1.4-0.7c0.6-0.2,1.1-0.2,1.7-0.2
	c0.7,0,1.4,0.1,2,0.2c0.6,0.1,1.2,0.3,1.7,0.5v1.8c-0.5-0.2-1.1-0.4-1.6-0.5c-0.5-0.1-1.1-0.2-1.7-0.2c-0.5,0-0.9,0-1.2,0.1
	c-0.3,0.1-0.6,0.2-0.8,0.4c-0.2,0.2-0.4,0.4-0.5,0.6C143.3,54.8,143.2,55.1,143.2,55.4"/>
<path class="st0" d="M159.9,64.8c-0.2,0.1-0.5,0.1-0.8,0.2c-0.4,0.1-0.8,0.1-1.3,0.1c-0.7,0-1.3-0.1-1.8-0.2s-0.9-0.4-1.2-0.7
	c-0.3-0.3-0.6-0.7-0.7-1.1c-0.2-0.4-0.2-0.9-0.2-1.5v-7.8h-2.5V52h2.5v-3.5h2.1V52h3.8v1.8h-3.8v7.5c0,0.3,0,0.6,0.1,0.8
	c0.1,0.3,0.2,0.5,0.4,0.7c0.2,0.2,0.4,0.3,0.7,0.4c0.3,0.1,0.6,0.2,1,0.2c0.3,0,0.6,0,0.9-0.1c0.3,0,0.6-0.1,0.9-0.2V64.8z"/>
<path class="st0" d="M170.1,53.7h-0.2c-0.5,0-1,0-1.5,0.1c-0.5,0.1-0.9,0.2-1.3,0.4c-0.4,0.2-0.8,0.4-1.1,0.7
	c-0.3,0.3-0.6,0.6-0.8,1v8.9H163V52h1.6l0.4,2h0c0.2-0.3,0.5-0.6,0.8-0.9c0.3-0.3,0.6-0.5,1-0.8c0.4-0.2,0.8-0.4,1.2-0.5
	c0.5-0.1,0.9-0.2,1.4-0.2l0.3,0l0.2,0V53.7z"/>
<path class="st0" d="M178.6,63.3c0.7,0,1.3-0.1,1.9-0.2c0.6-0.1,1.1-0.3,1.7-0.5v1.7c-0.5,0.2-1,0.4-1.7,0.5
	c-0.7,0.1-1.4,0.2-2.2,0.2c-0.9,0-1.8-0.1-2.6-0.3c-0.8-0.2-1.5-0.6-2.1-1.1c-0.6-0.5-1-1.2-1.4-2c-0.3-0.8-0.5-1.9-0.5-3
	c0-1.2,0.2-2.2,0.5-3c0.3-0.9,0.8-1.6,1.3-2.1c0.5-0.6,1.2-1,1.9-1.3c0.7-0.3,1.4-0.4,2.2-0.4c0.7,0,1.4,0.1,2,0.4
	c0.6,0.2,1.2,0.6,1.6,1.1c0.5,0.5,0.8,1.2,1.1,2c0.3,0.8,0.4,1.8,0.4,2.9v0.3c0,0.1,0,0.2,0,0.5h-8.9c0,0.8,0.1,1.5,0.4,2.1
	c0.2,0.6,0.6,1,1,1.4c0.4,0.4,0.9,0.6,1.5,0.8C177.4,63.2,178,63.3,178.6,63.3 M177.5,53.4c-0.5,0-0.9,0.1-1.3,0.3
	c-0.4,0.2-0.8,0.4-1.1,0.8c-0.3,0.3-0.6,0.7-0.8,1.1c-0.2,0.4-0.3,0.9-0.4,1.4h6.6c0-0.5-0.1-1-0.2-1.4c-0.1-0.4-0.3-0.8-0.6-1.1
	c-0.3-0.3-0.6-0.6-0.9-0.8C178.5,53.5,178,53.4,177.5,53.4"/>
<path class="st0" d="M123.2,90.4h-1l-4.5-10.8c-0.6-1.5-1.3-3.1-1.9-4.8h-0.1c0.1,2.5,0.2,4.8,0.2,6.9v8.7h-2.2v-18h3.2l4.2,10.2
	c0.5,1.2,1,2.6,1.6,4.2h0.1c0.6-1.8,1.2-3.2,1.6-4.2l4.3-10.2h3.2v18h-2.2v-8.7c0-2,0.1-4.3,0.2-6.9h-0.1c-0.7,1.8-1.3,3.5-1.9,4.8
	L123.2,90.4z"/>
<path class="st0" d="M141.4,90.7c-0.7,0-1.3-0.1-1.8-0.2c-0.5-0.1-1-0.3-1.4-0.6c-0.4-0.3-0.7-0.6-1-0.9c-0.3-0.4-0.5-0.8-0.7-1.2
	c-0.1-0.3-0.2-0.7-0.3-1.1c-0.1-0.4-0.1-0.8-0.1-1.3v-7.8h2.1v7.8c0,0.7,0.1,1.3,0.3,1.8c0.2,0.5,0.6,1,1,1.3
	c0.5,0.3,1.1,0.5,1.8,0.5c0.8,0,1.4-0.2,1.9-0.5c0.5-0.3,0.8-0.8,1-1.4c0.2-0.4,0.2-1,0.2-1.6v-7.8h2.1v7.9c0,0.4,0,0.8-0.1,1.2
	c-0.1,0.4-0.1,0.7-0.2,1c-0.2,0.4-0.4,0.8-0.7,1.2c-0.3,0.4-0.6,0.7-1,1c-0.4,0.3-0.9,0.5-1.4,0.6C142.7,90.6,142.1,90.7,141.4,90.7
	"/>
<path class="st0" d="M153,79.3L153,79.3c0.3-0.3,0.5-0.6,0.8-0.8c0.3-0.3,0.6-0.5,1-0.7c0.4-0.2,0.7-0.3,1.2-0.4
	c0.4-0.1,0.9-0.2,1.4-0.2c0.6,0,1.1,0.1,1.6,0.2c0.5,0.2,1,0.4,1.3,0.8c0.4,0.4,0.7,0.8,0.9,1.4c0.2,0.6,0.3,1.3,0.3,2.1v8.6h-2.1
	v-8.2c0-1.1-0.2-1.9-0.6-2.4c-0.4-0.5-1.1-0.7-1.9-0.7c-0.7,0-1.4,0.2-2.1,0.6c-0.7,0.4-1.3,1-1.7,1.7v9.1h-2.1V77.6h1.6L153,79.3z"
	/>
<path class="st0" d="M165.9,72.3h2.1v2.3h-2.1V72.3z M165.9,77.6h2.1v12.8h-2.1V77.6z"/>
<path class="st0" d="M178,77.2c0.6,0,1.2,0.1,1.8,0.2c0.6,0.1,1.1,0.3,1.5,0.5v1.7c-0.6-0.2-1.1-0.4-1.6-0.5c-0.5-0.1-1-0.2-1.5-0.2
	c-0.5,0-1,0.1-1.6,0.3c-0.5,0.2-1,0.5-1.4,0.8c-0.4,0.4-0.7,0.9-1,1.6c-0.2,0.6-0.4,1.4-0.4,2.4c0,0.7,0.1,1.3,0.3,1.9
	c0.2,0.6,0.5,1.1,0.8,1.5c0.4,0.4,0.8,0.8,1.4,1c0.5,0.2,1.2,0.4,1.9,0.4c0.5,0,1-0.1,1.6-0.2c0.5-0.1,1-0.3,1.6-0.5V90
	c-0.2,0.1-0.4,0.2-0.6,0.3c-0.2,0.1-0.5,0.2-0.8,0.2c-0.3,0.1-0.6,0.1-0.9,0.2c-0.3,0-0.7,0.1-1,0.1c-0.9,0-1.7-0.1-2.5-0.4
	c-0.8-0.3-1.4-0.7-2-1.2c-0.6-0.5-1-1.2-1.4-2.1c-0.3-0.8-0.5-1.8-0.5-2.9c0-0.8,0.1-1.6,0.3-2.3c0.2-0.7,0.4-1.3,0.7-1.8
	c0.3-0.5,0.7-0.9,1.1-1.3c0.4-0.4,0.8-0.7,1.3-0.9c0.5-0.2,0.9-0.4,1.4-0.5C177,77.3,177.5,77.2,178,77.2"/>
<path class="st0" d="M184.9,72.3h2.1v2.3h-2.1V72.3z M185,77.6h2.1v12.8H185V77.6z"/>
<path class="st0" d="M202.9,83.8c0,0.9-0.1,1.7-0.3,2.4c-0.2,0.7-0.4,1.3-0.7,1.8c-0.3,0.5-0.6,0.9-1,1.3c-0.4,0.3-0.8,0.6-1.2,0.8
	c-0.4,0.2-0.8,0.4-1.3,0.5c-0.4,0.1-0.8,0.1-1.2,0.1c-0.8,0-1.5-0.1-2-0.4c-0.6-0.3-1.1-0.6-1.6-1.1h0v7.4h-2.1v-19h1.6l0.4,1.5h0
	c0.1-0.2,0.3-0.4,0.5-0.5c0.2-0.2,0.4-0.4,0.7-0.5c0.3-0.2,0.7-0.4,1.1-0.5c0.4-0.1,0.9-0.2,1.4-0.2c0.7,0,1.4,0.1,2.1,0.4
	c0.7,0.2,1.3,0.6,1.8,1.2c0.5,0.5,0.9,1.2,1.2,2C202.8,81.6,202.9,82.6,202.9,83.8 M200.7,83.8c0-0.7-0.1-1.4-0.2-2
	c-0.2-0.6-0.4-1.1-0.7-1.5c-0.3-0.4-0.7-0.7-1.2-1c-0.5-0.2-1-0.3-1.6-0.3c-0.4,0-0.8,0.1-1.2,0.2c-0.4,0.1-0.7,0.3-1,0.4
	c-0.3,0.2-0.5,0.4-0.8,0.6c-0.2,0.2-0.4,0.4-0.5,0.6v6.7c0.4,0.5,0.9,0.8,1.5,1.1c0.6,0.3,1.2,0.4,1.8,0.4c0.4,0,0.8-0.1,1.3-0.2
	c0.4-0.1,0.9-0.4,1.2-0.8c0.4-0.4,0.7-0.9,0.9-1.6C200.6,85.7,200.7,84.9,200.7,83.8"/>
<path class="st0" d="M214,88.9L214,88.9c-0.2,0.2-0.4,0.4-0.7,0.6c-0.3,0.2-0.6,0.4-0.9,0.6c-0.3,0.2-0.7,0.3-1.1,0.4
	c-0.4,0.1-0.8,0.1-1.3,0.1c-0.6,0-1.2-0.1-1.7-0.3c-0.5-0.2-1-0.5-1.3-0.8c-0.4-0.4-0.7-0.8-0.9-1.3c-0.2-0.5-0.3-1.1-0.3-1.7
	c0-0.6,0.1-1.2,0.3-1.7c0.2-0.5,0.6-0.9,1-1.3c0.4-0.4,0.9-0.6,1.5-0.8c0.6-0.2,1.2-0.3,1.9-0.3c0.7,0,1.3,0.1,1.8,0.2
	c0.6,0.1,1.1,0.2,1.5,0.4h0.1v-0.9c0-0.3,0-0.7-0.1-0.9c0-0.3-0.1-0.5-0.2-0.7c-0.2-0.4-0.6-0.8-1.1-1.1c-0.5-0.3-1.2-0.4-2.1-0.4
	c-0.6,0-1.3,0.1-1.8,0.2c-0.6,0.1-1.1,0.3-1.7,0.5V78c0.2-0.1,0.5-0.2,0.8-0.3c0.3-0.1,0.6-0.2,0.9-0.2c0.3-0.1,0.7-0.1,1-0.2
	c0.4,0,0.7-0.1,1.1-0.1c1.3,0,2.4,0.2,3.2,0.7c0.8,0.5,1.4,1.1,1.8,1.8c0.1,0.3,0.2,0.6,0.3,1c0.1,0.3,0.1,0.7,0.1,1.1v8.5h-1.8
	L214,88.9z M213.9,84.7c-0.4-0.1-0.8-0.2-1.4-0.3c-0.5-0.1-1.1-0.2-1.7-0.2c-0.9,0-1.6,0.2-2.1,0.6c-0.5,0.4-0.8,1-0.8,1.7
	c0,0.4,0.1,0.7,0.2,1c0.1,0.3,0.3,0.5,0.5,0.7c0.2,0.2,0.5,0.3,0.8,0.4c0.3,0.1,0.6,0.1,1,0.1c0.4,0,0.9-0.1,1.2-0.2
	c0.4-0.1,0.7-0.3,1-0.5c0.3-0.2,0.6-0.4,0.8-0.5c0.2-0.2,0.4-0.3,0.5-0.4V84.7z"/>
<rect x="220.4" y="70.9" class="st0" width="2.1" height="19.5"/>
<path class="st0" d="M227.1,72.3h2.1v2.3h-2.1V72.3z M227.1,77.6h2.1v12.8h-2.1V77.6z"/>
<path class="st0" d="M232.9,84.1c0-0.9,0.1-1.7,0.3-2.4c0.2-0.7,0.4-1.3,0.7-1.8c0.3-0.5,0.6-0.9,1-1.3c0.4-0.3,0.8-0.6,1.2-0.8
	c0.4-0.2,0.8-0.4,1.3-0.5c0.4-0.1,0.8-0.1,1.2-0.1c0.8,0,1.5,0.1,2,0.4c0.6,0.3,1.1,0.6,1.6,1.1h0v-7.9h2.1v19.5h-1.6l-0.4-1.4h-0.1
	c-0.2,0.2-0.4,0.4-0.6,0.6c-0.2,0.2-0.5,0.4-0.8,0.6c-0.3,0.2-0.6,0.3-1,0.4c-0.4,0.1-0.8,0.2-1.3,0.2c-0.7,0-1.4-0.1-2.1-0.4
	c-0.7-0.2-1.3-0.6-1.8-1.1c-0.5-0.5-1-1.2-1.3-2C233.1,86.3,232.9,85.3,232.9,84.1 M235.1,84.1c0,0.7,0.1,1.4,0.2,2
	c0.2,0.6,0.4,1.1,0.7,1.5c0.3,0.4,0.7,0.7,1.2,1c0.5,0.2,1,0.3,1.6,0.3c0.4,0,0.8-0.1,1.2-0.2c0.4-0.1,0.7-0.3,1-0.4
	c0.3-0.2,0.5-0.4,0.7-0.6c0.2-0.2,0.4-0.4,0.5-0.6v-6.7c-0.4-0.4-0.9-0.8-1.5-1.1c-0.6-0.3-1.2-0.4-1.8-0.4c-0.4,0-0.8,0.1-1.3,0.2
	c-0.4,0.1-0.8,0.4-1.2,0.8c-0.4,0.4-0.7,0.9-0.9,1.6C235.2,82.2,235.1,83.1,235.1,84.1"/>
<path class="st0" d="M256.2,88.9L256.2,88.9c-0.2,0.2-0.4,0.4-0.7,0.6c-0.3,0.2-0.6,0.4-0.9,0.6c-0.3,0.2-0.7,0.3-1.1,0.4
	c-0.4,0.1-0.8,0.1-1.3,0.1c-0.6,0-1.2-0.1-1.7-0.3c-0.5-0.2-1-0.5-1.3-0.8c-0.4-0.4-0.7-0.8-0.9-1.3c-0.2-0.5-0.3-1.1-0.3-1.7
	c0-0.6,0.1-1.2,0.3-1.7c0.2-0.5,0.6-0.9,1-1.3c0.4-0.4,0.9-0.6,1.5-0.8c0.6-0.2,1.2-0.3,1.9-0.3c0.7,0,1.3,0.1,1.8,0.2
	c0.6,0.1,1.1,0.2,1.5,0.4h0.1v-0.9c0-0.3,0-0.7-0.1-0.9c-0.1-0.3-0.1-0.5-0.2-0.7c-0.2-0.4-0.6-0.8-1.1-1.1
	c-0.5-0.3-1.2-0.4-2.1-0.4c-0.6,0-1.3,0.1-1.8,0.2c-0.6,0.1-1.1,0.3-1.7,0.5V78c0.2-0.1,0.5-0.2,0.8-0.3c0.3-0.1,0.6-0.2,0.9-0.2
	c0.3-0.1,0.7-0.1,1-0.2c0.4,0,0.7-0.1,1.1-0.1c1.3,0,2.3,0.2,3.2,0.7c0.8,0.5,1.4,1.1,1.8,1.8c0.1,0.3,0.2,0.6,0.3,1
	c0.1,0.3,0.1,0.7,0.1,1.1v8.5h-1.8L256.2,88.9z M256.1,84.7c-0.4-0.1-0.8-0.2-1.4-0.3c-0.5-0.1-1.1-0.2-1.7-0.2
	c-0.9,0-1.6,0.2-2.1,0.6c-0.5,0.4-0.8,1-0.8,1.7c0,0.4,0.1,0.7,0.2,1c0.1,0.3,0.3,0.5,0.5,0.7c0.2,0.2,0.5,0.3,0.8,0.4
	c0.3,0.1,0.6,0.1,1,0.1c0.4,0,0.9-0.1,1.2-0.2c0.4-0.1,0.7-0.3,1-0.5c0.3-0.2,0.6-0.4,0.8-0.5c0.2-0.2,0.4-0.3,0.5-0.4V84.7z"/>
<path class="st0" d="M261.8,84.1c0-0.9,0.1-1.7,0.3-2.4c0.2-0.7,0.4-1.3,0.7-1.8c0.3-0.5,0.6-0.9,1-1.3c0.4-0.3,0.8-0.6,1.2-0.8
	c0.4-0.2,0.8-0.4,1.3-0.5c0.4-0.1,0.8-0.1,1.2-0.1c0.8,0,1.5,0.1,2,0.4c0.6,0.3,1.1,0.6,1.5,1.1h0v-7.9h2.1v19.5h-1.6l-0.4-1.4h-0.1
	c-0.2,0.2-0.4,0.4-0.6,0.6c-0.2,0.2-0.5,0.4-0.8,0.6c-0.3,0.2-0.6,0.3-1,0.4c-0.4,0.1-0.8,0.2-1.3,0.2c-0.7,0-1.4-0.1-2.1-0.4
	c-0.7-0.2-1.3-0.6-1.8-1.1c-0.5-0.5-1-1.2-1.3-2C262,86.3,261.8,85.3,261.8,84.1 M264,84.1c0,0.7,0.1,1.4,0.3,2
	c0.2,0.6,0.4,1.1,0.7,1.5c0.3,0.4,0.7,0.7,1.2,1c0.5,0.2,1,0.3,1.6,0.3c0.4,0,0.8-0.1,1.2-0.2c0.4-0.1,0.7-0.3,1-0.4
	c0.3-0.2,0.5-0.4,0.7-0.6c0.2-0.2,0.4-0.4,0.5-0.6v-6.7c-0.4-0.4-0.9-0.8-1.5-1.1c-0.6-0.3-1.2-0.4-1.8-0.4c-0.4,0-0.8,0.1-1.2,0.2
	c-0.4,0.1-0.8,0.4-1.2,0.8c-0.4,0.4-0.7,0.9-0.9,1.6C264.1,82.2,264,83.1,264,84.1"/>
<path class="st0" d="M120.1,111.3c-0.4,0-0.8,0-1.1,0c-0.4,0-0.7,0-1-0.1v9h-4.2V97.1h6.7c1.1,0,2.1,0,2.9,0.1
	c0.8,0.1,1.6,0.2,2.2,0.4c1.6,0.5,2.8,1.3,3.7,2.3c0.9,1.1,1.3,2.4,1.3,4c0,1.1-0.2,2.1-0.7,3c-0.5,0.9-1.1,1.6-2,2.3
	c-0.9,0.6-2,1.1-3.3,1.4C123.2,111.1,121.7,111.3,120.1,111.3 M117.9,107.7c0.2,0,0.5,0.1,0.9,0.1c0.4,0,0.8,0,1.2,0
	c1.1,0,2.1-0.1,2.9-0.3c0.8-0.2,1.4-0.4,1.9-0.8c0.5-0.3,0.8-0.7,1-1.2c0.2-0.5,0.3-1,0.3-1.5c0-0.7-0.2-1.3-0.5-1.8
	c-0.3-0.5-0.9-0.9-1.6-1.2c-0.4-0.1-0.9-0.2-1.5-0.3c-0.6-0.1-1.3-0.1-2.2-0.1h-2.4V107.7z"/>
<path class="st0" d="M141.9,120.7c-1.7,0-3.1-0.3-4.2-0.9c-1.1-0.6-1.9-1.3-2.5-2.3c-0.3-0.5-0.5-1.1-0.7-1.7
	c-0.1-0.6-0.2-1.3-0.2-2.1v-10.2h4.1v9.8c0,0.6,0,1.1,0.1,1.5c0.1,0.4,0.2,0.8,0.4,1.1c0.3,0.5,0.7,0.9,1.2,1.1
	c0.5,0.2,1.1,0.4,1.8,0.4c0.7,0,1.4-0.1,1.9-0.4c0.5-0.3,0.9-0.7,1.2-1.3c0.3-0.5,0.4-1.3,0.4-2.3v-9.9h4.1v10.2
	c0,1.4-0.2,2.5-0.7,3.4c-0.3,0.5-0.6,1-1,1.4c-0.4,0.4-0.9,0.8-1.5,1.1c-0.6,0.3-1.2,0.5-1.9,0.7
	C143.6,120.6,142.8,120.7,141.9,120.7"/>
<path class="st0" d="M162.6,117.4c0.8,0,1.6-0.1,2.5-0.2c0.9-0.2,1.7-0.4,2.6-0.7v3.3c-0.5,0.2-1.3,0.5-2.4,0.7
	c-1.1,0.2-2.2,0.3-3.4,0.3c-1.2,0-2.3-0.2-3.4-0.5c-1.1-0.3-2-0.8-2.8-1.5c-0.8-0.7-1.4-1.6-1.9-2.6c-0.5-1.1-0.7-2.4-0.7-3.9
	c0-1.5,0.2-2.8,0.7-4c0.4-1.1,1-2.1,1.8-2.8c0.7-0.8,1.6-1.3,2.5-1.7c1-0.4,1.9-0.6,2.9-0.6c1.1,0,2,0.2,2.9,0.5
	c0.9,0.3,1.7,0.8,2.3,1.5c0.7,0.7,1.2,1.6,1.5,2.7c0.4,1.1,0.5,2.4,0.5,3.9c0,0.6,0,1.1-0.1,1.5h-11c0.1,0.8,0.2,1.4,0.5,2
	c0.3,0.5,0.7,1,1.1,1.3c0.5,0.3,1,0.6,1.6,0.7C161.2,117.3,161.8,117.4,162.6,117.4 M160.9,106.3c-0.5,0-1,0.1-1.4,0.3
	c-0.4,0.2-0.8,0.4-1,0.8c-0.3,0.3-0.5,0.7-0.7,1.1c-0.2,0.4-0.3,0.9-0.3,1.4h6.6c0-0.5-0.1-1-0.2-1.4c-0.1-0.4-0.3-0.8-0.6-1.1
	c-0.3-0.3-0.6-0.6-1-0.8C161.9,106.4,161.4,106.3,160.9,106.3"/>
<path class="st0" d="M182.2,106.8h-0.3c-1.3,0-2.4,0.2-3.3,0.6c-1,0.4-1.7,0.9-2.2,1.7v11.2h-4.1v-16.7h3.4l0.4,2.3h0.1
	c0.5-0.8,1.2-1.5,2-2c0.8-0.5,1.9-0.7,3.1-0.7c0.4,0,0.8,0,1.1,0.1V106.8z"/>
<path class="st0" d="M194.9,120.2c-0.5,0.1-1,0.2-1.7,0.3c-0.6,0.1-1.2,0.1-1.8,0.1c-1.4,0-2.6-0.2-3.5-0.7c-0.9-0.5-1.5-1.1-1.9-2
	c-0.3-0.6-0.4-1.4-0.4-2.5v-8.7h-3.1v-3.4h3.1v-4.7h4.1v4.7h4.8v3.4h-4.8v8.1c0,0.6,0.1,1.1,0.3,1.4c0.3,0.5,1,0.8,2.1,0.8
	c0.5,0,0.9,0,1.4-0.1c0.5-0.1,0.9-0.2,1.3-0.3V120.2z"/>
<path class="st0" d="M214.2,111.9c0,1.3-0.2,2.5-0.6,3.6c-0.4,1.1-1,2-1.7,2.8c-0.7,0.8-1.6,1.4-2.7,1.8c-1,0.4-2.2,0.6-3.5,0.6
	c-1.3,0-2.5-0.2-3.5-0.6c-1-0.4-1.9-1-2.7-1.8c-0.7-0.8-1.3-1.7-1.7-2.8c-0.4-1.1-0.6-2.3-0.6-3.6c0-1.3,0.2-2.5,0.6-3.6
	c0.4-1.1,1-2,1.7-2.8c0.7-0.8,1.6-1.4,2.7-1.8c1-0.4,2.2-0.6,3.5-0.6c1.3,0,2.5,0.2,3.5,0.6c1,0.4,1.9,1,2.7,1.8
	c0.7,0.8,1.3,1.7,1.7,2.8C214.1,109.4,214.2,110.6,214.2,111.9 M210,111.9c0-0.9-0.1-1.7-0.3-2.3c-0.2-0.7-0.5-1.2-0.9-1.7
	c-0.4-0.5-0.8-0.8-1.3-1c-0.5-0.2-1.1-0.3-1.7-0.3c-0.6,0-1.2,0.1-1.7,0.3c-0.5,0.2-1,0.6-1.3,1c-0.4,0.5-0.7,1-0.9,1.7
	c-0.2,0.7-0.3,1.5-0.3,2.3c0,0.9,0.1,1.7,0.3,2.3c0.2,0.7,0.5,1.2,0.9,1.7c0.4,0.5,0.8,0.8,1.3,1c0.5,0.2,1.1,0.4,1.7,0.4
	c0.6,0,1.2-0.1,1.7-0.4c0.5-0.2,0.9-0.6,1.3-1c0.4-0.5,0.7-1,0.9-1.7C209.9,113.6,210,112.8,210,111.9"/>
<path class="st0" d="M231.2,114.6c0.4-1.3,0.7-2.1,0.9-2.7c0.2-0.5,0.6-1.6,1.2-3.3l4.3-11.5h4.5l-9.1,23.1h-3.8l-9-23.1h4.5
	l4.3,11.5c0.6,1.7,1,2.8,1.2,3.3C230.4,112.4,230.7,113.3,231.2,114.6L231.2,114.6z"/>
<path class="st0" d="M254.6,118.5L254.6,118.5c-0.3,0.2-0.6,0.5-0.9,0.7c-0.3,0.2-0.7,0.5-1.1,0.7c-0.4,0.2-0.9,0.4-1.4,0.5
	c-0.5,0.1-1.1,0.2-1.6,0.2c-0.8,0-1.5-0.1-2.2-0.4c-0.7-0.2-1.3-0.6-1.8-1.1c-0.5-0.5-0.9-1-1.2-1.7c-0.3-0.7-0.4-1.4-0.4-2.2
	c0-0.9,0.2-1.7,0.5-2.4c0.3-0.7,0.8-1.3,1.4-1.8c0.6-0.5,1.3-0.9,2.1-1.1c0.8-0.3,1.7-0.4,2.7-0.4c0.7,0,1.4,0,2,0.1
	c0.6,0.1,1.1,0.2,1.6,0.3v-0.7c0-0.4-0.1-0.8-0.2-1.1c-0.1-0.4-0.3-0.7-0.6-1c-0.3-0.3-0.7-0.5-1.1-0.7c-0.5-0.2-1.1-0.3-1.7-0.3
	c-0.8,0-1.7,0.1-2.5,0.3c-0.8,0.2-1.7,0.5-2.7,0.8v-3.2c0.8-0.4,1.7-0.7,2.7-0.8c0.9-0.2,1.9-0.3,3-0.3c1.2,0,2.3,0.1,3.2,0.4
	c0.9,0.3,1.7,0.7,2.3,1.2c0.6,0.5,1.1,1.1,1.4,1.9c0.3,0.7,0.5,1.5,0.5,2.3v6.3c0,1.1,0,2.1,0,2.8c0,0.8,0,1.5,0.1,2.1h-3.7
	L254.6,118.5z M254.3,113.1c-0.4-0.1-0.8-0.2-1.3-0.2c-0.5-0.1-1-0.1-1.5-0.1c-1,0-1.8,0.2-2.4,0.6c-0.6,0.4-0.9,1-0.9,1.8
	c0,0.4,0.1,0.7,0.2,1c0.1,0.3,0.3,0.5,0.5,0.7c0.2,0.2,0.5,0.3,0.8,0.4c0.3,0.1,0.6,0.1,0.9,0.1c0.4,0,0.8-0.1,1.2-0.2
	c0.4-0.1,0.7-0.2,1-0.4c0.3-0.2,0.6-0.4,0.8-0.6c0.2-0.2,0.5-0.4,0.6-0.6V113.1z"/>
<path class="st0" d="M273.1,106.8h-0.3c-1.3,0-2.4,0.2-3.3,0.6c-1,0.4-1.7,0.9-2.2,1.7v11.2h-4.1v-16.7h3.4l0.4,2.3h0.1
	c0.5-0.8,1.2-1.5,2-2c0.8-0.5,1.9-0.7,3.1-0.7c0.4,0,0.8,0,1.1,0.1V106.8z"/>
<path class="st0" d="M285.5,118.5L285.5,118.5c-0.3,0.2-0.6,0.5-0.9,0.7c-0.3,0.2-0.7,0.5-1.1,0.7c-0.4,0.2-0.9,0.4-1.4,0.5
	c-0.5,0.1-1.1,0.2-1.6,0.2c-0.8,0-1.5-0.1-2.2-0.4c-0.7-0.2-1.3-0.6-1.8-1.1c-0.5-0.5-0.9-1-1.2-1.7c-0.3-0.7-0.4-1.4-0.4-2.2
	c0-0.9,0.2-1.7,0.5-2.4c0.3-0.7,0.8-1.3,1.4-1.8c0.6-0.5,1.3-0.9,2.1-1.1c0.8-0.3,1.7-0.4,2.7-0.4c0.7,0,1.4,0,2,0.1
	c0.6,0.1,1.1,0.2,1.6,0.3v-0.7c0-0.4-0.1-0.8-0.2-1.1c-0.1-0.4-0.3-0.7-0.6-1c-0.3-0.3-0.7-0.5-1.1-0.7c-0.5-0.2-1.1-0.3-1.7-0.3
	c-0.8,0-1.7,0.1-2.5,0.3c-0.8,0.2-1.7,0.5-2.7,0.8v-3.2c0.8-0.4,1.7-0.7,2.7-0.8c0.9-0.2,1.9-0.3,3-0.3c1.2,0,2.3,0.1,3.2,0.4
	c0.9,0.3,1.7,0.7,2.3,1.2c0.6,0.5,1.1,1.1,1.4,1.9c0.3,0.7,0.5,1.5,0.5,2.3v6.3c0,1.1,0,2.1,0,2.8c0,0.8,0,1.5,0.1,2.1h-3.7
	L285.5,118.5z M285.1,113.1c-0.4-0.1-0.8-0.2-1.3-0.2c-0.5-0.1-1-0.1-1.5-0.1c-1,0-1.8,0.2-2.4,0.6c-0.6,0.4-0.9,1-0.9,1.8
	c0,0.4,0.1,0.7,0.2,1c0.1,0.3,0.3,0.5,0.5,0.7c0.2,0.2,0.5,0.3,0.8,0.4c0.3,0.1,0.6,0.1,1,0.1c0.4,0,0.8-0.1,1.2-0.2
	c0.4-0.1,0.7-0.2,1-0.4c0.3-0.2,0.6-0.4,0.8-0.6c0.2-0.2,0.5-0.4,0.6-0.6V113.1z"/>
<path class="st0" d="M301.4,115.4c0-0.4-0.1-0.6-0.3-0.9c-0.2-0.2-0.5-0.4-0.8-0.6c-0.3-0.2-0.7-0.3-1.2-0.4
	c-0.4-0.1-0.9-0.2-1.4-0.3c-0.6-0.2-1.2-0.3-1.7-0.6c-0.6-0.2-1-0.5-1.5-0.8c-0.4-0.3-0.8-0.8-1-1.3c-0.2-0.5-0.4-1.2-0.4-1.9
	c0-0.9,0.2-1.7,0.5-2.4c0.3-0.7,0.8-1.3,1.4-1.7c0.6-0.4,1.2-0.8,2-1c0.8-0.2,1.6-0.3,2.4-0.3c1,0,2,0.1,2.9,0.3
	c0.9,0.2,1.7,0.4,2.4,0.6v3.3c-0.4-0.1-0.8-0.2-1.2-0.4c-0.4-0.1-0.9-0.2-1.3-0.3c-0.4-0.1-0.9-0.1-1.3-0.2
	c-0.4-0.1-0.8-0.1-1.2-0.1c-0.5,0-0.9,0-1.2,0.1c-0.3,0.1-0.6,0.2-0.8,0.4c-0.2,0.2-0.4,0.3-0.5,0.5c-0.1,0.2-0.1,0.4-0.1,0.6
	c0,0.4,0.1,0.7,0.3,0.9c0.2,0.2,0.5,0.4,0.8,0.6c0.4,0.2,0.7,0.3,1.1,0.4c0.4,0.1,0.8,0.2,1.1,0.3c0.6,0.1,1.2,0.3,1.7,0.5
	c0.6,0.2,1.1,0.5,1.6,0.8c0.5,0.4,0.8,0.8,1.1,1.4c0.3,0.6,0.4,1.3,0.4,2.1c0,0.9-0.2,1.8-0.5,2.5c-0.4,0.7-0.9,1.3-1.5,1.8
	c-0.6,0.5-1.4,0.8-2.3,1c-0.9,0.2-1.9,0.3-3,0.3c-1.1,0-2-0.1-2.9-0.2c-0.8-0.2-1.5-0.4-2.1-0.6v-3.3c0.9,0.3,1.7,0.6,2.5,0.7
	c0.8,0.1,1.5,0.2,2.1,0.2c0.5,0,1,0,1.4-0.1c0.4-0.1,0.8-0.2,1.1-0.4c0.3-0.2,0.6-0.4,0.8-0.6C301.3,116,301.4,115.7,301.4,115.4"/>
</svg>
