<svg enable-background="new 0 0 216 167.39" viewBox="0 0 216 167.39" xmlns="http://www.w3.org/2000/svg"><g fill="#face1d"><path d="m87.73 151.92c7.92-9.82 5.5-23.59-4.88-31.96s-25.22-7.2-33.13 2.62z"/><path d="m94.88 67.22 17.01-22.47 29.38 22.72-15.7 22.1z"/><path d="m70.66 100.27 16.21-22.46 31.25 23.08-15.59 23.53z"/></g><g fill="none" stroke="#000" stroke-miterlimit="10" stroke-width=".5"><path d="m81.52 118.55 2-2.86"/><path d="m53 158.64 2.93-31.05"/><path d="m52.98 158.34 26.61-12.48"/><path d="m68.33 137.15-15.04 21.17"/></g><circle cx="52.58" cy="159.28" r="1.53"/><g fill="none" stroke="#000" stroke-miterlimit="10"><path d="m65.23 111.93h40v4.36h-40z" transform="matrix(.7999 .6002 -.6002 .7999 85.5453 -28.3164)"/><path d="m109.49 52.22h37.18v4.36h-37.18z" transform="matrix(.792 .6105 -.6105 .792 59.8511 -66.8795)"/><path d="m92.77 82.11 7.57-10.74 20.55 14.6-7.85 11.05z"/><g stroke-width=".5"><path d="m128.6 85.39 9.59 7.47"/><path d="m115.52 103.96 9.7 7.28"/><path d="m76.76 76.33 7.51 4.97"/><path d="m89.57 57.53 8.06 5.45"/><path d="m136.21 90.25h8.49v13.64h-8.49z" transform="matrix(.8132 .5819 -.5819 .8132 82.7225 -63.607)"/><path d="m145.06 96.46h8.49v13.64h-8.49z" transform="matrix(.8132 .5819 -.5819 .8132 87.9832 -67.5979)"/><path d="m153.91 102.66h8.49v13.64h-8.49z" transform="matrix(.8132 .5819 -.5819 .8132 93.2439 -71.5888)"/><path d="m162.76 108.86h8.49v13.64h-8.49z" transform="matrix(.8132 .5819 -.5819 .8132 98.5046 -75.5797)"/><path d="m171.6 115.06h8.49v13.64h-8.49z" transform="matrix(.8132 .5819 -.5819 .8132 103.7653 -79.5706)"/><path d="m180.45 121.26h8.49v13.64h-8.49z" transform="matrix(.8132 .5819 -.5819 .8132 109.026 -83.5615)"/><path d="m189.3 127.46h8.49v13.64h-8.49z" transform="matrix(.8132 .5819 -.5819 .8132 114.2867 -87.5524)"/><path d="m198.15 133.66h8.49v13.64h-8.49z" transform="matrix(.8132 .5819 -.5819 .8132 119.5474 -91.5433)"/><path d="m126.5 104.27h8.49v13.64h-8.49z" transform="matrix(.8132 .5819 -.5819 .8132 89.0656 -55.3351)"/><path d="m135.34 110.47h8.49v13.64h-8.49z" transform="matrix(.8132 .5819 -.5819 .8132 94.3263 -59.326)"/><path d="m144.19 116.67h8.49v13.64h-8.49z" transform="matrix(.8132 .5819 -.5819 .8132 99.587 -63.317)"/><path d="m153.04 122.87h8.49v13.64h-8.49z" transform="matrix(.8132 .5819 -.5819 .8132 104.8477 -67.3079)"/><path d="m161.89 129.08h8.49v13.64h-8.49z" transform="matrix(.8132 .5819 -.5819 .8132 110.1084 -71.2988)"/><path d="m170.74 135.28h8.49v13.64h-8.49z" transform="matrix(.8132 .5819 -.5819 .8132 115.3691 -75.2897)"/><path d="m179.58 141.48h8.49v13.64h-8.49z" transform="matrix(.8132 .5819 -.5819 .8132 120.6298 -79.2806)"/><path d="m188.43 147.68h8.49v13.64h-8.49z" transform="matrix(.8132 .5819 -.5819 .8132 125.8905 -83.2715)"/><path d="m19.07 6.07h8.49v13.64h-8.49z" transform="matrix(.8132 .5819 -.5819 .8132 11.8547 -11.1639)"/><path d="m27.92 12.27h8.49v13.64h-8.49z" transform="matrix(.8132 .5819 -.5819 .8132 17.1154 -15.1548)"/><path d="m36.77 18.47h8.49v13.64h-8.49z" transform="matrix(.8132 .5819 -.5819 .8132 22.3761 -19.1457)"/><path d="m45.62 24.67h8.49v13.64h-8.49z" transform="matrix(.8132 .5819 -.5819 .8132 27.6368 -23.1366)"/><path d="m54.47 30.87h8.49v13.64h-8.49z" transform="matrix(.8132 .5819 -.5819 .8132 32.8975 -27.1275)"/><path d="m63.31 37.07h8.49v13.64h-8.49z" transform="matrix(.8132 .5819 -.5819 .8132 38.1582 -31.1184)"/><path d="m72.16 43.27h8.49v13.64h-8.49z" transform="matrix(.8132 .5819 -.5819 .8132 43.4189 -35.1093)"/><path d="m81.01 49.47h8.49v13.64h-8.49z" transform="matrix(.8132 .5819 -.5819 .8132 48.6796 -39.1002)"/><path d="m9.36 20.08h8.49v13.64h-8.49z" transform="matrix(.8132 .5819 -.5819 .8132 18.1977 -2.892)"/><path d="m18.21 26.28h8.49v13.64h-8.49z" transform="matrix(.8132 .5819 -.5819 .8132 23.4584 -6.8829)"/><path d="m27.05 32.49h8.49v13.64h-8.49z" transform="matrix(.8132 .5819 -.5819 .8132 28.7191 -10.8738)"/><path d="m35.9 38.69h8.49v13.64h-8.49z" transform="matrix(.8132 .5819 -.5819 .8132 33.9798 -14.8648)"/><path d="m44.75 44.89h8.49v13.64h-8.49z" transform="matrix(.8132 .5819 -.5819 .8132 39.2405 -18.8557)"/><path d="m53.6 51.09h8.49v13.64h-8.49z" transform="matrix(.8132 .5819 -.5819 .8132 44.5012 -22.8466)"/><path d="m62.45 57.29h8.49v13.64h-8.49z" transform="matrix(.8132 .5819 -.5819 .8132 49.7619 -26.8375)"/><path d="m71.29 63.49h8.49v13.64h-8.49z" transform="matrix(.8132 .5819 -.5819 .8132 55.0226 -30.8284)"/></g><path d="m122.36 48.66h17.43v4.36h-17.43z" transform="matrix(.792 .6105 -.6105 .792 58.2998 -69.4466)"/></g></svg>