<?xml version="1.0" encoding="UTF-8"?>
<svg id="Capa_2" data-name="Capa 2" xmlns="http://www.w3.org/2000/svg" viewBox="0 0 195.55 60.01">
  <defs>
    <style>
      .cls-1 {
        fill: #fff;
      }

      .cls-2 {
        fill: #cfb47c;
      }

      .cls-3 {
        fill: #102b42;
      }
    </style>
  </defs>
  <g id="Layer_1" data-name="Layer 1">
    <g id="Capa_1-2" data-name="Capa 1-2">
      <g>
        <g>
          <path class="cls-3" d="m30.01,0C13.44,0,0,13.44,0,30.01s13.44,30.01,30.01,30.01,30.01-13.44,30.01-30.01S46.58,0,30.01,0Zm0,58.57c-15.78,0-28.57-12.79-28.57-28.57S14.23,1.44,30.01,1.44s28.57,12.79,28.57,28.57-12.79,28.57-28.57,28.57h0Z"/>
          <circle class="cls-2" cx="30.01" cy="30.01" r="28.57"/>
          <g>
            <g>
              <g>
                <polygon class="cls-3" points="23.34 42.52 24.59 42.52 23.97 44.48 23.34 42.52"/>
                <polygon class="cls-3" points="24.59 46.44 23.34 46.44 23.97 44.48 24.59 46.44"/>
                <polygon class="cls-3" points="22 45.14 22 43.88 23.97 44.51 22 45.14"/>
                <polygon class="cls-3" points="25.93 43.88 25.93 45.14 23.97 44.51 25.93 43.88"/>
              </g>
              <g>
                <polygon class="cls-3" points="28.99 42.45 30.25 42.45 29.62 44.41 28.99 42.45"/>
                <polygon class="cls-3" points="30.25 46.37 28.99 46.37 29.62 44.41 30.25 46.37"/>
                <polygon class="cls-3" points="27.66 45.07 27.66 43.81 29.62 44.44 27.66 45.07"/>
                <polygon class="cls-3" points="31.58 43.81 31.58 45.07 29.62 44.44 31.58 43.81"/>
              </g>
              <g>
                <polygon class="cls-3" points="34.61 42.55 35.86 42.55 35.23 44.51 34.61 42.55"/>
                <polygon class="cls-3" points="35.86 46.47 34.61 46.47 35.23 44.51 35.86 46.47"/>
                <polygon class="cls-3" points="33.28 45.17 33.28 43.91 35.23 44.53 33.28 45.17"/>
                <polygon class="cls-3" points="37.19 43.91 37.19 45.17 35.23 44.53 37.19 43.91"/>
              </g>
            </g>
            <path class="cls-3" d="m31.21,34.7s.01.04.01.05c.03.47.04.98.08,1.44.03.38.08.73.19,1.05.14.41.32.76.58,1.06.26.3.57.54.9.75l3.59,2.41c.03.08-.02.11-.02.11h-1.72c-.14,0-.19-.07-.19-.07-.28-.15-1.11-.84-1.68-1.16,0,0-2.29-1.65-2.35,1.22l-1.62.02v-.03s-.13-2.93-2.61-1.27l-1.81,1.13-.31.19h-1.84s-.05-.19.11-.3c0,0,2.64-1.35,3.16-1.77.13-.11,1-.81,1.12-.93.22-.22.43-.49.61-.76.09-.14.16-.29.24-.44s.15-.3.21-.47c.15-.41.27-.87.29-1.42,0-.1.01-.21.02-.32,0-.11,0-.26.02-.37,0-.08.01-.17.01-.26h0c.01-.44.01-.87.01-1.29,0-.22,0-.42.02-.59.03-.42-.55-.79-.55-.79l-.84-.56s-.95,1.18-2.13,1.69c.04.05.1.08.16.1.08.03.16.04.24.08.17.07.29.24.31.42,0,.04,0,.08-.01.13-.04.15-.22.23-.37.19,0,0-.01,0-.02,0-.33-.16-.28-.39-.32-.6-.01-.1-.05-.19-.12-.26-.27.1-.56.17-.85.17-.14,0-.28,0-.41,0,0,.03-.01.08,0,.13.06.16.26.13.5.28.26.16.21.3.41.36.15.04.23-.01.41.07.06.03.13.06.19.14.06.08.08.19.07.29-.01.13-.06.25-.17.33-.06.04-.14.06-.21.07-.16.01-.33-.05-.43-.18s-.13-.31-.06-.46c.01-.02.02-.04.03-.06.01-.05-.02-.1-.05-.14-.17-.24-.41-.46-.71-.5-.02.08-.02.17,0,.26,0,.03.01.06.03.08.03.05.09.07.14.09.13.06.26.16.29.3.03.13-.02.27-.09.38-.03.05-.06.08-.12.1-.03.01-.11.03-.14.03-.1,0-.17,0-.27-.04-.02,0-.17-.06-.23-.19-.08-.15.02-.34.03-.37.08-.14.2-.19.24-.38,0-.01,0-.02,0-.03,0-.18-.01-.36-.08-.53-.01-.03-.02-.05-.03-.07-.12,0-.23-.02-.32-.03-.06.1-.17.17-.25.23-.12.07-.23.14-.36.2.04.17-.03.36-.17.45s-.35.09-.49-.01c-.07-.05-.12-.12-.16-.19-.04-.08-.06-.16-.05-.25.03-.14.16-.25.31-.27.14-.02.29.02.43.08.03.01.06.03.1.03.03,0,.06,0,.09-.02.12-.04.26-.08.36-.17.03-.03.05-.06.07-.09-.12-.01-.22-.03-.29-.04-.03,0-.07,0-.1.01-.06.01-.13.04-.19.06-.14.05-.29.06-.42,0-.09-.05-.16-.14-.18-.23-.02-.1,0-.21.07-.29.07-.09.21-.1.31-.06.08.03.16.08.22.14.04.03.08.08.13.12.01.01.03.02.04.03.05.03.11.03.17.05.01,0,.03.01.06.02.1.02.22.03.36.05-.03-.06-.05-.12-.06-.14-.01-.02-.03-.05-.05-.06-.05-.03-.1-.02-.16,0-.16.03-.34-.02-.46-.14s-.16-.31-.1-.46c.07-.15.25-.25.41-.19.08.03.15.09.2.16.07.1.12.22.12.35,0,.05,0,.11.01.16.04.14.12.19.25.33,0,0,.01,0,.01.01.26.01.56,0,.88-.04-.04-.08-.06-.16-.08-.19-.01-.02-.03-.05-.05-.06-.05-.03-.1-.01-.16,0-.16.03-.34-.02-.46-.14-.12-.12-.16-.31-.1-.46.07-.15.25-.25.41-.19.08.03.15.09.2.16.07.1.12.22.12.35,0,.05,0,.11.01.16l.27.34s.05-.01.08-.02c.03,0,.06-.01.09-.02.29-.08.54-.23.76-.42,0-.03,0-.06-.01-.09-.02-.02-.05-.03-.08-.03-.1-.01-.2-.03-.29-.08-.06-.03-.12-.08-.16-.13-.14-.14-.27-.29-.39-.45-.06.04-.13.05-.2.04s-.14-.04-.2-.07c-.07-.04-.14-.08-.19-.14-.06-.08-.08-.19-.07-.29.01-.13.06-.25.17-.33.06-.04.14-.06.21-.07.16-.01.33.05.43.18s.13.31.06.46c-.01.02-.02.04-.03.06-.01.05.02.1.05.14.17.24.41.46.71.5.02-.08.02-.17,0-.26,0-.03-.01-.06-.03-.08-.03-.05-.09-.07-.14-.09-.13-.06-.26-.16-.29-.3-.03-.13,0-.28.09-.38.15-.17.37-.14.42-.13.05,0,.21.03.31.17.05.08.06.16.06.21.01.28-.24.53-.28.55-.01,0-.03.02-.03.03,0,0,0,.02,0,.03,0,.14,0,.28.05.42.6-.6.9-1.41.9-1.41,0,0-.5-.3-2.5-.74-2-.43-3.09-2.19-3.09-2.19-.14-.23-.32-.49-.57-.74-.57-.59-1.19-.89-1.59-1.04,0,.12.02.21.03.27,0,0,.09.38.49.75,0,0,.02.02.05.02.02,0,.03,0,.05-.01.12-.05.26-.04.38.01.18.08.36.37.3.57-.03.08-.09.15-.16.19-.13.08-.3.09-.43.02-.24-.13-.23-.41-.22-.64,0-.01,0-.03,0-.04,0,0-.01-.01-.02-.02-.06-.04-.19-.16-.27-.16-.08,0-.14.13-.16.18-.05.1-.08.23-.02.33.02.04.06.07.09.1.14.14.22.32.24.51.01.13-.02.28-.12.37-.07.06-.16.08-.24.09-.07,0-.28.01-.44-.16-.14-.15-.19-.39-.1-.55.09-.16.29-.17.35-.35.02-.06.01-.13,0-.16-.23.06-.51.16-.74.23-.07.02-.14.05-.19.1-.14.15-.01.4-.05.6-.04.22-.29.36-.52.32-.22-.04-.4-.21-.49-.42-.06-.14-.1-.31-.04-.46.07-.18.26-.26.44-.3.13-.03.28-.02.39.04.02,0,.03.02.05.02.01,0,.03,0,.04,0,.14-.05.27-.09.41-.14.22-.07.45-.12.67-.21.14-.06.23-.28.22-.46,0-.11-.06-.15-.11-.36-.03-.13-.06-.24-.07-.32-.14,0-.28,0-.45,0-.11,0-.21.02-.3.04-.01.02-.12.14-.17.24-.01.03-.02.06-.03.09,0,.03,0,.05,0,.08,0,.07,0,.13-.01.2-.03.14-.1.26-.17.38-.05.09-.13.16-.22.2-.18.07-.4-.02-.49-.19-.11-.2-.02-.42.07-.54.1-.12.24-.16.25-.17.21-.06.4.05.46-.04,0,0,.01-.03.03-.1.01-.04.03-.08.04-.13-.17,0-.44.03-.74.16-.21.09-.37.21-.48.3-.01.01-.03.03-.04.05-.01.02-.02.03-.02.05,0,.02.01.04.02.06.05.12-.01.25-.08.36-.14.23-.39.36-.66.25-.13-.05-.23-.17-.27-.3-.04-.15.05-.3.17-.39.1-.07.21-.11.33-.14.07-.02.15-.03.23-.05.11-.03.21-.12.32-.17-.02-.38-.13-.52-.23-.57-.08-.04-.14-.03-.25-.11-.05-.04-.17-.12-.21-.26-.05-.14-.01-.31.09-.43.12-.14.34-.21.52-.13.18.08.23.27.24.31,0,.02.05.19-.05.35-.06.09-.11.09-.14.17-.03.07-.03.17.08.34.25-.16.37-.46.42-.75,0-.05.01-.11-.02-.15-.01-.02-.03-.03-.05-.04-.13-.1-.18-.28-.14-.44.04-.16.17-.29.32-.34.07-.03.15-.04.22-.03.12.02.23.12.29.23.05.09.08.19.06.29-.02.1-.07.16-.11.21-.14.16-.23.14-.34.25-.02.02-.02.02-.19.45,0,0-.12.3-.27.41,0,0,0,0,0,0-.05.04-.08.06-.09.08,0,0-.01.04.03.08h0s.07-.03.11-.05c0,0,.01,0,.02,0,.01,0,.02-.01.03-.02.01,0,.02-.01.03-.01.42-.18.96-.34,1.56-.39.01-.02.06-.11.03-.22-.03-.09-.09-.14-.12-.16-.05-.04-.09-.04-.12-.06-.12-.08-.21-.18-.24-.32-.04-.16.02-.36.16-.45s.35-.08.46.05c.06.07.08.16.09.25.01.12.01.25-.02.37-.01.06-.04.11-.07.16-.01.02-.03.03-.03.06s-.01.05-.01.08c0,.09.03.2.04.23h.06c.52,0,1.1.2,1.63.47,0,0-.02-.57-.33-.92-.17-.06-.34-.15-.47-.27-.16-.14-.28-.34-.28-.56,0-.14.04-.28,0-.42-.01-.04-.03-.08-.03-.13,0-.1.1-.17.15-.25.07-.12.03-.28.08-.4.05-.14.19-.21.29-.32.07-.07.16-.17.25-.14.06.02.09.08.14.11.08.06.21.03.29.1.08.06.08.17.14.25.06.07.17.1.2.19.02.06,0,.13.02.19.02.08.1.14.13.21.03.08,0,.16.02.25.01.11.09.2.08.31-.01.13-.13.22-.17.34-.01.04-.02.08-.03.13-.02.09-.08.17-.14.24h0c-.01.39.04,1.24.63,2.19.8,1.29,3.08,2.06,4.54,2.11.3-.7.27-2.07-.43-3.22-.05.03-.1.06-.15.09-.14.1-.2.27-.25.43-.05.17-.03.34,0,.51,0,.02,0,.04.02.06.01.01.03.02.05.03.14.06.25.17.3.31.08.21,0,.58-.21.7-.08.05-.19.05-.28.03-.17-.04-.32-.16-.37-.32-.09-.29.14-.51.33-.69.01-.01.03-.02.03-.04v-.03c-.02-.08-.03-.28-.09-.34-.06-.06-.21,0-.28.02-.12.05-.25.12-.28.25-.01.05,0,.1,0,.16,0,.21-.07.43-.21.6-.1.12-.24.21-.39.2-.1,0-.19-.06-.26-.12-.14-.12-.23-.29-.23-.47,0-.18.08-.37.24-.46.19-.12.44-.08.67-.04.04-.1.03-.08.07-.18-.23-.14-.47-.27-.72-.38-.07-.03-.15-.07-.23-.06-.23.01-.32.31-.52.44-.21.14-.52.06-.67-.15-.15-.2-.15-.49-.07-.72.06-.16.17-.33.33-.4.2-.09.41,0,.59.1.13.08.24.2.28.34,0,.02.01.04.03.06.01.01.03.02.04.03.14.07.29.14.43.21.23.12.46.26.7.36.16.07.36.03.48-.1.07-.08.21-.37.28-.46.05-.06.14-.13.21-.15-.09-.13-.19-.26-.3-.37-.25-.05-.4,0-.49.06-.06.04-.06.04-.14.12-.11.1-.25.16-.39.18-.1.01-.21,0-.3-.04-.17-.09-.24-.32-.17-.5.07-.18.27-.29.46-.29.19,0,.37.12.48.27.03.04.06.11.13.13.04,0,.07,0,.14-.03.05-.02.1-.04.13-.05-.82-.79-1.87-1.05-2.05-1.1-.06-.01-.11-.01-.11-.01-.08,0-.14.06-.18.1,0,0-.1.08-.28.14-.2.06-.48-.02-.64-.2-.05-.05-.12-.15-.15-.29-.03-.17,0-.34.12-.48.12-.14.34-.16.51-.1.12.04.27.12.37.23.04.05.13.16.28.22,0,0,0,0,.01,0,.09.03.36.12.75.3.01-.16,0-.32-.05-.47,0-.01,0-.02-.01-.03,0-.01-.02-.02-.04-.02-.2-.08-.35-.26-.39-.47,0-.04-.02-.1,0-.17.05-.19.25-.34.46-.33.03,0,.14,0,.25.08s.17.22.17.35c0,.14-.1.27-.22.36-.05.03-.1.07-.12.12-.01.03-.01.06-.01.09,0,.08.02.17.06.25.28-.11.46-.37.57-.65.02-.05.04-.1.01-.15,0-.02-.03-.03-.04-.05-.1-.12-.12-.31-.05-.46s.22-.25.38-.27c.07-.01.15,0,.22.02.12.05.19.16.23.28.03.1.04.21,0,.3-.04.1-.11.15-.16.18-.15.11-.31.12-.39.12-.08.17-.18.31-.28.47-.04.06-.11.15-.16.19-.09.08-.13.12-.23.16-.03.01-.06.03-.07.05-.02.04.01.09.03.14.28.15.6.34.94.6.03-.02.09-.05.14-.11.02-.02.05-.06.07-.13.03-.09,0-.17,0-.2-.01-.05-.1-.37-.01-.55.08-.17.27-.28.46-.27.19.02.36.19.36.38,0,.1-.04.19-.1.28-.08.12-.2.21-.33.26-.11.04-.11.04-.17.07-.08.05-.18.16-.24.4.22.16.46.37.7.62.11.11.21.23.3.34.01-.03.04-.06.05-.11.01-.03.02-.06.02-.1,0-.07-.06-.12-.08-.14-.1-.1-.21-.33-.18-.49.03-.18.16-.34.34-.39.18-.04.38.06.44.23.03.09.02.19,0,.28-.04.13-.12.25-.23.34-.08.07-.09.07-.13.12-.07.08-.12.21-.11.41.18.29.38.65.56,1.09.16.42.27.8.33,1.12.19-.01.36-.19.38-.39.02-.26,0-.53,0-.79,0-.16.01-.32.01-.48,0-.02,0-.03,0-.05,0-.02-.02-.03-.04-.05-.11-.1-.16-.26-.17-.41-.02-.21,0-.43.18-.57.14-.11.34-.14.51-.11.25.04.5.17.61.39s.05.54-.18.66c-.21.11-.51.05-.63.25-.04.07-.05.15-.05.23,0,.27,0,.54,0,.82.11.01.08.01.19.02.06-.22.15-.45.34-.57.16-.09.36-.09.52,0,.16.09.27.25.31.43.02.1.03.2-.01.29-.06.14-.21.22-.36.25-.21.05-.44.01-.63-.09-.05-.03-.09-.05-.14-.07-.12-.03-.25.05-.35.13-.05.05-.17.16-.15.24.02.08.2.18.26.23,0,0,.02.01.03.02.02,0,.03,0,.05,0,.25-.09.55-.19.76.02.12.12.16.31.12.47-.02.09-.07.19-.15.24-.2.13-.57.03-.72-.14-.1-.11-.15-.26-.14-.41,0-.02,0-.04,0-.06,0-.02-.02-.03-.04-.04-.14-.1-.29-.21-.47-.24h0c.07.35.11.66.13.88,1.09.25,2.04.72,2.04.72,0,0,.38-4.77.32-5.97,0,0-.83-1.03-1.36-1.4-.53-.38-1.44-1.07-1.44-1.07,0,0-1.4.13-2.65-.53-.03.02-.05.03-.08.05-.02.01-.05.03-.07.05-.02.02-.03.04-.05.06-.01.02-.01.04-.02.06-.01.05-.03.1-.06.15-.02.03-.1.18-.23.24-.18.08-.49,0-.54-.18-.04-.15.08-.32.2-.39.11-.06.24-.07.36-.04.04,0,.07.03.11.04.01,0,.12.05.12.04.01,0,.03-.03.05-.06.02-.03.04-.06.07-.09-.3-.17-.58-.39-.84-.67-.04.04-.08.06-.13.09-.03.02-.06.03-.08.06-.03.02-.04.05-.06.08-.02.02-.01.04-.02.07-.02.06-.04.12-.08.18-.07.12-.17.21-.28.29-.08.06-.17.11-.27.11-.19,0-.36-.15-.39-.33-.03-.18.08-.38.24-.47.13-.08.29-.08.43-.05.05.01.09.03.14.05.02,0,.14.06.15.05.01-.01.03-.04.06-.08.04-.06.1-.13.15-.19-.5-.59-.78-1.07-.93-1.45-.02,0-.03.01-.04.03-.01.02-.01.05,0,.08.02.09.03.21,0,.31-.01.06-.02.09-.05.15-.08.16-.18.32-.28.47.05.04.08.1.09.17.01.09,0,.16,0,.19,0,.03-.08.28-.31.35-.02,0-.19.05-.34-.05-.06-.04-.1-.1-.12-.16-.06-.14-.05-.3.03-.43s.24-.2.38-.18c.02,0,.04,0,.06,0,.05,0,.08-.05.11-.08.16-.22.28-.49.24-.76-.08,0-.16.03-.23.07-.03.01-.05.03-.06.05-.03.04-.03.1-.04.15-.01.13-.07.27-.18.34-.1.06-.25.08-.36.03-.11-.04-.16-.12-.18-.16-.07-.11-.06-.22-.05-.27,0-.09.03-.19.1-.25.04-.04.08-.06.13-.08.18-.07.4-.04.56.08.01,0,.02.02.03.02,0,0,.02,0,.03,0,.15-.05.3-.11.42-.21-.07-.19-.1-.34-.12-.46-.04-.14,0-.27-.06-.41-.03-.08-.09-.16-.12-.24-.05-.13-.1-.26-.11-.39-.01-.17.06-.37.22-.43.15-.06.32-.06.46.02.1.05.18.13.23.21.15.25.05.51.03.56-.01.04-.05.13-.13.22-.08.09-.14.1-.2.16-.09.1-.08.27-.04.46.11.5.41,1.13.5,1.29.03-.05.06-.1.08-.15.02-.04.04-.06.04-.08,0-.01-.09-.1-.1-.11-.03-.03-.06-.06-.09-.1-.08-.11-.14-.25-.12-.39.02-.17.14-.34.31-.38.17-.05.37.05.43.21.03.08.03.18,0,.27-.03.12-.07.25-.14.35-.03.05-.08.09-.12.13-.02.02-.04.02-.05.05-.02.03-.04.06-.04.08-.06.17-.07.16-.07.19,0,.03,0,.1.16.28.08.08.19.19.37.29.15-.11.26-.21.34-.29.28-.28.3-.42.3-.48,0-.21-.13-.26-.28-.57-.06-.12-.11-.23-.16-.35,0-.01-.01-.02-.02-.03-.01-.01-.03-.01-.05-.02-.12-.04-.21-.13-.27-.23-.09-.15-.15-.31-.08-.47.06-.13.19-.22.32-.26.19-.06.42-.06.58.06.16.12.23.38.11.54-.11.15-.35.22-.36.41,0,.06.02.13.05.19.09.2.19.39.3.58.08-.03.06-.02.15-.05-.03-.18-.06-.38.04-.54.08-.12.23-.19.37-.19.15,0,.28.08.38.19.05.06.09.14.09.21,0,.12-.07.23-.17.31-.14.11-.31.17-.48.16-.04,0-.08,0-.13,0-.1.02-.16.12-.2.22-.02.05-.06.17-.02.22s.21.06.27.08c0,0,.02,0,.03,0,.01,0,.02-.01.03-.02.14-.15.33-.33.56-.26.13.04.23.17.26.3.02.08.01.16-.02.23-.1.17-.4.23-.57.16-.11-.05-.2-.14-.25-.25,0-.01-.01-.03-.02-.04-.01-.01-.03-.01-.05-.02-.41-.04-.58.06-.58.06-.17.09-.26.23-.29.3.1.06.21.13.32.18,1.07.54,1.73.51,2.07.41,0,0-.85-1.29-.38-2.45,0,0,.14-.31.2-.03s-.06.83.03,1.1.3.98,1,1.44c.7.46.87.74,1.98,1.27,0,0,.02,0,.03.01.06-.21.18-.79-.2-1.51,0,0-.03-.04-.07-.12-.12-.21-.15-.25-.19-.26-.04,0-.07.02-.13.05,0,0-.08.06-.11.12h0s0,.01,0,.02c-.01.04-.03.08-.05.12-.05.07-.11.13-.18.19-.05.04-.11.07-.17.07-.12,0-.23-.1-.25-.21-.02-.12.05-.24.16-.3.08-.05.19-.05.28-.03.02,0,.04.03.09.03.04,0,.07,0,.09-.01.03-.01.05-.03.08-.06.02-.02.05-.05.08-.1-.16-.13-.3-.22-.42-.28-.01,0-.05-.02-.09-.04-.17-.08-.34-.12-.47-.15,0,0-.01,0-.02.01-.07.05-.14.09-.23.1-.06,0-.12-.02-.17-.05-.07-.04-.13-.08-.17-.15s-.05-.16,0-.22c.02-.03.05-.06.08-.08.1-.05.23-.04.32.02.05.03.14.12.2.2.06.02.13.04.2.07,0,0,0-.01,0-.02.02-.1,0-.17,0-.23-.05-.23-.08-.34-.11-.39-.11-.14-.23-.08-.31-.21-.07-.1-.07-.27.02-.38.09-.11.23-.12.27-.12.04,0,.16,0,.26.08.09.07.13.19.12.29-.01.15-.13.16-.16.33-.03.11.02.12.04.36,0,.07.01.25-.02.34.01,0,.03.01.04.02.1.04.2.09.3.14.03-.03.05-.08.07-.15.03-.08.06-.19.04-.32-.03-.18-.12-.19-.12-.33,0-.11.06-.24.17-.29.09-.04.17-.01.21,0,.03,0,.17.05.22.18.03.08.03.18-.02.26-.07.12-.19.07-.28.19-.06.08-.02.12-.1.31,0,.01-.05.13-.11.21.01,0,.02.01.03.02.08.05.16.1.25.16.03.02.05.04.08.06t0,0s.03,0,.05-.02c.02-.01.03-.03.06-.06.02-.02.03-.04.03-.05.01-.02,0-.03.01-.05.01-.04.02-.08.05-.12.05-.08.11-.14.17-.2.05-.04.11-.07.17-.08.12-.01.24.09.26.21.02.12-.04.25-.14.31-.08.05-.19.06-.28.04-.03,0-.06-.02-.09-.03-.01,0-.07-.02-.08-.01,0,0-.05.05-.06.07-.02.03-.03.05-.05.06.14.11.27.24.39.38.01.02.03.03.04.05.04.05.08.11.12.17.4.61.48,1.29.47,1.78.08.05.14.1.2.14,0,0,.23-4.58.25-4.86s.09-.81,0-.98c-.06-.13-.26-.6-.79-1.03-.03.05-.04.08-.06.14-.11.26.01.61.17.82.01.01.02.03.03.03s.03,0,.05,0c.12,0,.24.03.33.11.14.12.22.41.11.58-.04.06-.12.1-.19.12-.13.03-.28,0-.38-.1-.17-.17-.09-.42-.02-.62,0-.01.01-.03,0-.04,0,0,0-.02-.01-.02-.04-.05-.13-.19-.19-.21-.06-.02-.15.07-.19.12-.07.08-.13.18-.1.28.01.04.03.08.05.11.08.15.11.34.07.5-.03.12-.09.24-.2.29-.07.03-.16.03-.23.01-.14-.03-.27-.12-.34-.25-.07-.13-.08-.29,0-.42.1-.16.29-.22.47-.28-.01-.08,0-.06-.02-.15-.22-.01-.44-.01-.66,0-.06,0-.13,0-.19.04-.16.1-.12.34-.2.51-.09.18-.35.23-.53.14s-.29-.29-.32-.49c-.02-.14,0-.3.09-.41.11-.14.29-.16.46-.14.12,0,.25.05.33.14.01.01.02.03.04.03.01,0,.03,0,.04,0,.13,0,.26-.01.39-.01.21,0,.43.01.63,0,.14-.01.27-.18.31-.34.03-.11,0-.16,0-.38,0-.12.02-.22.03-.28-.11-.07-.24-.15-.39-.22-.17-.08-.34-.15-.48-.19-.05.1-.17.21-.21.24-.03.03-.25.17-.3.21.02-.02.12.36.02.5-.07.1-.19.14-.31.12-.12-.01-.23-.06-.32-.13-.03-.03-.06-.07-.08-.11-.02-.04-.03-.09-.02-.14.01-.14.1-.27.23-.34.13-.07.28-.06.41,0,.02.01.3-.22.33-.24,0,0,.01,0,.02-.01.05-.04.08-.09.11-.14-.55-.15-1.05-.14-1.34-.12-.08.11-.16.22-.28.27-.09.04-.19.03-.29.02-.13-.02-.25-.05-.35-.14-.1-.08-.16-.21-.14-.34.01-.06.04-.12.08-.16.12-.14.32-.2.5-.17.11.02.43.15.52.29.1-.01.21-.03.34-.03-.04-.08-.06-.21-.06-.24,0-.03-.02-.25,0-.31,0,0,0-.02-.01-.02-.08,0-.27-.13-.3-.26-.03-.1.01-.21.08-.28.07-.07.17-.11.27-.14.03,0,.07-.01.11,0,.04,0,.08.03.1.06.09.08.13.21.11.34-.02.12-.1.23-.22.28-.02,0-.01.32-.01.36v.02c0,.08.02.14.06.2.23,0,.52.05.85.14,0-.14-.03-.27-.07-.4,0,0,0-.02-.01-.02,0,0-.02-.01-.03-.02-.17-.06-.32-.2-.36-.38-.01-.05-.02-.1-.01-.14.01-.08.07-.16.14-.21s.15-.08.23-.1c.03,0,.05-.01.08-.01.05,0,.1.03.14.07.08.08.16.17.17.29,0,.12-.07.24-.16.32-.04.03-.08.06-.09.11,0,.03,0,.05,0,.08,0,.07.03.14.06.21.23-.11.37-.35.45-.59.01-.04.03-.09,0-.13,0-.02-.02-.03-.04-.04-.1-.1-.12-.26-.07-.39.05-.13.17-.23.31-.25.06-.01.13-.01.19,0,.1.03.18.13.22.23.03.08.05.17.02.26-.02.06-.07.12-.12.17-.04.04-.09.08-.14.11-.06.03-.12.04-.18.02-.06.16-.13.31-.21.46-.03.05-.09.14-.12.16-.06.06-.12.08-.2.12-.02.01-.05.03-.06.05-.01.03,0,.06.02.1.16.05.33.11.5.19.24.1.47.25.7.4.13-.08.27-.33.13-1.05h0s0-.03,0-.05c-.02-.15.01-.31.11-.43.06-.07.16-.13.19-.22.01-.03.02-.06.04-.08.05-.05.14-.04.2-.06.09-.03.15-.12.24-.16.09-.04.2-.02.31-.02.07,0,.16,0,.2.06.02.04.01.08.02.12.02.07.1.12.11.19.01.07-.04.13-.04.2,0,.07.04.14.02.2-.02.04-.06.07-.08.11-.03.05,0,.12-.03.17-.02.05-.07.09-.11.14-.04.06-.05.15-.1.2-.05.05-.13.05-.2.07-.01,0-.03.01-.06.02-.03.01-.05.03-.07.05-.03.02-.06.03-.1.04-.18.11-.42.3-.58.64.45.3.85.6,1.15.61.3.02.52-.09.76-.37.13-.15.25-.3.38-.43-.04-.03-.07-.07-.11-.1-.05.07-.14.11-.22.12-.08,0-.17-.02-.25-.06-.06-.03-.13-.08-.17-.14-.09-.12-.1-.29-.02-.42.07-.13.22-.21.37-.23.1,0,.22.03.28.11.08.11.05.28.09.41.02.06.11.14.14.21.39-.4.77-.68,1.22-.88.01-.03.02-.06,0-.1-.01-.02-.04-.03-.06-.04-.1-.03-.14-.06-.22-.14-.09-.07-.14-.15-.15-.16-.22-.28-.19-.34-.29-.39-.11-.05-.17.01-.29-.06-.03-.02-.1-.06-.14-.15-.04-.08-.04-.17-.01-.26.03-.1.06-.19.16-.24.06-.03.15-.05.21-.05.14.01.27.09.34.21.07.12.06.28-.02.39-.01.01-.02.03-.03.05-.02.04,0,.09.02.13.11.23.28.45.52.52.03-.07.04-.14.04-.21,0-.03,0-.05-.01-.08-.02-.04-.06-.07-.1-.1-.1-.07-.19-.17-.2-.3,0-.11.05-.22.13-.31.03-.04.07-.06.12-.07.03,0,.09-.02.12-.01.08.01.14.03.22.07.08.04.14.11.17.19.01.05.01.1,0,.14-.02.18-.15.35-.31.42-.01,0-.02.01-.03.02,0,0,0,.01,0,.02-.03.14-.04.27-.01.41.25-.1.51-.17.81-.21.04-.07.06-.16.05-.24v-.02c-.01-.13-.02-.28-.09-.38-.07-.12-.15-.06-.21-.17-.06-.11-.05-.29.06-.39.08-.07.17-.08.2-.08.03,0,.18-.01.28.1.08.09.09.21.05.31-.05.13-.17.11-.21.23-.04.1.03.16.03.34,0,.12-.02.22-.04.28.1.02.26.03.41-.04.22-.1.22-.28.42-.36.15-.06.39-.06.52.1.12.14.1.36,0,.5-.11.15-.29.17-.33.18-.24.03-.32-.13-.62-.2-.23-.05-.41-.02-.6.01-.31.05-.54.17-.69.26.03.05.08.08.13.12,0,0,.01,0,.02.01.03.02.34.21.36.2.12-.08.27-.1.41-.05.13.05.24.17.27.31.01.05.01.1,0,.14-.01.04-.04.07-.07.1-.08.08-.18.16-.29.19-.11.03-.25,0-.32-.08-.12-.12-.07-.35-.01-.48-.02.04-.34-.16-.38-.19-.03-.03-.15-.13-.21-.21-.05.02-.1.05-.16.07-.15.08-.26.15-.33.19-.1.06-.21.15-.34.25.02.05.05.12.08.21.06.23.01.31.06.44.06.16.22.3.36.3.21-.01.42-.05.63-.08.13-.02.26-.03.39-.04.01,0,.03,0,.04,0,.01,0,.03-.02.03-.04.07-.1.19-.16.31-.18.17-.03.34-.04.47.08.1.1.14.25.14.39,0,.2-.08.41-.25.53-.17.11-.43.09-.55-.07-.11-.16-.09-.41-.27-.48-.06-.03-.13-.02-.19-.01-.22.02-.44.05-.66.09v.15c.18.03.38.07.5.21.09.11.11.28.05.41-.05.14-.17.24-.31.29-.07.03-.16.04-.23.02-.12-.03-.2-.14-.24-.26-.06-.16-.06-.35,0-.51.01-.04.03-.08.04-.12.01-.1-.06-.19-.14-.27-.04-.04-.14-.12-.21-.09-.06.03-.13.17-.16.23,0,0,0,.01-.01.03,0,.01,0,.03.01.04.1.19.21.42.06.61-.08.11-.23.16-.37.14-.08,0-.16-.04-.21-.1-.13-.15-.08-.45.04-.59.08-.09.19-.14.31-.15.01,0,.03,0,.05,0,.02-.01.03-.03.03-.04.24-.53.09-.78.09-.78-.02-.04-.04-.13-.11-.19-.41.41-.7.91-.73,1.32,0,0,.05,2.49.09,3.08.05.6.19,3.1.19,3.1,0,0,.1-.06.25-.15-.03-.48,0-1.28.46-1.98.04-.06.08-.11.12-.17.01-.02.03-.04.04-.05.12-.14.25-.27.38-.37,0-.01,0-.03-.01-.05,0-.01-.03-.06-.07-.07-.02,0-.04.01-.1.03-.03,0-.06.02-.09.03-.1.02-.2.01-.28-.04-.1-.06-.17-.19-.15-.31s.14-.22.26-.21c.06,0,.12.04.17.08.07.06.13.12.17.2.02.04.03.08.05.12,0,.02,0,.03.01.05s.02.04.03.05c.01.01.03.03.05.04.02,0,.04,0,.05.01,0,0,0,0,0,0l.08-.06c.08-.05.16-.1.25-.16.03-.02.07-.04.1-.06,0,0,.01,0,.02,0-.03-.06-.06-.13-.07-.16,0-.03-.08-.27-.06-.32,0,0-.05,0-.1,0-.07,0-.19-.03-.25-.16-.05-.08-.03-.19.02-.27.02-.04.05-.11.16-.18.05-.03.1-.03.14-.03.04,0,.09.01.13.03.1.06.17.17.17.29,0,.12-.05.23-.15.3-.02.01.05.3.06.33,0,0,0,.01,0,.02.01.05.02.07.04.1.08-.04.15-.07.22-.1.03-.01.06-.02.08-.03.09-.04.18-.06.25-.09.05-.09.15-.18.2-.2.1-.06.22-.07.32-.02.03.02.06.04.08.08.04.06.03.15,0,.22s-.1.12-.17.15c-.05.03-.11.05-.17.05-.08,0-.16-.05-.23-.1,0,0-.01,0-.02-.01-.13.03-.29.08-.47.15.04.04.08.06.14.09,0,0,.01,0,.02,0,.03.01.34.12.35.1.08-.08.17-.14.28-.12s.22.09.27.2c.02.03.03.07.02.11,0,.03-.02.06-.04.09-.05.08-.11.16-.2.2-.08.04-.19.05-.27,0-.11-.08-.17-.26-.09-.38,0,0-.27-.07-.3-.08-.09-.03-.21-.1-.26-.17-.15.07-.31.17-.45.3.02.03.07.1.15.13.02,0,.06.03.12.02.04,0,.07-.03.09-.03.1-.02.19-.02.28.03.1.06.17.18.16.3-.02.12-.13.22-.25.21-.06,0-.12-.03-.17-.07-.07-.05-.14-.11-.18-.19,0,0,0,0-.05-.12-.02-.05-.03-.07-.05-.09-.02-.03-.05-.05-.06-.06-.02-.02-.06-.04-.1-.06-.07.06-.15.15-.23.27,0,0-.04.06-.07.12-.43.81-.19,1.5-.14,1.64.71-.45,1.61-1.06,1.88-1.42.43-.57,1.15-1.11,1.04-2.24-.11.02-.23.02-.34,0-.16-.03-.31-.11-.39-.24-.05-.09-.08-.19-.16-.26-.02-.02-.05-.04-.07-.06-.04-.06,0-.15,0-.22,0-.1-.08-.19-.09-.29-.01-.1.05-.21.07-.31.02-.07.04-.17.12-.18.04,0,.08.01.13.01.08,0,.15-.06.23-.05.07,0,.12.08.19.1.06.02.15,0,.2.04.04.03.05.08.08.11.05.04.12.05.17.08.05.04.06.1.1.15.05.06.14.09.17.17.04.08,0,.19.01.28,0,.03.02.06.03.09.02.06,0,.14,0,.2-.01.08-.05.17-.11.24.07.46.11,1.34-.37,2.17,0,0,1.37.06,2.55-.8-.13-.13-.26-.2-.35-.24,0,0-.27-.13-.67-.1,0,0-.03,0-.05.02-.01.01-.02.03-.02.04-.05.11-.14.2-.25.24-.17.07-.47,0-.56-.17-.04-.07-.04-.15-.02-.23.03-.13.13-.26.26-.3.23-.07.41.11.56.27,0,.01.02.02.03.02h.03c.06-.01.23-.03.27-.07.05-.05,0-.17-.02-.22-.04-.1-.1-.2-.2-.22-.04,0-.08,0-.13,0-.17,0-.35-.06-.48-.17-.09-.08-.17-.19-.16-.31,0-.08.05-.15.1-.21.1-.11.23-.19.38-.19.15,0,.29.07.37.19.1.16.06.36.03.54.08.03.06.02.14.05.11-.19.21-.38.31-.58.03-.06.06-.12.05-.18,0-.19-.25-.26-.36-.41-.12-.17-.05-.42.12-.54.16-.12.39-.12.58-.06.13.05.27.14.32.27.07.16,0,.33-.08.47-.06.1-.16.19-.28.23-.02,0-.03,0-.05.02-.01,0-.02.02-.02.03-.06.12-.11.23-.17.35-.16.31-.28.35-.29.57,0,.21.15.36.23.45.2.2.43.27.56.29.02-.01.04-.03.06-.05.14-.11.25-.23.33-.35,0-.05-.01-.08-.02-.11,0-.02-.02-.1-.06-.2-.01-.03-.03-.05-.04-.08-.01-.02-.03-.03-.05-.05-.05-.04-.09-.08-.12-.13-.07-.11-.11-.23-.14-.35-.02-.09-.03-.19,0-.27.06-.16.27-.25.43-.2s.29.21.3.39c.01.14-.04.28-.13.39-.03.04-.06.06-.09.1-.01.01-.1.1-.1.11,0,.01.02.05.04.08.03.05.06.11.09.17.07-.12.4-.69.53-1.17.06-.22.05-.36,0-.48-.04-.09-.1-.18-.14-.24-.1-.14-.13-.14-.18-.22-.09-.15-.13-.39-.02-.59.08-.13.19-.19.23-.21.14-.07.32-.08.46-.01.16.07.23.27.22.44-.01.14-.06.27-.12.39-.03.07-.09.16-.12.24-.06.14-.06.24-.1.38,0,0,0,0,0,.01-.01.08-.03.18-.06.28-.01.06-.02.14-.03.19.12.1.27.17.43.22,0,0,.02,0,.03,0,.01,0,.03-.01.04-.02.16-.12.38-.15.56-.08.05.02.1.05.13.08.06.06.09.16.09.25s-.03.18-.06.27c-.01.03-.02.06-.04.08-.03.04-.09.06-.15.07-.12.03-.25.03-.36-.04-.11-.07-.16-.21-.17-.34,0-.05,0-.11-.04-.15-.02-.02-.04-.04-.06-.05-.07-.04-.14-.06-.22-.07-.05.27.07.54.23.76.03.04.06.08.11.08.02,0,.04,0,.06,0,.15-.02.3.06.38.19.08.13.08.29.03.43-.03.06-.07.12-.12.16-.1.07-.22.07-.34.05-.09-.02-.18-.07-.23-.15-.04-.06-.06-.14-.07-.21,0-.06-.01-.13,0-.19s.04-.13.1-.17c-.1-.16-.19-.31-.27-.47-.03-.05-.04-.14-.05-.2-.02-.1,0-.16.01-.25,0-.03,0-.06,0-.08-.02-.03-.03-.03-.06-.03-.14.39-.36.85-.73,1.3-.05.06-.11.13-.16.19,0,.03.04.1.11.14.08.05.16.03.21.03.06-.01.1-.04.14-.05.15-.03.3-.02.43.05.16.09.27.28.23.47s-.21.34-.39.33c-.12,0-.21-.07-.27-.12-.14-.11-.14-.21-.33-.49-.03-.04-.08-.12-.18-.19-.03-.03-.06-.04-.08-.05-.25.25-.54.49-.84.69,0,0,0,.01.02.02.02.02.04.03.06.04.03.01.05,0,.12-.02.06-.02.1-.03.11-.04.12-.03.25-.02.36.05.13.08.22.24.19.39-.03.16-.19.26-.32.27-.19.01-.4-.16-.45-.34-.02-.07-.03-.19-.12-.27-.02-.02-.05-.03-.06-.04-.91.58-1.95.91-2.61.79,0,0-1.52,1.04-1.9,1.49s-1.16,1.48-1.16,1.48c0,0,.15,5.22.27,5.27.12.05,1.26-.64,2.34-.76.04,0,.08,0,.12-.01,0-.28.04-.64.11-1.05-.01,0-.03,0-.04,0-.17.03-.32.13-.46.23-.02.01-.03.03-.04.04,0,.02,0,.04,0,.06.01.15-.04.3-.14.41-.15.17-.51.27-.72.14-.08-.05-.13-.14-.15-.24-.04-.17,0-.36.12-.47.22-.21.52-.11.76-.02.01,0,.03.01.05,0,.01,0,.02-.01.03-.02.06-.05.23-.16.26-.23.03-.08-.09-.19-.15-.24-.1-.08-.22-.16-.35-.13-.05.01-.1.04-.14.07-.19.1-.41.14-.63.09-.15-.03-.3-.11-.36-.25-.04-.09-.04-.19-.01-.29.04-.17.15-.34.31-.43.16-.09.36-.09.52,0,.19.12.27.36.34.57.05,0,.11,0,.16,0,.03-.36.04-.64.03-.84,0-.1,0-.17-.05-.23-.12-.2-.43-.14-.63-.25-.23-.12-.29-.43-.18-.66.11-.23.36-.36.61-.39.17-.03.37,0,.51.11.17.14.19.36.18.57-.01.15-.06.3-.17.41-.01.01-.03.03-.04.05,0,.01,0,.03,0,.05,0,.16.01.32.01.48,0,.26-.02.53,0,.79.02.21.2.39.4.39.18-.81.55-1.79,1.29-2.72l.03-.03c-.06-.1-.1-.21-.2-.27-.05-.03-.11-.04-.17-.06-.13-.04-.25-.12-.34-.22-.06-.07-.11-.16-.12-.26-.01-.18.14-.35.32-.38s.37.07.46.23c.09.16.09.36.02.52-.02.05-.06.11-.04.17.01.03.03.05.05.07.01.01.06.04.11.08.3-.36.61-.64.9-.87.01-.07.06-.18.03-.23-.01-.03-.05-.04-.07-.05-.1-.04-.17-.06-.25-.14-.02-.02-.06-.05-.14-.16-.21-.32-.16-.46-.3-.55-.13-.08-.21.01-.37-.09-.03-.02-.11-.08-.16-.18-.04-.09-.03-.2,0-.3.04-.12.12-.23.23-.28.07-.03.15-.03.22-.02.02,0,.29.05.38.27.06.16.02.34-.05.43,0,.01-.03.04-.04.08,0,0-.02.07.01.15.11.27.3.54.57.65.04-.08.06-.16.06-.25,0-.03,0-.06-.01-.09-.02-.05-.07-.08-.12-.12-.12-.09-.21-.22-.22-.36,0-.13.08-.26.17-.35.04-.04.1-.09.16-.1.03,0,.12,0,.15,0,.1.02.14.06.23.12.08.05.16.13.18.23.01.06.01.11,0,.17-.04.21-.19.39-.39.47-.01,0-.03.01-.04.02,0,0,0,.02-.01.03-.04.17-.06.34-.04.51.39-.27.76-.45,1.09-.56.05-.11.12-.22.13-.26.01-.03.03-.07.02-.11,0-.07-.08-.12-.13-.17-.17-.14-.28-.37-.26-.59.02-.22.17-.44.39-.5.21-.06.47.05.56.25.05.11.04.23.01.35-.04.16-.13.32-.25.43-.05.05-.11.09-.15.16-.06.1-.06.25-.07.38.05-.02.1-.05.17-.07.05-.02.09-.04.15-.06.11-.04.13-.04.22-.07.03,0,.08-.03.13-.05.11-.06.16-.15.21-.19.11-.09.23-.18.37-.23.17-.06.39-.05.51.1.11.13.15.31.12.48-.03.12-.08.22-.15.29-.2.22-.5.2-.56.2-.1,0-.26-.02-.36-.13-.03-.03-.05-.08-.11-.1-.08-.03-.16,0-.21,0-.36.12-.28.03-.7.19-.07.03-.16.06-.28.11-.21.09-.55.27-.97.56.06.05.12.11.14.12.03.02.05.03.08.04.06,0,.12-.04.17-.07.16-.11.37-.16.55-.09s.33.23.33.43c0,.19-.14.38-.33.41-.1.01-.2-.01-.29-.06-.13-.07-.23-.17-.3-.3-.03-.05-.05-.11-.1-.16-.1-.11-.27-.11-.39-.19-.19.17-.38.37-.54.58.08.05.21.13.32.26.18.19.19.32.35.42.18.11.38.09.45.08.3-.04.33-.17.7-.36.14-.07.29-.14.43-.21.01,0,.03-.01.04-.03.01-.02.02-.04.03-.06.04-.15.16-.27.28-.34.18-.11.39-.19.59-.1.16.07.28.23.33.4.08.24.08.52-.07.72s-.46.29-.67.15c-.19-.14-.28-.43-.52-.44-.08,0-.16.03-.23.06-.25.12-.49.25-.72.38.04.1.03.08.07.18.22-.04.47-.08.67.04.16.09.25.28.24.46,0,.18-.1.35-.23.47-.07.06-.16.12-.26.12-.15.01-.29-.08-.39-.2-.14-.16-.21-.38-.21-.6,0-.05,0-.1,0-.16-.03-.12-.16-.2-.28-.25-.07-.03-.22-.08-.28-.02-.06.06-.07.26-.09.34,0,.01,0,.02,0,.03,0,.02.02.03.03.04.19.18.42.4.33.69-.05.16-.2.28-.37.32-.09.02-.2.02-.28-.03-.21-.12-.29-.49-.21-.7.05-.14.16-.25.3-.31.02,0,.04-.01.05-.03.01-.01.02-.04.02-.06.03-.17.05-.35,0-.51-.04-.11-.08-.3-.25-.43-.12-.1-.24-.13-.31-.15-.05.06-.08.12-.13.19-.81,1.31-.59,2.75-.38,3.52.98-.14,2.08-.37,2.77-.84,1.04-.71,1.75-1.16,2.17-2.86.41-1.7.24.49.24.49,0,0,1.06-.63,2.19-.49,0-.02.03-.07.06-.12,0-.01,0-.03.01-.04,0-.03.02-.06.03-.09,0-.02,0-.06,0-.08,0-.03-.02-.04-.03-.06-.03-.05-.05-.11-.05-.17-.02-.12,0-.25.02-.37.02-.09.05-.17.12-.24.12-.12.34-.11.47,0,.13.11.17.3.11.47-.05.13-.15.23-.27.29-.03.01-.07.02-.12.05-.02.01-.08.05-.12.12-.07.12-.01.25,0,.27,0,0,.01,0,.02,0,.7.15,1.3.41,1.69.61.03-.03.03-.06.03-.08,0-.12-.19-.16-.3-.35,0-.01-.02-.04-.04-.12-.05-.19-.08-.39-.11-.58-.07,0-.14-.03-.19-.07-.06-.05-.1-.1-.14-.16-.04-.07-.08-.14-.09-.22-.01-.1.03-.2.09-.28.07-.1.18-.19.31-.2.07,0,.15.01.22.05.15.07.26.21.28.38.02.16-.05.34-.19.42-.02.01-.04.02-.05.04-.03.04-.03.09-.03.15.02.3.12.6.35.79.06-.06.1-.14.13-.22.01-.03.02-.06.02-.09,0-.06-.04-.1-.07-.15-.08-.12-.14-.27-.1-.41.04-.12.14-.21.26-.27.05-.03.12-.04.18-.03.03,0,.07,0,.1.02.09.05.17.11.24.18.06.08.11.17.1.28,0,.06-.03.11-.05.16-.1.19-.3.32-.52.33-.01,0-.03,0-.04.01,0,0-.01.01-.02.02-.1.16-.17.32-.2.5.11.05.21.14.33.18.07.02.16.03.23.05.12.03.23.07.33.14.12.08.21.24.17.39-.04.13-.14.25-.27.3-.27.11-.52-.01-.66-.25-.1-.18-.08-.36-.08-.36,0-.04.01-.07,0-.12-.03-.1-.16-.14-.19-.16-.21-.12-.55-.29-1.08-.54,0,.04,0,.12.05.2.01.02.04.07.09.1.1.07.19.02.32.04.18.03.29.19.31.23.08.12.15.35.02.54-.11.16-.34.23-.51.14-.09-.05-.16-.13-.2-.22-.06-.12-.12-.26-.13-.39,0-.07,0-.13,0-.2,0-.04.01-.04.01-.06,0-.06-.03-.12-.07-.2-.01-.02-.03-.04-.04-.06l-.12-.17c-.06-.01-.11-.02-.17-.03-.15-.03-.29-.04-.42-.04-.02.09-.06.21-.13.36-.1.18-.17.21-.2.33-.04.17.04.41.18.48.21.1.43.18.65.27.13.06.26.12.39.17.01,0,.03.01.04.01.02,0,.03,0,.05-.01.12-.05.27-.05.39,0,.18.06.35.15.41.34.05.15,0,.32-.08.45-.11.19-.31.35-.53.37-.22.02-.46-.15-.48-.37-.02-.21.13-.44,0-.6-.04-.06-.11-.09-.17-.12-.22-.1-.44-.19-.67-.27-.05.08-.04.06-.08.15.16.13.32.27.35.47.03.16-.05.32-.17.43s-.3.14-.45.11c-.08-.01-.17-.05-.23-.11-.09-.1-.11-.25-.08-.38.03-.19.14-.36.28-.48.04-.03.08-.06.1-.09.07-.09.05-.22.01-.33-.02-.06-.07-.19-.15-.2-.07,0-.22.1-.28.13,0,0-.02.01-.02.02,0,.01,0,.03-.01.04,0,.23-.03.51-.28.62-.14.06-.31.03-.43-.06-.07-.05-.13-.12-.14-.21-.04-.21.17-.48.36-.54.12-.04.27-.03.38.03.01,0,.03.02.05.02.02,0,.04-.01.05-.02.47-.34.57-.71.57-.71.02-.06.04-.15.04-.26-.25.02-.6.07-1,.25-.58.26-.92.64-1.37,1.18-.3.35-.67.85-1.04,1.51.19-.05.43-.13.72-.27,0,0,0,0,0,0,.02-.01.05-.02.07-.03.21-.08.44-.09.63,0,.18.09.16.13.37.2.07.02.14.04.2.1.06.06.04.11.08.19.07.16.19.12.31.27.09.11.09.28.13.42.03.1.07.23,0,.3-.05.04-.11.04-.16.07-.09.05-.13.17-.23.22-.09.04-.19,0-.29.01-.09.02-.17.1-.27.09-.06,0-.11-.06-.17-.07-.08-.02-.17.03-.25.02-.08-.01-.15-.07-.22-.1-.1-.04-.22-.02-.31-.08-.08-.06-.11-.16-.16-.25-.01-.01-.03-.04-.05-.07-.03-.03-.06-.05-.09-.08-.03-.03-.06-.08-.08-.12-.15-.15-.38-.33-.69-.46-.97.57-2.14.82-3.6,1.12-.25.05-.5.13-.74.23.07.39.35,1.34,1.38,1.91.03-.16.02-.33,0-.49,0-.01,0-.02,0-.03,0-.01-.02-.02-.03-.03-.19-.09-.33-.29-.36-.5,0-.06,0-.12.01-.17.03-.1.11-.17.2-.22.09-.05.15-.08.25-.09.03,0,.11,0,.14.01.06.01.11.06.15.1.09.1.16.23.14.36-.01.14-.12.27-.24.34-.05.03-.1.06-.13.11-.01.03-.02.06-.02.09,0,.08.01.17.04.25.28-.09.49-.34.62-.6.02-.05.05-.1.03-.15,0-.02-.02-.04-.03-.05-.1-.13-.1-.32-.01-.46.08-.14.24-.23.4-.24.07,0,.15,0,.22.04.11.06.18.18.21.3.03.1.03.21-.02.3-.05.1-.13.15-.17.17-.03.02-.06.03-.1.03-.15.03-.21,0-.28.01-.14.03-.15.24-.38.55-.04.06-.08.1-.14.15-.09.06-.18.1-.18.1-.08.03-.1.03-.13.06-.03.04-.02.12.02.15s.08.04.12.06c.3.12.58.19.85.22.14-.15.18-.28.19-.37,0-.06,0-.06,0-.18.01-.18.02-.27.07-.36.04-.08.1-.15.17-.19.15-.08.34-.01.43.13.09.14.07.33-.03.47-.1.13-.27.21-.43.2-.04,0-.11-.01-.16.03-.01.01-.03.03-.05.12-.02.06-.03.12-.03.16.32.01.61-.02.87-.08.14-.17.17-.3.19-.41,0-.05,0-.05.01-.16.02-.18.03-.28.07-.36.04-.08.1-.15.17-.19.15-.08.34-.01.43.13.09.14.07.33-.03.47-.1.13-.27.21-.43.2-.03,0-.11-.01-.16.03-.02.02-.03.05-.05.09-.02.06-.03.11-.03.14.07,0,.2,0,.34-.06.16-.06.25-.16.27-.19.05-.05.05-.06.11-.13.06-.06.12-.13.2-.17.1-.05.23-.06.31.01.08.07.12.17.11.27s-.06.2-.14.26c-.12.08-.27.08-.41.06-.08-.01-.08-.02-.14-.03-.15-.01-.29.05-.4.13.01.01.03.03.05.04.11.07.25.1.38.12.03,0,.06,0,.09,0,.03,0,.06-.03.09-.05.12-.08.26-.14.41-.14s.3.08.34.22c.03.08.01.17-.01.25-.03.08-.06.16-.12.21-.12.12-.32.16-.48.08-.16-.07-.26-.25-.24-.42-.13-.04-.26-.08-.38-.14-.08-.03-.17-.08-.24-.14-.08.02-.21.04-.37.06,0,.01,0,.03-.01.04-.04.18-.03.36,0,.54,0,.01,0,.02,0,.03,0,.01.02.02.03.03.19.09.33.29.36.5,0,.04.01.1-.01.17-.06.18-.28.31-.48.3-.03,0-.15-.01-.25-.1-.1-.09-.16-.23-.14-.36.01-.14.12-.27.24-.34.05-.03.1-.06.13-.11.01-.03.02-.06.02-.09,0-.08-.01-.17-.04-.25-.28.09-.49.34-.62.6-.02.05-.05.1-.03.15,0,.02.02.04.03.05.1.13.1.32.01.46s-.24.23-.4.24c-.08,0-.15,0-.22-.04-.11-.06-.18-.18-.21-.3-.03-.1-.03-.21.02-.3.05-.09.11-.14.17-.17.13-.08.21-.08.31-.12.23-.09.17-.25.45-.45.22-.16.41-.18.45-.33,0-.05,0-.09,0-.11-.35.03-.8.04-1.26-.04-.05.08-.09.23-.09.31,0,.2.03.28-.03.42-.01.04-.07.18-.21.23-.14.05-.33-.01-.39-.14-.02-.05-.03-.08-.03-.12-.01-.18.08-.37.24-.46.07-.04.15-.07.23-.11.06-.04.13-.09.15-.16-.3-.06-.61-.17-.89-.33-.86-.49-1.52-1.22-1.85-1.65-.88.53-1.54,1.25-1.55,1.78,0,.24.03,1.06.03,1.06.01.25.03.52.05.8"/>
          </g>
          <path class="cls-3" d="m30.01,2.79C14.97,2.79,2.78,14.98,2.78,30.02s12.19,27.23,27.23,27.23,27.23-12.19,27.23-27.23S45.05,2.79,30.01,2.79Zm16.75,9.87c.68,0,1.22.55,1.22,1.22s-.55,1.22-1.22,1.22-1.22-.55-1.22-1.22.55-1.22,1.22-1.22Zm-33.65.35c.68,0,1.22.55,1.22,1.22s-.55,1.22-1.22,1.22-1.22-.55-1.22-1.22.55-1.22,1.22-1.22Zm17.29,35.82c-10.39,0-18.81-8.42-18.81-18.81S20.01,11.21,30.4,11.21s18.81,8.42,18.81,18.81-8.42,18.81-18.81,18.81h0Z"/>
          <g>
            <path class="cls-1" d="m23.1,50.75l.18.38.14-.06c.06-.03.12-.06.19-.09.06-.03.12-.06.17-.08,0,0,.02,0,.03-.01,0,.04,0,.09,0,.16v3.09c0,.12,0,.21-.01.28,0,.04-.02.07-.03.09-.01.01-.05.03-.08.03-.07.01-.17.02-.29.03h-.15v.43h1.43v-4.87h-.31l-1.26.61h0Z"/>
            <path class="cls-1" d="m28.64,50.84c-.13-.2-.3-.36-.49-.49-.2-.13-.44-.2-.72-.2-.24,0-.45.05-.65.16-.19.1-.35.24-.49.4s-.24.35-.31.56c-.07.21-.11.42-.11.63,0,.18.03.36.08.54.06.18.14.34.25.47.11.14.25.25.41.34h0c.19.11.42.15.68.12.46-.14.62-.74.62-.74h.01c-.08.04-.16.08-.24.12-.2.08-.39.05-.52-.06-.1-.08-.18-.18-.24-.3-.06-.13-.11-.26-.14-.41s-.05-.28-.05-.4.01-.24.04-.37c.03-.12.07-.23.13-.33.06-.09.13-.17.22-.23.08-.05.18-.08.3-.08.08,0,.14.02.2.06.06.05.12.1.17.17.05.08.09.17.13.27.04.11.06.22.08.32.02.11.04.21.05.32,0,.1.01.2.01.27,0,.14,0,.25-.01.35,0,.07-.02.15-.03.24,0,.06-.16.61-.16.61-.02.06-.05.12-.08.18-.11.24-.25.46-.42.66-.17.19-.36.35-.57.48-.21.12-.43.19-.66.19h-.15v.43h.3c.37,0,.73-.08,1.07-.25.33-.17.62-.39.87-.66.25-.27.45-.59.59-.94.14-.35.22-.72.22-1.1,0-.21-.03-.44-.09-.67-.06-.23-.16-.45-.28-.65h0Z"/>
            <path class="cls-1" d="m36.54,50.84c-.13-.2-.3-.36-.49-.49-.2-.13-.44-.2-.72-.2-.24,0-.45.05-.65.16-.19.1-.35.24-.49.4s-.24.35-.31.56c-.07.21-.11.42-.11.63,0,.18.03.36.08.54.06.18.14.34.25.47.11.14.25.25.41.34h0c.19.11.42.15.68.12.46-.14.62-.74.62-.74h.01c-.08.04-.16.08-.24.12-.2.08-.39.05-.52-.06-.1-.08-.18-.18-.24-.3-.06-.13-.11-.26-.14-.41s-.05-.28-.05-.4.01-.24.04-.37c.03-.12.07-.23.13-.33.06-.09.13-.17.22-.23.08-.05.18-.08.3-.08.08,0,.14.02.2.06.06.05.12.1.17.17.05.08.09.17.13.27.04.11.06.22.08.32.02.11.04.21.05.32,0,.1.01.2.01.27,0,.14,0,.25-.01.35,0,.07-.02.15-.03.24,0,.06-.16.61-.16.61-.02.06-.05.12-.08.18-.11.24-.25.46-.42.66-.17.19-.36.35-.57.48-.21.12-.43.19-.66.19h-.15v.43h.3c.37,0,.73-.08,1.07-.25.33-.17.62-.39.87-.66.25-.27.45-.59.59-.94.14-.35.22-.72.22-1.1,0-.21-.03-.44-.09-.67-.06-.23-.16-.45-.28-.65h0Z"/>
            <path class="cls-1" d="m32.18,52.81c-.12-.13-.26-.26-.39-.37-.09-.07-.17-.14-.26-.21l-.1-.08s-.01,0-.02-.01c-.09-.07-.19-.15-.29-.23-.09-.07-.18-.15-.27-.24-.08-.08-.14-.17-.19-.26-.05-.08-.06-.17-.06-.28,0-.08.02-.14.05-.21.03-.07.08-.14.14-.19.05-.05.12-.1.19-.13.07-.03.13-.05.2-.05.09,0,.18.02.26.06.09.04.17.09.23.16.07.07.12.14.16.23.04.08.06.17.06.26s0,.16-.02.21c-.01.05-.03.1-.05.14l-.17.43s.33.06.62-.14c.01,0,.02-.02.03-.03.08-.07.14-.16.19-.26.05-.1.07-.22.07-.35,0-.14-.03-.28-.1-.42-.06-.14-.16-.26-.27-.36s-.26-.19-.43-.25c-.3-.11-.71-.13-1.07-.01-.16.05-.31.13-.43.23-.13.1-.23.23-.31.38-.08.15-.12.32-.12.52,0,.17.03.32.08.46.05.13.12.25.21.36.08.1.18.2.28.29.05.05.1.09.16.14-.05.04-.11.08-.16.13-.11.09-.22.2-.31.31-.09.11-.17.24-.23.37-.06.14-.1.29-.1.45,0,.09.02.2.06.34.05.14.12.28.23.41s.26.25.44.34c.19.1.42.15.7.15.19,0,.37-.03.54-.09s.33-.15.46-.26c.14-.11.25-.25.33-.41.08-.17.12-.35.12-.56,0-.19-.05-.37-.14-.54-.09-.16-.19-.3-.32-.44h0Zm-.38,1.49c-.04.08-.09.15-.16.21-.06.06-.13.1-.21.14-.19.08-.38.06-.52-.02-.09-.05-.17-.12-.23-.2s-.12-.17-.15-.28c-.03-.11-.05-.22-.05-.33,0-.18.05-.35.17-.52h0c.09-.14.2-.26.31-.36.15.13.28.24.39.34.13.12.23.23.31.32.07.09.12.18.16.26.03.07.04.15.04.22,0,.08-.02.16-.06.23h0Z"/>
            <path class="cls-1" d="m8,37.87l1.49-2.03-.39-1.18-.36.12.03.13c.03.11.04.22.03.3,0,.09-.02.17-.05.25-.03.08-.07.16-.12.24-.06.08-.12.17-.19.27l-.63.86c-.04-.05-.08-.1-.12-.15-.1-.1-.2-.19-.32-.25-.12-.06-.25-.11-.38-.13-.14-.02-.29,0-.44.05-.09.03-.19.08-.3.16-.12.08-.21.19-.3.34-.08.14-.13.32-.14.52s.03.45.12.74l.56,1.71.38-.12-.05-.14c-.05-.14-.06-.23-.06-.27,0-.06.01-.08.02-.09.02-.03.06-.05.11-.07.07-.03.16-.06.27-.1l3.07-1.01-.26-.79-1.95.64h0Zm-1.12.37c-.13.04-.2.05-.24.04-.06,0-.1-.03-.11-.04-.03-.02-.05-.05-.06-.07-.02-.05-.04-.08-.05-.12-.03-.09-.04-.18-.03-.26,0-.08.03-.16.07-.23.04-.07.09-.13.16-.19.07-.05.15-.1.24-.13.1-.03.18-.05.26-.05.03,0,.05,0,.08,0,.1.02.18.05.25.1.07.05.14.12.19.21.06.09.1.19.14.29l.05.14-.93.3Z"/>
            <path class="cls-1" d="m8.91,33.04l-.38.05v.14c0,.05,0,.1,0,.15,0,.04,0,.08-.01.11,0,.02-.01.04-.03.05,0,0,0,0-.03,0-.02,0-.06,0-.14-.02-.08-.02-.15-.04-.2-.06l-.47-.14-.15-1.28,1.21-.66-.1-.82-3.98,2.13.03.3,4.38,1.35-.15-1.31h0Zm-2.84-.18l.96-.55.1.87-1.06-.32h0Z"/>
            <path class="cls-1" d="m5.84,29.71l-.12-.03c-.26-.07-.38-.15-.43-.19-.13-.12-.18-.33-.16-.62l.08-1.15,3.12,2.6.3.02.24-3.37-1.28-.32-.03.38.09.04c.13.06.23.11.32.17.07.05.13.11.17.2.05.09.08.21.09.37.01.17.01.39,0,.67l-.05.66-3.4-2.76-.25,3.53,1.26.24.03-.43h0Z"/>
            <path class="cls-1" d="m5.51,25.46c.14.22.32.41.55.57.23.16.49.28.79.36.19.05.39.07.57.07.1,0,.19,0,.29-.02.27-.04.53-.12.75-.25s.42-.3.58-.51.27-.45.34-.72h0c.07-.27.08-.54.04-.8-.04-.26-.14-.5-.28-.72-.14-.22-.32-.41-.55-.57-.23-.16-.49-.28-.79-.36-.3-.07-.59-.09-.86-.05-.27.04-.53.12-.75.25s-.42.3-.58.51c-.16.21-.27.45-.34.72s-.08.54-.04.8c.04.26.14.5.28.72Zm.24-1.41h0c.04-.16.11-.31.21-.43s.23-.23.39-.3c.16-.07.35-.12.56-.13.04,0,.07,0,.11,0,.19,0,.39.03.6.08.26.06.48.15.67.27.18.11.33.24.43.38.1.14.17.28.2.44.03.16.03.32-.01.48-.04.16-.11.31-.21.43s-.23.23-.39.3c-.16.07-.35.12-.56.13-.21.01-.45-.01-.71-.08-.26-.06-.48-.15-.67-.27-.18-.11-.33-.24-.43-.38-.1-.14-.17-.28-.2-.44-.03-.16-.03-.32.01-.48Z"/>
            <path class="cls-1" d="m20.6,6.47l.15,3.01-2.23-2.06-1.03.48.16.35.13-.05c.06-.02.12-.03.16-.02.05,0,.11.02.16.05.05.03.11.06.16.11.06.05.12.1.17.15l2.63,2.39.27-.12-.2-4.53-.54.25h0Z"/>
            <path class="cls-1" d="m25.27,8.05v.11c0,.13-.01.25-.03.34-.01.08-.04.16-.07.21-.03.06-.08.1-.13.14-.06.04-.15.08-.26.1l-.42.11c-.17.05-.27.04-.32.03-.07-.01-.12-.04-.16-.08-.04-.04-.07-.09-.09-.14-.03-.07-.04-.13-.06-.18l-.23-.84.89-.24c.07-.02.12-.03.17-.03.03,0,.03,0,.04.02,0,.01.03.04.06.13l.04.14.38-.1-.28-1.05-.38.1.04.14c.01.05,0,.07,0,.07,0,0-.02.02-.03.03-.04.02-.1.04-.17.06l-.88.24-.31-1.18.8-.21c.12-.03.23-.06.31-.07.07,0,.12,0,.17.01.05.02.09.05.13.1.05.06.1.16.16.28l.05.11.38-.1-.36-1.07-3.1.83.1.38.14-.04c.15-.04.23-.05.27-.05.05,0,.08.02.09.02.03.02.05.06.06.11.03.07.05.17.08.28l.83,3.12,2.59-.69-.07-1.27-.44.12h0Z"/>
            <path class="cls-1" d="m26,5.6c.01.08.03.17.04.29l.31,3.22.83-.08-.2-2.04,1.66,1.9,1.24-.12-.04-.38h-.14c-.12,0-.22,0-.3-.03-.08-.03-.16-.06-.23-.11-.07-.05-.14-.11-.21-.17-.07-.07-.14-.16-.22-.25l-.7-.8c.06-.03.12-.06.17-.09.12-.07.23-.16.32-.26.09-.1.16-.22.21-.35.05-.13.06-.28.05-.44,0-.1-.04-.21-.09-.33-.05-.13-.14-.25-.26-.36-.12-.11-.28-.19-.48-.25-.2-.06-.45-.08-.74-.05l-1.79.17.04.39h.15c.15-.03.23-.02.27-.01.06,0,.08.03.08.04.02.03.04.06.05.12h0Zm.88-.04c.02-.06.05-.09.06-.1.03-.02.06-.03.09-.04.05,0,.09-.02.13-.02.03,0,.05,0,.08,0,.07,0,.13,0,.19.03.08.03.15.06.21.12s.11.12.15.19.06.17.07.26c.01.14,0,.25-.03.34-.04.09-.09.17-.15.23-.07.06-.15.11-.24.14-.1.03-.21.06-.32.07h-.14s-.1-.96-.1-.96c-.01-.14,0-.21.01-.25h0Z"/>
            <path class="cls-1" d="m34.14,7.09c.01-.16.01-.32,0-.49-.02-.16-.05-.32-.11-.47-.05-.15-.13-.3-.22-.43-.09-.14-.21-.26-.34-.37-.11-.09-.24-.17-.38-.23-.14-.06-.28-.11-.42-.14-.14-.03-.28-.06-.43-.08-.14-.02-.28-.04-.41-.05l-1.61-.16-.04.39h.15c.15.03.23.05.27.06.06.02.07.05.07.05.02.03.03.07.02.13,0,.08,0,.17-.02.29l-.31,3.22,1.37.13c.11.01.21.02.31.02.24,0,.46-.03.66-.08.28-.08.53-.21.74-.38s.37-.38.48-.62c.11-.24.18-.5.21-.77h0Zm-.94-.08c-.02.21-.07.41-.15.6-.08.18-.18.34-.31.47-.12.13-.28.22-.45.29-.17.06-.38.08-.6.06-.09,0-.19-.03-.28-.05-.06-.01-.11-.03-.17-.05l.23-2.39c.02-.18.05-.31.11-.39.06-.08.11-.14.17-.17.06-.03.14-.05.21-.05.23.02.42.08.59.17.16.1.3.22.4.36.1.15.17.32.21.52.04.2.05.41.03.62h0Z"/>
            <path class="cls-1" d="m36.5,5.54l-2.88,3.57,1.28.34.1-.37-.13-.05s-.09-.03-.14-.05c-.04-.02-.07-.03-.1-.06-.02-.01-.03-.03-.04-.05,0,0,0,0,0-.03,0-.02.02-.06.07-.12.05-.07.1-.12.13-.16l.3-.38,1.24.34.16,1.37.79.21-.5-4.48-.29-.08h0Zm-1.06,2.22l.69-.87.15,1.1-.84-.23Z"/>
            <path class="cls-1" d="m41.71,8.04c-.08-.12-.17-.24-.28-.35-.11-.1-.22-.2-.35-.28-.12-.08-.25-.15-.37-.22-.13-.07-.25-.13-.37-.19l-1.46-.7-.17.36.13.06c.14.06.2.11.24.14.03.03.05.05.05.08,0,.03,0,.08-.02.13-.03.07-.07.16-.12.27l-1.4,2.91,1.24.6c.33.16.64.25.93.27.05,0,.11,0,.16,0,.23,0,.46-.04.66-.11.25-.09.47-.23.67-.42.19-.18.34-.41.46-.65.07-.15.13-.3.17-.46s.06-.32.06-.48c0-.16-.02-.32-.06-.48-.04-.16-.1-.32-.19-.47h0Zm-.65.9c-.03.2-.09.4-.19.6-.09.19-.21.36-.34.51-.14.14-.28.25-.45.33-.16.08-.34.12-.52.12h0c-.19,0-.38-.05-.58-.14-.08-.04-.17-.09-.25-.14-.05-.03-.1-.06-.14-.1l1.04-2.17c.08-.16.16-.27.24-.33.08-.06.15-.09.21-.1.06,0,.14,0,.22.03.21.1.37.22.49.37.12.15.2.31.25.48.05.17.05.36.03.56h0Z"/>
            <path class="cls-1" d="m53.59,21.14l-3.01.1,2.09-2.19-.46-1.04-.35.16.04.13c.02.06.03.12.02.17,0,.06-.03.11-.05.16-.03.05-.06.11-.11.16-.05.06-.1.12-.15.17l-2.43,2.59.12.27,4.53-.12-.24-.54h0Z"/>
            <rect class="cls-1" x="50.03" y="22.8" width="4.11" height=".83" transform="translate(-4.52 16.29) rotate(-17.05)"/>
            <path class="cls-1" d="m54.02,23.71c.03.15.03.23.03.27,0,.04-.01.07-.03.08-.03.03-.06.04-.12.06-.08.02-.17.04-.28.06l-3.18.58.15.82,2.02-.37-1.75,1.81.22,1.22.38-.07v-.13c-.02-.12-.02-.22,0-.3.02-.09.05-.17.09-.24.04-.08.09-.15.16-.22.07-.08.14-.16.23-.24l.74-.77c.03.06.06.11.1.16.08.12.17.21.28.29.11.08.23.14.36.18.14.04.28.04.44.01.1-.02.2-.06.32-.12.13-.06.24-.16.34-.29.1-.13.17-.3.21-.5.04-.2.04-.45-.02-.74l-.32-1.77-.39.07.03.14h0Zm.15,1.43s.03.09.03.12c.02.09.02.18,0,.27s-.05.16-.1.22c-.05.06-.11.12-.18.16s-.16.08-.26.09c-.14.03-.25.02-.34,0-.09-.03-.17-.07-.24-.13-.06-.06-.12-.14-.16-.23-.04-.1-.08-.2-.09-.31l-.03-.14.96-.18c.13-.03.21-.02.25,0,.06.02.09.04.11.05.02.03.04.05.05.08h0Z"/>
            <path class="cls-1" d="m53.85,28.15l.12.02c.38.07.49.16.52.19.05.06.11.21.12.56v.18l-3.57.07.02.87,3.57-.07v.17c.01.4-.06.53-.09.57-.03.04-.13.13-.51.22l-.12.03v.41s1.28-.07,1.28-.07l-.07-3.53-1.27-.02v.41s.01,0,.01,0Z"/>
            <path class="cls-1" d="m54.75,32.03c-.02.15-.05.23-.06.27-.01.04-.03.06-.06.07-.03.01-.07.02-.13.02-.08,0-.17-.02-.29-.04l-1.7-.26c-.2-.03-.39-.04-.58-.02-.2.01-.39.07-.56.17s-.32.25-.44.45c-.12.19-.2.45-.25.78-.05.32-.04.59.03.81.06.22.17.41.3.56.14.14.3.26.49.33.18.07.36.12.54.15l2.54.39.09-.53-2.27-.35c-.08-.01-.16-.03-.25-.04-.09-.01-.17-.03-.26-.06-.08-.02-.16-.05-.24-.09-.07-.03-.13-.07-.18-.11-.12-.12-.2-.25-.24-.42-.04-.17-.05-.35-.03-.52.01-.08.03-.17.06-.24.03-.07.07-.14.12-.2s.1-.11.17-.15c.06-.04.13-.07.22-.08.04,0,.1-.01.16-.01.07,0,.14,0,.22.01.08,0,.16.01.23.02.07,0,.14.02.19.03l2.37.36.21-1.36-.39-.06-.02.14h0Z"/>
            <path class="cls-1" d="m54.04,36.34c-.05.14-.09.21-.11.25-.03.05-.06.06-.07.06-.03,0-.08,0-.13,0-.08-.02-.17-.05-.28-.09l-3.05-1.06-.45,1.3c-.12.34-.17.67-.16.96.01.3.08.57.2.81s.28.45.49.61c.2.17.44.3.7.39.16.05.31.09.47.11.09.01.19.02.28.02.07,0,.14,0,.21-.01.16-.02.32-.05.47-.11.16-.06.3-.14.44-.24.12-.09.22-.19.31-.32.09-.12.17-.24.24-.38.06-.13.12-.26.18-.39.05-.13.1-.26.14-.39l.53-1.53-.38-.13-.05.14h0Zm-.64,1.54c-.07.21-.18.39-.31.53-.13.14-.28.24-.45.3-.17.06-.36.1-.55.09-.2,0-.41-.05-.61-.12-.2-.07-.39-.17-.55-.29-.16-.12-.28-.26-.38-.41-.09-.15-.15-.32-.17-.51-.02-.18,0-.38.08-.6.03-.09.07-.17.11-.26.03-.05.05-.1.08-.16l2.27.79c.17.06.29.12.36.2.07.07.11.14.12.2.02.06.01.14,0,.22h0Z"/>
            <path class="cls-1" d="m7.81,18.26l.09-.22.03-.07-.3-.13-.24.55-.2.43,2.26.99-3.02.84h-.04s-.02.05-.02.05h0l-.22.49,3.77,1.66.26-.6-1.83-.81-.56-.24,3.3-.93h.04s.15-.35.15-.35l-3.39-1.49s-.14-.05-.09-.17h0Z"/>
          </g>
        </g>
        <g>
          <rect class="cls-3" x="64.4" y="39.5" width="130.68" height=".52"/>
          <g>
            <path class="cls-3" d="m72.39,17.14c0,.42-.05.85-.15,1.27-.1.42-.28.81-.54,1.15-.27.34-.63.62-1.1.83s-1.06.32-1.79.32-1.36-.1-1.83-.3c-.47-.2-.84-.46-1.1-.79-.27-.33-.45-.71-.55-1.13-.1-.42-.15-.87-.15-1.33v-4.19c0-.29,0-.53-.02-.73-.01-.2-.06-.36-.15-.48-.08-.12-.21-.21-.39-.25-.18-.05-.43-.07-.76-.07v-.25h2.64v5.49c0,.14,0,.3,0,.49,0,.18.01.37.03.57s.03.38.06.56c.02.18.06.33.1.45.08.23.2.44.35.6.15.17.32.31.51.42s.4.19.63.25c.23.05.45.08.69.08.46,0,.92-.09,1.37-.27.45-.18.82-.47,1.09-.87.11-.17.2-.36.26-.58.06-.21.1-.43.13-.66.03-.22.05-.45.05-.67,0-.23,0-.43,0-.62v-5.24h.6v5.93h0Z"/>
            <path class="cls-3" d="m84.62,11.21h1.32v9.29h-1.32v-9.29Z"/>
            <path class="cls-3" d="m92.65,20.72h-.25l-3.3-7.75c-.07-.18-.16-.35-.24-.52-.08-.17-.18-.33-.29-.46-.11-.14-.24-.25-.39-.34-.15-.09-.33-.15-.55-.17v-.25h2.18l3.07,7.4,2.96-7.4h.67l-3.87,9.51h0Z"/>
            <path class="cls-3" d="m99.69,15.4h2.58c.2,0,.38-.02.51-.05s.24-.1.3-.18c.06-.08.1-.21.1-.38h.25v1.94h-.25c0-.23-.03-.39-.09-.51-.06-.12-.16-.19-.3-.24-.14-.04-.3-.06-.51-.06h-2.6v2.49c0,.14,0,.3.02.49.01.19.07.36.17.53.1.17.26.3.48.42s.53.17.93.17h1.07c.31,0,.57-.03.78-.1.21-.07.39-.17.54-.32s.28-.34.38-.57c.1-.23.2-.51.29-.84h.39l-.49,2.33h-5.88v-7.51c0-.29,0-.53-.02-.73-.01-.2-.06-.36-.15-.48-.08-.12-.21-.21-.39-.25-.18-.05-.43-.07-.76-.07v-.25h7.13l.12,2.03h-.28c-.07-.35-.14-.63-.23-.83-.09-.2-.21-.35-.36-.46-.15-.1-.34-.17-.55-.19-.22-.03-.5-.05-.82-.05h-2.37v3.68h0Z"/>
            <path class="cls-3" d="m106.72,13c0-.29,0-.53-.02-.73-.01-.2-.06-.36-.15-.48-.08-.12-.21-.21-.39-.25-.18-.05-.43-.07-.76-.07v-.25h4.03c.68,0,1.24.09,1.66.26.42.17.75.38.98.63.23.25.39.52.47.8.08.28.12.52.12.72,0,.34-.06.64-.19.9-.13.26-.3.49-.5.69-.21.2-.45.36-.73.49-.28.12-.57.22-.88.28l1.81,2.53c.17.25.33.47.49.67.16.2.33.38.52.53.18.15.4.27.63.36.23.1.51.16.83.18v.25h-2.49l-3.41-4.77c.29,0,.58-.03.86-.1.29-.07.54-.18.75-.34.22-.16.39-.37.53-.63.13-.26.2-.59.2-.98,0-.28-.05-.54-.14-.78-.09-.24-.22-.45-.38-.63-.17-.17-.37-.31-.61-.41s-.49-.15-.77-.15c-.1,0-.22,0-.35.02-.13.01-.25.06-.37.13s-.22.2-.3.38c-.08.18-.13.43-.13.74v7.51h-1.32v-7.51h0Z"/>
            <path class="cls-3" d="m115.47,17.53c.06.56.19,1.02.41,1.36.21.35.46.61.74.8.28.19.56.32.86.38.29.07.54.1.75.1.23,0,.47-.03.69-.09.23-.06.42-.15.6-.28.17-.13.31-.28.41-.48.1-.19.15-.41.15-.67,0-.36-.12-.67-.36-.93-.24-.27-.54-.51-.91-.74-.37-.23-.76-.45-1.17-.67s-.81-.46-1.17-.73c-.36-.27-.67-.57-.9-.91-.24-.34-.36-.74-.36-1.2,0-.36.07-.68.21-.98.14-.3.33-.56.58-.78.25-.22.54-.39.86-.51.32-.12.67-.18,1.03-.18.25,0,.49.03.7.08s.4.12.57.18c.08.04.18.1.29.18.11.08.23.16.37.23.14.07.28.11.43.13.15.02.31-.03.48-.14l-.04,2.54h-.25c-.03-.37-.1-.71-.23-1.04-.13-.32-.3-.61-.52-.85-.23-.24-.49-.43-.8-.57-.31-.14-.66-.21-1.04-.21-.2,0-.39.03-.59.11-.19.07-.37.17-.52.3-.15.13-.27.28-.37.47-.1.18-.14.37-.14.58,0,.33.13.62.39.86.26.25.58.48.95.7.38.22.8.44,1.24.65.45.21.86.46,1.24.72.38.27.7.57.96.91.26.34.39.73.39,1.19,0,.37-.07.71-.22,1.03s-.35.61-.62.86c-.27.25-.59.44-.96.58-.37.14-.78.21-1.23.21-.33,0-.61-.03-.84-.09-.23-.05-.45-.12-.63-.18-.09-.04-.18-.08-.27-.15-.08-.06-.18-.12-.3-.17-.12-.06-.27-.1-.44-.15-.17-.04-.4-.06-.67-.06v-2.39h.26Z"/>
            <path class="cls-3" d="m123.54,11.21h1.32v9.29h-1.32v-9.29Z"/>
            <path class="cls-3" d="m128.13,13c0-.29,0-.53-.02-.73-.01-.2-.06-.36-.15-.48-.08-.12-.21-.21-.39-.25-.18-.05-.43-.07-.76-.07v-.25h3.6c.32,0,.65,0,.99.02.34.01.68.05,1.02.09.34.05.67.13.99.23.32.11.62.25.89.43.32.21.59.47.83.75.23.28.43.59.58.93.15.33.27.68.34,1.05.07.36.11.73.11,1.11,0,.63-.1,1.24-.31,1.8-.21.57-.52,1.07-.94,1.5-.42.43-.94.77-1.57,1.02-.63.25-1.36.37-2.2.37h-3v-7.51h0Zm1.32,6.82c.24.06.49.1.73.13.24.03.49.05.73.05.6,0,1.13-.11,1.59-.33.46-.22.84-.52,1.15-.9.31-.38.54-.82.7-1.32.16-.5.24-1.03.24-1.59s-.08-1.11-.24-1.62c-.16-.5-.39-.94-.71-1.32-.32-.38-.71-.67-1.17-.89-.47-.21-1.01-.32-1.61-.32-.29.04-.52.11-.7.23s-.34.31-.49.58c-.14.27-.21.65-.21,1.14v6.15h0Z"/>
            <path class="cls-3" d="m146.26,13c0-.29,0-.53-.02-.73-.02-.2-.06-.36-.15-.48-.08-.12-.21-.21-.39-.25-.18-.05-.43-.07-.76-.07v-.25h3.59c.32,0,.65,0,.99.02.34.01.68.05,1.02.09.34.05.67.13.99.23.32.11.62.25.89.43.32.21.6.47.83.75.23.28.43.59.58.93.15.33.27.68.34,1.05.08.36.12.73.12,1.11,0,.63-.1,1.24-.31,1.8-.2.57-.52,1.07-.94,1.5-.42.43-.95.77-1.57,1.02-.63.25-1.36.37-2.2.37h-3.01v-7.51h0Zm1.32,6.82c.25.06.49.1.73.13.24.03.49.05.73.05.6,0,1.13-.11,1.59-.33.46-.22.84-.52,1.15-.9.31-.38.54-.82.7-1.32.16-.5.24-1.03.24-1.59s-.08-1.11-.24-1.62c-.16-.5-.39-.94-.71-1.32-.32-.38-.71-.67-1.17-.89-.47-.21-1.01-.32-1.62-.32-.29.04-.52.11-.7.23s-.34.31-.48.58c-.14.27-.22.65-.22,1.14v6.15h0Z"/>
            <path class="cls-3" d="m81.47,11.2h-.6s0,6.96,0,6.96h-.03l-.06-.07h0s-5.6-6.88-5.6-6.88h0s-.69,0-.69,0v9.31h.52s.1,0,.1,0v-7.15h0v-.18h.03l6.1,7.48h.16s.27,0,.27,0v-7.89c0-.26,0-.47.02-.65.01-.17.06-.32.13-.42.07-.11.19-.19.35-.23.16-.05.28-.06.57-.06v-.23h-1.25Z"/>
            <path class="cls-3" d="m141.13,11h-.25l-4.18,9.51h2.32v-.25c-.13-.01-.26-.03-.39-.04-.13-.02-.24-.05-.34-.09-.1-.04-.19-.1-.25-.18-.06-.07-.1-.18-.1-.31s.04-.29.12-.48c.06-.14.11-.26.15-.37h0l.05-.12.54-1.28h3.6l1.25,3.12h1.23l-3.75-9.51h0Zm-2.12,5.88l1.62-3.75,1.59,3.75h-3.2Z"/>
          </g>
          <g>
            <path class="cls-3" d="m102.6,32.2c.07.73.25,1.33.53,1.78.28.45.6.8.96,1.04.36.25.73.41,1.12.49.38.08.71.13.98.13.3,0,.6-.04.9-.12.29-.08.55-.2.78-.36.23-.17.4-.37.54-.62s.2-.54.2-.87c0-.47-.16-.87-.47-1.22-.31-.35-.71-.67-1.18-.97-.48-.3-.99-.59-1.53-.88-.54-.28-1.05-.6-1.53-.95-.47-.35-.87-.74-1.18-1.18-.31-.44-.47-.97-.47-1.58,0-.46.09-.89.27-1.28.18-.39.44-.73.76-1.01.32-.29.69-.51,1.12-.67.42-.16.87-.24,1.34-.24.33,0,.63.03.91.11.27.07.52.15.74.24.11.05.24.13.38.24.15.11.31.21.49.3.17.09.36.15.56.18.19.02.4-.04.62-.18l-.06,3.31h-.33c-.03-.48-.14-.93-.3-1.36-.17-.42-.39-.8-.69-1.11-.29-.31-.64-.56-1.04-.74-.41-.18-.85-.28-1.36-.28-.26,0-.51.04-.77.14-.25.09-.48.22-.68.39-.19.17-.35.38-.47.6-.12.23-.18.48-.18.75,0,.43.17.8.5,1.13.34.32.75.63,1.25.91s1.03.57,1.62.85c.58.28,1.13.59,1.62.94s.91.74,1.25,1.18c.34.44.5.96.5,1.56,0,.48-.09.92-.28,1.34-.19.42-.46.8-.81,1.12-.34.32-.76.57-1.25.76-.48.18-1.01.27-1.6.27-.43,0-.79-.04-1.1-.11-.31-.07-.58-.15-.82-.24-.12-.05-.24-.11-.35-.19-.11-.08-.24-.16-.39-.23-.15-.07-.34-.13-.57-.19-.23-.05-.51-.08-.87-.08v-3.11h.33Z"/>
            <path class="cls-3" d="m114.74,29.42h3.37c.27,0,.49-.02.67-.06.18-.04.31-.12.39-.24.09-.12.13-.29.13-.5h.33v2.53h-.33c0-.29-.04-.52-.12-.67-.08-.16-.21-.26-.38-.31-.18-.05-.4-.08-.67-.08h-3.39v3.24c0,.18,0,.39.03.64.02.25.09.48.22.7.13.22.33.4.62.55.28.14.69.22,1.22.22h1.39c.4,0,.74-.05,1.02-.13.27-.08.51-.23.71-.42.19-.19.36-.44.49-.74.13-.3.26-.66.38-1.09h.52l-.64,3.04h-7.67v-9.79c0-.38-.01-.69-.03-.95-.02-.25-.08-.47-.19-.62-.11-.16-.28-.27-.51-.33-.23-.06-.56-.09-.99-.09v-.33h9.3l.17,2.65h-.37c-.08-.46-.19-.82-.3-1.09-.12-.26-.27-.46-.47-.6-.2-.14-.44-.22-.72-.25-.29-.04-.64-.06-1.07-.06h-3.09v4.8h0Z"/>
            <path class="cls-3" d="m124.2,26.29c0-.38,0-.69-.03-.95-.02-.25-.08-.47-.19-.62-.11-.16-.28-.27-.51-.33s-.56-.09-.99-.09v-.33h5.6c.85,0,1.58.09,2.18.27.6.18,1.08.42,1.46.72.37.3.64.65.82,1.05.17.39.26.8.26,1.22,0,.67-.21,1.24-.62,1.7-.41.47-.92.78-1.52.95v.03c.36.05.69.15,1.02.3.32.15.61.34.86.58.25.24.45.52.61.85.15.32.23.67.23,1.07,0,.27-.05.6-.16.98-.1.39-.32.75-.65,1.11-.33.35-.8.65-1.42.91-.61.25-1.43.38-2.44.38h-4.49v-9.79h0Zm1.72,8.9c.63.16,1.33.24,2.07.24.39,0,.78-.05,1.17-.14.39-.09.74-.24,1.06-.44.32-.2.58-.46.78-.78.2-.32.3-.7.3-1.15,0-.54-.12-.99-.35-1.34-.23-.36-.53-.65-.9-.87-.37-.21-.78-.36-1.24-.45-.46-.08-.91-.12-1.36-.11l-1.56.05.02,4.98h0Zm3.59-5.91c.39-.18.69-.39.91-.65.21-.26.35-.52.41-.8.06-.28.09-.5.09-.69,0-.48-.1-.88-.3-1.2-.2-.32-.47-.59-.8-.8-.33-.21-.7-.36-1.11-.45-.41-.09-.82-.14-1.22-.14-.33.01-.59.1-.79.25-.19.16-.38.43-.54.82-.17.39-.25.96-.25,1.71v2.18l2.01.02c.66,0,1.18-.09,1.58-.27h0Z"/>
            <path class="cls-3" d="m146.12,32.2c.07.73.25,1.33.53,1.78.28.45.6.8.96,1.04.36.25.73.41,1.12.49.38.08.71.13.98.13.3,0,.6-.04.9-.12s.55-.2.78-.36c.23-.17.4-.37.54-.62s.2-.54.2-.87c0-.47-.15-.87-.47-1.22-.31-.35-.71-.67-1.18-.97-.48-.3-.99-.59-1.53-.88-.54-.28-1.05-.6-1.53-.95-.47-.35-.87-.74-1.18-1.18-.31-.44-.47-.97-.47-1.58,0-.46.09-.89.27-1.28.18-.39.44-.73.76-1.01.32-.29.69-.51,1.11-.67.42-.16.87-.24,1.35-.24.33,0,.63.03.91.11.27.07.52.15.74.24.11.05.23.13.38.24.15.11.31.21.48.3.18.09.37.15.56.18.19.02.4-.04.62-.18l-.06,3.31h-.33c-.04-.48-.14-.93-.3-1.36-.17-.42-.39-.8-.68-1.11-.29-.31-.64-.56-1.05-.74-.4-.18-.85-.28-1.35-.28-.25,0-.51.04-.77.14-.26.09-.48.22-.68.39-.19.17-.35.38-.48.6-.12.23-.18.48-.18.75,0,.43.17.8.5,1.13.34.32.75.63,1.25.91.49.29,1.03.57,1.62.85.58.28,1.12.59,1.62.94s.91.74,1.24,1.18c.34.44.5.96.5,1.56,0,.48-.09.92-.28,1.34-.19.42-.46.8-.8,1.12-.35.32-.76.57-1.24.76-.48.18-1.02.27-1.61.27-.43,0-.79-.04-1.1-.11s-.58-.15-.83-.24c-.12-.05-.23-.11-.35-.19-.11-.08-.24-.16-.39-.23-.15-.07-.34-.13-.57-.19-.22-.05-.51-.08-.87-.08v-3.11h.34Z"/>
            <path class="cls-3" d="m159.08,24.74h-1.03c-1,0-1.69.15-2.07.44-.34.26-.61.89-.82,1.9h-.44l.11-3.11h10.33l.11,3.11h-.44c-.22-1-.49-1.63-.82-1.9-.33-.29-1.02-.44-2.09-.44h-1.01v11.35h-1.83v-11.35h0Z"/>
            <path class="cls-3" d="m167.63,23.97h1.72v12.12h-1.72v-12.12Z"/>
            <path class="cls-3" d="m193.24,23.97h-.79s0,9.06,0,9.06h-.03l-.08-.09h0s-7.29-8.96-7.29-8.96h0s-.9-.01-.9-.01v12.12h.8v-9.54h.03l7.95,9.74h.56v-10.26c0-.33,0-.62.03-.84.02-.23.08-.41.17-.55.1-.14.25-.24.45-.29.21-.06.36-.08.74-.08v-.29h-1.63Z"/>
            <path class="cls-3" d="m78.37,23.69h-.33l-5.46,12.39h3.02v-.33c-.17-.01-.34-.03-.5-.05-.17-.03-.32-.06-.45-.12-.14-.06-.25-.13-.33-.23-.09-.1-.13-.23-.13-.4s.05-.38.16-.62c.08-.18.15-.34.2-.47h0l.07-.16.7-1.67h4.71l1.63,4.07h1.61l-4.89-12.39h0Zm-2.78,7.67l2.12-4.89,2.07,4.89h-4.18Z"/>
            <path class="cls-3" d="m94.49,23.97h-.79v9.06h-.03l-.08-.09h0s-7.29-8.96-7.29-8.96h-.01s-.9,0-.9,0v12.12h.79v-9.54h.04l7.95,9.74h.56v-10.26c0-.33,0-.62.03-.84.02-.23.07-.41.17-.55.1-.14.25-.24.45-.29.21-.06.36-.08.74-.08v-.29h-1.62,0Z"/>
            <path class="cls-3" d="m140.11,23.67h-.33l-5.46,12.39h3.02v-.33c-.17-.01-.34-.03-.5-.06-.16-.02-.32-.06-.45-.12-.13-.05-.24-.13-.33-.23-.09-.1-.13-.23-.13-.4s.05-.38.16-.62c.08-.19.14-.34.2-.48h0l.07-.16.7-1.67h4.71l1.63,4.06h1.61l-4.89-12.39h0Zm-2.77,7.67l2.11-4.89,2.06,4.89h-4.18Z"/>
            <path class="cls-3" d="m64.22,32.2c.07.73.25,1.33.53,1.78.28.45.6.8.96,1.04.36.25.74.41,1.12.49.39.08.71.13.98.13.3,0,.6-.04.9-.12.3-.08.55-.2.78-.36.23-.17.4-.37.54-.62.13-.25.2-.54.2-.87,0-.47-.16-.87-.47-1.22-.31-.35-.71-.67-1.18-.97-.48-.3-.99-.59-1.53-.88-.54-.28-1.05-.6-1.53-.95-.48-.35-.87-.74-1.18-1.18-.31-.44-.47-.97-.47-1.58,0-.46.09-.89.27-1.28.19-.39.44-.73.76-1.01.32-.29.69-.51,1.12-.67.42-.16.87-.24,1.34-.24.33,0,.63.03.91.11.27.07.52.15.74.24.11.05.24.13.39.24.15.11.31.21.49.3.17.09.36.15.56.17.19.03.4-.04.62-.18l-.05,3.31h-.33c-.04-.48-.14-.93-.3-1.36-.17-.43-.4-.8-.69-1.11-.29-.31-.64-.56-1.04-.74-.4-.18-.85-.28-1.35-.28-.25,0-.51.04-.77.14-.26.09-.48.22-.68.39-.2.17-.36.38-.48.6-.12.23-.18.48-.18.75,0,.43.17.8.5,1.13.34.32.75.63,1.25.91s1.04.57,1.62.85c.59.28,1.13.59,1.62.94s.91.74,1.25,1.18c.34.44.5.96.5,1.56,0,.48-.09.92-.28,1.35-.19.42-.46.79-.81,1.12-.35.32-.76.57-1.24.76-.48.18-1.02.27-1.6.27-.43,0-.8-.03-1.1-.11-.31-.07-.58-.15-.82-.24-.12-.05-.24-.11-.35-.19-.11-.08-.24-.16-.39-.23-.15-.07-.34-.13-.57-.19-.23-.05-.51-.08-.87-.08v-3.11h.33,0Z"/>
            <path class="cls-3" d="m178.95,32h-4.71l-.71,1.7c-.06.16-.14.36-.25.6-.1.25-.16.45-.16.62s.04.3.13.4.19.17.33.23c.14.05.28.1.45.12.16.03.33.04.5.05v.33h-3.02l5.46-12.41h.33l4.89,12.41h-1.61l-1.63-4.07h0Zm-2.31-5.55l-2.11,4.89h4.18l-2.07-4.89h0Z"/>
          </g>
          <g>
            <g>
              <path class="cls-3" d="m67.46,47.21l-1.6-3.84h-1.46v.43h.14c.09.02.17.04.23.08.07.04.13.1.17.16.05.07.1.14.14.23.05.09.09.19.13.28l1.87,4.39h.34l2.27-5.57h-.71l-1.54,3.84h0Z"/>
              <path class="cls-3" d="m75.1,44.06c-.24-.25-.52-.45-.84-.59-.65-.28-1.44-.28-2.08,0-.32.14-.61.34-.85.59-.24.25-.43.55-.56.89-.14.34-.21.72-.21,1.13s.07.79.21,1.13.33.64.56.89c.24.25.52.45.85.59.32.14.67.21,1.04.21s.72-.07,1.04-.21c.32-.14.61-.34.84-.59.24-.25.43-.55.56-.89.14-.34.21-.72.21-1.13s-.07-.79-.21-1.13c-.14-.34-.33-.64-.56-.89h0Zm-3.07,3.69c-.15-.19-.27-.43-.36-.7-.09-.28-.13-.61-.13-.97s.05-.69.13-.97c.09-.28.21-.51.36-.7.15-.19.33-.33.53-.42s.42-.14.65-.14.45.05.65.14.38.24.53.42c.15.19.27.42.36.7.09.28.13.61.13.97s-.05.69-.13.97c-.09.28-.21.52-.36.7-.15.19-.33.33-.53.42-.4.19-.91.19-1.31,0-.2-.1-.38-.24-.53-.42h0Z"/>
              <path class="cls-3" d="m85.01,43.25l-2.45,5.57h1.67v-.44h-.14c-.07-.01-.14-.02-.2-.03-.06,0-.11-.02-.16-.04-.03-.01-.06-.03-.08-.06-.01-.02-.02-.05-.02-.07,0-.04,0-.1.05-.2.05-.11.08-.19.1-.26l.27-.63h1.79l.69,1.73h1.01l-2.2-5.57h-.34,0Zm-.7,3.26l.66-1.53.65,1.53h-1.31Z"/>
              <rect class="cls-3" x="94.24" y="43.36" width="1.04" height="5.45"/>
              <path class="cls-3" d="m100.67,44.06c-.24-.25-.52-.45-.84-.59-.65-.28-1.44-.28-2.08,0-.32.14-.61.34-.85.59-.24.25-.43.55-.56.89-.14.34-.21.72-.21,1.13s.07.79.21,1.13c.14.34.33.64.56.89.24.25.52.45.85.59s.67.21,1.04.21.72-.07,1.04-.21c.32-.14.61-.34.84-.59.24-.25.43-.55.56-.89.14-.34.21-.72.21-1.13s-.07-.79-.21-1.13c-.14-.34-.33-.64-.56-.89h0Zm-3.07,3.69c-.15-.19-.27-.43-.36-.7-.09-.28-.13-.61-.13-.97s.05-.69.13-.97c.09-.28.21-.51.36-.7.15-.19.33-.33.53-.42s.42-.14.65-.14.45.05.65.14.38.24.53.42c.15.19.27.42.36.7.09.28.13.61.13.97s-.05.69-.13.97c-.09.28-.21.52-.36.7-.15.19-.33.33-.53.42-.41.19-.91.19-1.31,0-.2-.1-.38-.24-.53-.42Z"/>
              <path class="cls-3" d="m115.04,43.83c-.17-.15-.38-.26-.62-.34-.25-.08-.53-.12-.85-.12h-2.25v.45h.16c.17,0,.3.01.38.03.06.02.1.04.13.08.03.05.05.11.06.19,0,.11.01.24.01.39v4.31h1.04v-2.48c.05.03.11.06.18.09.09.03.18.05.28.07.1.02.18.03.25.03.37,0,.67-.06.9-.18.23-.12.41-.27.54-.44s.21-.34.25-.52c.04-.17.06-.31.06-.43,0-.21-.05-.42-.13-.61-.09-.19-.21-.37-.38-.51h0Zm-1.95.67c0-.19.03-.28.05-.34.03-.07.06-.12.09-.14.03-.02.06-.04.09-.04.23-.02.38,0,.53.07.11.05.21.12.28.21.08.09.14.2.18.32.04.12.06.26.06.4,0,.13-.02.25-.05.36-.03.12-.08.22-.14.32-.06.09-.13.16-.21.21-.16.1-.37.07-.56.07-.08,0-.19-.03-.31-.08h0v-1.37h0Z"/>
              <path class="cls-3" d="m121.08,44.06c-.24-.25-.52-.45-.84-.59-.65-.28-1.44-.28-2.08,0-.32.14-.61.34-.85.59-.24.25-.43.55-.56.89-.14.34-.21.72-.21,1.13s.07.79.21,1.13c.14.34.33.64.56.89.24.25.52.45.85.59s.67.21,1.04.21.72-.07,1.04-.21c.32-.14.61-.34.84-.59.24-.25.43-.55.56-.89.14-.34.21-.72.21-1.13s-.07-.79-.21-1.13c-.14-.34-.33-.64-.56-.89h0Zm-3.07,3.69c-.15-.19-.27-.43-.36-.7-.09-.28-.13-.61-.13-.97s.05-.69.13-.97c.09-.28.21-.51.36-.7.15-.19.33-.33.53-.42s.42-.14.65-.14.45.05.65.14.38.24.53.42c.15.19.27.42.36.7.09.28.13.61.13.97s-.05.69-.13.97c-.09.28-.21.52-.36.7-.15.19-.33.33-.53.42-.41.19-.91.19-1.31,0-.2-.1-.38-.24-.53-.42Z"/>
              <path class="cls-3" d="m127.06,48.28c-.12-.05-.22-.1-.31-.18-.09-.08-.18-.16-.26-.27-.09-.11-.17-.23-.27-.36l-.87-1.22c.1-.03.2-.07.3-.11.17-.08.32-.17.45-.3.13-.12.23-.27.31-.43.08-.16.12-.36.12-.56,0-.13-.03-.27-.07-.44-.05-.17-.15-.34-.3-.5-.14-.16-.35-.29-.6-.39-.25-.1-.58-.16-.98-.16h-2.39v.45h.16c.17,0,.3.01.38.03.06.02.1.04.13.08.03.05.05.11.05.19,0,.11.01.24.01.39v4.31h1.04v-2.86l2.05,2.86h1.61v-.43h-.14c-.16-.03-.3-.06-.41-.1h0Zm-3.1-2.41v-1.36c0-.15.02-.27.06-.35.03-.07.07-.12.11-.15.05-.03.09-.05.14-.05.24-.03.39,0,.54.06.11.05.2.11.28.19.08.08.14.18.18.29.04.11.06.24.06.38,0,.19-.03.35-.1.47-.06.12-.15.22-.25.3-.1.08-.22.13-.36.16-.15.03-.3.05-.45.05h-.23Z"/>
              <path class="cls-3" d="m135.28,47.33c-.05.17-.1.32-.16.44-.05.11-.11.2-.18.27-.07.06-.14.11-.24.14-.1.03-.23.05-.39.05h-.59c-.2,0-.35-.03-.45-.08-.1-.05-.16-.11-.2-.17-.04-.07-.07-.15-.07-.23,0-.1-.01-.19-.01-.26v-4.13h-1.77v.45h.16c.17,0,.3.01.38.03.06.02.1.04.13.08.03.05.05.11.06.19,0,.11.01.24.01.39v4.31h3.54l.34-1.6h-.52l-.03.11h0Z"/>
              <path class="cls-3" d="m138.68,43.25l-2.45,5.57h1.67v-.44h-.14c-.07-.01-.14-.02-.2-.03-.06,0-.11-.02-.16-.04-.04-.01-.06-.03-.08-.06-.01-.02-.02-.05-.02-.07,0-.04,0-.1.05-.2.05-.11.08-.19.1-.26l.27-.63h1.79l.69,1.73h1.01l-2.2-5.57h-.34,0Zm-.7,3.26l.66-1.53.65,1.53h-1.31Z"/>
              <path class="cls-3" d="m148.46,47.33c-.05.17-.1.32-.16.44-.05.11-.11.2-.18.27-.07.06-.14.11-.24.14-.1.03-.23.05-.39.05h-.59c-.2,0-.35-.03-.45-.08-.1-.05-.16-.11-.2-.17-.04-.07-.07-.15-.07-.23,0-.1-.01-.19-.01-.26v-1.22h1.28c.1,0,.18,0,.24.03.05.01.06.04.07.06.01.02.03.08.03.21v.15h.45v-1.38h-.45v.15c0,.08-.02.11-.03.12-.01.02-.04.03-.08.04-.06.01-.15.02-.25.02h-1.28v-1.73h1.16c.17,0,.32,0,.43.02.1.01.18.04.24.08.06.04.11.1.14.19.05.1.08.25.12.43l.02.12h.45l-.09-1.43h-4.25v.45h.16c.17,0,.3.01.38.03.06.02.1.04.13.08.03.05.05.11.06.19,0,.11.01.24.01.39v4.31h3.54l.34-1.6h-.52l-.03.11h0Z"/>
              <path class="cls-3" d="m155.13,48.34c-.05,0-.11-.03-.18-.07s-.14-.09-.22-.17-.17-.2-.28-.35l-1.28-1.93.88-1.15c.08-.1.16-.21.25-.31.08-.1.17-.2.27-.28.09-.08.19-.15.3-.2.1-.05.21-.07.34-.07h.16v-.45h-1.14l-1.43,1.91-1.22-1.91h-1.57v.43l.34.05c.05,0,.11.03.18.06.07.04.14.1.22.17.08.08.17.2.28.35l1.13,1.7-1.08,1.37c-.09.11-.17.21-.27.31-.09.1-.18.19-.28.27-.1.08-.2.15-.32.2-.11.05-.23.08-.36.1h-.14v.45h1.04l1.75-2.16,1.42,2.16h1.57v-.44h-.14c-.07-.01-.13-.02-.2-.03h0Z"/>
              <path class="cls-3" d="m160.53,43.73c-.06,0-.11-.02-.16-.04-.06-.03-.1-.05-.14-.08l-.12-.08c-.19-.09-.38-.16-.56-.21-.19-.05-.39-.07-.6-.07-.41,0-.8.08-1.14.23-.34.16-.64.37-.88.63s-.43.58-.57.94c-.13.36-.2.74-.2,1.13s.06.74.19,1.07c.13.33.31.63.54.87s.51.45.83.58c.32.14.69.21,1.08.21.54,0,.99-.12,1.35-.36.36-.23.66-.59.91-1.04l.07-.12-.36-.24-.09.12c-.12.17-.23.32-.34.44-.1.12-.22.22-.34.31-.12.08-.25.14-.4.19-.3.09-.73.09-1.14-.04-.21-.06-.39-.18-.56-.34-.17-.16-.31-.38-.41-.65-.11-.27-.16-.61-.16-1.02s.04-.77.13-1.07c.08-.3.2-.54.35-.73.14-.19.31-.33.51-.42.38-.18.89-.17,1.24-.04.17.06.32.16.45.27.13.12.23.26.32.43.09.17.17.36.23.57l.03.11h.39l-.1-1.55"/>
              <path class="cls-3" d="m165.87,47.33c-.05.17-.1.32-.16.44-.05.11-.11.2-.18.27-.06.06-.14.11-.24.14-.1.03-.23.05-.39.05h-.59c-.2,0-.35-.03-.45-.08-.1-.05-.16-.11-.2-.17-.04-.07-.07-.15-.07-.23,0-.1-.01-.19-.01-.26v-1.22h1.28c.1,0,.18,0,.24.03.05.01.06.04.07.06.01.02.03.08.03.21v.15h.45v-1.38h-.45v.15c0,.08-.02.11-.03.12-.01.02-.04.03-.08.04-.06.01-.15.02-.25.02h-1.28v-1.73h1.16c.17,0,.32,0,.43.02.1.01.18.04.24.08.06.04.11.1.14.19.05.1.08.24.12.43l.02.12h.45l-.09-1.43h-4.25v.45h.16c.17,0,.3.01.38.03.06.02.1.04.13.08.03.04.05.11.05.19,0,.11.01.24.01.39v4.31h3.54l.34-1.6h-.52l-.03.11h0Z"/>
              <path class="cls-3" d="m171.16,47.33c-.05.17-.1.32-.16.44-.05.11-.11.2-.18.27-.07.06-.14.11-.24.14-.1.03-.23.05-.39.05h-.59c-.2,0-.35-.03-.45-.08-.1-.05-.16-.11-.2-.17-.04-.07-.07-.15-.07-.23,0-.1-.01-.19-.01-.26v-4.13h-1.77v.45h.16c.17,0,.3.01.38.03.06.02.1.04.13.08.03.05.05.11.06.19,0,.11.01.24.01.39v4.31h3.54l.34-1.6h-.52l-.03.11h0Z"/>
              <path class="cls-3" d="m176.44,47.33c-.05.17-.1.32-.16.44-.05.11-.11.2-.18.27-.07.06-.14.11-.24.14-.1.03-.23.05-.39.05h-.59c-.2,0-.35-.03-.45-.08-.1-.05-.16-.11-.2-.17-.04-.07-.07-.15-.07-.23,0-.1-.01-.19-.01-.26v-1.22h1.29c.1,0,.18,0,.24.03.05.01.06.04.07.06.01.03.03.08.03.21v.15h.45v-1.38h-.45v.15c0,.08-.02.11-.03.12-.01.02-.04.03-.08.04-.06.01-.15.02-.25.02h-1.28v-1.73h1.16c.17,0,.32,0,.43.02.1.01.18.04.24.08.06.04.11.1.14.19.05.1.08.25.12.43l.02.13h.45l-.09-1.43h-4.25v.45h.16c.17,0,.3.01.38.03.06.02.1.04.13.08.03.04.05.11.05.19,0,.11.01.24.01.39v4.31h3.54l.34-1.6h-.52l-.03.11h0Z"/>
              <rect class="cls-3" x="188.84" y="43.36" width="1.04" height="5.45"/>
              <path class="cls-3" d="m193.36,43.25h-.34l-2.45,5.57h1.67v-.44h-.14c-.07-.01-.14-.02-.2-.03-.06,0-.11-.02-.16-.04-.04-.01-.06-.03-.08-.06-.01-.02-.02-.05-.02-.07,0-.04,0-.1.05-.2.05-.11.08-.19.1-.26l.27-.63h1.79l.69,1.73h1.01l-2.2-5.57h0Zm-1.04,3.26l.66-1.53.65,1.53h-1.31Z"/>
              <path class="cls-3" d="m106.5,43.91c0-.1.03-.09.08-.16s.11-.11.2-.13c.09-.03.16-.04.32-.04v-.23h-1.24s0,3.58,0,3.58l-2.92-3.58h-.64s0,5.44,0,5.44h.67v-2.65s0-1.15,0-1.15l3.19,3.89h.34"/>
              <path class="cls-3" d="m187.54,43.73c-.06,0-.11-.02-.16-.04-.06-.03-.1-.05-.14-.08l-.12-.08c-.19-.09-.38-.16-.56-.21-.19-.05-.39-.07-.6-.07-.41,0-.8.08-1.14.23-.34.16-.64.37-.88.63s-.43.58-.57.94c-.13.36-.2.74-.2,1.13s.06.74.19,1.07c.13.33.31.63.54.87s.51.45.83.58c.32.14.69.21,1.08.21.54,0,.99-.12,1.35-.36.36-.23.66-.59.91-1.04l.07-.12-.36-.24-.09.12c-.12.17-.23.32-.34.44-.1.12-.22.22-.34.31-.12.08-.25.14-.4.19-.3.09-.73.09-1.14-.04-.21-.06-.39-.18-.56-.34-.17-.16-.31-.38-.41-.65-.11-.27-.16-.61-.16-1.02s.04-.77.13-1.07c.08-.3.2-.54.35-.73.14-.19.31-.33.51-.42.38-.18.89-.17,1.24-.04.17.06.32.16.45.27.13.12.23.26.32.43.09.17.17.36.23.57l.03.11h.39l-.1-1.55"/>
              <path class="cls-3" d="m81.09,43.75c-.06,0-.11-.02-.16-.04-.06-.03-.1-.05-.14-.08l-.12-.08c-.19-.09-.38-.16-.56-.21-.19-.05-.39-.07-.6-.07-.41,0-.8.08-1.14.23-.34.16-.64.37-.88.63s-.43.58-.57.94c-.13.36-.2.74-.2,1.13s.06.74.19,1.07c.13.33.31.63.54.87s.51.45.83.58c.32.14.69.21,1.08.21.54,0,.99-.12,1.35-.36.36-.23.66-.59.91-1.04l.07-.12-.36-.24-.09.12c-.12.17-.23.32-.34.44-.1.12-.22.22-.34.31-.12.08-.25.14-.4.19-.3.09-.73.09-1.14-.04-.21-.06-.39-.18-.56-.34-.17-.16-.31-.38-.41-.65-.11-.27-.16-.61-.16-1.02s.04-.77.13-1.07c.08-.3.2-.54.35-.73.14-.19.31-.33.51-.42.38-.18.89-.17,1.24-.04.17.06.32.16.45.27.13.12.23.26.32.43.09.17.17.36.23.57l.03.11h.39l-.1-1.55"/>
              <path class="cls-3" d="m92.78,43.75c-.06,0-.11-.02-.16-.04-.06-.03-.1-.05-.14-.08l-.12-.08c-.19-.09-.38-.16-.56-.21-.19-.05-.39-.07-.6-.07-.41,0-.8.08-1.14.23-.34.16-.64.37-.88.63s-.43.58-.57.94c-.13.36-.2.74-.2,1.13s.06.74.19,1.07c.13.33.31.63.54.87s.51.45.83.58c.32.14.69.21,1.08.21.54,0,.99-.12,1.35-.36.36-.23.66-.59.91-1.04l.07-.12-.36-.24-.09.12c-.12.17-.23.32-.34.44-.1.12-.22.22-.34.31-.12.08-.25.14-.4.19-.3.09-.73.09-1.14-.04-.21-.06-.39-.18-.56-.34-.17-.16-.31-.38-.41-.65-.11-.27-.16-.61-.16-1.02s.04-.77.13-1.07c.08-.3.2-.54.35-.73.14-.19.31-.33.51-.42.38-.18.89-.17,1.24-.04.17.06.32.16.45.27.13.12.23.26.32.43.09.17.17.36.23.57l.03.11h.39l-.1-1.55"/>
              <path class="cls-3" d="m181.88,44.02c0-.1.03-.09.08-.16s.11-.11.2-.13.16-.04.32-.04v-.23h-1.24s0,3.58,0,3.58l-2.92-3.58h-.64s0,5.44,0,5.44h.67v-2.65s0-1.15,0-1.15l3.19,3.89h.34"/>
            </g>
            <path class="cls-3" d="m100.33,42.2c.18-.13.22-.28.22-.38,0-.13-.05-.24-.15-.33-.1-.08-.21-.13-.34-.12-.14.01-.27.09-.36.23l-.76,1.18.27.25,1.12-.82Z"/>
          </g>
        </g>
      </g>
    </g>
  </g>
</svg>