<svg enable-background="new 0 0 70 70" viewBox="0 0 70 70" xmlns="http://www.w3.org/2000/svg"><g stroke-miterlimit="10"><circle cx="35" cy="35" fill="#f4c81d" r="33.16" stroke="#f4c81d" stroke-width="2"/><g fill="none" stroke="#000" stroke-width=".5"><path d="m50.58 29.75c-1.11-3.51-4.86-5.45-8.36-4.34-.28.09-.54.2-.8.32-1.22-3.05-4.19-5.21-7.68-5.21-3.47 0-6.44 2.14-7.67 5.18-.84-.38-1.77-.6-2.75-.6-3.68 0-6.66 2.98-6.66 6.66s2.98 6.66 6.66 6.66h20.9.07.68l.01-.04c.42-.05.85-.14 1.27-.27 3.5-1.11 5.44-4.85 4.33-8.36z"/><path d="m27.24 42.33-1.33 2.65-.22.55c-.03.13-.06.26-.06.41 0 .89.72 1.61 1.61 1.61s1.61-.72 1.61-1.61c0-.14-.08-.39-.11-.52z"/><path d="m34.85 43.31-1.9 3.78-.32.79c-.05.19-.08.38-.08.58 0 1.27 1.03 2.3 2.3 2.3s2.3-1.03 2.3-2.3c0-.2-.11-.56-.16-.74z"/><path d="m41.5 42.33-1.33 2.65-.22.55c-.03.13-.06.26-.06.41 0 .89.72 1.61 1.61 1.61s1.61-.72 1.61-1.61c0-.14-.08-.39-.11-.52z"/></g></g></svg>