<svg enable-background="new 0 0 70 70" viewBox="0 0 70 70" xmlns="http://www.w3.org/2000/svg"><g fill="none" stroke-miterlimit="10"><circle cx="35" cy="35" r="33.16" stroke="#f4c81d" stroke-width="2"/><g stroke="#000"><path d="m18.44 43.14c4.68 0 4.68 2 9.36 2s4.68-2 9.36-2 4.68 2 9.36 2 4.68-2 9.36-2" stroke-width=".75"/><path d="m18.44 47.74c4.68 0 4.68 2 9.36 2s4.68-2 9.36-2 4.68 2 9.36 2 4.68-2 9.36-2" stroke-width=".75"/><path d="m26.97 30h1.07v7.04h-1.07z" stroke-width=".5"/></g><g stroke="#070707" stroke-width=".5"><path d="m32.7 27.33c.52-.82.56-1.81.2-2.64.29-.2.54-.46.74-.78.83-1.3.44-3.03-.86-3.86-.74-.47-1.61-.54-2.38-.28.03-.95-.42-1.89-1.28-2.44-1.3-.83-3.03-.45-3.86.86-.15.24-.25.5-.32.76-1.13-.27-2.35.17-3.01 1.21-.64 1.01-.55 2.26.12 3.17-.1.11-.2.23-.28.36-.83 1.3-.45 3.03.86 3.86.64.41 1.39.52 2.08.37.17.65.58 1.25 1.19 1.64 1.3.83 3.03.44 3.86-.86.03-.04.04-.09.07-.13 1.07.21 2.24-.24 2.87-1.24z"/><path d="m44.76 31.44c-.54-.18-1.11-.08-1.55.21-.14-.61-.58-1.13-1.21-1.33-.94-.31-1.95.2-2.28 1.13-.19-.82-.89-1.44-1.76-1.43-.57.01-1.07.28-1.41.69-.32-.53-.91-.89-1.57-.88-1.01.01-1.82.84-1.81 1.85 0 .19.04.36.09.53-.71.25-1.23.93-1.22 1.73.01.78.5 1.43 1.19 1.69-.01.1-.03.19-.03.3.01 1.01.84 1.82 1.85 1.81.5 0 .94-.21 1.27-.53.33.3.76.48 1.24.47.45 0 .85-.19 1.16-.46.22.27.49.51.84.62.47.15.96.1 1.37-.1.22.38.57.7 1.02.84.96.31 1.99-.22 2.3-1.18.01-.03.01-.06.02-.09.73-.05 1.39-.52 1.62-1.26.2-.6.06-1.24-.31-1.7.15-.18.27-.38.34-.61.33-.96-.2-1.99-1.16-2.3z"/></g></g></svg>