<svg enable-background="new 0 0 70 70" viewBox="0 0 70 70" xmlns="http://www.w3.org/2000/svg"><circle cx="35" cy="35" fill="none" r="33.16" stroke="#f4c81d" stroke-miterlimit="10" stroke-width="2"/><path d="m46.97 48.68h-20.43c-3.44 0-6.23-2.79-6.23-6.23v-11.48c0-3.44 2.79-6.23 6.23-6.23h20.43c3.44 0 6.23 2.79 6.23 6.23v11.48c.01 3.44-2.78 6.23-6.23 6.23z" fill="none" stroke="#000" stroke-miterlimit="10" stroke-width=".5"/><path d="m20.42 40.94c2.97-.39 5.46-1.98 8.07-3.34 1.45-.76 3-1.53 4.64-1.76 1.17-.16 2.28.01 3.07.98.46.57.7 1.28 1.15 1.85 1.95 2.49 4.69-.14 6.8-.85 3.16-1.06 6.59.08 8.78 2.5.22.24.57-.12.35-.35-1.82-2-4.41-3.19-7.14-3.03-1.39.08-2.65.54-3.86 1.21-.87.48-1.76 1.08-2.79 1.08-1.47 0-1.92-1.21-2.56-2.25-1.53-2.48-4.46-1.73-6.72-.76-3.27 1.4-6.17 3.75-9.78 4.22-.32.04-.33.54-.01.5z"/><circle cx="43.51" cy="31.83" fill="none" r="2.52" stroke="#000" stroke-miterlimit="10" stroke-width=".5"/></svg>