<svg enable-background="new 0 0 45 45" viewBox="0 0 45 45" xmlns="http://www.w3.org/2000/svg"><g stroke="#050505" stroke-miterlimit="10"><circle cx="22.5" cy="22.5" fill="none" r="21.28"/><g stroke-width=".9"><path d="m8.87 27.54 7.88-8.77c.28-.31.79-.33 1.1-.04l8.79 8.27c.31.29.82.27 1.1-.05l7.75-8.76" fill="none"/><circle cx="36.21" cy="17.46" r="1.44"/><circle cx="27.57" cy="27.54" r="1.44"/><circle cx="8.87" cy="27.54" r="1.44"/><circle cx="17.5" cy="18.9" r="1.44"/></g></g><path d="m6.19 17.24h10.87v11.25h-10.87z" fill="none"/><g clip-rule="evenodd" fill="#231f20" fill-rule="evenodd"><path d="m14.24 22.46h2.02v1.12h-2.02z"/><path d="m10.62 22.46h2.02v1.12h-2.02z"/><path d="m7.02 22.46h2.02v1.12h-2.02z"/></g><path d="m17.06 17.24h10.87v11.25h-10.87z" fill="none"/><g clip-rule="evenodd" fill="#231f20" fill-rule="evenodd"><path d="m25.11 22.46h2.02v1.12h-2.02z"/><path d="m21.5 22.46h2.02v1.12h-2.02z"/><path d="m17.89 22.46h2.02v1.12h-2.02z"/></g><path d="m27.94 17.24h10.87v11.25h-10.87z" fill="none"/><path clip-rule="evenodd" d="m35.98 22.46h2.02v1.12h-2.02z" fill="#231f20" fill-rule="evenodd"/><path clip-rule="evenodd" d="m32.37 22.46h2.02v1.12h-2.02z" fill="#231f20" fill-rule="evenodd"/><path clip-rule="evenodd" d="m28.76 22.46h2.02v1.12h-2.02z" fill="#231f20" fill-rule="evenodd"/></svg>