<svg enable-background="new 0 0 70 70" viewBox="0 0 70 70" xmlns="http://www.w3.org/2000/svg"><g stroke-miterlimit="10"><g stroke="#000"><g fill="none"><path d="m21.59 31.95v13.25c0 .89.66 1.65 1.54 1.78l11.63 1.68c.12.02.24.02.37.02l14.11-.85c.95-.06 1.69-.84 1.69-1.8v-.87" stroke-width=".35"/><path d="m50.93 45.35v-13.4" stroke-width=".35"/><g stroke-width=".45"><path d="m45.25 24.65c-.36-.39-.86-.61-1.39-.61l-13.97-.01c-.44 0-1.71.06-2.05.34l-8.11 6.49c.42 1.08 1.63 1.26 2.59.72l4.73-4c1.47-1.17 3.54-1.21 5.05-.08l5.43 4.06c.33.25.73.38 1.14.38h12.12c.47 0 .71-.56.39-.9z"/><path d="m38.04 48.69v-16.74"/><path d="m46.51 41.16h-3.99c-.47 0-.85-.38-.85-.85v-3.66c0-.47.38-.85.85-.85h3.99c.47 0 .85.38.85.85v3.66c.01.47-.38.85-.85.85z"/></g></g><g stroke-width=".45"><path d="m40.67 27.11v-4.97c0-.47.38-.85.85-.85h1.9c.47 0 .85.38.85.85v4.97c0 .47-.38.85-.85.85h-1.9c-.47 0-.85-.38-.85-.85z" fill="#fff"/><path d="m31.48 41.42h-3.99c-.47 0-.85-.38-.85-.85v-3.66c0-.47.38-.85.85-.85h3.99c.47 0 .85.38.85.85v3.66c0 .47-.38.85-.85.85z" fill="none"/></g></g><circle cx="35" cy="35" fill="none" r="33.16" stroke="#f4c81d" stroke-width="2"/></g></svg>