<svg enable-background="new 0 0 70 70" viewBox="0 0 70 70" xmlns="http://www.w3.org/2000/svg"><circle cx="35" cy="35" fill="none" r="33.16" stroke="#f4c81d" stroke-miterlimit="10" stroke-width="2"/><path d="m21.69 40.34 10.24-16.95c1.58-2.62 5.4-2.55 6.89.12l9.56 17.17c1.49 2.67-.46 5.96-3.52 5.92l-19.81-.21c-3.08-.04-4.96-3.41-3.36-6.05z" fill="none" stroke="#000" stroke-miterlimit="10" stroke-width=".5"/><path d="m35.1 31.62v4.76.67c0 .64 1 .64 1 0 0-1.59 0-3.17 0-4.76 0-.22 0-.45 0-.67 0-.65-1-.65-1 0z"/><circle cx="35.6" cy="39.88" r=".6" stroke="#000" stroke-miterlimit="10" stroke-width=".35"/></svg>