<?xml version="1.0" encoding="UTF-8"?>
<svg id="Capa_2" data-name="Capa 2" xmlns="http://www.w3.org/2000/svg" viewBox="0 0 55.01 72.25">
  <g id="Capa_1-2" data-name="Capa 1">
    <g>
      <path d="m6.76,72.25c-1.14-.46-2.4-.75-3.41-1.41C1.06,69.34.03,67.08,0,64.36c-.02-2.63,0-5.27,0-7.9,0-16.13,0-32.27,0-48.4C0,4.36,2.05,1.42,5.39.39,6.17.15,7.01.02,7.82.02c9.45-.02,18.91-.02,28.36,0,.32,0,.73.18.96.41,5.79,5.75,11.57,11.51,17.36,17.26.36.36.52.71.52,1.23-.01,15.05-.01,30.1-.01,45.15,0,4.29-2.36,7.19-6.57,8.08-.07.01-.12.06-.18.1H6.76ZM34.97,4.72c-.21-.02-.3-.04-.4-.04-8.87,0-17.73,0-26.6.03-2.1,0-3.24,1.23-3.24,3.41,0,18.67,0,37.35,0,56.02,0,2.23,1.17,3.41,3.38,3.41,12.93,0,25.87,0,38.8,0,2.18,0,3.34-1.19,3.34-3.38-.03-14.44-.06-28.88-.09-43.32,0-.25-.02-.5-.04-.8-.33,0-.58,0-.84,0-2.82,0-5.64.03-8.47.02-.58,0-1.19-.01-1.75-.16-2.54-.64-4.09-2.63-4.11-5.29-.02-3.03,0-6.07,0-9.1,0-.25,0-.51,0-.81Z"/>
      <path d="m22.74,36.87c0-3.53,0-6.93,0-10.34,0-.3,0-.61.05-.91.16-.94.8-1.62,1.75-1.65,1.97-.06,3.95-.07,5.92,0,1.16.04,1.8.94,1.8,2.28,0,2.59,0,5.17,0,7.76,0,.91,0,1.83,0,2.86.31,0,.58,0,.85,0,.92,0,1.83-.01,2.75.01.66.02,1.2.29,1.45.93.26.65.1,1.25-.4,1.74-.08.08-.17.17-.25.25-2.58,2.57-5.15,5.15-7.73,7.72-1.09,1.08-1.78,1.09-2.87,0-2.58-2.57-5.15-5.15-7.73-7.73-.07-.07-.13-.13-.2-.2-.52-.5-.73-1.11-.45-1.79.28-.7.89-.93,1.6-.94,1.12,0,2.24,0,3.45,0Z"/>
    </g>
  </g>
</svg>