<?xml version="1.0" encoding="utf-8"?>
<!-- Generator: Adobe Illustrator 26.4.1, SVG Export Plug-In . SVG Version: 6.00 Build 0)  -->
<svg version="1.1" id="Capa_1" xmlns="http://www.w3.org/2000/svg" xmlns:xlink="http://www.w3.org/1999/xlink" x="0px" y="0px"
	 viewBox="0 0 40 56" style="enable-background:new 0 0 40 56;" xml:space="preserve">
<style type="text/css">
	.st0{display:none;}
	.st1{display:inline;fill:#FACE2F;}
	.st2{display:inline;fill:#FFFFFF;}
	.st3{fill:#026BB2;}
	.st4{fill:#FFFFFF;}
	.st5{display:none;fill:#026BB2;}
</style>
<g id="Componente_17_4" transform="translate(802.985 449.5)" class="st0">
	<path id="Icon_material-location-on-2" class="st1" d="M-783-448.3c-10.4,0-18.8,8.4-18.8,18.8c0,0,0,0,0,0
		c0,14.1,18.8,34.9,18.8,34.9s18.8-20.8,18.8-34.9C-764.2-439.9-772.6-448.3-783-448.3C-783-448.3-783-448.3-783-448.3z M-783-422.8
		c-3.7,0-6.7-3-6.7-6.7c0-3.7,3-6.7,6.7-6.7s6.7,3,6.7,6.7l0,0C-776.3-425.8-779.3-422.8-783-422.8z"/>
	<circle id="Elipse_1-2" class="st2" cx="-783.4" cy="-429.6" r="10"/>
</g>
<path id="Icon_material-location-on" class="st3" d="M20,1.2C9.7,1.2,1.2,9.6,1.2,19.9c0,0,0,0,0,0C1.2,34,20,54.8,20,54.8
	S38.8,34,38.8,19.9C38.8,9.6,30.4,1.2,20,1.2C20,1.2,20,1.2,20,1.2z M20,26.7c-3.7,0-6.7-3-6.7-6.7s3-6.7,6.7-6.7s6.7,3,6.7,6.7l0,0
	C26.7,23.7,23.7,26.7,20,26.7z"/>
<circle id="Elipse_1" class="st4" cx="19.6" cy="19.9" r="10"/>
<path id="Trazado_295" class="st5" d="M128.6,46H66c-7.8,0-14.2-6.3-14.2-14.2l0,0V24c0-7.8,6.3-14.2,14.2-14.2h62.6
	c7.8,0,14.2,6.3,14.2,14.2v7.8C142.8,39.7,136.4,46,128.6,46L128.6,46"/>
<text transform="matrix(1 0 0 1 74.6486 32.668)" class="st4" style="font-family:'BloggerSans'; font-size:15.527px;">V</text>
<text transform="matrix(1 0 0 1 82.8778 32.668)" class="st4" style="font-family:'BloggerSans'; font-size:15.527px;">E</text>
<text transform="matrix(1 0 0 1 90.2375 32.668)" class="st4" style="font-family:'BloggerSans'; font-size:15.527px;">R</text>
<text transform="matrix(1 0 0 1 98.7774 32.668)" class="st4" style="font-family:'BloggerSans'; font-size:15.527px;">T</text>
<text transform="matrix(1 0 0 1 106.2301 32.668)" class="st4" style="font-family:'BloggerSans'; font-size:15.527px;">IDO</text>
</svg>
