<?xml version="1.0" encoding="UTF-8"?>
<svg id="Capa_2" data-name="Capa 2" xmlns="http://www.w3.org/2000/svg" viewBox="0 0 81.5 82.69">
  <defs>
    <style>
      .cls-1 {
        fill: #6893bf;
      }
    </style>
  </defs>
  <g id="Capa_1-2" data-name="Capa 1">
    <g>
      <path class="cls-1" d="m40.75,82.69c-54.34-.97-54.33-81.73,0-82.69,54.34.97,54.33,81.73,0,82.69Zm0-80.69c-51.71.93-51.7,77.77,0,78.69,51.71-.93,51.7-77.77,0-78.69Z"/>
      <g>
        <path d="m53.48,63.15c-8.57-.19-17.35.37-25.82-.2-1.53-2.72,3.78-1.35,5.19-1.66v-1.85c-5.07-1.11-21.63,3.14-21.78-3.74,0-10.81,0-21.62,0-32.43,0-2.17,1.82-3.73,3.73-3.73,7.88,1.42,56.93-3.5,55.63,3.25-2.09,38.77,9.4,37.3-21.78,36.64v1.85c1.41.1,7.56-.75,4.83,1.86Zm-40.52-7.42c-.11,1.11,1.08,2,2.19,1.85,17.11,0,34.22,0,51.33,0,1.08.1,2.16-.73,2.08-1.87H23.44c.45-.58.5-1.71,1.25-1.85,14.63,0,29.26,0,43.88,0-.96-4.55,2.35-33.67-2.1-32.48-17.17,0-34.34,0-51.51,0-4.37-1.05-1.08,27.91-2.03,32.48h1.34c.07.63.13,1.23.2,1.85h-1.53Zm21.78,3.72v1.82h12.03v-1.82h-12.03Z"/>
        <path d="m27.33,38.79c1.28-2.38,1.23-6.31,3.37-7.81,2.23,1.19,1.58,5.55,3.24,7.27,2.59.33,4.5-.23,6.1-2.38,1.64-1.3,1.98,1.63,2.56,2.63,4.61-19.48,4.78-3.68,6.3,5.1,2.69-7.44,4.13-4.2,10.13-5.25,3.33-7.31,11.84,2.63,4.1,4.81-2.16.48-3.4-1.29-4.42-2.75-7.31-.66-6.49.64-9.42,6.65-3.05,3.27-2.61-10.78-3.62-12.56-1.36,4.09-2.27,12.75-5.26,3.61-1.75,2.63-4.57,1.97-7.33,2-1.84-.59-1.52-3.69-2.42-5.24-2.16,5.84-2.36,10.86-6.45,2.25-1.5,2.13-3.46,2.39-5.91,2.14.5,2.67,1.84,4.76,4.06,6.29-6.93,11.92-3.95,13.6,1.63.88,9.33,2.95,9.27-4.81,13.62-4.46-2.17,5.37-7.42,7.45-12.76,6.85-2,2.62-2.73,9.64-7.18,7.99-3.87-2.67,1.29-7.35,2.23-10.51-11.83-12.55,8.17-28.92,17.29-13.77.86,1.39,1.35,3.42-.67,3.86-1.3-11.06-18.3-10.09-18.31,1,5.95,1.26,4.98-7.34,9.12,1.41Zm37.07.72c.07-2.41-3.71-2.45-3.71-.05-.06,2.39,3.71,2.46,3.71.05Z"/>
      </g>
    </g>
  </g>
</svg>