<?xml version="1.0" encoding="UTF-8"?>
<svg id="Capa_2" data-name="Capa 2" xmlns="http://www.w3.org/2000/svg" viewBox="0 0 82.69 82.69">
  <defs>
    <style>
      .cls-1 {
        fill: #6893bf;
      }
    </style>
  </defs>
  <g id="Capa_2-2" data-name="Capa 2">
    <g>
      <path class="cls-1" d="m41.35,82.69C18.55,82.69,0,64.14,0,41.35S18.55,0,41.35,0s41.35,18.55,41.35,41.35-18.55,41.35-41.35,41.35Zm0-80.69C19.65,2,2,19.65,2,41.35s17.65,39.35,39.35,39.35,39.35-17.65,39.35-39.35S63.04,2,41.35,2Z"/>
      <g>
        <path d="m46.55,20.99c1.74.77,3.36,1.5,5.01,2.18.2.08.6-.06.78-.23.79-.72,1.52-1.5,2.29-2.24,1-.97,1.89-.97,2.86,0,1.5,1.48,2.99,2.97,4.47,4.47,1.01,1.02,1,1.88-.01,2.92-.72.75-1.46,1.48-2.21,2.2-.35.33-.38.59-.18,1.05.63,1.39,1.21,2.81,1.75,4.23.16.42.35.58.8.57,1.1-.03,2.2-.02,3.29,0,1.26.01,1.94.67,1.95,1.9.01,1.62.01,3.24,0,4.85,0,1.18-.71,1.93-1.76,1.91-1.01-.01-1.68-.75-1.7-1.89-.02-1.01-.01-2.02-.02-3.03,0-.05-.03-.11-.09-.28-1.1,0-2.25,0-3.39,0-1.25,0-1.79-.44-2.05-1.65-.46-2.23-1.31-4.3-2.56-6.2-.68-1.03-.61-1.77.24-2.63.79-.8,1.62-1.56,2.43-2.35-.87-.85-1.66-1.62-2.59-2.53-.69.74-1.44,1.57-2.23,2.37-.9.92-1.63.99-2.69.3-1.93-1.27-4.03-2.12-6.29-2.57-1.09-.22-1.55-.82-1.56-1.95,0-1.15,0-2.3,0-3.52h-3.47c0,1.15,0,2.27,0,3.38,0,1.31-.43,1.84-1.68,2.1-2.2.46-4.24,1.29-6.13,2.53-1.1.73-1.83.64-2.77-.29-.74-.73-1.47-1.47-2.21-2.2-.04-.04-.1-.06-.15-.09-.75.78-1.51,1.56-2.35,2.43.64.65,1.35,1.38,2.08,2.1,1.19,1.18,1.27,1.75.36,3.17-1.18,1.84-1.97,3.85-2.41,5.99-.24,1.16-.8,1.61-1.99,1.61-1.15,0-2.3,0-3.5,0v3.47c1.08,0,2.17,0,3.25,0,1.51,0,1.95.35,2.27,1.8.48,2.16,1.3,4.18,2.52,6.04.7,1.07.63,1.8-.27,2.7-.79.79-1.63,1.54-2.47,2.32.92.89,1.7,1.65,2.64,2.57.72-.78,1.46-1.62,2.24-2.42.93-.95,1.62-.98,2.77-.29.84.5,1.67,1.1,2.59,1.39,2.16.68,3.34,2.5,4.84,3.94.25.24.31.73.35,1.12.06.51.01,1.02.01,1.64.59,0,1.11-.01,1.62,0,1.18.04,1.92.8,1.87,1.92-.05,1.06-.86,1.66-2.04,1.59-1.01-.06-2.02-.03-3.03-.05-1.2-.02-1.86-.69-1.88-1.88,0-.12-.01-.23,0-.35.41-2.52-1.08-3.79-3.09-4.72-.55-.25-1.13-.46-1.63-.79-.51-.33-.82-.19-1.18.2-.72.75-1.46,1.48-2.2,2.21-.96.92-1.87.93-2.8,0-1.52-1.5-3.03-3.01-4.53-4.54-.97-.98-.96-1.85.02-2.86.72-.75,1.45-1.49,2.21-2.2.37-.35.41-.63.18-1.12-.63-1.36-1.2-2.75-1.72-4.15-.17-.46-.37-.63-.86-.61-1.1.03-2.2.02-3.29,0-1.21-.01-1.89-.67-1.9-1.86-.01-2.22-.01-4.45,0-6.67,0-1.19.68-1.85,1.89-1.87,1.1-.01,2.2-.02,3.29,0,.47.01.69-.13.86-.6.53-1.43,1.17-2.82,1.71-4.25.1-.27.04-.74-.14-.94-.73-.82-1.55-1.55-2.3-2.35-.92-.97-.91-1.85.03-2.8,1.5-1.52,3.01-3.03,4.53-4.54.94-.93,1.85-.93,2.8,0,.77.74,1.53,1.49,2.27,2.27.32.34.57.41,1.04.19,1.39-.64,2.81-1.21,4.23-1.75.41-.16.6-.32.59-.78-.03-1.13-.02-2.25,0-3.38.01-1.2.68-1.87,1.88-1.88,2.2-.01,4.39-.01,6.59,0,1.26,0,1.92.67,1.93,1.91.01,1.3,0,2.59,0,3.75Z"/>
        <path d="m51.75,41.35c0,5.75-4.67,10.38-10.45,10.38-5.74,0-10.37-4.68-10.36-10.47,0-5.73,4.7-10.35,10.49-10.33,5.69.02,10.32,4.69,10.31,10.42Zm-10.35-6.95c-3.84-.01-6.97,3.08-6.98,6.9-.01,3.78,3.07,6.93,6.83,6.96,3.84.03,6.99-3.05,7.02-6.85.03-3.83-3.07-6.99-6.88-7Z"/>
        <path d="m49.44,63.18c2.16-2.18,4.21-4.25,6.26-6.31,2.81-2.82,5.63-5.64,8.45-8.45.87-.87,1.94-.96,2.68-.25.75.73.7,1.79-.19,2.68-5.26,5.27-10.53,10.54-15.8,15.8-.97.96-1.87.93-2.86-.05-2.53-2.53-5.07-5.06-7.6-7.6-.93-.93-1.03-1.97-.26-2.73.78-.77,1.78-.67,2.73.28,2.16,2.17,4.31,4.34,6.58,6.63Z"/>
      </g>
    </g>
  </g>
</svg>