<?xml version="1.0" encoding="utf-8"?>
<!-- Generator: Adobe Illustrator 27.2.0, SVG Export Plug-In . SVG Version: 6.00 Build 0)  -->
<svg version="1.1" id="Capa_1" xmlns="http://www.w3.org/2000/svg" xmlns:xlink="http://www.w3.org/1999/xlink" x="0px" y="0px"
	 viewBox="0 0 360 88" style="enable-background:new 0 0 360 88;" xml:space="preserve">
<style type="text/css">
	.st0{fill:#F5C902;}
	.st1{fill:#B8E1F3;}
	.st2{fill:#FFFFFF;}
</style>
<path class="st0" d="M34,18.2v-5.1h-5.3l1.4-9h-6.1l-1.4,9h-6.2l1.4-9h-6.2l-1.4,9H4v5.1h5.4l-1.1,7.2H2.2v5.1h5.4l-1.4,9h6.2l1.4-9
	h6.2l-1.4,9h6.1l1.4-9h6.1v-5.1h-5.3l1.1-7.2H34z M20.7,25.4h-6.2l1.1-7.2h6.2L20.7,25.4z"/>
<polygon class="st1" points="35.1,4.1 35.1,9.8 38.3,9.8 38.3,39.5 46.1,39.5 46.1,9.8 46.1,4.1 38.3,4.1 "/>
<path class="st1" d="M68.5,13.6c-1.9-0.8-4.1-1.2-6.9-1.2c-0.9,0-1.9,0-3,0c-1.1,0-2.1,0.1-3.1,0.1c-1,0.1-1.9,0.1-2.7,0.2v6.6
	c1-0.1,2.1-0.1,3.4-0.2c1.2,0,2.5-0.1,3.6-0.1c1.2,0,2.1,0,2.8,0c1.4,0,2.5,0.3,3.1,1c0.6,0.7,1,1.7,1,3.1v0H62
	c-2.4,0-4.4,0.3-6.3,0.9c-1.8,0.6-3.2,1.5-4.2,2.8c-1,1.2-1.5,2.8-1.5,4.8c0,1.8,0.4,3.3,1.2,4.6c0.8,1.3,1.9,2.3,3.4,2.9
	c1.4,0.7,3.1,1,5,1c1.8,0,3.4-0.3,4.7-1c1.3-0.7,2.3-1.6,3-2.9c0.3-0.6,0.6-1.2,0.8-1.9v5.1h6.2V23.2c0-2.5-0.5-4.5-1.5-6
	C71.8,15.6,70.4,14.4,68.5,13.6 M64.3,34.4c-0.7,0.3-1.5,0.5-2.4,0.5c-1.4,0-2.4-0.3-3.1-1c-0.7-0.7-1.1-1.5-1.1-2.6
	c0-1.1,0.4-2,1.1-2.7c0.7-0.7,1.8-1,3.1-1h4.9v2.1C66.7,31,66.4,32,66,32.8C65.5,33.5,65,34,64.3,34.4"/>
<path class="st1" d="M100,18.6c-0.1-0.3-0.3-0.6-0.4-1c-0.9-1.8-2.1-3.2-3.7-4.1c-1.6-0.9-3.4-1.4-5.6-1.4c-1.8,0-3.5,0.3-5,1
	s-2.8,1.6-3.9,2.8c-1.1,1.2-2,2.6-2.5,4.2c-0.6,1.6-0.9,3.4-0.9,5.2v1.1c0,1.9,0.3,3.6,0.8,5.2c0.6,1.6,1.4,3,2.4,4.2
	c1,1.2,2.3,2.1,3.8,2.8c1.5,0.7,3.1,1,4.9,1c2.1,0,3.9-0.4,5.4-1.3c1.5-0.9,2.7-2.2,3.6-3.8v2.3c0,1.5-0.3,2.8-0.9,3.8
	c-0.6,1-1.6,1.7-2.9,2.2c-1.3,0.5-3,0.7-5.1,0.7c-1.2,0-2.4-0.1-3.8-0.2c-1.4-0.1-2.6-0.3-3.7-0.4v6.6c1.1,0.2,2.4,0.3,3.7,0.4
	c1.4,0.1,2.7,0.1,4,0.1c3.6,0,6.6-0.5,9-1.4c2.4-0.9,4.2-2.4,5.3-4.4c1.2-2,1.7-4.6,1.7-7.9V12.9H100V18.6z M98.7,26.4
	c0,1.4-0.3,2.6-0.9,3.6c-0.6,1-1.4,1.8-2.3,2.3c-1,0.5-2,0.8-3.2,0.8c-1.3,0-2.4-0.3-3.4-0.8c-1-0.6-1.8-1.4-2.3-2.5
	c-0.6-1.1-0.8-2.4-0.8-3.9c0-1.5,0.3-2.8,0.8-3.9c0.5-1.1,1.3-1.9,2.3-2.5c1-0.6,2.2-0.9,3.4-0.9c1.1,0,2.1,0.2,3.1,0.7
	c1,0.5,1.8,1.2,2.4,2.2c0.6,1,0.9,2.1,0.9,3.5V26.4z"/>
<path class="st1" d="M135.4,16.1c-1.3-1.3-2.8-2.3-4.6-3c-1.8-0.7-3.8-1.1-6.1-1.1c-2.2,0-4.3,0.4-6.1,1.1c-1.8,0.7-3.4,1.7-4.6,3
	c-1.3,1.3-2.3,2.7-2.9,4.4c-0.7,1.7-1,3.4-1,5.3v1.1c0,1.8,0.3,3.5,1,5.2c0.6,1.6,1.6,3.1,2.9,4.4c1.3,1.3,2.8,2.3,4.6,3
	c1.8,0.7,3.9,1.1,6.2,1.1c2.4,0,4.4-0.4,6.3-1.1c1.8-0.7,3.3-1.7,4.6-3c1.2-1.3,2.2-2.7,2.8-4.4c0.6-1.6,1-3.4,1-5.2v-1.1
	c0-1.8-0.3-3.6-1-5.3C137.6,18.8,136.7,17.3,135.4,16.1 M130.7,30.2c-0.5,1.2-1.3,2.1-2.3,2.7c-1,0.6-2.3,1-3.8,1
	c-1.5,0-2.7-0.3-3.7-1c-1-0.6-1.8-1.6-2.3-2.7c-0.5-1.2-0.8-2.5-0.8-3.9c0-1.5,0.3-2.9,0.8-4c0.5-1.1,1.3-2.1,2.4-2.7
	c1-0.7,2.3-1,3.7-1c1.5,0,2.7,0.3,3.7,1c1,0.7,1.8,1.6,2.3,2.7c0.5,1.1,0.8,2.5,0.8,4C131.5,27.7,131.3,29,130.7,30.2"/>
<path class="st1" d="M162.8,25.8c-1.8-1.5-4.4-2.4-7.6-2.7l-2.1-0.2c-1.4-0.2-2.4-0.4-3-0.8c-0.6-0.4-0.9-1-0.9-1.7
	c0-0.8,0.4-1.4,1.1-1.8c0.7-0.5,1.7-0.7,2.9-0.7c1.5,0,2.6,0.3,3.4,0.9c0.8,0.6,1.2,1.3,1.3,2.2h6.9c-0.1-2.8-1.2-5-3.3-6.5
	c-2.1-1.5-4.9-2.3-8.3-2.3c-2.1,0-4,0.3-5.7,1c-1.7,0.6-3,1.6-3.9,2.9c-0.9,1.3-1.4,2.8-1.4,4.7c0,2.3,0.8,4.2,2.4,5.6
	c1.6,1.4,4,2.3,7.2,2.6l2.1,0.2c1.7,0.2,2.9,0.5,3.6,0.9c0.7,0.5,1,1.1,1,1.9c0,0.9-0.4,1.5-1.3,2c-0.9,0.5-2,0.7-3.4,0.7
	c-1.8,0-3.1-0.3-4-1c-0.9-0.7-1.4-1.4-1.5-2.3h-6.9c0.1,2.8,1.3,5,3.4,6.6c2.1,1.6,5.1,2.4,8.9,2.4c2.4,0,4.5-0.4,6.3-1.1
	c1.8-0.7,3.2-1.7,4.1-3c1-1.3,1.5-2.9,1.5-4.6C165.5,29.2,164.6,27.2,162.8,25.8"/>
<path class="st1" d="M173.6,10.3c1.5,0,2.5-0.4,3.2-1.1c0.7-0.8,1-1.7,1-2.9c0-1.2-0.3-2.2-1-2.9c-0.7-0.8-1.8-1.1-3.2-1.1
	c-1.5,0-2.5,0.4-3.2,1.1s-1,1.7-1,2.9c0,1.2,0.3,2.1,1,2.9C171.1,9.9,172.1,10.3,173.6,10.3"/>
<polygon class="st1" points="167,20.5 167,24.6 170.5,24.6 170.5,39.5 178.3,39.5 178.3,24.6 178.3,20.5 170.5,20.5 "/>
<path class="st1" d="M199.8,12.1h-0.3c-2,0-3.8,0.5-5.2,1.4c-1.4,0.9-2.5,2.3-3.2,4.1c-0.2,0.6-0.4,1.3-0.6,2.1v-6.7h-6.2v26.6h7.8
	V24c0-1.5,0.4-2.7,1.3-3.6c0.9-0.9,2.1-1.4,3.5-1.4c1.4,0,2.5,0.4,3.4,1.3c0.8,0.9,1.2,2,1.2,3.5v15.6h7.8V24.3
	c0-4.1-0.8-7.2-2.5-9.2C205.3,13.1,202.9,12.1,199.8,12.1"/>
<path class="st1" d="M230.7,12.1h-0.3c-2,0-3.7,0.5-5,1.4c-1.2,0.9-2.2,2.2-2.9,3.8V4.1h-7.8v35.4h7.8v-15v-0.3
	c0-1.5,0.4-2.8,1.3-3.7c0.9-0.9,2.1-1.4,3.5-1.4c1.4,0,2.5,0.4,3.3,1.3c0.8,0.9,1.3,2,1.3,3.5v15.6h7.8V24.4c0-4-0.8-7.1-2.3-9.1
	C235.9,13.1,233.7,12.1,230.7,12.1"/>
<path class="st1" d="M261.5,28.6c0,1.5-0.4,2.7-1.3,3.5c-0.9,0.9-2,1.3-3.4,1.3c-1.4,0-2.4-0.4-3.3-1.3c-0.8-0.8-1.2-2-1.2-3.4V12.9
	h-7.8v15.4c0,4,0.8,7,2.5,9c1.7,2,4,3,7.1,3h0.3c2,0,3.7-0.4,5.1-1.3c1.4-0.9,2.4-2.2,3.1-4c0.2-0.6,0.4-1.2,0.5-1.8v6.3h6.2V12.9
	h-7.8V28.6z"/>
<path class="st1" d="M294.4,13.9c-2-1.3-4.4-1.9-7.2-1.9c-2.2,0-4.1,0.4-5.8,1.1c-1.7,0.8-3.1,1.8-4.3,3.1c-1.1,1.3-2,2.8-2.6,4.4
	c-0.6,1.6-0.9,3.3-0.9,5.1v1c0,1.7,0.3,3.4,0.9,5c0.6,1.6,1.5,3.1,2.6,4.4c1.2,1.3,2.6,2.4,4.3,3.2c1.7,0.8,3.7,1.2,6,1.2
	c2.2,0,4.2-0.4,5.9-1.2c1.7-0.8,3.1-1.9,4.3-3.3c1.1-1.4,1.9-3,2.3-4.8h-7.1c-0.3,0.8-0.9,1.5-1.8,2c-0.9,0.6-2.1,0.8-3.5,0.8
	c-1.6,0-2.8-0.3-3.8-1c-1-0.6-1.7-1.6-2.1-2.7c-0.3-0.7-0.4-1.4-0.5-2.2h19.4v-2.6c0-2.4-0.5-4.7-1.6-6.7
	C297.8,16.9,296.3,15.2,294.4,13.9 M281.6,21.9c0.5-1.2,1.2-2.1,2.1-2.7c0.9-0.6,2.1-0.9,3.4-0.9c1.3,0,2.4,0.3,3.3,0.9
	c0.9,0.6,1.6,1.5,2,2.6c0.2,0.6,0.4,1.3,0.5,2h-11.9C281.2,23.1,281.4,22.5,281.6,21.9"/>
<polygon class="st1" points="301.5,4.1 301.5,9.8 304.7,9.8 304.7,39.5 312.5,39.5 312.5,9.8 312.5,4.1 304.7,4.1 "/>
<polygon class="st1" points="315.6,4.1 315.6,9.8 318.8,9.8 318.8,39.5 326.6,39.5 326.6,9.8 326.6,4.1 318.8,4.1 "/>
<path class="st1" d="M353.3,17.2c-1-1.6-2.4-2.7-4.2-3.5c-1.9-0.8-4.1-1.2-6.9-1.2c-0.9,0-1.9,0-3,0c-1.1,0-2.1,0.1-3.1,0.1
	c-1,0.1-1.9,0.1-2.7,0.2v6.6c1-0.1,2.1-0.1,3.4-0.2c1.2,0,2.5-0.1,3.6-0.1c1.2,0,2.1,0,2.8,0c1.4,0,2.5,0.3,3.1,1
	c0.6,0.7,1,1.7,1,3.1v0h-4.8c-2.4,0-4.4,0.3-6.3,0.9c-1.8,0.6-3.2,1.5-4.2,2.8c-1,1.2-1.5,2.8-1.5,4.8c0,1.8,0.4,3.3,1.2,4.6
	c0.8,1.3,1.9,2.3,3.4,2.9c1.4,0.7,3.1,1,5,1c1.8,0,3.4-0.3,4.7-1c1.3-0.7,2.3-1.6,3-2.9c0.3-0.6,0.6-1.2,0.8-1.9v5.1h6.2V23.2
	C354.7,20.8,354.3,18.7,353.3,17.2 M344.8,34.4c-0.7,0.3-1.5,0.5-2.4,0.5c-1.4,0-2.4-0.3-3.1-1c-0.7-0.7-1.1-1.5-1.1-2.6
	c0-1.1,0.4-2,1.1-2.7c0.7-0.7,1.8-1,3.1-1h4.9v2.1c-0.1,1.3-0.3,2.4-0.8,3.1C346,33.5,345.5,34,344.8,34.4"/>
<path class="st0" d="M112.3,64.5c-0.2,0-0.3-0.1-0.5-0.2c-0.1-0.1-0.2-0.3-0.2-0.5c0-0.2,0.1-0.3,0.2-0.5c0.1-0.1,0.3-0.2,0.5-0.2
	c0.6,0,1.3,0,1.9,0c0.7,0,1.5,0.1,2.3,0.1c0.8,0,1.5,0.1,1.9,0.1c0-0.2,0-0.3,0-0.5c-3.8,0.1-6,0.2-6.7,0.2c-0.2,0-0.3-0.1-0.5-0.2
	c-0.1-0.1-0.2-0.3-0.2-0.5c0-0.2,0.1-0.3,0.2-0.5c0.1-0.1,0.3-0.2,0.5-0.2c0.6,0,2.8-0.1,6.6-0.2c-1.2,0-3.7,0-7.7,0
	c-0.2,0-0.3-0.1-0.5-0.2c-0.1-0.1-0.2-0.3-0.2-0.5s0.1-0.3,0.2-0.5c0.1-0.1,0.3-0.2,0.5-0.2c4.1,0,6.7,0,7.9,0
	c0.1-2.1,0.2-4,0.4-5.7c0-0.2,0.1-0.3,0.3-0.5c0.2-0.1,0.3-0.2,0.5-0.2c0.2,0,0.3,0.1,0.4,0.2c0.1,0.1,0.2,0.3,0.2,0.5
	c0.1-0.1,0.3-0.2,0.4-0.2v-0.6c0-0.2,0.1-0.3,0.2-0.5c0.1-0.1,0.3-0.2,0.5-0.2c0.2,0,0.3,0.1,0.5,0.2c0.1,0.1,0.2,0.3,0.2,0.5
	c0,0.8-0.1,1.8-0.2,3.1c-0.2,1.5-0.3,2.5-0.3,2.9c0,0.2,0,0.3,0,0.5c0.4,0,0.7,0,1.1,0v-0.4v-0.4v-0.4v-0.5v-0.7v0l0-0.6v0l0.2-0.7
	v-0.9v-1l0-1.6v0l0.1-0.8c0,0.1-0.1,0.3-0.1,0.4l-0.5-0.1l-0.5,0l-0.6-0.1h-0.4h-0.6h-0.5h-0.4l-0.6,0.1c-0.1,0-0.3,0.1-0.4,0.1v0.1
	v0.5v0.7l0,1.7v0.9V57v0.8v0.6V59v0.1l-0.1,0.3V60h-0.8v-0.4c-0.1,0-0.3-0.1-0.4-0.1h-0.5h-0.6h0l-1.2,0h-0.5h-0.7h-0.6l-1.1,0h0
	h-0.5h-0.5l-0.4,0.1h-0.1l-1,0h-0.1V60v0.5v0.7V62v0.9l0.1,0.8l0.1,0.6l0,0.6v0v0.4v0.2c0.1,0,0.1,0,0.2,0h0h0.8l0.5-0.2h0.1
	l0.8-0.1h0l1.5,0l0.9-0.1h0h0.8h0.6h0.7h0.4h0.4v0.3l0.2,0l0.1,0.6V66v0.6v0.8v0.8v0.8v0.8v0.6v0.7v0.5v0.4v0.4V73v0.4l0.6,0h0.4
	l1.3,0h0h0.4h0.5h0.6h0.4v0.8h-0.4h-0.6h-0.5l-0.9,0h0h-0.9h-0.4h-0.7h0l-0.4,0c0-0.1,0-0.3,0-0.4h-0.3v-0.4V73v-0.5v-0.4v-0.4v-0.5
	v-0.7v-0.6v-0.8v-0.8v-0.8v-0.8v-0.5l0-0.2h-0.3h-0.7h-0.6h-0.8l-0.9,0.1h0l-0.8,0H112l-0.7,0.1l-0.5,0.2h-0.1h-0.9l-0.4,0l0-0.2
	h-0.6v-0.7l0-1l-0.1-0.6l-0.1-0.8v0V62v-0.9v-0.7V60v-0.7h0.3l-0.1-0.4l0.4-0.1h0l0.6,0h0h0.3l0.4-0.1h0.1h0.6l1.1,0h0h0.6h0.6h0.7
	h0.5h0.6h0l1.1,0h0.5h0.1l0.4,0.1v-0.4v-0.6V57v-0.9v-0.9v-0.8l0-1.5v-0.5v-0.1l0.1-0.4l0.4,0.1l-0.1-0.4l0.5-0.2h0.1l0.6-0.1h0h0.4
	h0.5h0.6h0.4h0l0.6,0.1l0.5,0h0l0.6,0.1c0,0.1,0,0.2-0.1,0.3l0.8,0.1l-0.1,0.8v0.7l0,1.9v0.9v0.1l-0.2,0.8l0,1.2v0.5v0.4
	c0.3,0,0.6,0,0.9,0h0.5h0.5h0.5h0.5h0.6h0.5h0.6h0.6h0.6h0.7h0.5h0l0.5,0.1h0.5h0l0.5,0h0.1l0.5,0.2c0,0.1,0,0.2-0.1,0.3
	c0.2,0,0.3,0,0.5,0l-0.1,0.9v0l-0.1,0.4v0.8v0.8v0l0,1.3v0l-0.1,0.5v0.4v0.1l-0.1,0.5c-0.1,0-0.1,0-0.2,0c0,0.1,0,0.1,0,0.2l-0.9,0
	h-0.1l-0.3-0.1h-0.6h-0.7H129h-0.7h-0.6h-0.8h-0.8h-0.8l-0.7,0.1h0l-1,0h0h-0.2l-0.1,0.5l0,0.7l-0.1,0.8l0,1.7v0l-0.1,1.5v0.7v0.5
	v0.4v0l0,1v0.5h-0.8v-0.5v-0.5v0l0-1v-0.5v-0.7v-0.7v0l0.1-0.8v-0.8l0-0.8v0l0.1-0.8l0-0.7v0l0.1-0.5l0.2-0.7l0.5,0.1l0.7,0h0
	l1.2-0.1h0h0.8h0.8h0.8h0.6h0.7h0.7h0.7h0.6h0.1l0.3,0.1h0.4h0h0v-0.2v0l0.1-0.5v-0.7v0c0-0.4,0-0.9,0-1.3c-0.1,0-0.2,0-0.3,0
	c-0.5-0.1-1-0.1-1.4-0.2c0.2,0,0.3,0.1,0.4,0.3c0.1,0.2,0.1,0.3,0.1,0.5c0,0.2-0.1,0.3-0.3,0.4c-0.2,0.1-0.3,0.1-0.5,0.1
	c0.3,0.1,0.4,0.4,0.4,0.7c0,0.2-0.1,0.3-0.2,0.5c-0.1,0.1-0.3,0.2-0.5,0.2c-1.3-0.1-3.9-0.1-7.9,0h-0.3c0,2.2,0.1,4.5,0.3,6.7
	c0,0.2,0,0.4-0.2,0.5c-0.1,0.1-0.3,0.2-0.5,0.3c-0.2,0-0.4,0-0.5-0.2c-0.1-0.1-0.2-0.3-0.2-0.5c0-0.2,0-0.5,0-0.7
	c-0.2,0.2-0.3,0.3-0.6,0.3v1c0,0.2-0.1,0.3-0.2,0.5c-0.1,0.1-0.3,0.2-0.5,0.2c-0.2,0-0.3-0.1-0.5-0.2c-0.1-0.1-0.2-0.3-0.2-0.5v-3.7
	v-3.8C114.5,64.6,112.4,64.5,112.3,64.5 M129.7,63.4c-2-0.4-4.8-0.6-8.2-0.6c0,0.2,0,0.4,0,0.5h0.3
	C125.7,63.2,128.4,63.2,129.7,63.4 M122.7,60.2c3.4,0.1,6.5,0.4,9.2,0.7c0.1,0,0.1,0,0.2,0v-0.1c0-0.2,0-0.3,0.1-0.5
	c-0.1,0-0.2-0.1-0.3-0.1l-1,0h0l-0.5-0.1h-0.5h-0.7h-0.6h-0.6h-0.6h-0.5h-0.6h-0.5h-0.5h-0.5h-0.5h-0.4h0l-0.5,0v0H122.7z"/>
<path class="st2" d="M186,73.4c0,0.7,0,1.4,0,2.1c0,0.9-0.1,0.9-1,0.9c-1.3-0.1-2.6,0-3.9,0c-1.1,0-1.4-0.2-1.6-1.3
	c-0.1-0.9-0.2-1.8-0.3-2.6c-0.2-2.2-0.3-4.3-0.6-6.5c-0.1-1-0.4-2-0.8-3c-0.4-0.9-0.6-0.8-1.2-0.1c-0.9,1-0.9,2.3-1,3.5
	c-0.2,2.5-0.2,5-0.3,7.4c0,0.8-0.1,1-1,1.1c-1.3,0.1-2.5,0.2-3.8,0.3c-0.8,0-1.2-0.5-1.2-1.3c0.2-3,0.2-6.1-0.3-9.1
	c-0.1-0.8-0.5-1.5-0.9-2.2c-0.6-0.9-0.8-0.9-1.8-0.5c-1.3,0.6-2.6,1.4-3,2.9c-0.2,0.8-0.1,1.7-0.1,2.6c0.1,1.7,0.2,3.3,0.3,5
	c0.1,1,0.1,1.9,0.1,2.9c0,0.7-0.2,0.9-0.9,1c-1.8,0.2-3.6,0.5-5.4,0.7c-0.5,0.1-0.9-0.1-0.9-0.7c0-3.9-0.1-7.7,0-11.6
	c0-1.9,0.2-3.7,0.4-5.6c0.1-0.9,0.3-1.9,0.4-2.8c0-0.1,0-0.3,0-0.4c0-1.1,0-1.1,1.1-1.2c1.4-0.1,2.8-0.1,4.2-0.1
	c0.7,0,1.1,0.2,1.3,1c3.3-1.3,6.1-0.9,8.5,1.9c0.5-0.4,0.9-0.8,1.4-1.2c2.2-1.8,4.7-2,7.3-0.9c1.1,0.5,1.9,1.4,2.4,2.5
	c1.3,2.5,2,5.3,2.5,8.1c0.2,1.1,0.1,2.2,0.1,3.3C186,70.6,186,72,186,73.4 M158,60l-0.2,0c-0.2,2.5-0.4,4.9-0.5,7.4
	c-0.1,2.2,0,4.4,0,6.6c0,0.4,0.1,0.8,0.1,1.3c0,0.3,0.2,0.5,0.6,0.4c1.3-0.2,2.6-0.4,4-0.6c0.5-0.1,0.5-0.4,0.4-0.7
	c0-0.8-0.1-1.6-0.1-2.4c0-0.4-0.1-0.9-0.1-1.3c-0.1,0.9-0.1,1.8-0.1,2.7c0,0.8-0.6,1.2-1.3,0.9c-0.1,0-0.2-0.1-0.3-0.1
	c0,0.1,0,0.1,0.1,0.2c-0.4,0.2-0.8,0.5-1.3,0.6c-0.9,0.3-1.4-0.1-1.4-1.1c0.1-3.7,0.1-7.4,0.2-11C158.2,62,158.1,61,158,60
	 M171.4,73.9c-0.1-0.5-0.2-1-0.3-1.5c-0.1-2.2-0.2-4.4-0.4-6.5c-0.2-1.7-0.6-3.3-1.5-4.8c-0.4-0.7-1-0.9-1.7-0.9
	c-1.5,0.1-3,0.5-4.2,1.4c-0.6,0.4-0.7,0.8-0.5,1.4c0.8-0.6,1.7-1.3,2.5-1.9c1.2-0.8,2.6-0.6,3.6,0.5c0.9,1.1,1.3,2.5,1.4,3.8
	c0.1,2.5,0.1,5,0.2,7.5C170.5,74.1,170.5,74.1,171.4,73.9 M183.6,61.7c0.1,0,0.1,0,0.2-0.1c-0.4-1-0.8-2-1.3-3
	c-0.9-1.8-2.2-2.9-4.4-2.8c-0.7,0-1.4,0.1-2.1,0.3c-1,0.3-1.7,1-2.4,1.7c0.2,0,0.4-0.1,0.6-0.2c0.8-0.3,1.7-0.7,2.5-0.9
	c2.1-0.5,4,0.4,5,2.1C182.4,59.9,183,60.8,183.6,61.7 M184.4,64.1c-0.1,0-0.1,0-0.2,0c0.3,3.7-0.1,7.3-0.4,11c1,0.2,1.1,0.2,1.1-0.8
	c0-2.4,0-4.9,0-7.3C184.8,65.9,184.6,65,184.4,64.1 M176,61.5c-0.1,0-0.1,0-0.2,0c-1,0.9-1.8,2-2.3,3.2c0,0.1,0,0.2,0,0.3
	c0.2,1,0.5,2,0.7,3c0.2-0.7,0.2-1.4,0.3-2.1c0.2-1.5,0.2-3,1.4-4.1C175.9,61.8,175.9,61.7,176,61.5 M181.6,65.4
	C181.6,65.5,181.6,65.4,181.6,65.4c-0.3-1.6-0.6-3.2-1-4.7c-0.1-0.6-0.6-0.7-1-0.8C180.3,61.8,181,63.7,181.6,65.4 M159.8,55.8
	l-0.1,0.3c0.2,0,0.4,0.2,0.5,0.1c0.4-0.1,0.8-0.1,1.1,0.3c0.3,0.4,0.7,0.1,1,0c0.3-0.1,0.1-0.7-0.1-0.7
	C161.4,55.7,160.6,55.8,159.8,55.8 M178,61.2c-0.6-1-1.2-0.7-1.7,0H178z M174.2,73.7c-0.8-0.6-1.1-0.5-1.5,0.2
	C173.2,73.8,173.6,73.7,174.2,73.7"/>
<path class="st2" d="M194,74.8c0.2,1.3,0.4,2.5,0.5,3.7c0.1,1.3,0.2,2.6,0.2,4c0,0.1,0,0.3,0,0.4c0.2,1.1,0.2,1.1-0.9,1.4
	c-1.3,0.3-2.6,0.7-4,1c-1.2,0.3-1.5,0.2-1.7-1.1c-0.2-1.4-0.3-2.7-0.3-4.1c-0.1-3.5-0.1-7-0.1-10.5c0-2.8,0.1-5.7,0.3-8.5
	c0-1.2,0.1-2.4,0.3-3.6c0-0.2,0.4-0.6,0.7-0.6c1.3-0.1,2.6-0.1,3.9-0.2c0.7,0,1,0.3,1,1c0,0.1,0,0.2,0.1,0.5
	c0.3-0.1,0.6-0.1,0.9-0.2c1.3-0.5,2.7-0.8,4.2-0.8c3.1-0.1,6.1,2.1,6.9,5.1c0.8,3.2,0.8,6.4-0.7,9.4c-0.4,0.7-1,1.4-1.6,1.9
	c-1.8,1.6-3.9,2.5-6.3,2.4c-0.8,0-1.7-0.2-2.4-0.7C194.7,75.1,194.4,75,194,74.8 M199.8,65.8c-0.1-0.3-0.1-0.9-0.3-1.5
	c-0.2-0.8-0.6-1-1.3-1c-1.3,0-2.4,0.4-3.5,1.1c-0.2,0.2-0.4,0.5-0.4,0.8c0,1.6,0.1,3.2,0.2,4.8c0,0.2,0.2,0.4,0.3,0.4
	c1.2,0.1,2.4,0,3.3-0.8C199.4,68.8,199.8,67.5,199.8,65.8 M194.2,63.3c-1.3,0.2-1.7,0.4-1.7,1.2c-0.1,1.7-0.1,3.3-0.1,5
	c0,0.6,0.3,1,0.9,1.2c0-0.2,0.1-0.3,0.1-0.4c-0.1-1.6-0.2-3.3-0.3-4.9c0-0.7-0.2-1.3,0.7-1.6C193.9,63.6,194,63.5,194.2,63.3
	 M195.5,71.8c1.3,0.6,3.5,0,4.6-1c1-0.9,1.5-3,1-4.1C200.3,69.1,199.8,71.4,195.5,71.8 M192.9,83.2c0.3,0,0.8,0.2,0.8-0.6
	c-0.1-1.9-0.3-3.7-0.4-5.6c-0.1-0.7-0.2-1.4-0.4-2.1c-0.1,0-0.1,0-0.2,0C192.7,77.7,192.8,80.4,192.9,83.2 M192.7,58.7
	c0-0.3,0.3-0.8-0.4-0.9c-0.8,0-1.7,0-2.5,0.1c-0.1,0-0.4,0.2-0.4,0.3c-0.1,0.8-0.1,1.5-0.1,2.3c0,0.1,0.1,0.2,0.2,0.3
	c0.1-0.1,0.2-0.2,0.2-0.3c0-0.4,0-0.7,0-1.1c0.1-0.8,0.7-1.1,1.5-0.7c0.1,0.1,0.3,0.2,0.4,0.1C191.9,59,192.3,58.9,192.7,58.7
	 M202.5,62.2c-0.4-2-2.5-3.4-4.2-2.8C200,59.8,201.4,60.7,202.5,62.2 M191.2,83c-1,0.5-1.5,0.4-1.7-0.5c0-0.2-0.1-0.4-0.1-0.6
	c-0.1-0.9-0.2-1.9-0.3-2.8c0,1.6,0.1,3.1,0.3,4.7c0,0.1,0.3,0.3,0.4,0.3c0.7-0.2,1.3-0.4,2-0.6C191.5,83.3,191.4,83.2,191.2,83"/>
<path class="st2" d="M257.4,59.9c0,1.1,0,2.3,0,3.4c0,0.6,0.2,1.2,0.4,1.7c0.1,0.3,0.5,0.6,0.7,0.6c0.3-0.1,0.7-0.4,0.8-0.7
	c0.3-0.9,0.4-1.8,0.5-2.6c0.3-2.2,0.4-4.4,0.7-6.6c0-0.2,0.4-0.5,0.6-0.5c1.3-0.1,2.7,0,4,0c0.6,0,0.9,0.4,0.9,1
	c-0.1,0.9-0.2,1.8-0.2,2.8c-0.1,2.8-0.1,5.6-0.3,8.4c-0.1,2.7-0.3,5.3-0.6,8c-0.3,2.1-1,4.1-2.1,5.8c-0.6,1-1.4,1.9-2.2,2.7
	c-0.3,0.3-0.9,0.5-1.4,0.6c-2.8,0.3-5.3-0.4-7.5-2.2c-0.3-0.3-0.5-0.7-0.7-1c-0.7-1.5-1.3-3.1-1.9-4.6c-0.1-0.1,0.1-0.5,0.3-0.6
	c0.5-0.4,1-0.8,1.6-1.1c0.5-0.4,1.1-0.7,1.6-1c0.8-0.4,1.1-0.3,1.6,0.5c0.6,1.2,1.3,2.4,2.1,3.6c0.1,0.2,0.4,0.4,0.7,0.6
	c0.5,0.3,1,0.1,1.1-0.4c0.4-1.4,0.7-2.9,1-4.3c0.1-0.6,0.2-1.2,0.3-1.9c0.1-0.7,0-0.7-0.7-0.7c-1.3,0.1-2.6,0-3.9-0.4
	c-0.9-0.3-1.4-0.9-1.8-1.8c-0.8-2.2-1.4-4.4-1.4-6.8c0-1.8,0-3.7,0-5.5c0-0.8,0.3-1.2,1.1-1.2c1.4-0.1,2.8-0.1,4.1-0.1
	c0.6,0,0.7,0.3,0.7,0.9C257.4,57.4,257.4,58.6,257.4,59.9L257.4,59.9z M264.3,64.9c0,0-0.1,0-0.1,0c-0.2,2.1-0.3,4.1-0.5,6.2
	c-0.1,1.4-0.2,2.9-0.4,4.3c-0.2,1.8-1.1,3.4-1.9,5c-0.9,1.7-2.5,2.5-4.5,2.2c-2.8-0.4-4.6-2.2-5.8-4.6c-0.2-0.3-0.3-0.7-0.3-1.1
	c0-0.3,0.1-0.7,0.3-0.8c0.2-0.1,0.6-0.1,0.9,0c0.1,0,0.3,0.2,0.4,0.3c-0.1-0.1-0.2-0.2-0.2-0.3c0.3-0.2,0.6-0.5,1-0.7
	c-0.1-0.1-0.2-0.3-0.4-0.6c-0.8,0.4-1.4,0.8-2.1,1.3c-0.4,0.2-0.6,0.5-0.4,1c0.5,1.2,1,2.4,1.6,3.6c0.1,0.3,0.4,0.6,0.7,0.8
	c1.7,1.4,3.7,1.8,5.8,1.8c0.7,0,1.3-0.2,1.7-0.8c0.4-0.5,0.8-1,1.2-1.5c1.6-2,2.2-4.4,2.5-6.9c0.3-2.2,0.3-4.4,0.5-6.7
	C264.4,66.6,264.3,65.8,264.3,64.9 M255.7,56.4c0,0.5,0.1,1,0.1,1.4c-0.1,1.1-0.2,2.2-0.4,3.3c-0.2,1.4,0.2,2.7,0.8,3.9
	c0.1,0.2,0.2,0.3,0.3,0.4c0.1-0.3,0-0.5,0-0.7c-0.1-0.6-0.3-1.3-0.3-1.9c0-2,0-4,0-5.9C256.2,56.5,256.2,56.2,255.7,56.4 M254,68.5
	c0.2,1.1,3,1.9,4.7,1.2c-0.9-0.1-1.7-0.1-2.5-0.3C255.4,69.3,254.7,68.8,254,68.5 M264.9,56.4h-3.2c0.8,0.3,1.8,0.1,2.3,1.1
	C264.2,57.2,264.5,56.9,264.9,56.4 M252.6,57c0.5-0.1,0.9-0.3,1.4-0.4C253.1,56.3,252.7,56.5,252.6,57 M260.2,65.6
	c-0.2,0.3-0.4,0.5-0.6,0.8C260.4,66.6,260.4,66.1,260.2,65.6"/>
<path class="st2" d="M290.4,75.3c-1.6,0.8-3.3,0.9-5,0.9c-1.6-0.1-3.2-0.5-4.5-1.5c-1.1-0.8-1.8-2-2.3-3.3c-1.1-2.5-1.1-5.1-0.8-7.7
	c0.1-0.7,0.4-1.4,0.7-1.9c1.3-2.2,3.1-3.9,5.5-5c1.7-0.7,3.4-1.3,5.3-1.2c0.4,0,0.6-0.2,0.6-0.6c0.1-1.3,0.2-1.4,1.4-1.4
	c1.4-0.1,2.8-0.2,4.2-0.2c0.3,0,0.6,0.1,0.8,0.3c0.2,0.3,0.1,0.6-0.3,0.8c-0.1,0.1-0.2,0.4-0.2,0.5c0.1,1.6,0.3,3.3,0.4,4.9
	c0.1,1,0.1,2,0.1,3c0.1,4.2,0.2,8.3,0.2,12.5c0,1-0.4,1.4-1.3,1.4c-1,0-2.1,0.1-3.1,0c-0.4,0-0.9-0.1-1.2-0.3
	C290.7,76.2,290.6,75.7,290.4,75.3 M289.6,65.6L289.6,65.6c0.1-0.6,0-1.2,0.1-1.8c0-0.4-0.2-0.6-0.6-0.6c-1.2-0.1-2.3,0.1-3.2,1
	c-1.1,1-1.4,2.3-1.6,3.7c-0.1,0.8,0.3,1.3,0.9,1.7c0.7,0.4,1.4,0.5,2.1,0.1c0.6-0.3,1.1-0.7,1.6-1.2c0.5-0.4,0.8-0.9,0.7-1.6
	C289.6,66.4,289.6,66,289.6,65.6 M290.2,73.8c-0.3,0.1-0.6,0.2-0.9,0.3c-3.7,1.4-7.7,0.4-9.7-3.8c-0.3-0.7-0.5-1.4-0.6-2.1
	c-0.4-4.4,2.1-7.9,6.3-9.2c0.4-0.1,0.7-0.3,1-0.5c1.1-0.7,2.3-1.1,3.6-1.1c0.5,0,0.6-0.2,0.4-0.8c-1,0.1-2.1,0-3.1,0.2
	c-3,0.6-5.5,2-7.3,4.6c-0.8,1.1-1.3,2.3-1.3,3.7c0,0.5,0,0.9,0,1.4c0.1,2.3,0.6,4.5,2,6.3c0.5,0.7,1.2,1.2,2,1.5
	c1.9,0.8,3.8,0.8,5.8,0.4C289.2,74.7,289.8,74.4,290.2,73.8 M283.6,65.6c0,0-0.1,0-0.1-0.1c-0.3,0.5-0.7,1-0.9,1.5
	c-1,2.4-0.9,3.5,2.1,4.3c2,0.5,3.9,0.5,5.5-1.2c0.5-0.5,0.5-1,0.3-1.6c-0.7,0.6-1.4,1.1-2.1,1.7c-1.2,1-2.8,0.7-3.7,0.1
	c-1.1-0.7-1.5-2-1.2-3.4C283.4,66.6,283.5,66.1,283.6,65.6 M294.8,57.4c-0.1,0-0.1,0-0.2,0c0,0.1,0,0.2,0,0.2
	c0.1,3.2,0.3,6.5,0.4,9.7c0,1.6,0,3.3-0.1,4.9c-0.1,1.1-0.3,2.2-0.5,3.3c0.9,0.3,1.1,0.1,1.1-0.8c0-0.2,0-0.4,0-0.6
	c-0.1-3.4-0.1-6.9-0.2-10.3c0-1.4-0.1-2.9-0.2-4.3C295,58.8,294.9,58.1,294.8,57.4 M293.2,54.7c-2-0.3-2.6,0.1-2.2,1.5
	c0.3,0,0.6,0.1,0.7,0.1C292.2,55.7,292.7,55.3,293.2,54.7 M287.5,60.6c-0.6-0.2-1.1,0-1.4,0.6C286.5,60.9,287,60.7,287.5,60.6"/>
<path class="st2" d="M308.6,70.4c0.3,0,0.5,0.1,0.6,0.1c1.7-0.2,3.4-0.4,5-0.6c0.3,0,0.7-0.1,1-0.1c0.8,0,1.1,0.4,1.1,1.1
	c0.1,1.3,0.2,2.5,0.2,3.8c0,0.5-0.2,1-0.3,1.5c0,0.1-0.4,0.2-0.6,0.2c-1.8,0.1-3.5,0.1-5.3,0.2c-2.9,0.1-5.8,0.3-8.7,0.5
	c-0.9,0-1.8,0-2.7,0c-0.5,0-1.1-0.8-1.1-1.3c0,0,0-0.1,0-0.1c-0.3-1.9,1.1-2.9,2-4.1c1.4-2,2.8-4,4.3-5.9c0.9-1.2,1.8-2.4,2.7-3.5
	c0.2-0.2,0.3-0.4,0.5-0.7c-0.3,0-0.5-0.1-0.7-0.1c-2.2,0-4.4,0-6.6,0c-0.7,0-0.9-0.2-0.9-0.9c0-1.2,0-2.4,0-3.6
	c0-0.9,0.3-1.1,1.2-1.2c3-0.2,5.9-0.4,8.9-0.6c1.5-0.1,3.1-0.2,4.6-0.3c0.4,0,0.8-0.1,1.2-0.2c0.8-0.1,1.3,0.2,1.2,1
	c0,0.8,0,1.6,0,2.3c0,0.1,0,0.3,0,0.3c0.5,0.5,0.2,1-0.1,1.4c-0.9,1.6-1.9,3.1-2.9,4.7c-0.4,0.6-0.8,1.3-1.3,1.9
	c-0.8,0.9-1.6,1.8-2.4,2.8C309.4,69.3,309,69.8,308.6,70.4 M312.6,56c0.1,0.3,0.2,0.5,0.2,0.7c0,0.5,0.2,0.6,0.8,0.5
	c0.8-0.1,1.4,0.3,1.4,1.1c0,0.5-0.1,1.1-0.4,1.6c-0.7,1.1-1.4,2.2-2.3,3.2c-2.2,2.6-4.6,5.2-6.8,7.8c-0.3,0.4-0.6,0.8-1,1.3
	c0.5,0,0.7,0,1,0c2.7-0.2,5.4-0.4,8.2-0.6c1.3-0.1,1.3,0,1.5,1.2c0,0,0.1,0,0.3,0.1c0-0.6,0-1,0-1.5c0-0.5-0.2-0.6-0.6-0.5
	c-0.7,0.1-1.4,0.4-2.1,0.4c-1.5,0.1-2.9,0.2-4.4,0.2c-0.6,0-1.2-0.8-1-1.1c0.5-0.7,1.1-1.5,1.7-2.2c0.9-1.1,1.9-2.3,2.8-3.4
	c0.4-0.5,0.7-1,1-1.5c0.9-1.5,1.8-3,2.7-4.5c0.1-0.1,0.1-0.4,0.1-0.5c-0.1-0.4-0.2-0.7-0.2-1c0-0.5,0-1,0-1.6
	C314.3,55.8,313.5,55.9,312.6,56 M301.2,60c-0.3-0.6-0.3-1.2,0.3-1.6c0.1,0,0-0.4,0-0.4c-0.6-0.2-0.8-0.7-0.9-1.4
	c-0.2,0.2-0.3,0.3-0.3,0.5c0,0.8,0,1.5,0,2.3C300.4,60.1,300.7,60.2,301.2,60 M309.6,59.8c0-0.1,0-0.1-0.1-0.2
	c-1.2,0.1-2.3,0.2-3.5,0.3c0,0.1,0,0.1,0,0.2c0.5,0,1,0,1.4,0c0.6,0,1.2-0.2,1.4,0.9C309.2,60.5,309.4,60.1,309.6,59.8 M302.3,75.9
	c0,0,0-0.1,0-0.1c-0.9-0.1-1.9-0.3-2.8-0.4c-0.1,0-0.2,0.1-0.3,0.2c0.1,0.1,0.2,0.3,0.3,0.3C300.4,75.9,301.4,75.9,302.3,75.9"/>
<path class="st2" d="M330.7,75.1c-0.6,0.4-1.1,0.7-1.6,1c-2,1.3-5.7,1.1-7.6-0.3c-0.9-0.7-1.5-1.5-1.8-2.6c-0.4-1.4-0.9-2.7-1.3-4.1
	c-0.2-0.7-0.3-1.4-0.3-2c0-2.6,0.1-5.3,0.3-7.9c0.1-1,0.5-2,0.7-3.1c0.1-0.3,0.1-0.6,0.2-0.9c0.1-0.7,0.2-0.9,0.9-0.8
	c1.3,0.1,2.6,0.2,3.8,0.3c0.5,0,0.7,0.2,0.5,0.8c-0.8,3.6-1.1,7.3-0.9,10.9c0,0.8,0.2,1.6,0.4,2.3c0.3,1,1.3,1.5,2.3,1.5
	c1-0.1,2.2-0.1,2.9-0.9c0.6-0.6,1-1.3,1-2.3c0-3.3,0.1-6.6,0.1-10c0-0.6,0.1-1.3,0.1-1.9c0-0.4,0.2-0.6,0.6-0.6
	c0.8,0,1.5,0.1,2.3,0.1c0.6,0,1.1,0.1,1.7,0.1c0.9,0,1.4,0.5,1.3,1.4c-0.5,4.3-0.5,8.6-0.5,12.9c0,1.9,0.4,3.8,1.1,5.5
	c0.1,0.3,0.2,0.5-0.2,0.7c-1.2,0.6-2.5,1.2-3.7,1.9c-0.6,0.3-1.1,0.2-1.7,0c-0.1-0.1-0.2-0.3-0.3-0.5
	C331,76.3,330.9,75.7,330.7,75.1 M319.2,63.8c0.1-0.1,0.1-0.1,0.1-0.2c0.3-2.3,0.2-4.7,1.1-6.9c0.2-0.4,0.4-0.8,0.9-0.8
	c0.5,0,0.8,0.4,0.8,0.9c0,0.2,0,0.4,0,0.6c0,2.8-0.1,5.6-0.1,8.4c0,0.7,0.2,1.5,0.4,2.2c0.1,0,0.1,0,0.2,0c-0.1-0.6-0.1-1.2-0.1-1.7
	c0-1.4-0.1-2.9,0-4.3c0.1-1.9,0.4-3.9,0.6-5.8c0-0.4,0-0.5-0.5-0.6c-0.5,0-1.1-0.1-1.6-0.1c-0.2,0-0.5,0.2-0.6,0.3
	C319.3,58.5,319.2,61.1,319.2,63.8 M329.5,74.4c-3.3,0.9-6.4,0.7-8.8-2.3c0.1,1.4,1.1,2.8,2.2,3.2c1.3,0.5,2.6,0.5,4,0.3
	C327.9,75.6,328.7,75.1,329.5,74.4 M323.3,69.7c-0.1,0-0.1,0.1-0.2,0.1c0.1,0.2,0.2,0.4,0.3,0.5c1.1,1.5,3.2,2,4.9,1.1
	c1-0.5,1.9-1.3,2.8-2c0.4-0.3,0.5-0.7,0.5-1.2c0-3.2,0-6.4,0-9.6c0-0.2,0-0.4,0-0.6c-0.1,0.2-0.2,0.3-0.2,0.5c0,2.9-0.1,5.8-0.1,8.6
	c0,1.2-0.6,2-1.3,2.7c-1.1,1.1-2.6,1.3-4.1,1.3c-0.9,0-1.6-0.3-2.2-0.9C323.7,70.2,323.5,69.9,323.3,69.7 M334.6,62.6
	c0.1,0,0.1,0,0.2,0c0.1-2.2,0.3-4.4,0.4-6.6h-0.6V62.6z M331.6,56.5c0,0,0.1,0.1,0.1,0.1c0.3-0.2,0.6-0.4,1-0.5c0-0.1,0-0.1,0-0.2
	c-0.3,0-0.6-0.2-0.7-0.1C331.8,55.9,331.7,56.2,331.6,56.5"/>
<path class="st2" d="M226.2,55.6c2.5-0.2,4.7,0.4,6.5,1.9c2.7,2.2,4.3,5,3.9,8.6c-0.2,2.3-0.7,4.5-2,6.3c-2.2,3.1-5.1,4.9-9,4.7
	c-4.2-0.2-7.3-2.8-8.7-6.9c-0.7-2.1-0.7-4.2-0.4-6.3c0.4-2.4,1.6-4.4,3.2-6.1c0.5-0.5,1.1-0.5,1.6-0.8
	C222.9,55.9,224.5,55.2,226.2,55.6 M230.3,65.9c0.2-2.2-1.6-4.7-4.1-4.5c-0.3,0-0.8,0.2-1,0.5c-0.5,1-1.1,2-1.4,3.1
	c-0.3,1-0.2,2.1-0.3,3.2c-0.1,1.5,0.9,2.3,2.3,2.3C227.8,70.6,230.4,68.8,230.3,65.9 M226.6,56.7c1.2,0,2.4,0.3,3.2,1.2
	c0.7,0.6,1.4,1,2.2,1.5c2.2,1.2,3.3,3.3,3,5.6c-0.2,1.3-0.5,2.5-0.8,3.8c-1,4.4-5.7,7.1-10,5.7c-2.3-0.8-4.4-1.9-5.7-4.2
	c-0.1-0.2-0.2-0.3-0.3-0.5c0,0.3,0,0.6,0.1,0.9c0.6,1.5,1.5,2.8,2.9,3.8c4.8,3.3,10.7,1,13.1-3.8c0.7-1.4,0.9-2.8,1.1-4.4
	c0.5-3.5-1.2-6.5-3.8-8.3C230.1,57,228.5,56.4,226.6,56.7 M228,60.4C228,60.4,228,60.4,228,60.4c-0.1-0.2-0.4-0.5-0.6-0.5
	c-1.3-0.1-2.5,0-3.6,0.6c-0.6,0.3-1,1-1.3,1.7c-1.3,2.7-1.6,5.4,0,8.1c0.9,1.6,2.4,2.3,4.2,2.1c1.8-0.2,3.1-1.2,3.9-2.8
	c0.1-0.2,0.1-0.3,0.1-0.5c-0.8,1.1-1.9,1.6-3,2.2c-1.5,0.8-2.9,0.5-4.2-0.3c-0.4-0.3-0.8-0.7-1-1.2c-0.5-1.9-0.4-3.8,0.2-5.7
	c0.3-1,1-1.8,1.3-2.8c0.2-0.8,0.7-1,1.4-1C226.3,60.2,227.2,60.4,228,60.4 M217.6,66.7c0-0.2,0.1-0.3,0.1-0.5c0.1-2,1-3.7,2.1-5.3
	c0.4-0.6,0.7-1.3,1-2.1C218.9,59.6,217.1,64.1,217.6,66.7"/>
<path class="st2" d="M139,72.3c0-3.6,0-7.1,0-10.7c0-1.7,0.1-3.5,0.1-5.2c-0.1-2.2,0.2-4.4,0.5-6.5c0.1-0.6,0.1-1.2,0.3-1.7
	c0.1-0.2,0.4-0.5,0.7-0.5c1.6,0,3.1,0,4.6,0.1c0.6,0,0.9,0.3,0.9,1c-0.1,3.8-0.2,7.5-0.3,11.3c0,0.9,0,1.7-0.1,2.6
	c-0.2,3.1-0.3,6.3-0.5,9.4c-0.1,1.1,0,2.2,0,3.3c0,0.9-0.5,1.5-1.4,1.6c-1.4,0.1-2.8,0.2-4.3,0.2c-0.2,0-0.5-0.3-0.5-0.5
	c-0.1-1-0.1-2-0.1-3c0-0.4,0-0.8,0-1.3H139z M144.9,48.9c-0.4,0.3-0.5,10.7-0.2,11.4C145.1,56.4,144.9,52.7,144.9,48.9 M142.8,53.1
	c-0.6,3.5-0.3,7,0,10.5V53.1z M140.6,52.2c-0.4,0.9-0.6,6.5-0.3,7.3c0.1-1.2,0.2-2.4,0.2-3.6C140.6,54.7,140.6,53.5,140.6,52.2
	 M140.8,49.3h2.1c-0.1-0.2-0.1-0.5-0.2-0.5c-0.6,0-1.2,0-1.7,0C140.8,48.8,140.8,49.2,140.8,49.3"/>
<path class="st2" d="M339.1,56.9c0.2-2.4,0.4-4.8,0.7-7.1c0.1-0.6,0.1-1.1,0.3-1.7c0.1-0.2,0.4-0.5,0.7-0.5c1.6,0,3.1,0,4.6,0.1
	c0.6,0,0.9,0.3,0.9,1c-0.1,3.8-0.2,7.5-0.3,11.3c0,0.8,0,1.7-0.1,2.5c-0.2,3.2-0.3,6.3-0.5,9.5c-0.1,1.1,0,2.2,0,3.3
	c0,0.9-0.5,1.5-1.4,1.6c-1.4,0.1-2.8,0.2-4.3,0.2c-0.2,0-0.4-0.2-0.5-0.4c-0.1-0.4-0.2-0.7-0.2-1.1c0-4.7,0.1-9.4,0.1-14.1
	C339.2,60,339.1,58.4,339.1,56.9C339.1,56.9,339.1,56.9,339.1,56.9 M344.8,48.9c-0.3,0.4-0.3,10.7-0.1,11.3
	C345.2,57.2,345.2,49.3,344.8,48.9 M342.9,63.6V53.1C342.3,56.6,342.6,60.1,342.9,63.6 M340.3,59.6c0.1,0,0.1,0,0.2,0
	c0.1-2.4,0.2-4.8,0.3-7.3c-0.1,0-0.2,0-0.3,0C340.1,54.7,340.4,57.1,340.3,59.6 M340.9,49.3h2.1c-0.1-0.2-0.1-0.5-0.2-0.5
	c-0.6,0-1.2,0-1.7,0C341,48.8,340.9,49.1,340.9,49.3"/>
<path class="st2" d="M208.3,61.2c0-1.1,0-2.2,0-3.3c0-0.4,0.2-0.5,0.5-0.7c1.5-0.4,3-0.7,4.6-0.7c1.5,0,1.5,0,1.5,1.4
	c0,3.4,0.1,6.7,0.1,10.1c0,2.2,0.1,4.3,0.1,6.5c0,0.4,0.1,0.8,0.1,1.2s-0.1,0.7-0.5,0.7c-1.8,0.2-3.6,0.4-5.4,0.6
	c-0.5,0.1-0.5-0.4-0.5-0.8c-0.1-2-0.1-4-0.2-6C208.5,67.3,208.4,64.3,208.3,61.2C208.3,61.2,208.3,61.2,208.3,61.2 M211.8,59.4
	C211.8,59.4,211.8,59.3,211.8,59.4c0.1-0.7,0.3-1.1,1-1c0.6,0,0.8,0.5,0.8,1c0,0.6,0.1,1.3,0.2,1.9c0-1,0.1-2.1,0-3.1
	c0-0.1-0.3-0.4-0.5-0.4c-1.2,0.2-2.4,0.4-3.6,0.6c-0.1,0-0.3,0.3-0.3,0.5c0,0.1,0.2,0.3,0.3,0.4c0.3,0.2,0.6,0.4,1,0.5
	C211,59.6,211.3,59.5,211.8,59.4 M210.6,76c-0.2-1.2-0.4-2.3-0.5-3.3c-0.1,1-0.1,2,0,3.1C210.1,75.8,210.4,75.9,210.6,76
	 M212.3,75.7c0,0,0.1,0.1,0.1,0.1c0.4-0.4,0.1-0.9,0.1-1.4c0-0.6-0.1-1.1-0.1-1.7l-0.1,0V75.7z"/>
<path class="st2" d="M148.1,61.2c0-1.1,0-2.1,0-3.2c0-0.4,0.2-0.6,0.6-0.7c1.5-0.4,3-0.7,4.6-0.7c1.5,0,1.5-0.1,1.5,1.4
	c0,3.4,0.1,6.7,0.1,10.1c0,2.2,0.1,4.4,0.1,6.6c0,0.1,0,0.3,0,0.4c0.1,1.2,0.1,1.3-1.1,1.5c-1.5,0.2-3.1,0.4-4.7,0.5
	c-0.5,0.1-0.5-0.4-0.5-0.7c-0.1-1.4-0.1-2.8-0.1-4.2c-0.1-3.2-0.3-6.4-0.4-9.6C148.1,62.2,148.1,61.7,148.1,61.2
	C148.1,61.2,148.1,61.2,148.1,61.2 M153.5,61.2C153.5,61.2,153.6,61.2,153.5,61.2c0.1-1,0.1-2,0-3.1c0-0.2-0.3-0.5-0.5-0.5
	c-1.2,0.2-2.4,0.4-3.6,0.6c-0.1,0-0.3,0.3-0.3,0.5c0,0.1,0.1,0.3,0.2,0.4c0.3,0.2,0.7,0.4,1,0.6c0.3-0.1,0.7-0.2,1.1-0.4
	c0.2-0.8,0.4-1.1,1-1c0.7,0.1,0.8,0.6,0.8,1.1C153.4,60,153.5,60.6,153.5,61.2 M150.3,76c-0.2-1.3-0.4-2.3-0.6-3.4
	c0,0-0.1,0.1-0.1,0.1c0,1,0,2,0.1,2.9C149.8,75.8,150.2,75.9,150.3,76 M152.1,75.8c0.1-0.1,0.3-0.2,0.3-0.3
	c-0.1-0.9-0.1-1.9-0.2-2.8c0,0-0.1,0-0.1,0V75.8z"/>
<path class="st2" d="M151,55.8c-2.2,0.1-3.8-1.6-3.8-3.8c0-0.9,0.1-1.7,0.6-2.4c0.7-0.9,2.1-1.3,3.2-1c0.9,0.2,1.7,0.4,2.4,1
	c1,0.8,1.6,1.8,1.6,3.1c0,1.3-0.7,2.4-2,2.8C152.3,55.7,151.7,55.7,151,55.8 M152.9,50.8c0.6,1.1,0.5,2.2-0.2,3.4
	c0.6-0.2,0.9-0.5,1-1C154,52.3,153.7,51.5,152.9,50.8 M151.5,52.4c-0.5,0.2-1,0.4-1.5,0.6c0.1,0.3,0.3,0.5,0.7,0.4
	C151.3,53.3,151.6,53,151.5,52.4"/>
<path class="st2" d="M211.2,55.8c-2.2,0.1-3.8-1.6-3.8-3.8c0-0.8,0-1.6,0.6-2.3c0.7-0.9,2.1-1.5,3.2-1.1c0.7,0.2,1.5,0.4,2.1,0.8
	c1.4,0.9,2,2.2,1.8,3.8c-0.1,0.9-0.9,1.9-2,2.2C212.5,55.7,211.9,55.7,211.2,55.8 M213.2,50.8c0.5,1.1,0.5,2.2-0.2,3.4
	c0.7-0.2,0.9-0.6,1-1.1C214.2,52.3,214,51.5,213.2,50.8 M210.3,53c0.1,0.4,0.4,0.5,0.8,0.4c0.5-0.2,0.7-0.5,0.7-1
	C211.3,52.6,210.8,52.8,210.3,53"/>
</svg>
