<?xml version="1.0" encoding="utf-8"?>
<!-- Generator: Adobe Illustrator 27.2.0, SVG Export Plug-In . SVG Version: 6.00 Build 0)  -->
<svg version="1.1" id="Capa_1" xmlns="http://www.w3.org/2000/svg" xmlns:xlink="http://www.w3.org/1999/xlink" x="0px" y="0px"
	 viewBox="0 0 264 76" style="enable-background:new 0 0 264 76;" xml:space="preserve">
<style type="text/css">
	.st0{fill:#FFFFFF;}
</style>
<path class="st0" d="M9,48.4c-0.3,0.3-0.6,0.4-0.9,0.4c-0.3,0-0.6,0-0.9-0.2c-0.3-0.2-0.5-0.4-0.7-0.7c-0.1-0.1-0.2-0.3-0.2-0.4
	c0-0.2,0-0.4,0-0.6c0-0.2,0.1-0.3,0.3-0.4c0.1-0.1,0.4-0.1,0.4-0.1c0.2-0.3,0.5-0.4,0.8-0.5c0.3-0.1,0.7-0.1,1,0.1
	c0.3,0.1,0.6,0.4,0.7,0.7c0.1,0.3,0.1,0.6,0.1,0.9C9.4,47.9,9.2,48.2,9,48.4"/>
<path class="st0" d="M115.9,45.9c0-1.5-2.3-1.5-2.3,0v6.2c0,2,0,4.1,0,6.1c0,1.3-0.6,2.6-1.7,3.4c-0.9,0.6-1.8,0.8-2.9,0.8H97.8
	c-0.9,0-1.3,0.7-1.3,1.6v0.7h7.1c1.9,0,3.9,0,5.8,0c3.6-0.1,6.4-3,6.4-6.6C115.9,54,115.9,49.9,115.9,45.9"/>
<path class="st0" d="M96.6,74.8c-0.4,0-0.9-0.1-1.3-0.4L81.1,64.3c-0.5-0.4-0.6-1-0.3-1.5c0.4-0.5,1-0.6,1.5-0.3l14.1,10v-8.9
	c0-0.6,0.5-1.1,1.1-1.1c0.6,0,1.1,0.5,1.1,1.1v9.1c0.1,0.8-0.3,1.5-1,1.9C97.4,74.7,97,74.8,96.6,74.8"/>
<path class="st0" d="M36.1,55v-5.5h0.6v2.3h-0.1c0-0.5,0.1-0.9,0.2-1.3c0.1-0.4,0.4-0.7,0.6-0.9c0.3-0.2,0.6-0.3,1.1-0.3h0
	c0.4,0,0.8,0.1,1.1,0.3c0.3,0.2,0.5,0.5,0.6,0.9c0.1,0.4,0.2,0.8,0.2,1.3h-0.3c0-0.5,0.1-0.9,0.2-1.3c0.1-0.4,0.4-0.7,0.6-0.9
	c0.3-0.2,0.7-0.3,1.1-0.3h0c0.4,0,0.8,0.1,1.1,0.3c0.3,0.2,0.5,0.5,0.6,0.9c0.1,0.4,0.2,0.8,0.2,1.3V55h-0.8v-3.4
	c0-0.5-0.1-0.9-0.4-1.2c-0.2-0.3-0.6-0.4-1-0.4c-0.5,0-0.8,0.1-1.1,0.4c-0.3,0.3-0.4,0.7-0.4,1.2V55h-0.8v-3.4
	c0-0.5-0.1-0.9-0.4-1.2c-0.2-0.3-0.6-0.4-1-0.4c-0.5,0-0.8,0.1-1.1,0.4c-0.3,0.3-0.4,0.7-0.4,1.2V55H36.1z"/>
<path class="st0" d="M48,55.1c-0.7,0-1.2-0.2-1.5-0.6s-0.5-1-0.5-1.8v-3.3h0.8v3.4c0,0.5,0.1,0.9,0.4,1.1c0.3,0.3,0.6,0.4,1.1,0.4
	c0.5,0,0.9-0.1,1.1-0.4c0.3-0.3,0.4-0.7,0.4-1.2v-3.3h0.8V55h-0.6v-2.3H50c0,0.5-0.1,1-0.2,1.3c-0.1,0.4-0.4,0.6-0.7,0.8
	C48.8,55,48.5,55.1,48,55.1L48,55.1z"/>
<path class="st0" d="M52.5,55v-5.5h0.6v2.3H53c0-0.5,0.1-1,0.2-1.3c0.2-0.4,0.4-0.7,0.7-0.9c0.3-0.2,0.7-0.3,1.2-0.3h0
	c0.7,0,1.2,0.2,1.6,0.7c0.3,0.4,0.5,1,0.5,1.8V55h-0.8v-3.4c0-0.5-0.1-0.9-0.4-1.2c-0.3-0.3-0.6-0.4-1.1-0.4c-0.5,0-0.9,0.2-1.2,0.5
	c-0.3,0.3-0.4,0.7-0.4,1.2V55H52.5z"/>
<path class="st0" d="M58.4,49.4h1.7v0.6h-1.7V49.4z M59.5,48.4c-0.2,0-0.3-0.1-0.4-0.2c-0.1-0.1-0.1-0.2-0.1-0.4s0-0.3,0.1-0.4
	c0.1-0.1,0.2-0.2,0.4-0.2s0.3,0.1,0.4,0.2c0.1,0.1,0.1,0.2,0.1,0.4s0,0.3-0.1,0.4C59.8,48.4,59.7,48.4,59.5,48.4 M59.3,49.4h0.8V55
	h-0.8V49.4z"/>
<path class="st0" d="M64.4,55.1c-0.5,0-0.9-0.1-1.2-0.2c-0.3-0.2-0.6-0.4-0.9-0.7c-0.2-0.3-0.4-0.6-0.5-0.9s-0.2-0.7-0.2-1v-0.1
	c0-0.4,0.1-0.7,0.2-1c0.1-0.3,0.3-0.6,0.5-0.9c0.2-0.3,0.5-0.5,0.9-0.7c0.3-0.2,0.7-0.2,1.2-0.2c0.5,0,0.9,0.1,1.2,0.2
	c0.4,0.2,0.6,0.4,0.9,0.7c0.2,0.3,0.4,0.7,0.4,1.1h-0.8c-0.1-0.4-0.2-0.7-0.5-1S64.9,50,64.4,50c-0.4,0-0.8,0.1-1.1,0.3
	s-0.5,0.5-0.7,0.8s-0.2,0.7-0.2,1.1c0,0.4,0.1,0.8,0.2,1.1c0.1,0.3,0.4,0.6,0.7,0.8c0.3,0.2,0.7,0.3,1.1,0.3c0.3,0,0.6-0.1,0.9-0.2
	c0.3-0.1,0.5-0.3,0.6-0.5c0.2-0.2,0.2-0.4,0.3-0.7H67c0,0.4-0.2,0.8-0.4,1.1c-0.2,0.3-0.5,0.6-0.9,0.7
	C65.3,55.1,64.9,55.1,64.4,55.1"/>
<path class="st0" d="M67.7,49.4h1.7v0.6h-1.7V49.4z M68.8,48.4c-0.2,0-0.3-0.1-0.4-0.2c-0.1-0.1-0.1-0.2-0.1-0.4s0-0.3,0.1-0.4
	c0.1-0.1,0.2-0.2,0.4-0.2s0.3,0.1,0.4,0.2c0.1,0.1,0.1,0.2,0.1,0.4s0,0.3-0.1,0.4C69.1,48.4,69,48.4,68.8,48.4 M68.6,49.4h0.8V55
	h-0.8V49.4z"/>
<path class="st0" d="M71.4,57.1v-7.6H72v2.4l-0.2,0c0-0.6,0.1-1,0.4-1.4c0.2-0.4,0.5-0.7,0.9-0.9c0.4-0.2,0.8-0.3,1.2-0.3
	c0.4,0,0.8,0.1,1.1,0.2c0.3,0.2,0.6,0.4,0.8,0.6c0.2,0.3,0.4,0.6,0.5,0.9c0.1,0.3,0.2,0.7,0.2,1.1v0.1c0,0.4-0.1,0.7-0.2,1.1
	c-0.1,0.3-0.3,0.7-0.5,0.9c-0.2,0.3-0.5,0.5-0.8,0.6c-0.3,0.2-0.7,0.2-1.1,0.2c-0.4,0-0.8-0.1-1.2-0.3c-0.4-0.2-0.7-0.5-0.9-0.9
	c-0.2-0.4-0.4-0.9-0.4-1.4l0.4,0.8v3.7H71.4z M74.1,54.5c0.4,0,0.8-0.1,1.1-0.3c0.3-0.2,0.5-0.5,0.7-0.8c0.2-0.3,0.2-0.7,0.2-1.1
	c0-0.4-0.1-0.8-0.2-1.2c-0.2-0.3-0.4-0.6-0.7-0.8c-0.3-0.2-0.7-0.3-1.1-0.3c-0.4,0-0.7,0.1-1,0.3c-0.3,0.2-0.5,0.4-0.7,0.7
	c-0.2,0.3-0.3,0.7-0.3,1.1v0.5c0,0.4,0.1,0.7,0.3,1c0.2,0.3,0.4,0.5,0.7,0.7C73.4,54.4,73.8,54.5,74.1,54.5"/>
<path class="st0" d="M79.9,55.1c-0.4,0-0.7-0.1-1-0.2c-0.3-0.1-0.5-0.3-0.7-0.6C78,54,78,53.7,78,53.3c0-0.4,0.1-0.7,0.3-0.9
	c0.2-0.3,0.4-0.5,0.7-0.6c0.3-0.1,0.7-0.2,1.2-0.2h1.6v0.6h-1.7c-0.4,0-0.8,0.1-1,0.3c-0.2,0.2-0.3,0.5-0.3,0.8
	c0,0.3,0.1,0.6,0.4,0.8c0.2,0.2,0.6,0.3,1,0.3c0.3,0,0.5,0,0.7-0.1c0.2-0.1,0.4-0.3,0.6-0.5c0.2-0.2,0.2-0.5,0.3-0.9l0.2,0.3
	c0,0.4-0.1,0.8-0.3,1c-0.2,0.3-0.4,0.5-0.7,0.6C80.7,55,80.3,55.1,79.9,55.1 M81.8,55v-1.7h-0.1v-2c0-0.4-0.1-0.7-0.3-0.9
	c-0.2-0.2-0.5-0.3-1-0.3c-0.2,0-0.4,0-0.6,0c-0.2,0-0.4,0-0.6,0c-0.2,0-0.4,0-0.5,0v-0.7c0.2,0,0.3,0,0.5,0c0.2,0,0.3,0,0.5,0
	c0.2,0,0.3,0,0.5,0c0.6,0,1,0.1,1.4,0.2c0.3,0.1,0.6,0.4,0.8,0.7c0.2,0.3,0.2,0.7,0.2,1.2V55H81.8z"/>
<path class="st0" d="M83.6,47.3h1.6V48h-1.6V47.3z M84.4,47.3h0.8V55h-0.8V47.3z"/>
<path class="st0" d="M86.5,49.4h1.7v0.6h-1.7V49.4z M87.6,48.4c-0.2,0-0.3-0.1-0.4-0.2C87,48.2,87,48,87,47.9s0-0.3,0.1-0.4
	c0.1-0.1,0.2-0.2,0.4-0.2s0.3,0.1,0.4,0.2c0.1,0.1,0.1,0.2,0.1,0.4s0,0.3-0.1,0.4C87.9,48.4,87.7,48.4,87.6,48.4 M87.4,49.4h0.8V55
	h-0.8V49.4z"/>
<path class="st0" d="M92.4,55.1c-0.4,0-0.8-0.1-1.1-0.2c-0.3-0.1-0.6-0.4-0.9-0.6c-0.2-0.3-0.4-0.6-0.6-0.9s-0.2-0.7-0.2-1.1v-0.1
	c0-0.4,0.1-0.7,0.2-1.1c0.1-0.3,0.3-0.7,0.5-0.9c0.2-0.3,0.5-0.5,0.8-0.6c0.3-0.2,0.7-0.2,1.1-0.2c0.5,0,0.9,0.1,1.2,0.3
	c0.4,0.2,0.6,0.5,0.9,0.9c0.2,0.4,0.3,0.8,0.3,1.4l-0.3-0.6v-3.8h0.8V55h-0.6v-2.5h0.2c0,0.6-0.1,1.1-0.4,1.5
	c-0.2,0.4-0.5,0.7-0.9,0.9C93.3,55.1,92.9,55.1,92.4,55.1 M92.5,54.5c0.4,0,0.7-0.1,1-0.2c0.3-0.2,0.5-0.4,0.7-0.7
	c0.2-0.3,0.3-0.7,0.3-1.1v-0.5c0-0.4-0.1-0.7-0.3-1c-0.2-0.3-0.4-0.5-0.7-0.7c-0.3-0.2-0.6-0.3-1-0.3c-0.4,0-0.8,0.1-1.1,0.3
	c-0.3,0.2-0.5,0.5-0.7,0.8c-0.2,0.3-0.2,0.7-0.2,1.1c0,0.4,0.1,0.8,0.3,1.2c0.2,0.3,0.4,0.6,0.7,0.8C91.8,54.4,92.1,54.5,92.5,54.5"
	/>
<path class="st0" d="M98.7,55.1c-0.4,0-0.7-0.1-1-0.2c-0.3-0.1-0.5-0.3-0.7-0.6c-0.2-0.3-0.2-0.6-0.2-1c0-0.4,0.1-0.7,0.3-0.9
	c0.2-0.3,0.4-0.5,0.7-0.6c0.3-0.1,0.7-0.2,1.2-0.2h1.6v0.6h-1.7c-0.4,0-0.8,0.1-1,0.3c-0.2,0.2-0.3,0.5-0.3,0.8
	c0,0.3,0.1,0.6,0.4,0.8c0.2,0.2,0.6,0.3,1,0.3c0.3,0,0.5,0,0.7-0.1c0.2-0.1,0.4-0.3,0.6-0.5c0.2-0.2,0.2-0.5,0.3-0.9l0.2,0.3
	c0,0.4-0.1,0.8-0.3,1c-0.2,0.3-0.4,0.5-0.7,0.6C99.4,55,99.1,55.1,98.7,55.1 M100.6,55v-1.7h-0.1v-2c0-0.4-0.1-0.7-0.3-0.9
	c-0.2-0.2-0.5-0.3-1-0.3c-0.2,0-0.4,0-0.6,0c-0.2,0-0.4,0-0.6,0c-0.2,0-0.4,0-0.5,0v-0.7c0.2,0,0.3,0,0.5,0c0.2,0,0.3,0,0.5,0
	c0.2,0,0.3,0,0.5,0c0.6,0,1,0.1,1.4,0.2c0.3,0.1,0.6,0.4,0.8,0.7c0.2,0.3,0.2,0.7,0.2,1.2V55H100.6z"/>
<path class="st0" d="M105.4,55.1c-0.4,0-0.8-0.1-1.1-0.2c-0.3-0.1-0.6-0.4-0.9-0.6c-0.2-0.3-0.4-0.6-0.6-0.9s-0.2-0.7-0.2-1.1v-0.1
	c0-0.4,0.1-0.7,0.2-1.1c0.1-0.3,0.3-0.7,0.5-0.9c0.2-0.3,0.5-0.5,0.8-0.6c0.3-0.2,0.7-0.2,1.1-0.2c0.5,0,0.9,0.1,1.2,0.3
	c0.4,0.2,0.6,0.5,0.9,0.9c0.2,0.4,0.3,0.8,0.3,1.4l-0.3-0.6v-3.8h0.8V55h-0.6v-2.5h0.2c0,0.6-0.1,1.1-0.4,1.5
	c-0.2,0.4-0.5,0.7-0.9,0.9C106.2,55.1,105.8,55.1,105.4,55.1 M105.5,54.5c0.4,0,0.7-0.1,1-0.2c0.3-0.2,0.5-0.4,0.7-0.7
	c0.2-0.3,0.3-0.7,0.3-1.1v-0.5c0-0.4-0.1-0.7-0.3-1c-0.2-0.3-0.4-0.5-0.7-0.7c-0.3-0.2-0.6-0.3-1-0.3c-0.4,0-0.8,0.1-1.1,0.3
	c-0.3,0.2-0.5,0.5-0.7,0.8c-0.2,0.3-0.2,0.7-0.2,1.1c0,0.4,0.1,0.8,0.3,1.2c0.2,0.3,0.4,0.6,0.7,0.8
	C104.7,54.4,105.1,54.5,105.5,54.5"/>
<path class="st0" d="M3,40.5V28.6h6.2c0.9,0,1.6,0.2,2.1,0.5c0.6,0.3,1,0.8,1.3,1.3c0.3,0.6,0.4,1.3,0.4,2c0,0.8-0.2,1.5-0.5,2.1
	c-0.3,0.6-0.8,1-1.3,1.4c-0.6,0.3-1.3,0.5-2.2,0.5H5.6v4.2H3z M5.6,34.2h3.2c0.5,0,1-0.2,1.3-0.5c0.3-0.3,0.4-0.7,0.4-1.3
	c0-0.4-0.1-0.7-0.2-1c-0.1-0.3-0.3-0.5-0.6-0.6c-0.2-0.1-0.6-0.2-0.9-0.2H5.6V34.2z"/>
<path class="st0" d="M17.9,40.7c-0.9,0-1.6-0.2-2.2-0.7c-0.6-0.5-0.8-1.3-0.8-2.5v-6.2H17v5.8c0,0.3,0,0.6,0.1,0.8
	c0.1,0.2,0.2,0.4,0.3,0.5c0.1,0.1,0.3,0.2,0.5,0.3c0.2,0.1,0.4,0.1,0.7,0.1c0.4,0,0.7-0.1,1-0.3c0.3-0.2,0.6-0.4,0.7-0.8
	c0.2-0.3,0.3-0.7,0.3-1.1v-5.3h2.1v9.2h-1.8l-0.2-1.2h-0.1c-0.2,0.3-0.5,0.5-0.7,0.7c-0.3,0.2-0.6,0.4-1,0.5
	C18.7,40.7,18.3,40.7,17.9,40.7"/>
<path class="st0" d="M29.3,40.7c-1,0-1.8-0.2-2.4-0.5c-0.6-0.3-1.1-0.9-1.5-1.6C25.1,37.9,25,37,25,35.9c0-1.1,0.2-2,0.5-2.7
	c0.3-0.7,0.8-1.2,1.5-1.6c0.6-0.3,1.5-0.5,2.4-0.5c0.9,0,1.6,0.2,2.2,0.5c0.6,0.3,1,0.8,1.3,1.5c0.3,0.7,0.5,1.6,0.5,2.7v0.6h-6.2
	c0,0.6,0.1,1,0.3,1.4s0.4,0.7,0.7,0.9c0.3,0.2,0.7,0.3,1.3,0.3c0.3,0,0.5,0,0.7-0.1c0.2-0.1,0.4-0.2,0.6-0.3
	c0.2-0.1,0.3-0.3,0.4-0.5c0.1-0.2,0.1-0.5,0.1-0.8h2.1c0,0.6-0.1,1.1-0.3,1.5c-0.2,0.4-0.5,0.8-0.9,1.1c-0.4,0.3-0.8,0.5-1.3,0.6
	C30.4,40.7,29.9,40.7,29.3,40.7 M27.2,35h4c0-0.4,0-0.7-0.1-1c-0.1-0.3-0.2-0.5-0.4-0.7c-0.2-0.2-0.3-0.3-0.6-0.4
	c-0.2-0.1-0.5-0.1-0.7-0.1c-0.5,0-0.8,0.1-1.1,0.2c-0.3,0.2-0.5,0.4-0.7,0.7C27.3,34.1,27.2,34.5,27.2,35"/>
<path class="st0" d="M35.5,40.5v-9.2h1.8l0.2,1.4h0.1c0.1-0.3,0.3-0.6,0.4-0.8c0.2-0.2,0.4-0.5,0.7-0.6c0.3-0.2,0.6-0.2,1-0.2
	c0.2,0,0.4,0,0.5,0.1c0.2,0,0.3,0.1,0.4,0.1v2h-0.6c-0.4,0-0.7,0-1,0.1c-0.3,0.1-0.5,0.3-0.7,0.5c-0.2,0.2-0.3,0.5-0.4,0.8
	c-0.1,0.3-0.1,0.7-0.1,1.1v4.7H35.5z"/>
<path class="st0" d="M44.4,40.7c-0.6,0-1-0.1-1.3-0.3c-0.3-0.2-0.6-0.5-0.7-0.9c-0.1-0.4-0.2-0.7-0.2-1.1v-5.3h-1.1v-1.7h1.1
	l0.4-2.6h1.7v2.6h1.6v1.7h-1.6v5.1c0,0.2,0.1,0.4,0.2,0.6c0.1,0.1,0.3,0.2,0.6,0.2h0.8v1.5c-0.1,0-0.3,0.1-0.4,0.1
	c-0.2,0-0.3,0.1-0.5,0.1C44.8,40.7,44.6,40.7,44.4,40.7"/>
<path class="st0" d="M51.8,40.7c-1,0-1.8-0.2-2.5-0.5s-1.2-0.9-1.5-1.6c-0.3-0.7-0.5-1.6-0.5-2.7c0-1.1,0.2-2,0.5-2.7
	c0.3-0.7,0.8-1.2,1.5-1.6s1.5-0.5,2.5-0.5c1,0,1.8,0.2,2.5,0.5s1.2,0.9,1.5,1.6c0.3,0.7,0.5,1.6,0.5,2.7c0,1.1-0.2,2-0.5,2.7
	c-0.3,0.7-0.8,1.2-1.5,1.6S52.9,40.7,51.8,40.7 M51.8,39c0.6,0,1-0.1,1.3-0.3c0.3-0.2,0.6-0.5,0.7-1c0.2-0.4,0.2-1,0.2-1.6v-0.2
	c0-0.6-0.1-1.2-0.2-1.6c-0.2-0.4-0.4-0.8-0.7-1c-0.3-0.2-0.8-0.3-1.3-0.3c-0.6,0-1,0.1-1.3,0.3c-0.3,0.2-0.6,0.5-0.7,1
	c-0.2,0.4-0.2,1-0.2,1.6v0.2c0,0.6,0.1,1.2,0.2,1.6c0.2,0.4,0.4,0.8,0.7,1C50.8,38.9,51.3,39,51.8,39"/>
<path class="st0" d="M65.6,40.5l-4.3-11.9h2.8l2.6,7.6c0,0.1,0.1,0.3,0.2,0.5c0.1,0.2,0.1,0.4,0.2,0.5c0.1,0.2,0.1,0.3,0.1,0.5h0.1
	c0-0.1,0.1-0.3,0.1-0.4c0.1-0.2,0.1-0.3,0.2-0.5c0.1-0.2,0.1-0.3,0.1-0.5l2.6-7.6H73l-4.3,11.9H65.6z"/>
<path class="st0" d="M76.9,40.7c-0.3,0-0.5,0-0.9-0.1c-0.3-0.1-0.7-0.2-1-0.4c-0.3-0.2-0.6-0.4-0.8-0.8c-0.2-0.3-0.3-0.8-0.3-1.3
	c0-0.6,0.1-1.1,0.4-1.6c0.3-0.4,0.7-0.7,1.2-1s1.1-0.4,1.8-0.5c0.7-0.1,1.5-0.1,2.3-0.1v-0.7c0-0.3,0-0.5-0.1-0.7
	c-0.1-0.2-0.2-0.4-0.4-0.5c-0.2-0.1-0.5-0.2-1-0.2c-0.4,0-0.8,0.1-1,0.2c-0.2,0.1-0.4,0.2-0.5,0.4c-0.1,0.2-0.1,0.3-0.1,0.5v0.2
	h-2.1c0-0.1,0-0.1,0-0.2v-0.2c0-0.5,0.2-1,0.5-1.4s0.7-0.7,1.3-0.9c0.6-0.2,1.2-0.3,1.9-0.3c0.8,0,1.5,0.1,2.1,0.3
	c0.5,0.2,0.9,0.6,1.2,1c0.3,0.4,0.4,1,0.4,1.6v4.3c0,0.2,0.1,0.4,0.2,0.5c0.1,0.1,0.3,0.1,0.4,0.1H83v1.5c-0.1,0-0.3,0.1-0.5,0.2
	c-0.2,0.1-0.5,0.1-0.8,0.1c-0.3,0-0.6,0-0.8-0.1c-0.2-0.1-0.4-0.2-0.6-0.4c-0.2-0.2-0.3-0.4-0.3-0.7h-0.1c-0.2,0.2-0.4,0.5-0.7,0.7
	c-0.3,0.2-0.6,0.3-1,0.4C77.8,40.7,77.4,40.7,76.9,40.7 M77.6,39c0.3,0,0.7-0.1,0.9-0.2c0.3-0.1,0.5-0.2,0.7-0.4
	c0.2-0.2,0.3-0.4,0.4-0.7c0.1-0.3,0.1-0.6,0.1-0.9v-0.4c-0.6,0-1.2,0-1.8,0.1c-0.5,0.1-1,0.2-1.3,0.5c-0.3,0.2-0.5,0.5-0.5,0.9
	c0,0.2,0,0.4,0.1,0.5c0.1,0.2,0.2,0.3,0.5,0.4S77.3,39,77.6,39"/>
<path class="st0" d="M84.5,40.5v-9.2h1.8l0.2,1.4h0.1c0.1-0.3,0.3-0.6,0.4-0.8c0.2-0.2,0.4-0.5,0.7-0.6c0.3-0.2,0.6-0.2,1-0.2
	c0.2,0,0.4,0,0.5,0.1c0.2,0,0.3,0.1,0.4,0.1v2h-0.6c-0.4,0-0.7,0-1,0.1c-0.3,0.1-0.5,0.3-0.7,0.5c-0.2,0.2-0.3,0.5-0.4,0.8
	s-0.1,0.7-0.1,1.1v4.7H84.5z"/>
<path class="st0" d="M93.3,40.7c-0.3,0-0.5,0-0.9-0.1c-0.3-0.1-0.7-0.2-1-0.4c-0.3-0.2-0.6-0.4-0.8-0.8c-0.2-0.3-0.3-0.8-0.3-1.3
	c0-0.6,0.1-1.1,0.4-1.6c0.3-0.4,0.7-0.7,1.2-1s1.1-0.4,1.8-0.5c0.7-0.1,1.5-0.1,2.3-0.1v-0.7c0-0.3,0-0.5-0.1-0.7
	c-0.1-0.2-0.2-0.4-0.4-0.5c-0.2-0.1-0.5-0.2-1-0.2c-0.4,0-0.8,0.1-1,0.2c-0.2,0.1-0.4,0.2-0.5,0.4c-0.1,0.2-0.1,0.3-0.1,0.5v0.2
	h-2.1c0-0.1,0-0.1,0-0.2v-0.2c0-0.5,0.2-1,0.5-1.4s0.7-0.7,1.3-0.9c0.6-0.2,1.2-0.3,1.9-0.3c0.8,0,1.5,0.1,2.1,0.3
	c0.5,0.2,0.9,0.6,1.2,1c0.3,0.4,0.4,1,0.4,1.6v4.3c0,0.2,0.1,0.4,0.2,0.5c0.1,0.1,0.3,0.1,0.4,0.1h0.6v1.5c-0.1,0-0.3,0.1-0.5,0.2
	c-0.2,0.1-0.5,0.1-0.8,0.1c-0.3,0-0.6,0-0.8-0.1c-0.2-0.1-0.4-0.2-0.6-0.4c-0.2-0.2-0.3-0.4-0.3-0.7h-0.1c-0.2,0.2-0.4,0.5-0.7,0.7
	c-0.3,0.2-0.6,0.3-1,0.4C94.2,40.7,93.8,40.7,93.3,40.7 M93.9,39c0.3,0,0.7-0.1,0.9-0.2c0.3-0.1,0.5-0.2,0.7-0.4
	c0.2-0.2,0.3-0.4,0.4-0.7c0.1-0.3,0.1-0.6,0.1-0.9v-0.4c-0.6,0-1.2,0-1.8,0.1c-0.5,0.1-1,0.2-1.3,0.5c-0.3,0.2-0.5,0.5-0.5,0.9
	c0,0.2,0,0.4,0.1,0.5c0.1,0.2,0.2,0.3,0.5,0.4C93.4,38.9,93.6,39,93.9,39"/>
<path class="st0" d="M104.5,40.7c-0.7,0-1.2-0.1-1.7-0.2c-0.5-0.1-0.9-0.3-1.3-0.6c-0.3-0.3-0.6-0.6-0.8-0.9
	c-0.2-0.3-0.3-0.7-0.3-1.1c0-0.1,0-0.1,0-0.2c0,0,0-0.1,0-0.1h2.1v0.1v0.1c0,0.3,0.1,0.6,0.3,0.8c0.2,0.2,0.4,0.3,0.7,0.4
	c0.3,0.1,0.6,0.1,1,0.1c0.3,0,0.6,0,0.9-0.1c0.3-0.1,0.5-0.2,0.7-0.3c0.2-0.1,0.3-0.3,0.3-0.6c0-0.3-0.1-0.5-0.3-0.7
	c-0.2-0.2-0.5-0.3-0.9-0.4c-0.4-0.1-0.8-0.2-1.2-0.3c-0.4-0.1-0.8-0.2-1.1-0.3c-0.4-0.1-0.7-0.3-1-0.5c-0.3-0.2-0.6-0.5-0.7-0.8
	c-0.2-0.3-0.3-0.7-0.3-1.2c0-0.5,0.1-0.8,0.3-1.2c0.2-0.3,0.5-0.6,0.8-0.8c0.3-0.2,0.8-0.4,1.2-0.5s1-0.2,1.5-0.2
	c0.5,0,1,0.1,1.5,0.2c0.4,0.1,0.8,0.3,1.2,0.5c0.3,0.2,0.6,0.5,0.8,0.8c0.2,0.3,0.3,0.6,0.3,1c0,0.1,0,0.2,0,0.2c0,0.1,0,0.1,0,0.1
	h-2.1v-0.1c0-0.2-0.1-0.4-0.2-0.6c-0.1-0.2-0.3-0.3-0.6-0.4c-0.2-0.1-0.6-0.1-0.9-0.1c-0.3,0-0.5,0-0.7,0.1c-0.2,0-0.4,0.1-0.5,0.2
	c-0.1,0.1-0.2,0.2-0.3,0.3c-0.1,0.1-0.1,0.2-0.1,0.3c0,0.2,0.1,0.4,0.3,0.5c0.2,0.1,0.4,0.2,0.7,0.3c0.3,0.1,0.6,0.2,1,0.3
	c0.4,0.1,0.8,0.2,1.3,0.4c0.4,0.1,0.8,0.3,1.2,0.5c0.4,0.2,0.7,0.4,0.9,0.8c0.2,0.3,0.3,0.8,0.3,1.3c0,0.5-0.1,1-0.3,1.4
	c-0.2,0.4-0.5,0.7-0.9,0.9s-0.8,0.4-1.3,0.5C105.6,40.7,105,40.7,104.5,40.7"/>
<path class="st0" d="M21.1,54.3c-1.4-2.5-6.9-5.8-7.9-6.5c-0.8-0.6,0.1-1.9,1-1.3c1.8,1.3,5.6,3,7.4,1.9c1.9-1.1,3.2-3.1,3.7-5.3
	c0.1-0.4,0.4-0.8,0.9-0.7c0.4,0,0.8,0.5,0.7,0.9C26.3,46.1,22.6,57,21.1,54.3"/>
<path class="st0" d="M21.6,45.2c-0.1,0.5-0.3,0.9-0.7,1.2c-0.3,0.3-0.7,0.4-1.1,0.5c-0.4,0-0.9,0-1.3-0.2c-0.2-0.1-0.4-0.2-0.5-0.3
	c-0.2-0.2-0.3-0.4-0.5-0.6c-0.1-0.2-0.1-0.4,0-0.6c0.1-0.1,0.3-0.4,0.3-0.4c0-0.4,0.2-0.9,0.5-1.2c0.3-0.3,0.7-0.6,1.1-0.7
	c0.4-0.1,0.9,0,1.3,0.3c0.3,0.2,0.6,0.6,0.7,0.9C21.6,44.4,21.7,44.8,21.6,45.2"/>
<path class="st0" d="M36.2,47.1c0,0.1,0,0.1,0,0.2c-0.1,0.8-0.6,1.6-1.2,2.1c-0.5,0.5-1.2,0.8-1.6,1.3c-2.2,2.6-0.1,3.4-0.4,4.2
	c-0.3,0.9-2.7,0.5-3.2,0.1c-2.4-1.6-2.6-9.1-2.4-11.4c0.1-1.6,1.8-1.7,1.3-0.1c-0.2,0.6-0.3,3.5-0.1,4.1c0.5,1.6,1.4,2,2.3,2.1
	c1.2,0.1,2,0,3.4-1.2c1.2-1,0.9-1.9,1.5-2.3C36.2,46,36.2,46.7,36.2,47.1"/>
<path class="st0" d="M29.9,46.9c0,0.4,0.2,0.7,0.5,1c0.2,0.2,0.6,0.4,0.9,0.4c0.3,0.1,0.7,0.1,1-0.1c0.2-0.1,0.3-0.1,0.5-0.2
	c0.2-0.1,0.3-0.3,0.4-0.5c0.1-0.1,0.1-0.3,0.1-0.5c0-0.1,0-0.1-0.1-0.1c-0.1-0.2-0.2-0.3-0.2-0.5c-0.1-0.6-0.5-1.1-1.1-1.2
	c-0.4-0.1-0.8,0-1.1,0.1c-0.3,0.1-0.5,0.4-0.7,0.7C30,46.3,29.9,46.6,29.9,46.9"/>
<path class="st0" d="M3.2,47.1c-0.7-1.4,0.6-1.6,1.4-0.2c4.8,8.6,6.2-1.8,7.9,0.1c0.4,0.4-2,5.3-3.2,8.9C9,56.8,7.9,56.5,3.2,47.1"
	/>
<path class="st0" d="M45.8,7.6c-8.8,4.8-21.1,10.8-42.6,13.8c0,0-0.5,0.1-0.5,0.6c0,0.5,0.5,0.5,0.5,0.5
	c12.9-1.6,29.9-3.2,50.2-11.7C53.4,10.9,48.7,9,45.8,7.6"/>
<path class="st0" d="M48.1,6.2C70.8,16.5,93.2,20.9,108,22.7c0,0,0.5,0,0.5-0.5s-0.5-0.6-0.5-0.6C75.3,16.8,59.6,4.6,56.3,1.7
	c-0.4-0.4-0.6-0.5-0.7-0.5c-0.1,0-0.3,0.1-0.8,0.5C53.6,2.7,50.9,4.7,48.1,6.2L48.1,6.2z"/>
<path class="st0" d="M149.4,12.1l1.7,4.4l4.8-1.6l-1.2-4.4l0.5-0.2l-1-3.4l-6.8,2.3l1.4,3.2L149.4,12.1z M149.1,11.5l-0.9-2.2
	l1.3-0.4l0.5,1l0.7-0.2l-0.4-1.1l1.2-0.4l0.5,1.1l0.7-0.2l-0.3-1l1.2-0.5l0.8,2.2"/>
<path class="st0" d="M157.4,9.7l0.5,4.7l5-0.4l-0.1-4.5l0.5-0.1l-0.1-3.6l-7.2,0.5l0.5,3.4L157.4,9.7z M158.3,6.7l0.2,1.1l0.7,0
	l-0.1-1.1l1.4-0.1l0,1.2l0.7-0.1l0-1.1l1.3-0.1l0.2,2.4l-5.6,0.4l-0.3-2.5L158.3,6.7z"/>
<path class="st0" d="M177.6,16.2l1.7-4.3l0.6,0.1l1.2-3.4l-6.8-1.8l-0.7,3.3l0.4,0.2l-1.2,4.5L177.6,16.2z M174.7,7.5l1.3,0.4
	L175.8,9l0.7,0.2l0.3-1.1l1.4,0.3l-0.3,1.1l0.7,0.2l0.3-1l1.3,0.3l-0.6,2.3l-5.4-1.6L174.7,7.5z"/>
<path class="st0" d="M165.2,13.9l5.2,0.6l0.7-4.6l0.7,0l0.6-3.5l-7.1-0.8L165,9.2h0.5L165.2,13.9z M165.7,6.5l1.4,0.1l0,1.1l0.7,0.1
	l0.1-1.1l1.4,0.1l-0.1,1.2L170,8l0.1-1l1.5,0l-0.3,2.3l-5.7-0.5L165.7,6.5z"/>
<path class="st0" d="M151.3,17.4l1.6,4.1l0.2-0.1c3.6-1.3,7.3-2,11.3-2c6.5,0,11.2,1.8,11.4,1.9l0.2,0.1l1.4-4.1l-0.2-0.1
	c-4.2-1.6-8.6-2.4-13-2.4c-6.9,0-11.7,2-12.6,2.4L151.3,17.4z"/>
<path class="st0" d="M155.8,49.3c0,0,0.4-0.3,0.4-0.5c0,0,1.2,2,2.7,0c0,0,1.2,2,2.6,0c0,0,1,1.9,2.7,0.1v1.5c0,0-1.2,2-2.7-0.1
	c0,0-1.1,2.2-2.6,0c0,0-0.3,1-1.4,0.9C157.5,51.2,156.4,50.3,155.8,49.3"/>
<path class="st0" d="M164.2,51.7v1.7c0,0-2.5,0.4-5.5-1.4c0,0,0.1,0,0.2-0.3c0,0,1,1.9,2.6,0.1C161.5,51.7,162.7,53.7,164.2,51.7"/>
<path class="st0" d="M164.1,47c0,0,1.2,2.4,2.6,0.1c0,0,1.3,2.2,2.6-0.1c0,0,1.2,2.3,2.6,0c0,0,0.4,1.1,1.4,0.8c0,0-0.7,1.5-0.9,1.6
	c0,0-0.5-0.3-0.6-0.7c0,0-1.1,2-2.6,0c0,0-1,2.1-2.6,0.1c0,0-1,2-2.6-0.1V47z"/>
<path class="st0" d="M164.2,50.4v1.3c0,0,1.2,2.2,2.6,0.2c0,0,1.4,1.8,2.5-0.1c0,0,0.1,0.4,0.5,0.3c0,0,0.3-0.2,1.1-0.9
	c0,0-1,0.3-1.6-0.9c0,0-1.2,2-2.6,0C166.8,50.3,165.8,52.3,164.2,50.4"/>
<path class="st0" d="M155.3,33.3c0,0,0.1,0.9,0.9,1.7c0,0-0.2,0.4-1.2-0.3c0,0,0.2,0.7,1.2,1.1c0,0-0.1,0.3-1,0.2
	c0,0,0.4,0.5,1.1,0.7c0,0,0,0.3-1,0.3c0,0,0.5,0.4,1,0.7c0,0-0.2,0.4-0.7,0.5c0,0,0.9,0.2,1,0.2c0,0,0,0.5-0.4,0.5
	c0,0,0.6-0.1,0.8-0.2c0.2-0.1,0,0.3-0.1,0.5c-0.1,0.2,0,0.3,0.1,0.2c0,0,0.7-0.7,1.1-0.6c0,0,0.3,0,0.1,1c0,0-1,0.7-1.1,1.3
	c0,0-0.1,0.3-0.5,0.4c0,0-0.9,0.2-1.1,0.3c0,0,0.4,0.1,0.6,0.1l-0.4,0.3l0.5-0.1l-0.1,0.5l0.3-0.3l0.2,0.3l0.2-0.7
	c0,0,0.3-0.5,0.6-0.6c0,0,0.6-0.3,0.6-0.7c0,0,0.3-0.5,0.5,0.1c0,0,0.2,0.7,0.1,1.3c0,0-0.2,0.7-0.7,0.2c0,0-0.2-0.3-0.1-0.4
	c0,0-0.2-0.3-0.4,0.2c0,0-0.1,0.5,0.7,0.7c0.8,0.2,0.7,0.7,0.7,0.7s0.4-0.6,0.8-0.7c0.4-0.1,0.9-0.1,0.7-0.8c0,0-0.3-0.2-0.2,0.1
	c0,0-0.1,0.7-0.5,0.3c0,0-0.4-0.7-0.2-1.3c0,0,0.1-0.3,0.2-0.5c0,0,0.1,0.8,1.2,1c0,0,0.4,0.2,0.5,0.7v0.4l0.2-0.2l0.4,0.6l-0.2-0.7
	c0,0,0.3,0,0.5,0.2c0,0,0.1-0.3-0.2-0.4c0,0,0-0.2,0.4-0.1c0,0-0.1-0.3-0.9-0.4c0,0-0.3,0.1-0.6-0.5c0,0-0.2-0.8-0.9-1
	c0,0-0.4-0.5-0.1-0.9c0,0,0-0.1,0.3,0.2c0,0,0.5,0.2,1,0.3c0,0-0.5-0.5-0.3-0.6c0,0,0.4,0.3,1,0.1c0,0-0.6-0.2-0.4-0.6
	c0,0,0.6,0,0.9-0.2c0,0,0.3-0.1-0.3-0.2c0,0-0.5-0.1-0.6-0.5c0,0,1-0.1,1.2-0.5c0,0-0.7,0.2-1.1,0c0,0-0.2-0.2,0.2-0.2
	c0,0,0.9-0.3,1.1-0.9c0,0-0.7,0.5-1,0.3c0,0,1-0.7,1.3-1.7c0,0-0.7,0.7-1.2,0.7c0,0-0.5,0.1,0-0.4c0,0,0.8-0.8,0.7-1.5
	c0,0-0.8,1.2-1.4,1.2c0,0-0.4,0,0-0.5c0,0-1.1,0.1-1.1,1.4c0,0,0.3,1.9-0.3,1.9c-0.5,0-0.6-0.1-0.6-0.6c0-0.5,0.2-1.4-0.2-1.6
	c-0.4-0.2-0.6,0-0.8,0.1c-0.2,0.1-0.4,0.1-0.5,0.1c0,0-0.2,0.2,0.1,0.3c0,0,0.6,0,0.6,0.4c0,0,0.2,0.9-0.6,1c0,0-0.5,0.1-0.5-0.5
	c0,0,0.3-1.9-0.4-2.4c0,0-0.6-0.4-0.8-0.4c0,0-0.3-0.1,0.1,0.3c0,0,0.7,0.5-0.2,0.3C156.5,34.3,155.8,34,155.3,33.3"/>
<path class="st0" d="M154.3,46.2c0,0,1.3,0.4,2-0.8c0,0,1.1,2.1,2.6,0c0,0,1.2,2.1,2.6,0c0,0,1.2,1.9,2.6,0V47c0,0-0.9,2.6-2.7,0.3
	c0,0-1.1,2-2.6,0c0,0-1.1,2-2.6,0c0,0-0.3,1.1-1.1,0.9C155.1,48.2,154.3,47.2,154.3,46.2"/>
<path class="st0" d="M164.1,29.9l0,15.6c1.6,1.7,2.6-0.2,2.6-0.2c1.5,2.1,2.6,0,2.6,0c0,0,0,0,0,0.1c1.4,1.9,2.5-0.1,2.5-0.1
	c0.6,1.2,1.7,0.8,1.7,0.8l0.2-16.2H164.1z M171.9,36.2c0.4,0.2,1-0.3,1-0.3c-0.2,0.6-1.1,0.9-1.1,0.9c-0.4,0-0.2,0.2-0.2,0.2
	c0.4,0.2,1.1,0,1.1,0c-0.2,0.5-1.2,0.5-1.2,0.5c0.1,0.3,0.6,0.5,0.6,0.5c0.6,0.1,0.3,0.2,0.3,0.2c-0.4,0.2-0.9,0.2-0.9,0.2
	c-0.1,0.3,0.4,0.6,0.4,0.6c-0.6,0.2-1-0.1-1-0.1c-0.2,0.2,0.3,0.6,0.3,0.6c-0.5,0-1-0.3-1-0.3c-0.3-0.3-0.3-0.2-0.3-0.2
	c-0.3,0.4,0.1,0.9,0.1,0.9c0.7,0.2,0.9,1,0.9,1c0.3,0.6,0.6,0.5,0.6,0.5c0.8,0.1,0.9,0.4,0.9,0.4c-0.3-0.1-0.4,0.1-0.4,0.1
	c0.3,0.1,0.2,0.4,0.2,0.4c-0.1-0.2-0.5-0.2-0.5-0.2l0.2,0.7l-0.4-0.6l-0.2,0.2v-0.4c-0.1-0.5-0.5-0.7-0.5-0.7c-1.1-0.2-1.2-1-1.2-1
	c-0.1,0.2-0.2,0.5-0.2,0.5c-0.3,0.6,0.2,1.3,0.2,1.3c0.4,0.4,0.5-0.3,0.5-0.3c-0.1-0.3,0.2-0.1,0.2-0.1c0.2,0.8-0.2,0.8-0.7,0.8
	c-0.4,0.1-0.8,0.7-0.8,0.7s0.1-0.5-0.7-0.7c-0.8-0.2-0.7-0.7-0.7-0.7c0.2-0.5,0.4-0.2,0.4-0.2c-0.1,0.1,0.1,0.4,0.1,0.4
	c0.5,0.5,0.7-0.2,0.7-0.2c0.2-0.6-0.1-1.3-0.1-1.3c-0.2-0.6-0.5-0.1-0.5-0.1c0,0.4-0.6,0.7-0.6,0.7c-0.3,0.1-0.6,0.6-0.6,0.6
	l-0.2,0.7l-0.2-0.3l-0.3,0.3l0.1-0.5l-0.5,0.1l0.4-0.3c-0.2,0-0.6-0.1-0.6-0.1c0.1-0.1,1.1-0.3,1.1-0.3c0.4-0.2,0.5-0.4,0.5-0.4
	c0.1-0.6,1.1-1.3,1.1-1.3c0.2-1-0.1-1-0.1-1c-0.4-0.1-1.1,0.6-1.1,0.6c-0.2,0.1-0.3-0.1-0.1-0.2c0.1-0.2,0.3-0.5,0.1-0.5
	c-0.1,0.1-0.5,0.1-0.7,0.1c0,0-0.1,0-0.1,0c0,0,0,0,0.1,0c0.2-0.1,0.3-0.5,0.3-0.5c-0.1,0-1-0.2-1-0.2c0.5-0.1,0.7-0.5,0.7-0.5
	c-0.6-0.3-1-0.7-1-0.7c1,0,1-0.3,1-0.3c-0.7-0.2-1.1-0.7-1.1-0.7c1,0.1,1-0.2,1-0.2c-1-0.5-1.2-1.1-1.2-1.1c0.9,0.7,1.2,0.3,1.2,0.3
	c-0.8-0.8-0.9-1.7-0.9-1.7c0.5,0.7,1.2,1,1.2,1c0.9,0.3,0.2-0.3,0.2-0.3c-0.4-0.4-0.1-0.3-0.1-0.3c0.2,0,0.8,0.4,0.8,0.4
	c0.7,0.5,0.4,2.4,0.4,2.4c0,0.6,0.5,0.5,0.5,0.5c0.8-0.1,0.6-1,0.6-1c0-0.4-0.6-0.4-0.6-0.4c-0.3-0.1-0.1-0.3-0.1-0.3
	c0.1,0,0.2,0,0.5-0.1c0.2-0.1,0.4-0.3,0.8-0.1c0.4,0.2,0.2,1.1,0.2,1.6c0,0.5,0.1,0.5,0.6,0.6c0.5,0,0.3-1.9,0.3-1.9
	c0.1-1.4,1.1-1.4,1.1-1.4c-0.4,0.5,0,0.5,0,0.5c0.6,0,1.4-1.2,1.4-1.2c0.1,0.7-0.7,1.5-0.7,1.5c-0.5,0.4,0,0.4,0,0.4
	c0.5,0,1.2-0.7,1.2-0.7C172.9,35.5,171.9,36.2,171.9,36.2"/>
<path class="st0" d="M146,22.2l0.2,24.1c-0.1,7.3,4.8,11.1,8.9,13c4.4,2,8.9,2.4,9,2.4c9.4-0.9,13.8-4.8,15.8-8
	c2.1-3.4,2.1-6.6,2.1-6.7V22.2h-20.3l0.1,0.1c0,0,0.3,0.2,1,0.2c0,0,0.4,0,0.7,0.2c0.2,0.2,0.2,0.4,0.2,0.7c0,0.4-0.1,0.8-0.1,0.8
	l0.1,0.2l-0.2,0c-0.3,0-1.9-0.1-1.9-0.8v-1.4H146z M149.6,23.6c0,0,0.7-0.5,1.4-0.4c0.4,0.1,0.8,0.3,1.1,0.8l0.1,0.2h-0.2
	c0,0-1.1,0-1.5,0.2l-0.1,0l0,0c-0.3-0.2-0.7-0.5-0.8-0.5h-0.3L149.6,23.6z M150.3,25c0,0-0.7,0.2-1.1,0.8l-0.1,0.1l-0.1-0.1
	c0,0-0.4-0.6,0.1-1c0.4-0.4,1.2,0,1.2,0.1l0.2,0.1L150.3,25z M150.5,26.3c-0.1,0.3-0.4,0.4-0.4,0.4l0,0l0,0
	c-0.2-0.1-0.3-0.2-0.4-0.3c-0.1-0.4,0.2-0.8,0.2-0.8l0,0c0.1-0.1,0.2-0.2,0.4-0.1c0.1,0.1,0.2,0.2,0.2,0.3
	C150.5,25.9,150.5,26.2,150.5,26.3 M150.2,27.3l0.4,0.1l-0.4,0.1c-0.4,0.1-0.6,0.1-0.8,0.1c-0.3,0-0.5-0.1-0.6-0.1
	c-0.1,0-0.2-0.3-0.3-1.5l0-0.7l0.2,0.6C149.1,26.8,150.2,27.2,150.2,27.3 M149,36c0,0,0.4,0,0.7,0.2c0.2,0.2,0.2,0.4,0.2,0.7
	c0,0.4-0.1,0.8-0.1,0.8l0.1,0.2l-0.2,0c-0.3,0-1.9-0.1-1.9-0.8v-1.4l0.2,0.1C148,35.8,148.3,36,149,36z M148,37.9c0,0,0.3,0.2,1,0.2
	c0,0,0.4,0,0.7,0.2c0.2,0.2,0.2,0.4,0.2,0.7c0,0.4-0.1,0.8-0.1,0.8L150,40l-0.2,0c-0.3,0-1.9-0.1-1.9-0.8v-1.4L148,37.9z
	 M149.9,41.8L150,42l-0.2,0c-0.3,0-1.9-0.1-1.9-0.8v-1.4l0.2,0.1c0,0,0.3,0.2,1,0.2c0,0,0.4,0,0.7,0.2c0.2,0.2,0.2,0.4,0.2,0.7
	C149.9,41.4,149.9,41.8,149.9,41.8 M148,46.5c0.6-0.5,1.6,0.1,1.6,0.2l0.2,0.1l-0.3,0c0,0-1.2,0.2-1.7,1.4l-0.1,0.3l-0.1-0.3
	C147.6,48.2,147.4,47,148,46.5 M150.3,47.7c0,0-0.7,0.2-1.1,0.8l-0.1,0.1l-0.1-0.1c0,0-0.4-0.6,0.1-1c0.4-0.4,1.2,0,1.2,0.1l0.2,0.1
	L150.3,47.7z M150.5,49c-0.1,0.3-0.4,0.4-0.4,0.4l0,0l0,0c-0.2-0.1-0.3-0.2-0.4-0.3c-0.1-0.4,0.2-0.8,0.2-0.8l0,0
	c0.1-0.1,0.2-0.2,0.4-0.1c0.1,0.1,0.2,0.2,0.2,0.3C150.5,48.6,150.5,48.8,150.5,49 M148.7,48.5c0.4,1,1.5,1.4,1.5,1.4l0.4,0.1
	l-0.4,0.1c-0.4,0.1-0.6,0.1-0.8,0.1c-0.3,0-0.5-0.1-0.6-0.1c-0.1,0-0.2-0.3-0.3-1.5l0-0.7L148.7,48.5z M150.5,49.7
	c-0.1-0.1-0.2-0.2-0.2-0.2l0-0.1l0.1,0c0.4-0.2,0.3-1,0.2-1.3l0-0.2l0.2,0c0.3,0.1,0.5,0.2,0.6,0.5c0.2,0.5-0.1,1.2-0.2,1.2l0,0l0,0
	c-0.1,0-0.2,0-0.3,0C150.7,49.8,150.6,49.8,150.5,49.7 M150.5,47L150.5,47l-0.1,0c-0.3-0.2-0.7-0.5-0.8-0.5h-0.3l0.2-0.2
	c0,0,0.7-0.5,1.4-0.4c0.4,0.1,0.8,0.3,1.1,0.8l0.1,0.2h-0.2C152,46.8,150.9,46.8,150.5,47 M150.5,42l-0.2,0l0.1-0.2
	c0-0.1,0-0.5-0.1-0.8c0-0.3,0.1-0.5,0.2-0.7c0.3-0.3,0.6-0.2,0.7-0.2c0.7,0,1-0.2,1-0.2l0.2-0.1l0,1.4C152.5,41.9,150.9,42,150.5,42
	 M150.6,40l-0.2,0l0.1-0.2c0-0.1,0-0.5-0.1-0.8c0-0.3,0.1-0.5,0.2-0.7c0.3-0.3,0.6-0.2,0.7-0.2c0.7,0,1-0.2,1-0.2l0.2-0.1l0,1.4
	C152.5,39.9,150.9,40,150.6,40 M150.6,37.9l-0.2,0l0.1-0.2c0-0.1,0-0.5-0.1-0.8c0-0.3,0.1-0.5,0.2-0.7c0.3-0.3,0.6-0.2,0.7-0.2
	c0.7,0,1-0.2,1-0.2l0.2-0.1l0,1.4C152.5,37.8,150.9,37.9,150.6,37.9 M150.9,28.8l0,0.6l1.3,0l-1.3,1.3v1.2l-0.8,0l-0.1-3.1
	c-0.6-0.1-0.8-0.7-0.8-0.8l-0.1-0.2l0.2,0c2,0.3,3-1.3,3-1.3l0.2-0.3l0,0.3C152.6,27.9,151.2,28.6,150.9,28.8 M151.2,27L151.2,27
	L151.2,27c-0.2,0.1-0.3,0.1-0.4,0.1c-0.1,0-0.2,0-0.3-0.1c-0.1-0.1-0.2-0.2-0.2-0.2l0-0.1l0.1,0c0.4-0.2,0.3-1,0.2-1.3l0-0.2l0.2,0
	c0.3,0.1,0.5,0.2,0.6,0.5C151.6,26.3,151.2,27,151.2,27 M148,23.9c0.6-0.5,1.6,0.1,1.6,0.2l0.2,0.1l-0.3,0c0,0-1.2,0.2-1.7,1.4
	l-0.1,0.3l-0.1-0.3C147.6,25.5,147.4,24.3,148,23.9 M148,25.6l0.2-0.3l0,0.4c0,0-0.1,1.4,0.6,2.2l0.1,0.1l-0.2,0c0,0-0.1,0-0.3,0
	c-0.3,0-0.9-0.1-1.1-0.4C147.2,27.2,147.4,26.5,148,25.6 M148.7,50.7c0,0-0.1,0-0.3,0c-0.3,0-0.9-0.1-1.1-0.4c-0.3-0.4,0-1.1,0.6-2
	l0.2-0.3l0,0.4c0,0-0.1,1.4,0.6,2.2l0.1,0.1L148.7,50.7z M150.9,52l1.3,0l-1.3,1.3v1.2l-0.8,0l-0.1-3.1c-0.6-0.1-0.8-0.7-0.8-0.8
	l-0.1-0.2l0.2,0c2,0.3,3-1.3,3-1.3l0.2-0.3l0,0.3c0.1,1.3-1.3,2-1.6,2.1L150.9,52z M152.6,48.5L152.6,48.5c-0.1,0.1-0.6,1-1,1.1
	l-0.2,0l0.1-0.2c0,0,0.6-1-0.7-2.1l-0.2-0.1l0.2,0c0,0,1-0.2,1.5,0.3C152.7,47.7,152.7,48,152.6,48.5 M152.6,25.8L152.6,25.8
	c-0.1,0.1-0.6,1-1,1.1l-0.2,0l0.1-0.2c0,0,0.6-1-0.7-2.1l-0.2-0.1l0.2,0c0,0,1-0.2,1.5,0.3C152.7,25,152.7,25.4,152.6,25.8
	 M163.7,56.9l0.1,0.2l-0.2,0c-0.3,0-1.9-0.1-1.9-0.8v-1.4l0.2,0.1c0,0,0.3,0.2,1,0.2c0,0,0.4,0,0.7,0.2c0.2,0.2,0.2,0.4,0.2,0.7
	C163.7,56.5,163.7,56.9,163.7,56.9 M161.8,57.1c0,0,0.3,0.2,1,0.2h0c0,0,0.4,0,0.7,0.2c0.2,0.2,0.2,0.4,0.2,0.7
	c0,0.4-0.1,0.8-0.1,0.8l0.1,0.2l-0.2,0c-0.3,0-1.9-0.1-1.9-0.8V57L161.8,57.1z M163.6,61.2c-0.3,0-1.9-0.1-1.9-0.8V59l0.2,0.1
	c0,0,0.3,0.2,1,0.2c0,0,0.4,0,0.7,0.2c0.2,0.2,0.2,0.4,0.2,0.7c0,0.4-0.1,0.8-0.1,0.8l0.1,0.2L163.6,61.2z M164.4,61.3l-0.2,0
	l0.1-0.2c0-0.1,0-0.5-0.1-0.8c0-0.3,0.1-0.5,0.2-0.7c0.3-0.3,0.6-0.2,0.7-0.2c0.7,0,1-0.2,1-0.2l0.2-0.1v1.4
	C166.3,61.1,164.7,61.2,164.4,61.3 M164.4,59.2l-0.2,0l0.1-0.2c0-0.1,0-0.5-0.1-0.8c0-0.3,0.1-0.5,0.2-0.7c0.3-0.3,0.6-0.2,0.7-0.2
	c0.7,0,1-0.2,1-0.2l0.2-0.1v1.4C166.3,59.1,164.7,59.2,164.4,59.2 M164.4,57.1l-0.2,0l0.1-0.2c0-0.1,0-0.5-0.1-0.8
	c0-0.3,0.1-0.5,0.2-0.7c0.3-0.3,0.6-0.2,0.7-0.2c0.7,0,1-0.2,1-0.2l0.2-0.1v1.4C166.3,57,164.7,57.1,164.4,57.1 M179.3,50.7
	c0,0-0.3,0.6-0.8,0.8l-0.1,3.1l-0.8,0v-1.2l-1.3-1.3l1.3,0l0-0.6c-0.3-0.1-1.7-0.8-1.6-2.1l0-0.3l0.2,0.3c0,0,1.1,1.6,3,1.3l0.2,0
	L179.3,50.7z M178,26.8L178,26.8l0.1,0.1c0,0,0,0.1-0.2,0.2c-0.1,0-0.2,0.1-0.3,0.1c-0.1,0-0.2,0-0.3,0l0,0l0,0c0,0-0.4-0.7-0.2-1.2
	c0.1-0.2,0.3-0.4,0.6-0.5l0.2,0l0,0.2C177.7,25.8,177.6,26.6,178,26.8 M178,48.4c0-0.1,0-0.2,0.2-0.3c0.2-0.1,0.3,0.1,0.4,0.1
	c0,0,0.4,0.5,0.2,0.8c-0.1,0.2-0.2,0.3-0.4,0.3l0,0l0,0c0,0-0.3-0.1-0.4-0.4C177.9,48.8,177.9,48.6,178,48.4 M177.9,47.6l0.2-0.1
	c0,0,0.8-0.5,1.2-0.1c0.4,0.4,0.1,1,0.1,1l-0.1,0.1l-0.1-0.1c-0.3-0.5-1.1-0.8-1.1-0.8L177.9,47.6z M178.2,49.9c0,0,1.1-0.4,1.5-1.4
	l0.2-0.6l0,0.7c-0.1,1.3-0.2,1.5-0.3,1.5c-0.1,0.1-0.2,0.1-0.6,0.1c-0.2,0-0.5,0-0.8-0.1l-0.4-0.1L178.2,49.9z M178.9,46.9l-0.3,0
	l0.2-0.1c0,0,1-0.6,1.6-0.2c0.6,0.5,0.4,1.7,0.4,1.7l-0.1,0.3l-0.1-0.3C180.1,47.1,178.9,46.9,178.9,46.9 M178.5,41L178.5,41
	c0-0.3,0.1-0.5,0.2-0.7c0.3-0.3,0.6-0.2,0.7-0.2c0.7,0,1-0.2,1-0.2l0.2-0.1l0,1.4c0,0.6-1.6,0.8-1.9,0.8l-0.2,0l0.1-0.2
	C178.5,41.8,178.5,41.4,178.5,41 M178.5,39c0-0.3,0.1-0.5,0.2-0.7c0.3-0.3,0.6-0.2,0.7-0.2c0.7,0,1-0.2,1-0.2l0.2-0.1l0,1.4
	c0,0.7-1.6,0.8-1.9,0.8l-0.2,0l0.1-0.2C178.6,39.7,178.6,39.3,178.5,39 M178.7,37.8l-0.2,0l0.1-0.2c0-0.1,0-0.5-0.1-0.8
	c0-0.3,0.1-0.5,0.2-0.7c0.3-0.3,0.6-0.2,0.7-0.2c0.7,0,1-0.2,1-0.2l0.2-0.1l0,1.4C180.6,37.7,179,37.8,178.7,37.8 M179.1,27.5
	c-0.2,0-0.5,0-0.8-0.1l-0.4-0.1l0.4-0.1c0,0,1.1-0.4,1.5-1.4l0.2-0.6l0,0.7c-0.1,1.3-0.2,1.5-0.3,1.5
	C179.6,27.5,179.4,27.5,179.1,27.5 M178,26.3c-0.1-0.2-0.1-0.4,0-0.6c0-0.1,0-0.2,0.2-0.3c0.2-0.1,0.3,0.1,0.4,0.1
	c0,0,0.4,0.5,0.2,0.8c-0.1,0.2-0.2,0.3-0.4,0.3l0,0l0,0C178.4,26.7,178.1,26.6,178,26.3 M179.4,25.8l-0.1,0.1l-0.1-0.1
	c-0.3-0.5-1.1-0.8-1.1-0.8l-0.2-0.1l0.2-0.1c0,0,0.8-0.5,1.2-0.1C179.7,25.2,179.4,25.7,179.4,25.8 M179.2,27.9l0.2,0l-0.1,0.2
	c0,0-0.3,0.6-0.8,0.8l-0.1,3.1l-0.8,0v-1.2l-1.3-1.3l1.3,0l0-0.6c-0.3-0.1-1.7-0.8-1.6-2.1l0-0.3l0.2,0.3
	C176.1,26.6,177.2,28.2,179.2,27.9 M176.1,35.8c0,0,0.3,0.2,1,0.2h0c0,0,0.4,0,0.7,0.2c0.2,0.2,0.2,0.4,0.2,0.7
	c0,0.4-0.1,0.8-0.1,0.8l0.1,0.2l-0.2,0c-0.3,0-1.9-0.1-1.9-0.8v-1.4L176.1,35.8z M176.1,37.9c0,0,0.3,0.2,1,0.2h0c0,0,0.4,0,0.7,0.2
	c0.2,0.2,0.2,0.4,0.2,0.7c0,0.4-0.1,0.8-0.1,0.8L178,40l-0.2,0c-0.3,0-1.9-0.1-1.9-0.8v-1.4L176.1,37.9z M176,39.8l0.2,0.1
	c0,0,0.3,0.2,1,0.2c0,0,0.4,0,0.7,0.2c0.2,0.2,0.2,0.4,0.2,0.7c0,0.4-0.1,0.8-0.1,0.8l0.1,0.2l-0.2,0c-0.3,0-1.9-0.1-1.9-0.8V39.8z
	 M176.3,46.6c0.3-0.4,0.7-0.7,1.1-0.8c0.8-0.1,1.4,0.4,1.4,0.4l0.2,0.2h-0.3c-0.1,0-0.6,0.3-0.8,0.5l0,0l-0.1,0
	c-0.4-0.2-1.5-0.2-1.5-0.2h-0.2L176.3,46.6z M178,49.4L178,49.4l0.1,0.1c0,0,0,0.1-0.2,0.2c-0.1,0-0.2,0.1-0.3,0.1
	c-0.1,0-0.2,0-0.3,0l0,0l0,0c0,0-0.4-0.7-0.2-1.2c0.1-0.2,0.3-0.4,0.6-0.5l0.2,0l0,0.2C177.7,48.4,177.6,49.3,178,49.4 M181,50.3
	c-0.2,0.4-0.8,0.4-1.1,0.4c-0.1,0-0.2,0-0.3,0l-0.2,0l0.1-0.1c0.7-0.8,0.6-2.2,0.6-2.2l0-0.4l0.2,0.3
	C181.1,49.2,181.3,49.9,181,50.3 M181,27.6c-0.2,0.4-0.8,0.4-1.1,0.4c-0.1,0-0.2,0-0.3,0l-0.2,0l0.1-0.1c0.7-0.8,0.6-2.2,0.6-2.2
	l0-0.4l0.2,0.3C181.1,26.5,181.3,27.2,181,27.6 M180.4,23.9c0.6,0.5,0.4,1.7,0.4,1.7l-0.1,0.3l-0.1-0.3c-0.5-1.2-1.7-1.4-1.7-1.4
	l-0.3,0l0.2-0.1C178.9,24,179.8,23.4,180.4,23.9 M176.3,24c0.3-0.4,0.7-0.7,1.1-0.8c0.8-0.1,1.4,0.4,1.4,0.4l0.2,0.2h-0.3
	c-0.1,0-0.6,0.3-0.8,0.5l0,0l-0.1,0c-0.4-0.2-1.5-0.2-1.5-0.2h-0.2L176.3,24z M176,24.8c0.5-0.5,1.5-0.3,1.5-0.3l0.2,0l-0.2,0.1
	c-1.3,1.1-0.7,2.1-0.7,2.1L177,27l-0.2,0c-0.4-0.1-0.9-1-1-1.1l0,0C175.7,25.4,175.8,25,176,24.8 M176,47.5c0.5-0.5,1.5-0.3,1.5-0.3
	l0.2,0l-0.2,0.1c-1.3,1.1-0.7,2.1-0.7,2.1l0.1,0.2l-0.2,0c-0.4-0.1-0.9-1-1-1.1l0,0C175.7,48,175.8,47.7,176,47.5 M174.7,47.1
	c0,0.1-0.5,7.6-10.5,7.7c0,0-0.1,0-0.3,0c-1.5,0-8.1-0.4-10.5-7.7l0,0l-0.1-18.4h21.7L174.7,47.1z M164.3,23.5
	c0-0.3,0.1-0.5,0.2-0.7c0.3-0.3,0.6-0.2,0.7-0.2c0.7,0,1-0.2,1-0.2l0.2-0.1v1.4c0,0.6-1.6,0.8-1.9,0.8l-0.2,0l0.1-0.2
	C164.3,24.2,164.3,23.8,164.3,23.5 M164.3,26.4c0-0.1,0-0.5-0.1-0.8c0-0.3,0.1-0.5,0.2-0.7c0.3-0.3,0.6-0.2,0.7-0.2
	c0.7,0,1-0.2,1-0.2l0.2-0.1v1.4c0,0.6-1.6,0.8-1.9,0.8l-0.2,0L164.3,26.4z M164.2,27.6c0-0.3,0.1-0.5,0.2-0.7
	c0.3-0.3,0.6-0.2,0.7-0.2c0.7,0,1-0.2,1-0.2l0.2-0.1v1.4c0,0.7-1.6,0.8-1.9,0.8l-0.2,0l0.1-0.2C164.3,28.4,164.2,28,164.2,27.6
	 M163.7,28.4l0.1,0.2l-0.2,0c-0.3,0-1.9-0.1-1.9-0.8v-1.4l0.2,0.1c0,0,0.3,0.2,1,0.2c0,0,0.4,0,0.7,0.2c0.2,0.2,0.2,0.4,0.2,0.7
	C163.8,27.9,163.7,28.3,163.7,28.4 M161.8,24.4c0,0,0.3,0.2,1,0.2c0,0,0.4,0,0.7,0.2c0.2,0.2,0.2,0.4,0.2,0.7c0,0.4-0.1,0.8-0.1,0.8
	l0.1,0.2l-0.2,0c-0.3,0-1.9-0.1-1.9-0.8v-1.4L161.8,24.4z"/>
<rect x="187.8" y="22.9" class="st0" width="0.8" height="6.9"/>
<rect x="190.5" y="22.4" class="st0" width="0.8" height="7.5"/>
<path class="st0" d="M194.9,30c-0.3,0-0.5,0-0.7-0.1c-0.2-0.1-0.4-0.1-0.5-0.2c-0.2-0.1-0.3-0.2-0.4-0.4c-0.1-0.1-0.2-0.3-0.3-0.5
	c0-0.1-0.1-0.3-0.1-0.4c0-0.1,0-0.3,0-0.5v-3h0.8v3c0,0.3,0,0.5,0.1,0.7c0.1,0.2,0.2,0.4,0.4,0.5c0.2,0.1,0.4,0.2,0.7,0.2
	c0.3,0,0.5-0.1,0.7-0.2c0.2-0.1,0.3-0.3,0.4-0.5c0.1-0.2,0.1-0.4,0.1-0.6v-3h0.8v3c0,0.2,0,0.3,0,0.5c0,0.1,0,0.3-0.1,0.4
	c-0.1,0.2-0.1,0.3-0.3,0.5c-0.1,0.1-0.2,0.3-0.4,0.4c-0.2,0.1-0.3,0.2-0.5,0.2C195.4,29.9,195.2,30,194.9,30"/>
<path class="st0" d="M199.1,26.2c0,0.1,0,0.2,0.1,0.3c0.1,0.1,0.1,0.2,0.2,0.2c0.1,0.1,0.2,0.1,0.3,0.1c0.1,0,0.3,0.1,0.4,0.1
	c0.2,0,0.4,0.1,0.5,0.1c0.2,0.1,0.3,0.1,0.5,0.2c0.1,0.1,0.3,0.2,0.3,0.4c0.1,0.2,0.1,0.4,0.1,0.7c0,0.2,0,0.5-0.1,0.7
	c-0.1,0.2-0.2,0.4-0.4,0.5c-0.2,0.1-0.4,0.2-0.6,0.3c-0.2,0.1-0.5,0.1-0.8,0.1c-0.2,0-0.3,0-0.5,0c-0.1,0-0.3,0-0.4-0.1
	c-0.1,0-0.2-0.1-0.3-0.1c-0.1,0-0.1-0.1-0.2-0.1V29c0.2,0.1,0.4,0.1,0.6,0.2c0.2,0,0.4,0.1,0.7,0.1c0.2,0,0.4,0,0.5-0.1
	c0.2,0,0.3-0.1,0.4-0.2c0.1-0.1,0.2-0.2,0.3-0.3c0.1-0.1,0.1-0.2,0.1-0.4c0-0.1,0-0.3-0.1-0.3c-0.1-0.1-0.1-0.2-0.2-0.2
	c-0.1-0.1-0.2-0.1-0.3-0.1c-0.1,0-0.2-0.1-0.4-0.1c-0.2,0-0.3-0.1-0.5-0.1c-0.2-0.1-0.3-0.1-0.5-0.2c-0.1-0.1-0.3-0.2-0.4-0.4
	c-0.1-0.2-0.1-0.4-0.1-0.6c0-0.3,0-0.5,0.1-0.7c0.1-0.2,0.2-0.3,0.4-0.5c0.2-0.1,0.3-0.2,0.6-0.3c0.2-0.1,0.4-0.1,0.7-0.1
	c0.3,0,0.5,0,0.8,0.1c0.2,0.1,0.4,0.1,0.6,0.2v0.7c-0.2-0.1-0.4-0.1-0.6-0.2c-0.2-0.1-0.4-0.1-0.6-0.1c-0.2,0-0.3,0-0.5,0.1
	c-0.1,0-0.2,0.1-0.3,0.2c-0.1,0.1-0.1,0.1-0.2,0.2C199.1,26,199.1,26.1,199.1,26.2"/>
<path class="st0" d="M205.5,29.8c-0.1,0-0.2,0.1-0.3,0.1c-0.1,0-0.3,0-0.5,0c-0.3,0-0.5,0-0.7-0.1c-0.2-0.1-0.3-0.2-0.5-0.3
	c-0.1-0.1-0.2-0.3-0.3-0.4c-0.1-0.2-0.1-0.4-0.1-0.6v-3h-0.9v-0.7h0.9v-1.3h0.8v1.3h1.5v0.7H204v2.9c0,0.1,0,0.2,0,0.3
	c0,0.1,0.1,0.2,0.2,0.2c0.1,0.1,0.2,0.1,0.3,0.2c0.1,0,0.2,0.1,0.4,0.1c0.1,0,0.2,0,0.3,0c0.1,0,0.2,0,0.3-0.1V29.8z"/>
<path class="st0" d="M209.4,25.6L209.4,25.6c-0.3,0-0.4,0-0.6,0.1c-0.2,0-0.4,0.1-0.5,0.2c-0.2,0.1-0.3,0.2-0.4,0.3
	c-0.1,0.1-0.2,0.2-0.3,0.4v3.4h-0.8v-4.9h0.6l0.2,0.8h0c0.1-0.1,0.2-0.2,0.3-0.4c0.1-0.1,0.2-0.2,0.4-0.3c0.1-0.1,0.3-0.1,0.5-0.2
	c0.2,0,0.4-0.1,0.5-0.1l0.1,0l0.1,0V25.6z"/>
<path class="st0" d="M212.7,29.3c0.3,0,0.5,0,0.7-0.1s0.4-0.1,0.7-0.2v0.7c-0.2,0.1-0.4,0.2-0.7,0.2c-0.3,0.1-0.5,0.1-0.8,0.1
	c-0.3,0-0.7,0-1-0.1c-0.3-0.1-0.6-0.2-0.8-0.4c-0.2-0.2-0.4-0.5-0.5-0.8c-0.1-0.3-0.2-0.7-0.2-1.2c0-0.4,0.1-0.8,0.2-1.2
	c0.1-0.3,0.3-0.6,0.5-0.8c0.2-0.2,0.4-0.4,0.7-0.5c0.3-0.1,0.5-0.2,0.8-0.2c0.3,0,0.5,0,0.8,0.1c0.2,0.1,0.4,0.2,0.6,0.4
	c0.2,0.2,0.3,0.4,0.4,0.8c0.1,0.3,0.2,0.7,0.2,1.1v0.1c0,0,0,0.1,0,0.2h-3.4c0,0.3,0,0.6,0.1,0.8c0.1,0.2,0.2,0.4,0.4,0.5
	c0.2,0.1,0.4,0.2,0.6,0.3C212.2,29.2,212.4,29.3,212.7,29.3 M212.3,25.5c-0.2,0-0.4,0-0.5,0.1c-0.2,0.1-0.3,0.2-0.4,0.3
	s-0.2,0.3-0.3,0.4c-0.1,0.2-0.1,0.3-0.1,0.5h2.5c0-0.2,0-0.4-0.1-0.5c-0.1-0.2-0.1-0.3-0.2-0.4c-0.1-0.1-0.2-0.2-0.4-0.3
	C212.6,25.5,212.5,25.5,212.3,25.5"/>
<path class="st0" d="M191.5,39.6h-0.4l-1.7-4.1c-0.2-0.6-0.5-1.2-0.7-1.9h0c0,1,0.1,1.8,0.1,2.6v3.3h-0.8v-6.9h1.2l1.6,3.9
	c0.2,0.4,0.4,1,0.6,1.6h0c0.2-0.7,0.5-1.2,0.6-1.6l1.6-3.9h1.2v6.9h-0.8v-3.3c0-0.8,0-1.7,0.1-2.6h0c-0.3,0.7-0.5,1.3-0.7,1.9
	L191.5,39.6z"/>
<path class="st0" d="M198.4,39.8c-0.3,0-0.5,0-0.7-0.1c-0.2-0.1-0.4-0.1-0.5-0.2c-0.2-0.1-0.3-0.2-0.4-0.4c-0.1-0.1-0.2-0.3-0.3-0.5
	c0-0.1-0.1-0.3-0.1-0.4c0-0.1,0-0.3,0-0.5v-3h0.8v3c0,0.3,0,0.5,0.1,0.7c0.1,0.2,0.2,0.4,0.4,0.5c0.2,0.1,0.4,0.2,0.7,0.2
	c0.3,0,0.5-0.1,0.7-0.2c0.2-0.1,0.3-0.3,0.4-0.5c0.1-0.2,0.1-0.4,0.1-0.6v-3h0.8v3c0,0.2,0,0.3,0,0.5c0,0.1,0,0.3-0.1,0.4
	c-0.1,0.2-0.1,0.3-0.3,0.5c-0.1,0.1-0.2,0.3-0.4,0.4c-0.2,0.1-0.3,0.2-0.5,0.2C198.9,39.7,198.7,39.8,198.4,39.8"/>
<path class="st0" d="M202.9,35.4L202.9,35.4c0.1-0.1,0.2-0.2,0.3-0.3c0.1-0.1,0.2-0.2,0.4-0.3c0.1-0.1,0.3-0.1,0.4-0.2
	c0.2,0,0.3-0.1,0.5-0.1c0.2,0,0.4,0,0.6,0.1c0.2,0.1,0.4,0.2,0.5,0.3c0.1,0.1,0.3,0.3,0.3,0.5c0.1,0.2,0.1,0.5,0.1,0.8v3.3h-0.8
	v-3.2c0-0.4-0.1-0.7-0.2-0.9c-0.2-0.2-0.4-0.3-0.7-0.3c-0.3,0-0.5,0.1-0.8,0.2c-0.3,0.2-0.5,0.4-0.7,0.6v3.5h-0.8v-4.9h0.6
	L202.9,35.4z"/>
<path class="st0" d="M207.8,32.7h0.8v0.9h-0.8V32.7z M207.8,34.7h0.8v4.9h-0.8V34.7z"/>
<path class="st0" d="M212.4,34.6c0.2,0,0.5,0,0.7,0.1c0.2,0,0.4,0.1,0.6,0.2v0.7c-0.2-0.1-0.4-0.1-0.6-0.2s-0.4-0.1-0.6-0.1
	c-0.2,0-0.4,0-0.6,0.1c-0.2,0.1-0.4,0.2-0.5,0.3c-0.2,0.2-0.3,0.3-0.4,0.6c-0.1,0.2-0.1,0.6-0.1,0.9c0,0.3,0,0.5,0.1,0.7
	c0.1,0.2,0.2,0.4,0.3,0.6c0.1,0.2,0.3,0.3,0.5,0.4c0.2,0.1,0.5,0.1,0.7,0.1c0.2,0,0.4,0,0.6-0.1c0.2,0,0.4-0.1,0.6-0.2v0.7
	c-0.1,0-0.1,0.1-0.2,0.1c-0.1,0-0.2,0.1-0.3,0.1c-0.1,0-0.2,0-0.4,0.1c-0.1,0-0.3,0-0.4,0c-0.3,0-0.6,0-0.9-0.1
	c-0.3-0.1-0.6-0.3-0.8-0.5s-0.4-0.5-0.5-0.8c-0.1-0.3-0.2-0.7-0.2-1.1c0-0.3,0-0.6,0.1-0.9c0.1-0.3,0.2-0.5,0.3-0.7
	c0.1-0.2,0.3-0.4,0.4-0.5c0.2-0.1,0.3-0.2,0.5-0.3c0.2-0.1,0.4-0.2,0.6-0.2C212.1,34.6,212.3,34.6,212.4,34.6"/>
<path class="st0" d="M215.1,32.7h0.8v0.9h-0.8V32.7z M215.1,34.7h0.8v4.9h-0.8V34.7z"/>
<path class="st0" d="M222,37.1c0,0.3,0,0.6-0.1,0.9c-0.1,0.3-0.2,0.5-0.3,0.7c-0.1,0.2-0.2,0.4-0.4,0.5c-0.1,0.1-0.3,0.2-0.5,0.3
	c-0.2,0.1-0.3,0.1-0.5,0.2c-0.2,0-0.3,0.1-0.5,0.1c-0.3,0-0.6,0-0.8-0.1c-0.2-0.1-0.4-0.2-0.6-0.4h0V42h-0.8v-7.3h0.6l0.2,0.6h0
	c0-0.1,0.1-0.1,0.2-0.2c0.1-0.1,0.2-0.1,0.3-0.2c0.1-0.1,0.3-0.1,0.4-0.2c0.2-0.1,0.3-0.1,0.5-0.1c0.3,0,0.5,0,0.8,0.1
	c0.3,0.1,0.5,0.2,0.7,0.4c0.2,0.2,0.4,0.5,0.5,0.8C221.9,36.3,222,36.7,222,37.1 M221.2,37.1c0-0.3,0-0.5-0.1-0.8
	c-0.1-0.2-0.2-0.4-0.3-0.6c-0.1-0.2-0.3-0.3-0.4-0.4c-0.2-0.1-0.4-0.1-0.6-0.1c-0.2,0-0.3,0-0.5,0.1c-0.1,0-0.3,0.1-0.4,0.2
	c-0.1,0.1-0.2,0.1-0.3,0.2c-0.1,0.1-0.1,0.1-0.2,0.2v2.6c0.2,0.2,0.4,0.3,0.6,0.4c0.2,0.1,0.4,0.1,0.7,0.1c0.2,0,0.3,0,0.5-0.1
	c0.2-0.1,0.3-0.2,0.5-0.3c0.1-0.1,0.3-0.3,0.4-0.6C221.1,37.9,221.2,37.5,221.2,37.1"/>
<path class="st0" d="M226.2,39.1L226.2,39.1c-0.1,0.1-0.2,0.2-0.3,0.2c-0.1,0.1-0.2,0.2-0.3,0.2c-0.1,0.1-0.3,0.1-0.4,0.2
	s-0.3,0.1-0.5,0.1c-0.2,0-0.5,0-0.7-0.1c-0.2-0.1-0.4-0.2-0.5-0.3c-0.1-0.1-0.3-0.3-0.3-0.5c-0.1-0.2-0.1-0.4-0.1-0.7
	c0-0.2,0-0.5,0.1-0.7c0.1-0.2,0.2-0.4,0.4-0.5c0.2-0.1,0.3-0.2,0.6-0.3c0.2-0.1,0.5-0.1,0.7-0.1c0.3,0,0.5,0,0.7,0.1
	c0.2,0,0.4,0.1,0.6,0.2h0v-0.3c0-0.1,0-0.3,0-0.4c0-0.1,0-0.2-0.1-0.3c-0.1-0.2-0.2-0.3-0.4-0.4c-0.2-0.1-0.5-0.2-0.8-0.2
	c-0.2,0-0.5,0-0.7,0.1c-0.2,0-0.4,0.1-0.7,0.2v-0.7c0.1,0,0.2-0.1,0.3-0.1c0.1,0,0.2-0.1,0.4-0.1c0.1,0,0.3,0,0.4-0.1
	c0.1,0,0.3,0,0.4,0c0.5,0,0.9,0.1,1.2,0.3c0.3,0.2,0.5,0.4,0.7,0.7c0.1,0.1,0.1,0.2,0.1,0.4c0,0.1,0,0.3,0,0.4v3.3h-0.7L226.2,39.1z
	 M226.2,37.5c-0.1,0-0.3-0.1-0.5-0.1c-0.2,0-0.4-0.1-0.7-0.1c-0.3,0-0.6,0.1-0.8,0.2s-0.3,0.4-0.3,0.7c0,0.2,0,0.3,0.1,0.4
	c0,0.1,0.1,0.2,0.2,0.3c0.1,0.1,0.2,0.1,0.3,0.2c0.1,0,0.2,0.1,0.4,0.1c0.2,0,0.3,0,0.5-0.1c0.1,0,0.3-0.1,0.4-0.2
	c0.1-0.1,0.2-0.1,0.3-0.2c0.1-0.1,0.1-0.1,0.2-0.2V37.5z"/>
<rect x="228.7" y="32.2" class="st0" width="0.8" height="7.5"/>
<path class="st0" d="M231.2,32.7h0.8v0.9h-0.8V32.7z M231.3,34.7h0.8v4.9h-0.8V34.7z"/>
<path class="st0" d="M233.5,37.3c0-0.3,0-0.6,0.1-0.9c0.1-0.3,0.2-0.5,0.3-0.7c0.1-0.2,0.2-0.4,0.4-0.5c0.1-0.1,0.3-0.2,0.5-0.3
	c0.2-0.1,0.3-0.1,0.5-0.2c0.2,0,0.3-0.1,0.5-0.1c0.3,0,0.6,0,0.8,0.1c0.2,0.1,0.4,0.2,0.6,0.4h0v-3h0.8v7.5h-0.6l-0.2-0.5h0
	c-0.1,0.1-0.1,0.2-0.2,0.2c-0.1,0.1-0.2,0.2-0.3,0.2c-0.1,0.1-0.2,0.1-0.4,0.2c-0.1,0-0.3,0.1-0.5,0.1c-0.3,0-0.5,0-0.8-0.1
	c-0.3-0.1-0.5-0.2-0.7-0.4c-0.2-0.2-0.4-0.5-0.5-0.8C233.6,38.1,233.5,37.7,233.5,37.3 M234.3,37.2c0,0.3,0,0.5,0.1,0.8
	c0.1,0.2,0.2,0.4,0.3,0.6c0.1,0.2,0.3,0.3,0.4,0.4c0.2,0.1,0.4,0.1,0.6,0.1c0.2,0,0.3,0,0.5-0.1c0.1,0,0.3-0.1,0.4-0.2
	c0.1-0.1,0.2-0.1,0.3-0.2c0.1-0.1,0.1-0.1,0.2-0.2v-2.6c-0.2-0.2-0.4-0.3-0.6-0.4c-0.2-0.1-0.5-0.2-0.7-0.2c-0.2,0-0.3,0-0.5,0.1
	c-0.2,0.1-0.3,0.2-0.5,0.3c-0.1,0.1-0.3,0.3-0.4,0.6C234.4,36.5,234.3,36.9,234.3,37.2"/>
<path class="st0" d="M242.4,39.1L242.4,39.1c-0.1,0.1-0.2,0.2-0.3,0.2c-0.1,0.1-0.2,0.2-0.3,0.2c-0.1,0.1-0.3,0.1-0.4,0.2
	c-0.2,0-0.3,0.1-0.5,0.1c-0.2,0-0.5,0-0.7-0.1c-0.2-0.1-0.4-0.2-0.5-0.3c-0.1-0.1-0.3-0.3-0.3-0.5c-0.1-0.2-0.1-0.4-0.1-0.7
	c0-0.2,0-0.5,0.1-0.7c0.1-0.2,0.2-0.4,0.4-0.5c0.2-0.1,0.4-0.2,0.6-0.3c0.2-0.1,0.5-0.1,0.7-0.1c0.3,0,0.5,0,0.7,0.1
	c0.2,0,0.4,0.1,0.6,0.2h0v-0.3c0-0.1,0-0.3,0-0.4c0-0.1,0-0.2-0.1-0.3c-0.1-0.2-0.2-0.3-0.4-0.4c-0.2-0.1-0.5-0.2-0.8-0.2
	c-0.2,0-0.5,0-0.7,0.1c-0.2,0-0.4,0.1-0.7,0.2v-0.7c0.1,0,0.2-0.1,0.3-0.1c0.1,0,0.2-0.1,0.4-0.1c0.1,0,0.3,0,0.4-0.1
	c0.1,0,0.3,0,0.4,0c0.5,0,0.9,0.1,1.2,0.3c0.3,0.2,0.5,0.4,0.7,0.7c0.1,0.1,0.1,0.2,0.1,0.4c0,0.1,0,0.3,0,0.4v3.3h-0.7L242.4,39.1z
	 M242.4,37.5c-0.1,0-0.3-0.1-0.5-0.1c-0.2,0-0.4-0.1-0.7-0.1c-0.3,0-0.6,0.1-0.8,0.2s-0.3,0.4-0.3,0.7c0,0.2,0,0.3,0.1,0.4
	c0,0.1,0.1,0.2,0.2,0.3c0.1,0.1,0.2,0.1,0.3,0.2c0.1,0,0.2,0.1,0.4,0.1c0.2,0,0.3,0,0.5-0.1c0.1,0,0.3-0.1,0.4-0.2
	c0.1-0.1,0.2-0.1,0.3-0.2c0.1-0.1,0.1-0.1,0.2-0.2V37.5z"/>
<path class="st0" d="M244.6,37.3c0-0.3,0-0.6,0.1-0.9c0.1-0.3,0.2-0.5,0.3-0.7c0.1-0.2,0.2-0.4,0.4-0.5c0.1-0.1,0.3-0.2,0.5-0.3
	c0.2-0.1,0.3-0.1,0.5-0.2c0.2,0,0.3-0.1,0.5-0.1c0.3,0,0.6,0,0.8,0.1c0.2,0.1,0.4,0.2,0.6,0.4h0v-3h0.8v7.5h-0.6l-0.2-0.5h0
	c-0.1,0.1-0.1,0.2-0.2,0.2c-0.1,0.1-0.2,0.2-0.3,0.2c-0.1,0.1-0.2,0.1-0.4,0.2c-0.1,0-0.3,0.1-0.5,0.1c-0.3,0-0.5,0-0.8-0.1
	c-0.3-0.1-0.5-0.2-0.7-0.4c-0.2-0.2-0.4-0.5-0.5-0.8C244.6,38.1,244.6,37.7,244.6,37.3 M245.4,37.2c0,0.3,0,0.5,0.1,0.8
	c0.1,0.2,0.2,0.4,0.3,0.6c0.1,0.2,0.3,0.3,0.4,0.4c0.2,0.1,0.4,0.1,0.6,0.1c0.2,0,0.3,0,0.5-0.1c0.1,0,0.3-0.1,0.4-0.2
	c0.1-0.1,0.2-0.1,0.3-0.2c0.1-0.1,0.1-0.1,0.2-0.2v-2.6c-0.2-0.2-0.4-0.3-0.6-0.4c-0.2-0.1-0.5-0.2-0.7-0.2c-0.2,0-0.3,0-0.5,0.1
	c-0.2,0.1-0.3,0.2-0.5,0.3c-0.1,0.1-0.3,0.3-0.4,0.6C245.4,36.5,245.4,36.9,245.4,37.2"/>
<path class="st0" d="M190.3,47.7c-0.1,0-0.3,0-0.4,0c-0.1,0-0.3,0-0.4,0v3.5h-1.6v-8.8h2.6c0.4,0,0.8,0,1.1,0.1
	c0.3,0,0.6,0.1,0.9,0.2c0.6,0.2,1.1,0.5,1.4,0.9c0.3,0.4,0.5,0.9,0.5,1.5c0,0.4-0.1,0.8-0.3,1.2c-0.2,0.3-0.4,0.6-0.8,0.9
	c-0.3,0.2-0.8,0.4-1.2,0.5C191.5,47.6,190.9,47.7,190.3,47.7 M189.4,46.3c0.1,0,0.2,0,0.4,0c0.1,0,0.3,0,0.4,0c0.4,0,0.8,0,1.1-0.1
	c0.3-0.1,0.5-0.2,0.7-0.3c0.2-0.1,0.3-0.3,0.4-0.5c0.1-0.2,0.1-0.4,0.1-0.6c0-0.3-0.1-0.5-0.2-0.7c-0.1-0.2-0.3-0.3-0.6-0.4
	c-0.2-0.1-0.3-0.1-0.6-0.1c-0.2,0-0.5,0-0.8,0h-0.9V46.3z"/>
<path class="st0" d="M198.6,51.3c-0.6,0-1.2-0.1-1.6-0.3c-0.4-0.2-0.7-0.5-1-0.9c-0.1-0.2-0.2-0.4-0.3-0.7c-0.1-0.2-0.1-0.5-0.1-0.8
	v-3.9h1.6v3.7c0,0.2,0,0.4,0,0.6c0,0.2,0.1,0.3,0.1,0.4c0.1,0.2,0.3,0.3,0.5,0.4c0.2,0.1,0.4,0.1,0.7,0.1c0.3,0,0.5-0.1,0.7-0.2
	c0.2-0.1,0.4-0.3,0.5-0.5c0.1-0.2,0.2-0.5,0.2-0.9v-3.8h1.6v3.9c0,0.5-0.1,1-0.3,1.3c-0.1,0.2-0.2,0.4-0.4,0.6
	c-0.2,0.2-0.4,0.3-0.6,0.4s-0.5,0.2-0.7,0.3C199.3,51.2,199,51.3,198.6,51.3"/>
<path class="st0" d="M206.5,50c0.3,0,0.6,0,1-0.1c0.3-0.1,0.7-0.1,1-0.3v1.2c-0.2,0.1-0.5,0.2-0.9,0.3c-0.4,0.1-0.9,0.1-1.3,0.1
	c-0.5,0-0.9-0.1-1.3-0.2c-0.4-0.1-0.8-0.3-1.1-0.6c-0.3-0.3-0.5-0.6-0.7-1c-0.2-0.4-0.3-0.9-0.3-1.5c0-0.6,0.1-1.1,0.3-1.5
	c0.2-0.4,0.4-0.8,0.7-1.1c0.3-0.3,0.6-0.5,1-0.6c0.4-0.1,0.7-0.2,1.1-0.2c0.4,0,0.8,0.1,1.1,0.2c0.3,0.1,0.6,0.3,0.9,0.6
	c0.2,0.3,0.4,0.6,0.6,1c0.1,0.4,0.2,0.9,0.2,1.5c0,0.2,0,0.4,0,0.6h-4.2c0,0.3,0.1,0.5,0.2,0.8c0.1,0.2,0.3,0.4,0.4,0.5
	c0.2,0.1,0.4,0.2,0.6,0.3C206,50,206.3,50,206.5,50 M205.9,45.7c-0.2,0-0.4,0-0.5,0.1c-0.2,0.1-0.3,0.2-0.4,0.3
	c-0.1,0.1-0.2,0.3-0.3,0.4c-0.1,0.2-0.1,0.3-0.1,0.5h2.5c0-0.2,0-0.4-0.1-0.5c-0.1-0.2-0.1-0.3-0.2-0.4c-0.1-0.1-0.2-0.2-0.4-0.3
	C206.3,45.8,206.1,45.7,205.9,45.7"/>
<path class="st0" d="M214.1,45.9h-0.1c-0.5,0-0.9,0.1-1.3,0.2c-0.4,0.1-0.6,0.4-0.8,0.7v4.3h-1.6v-6.4h1.3l0.1,0.9h0
	c0.2-0.3,0.4-0.6,0.8-0.8c0.3-0.2,0.7-0.3,1.2-0.3c0.2,0,0.3,0,0.4,0V45.9z"/>
<path class="st0" d="M218.9,51.1c-0.2,0.1-0.4,0.1-0.6,0.1c-0.2,0-0.5,0-0.7,0c-0.5,0-1-0.1-1.3-0.3c-0.3-0.2-0.6-0.4-0.7-0.8
	c-0.1-0.2-0.2-0.6-0.2-1V46h-1.2v-1.3h1.2v-1.8h1.6v1.8h1.9V46H217v3.1c0,0.2,0,0.4,0.1,0.5c0.1,0.2,0.4,0.3,0.8,0.3
	c0.2,0,0.4,0,0.5,0c0.2,0,0.3-0.1,0.5-0.1V51.1z"/>
<path class="st0" d="M226.3,47.9c0,0.5-0.1,1-0.2,1.4c-0.2,0.4-0.4,0.8-0.6,1.1c-0.3,0.3-0.6,0.5-1,0.7c-0.4,0.2-0.8,0.2-1.3,0.2
	c-0.5,0-1-0.1-1.4-0.2c-0.4-0.2-0.7-0.4-1-0.7c-0.3-0.3-0.5-0.7-0.6-1.1c-0.1-0.4-0.2-0.9-0.2-1.4c0-0.5,0.1-1,0.2-1.4
	c0.2-0.4,0.4-0.8,0.6-1.1c0.3-0.3,0.6-0.5,1-0.7c0.4-0.2,0.8-0.2,1.3-0.2c0.5,0,1,0.1,1.4,0.2c0.4,0.2,0.7,0.4,1,0.7
	c0.3,0.3,0.5,0.7,0.6,1.1C226.3,46.9,226.3,47.4,226.3,47.9 M224.7,47.9c0-0.3,0-0.6-0.1-0.9c-0.1-0.3-0.2-0.5-0.3-0.7
	c-0.1-0.2-0.3-0.3-0.5-0.4c-0.2-0.1-0.4-0.1-0.7-0.1c-0.2,0-0.4,0-0.6,0.1c-0.2,0.1-0.4,0.2-0.5,0.4c-0.1,0.2-0.3,0.4-0.3,0.7
	c-0.1,0.3-0.1,0.6-0.1,0.9c0,0.3,0,0.6,0.1,0.9c0.1,0.3,0.2,0.5,0.3,0.7c0.1,0.2,0.3,0.3,0.5,0.4c0.2,0.1,0.4,0.1,0.6,0.1
	c0.2,0,0.4,0,0.6-0.1c0.2-0.1,0.4-0.2,0.5-0.4c0.1-0.2,0.3-0.4,0.3-0.7C224.7,48.5,224.7,48.2,224.7,47.9"/>
<path class="st0" d="M232.8,48.9c0.2-0.5,0.3-0.8,0.4-1c0.1-0.2,0.2-0.6,0.5-1.3l1.6-4.4h1.7l-3.5,8.8h-1.5l-3.5-8.8h1.7l1.6,4.4
	c0.2,0.6,0.4,1.1,0.5,1.3C232.5,48.1,232.6,48.4,232.8,48.9L232.8,48.9z"/>
<path class="st0" d="M241.8,50.4L241.8,50.4c-0.1,0.1-0.2,0.2-0.3,0.3c-0.1,0.1-0.3,0.2-0.4,0.3c-0.2,0.1-0.3,0.2-0.5,0.2
	c-0.2,0.1-0.4,0.1-0.6,0.1c-0.3,0-0.6,0-0.9-0.1c-0.3-0.1-0.5-0.2-0.7-0.4c-0.2-0.2-0.3-0.4-0.4-0.6c-0.1-0.3-0.2-0.5-0.2-0.8
	c0-0.3,0.1-0.7,0.2-0.9c0.1-0.3,0.3-0.5,0.5-0.7c0.2-0.2,0.5-0.3,0.8-0.4c0.3-0.1,0.7-0.1,1-0.1c0.3,0,0.5,0,0.8,0.1
	c0.2,0,0.4,0.1,0.6,0.1v-0.3c0-0.1,0-0.3-0.1-0.4c-0.1-0.1-0.1-0.3-0.2-0.4c-0.1-0.1-0.3-0.2-0.4-0.3c-0.2-0.1-0.4-0.1-0.7-0.1
	c-0.3,0-0.6,0-1,0.1c-0.3,0.1-0.7,0.2-1,0.3V45c0.3-0.1,0.7-0.2,1-0.3c0.4-0.1,0.7-0.1,1.1-0.1c0.5,0,0.9,0.1,1.2,0.2
	c0.4,0.1,0.6,0.3,0.9,0.5c0.2,0.2,0.4,0.4,0.5,0.7c0.1,0.3,0.2,0.6,0.2,0.9v2.4c0,0.4,0,0.8,0,1.1c0,0.3,0,0.6,0,0.8h-1.4
	L241.8,50.4z M241.7,48.4c-0.2,0-0.3-0.1-0.5-0.1c-0.2,0-0.4,0-0.6,0c-0.4,0-0.7,0.1-0.9,0.2c-0.2,0.2-0.3,0.4-0.3,0.7
	c0,0.1,0,0.3,0.1,0.4c0.1,0.1,0.1,0.2,0.2,0.3c0.1,0.1,0.2,0.1,0.3,0.2c0.1,0,0.2,0.1,0.4,0.1c0.2,0,0.3,0,0.5-0.1
	c0.1,0,0.3-0.1,0.4-0.2c0.1-0.1,0.2-0.1,0.3-0.2c0.1-0.1,0.2-0.2,0.2-0.2V48.4z"/>
<path class="st0" d="M248.9,45.9h-0.1c-0.5,0-0.9,0.1-1.3,0.2c-0.4,0.1-0.6,0.4-0.8,0.7v4.3h-1.6v-6.4h1.3l0.1,0.9h0
	c0.2-0.3,0.4-0.6,0.8-0.8c0.3-0.2,0.7-0.3,1.2-0.3c0.2,0,0.3,0,0.4,0V45.9z"/>
<path class="st0" d="M253.6,50.4L253.6,50.4c-0.1,0.1-0.2,0.2-0.3,0.3c-0.1,0.1-0.3,0.2-0.4,0.3c-0.2,0.1-0.3,0.2-0.5,0.2
	c-0.2,0.1-0.4,0.1-0.6,0.1c-0.3,0-0.6,0-0.9-0.1c-0.3-0.1-0.5-0.2-0.7-0.4c-0.2-0.2-0.3-0.4-0.4-0.6c-0.1-0.3-0.2-0.5-0.2-0.8
	c0-0.3,0.1-0.7,0.2-0.9c0.1-0.3,0.3-0.5,0.5-0.7c0.2-0.2,0.5-0.3,0.8-0.4c0.3-0.1,0.7-0.1,1-0.1c0.3,0,0.5,0,0.8,0.1
	c0.2,0,0.4,0.1,0.6,0.1v-0.3c0-0.1,0-0.3-0.1-0.4c-0.1-0.1-0.1-0.3-0.2-0.4c-0.1-0.1-0.3-0.2-0.4-0.3c-0.2-0.1-0.4-0.1-0.7-0.1
	c-0.3,0-0.6,0-1,0.1c-0.3,0.1-0.7,0.2-1,0.3V45c0.3-0.1,0.7-0.2,1-0.3c0.4-0.1,0.7-0.1,1.1-0.1c0.5,0,0.9,0.1,1.2,0.2
	c0.4,0.1,0.6,0.3,0.9,0.5c0.2,0.2,0.4,0.4,0.5,0.7c0.1,0.3,0.2,0.6,0.2,0.9v2.4c0,0.4,0,0.8,0,1.1c0,0.3,0,0.6,0,0.8h-1.4
	L253.6,50.4z M253.5,48.4c-0.2,0-0.3-0.1-0.5-0.1c-0.2,0-0.4,0-0.6,0c-0.4,0-0.7,0.1-0.9,0.2c-0.2,0.2-0.3,0.4-0.3,0.7
	c0,0.1,0,0.3,0.1,0.4c0,0.1,0.1,0.2,0.2,0.3c0.1,0.1,0.2,0.1,0.3,0.2c0.1,0,0.2,0.1,0.4,0.1c0.2,0,0.3,0,0.5-0.1
	c0.1,0,0.3-0.1,0.4-0.2c0.1-0.1,0.2-0.1,0.3-0.2c0.1-0.1,0.2-0.2,0.2-0.2V48.4z"/>
<path class="st0" d="M259.7,49.2c0-0.1,0-0.2-0.1-0.3c-0.1-0.1-0.2-0.2-0.3-0.2c-0.1-0.1-0.3-0.1-0.4-0.2c-0.2,0-0.3-0.1-0.5-0.1
	c-0.2-0.1-0.4-0.1-0.7-0.2c-0.2-0.1-0.4-0.2-0.6-0.3c-0.2-0.1-0.3-0.3-0.4-0.5c-0.1-0.2-0.1-0.4-0.1-0.7c0-0.4,0.1-0.7,0.2-0.9
	c0.1-0.3,0.3-0.5,0.5-0.7c0.2-0.2,0.5-0.3,0.8-0.4c0.3-0.1,0.6-0.1,0.9-0.1c0.4,0,0.8,0,1.1,0.1c0.3,0.1,0.7,0.1,0.9,0.2v1.3
	c-0.1,0-0.3-0.1-0.5-0.1c-0.2,0-0.3-0.1-0.5-0.1c-0.2,0-0.3-0.1-0.5-0.1c-0.2,0-0.3,0-0.5,0c-0.2,0-0.3,0-0.5,0.1
	c-0.1,0-0.2,0.1-0.3,0.1c-0.1,0.1-0.1,0.1-0.2,0.2c0,0.1-0.1,0.2-0.1,0.2c0,0.1,0,0.3,0.1,0.4c0.1,0.1,0.2,0.2,0.3,0.2
	c0.1,0.1,0.3,0.1,0.4,0.1c0.2,0,0.3,0.1,0.4,0.1c0.2,0.1,0.4,0.1,0.7,0.2c0.2,0.1,0.4,0.2,0.6,0.3c0.2,0.1,0.3,0.3,0.4,0.5
	c0.1,0.2,0.2,0.5,0.2,0.8c0,0.4-0.1,0.7-0.2,0.9c-0.1,0.3-0.3,0.5-0.6,0.7c-0.2,0.2-0.5,0.3-0.9,0.4c-0.3,0.1-0.7,0.1-1.1,0.1
	c-0.4,0-0.8,0-1.1-0.1c-0.3-0.1-0.6-0.1-0.8-0.2v-1.3c0.3,0.1,0.7,0.2,1,0.3c0.3,0,0.6,0.1,0.8,0.1c0.2,0,0.4,0,0.5,0
	c0.2,0,0.3-0.1,0.4-0.1c0.1-0.1,0.2-0.1,0.3-0.2C259.7,49.5,259.7,49.4,259.7,49.2"/>
</svg>
